G04*
G04 #@! TF.GenerationSoftware,Altium Limited,Altium Designer,23.10.1 (27)*
G04*
G04 Layer_Color=16711935*
%FSAX44Y44*%
%MOMM*%
G71*
G04*
G04 #@! TF.SameCoordinates,5C1EF094-659E-4F14-B8F6-58BB7AD2CD52*
G04*
G04*
G04 #@! TF.FilePolarity,Negative*
G04*
G01*
G75*
%ADD16C,0.0500*%
%ADD100C,0.9000*%
%ADD101C,0.6000*%
%ADD146C,3.0000*%
%ADD147C,1.3000*%
%ADD148C,1.8000*%
%ADD150C,1.0000*%
%ADD151C,3.7000*%
%ADD152C,5.8000*%
%ADD153C,2.1016*%
%ADD154O,1.3016X3.9016*%
%ADD155O,1.2016X2.6016*%
%ADD156C,2.7000*%
%ADD157O,1.3016X2.6016*%
%ADD158C,0.8500*%
G04:AMPARAMS|DCode=159|XSize=2.2mm|YSize=1.1mm|CornerRadius=0.55mm|HoleSize=0mm|Usage=FLASHONLY|Rotation=270.000|XOffset=0mm|YOffset=0mm|HoleType=Round|Shape=RoundedRectangle|*
%AMROUNDEDRECTD159*
21,1,2.2000,0.0000,0,0,270.0*
21,1,1.1000,1.1000,0,0,270.0*
1,1,1.1000,0.0000,-0.5500*
1,1,1.1000,0.0000,0.5500*
1,1,1.1000,0.0000,0.5500*
1,1,1.1000,0.0000,-0.5500*
%
%ADD159ROUNDEDRECTD159*%
G04:AMPARAMS|DCode=160|XSize=1.9mm|YSize=1.1mm|CornerRadius=0.55mm|HoleSize=0mm|Usage=FLASHONLY|Rotation=270.000|XOffset=0mm|YOffset=0mm|HoleType=Round|Shape=RoundedRectangle|*
%AMROUNDEDRECTD160*
21,1,1.9000,0.0000,0,0,270.0*
21,1,0.8000,1.1000,0,0,270.0*
1,1,1.1000,0.0000,-0.4000*
1,1,1.1000,0.0000,0.4000*
1,1,1.1000,0.0000,0.4000*
1,1,1.1000,0.0000,-0.4000*
%
%ADD160ROUNDEDRECTD160*%
%ADD161C,0.7500*%
G04:AMPARAMS|DCode=162|XSize=7.5mm|YSize=3.9mm|CornerRadius=1mm|HoleSize=0mm|Usage=FLASHONLY|Rotation=180.000|XOffset=0mm|YOffset=0mm|HoleType=Round|Shape=RoundedRectangle|*
%AMROUNDEDRECTD162*
21,1,7.5000,1.9000,0,0,180.0*
21,1,5.5000,3.9000,0,0,180.0*
1,1,2.0000,-2.7500,0.9500*
1,1,2.0000,2.7500,0.9500*
1,1,2.0000,2.7500,-0.9500*
1,1,2.0000,-2.7500,-0.9500*
%
%ADD162ROUNDEDRECTD162*%
%ADD190R,1.4000X1.6000*%
G04:AMPARAMS|DCode=191|XSize=1.4mm|YSize=1.6mm|CornerRadius=0.31mm|HoleSize=0mm|Usage=FLASHONLY|Rotation=90.000|XOffset=0mm|YOffset=0mm|HoleType=Round|Shape=RoundedRectangle|*
%AMROUNDEDRECTD191*
21,1,1.4000,0.9800,0,0,90.0*
21,1,0.7800,1.6000,0,0,90.0*
1,1,0.6200,0.4900,0.3900*
1,1,0.6200,0.4900,-0.3900*
1,1,0.6200,-0.4900,-0.3900*
1,1,0.6200,-0.4900,0.3900*
%
%ADD191ROUNDEDRECTD191*%
G04:AMPARAMS|DCode=192|XSize=2.7mm|YSize=1.1mm|CornerRadius=0.3mm|HoleSize=0mm|Usage=FLASHONLY|Rotation=180.000|XOffset=0mm|YOffset=0mm|HoleType=Round|Shape=RoundedRectangle|*
%AMROUNDEDRECTD192*
21,1,2.7000,0.5000,0,0,180.0*
21,1,2.1000,1.1000,0,0,180.0*
1,1,0.6000,-1.0500,0.2500*
1,1,0.6000,1.0500,0.2500*
1,1,0.6000,1.0500,-0.2500*
1,1,0.6000,-1.0500,-0.2500*
%
%ADD192ROUNDEDRECTD192*%
G04:AMPARAMS|DCode=193|XSize=1.1mm|YSize=2.7mm|CornerRadius=0.3mm|HoleSize=0mm|Usage=FLASHONLY|Rotation=270.000|XOffset=0mm|YOffset=0mm|HoleType=Round|Shape=RoundedRectangle|*
%AMROUNDEDRECTD193*
21,1,1.1000,2.1000,0,0,270.0*
21,1,0.5000,2.7000,0,0,270.0*
1,1,0.6000,-1.0500,-0.2500*
1,1,0.6000,-1.0500,0.2500*
1,1,0.6000,1.0500,0.2500*
1,1,0.6000,1.0500,-0.2500*
%
%ADD193ROUNDEDRECTD193*%
D16*
X00438000Y00000000D02*
G03*
X00468000Y00030000I00000000J00030000D01*
G01*
Y00873000D02*
G03*
X00438000Y00903000I-00030000J00000000D01*
G01*
X00000000Y00030000D02*
G03*
X00030000Y00000000I00030000J00000000D01*
G01*
Y00903000D02*
G03*
X00000000Y00873000I00000000J-00030000D01*
G01*
Y00717500D02*
G03*
X00010000Y00707500I00010000J00000000D01*
G01*
Y00467500D02*
G03*
X00000000Y00457500I00000000J-00010000D01*
G01*
X00035000Y00467500D02*
G03*
X00045000Y00477500I00000000J00010000D01*
G01*
Y00697500D02*
G03*
X00035000Y00707500I-00010000J00000000D01*
G01*
X00468000Y00030000D02*
Y00873000D01*
X00030000Y00000000D02*
X00438000D01*
X00030000Y00903000D02*
X00438000D01*
X00000000Y00717500D02*
Y00873000D01*
Y00030000D02*
Y00457500D01*
X00010034Y00467534D02*
X00035034D01*
X00010000Y00707500D02*
X00035000D01*
X00045000Y00477500D02*
Y00697500D01*
D100*
X00092250Y00285000D02*
D03*
D101*
X00360493Y00537993D02*
D03*
X00344000Y00510500D02*
D03*
X00365500Y00522500D02*
D03*
D146*
X00381000Y00021000D02*
D03*
X00333000Y00882000D02*
D03*
X00085000Y00883500D02*
D03*
D147*
X00130500Y00549500D02*
D03*
D148*
Y00749500D02*
D03*
D150*
X00022000Y00345250D02*
D03*
Y00387750D02*
D03*
Y00267250D02*
D03*
Y00309750D02*
D03*
D151*
X00234000Y00246004D02*
D03*
Y00759004D02*
D03*
D152*
X00434000Y00034004D02*
D03*
X00424000Y00859004D02*
D03*
X00044000D02*
D03*
X00034000Y00034004D02*
D03*
D153*
X00297951Y00775001D02*
D03*
D154*
X00260750Y00879498D02*
D03*
X00359250Y00879497D02*
D03*
D155*
X00349939Y00807487D02*
D03*
D156*
X00297950Y00869999D02*
D03*
D157*
X00297956Y00807504D02*
D03*
D158*
X00141099Y00847500D02*
D03*
X00198899D02*
D03*
D159*
X00213199Y00842500D02*
D03*
X00126799D02*
D03*
X00277201Y00060500D02*
D03*
X00190801D02*
D03*
D160*
X00213199Y00884000D02*
D03*
X00126799D02*
D03*
X00277201Y00019000D02*
D03*
X00190801D02*
D03*
D161*
X00205101Y00055500D02*
D03*
X00262901D02*
D03*
D162*
X00424273Y00197893D02*
D03*
X00044273D02*
D03*
D190*
X00380500Y00877000D02*
D03*
D191*
X00155000Y00770500D02*
D03*
X00155000Y00742500D02*
D03*
X00178000Y00770500D02*
D03*
X00178000Y00742500D02*
D03*
D192*
X00448600Y00155600D02*
D03*
X00019000Y00079400D02*
D03*
X00048600Y00104800D02*
D03*
X00019000Y00130200D02*
D03*
X00048600Y00155600D02*
D03*
X00419000Y00130200D02*
D03*
X00448600Y00104800D02*
D03*
X00419000Y00079400D02*
D03*
D193*
X00449000D02*
D03*
X00419400Y00104800D02*
D03*
X00449000Y00130200D02*
D03*
X00419400Y00155600D02*
D03*
X00049000Y00079400D02*
D03*
X00019400Y00104800D02*
D03*
X00049000Y00130200D02*
D03*
X00019400Y00155600D02*
D03*
M02*
