M48
;Layer_Color=9474304
;FILE_FORMAT=4:4
METRIC
;TYPE=PLATED
T01F00S00C0.2000
T02F00S00C0.2500
T04F00S00C1.3000
T06F00S00C4.2000
%
T01
X00239000Y00110075
X00369000Y00098500
X00374500Y00093000
X00380000Y00098500
Y00087500
X00369000
X00360000Y00074000
X00353500Y00050500
X00399500Y00090500
X00388500Y00107000
X00365542Y00379000
X00358305Y00378970
X00344000Y00362500
X00337500
X00331000
X00315500Y00379000
X00309000
X00302500
X00331000Y00395500
X00337500
X00344000
X00338805Y00413970
X00336155Y00420698
X00344000Y00499500
X00353500Y00494000
X00363000Y00499500
X00355500Y00522500
X00348000
X00340500
X00340491Y00530509
X00332990Y00530509
X00360493Y00528007
X00340500Y00574750
X00322500Y00573750
X00317000Y00559500
X00120000Y00398500
X00099000Y00375500
X00091500Y00375000
X00096000Y00356000
X00104000Y00351000
X00079000Y00347000
X00079000Y00339500
Y00332000
Y00324500
Y00317000
X00052500Y00364000
X00165000Y00792500
X00344500Y00614500
T02
X00010000Y00066500
X00011000Y00142500
X00037500
X00065500Y00166500
X00109500Y00149500
Y00137000
X00156000Y00126500
Y00118000
Y00109500
Y00101000
X00168500Y00110500
X00173500Y00136000
X00180347Y00163500
X00190674Y00163174
X00197745Y00170245
Y00180245
X00216000Y00170000
X00276000Y00167500
Y00178000
Y00143000
X00292500Y00155000
X00312500Y00160000
Y00169000
X00316000Y00176000
X00331500
X00339000Y00160000
X00355500Y00141500
X00351500Y00129000
Y00120500
X00361000Y00124000
X00360500Y00112500
X00340000Y00110500
X00343500Y00097500
X00341000Y00085000
X00332000Y00085000
X00341000Y00076000
X00315500Y00097500
Y00114000
X00305000Y00119500
X00288000Y00116000
X00263500Y00116000
Y00124000
X00244000Y00116000
X00234000
X00209001Y00091500
X00205001Y00084500
X00213001
X00209001Y00077500
X00199001Y00077500
X00191001Y00077500
X00195001Y00084500
X00187001
X00175500Y00069500
X00166500Y00078000
X00160500Y00010000
X00127500Y00015000
X00105500
X00068000Y00010500
X00074500Y00039000
X00064500Y00059500
X00019000Y00090000
X00143500Y00171500
X00259000Y00091500
X00255000Y00084500
X00263000
X00273000
X00281000
X00277000Y00077500
X00269000Y00077500
X00259000Y00077500
X00273500Y00099500
X00294500Y00089500
X00290500Y00054000
X00308500Y00050000
X00345858Y00032270
X00346500Y00017000
X00330500Y00009000
X00289500Y00009500
X00262500Y00009000
X00235500Y00009500
X00204000Y00010000
X00235000Y00049000
X00362500Y00032500
X00385000Y00041500
X00389500Y00069000
Y00078000
X00373000Y00133000
X00331500Y00119500
X00394000Y00169500
X00402000Y00010000
X00426500Y00092000
X00419400Y00114500
X00419000Y00141000
X00458500Y00143500
X00459000Y00168500
X00458000Y00117000
Y00064000
X00459000Y00229000
X00459500Y00272000
X00458500Y00324000
Y00435000
X00441000Y00438000
X00439000Y00502000
X00447000
X00455000
X00451000Y00509000
X00443000
X00435000
X00459000Y00584500
X00380000Y00586000
X00345491Y00566259
X00310000Y00563500
Y00571500
X00303000Y00567500
X00296000Y00571500
Y00563500
X00287000Y00536000
Y00528000
Y00520000
Y00512000
Y00504000
Y00496000
Y00488000
Y00480000
Y00472000
X00286500Y00461500
X00294500
X00327500Y00458000
Y00450000
X00334500Y00454000
Y00462000
X00353500Y00471000
X00363000Y00471000
X00370500Y00454500
X00363000Y00416000
X00354805Y00406470
X00340555Y00432471
X00333055
X00294500Y00379000
X00286500
X00278500
X00270500
X00262500
X00254500
X00246500
X00238500
X00230500
X00210632Y00386146
X00202500Y00386500
X00196500Y00392000
X00190500Y00386500
X00185500Y00359500
X00175250Y00360750
X00164500Y00362332
X00144500Y00353500
X00150157Y00347843
X00144500Y00340000
X00160500Y00332500
X00172000Y00327500
X00189500Y00320000
X00199500
X00210000Y00361000
X00151000Y00379000
X00165000Y00413500
X00137000Y00434000
X00127000
X00117000Y00434000
X00106000Y00429500
X00103500Y00406500
X00092500Y00407000
Y00415000
X00083000
X00088000Y00400000
X00098000
X00069500Y00392500
X00068000Y00371500
X00058364Y00370157
X00053000Y00356500
X00052000Y00333500
X00032500Y00335500
X00039500Y00319500
Y00311234
X00052000Y00311500
X00059500Y00295000
X00051500Y00281500
Y00251500
X00060500Y00251500
X00072000Y00251500
X00082000Y00251500
X00098000Y00251500
X00108000Y00251500
X00119500Y00255000
X00112000Y00238000
X00119500Y00230000
X00129500Y00230500
X00129500Y00222500
X00153500Y00217000
X00164500Y00217500
X00158500Y00239500
X00167500Y00273500
X00143000Y00293000
X00146000Y00310000
X00123000Y00305000
X00122357Y00315643
X00112000Y00318000
X00102500
Y00330000
X00112000
Y00342000
X00102500
X00088000
Y00330000
Y00318000
X00087000Y00308500
X00079500Y00304500
X00082000Y00275500
X00098000Y00275500
X00108000
X00107500Y00203000
X00101000Y00196000
X00064500Y00231000
X00071000Y00238000
X00116500Y00352000
X00127000Y00446500
X00136000Y00477500
X00116000
X00095998Y00491000
X00054000Y00490500
X00053500Y00472000
X00030500Y00459000
X00042500Y00446500
X00033500Y00392000
X00062500Y00502500
X00054000Y00523000
X00065750Y00546000
X00065000Y00567000
Y00582000
X00054000Y00572500
X00088501Y00528998
X00134500Y00517000
X00145500Y00545000
X00164500Y00542500
X00172500
X00166000Y00559500
X00140500Y00564500
X00216000Y00559000
Y00551000
Y00543000
Y00535000
Y00527000
Y00519000
Y00511000
Y00503000
Y00495000
Y00487000
Y00479000
Y00471000
Y00463000
Y00455000
Y00447000
Y00439000
X00178460Y00476000
X00168500Y00477000
Y00469000
X00160500
X00168500Y00489000
X00181722Y00521621
X00189500Y00519500
X00187379Y00527278
X00226000Y00581500
X00359000Y00514500
Y00506500
X00350805Y00344470
Y00336470
X00361976Y00328291
X00356805Y00322119
X00357000Y00315456
X00356805Y00308772
X00365000Y00301000
X00353000Y00293500
X00327305Y00322971
X00293500Y00293500
X00281000Y00237000
Y00229000
Y00221000
X00306000Y00229000
Y00237000
X00313157Y00233157
X00329000Y00237000
X00329000Y00227000
X00330000Y00252000
X00399500Y00258000
X00403500Y00247000
Y00239000
Y00231000
X00388500Y00228000
X00392000Y00274500
X00217500Y00276500
Y00268500
Y00284500
X00189000Y00193500
X00011500Y00231500
Y00258000
Y00336000
Y00414500
X00009000Y00431000
X00010000Y00718000
Y00728500
X00008000Y00743500
Y00771500
X00009500Y00811500
X00012000Y00837000
X00016500Y00887000
X00063000Y00892000
X00091000Y00861000
Y00852000
X00083500Y00845500
X00084500Y00825500
X00091500Y00821500
Y00829500
X00087000Y00812500
X00079000Y00815500
X00064500Y00828000
X00127000Y00825500
X00135000
X00145000
X00141000Y00818500
X00149000
X00145000Y00811500
X00131000Y00818500
X00123000
X00106500Y00796000
X00124500Y00776000
X00110000Y00754000
X00119500Y00722500
Y00714500
X00126500Y00718500
X00063000Y00723000
X00053500
X00051000Y00713000
X00051000Y00738500
Y00746500
X00058000Y00742500
X00065750Y00753000
X00040000Y00729000
X00031500
X00023000
X00053000Y00689000
X00065000Y00682000
Y00697000
Y00667000
Y00652000
Y00637000
X00065000Y00622000
X00054000Y00614000
X00096843Y00612471
X00096975Y00623472
X00102632Y00618037
X00102485Y00629224
X00096865Y00634918
X00102500Y00606814
X00102500Y00595500
X00096843Y00601157
X00096843Y00589843
X00140000Y00631500
Y00645500
X00175000Y00643500
X00205000
X00226000Y00637500
Y00629500
Y00621500
Y00613500
Y00605500
Y00597500
Y00589500
X00205000Y00601000
X00194000Y00593500
X00186000
X00190000Y00586500
X00167500Y00607500
X00171000Y00677000
X00193000Y00701000
X00195500Y00748500
X00203500
X00199500Y00755500
X00191500
X00194999Y00811500
X00190999Y00818500
X00198999
X00208999Y00818500
X00216999
X00212999Y00825500
X00204999
X00194999Y00825500
X00182000Y00894000
X00139500Y00893500
X00118500Y00858500
X00099000Y00865500
X00229500Y00893500
X00277000Y00894000
X00314000
X00374000Y00893500
X00405000Y00894000
X00398000Y00830500
X00370536Y00820435
X00372657Y00812657
X00364879Y00814778
X00367000Y00807000
X00337000Y00807500
X00329000
X00325000Y00800500
X00333000
X00341250Y00707250
X00298500Y00698500
X00291500Y00694500
Y00702500
X00295000Y00684500
X00256995Y00660500
X00228500Y00651500
X00231500Y00734500
X00403000Y00726500
X00396000Y00689000
X00382500Y00690000
X00359500Y00647500
X00352500Y00652500
X00344500
X00336500Y00652500
X00333500Y00640000
X00325500Y00638500
Y00630500
Y00622500
X00346500Y00632000
X00380000Y00602000
Y00594000
X00387000Y00598000
Y00606000
Y00590000
X00054000Y00660000
X00425000Y00709000
X00448000Y00707000
X00458000Y00727000
X00451000Y00767000
X00449000Y00783000
X00441000
X00441000Y00804500
X00449000
X00451000Y00822000
X00425000Y00752500
X00458500Y00679000
X00456500Y00625000
T04
X00297950Y00775000
T06
X00412250Y00649500
M30
