G04*
G04 #@! TF.GenerationSoftware,Altium Limited,Altium Designer,23.10.1 (27)*
G04*
G04 Layer_Physical_Order=4*
G04 Layer_Color=16711680*
%FSAX44Y44*%
%MOMM*%
G71*
G04*
G04 #@! TF.SameCoordinates,5C1EF094-659E-4F14-B8F6-58BB7AD2CD52*
G04*
G04*
G04 #@! TF.FilePolarity,Positive*
G04*
G01*
G75*
%ADD10C,0.2000*%
%ADD11C,0.2500*%
%ADD13C,0.1500*%
%ADD15C,0.3000*%
%ADD16C,0.0500*%
%ADD150C,1.0000*%
%ADD165C,0.8000*%
%ADD166C,0.5000*%
%ADD172C,0.5000*%
%ADD174C,0.1420*%
%ADD175C,1.5000*%
%ADD176C,0.4000*%
%ADD178C,2.0000*%
%ADD179O,1.2000X3.8000*%
%ADD180O,1.1000X2.5000*%
%ADD181O,1.2000X2.5000*%
G04:AMPARAMS|DCode=182|XSize=2.1mm|YSize=1mm|CornerRadius=0.5mm|HoleSize=0mm|Usage=FLASHONLY|Rotation=270.000|XOffset=0mm|YOffset=0mm|HoleType=Round|Shape=RoundedRectangle|*
%AMROUNDEDRECTD182*
21,1,2.1000,0.0000,0,0,270.0*
21,1,1.1000,1.0000,0,0,270.0*
1,1,1.0000,0.0000,-0.5500*
1,1,1.0000,0.0000,0.5500*
1,1,1.0000,0.0000,0.5500*
1,1,1.0000,0.0000,-0.5500*
%
%ADD182ROUNDEDRECTD182*%
G04:AMPARAMS|DCode=183|XSize=1.8mm|YSize=1mm|CornerRadius=0.5mm|HoleSize=0mm|Usage=FLASHONLY|Rotation=270.000|XOffset=0mm|YOffset=0mm|HoleType=Round|Shape=RoundedRectangle|*
%AMROUNDEDRECTD183*
21,1,1.8000,0.0000,0,0,270.0*
21,1,0.8000,1.0000,0,0,270.0*
1,1,1.0000,0.0000,-0.4000*
1,1,1.0000,0.0000,0.4000*
1,1,1.0000,0.0000,0.4000*
1,1,1.0000,0.0000,-0.4000*
%
%ADD183ROUNDEDRECTD183*%
G04:AMPARAMS|DCode=184|XSize=7.4mm|YSize=3.8mm|CornerRadius=0.95mm|HoleSize=0mm|Usage=FLASHONLY|Rotation=180.000|XOffset=0mm|YOffset=0mm|HoleType=Round|Shape=RoundedRectangle|*
%AMROUNDEDRECTD184*
21,1,7.4000,1.9000,0,0,180.0*
21,1,5.5000,3.8000,0,0,180.0*
1,1,1.9000,-2.7500,0.9500*
1,1,1.9000,2.7500,0.9500*
1,1,1.9000,2.7500,-0.9500*
1,1,1.9000,-2.7500,-0.9500*
%
%ADD184ROUNDEDRECTD184*%
%ADD185C,0.5500*%
G04:AMPARAMS|DCode=186|XSize=1.3mm|YSize=1.5mm|CornerRadius=0.26mm|HoleSize=0mm|Usage=FLASHONLY|Rotation=90.000|XOffset=0mm|YOffset=0mm|HoleType=Round|Shape=RoundedRectangle|*
%AMROUNDEDRECTD186*
21,1,1.3000,0.9800,0,0,90.0*
21,1,0.7800,1.5000,0,0,90.0*
1,1,0.5200,0.4900,0.3900*
1,1,0.5200,0.4900,-0.3900*
1,1,0.5200,-0.4900,-0.3900*
1,1,0.5200,-0.4900,0.3900*
%
%ADD186ROUNDEDRECTD186*%
G04:AMPARAMS|DCode=187|XSize=2.6mm|YSize=1mm|CornerRadius=0.25mm|HoleSize=0mm|Usage=FLASHONLY|Rotation=180.000|XOffset=0mm|YOffset=0mm|HoleType=Round|Shape=RoundedRectangle|*
%AMROUNDEDRECTD187*
21,1,2.6000,0.5000,0,0,180.0*
21,1,2.1000,1.0000,0,0,180.0*
1,1,0.5000,-1.0500,0.2500*
1,1,0.5000,1.0500,0.2500*
1,1,0.5000,1.0500,-0.2500*
1,1,0.5000,-1.0500,-0.2500*
%
%ADD187ROUNDEDRECTD187*%
G04:AMPARAMS|DCode=188|XSize=1mm|YSize=2.6mm|CornerRadius=0.25mm|HoleSize=0mm|Usage=FLASHONLY|Rotation=270.000|XOffset=0mm|YOffset=0mm|HoleType=Round|Shape=RoundedRectangle|*
%AMROUNDEDRECTD188*
21,1,1.0000,2.1000,0,0,270.0*
21,1,0.5000,2.6000,0,0,270.0*
1,1,0.5000,-1.0500,-0.2500*
1,1,0.5000,-1.0500,0.2500*
1,1,0.5000,1.0500,0.2500*
1,1,0.5000,1.0500,-0.2500*
%
%ADD188ROUNDEDRECTD188*%
%ADD189C,5.0000*%
G36*
X00382119Y00687277D02*
X00379900Y00686486D01*
X00378684Y00688098D01*
X00379769Y00690326D01*
X00382119Y00687277D01*
D02*
G37*
G36*
X00395973Y00686250D02*
X00394264Y00685143D01*
X00392143Y00687264D01*
X00393250Y00688972D01*
X00395973Y00686250D01*
D02*
G37*
G36*
X00333473Y00642750D02*
X00330750Y00640027D01*
X00329815Y00642271D01*
X00331229Y00643685D01*
X00333473Y00642750D01*
D02*
G37*
G36*
X00094901Y00632993D02*
X00092569Y00634168D01*
Y00635668D01*
X00094901Y00636843D01*
Y00632993D01*
D02*
G37*
G36*
X00350455Y00633500D02*
Y00630500D01*
X00348464Y00630075D01*
Y00633925D01*
X00350455Y00633500D01*
D02*
G37*
G36*
X00100521Y00627299D02*
X00098189Y00628474D01*
Y00629974D01*
X00100521Y00631149D01*
Y00627299D01*
D02*
G37*
G36*
X00095011Y00621547D02*
X00092679Y00622722D01*
Y00624222D01*
X00095011Y00625397D01*
Y00621547D01*
D02*
G37*
G36*
X00100668Y00616112D02*
X00098336Y00617287D01*
Y00618787D01*
X00100668Y00619962D01*
Y00616112D01*
D02*
G37*
G36*
X00094879Y00610546D02*
X00092547Y00611721D01*
Y00613221D01*
X00094879Y00614395D01*
Y00610546D01*
D02*
G37*
G36*
X00100536Y00604889D02*
X00098204Y00606064D01*
Y00607564D01*
X00100536Y00608739D01*
Y00604889D01*
D02*
G37*
G36*
X00096816Y00598407D02*
X00094336Y00597589D01*
X00093275Y00598650D01*
X00094093Y00601129D01*
X00096816Y00598407D01*
D02*
G37*
G36*
X00103250Y00591204D02*
X00101750D01*
X00100575Y00593536D01*
X00104425D01*
X00103250Y00591204D01*
D02*
G37*
G36*
X00097593Y00585547D02*
X00096093D01*
X00094918Y00587879D01*
X00098768D01*
X00097593Y00585547D01*
D02*
G37*
G36*
X00341183Y00572345D02*
X00339355Y00571191D01*
X00337477Y00572141D01*
X00338109Y00574019D01*
X00341183Y00572345D01*
D02*
G37*
G36*
X00323500Y00569959D02*
X00321500D01*
X00320750Y00571965D01*
X00324250D01*
X00323500Y00569959D01*
D02*
G37*
G36*
X00339495Y00580174D02*
X00339180Y00579074D01*
X00337951Y00578565D01*
X00336685Y00577299D01*
X00336000Y00575645D01*
Y00574145D01*
X00335711Y00573287D01*
X00327223Y00564799D01*
X00326659Y00564653D01*
X00325901Y00564706D01*
X00325559Y00565049D01*
Y00569642D01*
X00326038Y00570924D01*
X00326315Y00571201D01*
X00327000Y00572855D01*
Y00574645D01*
X00326315Y00576299D01*
X00325049Y00577565D01*
X00323395Y00578250D01*
X00321605D01*
X00319951Y00577565D01*
X00318685Y00576299D01*
X00318000Y00574645D01*
Y00572855D01*
X00318685Y00571201D01*
X00318962Y00570924D01*
X00319441Y00569642D01*
Y00564442D01*
X00318445Y00563772D01*
X00317895Y00564000D01*
X00316105D01*
X00314451Y00563315D01*
X00313185Y00562049D01*
X00312500Y00560395D01*
Y00558605D01*
X00313185Y00556951D01*
X00313462Y00556674D01*
X00313941Y00555392D01*
Y00497201D01*
X00313941Y00497201D01*
X00314174Y00496030D01*
X00314837Y00495038D01*
X00338412Y00471463D01*
X00338029Y00470539D01*
X00328500D01*
X00328500Y00470539D01*
X00327720Y00470384D01*
X00327058Y00469942D01*
X00321058Y00463942D01*
X00320616Y00463280D01*
X00320461Y00462500D01*
Y00459582D01*
X00307444D01*
X00304964Y00459255D01*
X00302653Y00458298D01*
X00300669Y00456775D01*
X00277734Y00433841D01*
X00214710D01*
X00211582Y00436969D01*
Y00507000D01*
X00211255Y00509480D01*
X00210298Y00511791D01*
X00208776Y00513775D01*
X00191276Y00531275D01*
X00189291Y00532798D01*
X00186980Y00533755D01*
X00184500Y00534082D01*
X00182020Y00533755D01*
X00179709Y00532798D01*
X00177725Y00531275D01*
X00176304Y00529424D01*
X00175304Y00529509D01*
Y00537749D01*
X00176155Y00539437D01*
X00176527Y00539809D01*
X00177250Y00541555D01*
Y00542081D01*
X00177842Y00543877D01*
X00180445Y00546480D01*
X00193284D01*
X00194357Y00546694D01*
X00195267Y00547301D01*
X00212661Y00564696D01*
X00244550D01*
X00245623Y00564910D01*
X00246533Y00565517D01*
X00262712Y00581696D01*
X00337972D01*
X00339495Y00580174D01*
D02*
G37*
G36*
X00318000Y00555709D02*
X00316000D01*
X00315250Y00557715D01*
X00318750D01*
X00318000Y00555709D01*
D02*
G37*
G36*
X00063000Y00747500D02*
X00106000D01*
X00134500Y00719000D01*
Y00603000D01*
X00173000Y00564500D01*
Y00558500D01*
X00168500Y00554000D01*
X00143000D01*
X00109000Y00588000D01*
Y00712000D01*
X00092500Y00728500D01*
X00051500D01*
X00044500Y00735500D01*
Y00748000D01*
X00048500Y00752000D01*
X00058500D01*
X00063000Y00747500D01*
D02*
G37*
G36*
X00176068Y00545007D02*
X00175250Y00542528D01*
X00172528Y00545250D01*
X00175007Y00546068D01*
X00176068Y00545007D01*
D02*
G37*
G36*
X00168068D02*
X00167250Y00542528D01*
X00164527Y00545250D01*
X00167007Y00546068D01*
X00168068Y00545007D01*
D02*
G37*
G36*
X00073874Y00897902D02*
X00074211Y00896961D01*
X00072743Y00895757D01*
X00070588Y00893130D01*
X00068986Y00890133D01*
X00068000Y00886882D01*
X00067667Y00883500D01*
X00067788Y00882268D01*
X00067096Y00881973D01*
X00066817Y00881929D01*
X00063015Y00885176D01*
X00058686Y00887828D01*
X00053997Y00889771D01*
X00049061Y00890956D01*
X00044000Y00891354D01*
X00038939Y00890956D01*
X00034003Y00889771D01*
X00029313Y00887828D01*
X00024985Y00885176D01*
X00021125Y00881879D01*
X00017829Y00878019D01*
X00015176Y00873691D01*
X00013234Y00869001D01*
X00012049Y00864065D01*
X00011650Y00859004D01*
X00012049Y00853944D01*
X00013234Y00849008D01*
X00015176Y00844318D01*
X00017829Y00839990D01*
X00021125Y00836130D01*
X00024985Y00832833D01*
X00029313Y00830181D01*
X00034003Y00828238D01*
X00038939Y00827053D01*
X00044000Y00826655D01*
X00049061Y00827053D01*
X00053997Y00828238D01*
X00058686Y00830181D01*
X00063015Y00832833D01*
X00066875Y00836130D01*
X00070171Y00839990D01*
X00072824Y00844318D01*
X00074766Y00849008D01*
X00075951Y00853944D01*
X00076350Y00859004D01*
X00075951Y00864065D01*
X00074966Y00868170D01*
X00075833Y00868840D01*
X00078367Y00867486D01*
X00081618Y00866500D01*
X00085000Y00866167D01*
X00088382Y00866500D01*
X00091633Y00867486D01*
X00094630Y00869088D01*
X00097257Y00871243D01*
X00099412Y00873870D01*
X00101014Y00876867D01*
X00102000Y00880118D01*
X00102333Y00883500D01*
X00102000Y00886882D01*
X00101014Y00890133D01*
X00099412Y00893130D01*
X00097257Y00895757D01*
X00095789Y00896961D01*
X00096126Y00897902D01*
X00252447Y00897902D01*
X00252833Y00896902D01*
X00251982Y00894848D01*
X00251673Y00892498D01*
Y00881998D01*
X00269828D01*
Y00892498D01*
X00269519Y00894848D01*
X00268668Y00896902D01*
X00269053Y00897902D01*
X00324100D01*
X00324343Y00896932D01*
X00323370Y00896412D01*
X00320743Y00894257D01*
X00318588Y00891630D01*
X00316986Y00888633D01*
X00316000Y00885382D01*
X00315667Y00882000D01*
X00316000Y00878618D01*
X00316986Y00875367D01*
X00318588Y00872370D01*
X00320743Y00869743D01*
X00323370Y00867588D01*
X00326367Y00865986D01*
X00329618Y00865000D01*
X00333000Y00864667D01*
X00336382Y00865000D01*
X00339633Y00865986D01*
X00342630Y00867588D01*
X00345257Y00869743D01*
X00347412Y00872370D01*
X00349014Y00875367D01*
X00349173Y00875890D01*
X00350173Y00875742D01*
Y00866497D01*
X00350482Y00864147D01*
X00351389Y00861958D01*
X00352831Y00860078D01*
X00354712Y00858635D01*
X00356750Y00857791D01*
Y00879497D01*
X00359250D01*
Y00881997D01*
X00368328D01*
Y00892497D01*
X00368019Y00894846D01*
X00367167Y00896902D01*
X00367552Y00897902D01*
X00438000D01*
X00439632D01*
X00442869Y00897476D01*
X00446022Y00896631D01*
X00449038Y00895382D01*
X00451865Y00893750D01*
X00454454Y00891762D01*
X00456763Y00889454D01*
X00458750Y00886864D01*
X00460382Y00884038D01*
X00461631Y00881022D01*
X00462476Y00877868D01*
X00462902Y00874632D01*
X00462902Y00873000D01*
Y00541787D01*
X00461902Y00541689D01*
X00461884Y00541780D01*
X00461442Y00542442D01*
X00461442Y00542442D01*
X00391942Y00611942D01*
X00391280Y00612384D01*
X00390500Y00612539D01*
X00382000D01*
X00382000Y00612539D01*
X00381220Y00612384D01*
X00380558Y00611942D01*
X00380558Y00611942D01*
X00373558Y00604942D01*
X00373116Y00604280D01*
X00372961Y00603500D01*
Y00583590D01*
X00372037Y00583207D01*
X00360176Y00595069D01*
Y00628432D01*
X00363126D01*
X00364492Y00628703D01*
X00365650Y00629477D01*
X00371023Y00634850D01*
X00371797Y00636008D01*
X00372069Y00637374D01*
Y00667486D01*
X00383013Y00678431D01*
X00389000D01*
X00390366Y00678703D01*
X00391523Y00679477D01*
X00395672Y00683625D01*
X00396636Y00684250D01*
X00396945D01*
X00398691Y00684973D01*
X00400027Y00686309D01*
X00400750Y00688055D01*
Y00689945D01*
X00400027Y00691691D01*
X00398691Y00693027D01*
X00396945Y00693750D01*
X00395055D01*
X00393309Y00693027D01*
X00391973Y00691691D01*
X00391250Y00689945D01*
Y00689636D01*
X00390625Y00688672D01*
X00387522Y00685569D01*
X00386200D01*
X00385786Y00686569D01*
X00386527Y00687309D01*
X00387250Y00689055D01*
Y00690945D01*
X00386527Y00692691D01*
X00385191Y00694027D01*
X00383445Y00694750D01*
X00381555D01*
X00379809Y00694027D01*
X00378473Y00692691D01*
X00377750Y00690945D01*
Y00690837D01*
X00377026Y00689352D01*
X00356411Y00668737D01*
X00337145D01*
X00337145Y00668737D01*
X00335974Y00668504D01*
X00334982Y00667841D01*
X00334981Y00667841D01*
X00326337Y00659196D01*
X00325674Y00658204D01*
X00325441Y00657033D01*
X00325441Y00657033D01*
Y00645000D01*
X00325441Y00645000D01*
X00325674Y00643829D01*
X00326337Y00642837D01*
X00328107Y00641067D01*
X00328750Y00639526D01*
Y00639055D01*
X00329473Y00637309D01*
X00330809Y00635973D01*
X00332555Y00635250D01*
X00334445D01*
X00336191Y00635973D01*
X00337527Y00637309D01*
X00338250Y00639055D01*
Y00640945D01*
X00337527Y00642691D01*
X00336191Y00644027D01*
X00334445Y00644750D01*
X00333974D01*
X00332433Y00645392D01*
X00331559Y00646267D01*
Y00655767D01*
X00338411Y00662619D01*
X00357678D01*
X00357678Y00662619D01*
X00358848Y00662852D01*
X00359841Y00663515D01*
X00364007Y00667682D01*
X00364931Y00667299D01*
Y00638852D01*
X00361648Y00635569D01*
X00350532D01*
X00349409Y00635808D01*
X00349191Y00636027D01*
X00347445Y00636750D01*
X00345555D01*
X00343809Y00636027D01*
X00342473Y00634691D01*
X00341750Y00632945D01*
Y00631055D01*
X00342473Y00629309D01*
X00343809Y00627973D01*
X00345555Y00627250D01*
X00347445D01*
X00349191Y00627973D01*
X00349409Y00628192D01*
X00350532Y00628432D01*
X00353038D01*
Y00593591D01*
X00353310Y00592225D01*
X00354084Y00591067D01*
X00372771Y00572380D01*
Y00514318D01*
X00362914Y00504460D01*
X00362296Y00504000D01*
X00362105D01*
X00360451Y00503315D01*
X00359185Y00502049D01*
X00358867Y00501281D01*
X00357886Y00501086D01*
X00357401Y00501571D01*
X00356491Y00502179D01*
X00355418Y00502392D01*
X00351586D01*
X00350513Y00502179D01*
X00349603Y00501571D01*
X00349115Y00501083D01*
X00348134Y00501278D01*
X00347815Y00502049D01*
X00347538Y00502326D01*
X00347059Y00503608D01*
Y00507195D01*
X00347815Y00507951D01*
X00348500Y00509605D01*
Y00510674D01*
X00350163Y00512337D01*
X00350163Y00512337D01*
X00350826Y00513330D01*
X00351059Y00514500D01*
X00351059Y00514500D01*
Y00518392D01*
X00351269Y00518953D01*
X00352430Y00519206D01*
X00352951Y00518685D01*
X00354605Y00518000D01*
X00356395D01*
X00358049Y00518685D01*
X00358374Y00519010D01*
X00359815Y00519696D01*
X00361940D01*
X00362951Y00518685D01*
X00364605Y00518000D01*
X00366395D01*
X00368049Y00518685D01*
X00369315Y00519951D01*
X00370000Y00521605D01*
Y00523395D01*
X00369315Y00525049D01*
X00368049Y00526315D01*
X00366395Y00527000D01*
X00365068D01*
X00364993Y00527112D01*
Y00528902D01*
X00364308Y00530556D01*
X00363983Y00530881D01*
X00363297Y00532322D01*
Y00534433D01*
X00364308Y00535444D01*
X00364993Y00537098D01*
Y00538888D01*
X00364308Y00540542D01*
X00363042Y00541808D01*
X00361388Y00542493D01*
X00359598D01*
X00357944Y00541808D01*
X00356678Y00540542D01*
X00355993Y00538888D01*
Y00537098D01*
X00356678Y00535444D01*
X00357689Y00534433D01*
Y00532322D01*
X00357002Y00530881D01*
X00356678Y00530556D01*
X00355993Y00528902D01*
Y00527112D01*
X00355918Y00527000D01*
X00354605D01*
X00352951Y00526315D01*
X00351750Y00525114D01*
X00350549Y00526315D01*
X00348895Y00527000D01*
X00348662Y00527285D01*
X00348804Y00528000D01*
Y00529839D01*
X00349528Y00530563D01*
X00350136Y00531473D01*
X00350349Y00532546D01*
Y00537563D01*
X00360223Y00547437D01*
X00360831Y00548347D01*
X00361045Y00549420D01*
Y00570343D01*
X00360831Y00571416D01*
X00360223Y00572325D01*
X00342566Y00589983D01*
X00341656Y00590590D01*
X00340583Y00590804D01*
X00260100D01*
X00259028Y00590591D01*
X00258118Y00589983D01*
X00242294Y00574158D01*
X00209354D01*
X00208281Y00573945D01*
X00207372Y00573337D01*
X00189623Y00555588D01*
X00177784D01*
X00176711Y00555374D01*
X00175802Y00554767D01*
X00172839Y00551804D01*
X00171000D01*
X00170790Y00551762D01*
X00170656Y00551894D01*
X00170646Y00553263D01*
X00174442Y00557058D01*
X00174884Y00557720D01*
X00175039Y00558500D01*
Y00564500D01*
X00174884Y00565280D01*
X00174442Y00565942D01*
X00174442Y00565942D01*
X00136539Y00603845D01*
Y00719000D01*
X00136384Y00719780D01*
X00135942Y00720442D01*
X00135942Y00720442D01*
X00107442Y00748942D01*
X00106780Y00749384D01*
X00106000Y00749539D01*
X00063845D01*
X00059942Y00753442D01*
X00059942Y00753442D01*
X00059280Y00753884D01*
X00058500Y00754039D01*
X00048500D01*
X00047720Y00753884D01*
X00047058Y00753442D01*
X00047058Y00753442D01*
X00043058Y00749442D01*
X00042616Y00748780D01*
X00042461Y00748000D01*
Y00735500D01*
X00042461Y00735500D01*
X00042616Y00734720D01*
X00043058Y00734058D01*
X00043058Y00734058D01*
X00050058Y00727058D01*
X00050720Y00726616D01*
X00051500Y00726461D01*
X00091655D01*
X00106961Y00711155D01*
Y00632879D01*
X00105961Y00632465D01*
X00105175Y00633250D01*
X00103429Y00633974D01*
X00101615D01*
Y00635863D01*
X00100892Y00637608D01*
X00099556Y00638945D01*
X00097810Y00639668D01*
X00095920D01*
X00094174Y00638945D01*
X00093802Y00638573D01*
X00092114Y00637722D01*
X00088418D01*
X00087345Y00637508D01*
X00086435Y00636900D01*
X00069507Y00619972D01*
X00068899Y00619063D01*
X00068686Y00617990D01*
Y00571910D01*
X00068899Y00570837D01*
X00069507Y00569927D01*
X00072196Y00567238D01*
Y00545661D01*
X00068517Y00541983D01*
X00067910Y00541073D01*
X00067696Y00540000D01*
Y00465753D01*
X00037637Y00435694D01*
X00037030Y00434785D01*
X00036816Y00433712D01*
Y00389281D01*
X00031546Y00384011D01*
X00030698Y00384577D01*
X00031012Y00385335D01*
X00031330Y00387750D01*
X00031012Y00390165D01*
X00030080Y00392415D01*
X00028597Y00394347D01*
X00026665Y00395830D01*
X00024415Y00396762D01*
X00022000Y00397080D01*
X00019585Y00396762D01*
X00017335Y00395830D01*
X00015403Y00394347D01*
X00013920Y00392415D01*
X00012988Y00390165D01*
X00012670Y00387750D01*
X00012988Y00385335D01*
X00013920Y00383085D01*
X00015403Y00381153D01*
X00017335Y00379670D01*
X00019585Y00378738D01*
X00022000Y00378420D01*
X00024415Y00378738D01*
X00026665Y00379670D01*
X00027643Y00380420D01*
X00028550Y00379856D01*
X00028549Y00379853D01*
Y00353014D01*
X00027652Y00352572D01*
X00026665Y00353330D01*
X00024415Y00354262D01*
X00022000Y00354580D01*
X00019585Y00354262D01*
X00017335Y00353330D01*
X00015403Y00351847D01*
X00013920Y00349915D01*
X00012988Y00347665D01*
X00012670Y00345250D01*
X00012988Y00342835D01*
X00013920Y00340585D01*
X00015403Y00338653D01*
X00017335Y00337170D01*
X00019585Y00336238D01*
X00022000Y00335920D01*
X00024415Y00336238D01*
X00026665Y00337170D01*
X00028597Y00338653D01*
X00030080Y00340585D01*
X00030842Y00342426D01*
X00031936Y00342747D01*
X00037196Y00337487D01*
Y00331550D01*
X00037410Y00330477D01*
X00038017Y00329568D01*
X00045068Y00322517D01*
X00045977Y00321910D01*
X00047050Y00321696D01*
X00059339D01*
X00071517Y00309517D01*
X00072427Y00308910D01*
X00073500Y00308696D01*
X00075564D01*
X00075979Y00307696D01*
X00075473Y00307191D01*
X00074750Y00305445D01*
Y00305046D01*
X00074090Y00303777D01*
X00068875Y00298561D01*
X00068157Y00297486D01*
X00067905Y00296218D01*
Y00290806D01*
X00061912Y00284814D01*
X00054904D01*
X00054191Y00285527D01*
X00052445Y00286250D01*
X00050555D01*
X00048809Y00285527D01*
X00047473Y00284191D01*
X00046750Y00282445D01*
Y00281746D01*
X00046701Y00281500D01*
X00046750Y00281254D01*
Y00280555D01*
X00047473Y00278809D01*
X00048809Y00277473D01*
X00050555Y00276750D01*
X00052445D01*
X00054191Y00277473D01*
X00054904Y00278186D01*
X00063285D01*
X00064553Y00278439D01*
X00065628Y00279157D01*
X00073561Y00287090D01*
X00074280Y00288165D01*
X00074532Y00289434D01*
Y00294846D01*
X00078777Y00299090D01*
X00080046Y00299750D01*
X00080445D01*
X00082191Y00300473D01*
X00083527Y00301809D01*
X00084230Y00303506D01*
X00084250Y00303555D01*
X00085250Y00304083D01*
X00086055Y00303750D01*
X00087847D01*
X00088055Y00303497D01*
X00088344Y00302833D01*
X00078756Y00293244D01*
X00077761Y00291756D01*
X00077412Y00290000D01*
Y00285000D01*
Y00276835D01*
X00077250Y00276445D01*
Y00274555D01*
X00077973Y00272809D01*
X00079309Y00271473D01*
X00081055Y00270750D01*
X00082945D01*
X00084691Y00271473D01*
X00086027Y00272809D01*
X00086750Y00274555D01*
Y00276445D01*
X00086588Y00276835D01*
Y00280412D01*
X00088353D01*
X00088566Y00280199D01*
X00089934Y00279409D01*
X00091460Y00279000D01*
X00093040D01*
X00093489Y00279120D01*
X00094006Y00278224D01*
X00093973Y00278191D01*
X00093250Y00276445D01*
Y00274555D01*
X00093412Y00274165D01*
Y00267088D01*
X00082457D01*
X00079800Y00269744D01*
X00078312Y00270739D01*
X00076556Y00271088D01*
X00053401D01*
X00042794Y00281695D01*
Y00295805D01*
X00054300Y00307311D01*
X00054691Y00307473D01*
X00056027Y00308809D01*
X00056750Y00310555D01*
Y00312445D01*
X00056027Y00314191D01*
X00054691Y00315527D01*
X00052945Y00316250D01*
X00051055D01*
X00049309Y00315527D01*
X00047973Y00314191D01*
X00047811Y00313800D01*
X00035804Y00301793D01*
X00034804Y00302207D01*
Y00310839D01*
X00038123Y00314158D01*
X00039918Y00314750D01*
X00040445D01*
X00042191Y00315473D01*
X00043527Y00316809D01*
X00044250Y00318555D01*
Y00320445D01*
X00043527Y00322191D01*
X00042191Y00323527D01*
X00040445Y00324250D01*
X00038555D01*
X00036809Y00323527D01*
X00035473Y00322191D01*
X00034750Y00320445D01*
Y00319919D01*
X00034158Y00318123D01*
X00030912Y00314878D01*
X00029626Y00315006D01*
X00028597Y00316347D01*
X00026665Y00317830D01*
X00024415Y00318762D01*
X00022000Y00319080D01*
X00019585Y00318762D01*
X00017335Y00317830D01*
X00015403Y00316347D01*
X00013920Y00314415D01*
X00012988Y00312165D01*
X00012670Y00309750D01*
X00012988Y00307335D01*
X00013920Y00305085D01*
X00015403Y00303153D01*
X00017335Y00301670D01*
X00019585Y00300738D01*
X00022000Y00300420D01*
X00024415Y00300738D01*
X00026665Y00301670D01*
X00028196Y00302845D01*
X00029196Y00302352D01*
Y00278500D01*
X00029410Y00277427D01*
X00030017Y00276517D01*
X00042196Y00264339D01*
Y00249500D01*
X00042410Y00248427D01*
X00043017Y00247517D01*
X00047986Y00242549D01*
X00048895Y00241941D01*
X00049968Y00241728D01*
X00066704D01*
X00067087Y00240804D01*
X00066973Y00240691D01*
X00066250Y00238945D01*
Y00237055D01*
X00066973Y00235309D01*
X00068309Y00233973D01*
X00070055Y00233250D01*
X00071945D01*
X00073691Y00233973D01*
X00074063Y00234345D01*
X00075751Y00235196D01*
X00076785D01*
X00077857Y00235410D01*
X00078767Y00236017D01*
X00080802Y00238052D01*
X00097982D01*
X00108017Y00228017D01*
X00108927Y00227410D01*
X00110000Y00227196D01*
X00114749D01*
X00116437Y00226345D01*
X00116809Y00225973D01*
X00118555Y00225250D01*
X00119312D01*
X00119376Y00225168D01*
X00119678Y00224250D01*
X00117525Y00222097D01*
X00103352D01*
X00102279Y00221884D01*
X00101369Y00221276D01*
X00084372Y00204279D01*
X00083372Y00204693D01*
Y00207393D01*
X00082977Y00210395D01*
X00081818Y00213192D01*
X00079974Y00215595D01*
X00077572Y00217438D01*
X00074775Y00218597D01*
X00071773Y00218992D01*
X00016773D01*
X00013771Y00218597D01*
X00010973Y00217438D01*
X00008571Y00215595D01*
X00006727Y00213192D01*
X00006098Y00211673D01*
X00005098Y00211872D01*
X00005098Y00457500D01*
Y00457983D01*
X00005286Y00458930D01*
X00005656Y00459822D01*
X00006192Y00460625D01*
X00006875Y00461308D01*
X00007678Y00461844D01*
X00008570Y00462214D01*
X00009601Y00462419D01*
X00010115Y00462436D01*
X00034993Y00462402D01*
X00035121Y00462427D01*
X00035250Y00462408D01*
X00036230Y00462457D01*
X00036597Y00462548D01*
X00036975D01*
X00038897Y00462931D01*
X00039361Y00463123D01*
X00039854Y00463221D01*
X00041665Y00463971D01*
X00042082Y00464250D01*
X00042546Y00464442D01*
X00044176Y00465531D01*
X00044531Y00465886D01*
X00044949Y00466165D01*
X00046335Y00467551D01*
X00046614Y00467969D01*
X00046969Y00468324D01*
X00048058Y00469954D01*
X00048250Y00470418D01*
X00048529Y00470835D01*
X00049279Y00472646D01*
X00049377Y00473139D01*
X00049569Y00473603D01*
X00049952Y00475525D01*
Y00475903D01*
X00050044Y00476270D01*
X00050092Y00477250D01*
X00050073Y00477375D01*
X00050098Y00477500D01*
X00050098Y00697500D01*
X00050073Y00697625D01*
X00050092Y00697750D01*
X00050044Y00698730D01*
X00049952Y00699097D01*
Y00699475D01*
X00049569Y00701397D01*
X00049377Y00701861D01*
X00049279Y00702354D01*
X00048529Y00704165D01*
X00048250Y00704582D01*
X00048058Y00705046D01*
X00046969Y00706676D01*
X00046614Y00707031D01*
X00046335Y00707449D01*
X00044949Y00708835D01*
X00044531Y00709114D01*
X00044176Y00709469D01*
X00042546Y00710558D01*
X00042082Y00710750D01*
X00041665Y00711029D01*
X00039854Y00711779D01*
X00039361Y00711877D01*
X00038897Y00712069D01*
X00036975Y00712452D01*
X00036597D01*
X00036230Y00712543D01*
X00035250Y00712592D01*
X00035125Y00712573D01*
X00035000Y00712598D01*
X00009517Y00712598D01*
X00008570Y00712786D01*
X00007678Y00713156D01*
X00006875Y00713692D01*
X00006192Y00714375D01*
X00005656Y00715178D01*
X00005286Y00716070D01*
X00005098Y00717017D01*
Y00717500D01*
X00005098Y00873000D01*
Y00874632D01*
X00005524Y00877869D01*
X00006369Y00881022D01*
X00007618Y00884038D01*
X00009250Y00886865D01*
X00011237Y00889454D01*
X00013546Y00891763D01*
X00016135Y00893750D01*
X00018962Y00895382D01*
X00021978Y00896631D01*
X00025131Y00897476D01*
X00028368Y00897902D01*
X00030000Y00897902D01*
X00073874D01*
D02*
G37*
G36*
X00173250Y00538204D02*
X00171750D01*
X00170575Y00540536D01*
X00174425D01*
X00173250Y00538204D01*
D02*
G37*
G36*
X00165250D02*
X00163750D01*
X00162575Y00540536D01*
X00166425D01*
X00165250Y00538204D01*
D02*
G37*
G36*
X00143000Y00551961D02*
X00150428D01*
Y00519339D01*
X00150778Y00517583D01*
X00151772Y00516094D01*
X00173872Y00493995D01*
Y00479057D01*
X00172872Y00478858D01*
X00172527Y00479691D01*
X00171191Y00481027D01*
X00169445Y00481750D01*
X00168919D01*
X00167123Y00482342D01*
X00166983Y00482483D01*
X00166073Y00483090D01*
X00165000Y00483304D01*
X00163161D01*
X00119875Y00526590D01*
Y00543236D01*
X00120875Y00543563D01*
X00122476Y00541476D01*
X00124826Y00539673D01*
X00127563Y00538540D01*
X00130500Y00538153D01*
X00133437Y00538540D01*
X00136173Y00539673D01*
X00138524Y00541476D01*
X00140327Y00543826D01*
X00141460Y00546563D01*
X00141847Y00549500D01*
X00141607Y00551323D01*
X00141786Y00551555D01*
X00142519Y00552057D01*
X00143000Y00551961D01*
D02*
G37*
G36*
X00351937Y00567732D02*
Y00552024D01*
X00342017Y00542104D01*
X00341410Y00541195D01*
X00341196Y00540122D01*
Y00535414D01*
X00340055Y00535009D01*
X00339596D01*
X00337942Y00534324D01*
X00336740Y00533123D01*
X00335539Y00534324D01*
X00333885Y00535009D01*
X00332095D01*
X00330441Y00534324D01*
X00330059Y00533942D01*
X00329059Y00534356D01*
Y00551319D01*
X00331376Y00553637D01*
X00332039Y00554629D01*
X00332272Y00555799D01*
X00332272Y00555800D01*
Y00561196D01*
X00340711Y00569636D01*
X00342236Y00570598D01*
X00343049Y00570935D01*
X00344315Y00572201D01*
X00344824Y00573430D01*
X00345924Y00573745D01*
X00351937Y00567732D01*
D02*
G37*
G36*
X00343768Y00532726D02*
X00342991Y00530534D01*
X00340516Y00533009D01*
X00342707Y00533787D01*
X00343768Y00532726D01*
D02*
G37*
G36*
X00362243Y00529793D02*
X00358743D01*
X00359743Y00531892D01*
X00361243D01*
X00362243Y00529793D01*
D02*
G37*
G36*
X00333740Y00526624D02*
X00332240D01*
X00331240Y00528724D01*
X00334740D01*
X00333740Y00526624D01*
D02*
G37*
G36*
X00343777Y00524717D02*
X00343000Y00522525D01*
X00340525Y00525000D01*
X00342717Y00525777D01*
X00343777Y00524717D01*
D02*
G37*
G36*
X00359385Y00523250D02*
Y00521750D01*
X00357285Y00520750D01*
Y00524250D01*
X00359385Y00523250D01*
D02*
G37*
G36*
X00349000Y00518709D02*
X00347000D01*
X00346250Y00520715D01*
X00349750D01*
X00349000Y00518709D01*
D02*
G37*
G36*
X00345750Y00501285D02*
X00342250D01*
X00343000Y00503291D01*
X00345000D01*
X00345750Y00501285D01*
D02*
G37*
G36*
X00366535Y00500914D02*
X00365500Y00499525D01*
X00363025Y00502000D01*
X00364414Y00503036D01*
X00366535Y00500914D01*
D02*
G37*
G36*
X00096560Y00558238D02*
Y00515088D01*
X00080728Y00499256D01*
X00079804Y00499638D01*
Y00535839D01*
X00083700Y00539735D01*
X00084308Y00540644D01*
X00084521Y00541717D01*
Y00568971D01*
X00085445Y00569353D01*
X00096560Y00558238D01*
D02*
G37*
G36*
X00460000Y00541000D02*
Y00501000D01*
X00456000Y00497000D01*
X00432000D01*
X00404250Y00524750D01*
Y00552250D01*
X00375000Y00581500D01*
Y00603500D01*
X00382000Y00610500D01*
X00390500D01*
X00460000Y00541000D01*
D02*
G37*
G36*
X00353475Y00491500D02*
X00351526Y00490612D01*
X00350112Y00492026D01*
X00351000Y00493975D01*
X00353475Y00491500D01*
D02*
G37*
G36*
X00390524Y00460517D02*
X00391433Y00459910D01*
X00392506Y00459696D01*
X00415339D01*
X00435658Y00439377D01*
X00436250Y00437581D01*
Y00437055D01*
X00436973Y00435309D01*
X00436255Y00434629D01*
X00420942Y00449942D01*
X00420280Y00450384D01*
X00419500Y00450539D01*
X00369345D01*
X00358428Y00461456D01*
X00358498Y00462172D01*
X00361933Y00465608D01*
X00363474Y00466250D01*
X00363945D01*
X00365691Y00466973D01*
X00367027Y00468309D01*
X00367750Y00470055D01*
Y00471945D01*
X00367027Y00473691D01*
X00365691Y00475027D01*
X00363945Y00475750D01*
X00362055D01*
X00360309Y00475027D01*
X00358973Y00473691D01*
X00358791Y00473251D01*
X00357709D01*
X00357527Y00473691D01*
X00356191Y00475027D01*
X00354445Y00475750D01*
X00353974D01*
X00352433Y00476392D01*
X00343582Y00485244D01*
X00343964Y00486168D01*
X00348727D01*
X00348727Y00486168D01*
X00349897Y00486401D01*
X00350890Y00487064D01*
X00352758Y00488933D01*
X00354003Y00489500D01*
X00354395D01*
X00356049Y00490185D01*
X00357315Y00491451D01*
X00357637Y00492228D01*
X00358618Y00492423D01*
X00390524Y00460517D01*
D02*
G37*
G36*
X00168472Y00479750D02*
X00165750Y00477028D01*
X00164932Y00479507D01*
X00165993Y00480568D01*
X00168472Y00479750D01*
D02*
G37*
G36*
X00134036Y00475575D02*
X00131704Y00476750D01*
Y00478250D01*
X00134036Y00479425D01*
Y00475575D01*
D02*
G37*
G36*
X00115972Y00474750D02*
X00113493Y00473932D01*
X00112432Y00474993D01*
X00113250Y00477472D01*
X00115972Y00474750D01*
D02*
G37*
G36*
X00152696Y00475839D02*
Y00474000D01*
X00152910Y00472927D01*
X00153517Y00472017D01*
X00155158Y00470377D01*
X00155750Y00468582D01*
Y00468055D01*
X00156473Y00466309D01*
X00157385Y00465397D01*
X00156971Y00464397D01*
X00111099D01*
X00110716Y00465321D01*
X00113662Y00468267D01*
X00114270Y00469176D01*
X00114483Y00470249D01*
Y00472018D01*
X00114623Y00472158D01*
X00116419Y00472750D01*
X00116945D01*
X00118691Y00473473D01*
X00120027Y00474809D01*
X00120597Y00476187D01*
X00121674Y00476524D01*
X00122681Y00475517D01*
X00123590Y00474910D01*
X00124663Y00474696D01*
X00131249D01*
X00132937Y00473845D01*
X00133309Y00473473D01*
X00135055Y00472750D01*
X00136945D01*
X00138691Y00473473D01*
X00140027Y00474809D01*
X00140750Y00476555D01*
Y00478445D01*
X00140027Y00480191D01*
X00138691Y00481527D01*
X00136945Y00482250D01*
X00135055D01*
X00133309Y00481527D01*
X00132937Y00481155D01*
X00131249Y00480304D01*
X00125825D01*
X00121146Y00484983D01*
X00120236Y00485590D01*
X00119163Y00485804D01*
X00112854D01*
X00111781Y00485590D01*
X00110871Y00484983D01*
X00105986Y00480098D01*
X00105378Y00479188D01*
X00105165Y00478115D01*
Y00473130D01*
X00103839Y00471804D01*
X00102255D01*
X00101182Y00471590D01*
X00100272Y00470983D01*
X00090728Y00461438D01*
X00089804Y00461821D01*
Y00490502D01*
X00108347Y00509045D01*
X00108954Y00509954D01*
X00109168Y00511027D01*
Y00518060D01*
X00110092Y00518443D01*
X00152696Y00475839D01*
D02*
G37*
G36*
X00353473Y00473750D02*
X00350750Y00471027D01*
X00349815Y00473271D01*
X00351229Y00474685D01*
X00353473Y00473750D01*
D02*
G37*
G36*
X00168472Y00471750D02*
X00165750Y00469027D01*
X00164932Y00471507D01*
X00165993Y00472568D01*
X00168472Y00471750D01*
D02*
G37*
G36*
X00160473D02*
X00157750Y00469027D01*
X00156932Y00471507D01*
X00157993Y00472568D01*
X00160473Y00471750D01*
D02*
G37*
G36*
X00362972Y00468250D02*
X00360729Y00467315D01*
X00359315Y00468729D01*
X00360250Y00470973D01*
X00362972Y00468250D01*
D02*
G37*
G36*
X00440973Y00440750D02*
X00438250Y00438027D01*
X00437432Y00440507D01*
X00438493Y00441568D01*
X00440973Y00440750D01*
D02*
G37*
G36*
X00402211Y00551405D02*
Y00524750D01*
X00402366Y00523970D01*
X00402808Y00523308D01*
X00430558Y00495558D01*
X00431220Y00495116D01*
X00432000Y00494961D01*
X00456000D01*
X00456780Y00495116D01*
X00457442Y00495558D01*
X00461442Y00499558D01*
X00461442Y00499558D01*
X00461884Y00500220D01*
X00461902Y00500311D01*
X00462902Y00500213D01*
X00462902Y00221288D01*
X00461978Y00220906D01*
X00455039Y00227845D01*
Y00415000D01*
X00454884Y00415780D01*
X00454442Y00416442D01*
X00454442Y00416442D01*
X00437629Y00433255D01*
X00438309Y00433973D01*
X00440055Y00433250D01*
X00441945D01*
X00443691Y00433973D01*
X00445027Y00435309D01*
X00445750Y00437055D01*
Y00438945D01*
X00445027Y00440691D01*
X00443691Y00442027D01*
X00441945Y00442750D01*
X00441419D01*
X00439623Y00443342D01*
X00418483Y00464483D01*
X00417573Y00465090D01*
X00416500Y00465304D01*
X00393668D01*
X00364585Y00494386D01*
X00364781Y00495367D01*
X00365549Y00495685D01*
X00366815Y00496951D01*
X00367500Y00498605D01*
Y00498796D01*
X00367960Y00499414D01*
X00378863Y00510316D01*
X00379637Y00511474D01*
X00379908Y00512840D01*
Y00572401D01*
X00380832Y00572784D01*
X00402211Y00551405D01*
D02*
G37*
G36*
X00327058Y00436058D02*
X00327720Y00435616D01*
X00328500Y00435461D01*
X00343155D01*
X00348197Y00430419D01*
X00347814Y00429495D01*
X00346404D01*
X00345331Y00429282D01*
X00344422Y00428674D01*
X00339643Y00423896D01*
X00339028Y00424189D01*
X00338704Y00424513D01*
X00337050Y00425198D01*
X00335260D01*
X00333605Y00424513D01*
X00333281Y00424189D01*
X00331840Y00423502D01*
X00330301D01*
X00329228Y00423289D01*
X00328318Y00422681D01*
X00321530Y00415893D01*
X00288048D01*
X00287709Y00416893D01*
X00288479Y00417484D01*
X00311413Y00440418D01*
X00322698D01*
X00327058Y00436058D01*
D02*
G37*
G36*
X00340039Y00421448D02*
Y00419948D01*
X00337940Y00418948D01*
Y00422448D01*
X00340039Y00421448D01*
D02*
G37*
G36*
X00334369Y00418948D02*
X00332270Y00419948D01*
Y00421448D01*
X00334369Y00422448D01*
Y00418948D01*
D02*
G37*
G36*
X00084925Y00416964D02*
X00081075D01*
X00082250Y00419296D01*
X00083750D01*
X00084925Y00416964D01*
D02*
G37*
G36*
X00096068Y00417507D02*
X00095250Y00415028D01*
X00092528Y00417750D01*
X00095007Y00418568D01*
X00096068Y00417507D01*
D02*
G37*
G36*
X00367296Y00416750D02*
Y00415250D01*
X00364964Y00414075D01*
Y00417925D01*
X00367296Y00416750D01*
D02*
G37*
G36*
X00342082Y00416187D02*
X00341305Y00413996D01*
X00338830Y00416470D01*
X00341022Y00417248D01*
X00342082Y00416187D01*
D02*
G37*
G36*
X00337020Y00412220D02*
X00334920Y00413220D01*
Y00414720D01*
X00337020Y00415720D01*
Y00412220D01*
D02*
G37*
G36*
X00096068Y00409507D02*
X00095250Y00407028D01*
X00092528Y00409750D01*
X00095007Y00410568D01*
X00096068Y00409507D01*
D02*
G37*
G36*
X00197250Y00387704D02*
X00195750D01*
X00194575Y00390036D01*
X00198425D01*
X00197250Y00387704D01*
D02*
G37*
G36*
X00080196Y00425401D02*
Y00419751D01*
X00079345Y00418063D01*
X00078973Y00417691D01*
X00078250Y00415945D01*
Y00414055D01*
X00078973Y00412309D01*
X00080309Y00410973D01*
X00082055Y00410250D01*
X00083945D01*
X00085691Y00410973D01*
X00087027Y00412309D01*
X00087209Y00412749D01*
X00088291D01*
X00088473Y00412309D01*
X00089782Y00411000D01*
X00088473Y00409691D01*
X00087750Y00407945D01*
Y00406055D01*
X00088473Y00404309D01*
X00089809Y00402973D01*
X00091555Y00402250D01*
X00093445D01*
X00095191Y00402973D01*
X00096527Y00404309D01*
X00097250Y00406055D01*
Y00406581D01*
X00097842Y00408377D01*
X00100161Y00410696D01*
X00104839D01*
X00107696Y00407839D01*
Y00403661D01*
X00103517Y00399483D01*
X00102910Y00398573D01*
X00102696Y00397500D01*
Y00385246D01*
X00101696Y00384832D01*
X00094461Y00392067D01*
X00092973Y00393061D01*
X00091217Y00393410D01*
X00085378D01*
X00083044Y00395744D01*
X00081555Y00396739D01*
X00079799Y00397088D01*
X00074088D01*
Y00420600D01*
X00079272Y00425784D01*
X00080196Y00425401D01*
D02*
G37*
G36*
X00203250Y00382204D02*
X00201750D01*
X00200575Y00384536D01*
X00204425D01*
X00203250Y00382204D01*
D02*
G37*
G36*
X00191250D02*
X00189750D01*
X00188575Y00384536D01*
X00192425D01*
X00191250Y00382204D01*
D02*
G37*
G36*
X00211382Y00381851D02*
X00209882D01*
X00208707Y00384183D01*
X00212557D01*
X00211382Y00381851D01*
D02*
G37*
G36*
X00080233Y00385578D02*
X00081721Y00384584D01*
X00083477Y00384234D01*
X00089317D01*
X00093301Y00380249D01*
X00092812Y00379327D01*
X00092395Y00379500D01*
X00091943D01*
X00091500Y00379588D01*
X00091057Y00379500D01*
X00090605D01*
X00090187Y00379327D01*
X00089744Y00379239D01*
X00089368Y00378988D01*
X00088951Y00378815D01*
X00088631Y00378495D01*
X00088256Y00378244D01*
X00088005Y00377869D01*
X00087685Y00377549D01*
X00087512Y00377132D01*
X00087261Y00376756D01*
X00087173Y00376313D01*
X00087000Y00375895D01*
Y00375443D01*
X00086912Y00375000D01*
Y00365660D01*
X00084256Y00363004D01*
X00083261Y00361515D01*
X00082912Y00359759D01*
Y00353000D01*
X00083261Y00351244D01*
X00084256Y00349756D01*
X00088506Y00345506D01*
X00089994Y00344511D01*
X00090278Y00344455D01*
X00091153Y00343579D01*
Y00317583D01*
X00090992Y00317343D01*
X00090643Y00315587D01*
Y00312881D01*
X00089719Y00312498D01*
X00089691Y00312527D01*
X00087945Y00313250D01*
X00087154D01*
X00085360Y00313899D01*
X00085073Y00314090D01*
X00084000Y00314304D01*
X00083836D01*
X00083168Y00315304D01*
X00083500Y00316105D01*
Y00317895D01*
X00082815Y00319549D01*
X00081614Y00320750D01*
X00082815Y00321951D01*
X00083500Y00323605D01*
Y00325395D01*
X00082815Y00327049D01*
X00081614Y00328250D01*
X00082815Y00329451D01*
X00083500Y00331105D01*
Y00332895D01*
X00082815Y00334549D01*
X00081614Y00335750D01*
X00082815Y00336951D01*
X00083500Y00338605D01*
Y00340395D01*
X00082815Y00342049D01*
X00081614Y00343250D01*
X00082815Y00344451D01*
X00083500Y00346105D01*
Y00347895D01*
X00082815Y00349549D01*
X00081549Y00350815D01*
X00079895Y00351500D01*
X00078105D01*
X00076451Y00350815D01*
X00076126Y00350490D01*
X00074685Y00349804D01*
X00072862D01*
X00069684Y00352983D01*
X00068774Y00353590D01*
X00067701Y00353804D01*
X00051162D01*
X00049806Y00355160D01*
Y00359163D01*
X00050806Y00359831D01*
X00051605Y00359500D01*
X00053395D01*
X00055049Y00360185D01*
X00056315Y00361451D01*
X00057000Y00363105D01*
Y00364498D01*
X00057251Y00365043D01*
X00057870Y00365407D01*
X00059309D01*
X00061055Y00366130D01*
X00062391Y00367466D01*
X00062919Y00368741D01*
X00063973Y00368809D01*
X00065309Y00367473D01*
X00067055Y00366750D01*
X00068945D01*
X00070691Y00367473D01*
X00072027Y00368809D01*
X00072750Y00370555D01*
Y00372445D01*
X00072588Y00372836D01*
Y00373717D01*
X00072744Y00373873D01*
X00073739Y00375361D01*
X00074088Y00377117D01*
Y00387912D01*
X00077899D01*
X00080233Y00385578D01*
D02*
G37*
G36*
X00059921Y00372423D02*
X00056806D01*
X00057614Y00374242D01*
X00059114D01*
X00059921Y00372423D01*
D02*
G37*
G36*
X00054250Y00365785D02*
X00050750D01*
X00051750Y00367885D01*
X00053250D01*
X00054250Y00365785D01*
D02*
G37*
G36*
X00211500Y00357045D02*
X00208500D01*
X00208075Y00359036D01*
X00211925D01*
X00211500Y00357045D01*
D02*
G37*
G36*
X00176000Y00356454D02*
X00174500D01*
X00173325Y00358786D01*
X00177175D01*
X00176000Y00356454D01*
D02*
G37*
G36*
X00099277Y00358217D02*
X00098500Y00356025D01*
X00096025Y00358500D01*
X00098217Y00359277D01*
X00099277Y00358217D01*
D02*
G37*
G36*
X00105750Y00352785D02*
X00102250D01*
X00103250Y00354885D01*
X00104750D01*
X00105750Y00352785D01*
D02*
G37*
G36*
X00148796Y00354250D02*
Y00352750D01*
X00146464Y00351575D01*
Y00355425D01*
X00148796Y00354250D01*
D02*
G37*
G36*
X00154453Y00348593D02*
Y00347093D01*
X00152121Y00345918D01*
Y00349768D01*
X00154453Y00348593D01*
D02*
G37*
G36*
X00077215Y00345250D02*
X00075115Y00346250D01*
Y00347750D01*
X00077215Y00348750D01*
Y00345250D01*
D02*
G37*
G36*
X00077215Y00337750D02*
X00075115Y00338750D01*
Y00340250D01*
X00077215Y00341250D01*
Y00337750D01*
D02*
G37*
G36*
X00078975Y00334500D02*
X00076500Y00332025D01*
X00075723Y00334217D01*
X00076783Y00335277D01*
X00078975Y00334500D01*
D02*
G37*
G36*
X00172750Y00323204D02*
X00171250D01*
X00170075Y00325536D01*
X00173925D01*
X00172750Y00323204D01*
D02*
G37*
G36*
X00077215Y00322750D02*
X00075115Y00323750D01*
Y00325250D01*
X00077215Y00326250D01*
Y00322750D01*
D02*
G37*
G36*
X00039472Y00316750D02*
X00036993Y00315932D01*
X00035932Y00316993D01*
X00036750Y00319473D01*
X00039472Y00316750D01*
D02*
G37*
G36*
X00200250Y00315704D02*
X00198750D01*
X00197575Y00318036D01*
X00201425D01*
X00200250Y00315704D01*
D02*
G37*
G36*
X00190250D02*
X00188750D01*
X00187575Y00318036D01*
X00191425D01*
X00190250Y00315704D01*
D02*
G37*
G36*
X00077215Y00315250D02*
X00075115Y00316250D01*
Y00317750D01*
X00077215Y00318750D01*
Y00315250D01*
D02*
G37*
G36*
X00086726Y00311236D02*
X00084264Y00308774D01*
X00083470Y00310970D01*
X00084530Y00312030D01*
X00086726Y00311236D01*
D02*
G37*
G36*
X00079472Y00301750D02*
X00077485Y00300717D01*
X00075717Y00302485D01*
X00076750Y00304473D01*
X00079472Y00301750D01*
D02*
G37*
G36*
X00390036Y00272575D02*
X00387704Y00273750D01*
Y00275250D01*
X00390036Y00276425D01*
Y00272575D01*
D02*
G37*
G36*
X00409961Y00303155D02*
Y00229345D01*
X00405655Y00225039D01*
X00393497D01*
X00392829Y00226039D01*
X00393250Y00227055D01*
Y00228945D01*
X00392527Y00230691D01*
X00391191Y00232027D01*
X00389445Y00232750D01*
X00387555D01*
X00385809Y00232027D01*
X00385437Y00231655D01*
X00383749Y00230804D01*
X00382000D01*
X00380927Y00230590D01*
X00380017Y00229983D01*
X00378108Y00228074D01*
X00377184Y00228456D01*
Y00265686D01*
X00383194Y00271696D01*
X00387249D01*
X00388937Y00270845D01*
X00389309Y00270473D01*
X00391055Y00269750D01*
X00392945D01*
X00394691Y00270473D01*
X00396027Y00271809D01*
X00396750Y00273555D01*
Y00275445D01*
X00396027Y00277191D01*
X00394691Y00278527D01*
X00392945Y00279250D01*
X00391055D01*
X00389309Y00278527D01*
X00388937Y00278155D01*
X00387249Y00277304D01*
X00384377D01*
X00383994Y00278228D01*
X00385483Y00279716D01*
X00386090Y00280626D01*
X00386304Y00281699D01*
Y00325451D01*
X00386334Y00325475D01*
X00387304Y00325812D01*
X00409961Y00303155D01*
D02*
G37*
G36*
X00164196Y00336475D02*
Y00332395D01*
X00163605Y00331805D01*
X00162998Y00330895D01*
X00162784Y00329822D01*
Y00304288D01*
X00162998Y00303215D01*
X00163605Y00302305D01*
X00174196Y00291714D01*
Y00246827D01*
X00160700Y00233331D01*
X00148358D01*
X00147285Y00233118D01*
X00146375Y00232510D01*
X00139169Y00225304D01*
X00134251D01*
X00132563Y00226155D01*
X00132191Y00226527D01*
X00130445Y00227250D01*
X00128555D01*
X00126809Y00226527D01*
X00126437Y00226155D01*
X00124749Y00225304D01*
X00122936D01*
X00122521Y00226304D01*
X00123527Y00227309D01*
X00124250Y00229055D01*
Y00230945D01*
X00123527Y00232691D01*
X00122191Y00234027D01*
X00120445Y00234750D01*
X00118555D01*
X00116809Y00234027D01*
X00116437Y00233655D01*
X00114749Y00232804D01*
X00111161D01*
X00103161Y00240804D01*
X00103544Y00241728D01*
X00114721D01*
X00118931Y00237517D01*
X00119841Y00236910D01*
X00120914Y00236696D01*
X00153749D01*
X00155437Y00235845D01*
X00155809Y00235473D01*
X00157555Y00234750D01*
X00159445D01*
X00161191Y00235473D01*
X00162527Y00236809D01*
X00163250Y00238555D01*
Y00240445D01*
X00162527Y00242191D01*
X00161191Y00243527D01*
X00159445Y00244250D01*
X00157555D01*
X00155809Y00243527D01*
X00155437Y00243155D01*
X00153749Y00242304D01*
X00122075D01*
X00117865Y00246514D01*
X00116955Y00247122D01*
X00115882Y00247335D01*
X00055467D01*
X00055053Y00248335D01*
X00055527Y00248809D01*
X00056250Y00250555D01*
Y00252445D01*
X00056088Y00252836D01*
Y00261912D01*
X00074656D01*
X00077312Y00259256D01*
X00078800Y00258261D01*
X00080556Y00257912D01*
X00114912D01*
Y00256336D01*
X00114750Y00255945D01*
Y00254055D01*
X00115473Y00252309D01*
X00116809Y00250973D01*
X00118555Y00250250D01*
X00120445D01*
X00122191Y00250973D01*
X00123527Y00252309D01*
X00124250Y00254055D01*
Y00255945D01*
X00124088Y00256336D01*
Y00262500D01*
Y00281600D01*
X00148300Y00305811D01*
X00148691Y00305973D01*
X00150027Y00307309D01*
X00150750Y00309055D01*
Y00310945D01*
X00150588Y00311336D01*
Y00322500D01*
X00150239Y00324256D01*
X00149244Y00325744D01*
X00149088Y00325900D01*
Y00338665D01*
X00149250Y00339055D01*
Y00340945D01*
X00148725Y00342212D01*
X00148912Y00342551D01*
X00149431Y00343093D01*
X00151102D01*
X00152847Y00343816D01*
X00153220Y00344188D01*
X00154908Y00345039D01*
X00155632D01*
X00164196Y00336475D01*
D02*
G37*
G36*
X00156536Y00237575D02*
X00154204Y00238750D01*
Y00240250D01*
X00156536Y00241425D01*
Y00237575D01*
D02*
G37*
G36*
X00075296Y00238750D02*
Y00237250D01*
X00072964Y00236075D01*
Y00239925D01*
X00075296Y00238750D01*
D02*
G37*
G36*
X00333296Y00237750D02*
Y00236250D01*
X00330964Y00235075D01*
Y00238925D01*
X00333296Y00237750D01*
D02*
G37*
G36*
X00117536Y00228075D02*
X00115204Y00229250D01*
Y00230750D01*
X00117536Y00231925D01*
Y00228075D01*
D02*
G37*
G36*
X00386536Y00226075D02*
X00384204Y00227250D01*
Y00228750D01*
X00386536Y00229925D01*
Y00226075D01*
D02*
G37*
G36*
X00133796Y00223250D02*
Y00221750D01*
X00131464Y00220575D01*
Y00224425D01*
X00133796Y00223250D01*
D02*
G37*
G36*
X00127536Y00220575D02*
X00125204Y00221750D01*
Y00223250D01*
X00127536Y00224425D01*
Y00220575D01*
D02*
G37*
G36*
X00157068Y00219507D02*
X00156250Y00217027D01*
X00153527Y00219750D01*
X00156007Y00220568D01*
X00157068Y00219507D01*
D02*
G37*
G36*
X00151536Y00215075D02*
X00149204Y00216250D01*
Y00217750D01*
X00151536Y00218925D01*
Y00215075D01*
D02*
G37*
G36*
X00188987Y00240724D02*
X00189196Y00240644D01*
Y00225661D01*
X00156888Y00193353D01*
X00156280Y00192443D01*
X00156066Y00191370D01*
Y00155630D01*
X00156280Y00154557D01*
X00156888Y00153647D01*
X00170390Y00140144D01*
X00169845Y00139063D01*
X00169473Y00138691D01*
X00168750Y00136945D01*
Y00135055D01*
X00169473Y00133309D01*
X00170809Y00131973D01*
X00172555Y00131250D01*
X00174445D01*
X00176191Y00131973D01*
X00176205Y00131988D01*
X00177129Y00131605D01*
Y00108059D01*
X00154694Y00085624D01*
X00154086Y00084714D01*
X00153873Y00083641D01*
Y00055017D01*
X00154086Y00053944D01*
X00154694Y00053034D01*
X00177896Y00029833D01*
X00178805Y00029225D01*
X00179878Y00029011D01*
X00184069D01*
X00184563Y00028012D01*
X00183813Y00027034D01*
X00183007Y00025088D01*
X00182732Y00023000D01*
Y00021500D01*
X00190801D01*
X00198870D01*
Y00023000D01*
X00198595Y00025088D01*
X00197789Y00027034D01*
X00197039Y00028012D01*
X00197532Y00029011D01*
X00270469D01*
X00270963Y00028012D01*
X00270213Y00027034D01*
X00269407Y00025088D01*
X00269132Y00023000D01*
Y00021499D01*
X00277201D01*
X00285270D01*
Y00023000D01*
X00284995Y00025088D01*
X00284189Y00027034D01*
X00283439Y00028012D01*
X00283932Y00029011D01*
X00323315D01*
X00324388Y00029225D01*
X00325298Y00029833D01*
X00330598Y00035133D01*
X00355902D01*
X00357158Y00033877D01*
X00357750Y00032081D01*
Y00031555D01*
X00358473Y00029809D01*
X00359809Y00028473D01*
X00361555Y00027750D01*
X00363445D01*
X00364096Y00028020D01*
X00364141Y00028000D01*
X00364872Y00027259D01*
X00364000Y00024382D01*
X00363667Y00021000D01*
X00364000Y00017618D01*
X00364986Y00014367D01*
X00366588Y00011370D01*
X00368743Y00008743D01*
X00371370Y00006588D01*
X00372343Y00006068D01*
X00372100Y00005098D01*
X00050465Y00005098D01*
X00050184Y00006098D01*
X00053015Y00007833D01*
X00056875Y00011130D01*
X00060171Y00014990D01*
X00062824Y00019318D01*
X00064766Y00024008D01*
X00065951Y00028944D01*
X00066350Y00034004D01*
X00065951Y00039065D01*
X00064766Y00044001D01*
X00062824Y00048691D01*
X00060171Y00053019D01*
X00056875Y00056879D01*
X00053015Y00060176D01*
X00048686Y00062828D01*
X00043997Y00064771D01*
X00039061Y00065956D01*
X00034000Y00066354D01*
X00028939Y00065956D01*
X00024003Y00064771D01*
X00019313Y00062828D01*
X00014985Y00060176D01*
X00011125Y00056879D01*
X00007829Y00053019D01*
X00006098Y00050195D01*
X00005098Y00050477D01*
Y00098228D01*
X00006098Y00098760D01*
X00007144Y00098061D01*
X00008900Y00097712D01*
X00029900D01*
X00031656Y00098061D01*
X00033144Y00099056D01*
X00033500Y00099588D01*
X00034500D01*
X00034856Y00099056D01*
X00036344Y00098061D01*
X00038100Y00097712D01*
X00059100D01*
X00060856Y00098061D01*
X00062344Y00099056D01*
X00063339Y00100544D01*
X00063628Y00101996D01*
X00067300D01*
X00068373Y00102210D01*
X00069283Y00102817D01*
X00077483Y00111017D01*
X00078090Y00111927D01*
X00078304Y00113000D01*
Y00140240D01*
X00095076Y00157013D01*
X00095684Y00157922D01*
X00095897Y00158996D01*
Y00193293D01*
X00096897Y00193492D01*
X00096973Y00193309D01*
X00098309Y00191973D01*
X00100055Y00191250D01*
X00101945D01*
X00103691Y00191973D01*
X00104023Y00192306D01*
X00105567Y00192941D01*
X00117733D01*
X00138108Y00172567D01*
X00138750Y00171026D01*
Y00170555D01*
X00139473Y00168809D01*
X00139806Y00168477D01*
X00140441Y00166933D01*
Y00150701D01*
X00140441Y00150700D01*
X00140674Y00149530D01*
X00141337Y00148538D01*
X00159941Y00129933D01*
Y00116000D01*
X00159941Y00116000D01*
X00160174Y00114830D01*
X00160837Y00113837D01*
X00163108Y00111567D01*
X00163750Y00110026D01*
Y00109555D01*
X00164473Y00107809D01*
X00165809Y00106473D01*
X00167555Y00105750D01*
X00169445D01*
X00171191Y00106473D01*
X00172527Y00107809D01*
X00173250Y00109555D01*
Y00111445D01*
X00172527Y00113191D01*
X00171191Y00114527D01*
X00169445Y00115250D01*
X00168974D01*
X00167433Y00115892D01*
X00166059Y00117267D01*
Y00131200D01*
X00166059Y00131200D01*
X00165826Y00132371D01*
X00165163Y00133363D01*
X00165163Y00133363D01*
X00146559Y00151967D01*
Y00166933D01*
X00147194Y00168477D01*
X00147527Y00168809D01*
X00148250Y00170555D01*
Y00172445D01*
X00147527Y00174191D01*
X00146191Y00175527D01*
X00144445Y00176250D01*
X00143974D01*
X00142433Y00176893D01*
X00121163Y00198163D01*
X00120170Y00198826D01*
X00119000Y00199059D01*
X00119000Y00199059D01*
X00105567D01*
X00104023Y00199694D01*
X00103691Y00200027D01*
X00101945Y00200750D01*
X00101590D01*
X00101207Y00201674D01*
X00109229Y00209696D01*
X00134500D01*
X00135573Y00209910D01*
X00136483Y00210517D01*
X00138161Y00212196D01*
X00144001D01*
X00145074Y00212410D01*
X00145984Y00213017D01*
X00147163Y00214196D01*
X00148749D01*
X00150437Y00213345D01*
X00150809Y00212973D01*
X00152555Y00212250D01*
X00154445D01*
X00156191Y00212973D01*
X00157527Y00214309D01*
X00158250Y00216055D01*
Y00216581D01*
X00158842Y00218377D01*
X00161178Y00220713D01*
X00167182D01*
X00168255Y00220926D01*
X00169165Y00221534D01*
X00187702Y00240071D01*
X00188196Y00240811D01*
X00188987Y00240724D01*
D02*
G37*
G36*
X00288392Y00249591D02*
Y00211033D01*
X00288484Y00210568D01*
X00287755Y00209568D01*
X00283553D01*
X00277773Y00215348D01*
Y00258902D01*
X00278697Y00259285D01*
X00288392Y00249591D01*
D02*
G37*
G36*
X00105212Y00197000D02*
Y00195000D01*
X00102964Y00194075D01*
Y00197925D01*
X00105212Y00197000D01*
D02*
G37*
G36*
X00348000Y00461000D02*
X00356000D01*
X00368500Y00448500D01*
X00419500D01*
X00453000Y00415000D01*
Y00227000D01*
X00462902Y00217098D01*
Y00177902D01*
X00460000Y00175000D01*
X00388500D01*
X00381500Y00182000D01*
Y00215000D01*
X00389500Y00223000D01*
X00406500D01*
X00412000Y00228500D01*
Y00304000D01*
X00388500Y00327500D01*
Y00413000D01*
X00371000Y00430500D01*
X00351000D01*
X00344000Y00437500D01*
X00328500D01*
X00322500Y00443500D01*
Y00462500D01*
X00328500Y00468500D01*
X00340500D01*
X00348000Y00461000D01*
D02*
G37*
G36*
X00462902Y00173712D02*
Y00162172D01*
X00461902Y00161640D01*
X00460856Y00162339D01*
X00459100Y00162688D01*
X00438100D01*
X00436344Y00162339D01*
X00434856Y00161344D01*
X00434601Y00160964D01*
X00433399D01*
X00433144Y00161344D01*
X00431656Y00162339D01*
X00429900Y00162688D01*
X00408900D01*
X00407144Y00162339D01*
X00405656Y00161344D01*
X00404661Y00159856D01*
X00404524Y00159169D01*
X00404365D01*
X00402999Y00158897D01*
X00401842Y00158123D01*
X00399170Y00155451D01*
X00398396Y00154293D01*
X00398124Y00152928D01*
Y00099535D01*
X00398396Y00098169D01*
X00399170Y00097011D01*
X00400181Y00096000D01*
X00400157Y00095901D01*
X00399499Y00095155D01*
X00398432Y00095534D01*
X00393233Y00100733D01*
X00392323Y00101340D01*
X00391250Y00101554D01*
X00390745D01*
X00390489Y00101871D01*
X00390797Y00103081D01*
X00391049Y00103185D01*
X00392315Y00104451D01*
X00393000Y00106105D01*
Y00106564D01*
X00393534Y00108069D01*
X00395983Y00110517D01*
X00396590Y00111427D01*
X00396804Y00112500D01*
Y00164749D01*
X00397655Y00166437D01*
X00398027Y00166809D01*
X00398750Y00168555D01*
Y00170445D01*
X00398122Y00171961D01*
X00398563Y00172961D01*
X00460000D01*
X00460000Y00172961D01*
X00460780Y00173116D01*
X00461442Y00173558D01*
X00461978Y00174094D01*
X00462902Y00173712D01*
D02*
G37*
G36*
X00319568Y00173493D02*
X00318507Y00172432D01*
X00316028Y00173250D01*
X00318750Y00175972D01*
X00319568Y00173493D01*
D02*
G37*
G36*
X00143472Y00174250D02*
X00140750Y00171528D01*
X00139815Y00173771D01*
X00141229Y00175185D01*
X00143472Y00174250D01*
D02*
G37*
G36*
X00392036Y00167575D02*
X00389704Y00168750D01*
Y00170250D01*
X00392036Y00171425D01*
Y00167575D01*
D02*
G37*
G36*
X00144500Y00167288D02*
X00142500D01*
X00141575Y00169536D01*
X00145425D01*
X00144500Y00167288D01*
D02*
G37*
G36*
X00394750Y00165204D02*
X00393250D01*
X00392075Y00167536D01*
X00395925D01*
X00394750Y00165204D01*
D02*
G37*
G36*
X00006727Y00182593D02*
X00008571Y00180191D01*
X00010973Y00178347D01*
X00013771Y00177189D01*
X00016773Y00176793D01*
X00071773D01*
X00074775Y00177189D01*
X00077572Y00178347D01*
X00079974Y00180191D01*
X00081818Y00182593D01*
X00081927Y00182856D01*
X00082907Y00182661D01*
Y00167805D01*
X00073506Y00158404D01*
X00063628D01*
X00063339Y00159856D01*
X00062344Y00161344D01*
X00060856Y00162339D01*
X00059100Y00162688D01*
X00038100D01*
X00036344Y00162339D01*
X00034856Y00161344D01*
X00034500Y00160812D01*
X00033500D01*
X00033144Y00161344D01*
X00031656Y00162339D01*
X00029900Y00162688D01*
X00008900D01*
X00007144Y00162339D01*
X00006098Y00161640D01*
X00005098Y00162172D01*
Y00183914D01*
X00006098Y00184113D01*
X00006727Y00182593D01*
D02*
G37*
G36*
X00296068Y00157507D02*
X00295250Y00155028D01*
X00292528Y00157750D01*
X00295007Y00158568D01*
X00296068Y00157507D01*
D02*
G37*
G36*
X00434856Y00149856D02*
X00436344Y00148861D01*
X00438100Y00148512D01*
X00459100D01*
X00460856Y00148861D01*
X00461902Y00149560D01*
X00462902Y00149028D01*
Y00137042D01*
X00461902Y00136507D01*
X00461256Y00136939D01*
X00459500Y00137288D01*
X00438500D01*
X00436744Y00136939D01*
X00435256Y00135944D01*
X00434483Y00134788D01*
X00433517D01*
X00432744Y00135944D01*
X00431256Y00136939D01*
X00429500Y00137288D01*
X00423420D01*
X00423006Y00138288D01*
X00423027Y00138309D01*
X00423750Y00140055D01*
Y00141945D01*
X00423027Y00143691D01*
X00421691Y00145027D01*
X00419945Y00145750D01*
X00418055D01*
X00416309Y00145027D01*
X00414973Y00143691D01*
X00414250Y00141945D01*
Y00140055D01*
X00414973Y00138309D01*
X00414994Y00138288D01*
X00414580Y00137288D01*
X00408500D01*
X00406744Y00136939D01*
X00406143Y00136538D01*
X00405261Y00137009D01*
Y00148916D01*
X00406261Y00149451D01*
X00407144Y00148861D01*
X00408900Y00148512D01*
X00429900D01*
X00431656Y00148861D01*
X00433144Y00149856D01*
X00433399Y00150236D01*
X00434601D01*
X00434856Y00149856D01*
D02*
G37*
G36*
X00357425Y00143464D02*
X00353575D01*
X00354750Y00145796D01*
X00356250D01*
X00357425Y00143464D01*
D02*
G37*
G36*
X00035536Y00140575D02*
X00033288Y00141500D01*
Y00143500D01*
X00035536Y00144425D01*
Y00140575D01*
D02*
G37*
G36*
X00015212Y00143500D02*
Y00141500D01*
X00012964Y00140575D01*
Y00144425D01*
X00015212Y00143500D01*
D02*
G37*
G36*
X00175425Y00137964D02*
X00171575D01*
X00172750Y00140296D01*
X00174250D01*
X00175425Y00137964D01*
D02*
G37*
G36*
X00183332Y00464469D02*
X00183589Y00464374D01*
Y00425690D01*
X00183803Y00424617D01*
X00184410Y00423707D01*
X00201204Y00406913D01*
X00202114Y00406305D01*
X00203187Y00406092D01*
X00325018D01*
X00326091Y00406305D01*
X00327000Y00406913D01*
X00331254Y00411167D01*
X00334490D01*
X00335932Y00410480D01*
X00336256Y00410156D01*
X00337910Y00409470D01*
X00339700D01*
X00341354Y00410156D01*
X00342620Y00411421D01*
X00343305Y00413075D01*
Y00413534D01*
X00343839Y00415039D01*
X00349150Y00420350D01*
X00359218D01*
X00359632Y00419350D01*
X00358973Y00418691D01*
X00358250Y00416945D01*
Y00415055D01*
X00358973Y00413309D01*
X00360309Y00411973D01*
X00362055Y00411250D01*
X00363945D01*
X00365691Y00411973D01*
X00366063Y00412345D01*
X00367751Y00413196D01*
X00368926D01*
X00373696Y00408426D01*
Y00285860D01*
X00361564Y00273729D01*
X00360957Y00272819D01*
X00360743Y00271746D01*
Y00174902D01*
X00360957Y00173829D01*
X00361564Y00172920D01*
X00376428Y00158056D01*
Y00137596D01*
X00375428Y00137136D01*
X00373945Y00137750D01*
X00372055D01*
X00371543Y00137538D01*
X00370880Y00138345D01*
X00370984Y00138501D01*
X00371197Y00139574D01*
Y00159720D01*
X00370984Y00160793D01*
X00370376Y00161702D01*
X00358444Y00173634D01*
Y00228051D01*
X00358231Y00229124D01*
X00357623Y00230033D01*
X00348674Y00238983D01*
X00347764Y00239590D01*
X00346691Y00239804D01*
X00333751D01*
X00332063Y00240655D01*
X00331691Y00241027D01*
X00329945Y00241750D01*
X00328055D01*
X00326309Y00241027D01*
X00324973Y00239691D01*
X00324250Y00237945D01*
Y00236055D01*
X00324973Y00234309D01*
X00326309Y00232973D01*
X00328055Y00232250D01*
X00329945D01*
X00331691Y00232973D01*
X00332063Y00233345D01*
X00333751Y00234196D01*
X00345530D01*
X00352837Y00226889D01*
Y00172472D01*
X00353050Y00171399D01*
X00353658Y00170490D01*
X00365589Y00158558D01*
Y00140736D01*
X00359017Y00134164D01*
X00358410Y00133254D01*
X00358196Y00132181D01*
Y00128751D01*
X00357345Y00127063D01*
X00356973Y00126691D01*
X00356250Y00124945D01*
Y00123859D01*
X00355250Y00123468D01*
X00354621Y00124097D01*
X00354300Y00124750D01*
X00354621Y00125403D01*
X00355527Y00126309D01*
X00356250Y00128055D01*
Y00129945D01*
X00355527Y00131691D01*
X00355155Y00132063D01*
X00354304Y00133751D01*
Y00135400D01*
X00354219Y00135826D01*
X00354268Y00135961D01*
X00355016Y00136750D01*
X00356445D01*
X00358191Y00137473D01*
X00359527Y00138809D01*
X00360250Y00140555D01*
Y00142445D01*
X00359527Y00144191D01*
X00359155Y00144563D01*
X00358304Y00146251D01*
Y00153000D01*
X00358090Y00154073D01*
X00357483Y00154983D01*
X00355190Y00157276D01*
Y00165071D01*
X00354976Y00166144D01*
X00354368Y00167054D01*
X00333849Y00187573D01*
X00332939Y00188181D01*
X00331866Y00188395D01*
X00323179D01*
X00297804Y00213770D01*
Y00252328D01*
X00297590Y00253401D01*
X00296983Y00254311D01*
X00286208Y00265085D01*
Y00287761D01*
X00285995Y00288834D01*
X00285387Y00289744D01*
X00224506Y00350625D01*
Y00366469D01*
X00224293Y00367542D01*
X00223685Y00368451D01*
X00213436Y00378701D01*
Y00381395D01*
X00214286Y00383084D01*
X00214659Y00383456D01*
X00215382Y00385202D01*
Y00387091D01*
X00214659Y00388837D01*
X00213322Y00390173D01*
X00211577Y00390896D01*
X00209687D01*
X00207941Y00390173D01*
X00206887Y00389119D01*
X00206527Y00389191D01*
X00205191Y00390527D01*
X00203445Y00391250D01*
X00201555D01*
X00201250Y00391454D01*
Y00392945D01*
X00200527Y00394691D01*
X00199191Y00396027D01*
X00197445Y00396750D01*
X00195555D01*
X00193809Y00396027D01*
X00192473Y00394691D01*
X00191750Y00392945D01*
Y00391454D01*
X00191445Y00391250D01*
X00189555D01*
X00187809Y00390527D01*
X00186473Y00389191D01*
X00185750Y00387445D01*
Y00385555D01*
X00186473Y00383809D01*
X00186845Y00383437D01*
X00187696Y00381749D01*
Y00380700D01*
X00187910Y00379627D01*
X00188517Y00378718D01*
X00196853Y00370383D01*
Y00364419D01*
X00195929Y00364036D01*
X00158800Y00401166D01*
Y00434962D01*
X00158586Y00436035D01*
X00157979Y00436945D01*
X00140626Y00454297D01*
X00141009Y00455221D01*
X00171809D01*
X00173565Y00455570D01*
X00175053Y00456565D01*
X00181704Y00463216D01*
X00182589Y00464540D01*
X00183332Y00464469D01*
D02*
G37*
G36*
X00420000Y00136788D02*
X00418000D01*
X00417075Y00139036D01*
X00420925D01*
X00420000Y00136788D01*
D02*
G37*
G36*
X00353425Y00130964D02*
X00349575D01*
X00350750Y00133296D01*
X00352250D01*
X00353425Y00130964D01*
D02*
G37*
G36*
X00373750Y00128704D02*
X00372250D01*
X00371075Y00131036D01*
X00374925D01*
X00373750Y00128704D01*
D02*
G37*
G36*
X00282803Y00153528D02*
Y00139268D01*
X00270339Y00126804D01*
X00268251D01*
X00266563Y00127655D01*
X00266191Y00128027D01*
X00264445Y00128750D01*
X00262555D01*
X00261431Y00128285D01*
X00260431Y00128953D01*
Y00132464D01*
X00281879Y00153911D01*
X00282803Y00153528D01*
D02*
G37*
G36*
X00362925Y00125964D02*
X00359075D01*
X00360250Y00128296D01*
X00361750D01*
X00362925Y00125964D01*
D02*
G37*
G36*
X00435256Y00124456D02*
X00436744Y00123461D01*
X00438500Y00123112D01*
X00459500D01*
X00461256Y00123461D01*
X00461902Y00123893D01*
X00462902Y00123358D01*
Y00111372D01*
X00461902Y00110840D01*
X00460856Y00111539D01*
X00459100Y00111888D01*
X00438100D01*
X00436344Y00111539D01*
X00434856Y00110544D01*
X00434601Y00110164D01*
X00433399D01*
X00433144Y00110544D01*
X00431656Y00111539D01*
X00429900Y00111888D01*
X00424360D01*
X00423804Y00112720D01*
X00424150Y00113555D01*
Y00115445D01*
X00423427Y00117191D01*
X00422091Y00118527D01*
X00420345Y00119250D01*
X00418455D01*
X00416709Y00118527D01*
X00415373Y00117191D01*
X00414650Y00115445D01*
Y00113555D01*
X00414996Y00112720D01*
X00414440Y00111888D01*
X00408900D01*
X00407144Y00111539D01*
X00406261Y00110949D01*
X00405261Y00111484D01*
Y00123391D01*
X00406143Y00123862D01*
X00406744Y00123461D01*
X00408500Y00123112D01*
X00429500D01*
X00431256Y00123461D01*
X00432744Y00124456D01*
X00433517Y00125612D01*
X00434483D01*
X00435256Y00124456D01*
D02*
G37*
G36*
X00267796Y00124750D02*
Y00123250D01*
X00265464Y00122075D01*
Y00125925D01*
X00267796Y00124750D01*
D02*
G37*
G36*
X00351473Y00123250D02*
X00348750Y00120527D01*
X00347932Y00123007D01*
X00348993Y00124068D01*
X00351473Y00123250D01*
D02*
G37*
G36*
X00289925Y00117964D02*
X00286075D01*
X00286500Y00119955D01*
X00289500D01*
X00289925Y00117964D01*
D02*
G37*
G36*
X00267068Y00113493D02*
X00266007Y00112432D01*
X00263528Y00113250D01*
X00266250Y00115972D01*
X00267068Y00113493D01*
D02*
G37*
G36*
X00364796Y00113250D02*
Y00111750D01*
X00362464Y00110575D01*
Y00114425D01*
X00364796Y00113250D01*
D02*
G37*
G36*
X00168472Y00113250D02*
X00165750Y00110527D01*
X00164815Y00112771D01*
X00166229Y00114185D01*
X00168472Y00113250D01*
D02*
G37*
G36*
X00420400Y00110288D02*
X00418400D01*
X00417475Y00112536D01*
X00421325D01*
X00420400Y00110288D01*
D02*
G37*
G36*
X00391777Y00109217D02*
X00391000Y00107025D01*
X00388525Y00109500D01*
X00390717Y00110277D01*
X00391777Y00109217D01*
D02*
G37*
G36*
X00273472Y00102250D02*
X00270750Y00099528D01*
X00269932Y00102007D01*
X00270993Y00103068D01*
X00273472Y00102250D01*
D02*
G37*
G36*
X00399475Y00093000D02*
X00397000Y00090525D01*
X00396223Y00092717D01*
X00397283Y00093777D01*
X00399475Y00093000D01*
D02*
G37*
G36*
X00294473Y00092250D02*
X00291750Y00089528D01*
X00290932Y00092007D01*
X00291993Y00093068D01*
X00294473Y00092250D01*
D02*
G37*
G36*
X00434856Y00099056D02*
X00436344Y00098061D01*
X00438100Y00097712D01*
X00459100D01*
X00460856Y00098061D01*
X00461902Y00098760D01*
X00462902Y00098228D01*
Y00086242D01*
X00461902Y00085707D01*
X00461256Y00086139D01*
X00459500Y00086488D01*
X00450250D01*
Y00079400D01*
Y00072312D01*
X00459500D01*
X00461256Y00072661D01*
X00461902Y00073093D01*
X00462902Y00072558D01*
Y00050477D01*
X00461902Y00050195D01*
X00460171Y00053019D01*
X00456875Y00056879D01*
X00453015Y00060176D01*
X00448686Y00062828D01*
X00443997Y00064771D01*
X00439061Y00065956D01*
X00434000Y00066354D01*
X00428939Y00065956D01*
X00424003Y00064771D01*
X00419314Y00062828D01*
X00414985Y00060176D01*
X00411125Y00056879D01*
X00407828Y00053019D01*
X00405176Y00048691D01*
X00403234Y00044001D01*
X00402049Y00039065D01*
X00401650Y00034004D01*
X00402049Y00028944D01*
X00403234Y00024008D01*
X00405176Y00019318D01*
X00407828Y00014990D01*
X00411125Y00011130D01*
X00414985Y00007833D01*
X00417817Y00006098D01*
X00417534Y00005098D01*
X00389900D01*
X00389657Y00006068D01*
X00390630Y00006588D01*
X00393257Y00008743D01*
X00395412Y00011370D01*
X00397014Y00014367D01*
X00398000Y00017618D01*
X00398333Y00021000D01*
X00398000Y00024382D01*
X00397014Y00027633D01*
X00395412Y00030630D01*
X00393257Y00033257D01*
X00390630Y00035412D01*
X00388228Y00036696D01*
X00388110Y00037893D01*
X00389027Y00038809D01*
X00389750Y00040555D01*
Y00042445D01*
X00389027Y00044191D01*
X00387691Y00045527D01*
X00385945Y00046250D01*
X00384055D01*
X00382309Y00045527D01*
X00381937Y00045155D01*
X00380249Y00044304D01*
X00329657D01*
X00329274Y00045228D01*
X00335523Y00051477D01*
X00336297Y00052634D01*
X00336569Y00054000D01*
Y00059519D01*
X00349931D01*
Y00053295D01*
X00349685Y00053049D01*
X00349000Y00051395D01*
Y00049605D01*
X00349685Y00047951D01*
X00350951Y00046685D01*
X00352605Y00046000D01*
X00354395D01*
X00356049Y00046685D01*
X00357315Y00047951D01*
X00358000Y00049605D01*
Y00051395D01*
X00357315Y00053049D01*
X00357069Y00053295D01*
Y00059519D01*
X00365179D01*
X00366545Y00059791D01*
X00367702Y00060564D01*
X00381569Y00074431D01*
X00386351D01*
X00386809Y00073973D01*
X00388555Y00073250D01*
X00390445D01*
X00392191Y00073973D01*
X00392649Y00074431D01*
X00396177D01*
X00397543Y00074703D01*
X00398700Y00075477D01*
X00408791Y00085568D01*
X00409565Y00086725D01*
X00409836Y00088091D01*
Y00094960D01*
X00409565Y00096326D01*
X00409307Y00096712D01*
X00409841Y00097712D01*
X00429900D01*
X00431656Y00098061D01*
X00433144Y00099056D01*
X00433399Y00099436D01*
X00434601D01*
X00434856Y00099056D01*
D02*
G37*
G36*
X00335568Y00087507D02*
X00334750Y00085028D01*
X00332028Y00087750D01*
X00334507Y00088568D01*
X00335568Y00087507D01*
D02*
G37*
G36*
X00345296Y00085750D02*
Y00084250D01*
X00342964Y00083075D01*
Y00086925D01*
X00345296Y00085750D01*
D02*
G37*
G36*
X00336309Y00155973D02*
X00338055Y00155250D01*
X00339945D01*
X00341218Y00155778D01*
X00342218Y00155194D01*
Y00126978D01*
X00342432Y00125905D01*
X00343040Y00124995D01*
X00346158Y00121877D01*
X00346750Y00120081D01*
Y00119555D01*
X00347473Y00117809D01*
X00348809Y00116473D01*
X00350555Y00115750D01*
X00351109D01*
X00351696Y00115035D01*
Y00105661D01*
X00350017Y00103983D01*
X00349410Y00103073D01*
X00349196Y00102000D01*
Y00095661D01*
X00347409Y00093874D01*
X00338071D01*
X00336998Y00093661D01*
X00336088Y00093053D01*
X00333377Y00090342D01*
X00331581Y00089750D01*
X00331055D01*
X00329309Y00089027D01*
X00327973Y00087691D01*
X00327250Y00085945D01*
Y00084055D01*
X00327973Y00082309D01*
X00329309Y00080973D01*
X00330286Y00080569D01*
X00330087Y00079569D01*
X00322667D01*
X00291569Y00110667D01*
Y00112851D01*
X00292027Y00113309D01*
X00292750Y00115055D01*
Y00116945D01*
X00292027Y00118691D01*
X00291808Y00118909D01*
X00291569Y00120032D01*
Y00122675D01*
X00315023Y00146130D01*
X00315797Y00147288D01*
X00316069Y00148653D01*
Y00156431D01*
X00335851D01*
X00336309Y00155973D01*
D02*
G37*
G36*
X00361750Y00075785D02*
X00358250D01*
X00359250Y00077885D01*
X00360750D01*
X00361750Y00075785D01*
D02*
G37*
G36*
X00339036Y00074075D02*
X00337045Y00074500D01*
Y00077500D01*
X00339036Y00077925D01*
Y00074075D01*
D02*
G37*
G36*
X00379196Y00107424D02*
Y00105338D01*
X00379410Y00104265D01*
X00380017Y00103355D01*
X00386605Y00096767D01*
X00387515Y00096160D01*
X00388588Y00095946D01*
X00390089D01*
X00394466Y00091568D01*
X00395000Y00090064D01*
Y00089605D01*
X00395685Y00087951D01*
X00396951Y00086685D01*
X00397976Y00086260D01*
X00398211Y00085081D01*
X00394699Y00081569D01*
X00392649D01*
X00392191Y00082027D01*
X00390445Y00082750D01*
X00388555D01*
X00386809Y00082027D01*
X00386351Y00081569D01*
X00380091D01*
X00378726Y00081297D01*
X00377568Y00080523D01*
X00363701Y00066656D01*
X00336569D01*
Y00071585D01*
X00337569Y00072303D01*
X00338091Y00072192D01*
X00338309Y00071973D01*
X00340055Y00071250D01*
X00341945D01*
X00343691Y00071973D01*
X00345027Y00073309D01*
X00345750Y00075055D01*
Y00076945D01*
X00345027Y00078691D01*
X00343787Y00079931D01*
X00343734Y00080500D01*
X00343787Y00081069D01*
X00344063Y00081345D01*
X00345751Y00082196D01*
X00348582D01*
X00349655Y00082410D01*
X00350565Y00083017D01*
X00356272Y00088725D01*
X00357196Y00088342D01*
Y00078315D01*
X00356510Y00076874D01*
X00356185Y00076549D01*
X00355500Y00074895D01*
Y00073105D01*
X00356185Y00071451D01*
X00357451Y00070185D01*
X00359105Y00069500D01*
X00360895D01*
X00362549Y00070185D01*
X00363815Y00071451D01*
X00364500Y00073105D01*
Y00074895D01*
X00363815Y00076549D01*
X00363490Y00076874D01*
X00362804Y00078315D01*
Y00097401D01*
X00367385Y00101982D01*
X00371286D01*
X00372359Y00102196D01*
X00373269Y00102804D01*
X00378272Y00107807D01*
X00379196Y00107424D01*
D02*
G37*
G36*
X00176250Y00065204D02*
X00174750D01*
X00173575Y00067536D01*
X00177425D01*
X00176250Y00065204D01*
D02*
G37*
G36*
X00291250Y00049704D02*
X00289750D01*
X00288575Y00052036D01*
X00292425D01*
X00291250Y00049704D01*
D02*
G37*
G36*
X00153192Y00433801D02*
Y00400004D01*
X00153406Y00398931D01*
X00154013Y00398022D01*
X00192778Y00359256D01*
Y00343037D01*
X00192992Y00341964D01*
X00193600Y00341054D01*
X00254696Y00279958D01*
Y00254181D01*
X00253696Y00253982D01*
X00252992Y00255681D01*
X00251245Y00258533D01*
X00249072Y00261077D01*
X00246529Y00263249D01*
X00243677Y00264997D01*
X00240587Y00266277D01*
X00237334Y00267057D01*
X00234000Y00267320D01*
X00230665Y00267057D01*
X00227413Y00266277D01*
X00224323Y00264997D01*
X00221471Y00263249D01*
X00218927Y00261077D01*
X00216755Y00258533D01*
X00215008Y00255681D01*
X00213728Y00252591D01*
X00212947Y00249339D01*
X00212684Y00246004D01*
X00212947Y00242670D01*
X00213728Y00239417D01*
X00215008Y00236327D01*
X00216755Y00233475D01*
X00218927Y00230932D01*
X00221471Y00228759D01*
X00224323Y00227012D01*
X00227413Y00225732D01*
X00230665Y00224951D01*
X00234000Y00224689D01*
X00237334Y00224951D01*
X00240587Y00225732D01*
X00243677Y00227012D01*
X00246529Y00228759D01*
X00249072Y00230932D01*
X00251245Y00233475D01*
X00252992Y00236327D01*
X00253696Y00238026D01*
X00254696Y00237827D01*
Y00207245D01*
X00254910Y00206172D01*
X00255517Y00205262D01*
X00272262Y00188517D01*
X00273172Y00187910D01*
X00274245Y00187696D01*
X00280339D01*
X00285405Y00182630D01*
Y00165368D01*
X00255645Y00135608D01*
X00255037Y00134698D01*
X00254824Y00133625D01*
Y00112790D01*
X00255037Y00111717D01*
X00255645Y00110807D01*
X00258935Y00107517D01*
X00259844Y00106910D01*
X00260917Y00106696D01*
X00262339D01*
X00268158Y00100877D01*
X00268750Y00099081D01*
Y00098555D01*
X00269473Y00096809D01*
X00270809Y00095473D01*
X00272555Y00094750D01*
X00274445D01*
X00276191Y00095473D01*
X00277527Y00096809D01*
X00278250Y00098555D01*
Y00100371D01*
X00278449Y00100542D01*
X00279150Y00100885D01*
X00289158Y00090877D01*
X00289750Y00089081D01*
Y00088555D01*
X00290473Y00086809D01*
X00291809Y00085473D01*
X00293555Y00084750D01*
X00295445D01*
X00297191Y00085473D01*
X00298527Y00086809D01*
X00299250Y00088555D01*
Y00090445D01*
X00298527Y00092191D01*
X00297191Y00093527D01*
X00295445Y00094250D01*
X00294919D01*
X00293123Y00094842D01*
X00280241Y00107725D01*
X00279331Y00108332D01*
X00278258Y00108546D01*
X00274919D01*
X00268842Y00114623D01*
X00268250Y00116419D01*
Y00116945D01*
X00267527Y00118691D01*
X00266782Y00119435D01*
X00267044Y00120588D01*
X00268251Y00121196D01*
X00271500D01*
X00272573Y00121410D01*
X00273483Y00122017D01*
X00287589Y00136124D01*
X00288197Y00137033D01*
X00288410Y00138106D01*
Y00150958D01*
X00289410Y00151372D01*
X00289809Y00150973D01*
X00291555Y00150250D01*
X00293445D01*
X00295191Y00150973D01*
X00296527Y00152309D01*
X00297250Y00154055D01*
Y00154581D01*
X00297842Y00156377D01*
X00298118Y00156652D01*
X00298725Y00157562D01*
X00298939Y00158635D01*
Y00187075D01*
X00298725Y00188148D01*
X00298118Y00189057D01*
X00287201Y00199974D01*
X00286292Y00200582D01*
X00285219Y00200795D01*
X00279125D01*
X00268230Y00211690D01*
Y00283330D01*
X00269230Y00283744D01*
X00270636Y00282338D01*
Y00213870D01*
X00270908Y00212504D01*
X00271681Y00211346D01*
X00279552Y00203476D01*
X00280709Y00202703D01*
X00282075Y00202431D01*
X00288522D01*
X00301386Y00189568D01*
Y00162819D01*
X00301657Y00161453D01*
X00302431Y00160296D01*
X00305250Y00157477D01*
X00306408Y00156703D01*
X00307773Y00156431D01*
X00308931D01*
Y00150132D01*
X00285477Y00126677D01*
X00284703Y00125519D01*
X00284431Y00124153D01*
Y00120032D01*
X00284192Y00118909D01*
X00283973Y00118691D01*
X00283250Y00116945D01*
Y00115055D01*
X00283973Y00113309D01*
X00284431Y00112851D01*
Y00109189D01*
X00284703Y00107824D01*
X00285477Y00106666D01*
X00318666Y00073477D01*
X00319824Y00072703D01*
X00321189Y00072431D01*
X00329431D01*
Y00063088D01*
Y00055478D01*
X00317128Y00043175D01*
X00291447D01*
X00291064Y00044099D01*
X00292483Y00045517D01*
X00293090Y00046427D01*
X00293304Y00047500D01*
Y00049249D01*
X00294155Y00050937D01*
X00294527Y00051309D01*
X00295250Y00053055D01*
Y00054945D01*
X00294527Y00056691D01*
X00293191Y00058027D01*
X00291445Y00058750D01*
X00289555D01*
X00287809Y00058027D01*
X00286473Y00056691D01*
X00286270Y00056199D01*
X00285270Y00056398D01*
Y00057999D01*
X00277201D01*
Y00060499D01*
X00274701D01*
Y00073623D01*
X00273166Y00072988D01*
X00271495Y00071705D01*
X00270213Y00070034D01*
X00269407Y00068088D01*
X00269132Y00066000D01*
Y00061656D01*
X00268132Y00061254D01*
X00266809Y00062269D01*
X00264924Y00063050D01*
X00262901Y00063316D01*
X00260877Y00063050D01*
X00258992Y00062269D01*
X00257373Y00061027D01*
X00256131Y00059408D01*
X00255350Y00057523D01*
X00255084Y00055500D01*
X00255350Y00053477D01*
X00256131Y00051591D01*
X00257373Y00049972D01*
X00258992Y00048730D01*
X00260877Y00047949D01*
X00262901Y00047683D01*
X00264924Y00047949D01*
X00266809Y00048730D01*
X00268428Y00049972D01*
X00269151Y00050915D01*
X00269684Y00050940D01*
X00270331Y00050810D01*
X00271495Y00049294D01*
X00273166Y00048012D01*
X00274875Y00047304D01*
X00274676Y00046304D01*
X00193325D01*
X00193127Y00047304D01*
X00194835Y00048012D01*
X00196506Y00049294D01*
X00197670Y00050810D01*
X00198317Y00050940D01*
X00198850Y00050915D01*
X00199573Y00049972D01*
X00201192Y00048730D01*
X00203078Y00047949D01*
X00205101Y00047683D01*
X00207124Y00047949D01*
X00209009Y00048730D01*
X00210628Y00049972D01*
X00211870Y00051591D01*
X00212651Y00053477D01*
X00212918Y00055500D01*
X00212651Y00057523D01*
X00211870Y00059408D01*
X00210628Y00061027D01*
X00209009Y00062269D01*
X00207124Y00063050D01*
X00205101Y00063316D01*
X00203078Y00063050D01*
X00201192Y00062269D01*
X00199870Y00061254D01*
X00198870Y00061656D01*
Y00066000D01*
X00198595Y00068088D01*
X00197789Y00070034D01*
X00196506Y00071705D01*
X00194835Y00072988D01*
X00193301Y00073623D01*
Y00060500D01*
X00190801D01*
Y00058000D01*
X00182732D01*
Y00055000D01*
X00183007Y00052911D01*
X00183813Y00050965D01*
X00185095Y00049294D01*
X00186766Y00048012D01*
X00188475Y00047304D01*
X00188276Y00046304D01*
X00186661D01*
X00178304Y00054661D01*
Y00064749D01*
X00179155Y00066437D01*
X00179527Y00066809D01*
X00180250Y00068555D01*
Y00070445D01*
X00179527Y00072191D01*
X00178191Y00073527D01*
X00176445Y00074250D01*
X00174555D01*
X00172809Y00073527D01*
X00171473Y00072191D01*
X00171069Y00071214D01*
X00170069Y00071413D01*
Y00074851D01*
X00170527Y00075309D01*
X00171250Y00077055D01*
Y00078945D01*
X00170527Y00080691D01*
X00169191Y00082027D01*
X00167445Y00082750D01*
X00166115D01*
X00165700Y00083750D01*
X00185415Y00103465D01*
X00186023Y00104375D01*
X00186237Y00105448D01*
Y00141199D01*
X00186023Y00142272D01*
X00185415Y00143182D01*
X00168804Y00159793D01*
Y00186066D01*
X00201483Y00218745D01*
X00202090Y00219654D01*
X00202304Y00220727D01*
Y00315249D01*
X00203155Y00316937D01*
X00203527Y00317309D01*
X00204250Y00319055D01*
Y00320945D01*
X00203527Y00322691D01*
X00202191Y00324027D01*
X00200445Y00324750D01*
X00198555D01*
X00196809Y00324027D01*
X00195473Y00322691D01*
X00195041Y00321648D01*
X00193959D01*
X00193527Y00322691D01*
X00192191Y00324027D01*
X00190445Y00324750D01*
X00188555D01*
X00186809Y00324027D01*
X00186728Y00323945D01*
X00185804Y00324328D01*
Y00332500D01*
X00185590Y00333573D01*
X00184983Y00334483D01*
X00178054Y00341411D01*
Y00355999D01*
X00178905Y00357687D01*
X00179277Y00358059D01*
X00180000Y00359805D01*
Y00361695D01*
X00179277Y00363441D01*
X00177941Y00364777D01*
X00176195Y00365500D01*
X00174305D01*
X00172559Y00364777D01*
X00171223Y00363441D01*
X00170500Y00361695D01*
Y00359805D01*
X00171223Y00358059D01*
X00171595Y00357687D01*
X00172446Y00355999D01*
Y00342375D01*
X00171522Y00341993D01*
X00158032Y00355483D01*
X00157123Y00356090D01*
X00156050Y00356304D01*
X00149251D01*
X00148378Y00356744D01*
X00148616Y00357744D01*
X00163165D01*
X00163555Y00357582D01*
X00165445D01*
X00167191Y00358305D01*
X00168527Y00359641D01*
X00169250Y00361387D01*
Y00363277D01*
X00168527Y00365023D01*
X00167191Y00366359D01*
X00165445Y00367082D01*
X00163555D01*
X00163165Y00366920D01*
X00139771D01*
X00138015Y00366571D01*
X00136526Y00365576D01*
X00132374Y00361424D01*
X00131379Y00359935D01*
X00131030Y00358180D01*
Y00348882D01*
X00131379Y00347126D01*
X00132374Y00345638D01*
X00139912Y00338100D01*
Y00324000D01*
X00140261Y00322244D01*
X00141256Y00320756D01*
X00141412Y00320600D01*
Y00311901D01*
X00116256Y00286744D01*
X00115261Y00285256D01*
X00114912Y00283500D01*
Y00267088D01*
X00102588D01*
Y00273540D01*
X00103588Y00273739D01*
X00103973Y00272809D01*
X00105309Y00271473D01*
X00107055Y00270750D01*
X00108945D01*
X00110691Y00271473D01*
X00112027Y00272809D01*
X00112750Y00274555D01*
Y00276445D01*
X00112588Y00276835D01*
Y00279500D01*
X00112239Y00281256D01*
X00111244Y00282744D01*
X00105744Y00288244D01*
X00104256Y00289239D01*
X00102500Y00289588D01*
X00096147D01*
X00095934Y00289801D01*
X00094566Y00290591D01*
X00093040Y00291000D01*
X00091460D01*
X00090699Y00290796D01*
X00090181Y00291693D01*
X00098476Y00299987D01*
X00099470Y00301476D01*
X00099819Y00303231D01*
Y00315587D01*
X00099470Y00317343D01*
X00099310Y00317583D01*
Y00345269D01*
X00098999Y00346829D01*
X00098115Y00348153D01*
X00096045Y00350222D01*
X00095989Y00350506D01*
X00095914Y00350618D01*
X00096385Y00351500D01*
X00096895D01*
X00098549Y00352185D01*
X00098576Y00352212D01*
X00099021Y00352060D01*
X00099500Y00351722D01*
Y00350105D01*
X00100185Y00348451D01*
X00101451Y00347185D01*
X00103105Y00346500D01*
X00104895D01*
X00106549Y00347185D01*
X00107815Y00348451D01*
X00108500Y00350105D01*
Y00351895D01*
X00107815Y00353549D01*
X00107490Y00353874D01*
X00106804Y00355315D01*
Y00356812D01*
X00111483Y00361491D01*
X00112090Y00362401D01*
X00112304Y00363474D01*
Y00394682D01*
X00116483Y00398861D01*
X00117090Y00399770D01*
X00117304Y00400843D01*
Y00410657D01*
X00117090Y00411730D01*
X00116483Y00412640D01*
X00108224Y00420898D01*
X00107314Y00421506D01*
X00106241Y00421719D01*
X00096416D01*
X00095343Y00421506D01*
X00094433Y00420898D01*
X00093877Y00420342D01*
X00092081Y00419750D01*
X00091555D01*
X00089809Y00419027D01*
X00088473Y00417691D01*
X00088291Y00417251D01*
X00087209D01*
X00087027Y00417691D01*
X00086655Y00418063D01*
X00085804Y00419751D01*
Y00426339D01*
X00110661Y00451196D01*
X00135796D01*
X00153192Y00433801D01*
D02*
G37*
G36*
X00383036Y00039575D02*
X00380704Y00040750D01*
Y00042250D01*
X00383036Y00043425D01*
Y00039575D01*
D02*
G37*
G36*
X00362472Y00035250D02*
X00359750Y00032527D01*
X00358932Y00035007D01*
X00359993Y00036068D01*
X00362472Y00035250D01*
D02*
G37*
%LPC*%
G36*
X00215699Y00895624D02*
Y00886501D01*
X00221268D01*
Y00888000D01*
X00220993Y00890089D01*
X00220187Y00892035D01*
X00218905Y00893706D01*
X00217234Y00894988D01*
X00215699Y00895624D01*
D02*
G37*
G36*
X00210699D02*
X00209165Y00894988D01*
X00207494Y00893706D01*
X00206211Y00892035D01*
X00205405Y00890089D01*
X00205130Y00888000D01*
Y00886501D01*
X00210699D01*
Y00895624D01*
D02*
G37*
G36*
X00129299Y00895624D02*
Y00886500D01*
X00134868D01*
Y00888000D01*
X00134593Y00890089D01*
X00133787Y00892035D01*
X00132505Y00893706D01*
X00130834Y00894988D01*
X00129299Y00895624D01*
D02*
G37*
G36*
X00124299Y00895624D02*
X00122765Y00894988D01*
X00121094Y00893706D01*
X00119811Y00892035D01*
X00119005Y00890089D01*
X00118730Y00888000D01*
Y00886500D01*
X00124299D01*
Y00895624D01*
D02*
G37*
G36*
Y00881500D02*
X00118730D01*
Y00880000D01*
X00119005Y00877912D01*
X00119811Y00875966D01*
X00121094Y00874295D01*
X00122765Y00873012D01*
X00124299Y00872377D01*
Y00881500D01*
D02*
G37*
G36*
X00221268Y00881501D02*
X00215699D01*
Y00872377D01*
X00217234Y00873012D01*
X00218905Y00874295D01*
X00220187Y00875966D01*
X00220993Y00877912D01*
X00221268Y00880000D01*
Y00881501D01*
D02*
G37*
G36*
X00210699D02*
X00205130D01*
Y00880000D01*
X00205405Y00877912D01*
X00206211Y00875966D01*
X00207494Y00874295D01*
X00209165Y00873012D01*
X00210699Y00872377D01*
Y00881501D01*
D02*
G37*
G36*
X00134868Y00881500D02*
X00129299D01*
Y00872377D01*
X00130834Y00873012D01*
X00132505Y00874295D01*
X00133787Y00875966D01*
X00134593Y00877912D01*
X00134868Y00880000D01*
Y00881500D01*
D02*
G37*
G36*
X00387500Y00887039D02*
X00373500D01*
X00372720Y00886884D01*
X00372058Y00886442D01*
X00371616Y00885780D01*
X00371461Y00885000D01*
Y00869000D01*
X00371616Y00868220D01*
X00372058Y00867558D01*
X00372720Y00867116D01*
X00373500Y00866961D01*
X00387500D01*
X00388280Y00867116D01*
X00388942Y00867558D01*
X00389384Y00868220D01*
X00389539Y00869000D01*
Y00885000D01*
X00389384Y00885780D01*
X00388942Y00886442D01*
X00388280Y00886884D01*
X00387500Y00887039D01*
D02*
G37*
G36*
X00269828Y00876998D02*
X00263250D01*
Y00857792D01*
X00265289Y00858637D01*
X00267169Y00860079D01*
X00268612Y00861959D01*
X00269519Y00864149D01*
X00269828Y00866498D01*
Y00876998D01*
D02*
G37*
G36*
X00258250D02*
X00251673D01*
Y00866498D01*
X00251982Y00864149D01*
X00252889Y00861959D01*
X00254331Y00860079D01*
X00256212Y00858637D01*
X00258250Y00857792D01*
Y00876998D01*
D02*
G37*
G36*
X00368328Y00876997D02*
X00361750D01*
Y00857791D01*
X00363789Y00858635D01*
X00365669Y00860078D01*
X00367112Y00861958D01*
X00368019Y00864147D01*
X00368328Y00866497D01*
Y00876997D01*
D02*
G37*
G36*
X00210699Y00855624D02*
X00209165Y00854988D01*
X00207494Y00853706D01*
X00206330Y00852190D01*
X00205683Y00852060D01*
X00205150Y00852085D01*
X00204427Y00853028D01*
X00202808Y00854270D01*
X00200922Y00855051D01*
X00198899Y00855317D01*
X00196876Y00855051D01*
X00194991Y00854270D01*
X00193372Y00853028D01*
X00192130Y00851409D01*
X00191349Y00849523D01*
X00191082Y00847500D01*
X00191349Y00845477D01*
X00192130Y00843592D01*
X00193372Y00841973D01*
X00194991Y00840731D01*
X00196876Y00839950D01*
X00198899Y00839684D01*
X00200922Y00839950D01*
X00202808Y00840731D01*
X00204130Y00841746D01*
X00205130Y00841344D01*
Y00837000D01*
X00205405Y00834912D01*
X00206211Y00832966D01*
X00207494Y00831295D01*
X00209165Y00830012D01*
X00210699Y00829377D01*
Y00842501D01*
Y00855624D01*
D02*
G37*
G36*
X00297950Y00888337D02*
X00294373Y00887984D01*
X00290933Y00886941D01*
X00287762Y00885246D01*
X00284983Y00882966D01*
X00282703Y00880187D01*
X00281008Y00877016D01*
X00279965Y00873576D01*
X00279612Y00869999D01*
X00279965Y00866421D01*
X00281008Y00862981D01*
X00282703Y00859810D01*
X00284983Y00857031D01*
X00287762Y00854751D01*
X00290933Y00853056D01*
X00294373Y00852013D01*
X00297950Y00851660D01*
X00301528Y00852013D01*
X00304968Y00853056D01*
X00308139Y00854751D01*
X00310918Y00857031D01*
X00313198Y00859810D01*
X00314893Y00862981D01*
X00315936Y00866421D01*
X00316289Y00869999D01*
X00315936Y00873576D01*
X00314893Y00877016D01*
X00313198Y00880187D01*
X00310918Y00882966D01*
X00308139Y00885246D01*
X00304968Y00886941D01*
X00301528Y00887984D01*
X00297950Y00888337D01*
D02*
G37*
G36*
X00215699Y00855624D02*
Y00845001D01*
X00221268D01*
Y00848000D01*
X00220993Y00850089D01*
X00220187Y00852035D01*
X00218905Y00853706D01*
X00217234Y00854988D01*
X00215699Y00855624D01*
D02*
G37*
G36*
X00124299Y00855624D02*
X00122765Y00854988D01*
X00121094Y00853706D01*
X00119811Y00852035D01*
X00119005Y00850089D01*
X00118730Y00848000D01*
Y00845001D01*
X00124299D01*
Y00855624D01*
D02*
G37*
G36*
X00129299Y00855624D02*
Y00842501D01*
Y00829377D01*
X00130834Y00830012D01*
X00132505Y00831295D01*
X00133787Y00832966D01*
X00134593Y00834912D01*
X00134868Y00837000D01*
Y00841344D01*
X00135868Y00841746D01*
X00137191Y00840731D01*
X00139076Y00839950D01*
X00141099Y00839684D01*
X00143122Y00839950D01*
X00145008Y00840731D01*
X00146627Y00841973D01*
X00147869Y00843592D01*
X00148650Y00845477D01*
X00148916Y00847500D01*
X00148650Y00849523D01*
X00147869Y00851409D01*
X00146627Y00853028D01*
X00145008Y00854270D01*
X00143122Y00855051D01*
X00141099Y00855317D01*
X00139076Y00855051D01*
X00137191Y00854270D01*
X00135572Y00853028D01*
X00134849Y00852085D01*
X00134316Y00852060D01*
X00133668Y00852190D01*
X00132505Y00853706D01*
X00130834Y00854988D01*
X00129299Y00855624D01*
D02*
G37*
G36*
X00124299Y00840001D02*
X00118730D01*
Y00837000D01*
X00119005Y00834912D01*
X00119811Y00832966D01*
X00121094Y00831295D01*
X00122765Y00830012D01*
X00124299Y00829377D01*
Y00840001D01*
D02*
G37*
G36*
X00221268Y00840001D02*
X00215699D01*
Y00829377D01*
X00217234Y00830012D01*
X00218905Y00831295D01*
X00220187Y00832966D01*
X00220993Y00834912D01*
X00221268Y00837000D01*
Y00840001D01*
D02*
G37*
G36*
X00424000Y00891354D02*
X00418939Y00890956D01*
X00414003Y00889771D01*
X00409314Y00887828D01*
X00404985Y00885176D01*
X00401125Y00881879D01*
X00397828Y00878019D01*
X00395176Y00873691D01*
X00393234Y00869001D01*
X00392049Y00864065D01*
X00391650Y00859004D01*
X00392049Y00853944D01*
X00393234Y00849008D01*
X00395176Y00844318D01*
X00397828Y00839990D01*
X00401125Y00836130D01*
X00404985Y00832833D01*
X00409314Y00830181D01*
X00414003Y00828238D01*
X00418939Y00827053D01*
X00424000Y00826655D01*
X00429061Y00827053D01*
X00433997Y00828238D01*
X00438686Y00830181D01*
X00443015Y00832833D01*
X00446875Y00836130D01*
X00450171Y00839990D01*
X00452824Y00844318D01*
X00454766Y00849008D01*
X00455951Y00853944D01*
X00456350Y00859004D01*
X00455951Y00864065D01*
X00454766Y00869001D01*
X00452824Y00873691D01*
X00450171Y00878019D01*
X00446875Y00881879D01*
X00443015Y00885176D01*
X00438686Y00887828D01*
X00433997Y00889771D01*
X00429061Y00890956D01*
X00424000Y00891354D01*
D02*
G37*
G36*
X00354939Y00821365D02*
Y00812487D01*
X00358512D01*
Y00814487D01*
X00358220Y00816706D01*
X00357364Y00818774D01*
X00356001Y00820549D01*
X00354939Y00821365D01*
D02*
G37*
G36*
X00344939D02*
X00343877Y00820549D01*
X00342514Y00818774D01*
X00341658Y00816706D01*
X00341366Y00814487D01*
Y00812487D01*
X00344939D01*
Y00821365D01*
D02*
G37*
G36*
X00147499Y00836039D02*
X00146718Y00835884D01*
X00146057Y00835442D01*
X00146057Y00835442D01*
X00139557Y00828942D01*
X00139115Y00828280D01*
X00138959Y00827500D01*
Y00824845D01*
X00135057Y00820942D01*
X00134615Y00820280D01*
X00134459Y00819500D01*
Y00810001D01*
X00134615Y00809221D01*
X00135057Y00808559D01*
X00144558Y00799058D01*
X00145220Y00798616D01*
X00146000Y00798461D01*
X00190499Y00798461D01*
X00191279Y00798616D01*
X00191940Y00799058D01*
X00204440Y00811558D01*
X00204883Y00812220D01*
X00205038Y00813000D01*
Y00819500D01*
X00204883Y00820280D01*
X00204440Y00820942D01*
X00204440Y00820942D01*
X00201038Y00824345D01*
Y00828000D01*
X00201038Y00828000D01*
X00200883Y00828780D01*
X00200441Y00829442D01*
X00194440Y00835442D01*
X00193779Y00835884D01*
X00192999Y00836039D01*
X00147499D01*
X00147499Y00836039D01*
D02*
G37*
G36*
X00358512Y00802487D02*
X00354939D01*
Y00793610D01*
X00356001Y00794425D01*
X00357364Y00796200D01*
X00358220Y00798268D01*
X00358512Y00800487D01*
Y00802487D01*
D02*
G37*
G36*
X00344939D02*
X00341366D01*
Y00800487D01*
X00341658Y00798268D01*
X00342514Y00796200D01*
X00343877Y00794425D01*
X00344939Y00793610D01*
Y00802487D01*
D02*
G37*
G36*
X00297956Y00822073D02*
X00295867Y00821798D01*
X00293921Y00820992D01*
X00292250Y00819710D01*
X00290968Y00818038D01*
X00290162Y00816092D01*
X00289887Y00814004D01*
Y00801004D01*
X00290162Y00798915D01*
X00290968Y00796969D01*
X00292250Y00795298D01*
X00293921Y00794016D01*
X00295867Y00793210D01*
X00297956Y00792935D01*
X00300044Y00793210D01*
X00301990Y00794016D01*
X00303661Y00795298D01*
X00304944Y00796969D01*
X00305750Y00798915D01*
X00306025Y00801004D01*
Y00814004D01*
X00305750Y00816092D01*
X00304944Y00818038D01*
X00303661Y00819710D01*
X00301990Y00820992D01*
X00300044Y00821798D01*
X00297956Y00822073D01*
D02*
G37*
G36*
X00299133Y00787001D02*
X00296769D01*
X00294450Y00786540D01*
X00292267Y00785635D01*
X00290301Y00784322D01*
X00288630Y00782650D01*
X00287316Y00780685D01*
X00286412Y00778501D01*
X00285951Y00776183D01*
Y00773819D01*
X00286412Y00771501D01*
X00287316Y00769317D01*
X00288630Y00767351D01*
X00290301Y00765680D01*
X00292267Y00764367D01*
X00294450Y00763462D01*
X00296769Y00763001D01*
X00299133D01*
X00301451Y00763462D01*
X00303635Y00764367D01*
X00305600Y00765680D01*
X00307272Y00767351D01*
X00308585Y00769317D01*
X00309490Y00771501D01*
X00309951Y00773819D01*
Y00776183D01*
X00309490Y00778501D01*
X00308585Y00780685D01*
X00307272Y00782650D01*
X00305600Y00784322D01*
X00303635Y00785635D01*
X00301451Y00786540D01*
X00299133Y00787001D01*
D02*
G37*
G36*
X00105500Y00836539D02*
X00085000D01*
X00084220Y00836384D01*
X00083558Y00835942D01*
X00083558Y00835942D01*
X00078558Y00830942D01*
X00078116Y00830280D01*
X00077961Y00829500D01*
X00077961Y00821500D01*
X00077961Y00821500D01*
X00078116Y00820720D01*
X00078558Y00820058D01*
X00078558Y00820058D01*
X00082558Y00816058D01*
X00082558Y00816058D01*
X00082888Y00815837D01*
X00083219Y00815616D01*
X00084000Y00815461D01*
X00091155Y00815461D01*
X00129461Y00777155D01*
Y00773500D01*
X00129616Y00772720D01*
X00130058Y00772058D01*
X00143058Y00759058D01*
X00143720Y00758616D01*
X00144500Y00758461D01*
X00186000D01*
X00186000Y00758461D01*
X00186780Y00758616D01*
X00187442Y00759058D01*
X00187442Y00759058D01*
X00190442Y00762058D01*
X00190884Y00762720D01*
X00191039Y00763500D01*
Y00778500D01*
X00190884Y00779280D01*
X00190442Y00779942D01*
X00190442Y00779942D01*
X00182942Y00787442D01*
X00182280Y00787884D01*
X00181500Y00788039D01*
X00147844Y00788039D01*
X00118539Y00817345D01*
X00118539Y00823500D01*
X00118539Y00823500D01*
X00118384Y00824280D01*
X00117942Y00824942D01*
X00106942Y00835942D01*
X00106280Y00836384D01*
X00105500Y00836539D01*
D02*
G37*
G36*
X00234000Y00780320D02*
X00230665Y00780058D01*
X00227413Y00779277D01*
X00224323Y00777997D01*
X00221471Y00776249D01*
X00218927Y00774077D01*
X00216755Y00771533D01*
X00215008Y00768681D01*
X00213728Y00765591D01*
X00212947Y00762339D01*
X00212684Y00759004D01*
X00212947Y00755670D01*
X00213728Y00752417D01*
X00215008Y00749327D01*
X00216755Y00746475D01*
X00218927Y00743932D01*
X00221471Y00741759D01*
X00224323Y00740012D01*
X00227413Y00738732D01*
X00230665Y00737951D01*
X00234000Y00737689D01*
X00237334Y00737951D01*
X00240587Y00738732D01*
X00243677Y00740012D01*
X00246529Y00741759D01*
X00249072Y00743932D01*
X00251245Y00746475D01*
X00252992Y00749327D01*
X00254272Y00752417D01*
X00255053Y00755670D01*
X00255316Y00759004D01*
X00255053Y00762339D01*
X00254272Y00765591D01*
X00252992Y00768681D01*
X00251245Y00771533D01*
X00249072Y00774077D01*
X00246529Y00776249D01*
X00243677Y00777997D01*
X00240587Y00779277D01*
X00237334Y00780058D01*
X00234000Y00780320D01*
D02*
G37*
G36*
X00425945Y00713750D02*
X00424055D01*
X00422309Y00713027D01*
X00421977Y00712694D01*
X00420433Y00712059D01*
X00351000D01*
X00349829Y00711826D01*
X00348837Y00711163D01*
X00348837Y00711163D01*
X00347983Y00710309D01*
X00345817D01*
X00344273Y00710944D01*
X00343941Y00711277D01*
X00342195Y00712000D01*
X00340305D01*
X00338559Y00711277D01*
X00337223Y00709941D01*
X00336500Y00708195D01*
Y00706305D01*
X00337223Y00704559D01*
X00338559Y00703223D01*
X00340305Y00702500D01*
X00342195D01*
X00343941Y00703223D01*
X00344273Y00703556D01*
X00345817Y00704191D01*
X00349250D01*
X00349250Y00704191D01*
X00350420Y00704424D01*
X00351413Y00705087D01*
X00352267Y00705941D01*
X00420433D01*
X00421977Y00705306D01*
X00422309Y00704973D01*
X00424055Y00704250D01*
X00425945D01*
X00427691Y00704973D01*
X00429027Y00706309D01*
X00429750Y00708055D01*
Y00709945D01*
X00429027Y00711691D01*
X00427691Y00713027D01*
X00425945Y00713750D01*
D02*
G37*
G36*
X00130500Y00763819D02*
X00127706Y00763544D01*
X00125020Y00762729D01*
X00122545Y00761406D01*
X00120375Y00759625D01*
X00118594Y00757455D01*
X00117271Y00754980D01*
X00116456Y00752293D01*
X00116181Y00749500D01*
X00116456Y00746706D01*
X00117271Y00744020D01*
X00118594Y00741545D01*
X00120375Y00739375D01*
X00122545Y00737594D01*
X00125020Y00736271D01*
X00127706Y00735456D01*
X00130500Y00735181D01*
X00133294Y00735456D01*
X00135980Y00736271D01*
X00138455Y00737594D01*
X00140625Y00739375D01*
X00141461Y00740393D01*
X00142461Y00740036D01*
X00142461Y00736000D01*
X00142616Y00735220D01*
X00143058Y00734558D01*
X00143058Y00734558D01*
X00170961Y00706655D01*
X00170961Y00688000D01*
X00170961Y00688000D01*
X00171116Y00687219D01*
X00171558Y00686558D01*
X00171558Y00686558D01*
X00179461Y00678656D01*
X00179461Y00586000D01*
X00179461Y00586000D01*
X00179616Y00585220D01*
X00180058Y00584558D01*
X00185058Y00579558D01*
X00185720Y00579116D01*
X00186500Y00578961D01*
X00194500Y00578961D01*
X00195280Y00579116D01*
X00195942Y00579558D01*
X00195942Y00579558D01*
X00200442Y00584058D01*
X00200442Y00584058D01*
X00200884Y00584720D01*
X00201039Y00585500D01*
X00201039Y00679000D01*
X00200884Y00679780D01*
X00200442Y00680442D01*
X00200442Y00680442D01*
X00188539Y00692345D01*
Y00710368D01*
X00188720Y00710567D01*
X00189539Y00711052D01*
X00190000Y00710961D01*
X00261655Y00710961D01*
X00284558Y00688058D01*
X00284558Y00688058D01*
X00285220Y00687616D01*
X00286000Y00687461D01*
X00290003Y00687461D01*
X00290671Y00686461D01*
X00290250Y00685445D01*
Y00685046D01*
X00289590Y00683777D01*
X00284127Y00678314D01*
X00271495D01*
X00270227Y00678061D01*
X00269152Y00677343D01*
X00257719Y00665910D01*
X00256449Y00665250D01*
X00256050D01*
X00254304Y00664527D01*
X00252968Y00663191D01*
X00252245Y00661445D01*
Y00659555D01*
X00252968Y00657809D01*
X00254304Y00656473D01*
X00256050Y00655750D01*
X00257940D01*
X00259686Y00656473D01*
X00261022Y00657809D01*
X00261745Y00659555D01*
Y00659954D01*
X00262405Y00661223D01*
X00272868Y00671686D01*
X00285500D01*
X00286768Y00671939D01*
X00287843Y00672657D01*
X00294277Y00679090D01*
X00295546Y00679750D01*
X00295945D01*
X00297691Y00680473D01*
X00299027Y00681809D01*
X00299750Y00683555D01*
Y00685445D01*
X00299027Y00687191D01*
X00299258Y00688374D01*
X00305442Y00694558D01*
X00305884Y00695220D01*
X00306039Y00696000D01*
Y00702500D01*
X00305884Y00703280D01*
X00305442Y00703942D01*
X00279442Y00729942D01*
X00278780Y00730384D01*
X00278000Y00730539D01*
X00208845Y00730539D01*
X00185942Y00753442D01*
X00185280Y00753884D01*
X00184500Y00754039D01*
X00171500Y00754039D01*
X00170720Y00753884D01*
X00170058Y00753442D01*
X00170058Y00753442D01*
X00167683Y00751067D01*
X00166293Y00751091D01*
X00163942Y00753442D01*
X00163280Y00753884D01*
X00162500Y00754039D01*
X00148500D01*
X00148500Y00754039D01*
X00147720Y00753884D01*
X00147058Y00753442D01*
X00147058Y00753442D01*
X00145493Y00751877D01*
X00144552Y00752214D01*
X00144544Y00752293D01*
X00143729Y00754980D01*
X00142406Y00757455D01*
X00140625Y00759625D01*
X00138455Y00761406D01*
X00135980Y00762729D01*
X00133294Y00763544D01*
X00130500Y00763819D01*
D02*
G37*
G36*
X00414750Y00677453D02*
Y00652000D01*
X00440203D01*
X00439561Y00656057D01*
X00438199Y00660248D01*
X00436198Y00664175D01*
X00433607Y00667741D01*
X00430491Y00670857D01*
X00426925Y00673448D01*
X00422998Y00675449D01*
X00418807Y00676811D01*
X00414750Y00677453D01*
D02*
G37*
G36*
X00409750D02*
X00405693Y00676811D01*
X00401502Y00675449D01*
X00397575Y00673448D01*
X00394009Y00670857D01*
X00390893Y00667741D01*
X00388302Y00664175D01*
X00386301Y00660248D01*
X00384939Y00656057D01*
X00384297Y00652000D01*
X00409750D01*
Y00677453D01*
D02*
G37*
G36*
Y00647000D02*
X00384297D01*
X00384939Y00642943D01*
X00386301Y00638752D01*
X00388302Y00634825D01*
X00390893Y00631259D01*
X00394009Y00628143D01*
X00397575Y00625552D01*
X00401502Y00623551D01*
X00405693Y00622189D01*
X00409750Y00621547D01*
Y00647000D01*
D02*
G37*
G36*
X00440203D02*
X00414750D01*
Y00621547D01*
X00418807Y00622189D01*
X00422998Y00623551D01*
X00426925Y00625552D01*
X00430491Y00628143D01*
X00433607Y00631259D01*
X00436198Y00634825D01*
X00438199Y00638752D01*
X00439561Y00642943D01*
X00440203Y00647000D01*
D02*
G37*
G36*
X00022000Y00276580D02*
X00019585Y00276262D01*
X00017335Y00275330D01*
X00015403Y00273847D01*
X00013920Y00271915D01*
X00012988Y00269665D01*
X00012670Y00267250D01*
X00012988Y00264835D01*
X00013920Y00262585D01*
X00015403Y00260653D01*
X00017335Y00259170D01*
X00019585Y00258238D01*
X00022000Y00257920D01*
X00024415Y00258238D01*
X00026665Y00259170D01*
X00028597Y00260653D01*
X00030080Y00262585D01*
X00031012Y00264835D01*
X00031330Y00267250D01*
X00031012Y00269665D01*
X00030080Y00271915D01*
X00028597Y00273847D01*
X00026665Y00275330D01*
X00024415Y00276262D01*
X00022000Y00276580D01*
D02*
G37*
%LPD*%
G36*
X00198999Y00828000D02*
Y00823500D01*
X00202999Y00819500D01*
Y00813000D01*
X00190499Y00800500D01*
X00146000Y00800500D01*
X00136499Y00810001D01*
Y00819500D01*
X00140999Y00824000D01*
Y00827500D01*
X00147499Y00834000D01*
X00192999D01*
X00198999Y00828000D01*
D02*
G37*
G36*
X00116500Y00823500D02*
X00116500Y00816500D01*
X00147000Y00786000D01*
X00181500Y00786000D01*
X00189000Y00778500D01*
Y00763500D01*
X00186000Y00760500D01*
X00144500D01*
X00131500Y00773500D01*
Y00778000D01*
X00092000Y00817500D01*
X00084000Y00817500D01*
X00080000Y00821500D01*
X00080000Y00829500D01*
X00085000Y00834500D01*
X00105500D01*
X00116500Y00823500D01*
D02*
G37*
G36*
X00423036Y00707075D02*
X00420788Y00708000D01*
Y00710000D01*
X00423036Y00710925D01*
Y00707075D01*
D02*
G37*
G36*
X00345462Y00708250D02*
Y00706250D01*
X00343214Y00705325D01*
Y00709175D01*
X00345462Y00708250D01*
D02*
G37*
G36*
X00184500Y00752000D02*
X00208000Y00728500D01*
X00278000Y00728500D01*
X00304000Y00702500D01*
Y00696000D01*
X00297500Y00689500D01*
X00286000Y00689500D01*
X00262500Y00713000D01*
X00190000Y00713000D01*
X00168000Y00735000D01*
X00168000Y00748500D01*
X00171500Y00752000D01*
X00184500Y00752000D01*
D02*
G37*
G36*
X00294972Y00681750D02*
X00292985Y00680717D01*
X00291217Y00682485D01*
X00292250Y00684473D01*
X00294972Y00681750D01*
D02*
G37*
G36*
X00260778Y00662515D02*
X00259745Y00660527D01*
X00257023Y00663250D01*
X00259010Y00664283D01*
X00260778Y00662515D01*
D02*
G37*
G36*
X00165500Y00749000D02*
Y00735000D01*
X00166075Y00734425D01*
X00166116Y00734220D01*
X00166337Y00733888D01*
X00166558Y00733558D01*
X00166558Y00733558D01*
X00186500Y00713616D01*
Y00691500D01*
X00199000Y00679000D01*
X00199000Y00585500D01*
X00194500Y00581000D01*
X00186500Y00581000D01*
X00181500Y00586000D01*
X00181500Y00679500D01*
X00173000Y00688000D01*
X00173000Y00707500D01*
X00144500Y00736000D01*
X00144500Y00746562D01*
X00144544Y00746706D01*
X00144690Y00748190D01*
X00148500Y00752000D01*
X00162500D01*
X00165500Y00749000D01*
D02*
G37*
%LPC*%
G36*
X00110445Y00154250D02*
X00108555D01*
X00106809Y00153527D01*
X00105473Y00152191D01*
X00104750Y00150445D01*
Y00148555D01*
X00105473Y00146809D01*
X00105806Y00146477D01*
X00106441Y00144933D01*
Y00141567D01*
X00105806Y00140023D01*
X00105473Y00139691D01*
X00104750Y00137945D01*
Y00136055D01*
X00105473Y00134309D01*
X00106809Y00132973D01*
X00108555Y00132250D01*
X00110445D01*
X00112191Y00132973D01*
X00113527Y00134309D01*
X00114250Y00136055D01*
Y00137945D01*
X00113527Y00139691D01*
X00113194Y00140023D01*
X00112559Y00141567D01*
Y00144933D01*
X00113194Y00146477D01*
X00113527Y00146809D01*
X00114250Y00148555D01*
Y00150445D01*
X00113527Y00152191D01*
X00112191Y00153527D01*
X00110445Y00154250D01*
D02*
G37*
G36*
X00059500Y00086488D02*
X00050250D01*
Y00080650D01*
X00064088D01*
Y00081900D01*
X00063739Y00083656D01*
X00062744Y00085144D01*
X00061256Y00086139D01*
X00059500Y00086488D01*
D02*
G37*
G36*
X00047750D02*
X00038500D01*
X00036744Y00086139D01*
X00035256Y00085144D01*
X00034261Y00083656D01*
X00033912Y00081900D01*
Y00080650D01*
X00047750D01*
Y00086488D01*
D02*
G37*
G36*
X00064088Y00078150D02*
X00050250D01*
Y00072312D01*
X00059500D01*
X00061256Y00072661D01*
X00062744Y00073656D01*
X00063739Y00075144D01*
X00064088Y00076900D01*
Y00078150D01*
D02*
G37*
G36*
X00047750D02*
X00033912D01*
Y00076900D01*
X00034261Y00075144D01*
X00035256Y00073656D01*
X00036744Y00072661D01*
X00038500Y00072312D01*
X00047750D01*
Y00078150D01*
D02*
G37*
G36*
X00285270Y00016499D02*
X00279701D01*
Y00007376D01*
X00281235Y00008012D01*
X00282906Y00009294D01*
X00284189Y00010965D01*
X00284995Y00012911D01*
X00285270Y00015000D01*
Y00016499D01*
D02*
G37*
G36*
X00188301Y00016500D02*
X00182732D01*
Y00015000D01*
X00183007Y00012911D01*
X00183813Y00010965D01*
X00185095Y00009294D01*
X00186766Y00008012D01*
X00188301Y00007376D01*
Y00016500D01*
D02*
G37*
G36*
X00198870D02*
X00193301D01*
Y00007376D01*
X00194835Y00008012D01*
X00196506Y00009294D01*
X00197789Y00010965D01*
X00198595Y00012911D01*
X00198870Y00015000D01*
Y00016500D01*
D02*
G37*
G36*
X00274701Y00016499D02*
X00269132D01*
Y00015000D01*
X00269407Y00012911D01*
X00270213Y00010965D01*
X00271495Y00009294D01*
X00273166Y00008012D01*
X00274701Y00007376D01*
Y00016499D01*
D02*
G37*
%LPD*%
G36*
X00110500Y00145288D02*
X00108500D01*
X00107575Y00147536D01*
X00111425D01*
X00110500Y00145288D01*
D02*
G37*
G36*
X00111425Y00138964D02*
X00107575D01*
X00108500Y00141212D01*
X00110500D01*
X00111425Y00138964D01*
D02*
G37*
%LPC*%
G36*
X00355750Y00411221D02*
X00353860D01*
X00352114Y00410497D01*
X00350778Y00409161D01*
X00350055Y00407415D01*
Y00405526D01*
X00350217Y00405135D01*
Y00393871D01*
X00348919Y00392573D01*
X00347827Y00392895D01*
X00347815Y00392951D01*
X00347988Y00393368D01*
X00348239Y00393744D01*
X00348327Y00394188D01*
X00348500Y00394605D01*
Y00395057D01*
X00348588Y00395500D01*
X00348500Y00395943D01*
Y00396395D01*
X00348327Y00396813D01*
X00348239Y00397256D01*
X00347988Y00397632D01*
X00347815Y00398049D01*
X00347496Y00398369D01*
X00347244Y00398744D01*
X00346869Y00398995D01*
X00346549Y00399315D01*
X00346132Y00399488D01*
X00345756Y00399739D01*
X00345313Y00399827D01*
X00344895Y00400000D01*
X00344443D01*
X00344000Y00400088D01*
X00331000D01*
X00330557Y00400000D01*
X00330105D01*
X00329688Y00399827D01*
X00329244Y00399739D01*
X00328869Y00399488D01*
X00328451Y00399315D01*
X00328132Y00398995D01*
X00327756Y00398744D01*
X00327505Y00398369D01*
X00327185Y00398049D01*
X00327012Y00397632D01*
X00326761Y00397256D01*
X00326673Y00396813D01*
X00326500Y00396395D01*
Y00395943D01*
X00326412Y00395500D01*
X00326500Y00395057D01*
Y00394605D01*
X00326673Y00394188D01*
X00326761Y00393744D01*
X00327012Y00393368D01*
X00327185Y00392951D01*
X00327505Y00392631D01*
X00327756Y00392256D01*
X00328132Y00392005D01*
X00328451Y00391685D01*
X00328869Y00391512D01*
X00329244Y00391261D01*
X00329688Y00391173D01*
X00330105Y00391000D01*
X00330557D01*
X00331000Y00390912D01*
X00344000D01*
X00344443Y00391000D01*
X00344895D01*
X00345313Y00391173D01*
X00345756Y00391261D01*
X00346132Y00391512D01*
X00346549Y00391685D01*
X00346605Y00391673D01*
X00346927Y00390581D01*
X00346129Y00389783D01*
X00345134Y00388294D01*
X00344785Y00386538D01*
Y00369903D01*
X00345134Y00368147D01*
X00345285Y00367921D01*
X00345105Y00367495D01*
X00344698Y00367000D01*
X00344443D01*
X00344000Y00367088D01*
X00331000D01*
X00330557Y00367000D01*
X00330105D01*
X00329688Y00366827D01*
X00329244Y00366739D01*
X00328869Y00366488D01*
X00328451Y00366315D01*
X00328132Y00365995D01*
X00327756Y00365744D01*
X00327505Y00365369D01*
X00327185Y00365049D01*
X00327012Y00364632D01*
X00326761Y00364256D01*
X00326673Y00363813D01*
X00326500Y00363395D01*
Y00362943D01*
X00326412Y00362500D01*
X00326500Y00362057D01*
Y00361605D01*
X00326673Y00361188D01*
X00326761Y00360744D01*
X00327012Y00360368D01*
X00327185Y00359951D01*
X00327505Y00359632D01*
X00327756Y00359256D01*
X00328132Y00359005D01*
X00328451Y00358685D01*
X00328869Y00358512D01*
X00329244Y00358261D01*
X00329688Y00358173D01*
X00330105Y00358000D01*
X00330557D01*
X00331000Y00357912D01*
X00344000D01*
X00344443Y00358000D01*
X00344895D01*
X00345313Y00358173D01*
X00345756Y00358261D01*
X00346132Y00358512D01*
X00346549Y00358685D01*
X00346869Y00359005D01*
X00347244Y00359256D01*
X00347496Y00359632D01*
X00347815Y00359951D01*
X00347988Y00360368D01*
X00348239Y00360744D01*
X00348327Y00361188D01*
X00348500Y00361605D01*
Y00362057D01*
X00348588Y00362500D01*
X00348518Y00362855D01*
X00348620Y00362985D01*
X00349500Y00363287D01*
X00357387Y00355400D01*
Y00329627D01*
X00357226Y00329236D01*
Y00327347D01*
X00357949Y00325601D01*
X00359285Y00324265D01*
X00361031Y00323541D01*
X00362920D01*
X00364666Y00324265D01*
X00366002Y00325601D01*
X00366726Y00327347D01*
Y00329236D01*
X00366564Y00329627D01*
Y00357300D01*
X00366214Y00359056D01*
X00365220Y00360544D01*
X00353961Y00371803D01*
Y00384638D01*
X00358050Y00388726D01*
X00359044Y00390215D01*
X00359393Y00391970D01*
Y00405135D01*
X00359555Y00405526D01*
Y00407415D01*
X00358832Y00409161D01*
X00357496Y00410497D01*
X00355750Y00411221D01*
D02*
G37*
G36*
X00328250Y00327720D02*
X00326360D01*
X00324614Y00326997D01*
X00324332Y00326715D01*
X00322968Y00326284D01*
X00305725D01*
X00304457Y00326032D01*
X00303382Y00325314D01*
X00291157Y00313088D01*
X00290439Y00312013D01*
X00290186Y00310745D01*
Y00297837D01*
X00289755Y00296473D01*
X00289473Y00296191D01*
X00288750Y00294445D01*
Y00292555D01*
X00289473Y00290809D01*
X00290809Y00289473D01*
X00292555Y00288750D01*
X00294445D01*
X00296191Y00289473D01*
X00297527Y00290809D01*
X00298250Y00292555D01*
Y00294445D01*
X00297527Y00296191D01*
X00297245Y00296473D01*
X00296814Y00297837D01*
Y00309373D01*
X00307098Y00319657D01*
X00322968D01*
X00324332Y00319226D01*
X00324614Y00318944D01*
X00326360Y00318221D01*
X00328250D01*
X00329996Y00318944D01*
X00331332Y00320280D01*
X00332055Y00322026D01*
Y00323915D01*
X00331332Y00325661D01*
X00329996Y00326997D01*
X00328250Y00327720D01*
D02*
G37*
G36*
X00365945Y00305750D02*
X00364055D01*
X00362309Y00305027D01*
X00361937Y00304655D01*
X00360249Y00303804D01*
X00339486D01*
X00338413Y00303590D01*
X00337504Y00302983D01*
X00328017Y00293496D01*
X00327410Y00292587D01*
X00327196Y00291514D01*
Y00256751D01*
X00326345Y00255063D01*
X00325973Y00254691D01*
X00325250Y00252945D01*
Y00251055D01*
X00325973Y00249309D01*
X00327309Y00247973D01*
X00329055Y00247250D01*
X00330945D01*
X00332691Y00247973D01*
X00334027Y00249309D01*
X00334750Y00251055D01*
Y00252945D01*
X00334027Y00254691D01*
X00333655Y00255063D01*
X00332804Y00256751D01*
Y00290352D01*
X00340648Y00298196D01*
X00360249D01*
X00361937Y00297345D01*
X00362309Y00296973D01*
X00364055Y00296250D01*
X00365945D01*
X00367691Y00296973D01*
X00369027Y00298309D01*
X00369750Y00300055D01*
Y00301945D01*
X00369027Y00303691D01*
X00367691Y00305027D01*
X00365945Y00305750D01*
D02*
G37*
%LPD*%
G36*
X00325341Y00321045D02*
X00323206Y00321721D01*
Y00324221D01*
X00325341Y00324896D01*
Y00321045D01*
D02*
G37*
G36*
X00295425Y00295464D02*
X00291575D01*
X00292250Y00297600D01*
X00294750D01*
X00295425Y00295464D01*
D02*
G37*
G36*
X00363036Y00299075D02*
X00360704Y00300250D01*
Y00301750D01*
X00363036Y00302925D01*
Y00299075D01*
D02*
G37*
G36*
X00331925Y00253964D02*
X00328075D01*
X00329250Y00256296D01*
X00330750D01*
X00331925Y00253964D01*
D02*
G37*
%LPC*%
G36*
X00447750Y00086488D02*
X00438500D01*
X00436744Y00086139D01*
X00435256Y00085144D01*
X00434261Y00083656D01*
X00433912Y00081900D01*
Y00080650D01*
X00447750D01*
Y00086488D01*
D02*
G37*
G36*
Y00078150D02*
X00433912D01*
Y00076900D01*
X00434261Y00075144D01*
X00435256Y00073656D01*
X00436744Y00072661D01*
X00438500Y00072312D01*
X00447750D01*
Y00078150D01*
D02*
G37*
G36*
X00316445Y00118750D02*
X00314555D01*
X00312809Y00118027D01*
X00311473Y00116691D01*
X00310750Y00114945D01*
Y00113055D01*
X00311473Y00111309D01*
X00311845Y00110937D01*
X00312696Y00109249D01*
Y00102251D01*
X00311845Y00100563D01*
X00311473Y00100191D01*
X00310750Y00098445D01*
Y00096555D01*
X00311473Y00094809D01*
X00312809Y00093473D01*
X00314555Y00092750D01*
X00316445D01*
X00318191Y00093473D01*
X00319527Y00094809D01*
X00320250Y00096555D01*
Y00098445D01*
X00319527Y00100191D01*
X00319155Y00100563D01*
X00318304Y00102251D01*
Y00109249D01*
X00319155Y00110937D01*
X00319527Y00111309D01*
X00320250Y00113055D01*
Y00114945D01*
X00319527Y00116691D01*
X00318191Y00118027D01*
X00316445Y00118750D01*
D02*
G37*
%LPD*%
G36*
X00316250Y00109704D02*
X00314750D01*
X00313575Y00112036D01*
X00317425D01*
X00316250Y00109704D01*
D02*
G37*
G36*
X00317425Y00099464D02*
X00313575D01*
X00314750Y00101796D01*
X00316250D01*
X00317425Y00099464D01*
D02*
G37*
%LPC*%
G36*
X00137945Y00438750D02*
X00136055D01*
X00134309Y00438027D01*
X00132973Y00436691D01*
X00132250Y00434945D01*
Y00433055D01*
X00132973Y00431309D01*
X00133345Y00430937D01*
X00134196Y00429249D01*
Y00427441D01*
X00133272Y00427059D01*
X00132083Y00428247D01*
X00131174Y00428855D01*
X00130101Y00429069D01*
X00120739D01*
X00120115Y00429866D01*
X00120655Y00430937D01*
X00121027Y00431309D01*
X00121750Y00433055D01*
Y00434945D01*
X00121027Y00436691D01*
X00119691Y00438027D01*
X00117945Y00438750D01*
X00116055D01*
X00114309Y00438027D01*
X00112973Y00436691D01*
X00112250Y00434945D01*
Y00433055D01*
X00112973Y00431309D01*
X00113345Y00430937D01*
X00114196Y00429249D01*
Y00428708D01*
X00114410Y00427635D01*
X00115017Y00426726D01*
X00117461Y00424282D01*
X00118370Y00423674D01*
X00119443Y00423461D01*
X00128939D01*
X00130696Y00421704D01*
Y00410076D01*
X00129772Y00409693D01*
X00111342Y00428123D01*
X00110750Y00429919D01*
Y00430445D01*
X00110027Y00432191D01*
X00108691Y00433527D01*
X00106945Y00434250D01*
X00105055D01*
X00103309Y00433527D01*
X00101973Y00432191D01*
X00101250Y00430445D01*
Y00428555D01*
X00101973Y00426809D01*
X00103309Y00425473D01*
X00105055Y00424750D01*
X00105581D01*
X00107377Y00424158D01*
X00126757Y00404778D01*
Y00386053D01*
X00114517Y00373814D01*
X00113910Y00372904D01*
X00113696Y00371831D01*
Y00356751D01*
X00112845Y00355063D01*
X00112473Y00354691D01*
X00111750Y00352945D01*
Y00351055D01*
X00112473Y00349309D01*
X00113809Y00347973D01*
X00115555Y00347250D01*
X00117445D01*
X00118553Y00347709D01*
X00119553Y00347041D01*
Y00320395D01*
X00118702Y00318706D01*
X00118330Y00318334D01*
X00117607Y00316588D01*
Y00314698D01*
X00118330Y00312953D01*
X00119666Y00311616D01*
X00121412Y00310893D01*
X00121772D01*
X00122194Y00309893D01*
X00122055Y00309750D01*
X00120309Y00309027D01*
X00118973Y00307691D01*
X00118250Y00305945D01*
Y00304055D01*
X00118973Y00302309D01*
X00120309Y00300973D01*
X00122055Y00300250D01*
X00123945D01*
X00125691Y00300973D01*
X00127027Y00302309D01*
X00127750Y00304055D01*
Y00304581D01*
X00128342Y00306377D01*
X00130983Y00309017D01*
X00131590Y00309927D01*
X00131804Y00311000D01*
Y00319407D01*
X00131590Y00320480D01*
X00130983Y00321389D01*
X00129231Y00323141D01*
Y00369944D01*
X00138983Y00379696D01*
X00139590Y00380605D01*
X00139804Y00381678D01*
Y00429249D01*
X00140655Y00430937D01*
X00141027Y00431309D01*
X00141750Y00433055D01*
Y00434945D01*
X00141027Y00436691D01*
X00139691Y00438027D01*
X00137945Y00438750D01*
D02*
G37*
G36*
X00276945Y00182750D02*
X00275055D01*
X00273309Y00182027D01*
X00273091Y00181808D01*
X00271968Y00181569D01*
X00224000D01*
X00222634Y00181297D01*
X00221477Y00180523D01*
X00216328Y00175375D01*
X00215364Y00174750D01*
X00215055D01*
X00213309Y00174027D01*
X00211973Y00172691D01*
X00211250Y00170945D01*
Y00169055D01*
X00211973Y00167309D01*
X00213309Y00165973D01*
X00215055Y00165250D01*
X00216945D01*
X00218691Y00165973D01*
X00220027Y00167309D01*
X00220750Y00169055D01*
Y00169364D01*
X00221375Y00170328D01*
X00225478Y00174431D01*
X00271968D01*
X00273091Y00174192D01*
X00273309Y00173973D01*
X00275055Y00173250D01*
X00276945D01*
X00278691Y00173973D01*
X00280027Y00175309D01*
X00280750Y00177055D01*
Y00178945D01*
X00280027Y00180691D01*
X00278691Y00182027D01*
X00276945Y00182750D01*
D02*
G37*
G36*
X00197745Y00176004D02*
X00196254Y00175808D01*
X00194865Y00175232D01*
X00193672Y00174317D01*
X00192757Y00173124D01*
X00192255Y00171912D01*
X00192215Y00171886D01*
X00192092Y00171702D01*
X00191919Y00171564D01*
X00191543Y00170880D01*
X00191110Y00170232D01*
X00191067Y00170015D01*
X00191009Y00169910D01*
X00190903Y00169852D01*
X00190687Y00169809D01*
X00190038Y00169375D01*
X00189355Y00168999D01*
X00189216Y00168826D01*
X00189033Y00168703D01*
X00189006Y00168663D01*
X00187794Y00168161D01*
X00186601Y00167246D01*
X00185686Y00166053D01*
X00185111Y00164664D01*
X00184914Y00163174D01*
X00185111Y00161683D01*
X00185686Y00160294D01*
X00186601Y00159101D01*
X00187794Y00158186D01*
X00189006Y00157684D01*
X00189033Y00157644D01*
X00189216Y00157521D01*
X00189355Y00157348D01*
X00190038Y00156972D01*
X00190687Y00156539D01*
X00190903Y00156496D01*
X00191097Y00156389D01*
X00191872Y00156303D01*
X00192638Y00156151D01*
X00192854Y00156194D01*
X00193074Y00156169D01*
X00193823Y00156387D01*
X00194226Y00156467D01*
X00219208Y00131484D01*
X00220401Y00130569D01*
X00221790Y00129993D01*
X00223281Y00129797D01*
X00226086D01*
X00231701Y00124183D01*
X00231640Y00123168D01*
X00231428Y00123026D01*
X00230745Y00122650D01*
X00230606Y00122478D01*
X00230423Y00122355D01*
X00229989Y00121706D01*
X00229502Y00121097D01*
X00229440Y00120885D01*
X00229318Y00120701D01*
X00229165Y00119936D01*
X00228948Y00119186D01*
X00228973Y00118967D01*
X00228930Y00118750D01*
X00228939Y00118702D01*
X00228437Y00117491D01*
X00228241Y00116000D01*
X00228437Y00114509D01*
X00229012Y00113120D01*
X00229928Y00111928D01*
X00231120Y00111012D01*
X00232509Y00110437D01*
X00234000Y00110241D01*
X00235491Y00110437D01*
X00236702Y00110939D01*
X00236750Y00110929D01*
X00236967Y00110973D01*
X00237186Y00110948D01*
X00237936Y00111165D01*
X00238701Y00111318D01*
X00238885Y00111440D01*
X00239000Y00111474D01*
X00239115Y00111440D01*
X00239299Y00111318D01*
X00240064Y00111165D01*
X00240814Y00110948D01*
X00241033Y00110973D01*
X00241250Y00110929D01*
X00241298Y00110939D01*
X00242509Y00110437D01*
X00244000Y00110241D01*
X00245491Y00110437D01*
X00246880Y00111012D01*
X00248072Y00111928D01*
X00248988Y00113120D01*
X00249563Y00114509D01*
X00249759Y00116000D01*
X00249563Y00117491D01*
X00249061Y00118702D01*
X00249070Y00118750D01*
X00249027Y00118967D01*
X00249052Y00119186D01*
X00248835Y00119936D01*
X00248682Y00120701D01*
X00248559Y00120885D01*
X00248498Y00121097D01*
X00248011Y00121706D01*
X00247577Y00122355D01*
X00247393Y00122478D01*
X00247255Y00122650D01*
X00246572Y00123026D01*
X00246231Y00123254D01*
Y00127719D01*
X00246035Y00129210D01*
X00245459Y00130599D01*
X00244544Y00131792D01*
X00233764Y00142572D01*
X00232571Y00143488D01*
X00231182Y00144063D01*
X00229691Y00144259D01*
X00226886D01*
X00204452Y00166693D01*
X00204532Y00167095D01*
X00204749Y00167844D01*
X00204725Y00168064D01*
X00204768Y00168281D01*
X00204615Y00169046D01*
X00204529Y00169821D01*
X00204423Y00170015D01*
X00204380Y00170232D01*
X00203946Y00170880D01*
X00203570Y00171564D01*
X00203397Y00171702D01*
X00203274Y00171886D01*
X00203234Y00171912D01*
X00202732Y00173124D01*
X00201817Y00174317D01*
X00200624Y00175232D01*
X00199235Y00175808D01*
X00197745Y00176004D01*
D02*
G37*
G36*
X00207000Y00104539D02*
X00206220Y00104384D01*
X00205558Y00103942D01*
X00205558Y00103942D01*
X00199058Y00097442D01*
X00198616Y00096780D01*
X00198461Y00096000D01*
Y00083500D01*
X00198616Y00082720D01*
X00199058Y00082058D01*
X00202961Y00078155D01*
Y00075500D01*
X00202961Y00075500D01*
X00203116Y00074720D01*
X00203558Y00074058D01*
X00203558Y00074058D01*
X00210058Y00067558D01*
X00210720Y00067116D01*
X00211500Y00066961D01*
X00257000D01*
X00257000Y00066961D01*
X00257780Y00067116D01*
X00258442Y00067558D01*
X00264442Y00073558D01*
X00264884Y00074220D01*
X00265039Y00075000D01*
Y00078655D01*
X00268442Y00082058D01*
X00268884Y00082720D01*
X00269039Y00083500D01*
Y00090000D01*
X00268884Y00090780D01*
X00268442Y00091442D01*
X00268442Y00091442D01*
X00255942Y00103942D01*
X00255280Y00104384D01*
X00254500Y00104539D01*
X00207000Y00104539D01*
D02*
G37*
G36*
X00188301Y00073623D02*
X00186766Y00072988D01*
X00185095Y00071705D01*
X00183813Y00070034D01*
X00183007Y00068088D01*
X00182732Y00066000D01*
Y00063000D01*
X00188301D01*
Y00073623D01*
D02*
G37*
G36*
X00279701D02*
Y00062999D01*
X00285270D01*
Y00066000D01*
X00284995Y00068088D01*
X00284189Y00070034D01*
X00282906Y00071705D01*
X00281235Y00072988D01*
X00279701Y00073623D01*
D02*
G37*
%LPD*%
G36*
X00137750Y00429704D02*
X00136250D01*
X00135075Y00432036D01*
X00138925D01*
X00137750Y00429704D01*
D02*
G37*
G36*
X00117750Y00429704D02*
X00116250D01*
X00115075Y00432036D01*
X00118925D01*
X00117750Y00429704D01*
D02*
G37*
G36*
X00109568Y00426993D02*
X00108507Y00425932D01*
X00106027Y00426750D01*
X00108750Y00429473D01*
X00109568Y00426993D01*
D02*
G37*
G36*
X00118425Y00353964D02*
X00114575D01*
X00115750Y00356296D01*
X00117250D01*
X00118425Y00353964D01*
D02*
G37*
G36*
X00124282Y00317607D02*
X00120432D01*
X00121607Y00319939D01*
X00123107D01*
X00124282Y00317607D01*
D02*
G37*
G36*
X00126568Y00307507D02*
X00125750Y00305028D01*
X00123027Y00307750D01*
X00125507Y00308568D01*
X00126568Y00307507D01*
D02*
G37*
G36*
X00274036Y00176075D02*
X00272045Y00176500D01*
Y00179500D01*
X00274036Y00179925D01*
Y00176075D01*
D02*
G37*
G36*
X00219857Y00171736D02*
X00218750Y00170028D01*
X00216028Y00172750D01*
X00217736Y00173857D01*
X00219857Y00171736D01*
D02*
G37*
G36*
X00198455Y00165938D02*
X00197035D01*
X00195820Y00168281D01*
X00199670D01*
X00198455Y00165938D01*
D02*
G37*
G36*
X00194980Y00163884D02*
Y00162464D01*
X00192638Y00161249D01*
Y00165099D01*
X00194980Y00163884D01*
D02*
G37*
G36*
X00243972Y00118750D02*
X00241250Y00116027D01*
X00240453Y00118543D01*
X00241457Y00119547D01*
X00243972Y00118750D01*
D02*
G37*
G36*
X00237547Y00118543D02*
X00236750Y00116027D01*
X00234028Y00118750D01*
X00236543Y00119547D01*
X00237547Y00118543D01*
D02*
G37*
G36*
X00254500Y00102500D02*
X00267000Y00090000D01*
Y00083500D01*
X00263000Y00079500D01*
Y00075000D01*
X00257000Y00069000D01*
X00211500D01*
X00205000Y00075500D01*
Y00079000D01*
X00200500Y00083500D01*
Y00096000D01*
X00207000Y00102500D01*
X00254500Y00102500D01*
D02*
G37*
D10*
X00163000Y00116000D02*
X00168500Y00110500D01*
X00163000Y00116000D02*
Y00131200D01*
X00143500Y00150700D02*
X00163000Y00131200D01*
X00143500Y00150700D02*
Y00171500D01*
X00102500Y00196000D02*
X00119000D01*
X00143500Y00171500D01*
X00109500Y00137000D02*
Y00149500D01*
X00011000Y00142500D02*
X00037500D01*
X00357678Y00665678D02*
X00382000Y00690000D01*
X00337145Y00665678D02*
X00357678D01*
X00382000Y00690000D02*
X00382500D01*
X00328500Y00657033D02*
X00337145Y00665678D01*
X00328500Y00645000D02*
Y00657033D01*
Y00645000D02*
X00333500Y00640000D01*
X00341250Y00707250D02*
X00349250D01*
X00351000Y00709000D01*
X00425000D01*
X00419000Y00130200D02*
Y00141000D01*
X00326000Y00552586D02*
X00329213Y00555799D01*
Y00562463D01*
X00326000Y00502521D02*
Y00552586D01*
X00329213Y00562463D02*
X00340500Y00573750D01*
X00321500Y00500050D02*
Y00555148D01*
X00324391Y00558039D01*
Y00561891D01*
X00322500Y00563782D02*
Y00573750D01*
Y00563782D02*
X00324391Y00561891D01*
X00339909Y00484591D02*
X00353500Y00471000D01*
X00321500Y00500050D02*
X00336959Y00484591D01*
X00339909D01*
X00349866Y00464335D02*
X00356335D01*
X00317000Y00497201D02*
Y00559500D01*
Y00497201D02*
X00349866Y00464335D01*
X00348727Y00489227D02*
X00353500Y00494000D01*
X00326000Y00502521D02*
X00339294Y00489227D01*
X00348727D01*
X00344000Y00499500D02*
Y00510500D01*
X00419400Y00104800D02*
Y00114500D01*
X00356335Y00464335D02*
X00363000Y00471000D01*
X00344000Y00510500D02*
X00348000Y00514500D01*
Y00522500D01*
D11*
X00051500Y00281500D02*
X00063285D01*
X00050015D02*
X00051500D01*
X00071218Y00296218D02*
X00079500Y00304500D01*
X00071218Y00289434D02*
Y00296218D01*
X00063285Y00281500D02*
X00071218Y00289434D01*
X00256995Y00660500D02*
X00271495Y00675000D01*
X00285500D02*
X00295000Y00684500D01*
X00271495Y00675000D02*
X00285500D01*
X00305725Y00322971D02*
X00327305D01*
X00293500Y00310745D02*
X00305725Y00322971D01*
X00293500Y00293500D02*
Y00310745D01*
D13*
X00089270Y00199290D02*
X00105807Y00215826D01*
X00074668Y00155600D02*
X00085711Y00166644D01*
X00075500Y00141402D02*
X00093094Y00158996D01*
X00089270Y00162672D02*
Y00199290D01*
X00085711Y00166644D02*
Y00201653D01*
X00071000Y00144402D02*
X00089270Y00162672D01*
X00093094Y00197525D02*
X00108068Y00212500D01*
X00085711Y00201653D02*
X00103352Y00219293D01*
X00093094Y00158996D02*
Y00197525D01*
X00195582Y00343037D02*
Y00360418D01*
X00155996Y00400004D02*
X00195582Y00360418D01*
Y00343037D02*
X00257500Y00281119D01*
X00203657Y00346172D02*
X00265426Y00284403D01*
X00199657Y00344719D02*
X00261570Y00282805D01*
X00196500Y00380191D02*
X00203657Y00373035D01*
Y00346172D02*
Y00373035D01*
X00190500Y00380700D02*
X00199657Y00371544D01*
Y00344719D02*
Y00371544D01*
X00175500Y00053500D02*
X00185500Y00043500D01*
X00175500Y00053500D02*
Y00069500D01*
X00160176Y00056467D02*
Y00082191D01*
X00156676Y00055017D02*
Y00083641D01*
X00179933Y00106898D01*
X00183433Y00105448D02*
Y00141199D01*
X00160176Y00082191D02*
X00183433Y00105448D01*
X00179933Y00106898D02*
Y00139749D01*
X00185500Y00043500D02*
X00286500D01*
X00290500Y00047500D01*
Y00054000D01*
X00156676Y00055017D02*
X00179878Y00031815D01*
X00323315D01*
X00321495Y00035437D02*
X00327557Y00041500D01*
X00181206Y00035437D02*
X00321495D01*
X00160176Y00056467D02*
X00181206Y00035437D01*
X00323315Y00031815D02*
X00329437Y00037937D01*
X00332000Y00085000D02*
X00338071Y00091071D01*
X00356395Y00092813D02*
Y00100226D01*
X00348582Y00085000D02*
X00356395Y00092813D01*
X00341000Y00085000D02*
X00348582D01*
X00348571Y00091071D02*
X00352000Y00094500D01*
X00338071Y00091071D02*
X00348571D01*
X00352000Y00094500D02*
Y00102000D01*
X00354500Y00104500D01*
Y00115035D01*
X00357712Y00118247D01*
X00367247D02*
X00373000Y00124000D01*
X00357712Y00118247D02*
X00367247D01*
X00373000Y00124000D02*
Y00133000D01*
X00360500Y00112500D02*
X00367952D01*
X00379232Y00123779D02*
Y00159218D01*
X00367952Y00112500D02*
X00379232Y00123779D01*
X00108068Y00212500D02*
X00134500D01*
X00103352Y00219293D02*
X00118686D01*
X00105807Y00215826D02*
X00132047D01*
X00158870Y00155630D02*
Y00191370D01*
Y00155630D02*
X00173500Y00141000D01*
X00158870Y00191370D02*
X00192000Y00224500D01*
X00173500Y00136000D02*
Y00141000D01*
X00166000Y00158632D02*
Y00187227D01*
X00162500Y00157182D02*
X00179933Y00139749D01*
X00166000Y00158632D02*
X00183433Y00141199D01*
X00162500Y00157182D02*
Y00188677D01*
X00073719Y00463258D02*
Y00538667D01*
X00070500Y00464591D02*
Y00540000D01*
X00081718Y00541717D02*
Y00571182D01*
X00077000Y00462052D02*
Y00537000D01*
X00081718Y00541717D01*
X00078219Y00543167D02*
Y00569733D01*
X00073719Y00538667D02*
X00078219Y00543167D01*
X00070500Y00540000D02*
X00075000Y00544500D01*
Y00568400D01*
X00106364Y00511027D02*
Y00562299D01*
X00083362Y00459346D02*
Y00493170D01*
X00102726Y00512534D02*
Y00560793D01*
X00080000Y00460448D02*
Y00494563D01*
X00087000Y00491663D02*
X00106364Y00511027D01*
X00083362Y00493170D02*
X00102726Y00512534D01*
X00099364Y00513927D02*
Y00559400D01*
X00080000Y00494563D02*
X00099364Y00513927D01*
X00087000Y00458270D02*
Y00491663D01*
X00077952Y00574948D02*
X00081718Y00571182D01*
X00074845Y00573107D02*
X00078219Y00569733D01*
X00071490Y00571910D02*
X00075000Y00568400D01*
X00088418Y00634918D02*
X00096865D01*
X00087469Y00629224D02*
X00102485D01*
X00086111Y00623472D02*
X00096975D01*
X00077952Y00615313D02*
X00086111Y00623472D01*
X00074845Y00616600D02*
X00087469Y00629224D01*
X00071490Y00617990D02*
X00088418Y00634918D01*
X00071490Y00571910D02*
Y00617990D01*
X00074845Y00573107D02*
Y00616600D01*
X00077952Y00574948D02*
Y00615313D01*
X00081121Y00612121D02*
X00087037Y00618037D01*
X00081121Y00577643D02*
Y00612121D01*
Y00577643D02*
X00099364Y00559400D01*
X00084258Y00579260D02*
X00102726Y00560793D01*
X00084258Y00608758D02*
X00087971Y00612471D01*
X00084258Y00579260D02*
Y00608758D01*
X00087614Y00581050D02*
X00106364Y00562299D01*
X00087614Y00602114D02*
X00092314Y00606814D01*
X00087614Y00581050D02*
Y00602114D01*
X00090907Y00595221D02*
X00096843Y00601157D01*
X00090907Y00582898D02*
X00110000Y00563805D01*
X00090907Y00582898D02*
Y00595221D01*
X00087037Y00618037D02*
X00102632D01*
X00087971Y00612471D02*
X00096843D01*
X00092314Y00606814D02*
X00102500D01*
X00096843Y00581962D02*
Y00589843D01*
Y00581962D02*
X00113535Y00565270D01*
Y00523965D02*
Y00565270D01*
X00102500Y00581305D02*
X00117071Y00566734D01*
X00102500Y00581305D02*
Y00595500D01*
X00110000Y00522500D02*
Y00563805D01*
X00117071Y00525429D02*
Y00566734D01*
Y00525429D02*
X00162000Y00480500D01*
X00165000D01*
X00168500Y00477000D01*
X00110000Y00522500D02*
X00155500Y00477000D01*
Y00474000D02*
Y00477000D01*
Y00474000D02*
X00160500Y00469000D01*
X00113535Y00523965D02*
X00168500Y00469000D01*
X00109500Y00454000D02*
X00136958D01*
X00155996Y00400004D02*
Y00434962D01*
X00136958Y00454000D02*
X00155996Y00434962D01*
X00042839Y00386942D02*
Y00432378D01*
X00073719Y00463258D01*
X00039620Y00388120D02*
Y00433712D01*
X00070500Y00464591D01*
X00046139Y00431191D02*
X00077000Y00462052D01*
X00046139Y00384908D02*
Y00431191D01*
X00049405Y00383635D02*
Y00429854D01*
X00080000Y00460448D01*
X00052703Y00428687D02*
X00083362Y00459346D01*
X00052703Y00382421D02*
Y00428687D01*
X00056053Y00427323D02*
X00087000Y00458270D01*
X00056053Y00381204D02*
Y00427323D01*
X00034462Y00378565D02*
X00042839Y00386942D01*
X00031353Y00379853D02*
X00039620Y00388120D01*
X00031353Y00347295D02*
Y00379853D01*
Y00347295D02*
X00040000Y00338648D01*
Y00331550D02*
Y00338648D01*
X00034462Y00348553D02*
X00043500Y00339516D01*
X00034462Y00348553D02*
Y00378565D01*
X00043500Y00333000D02*
Y00339516D01*
X00037707Y00349755D02*
X00046962Y00340500D01*
X00061500D01*
X00037707Y00349755D02*
Y00376475D01*
X00040765Y00351185D02*
X00047950Y00344000D01*
X00063500D01*
X00040765Y00351185D02*
Y00374994D01*
X00037707Y00376475D02*
X00046139Y00384908D01*
X00040765Y00374994D02*
X00049405Y00383635D01*
X00043909Y00373627D02*
X00052703Y00382421D01*
X00043909Y00352500D02*
Y00373627D01*
Y00352500D02*
X00049047Y00347362D01*
X00047002Y00353998D02*
X00050001Y00351000D01*
X00047002Y00372153D02*
X00056053Y00381204D01*
X00047002Y00353998D02*
Y00372153D01*
X00052500Y00364000D02*
Y00373057D01*
X00049047Y00347362D02*
X00065912D01*
X00050001Y00351000D02*
X00067701D01*
X00058364Y00370157D02*
Y00374242D01*
X00062655Y00378533D01*
Y00424400D01*
X00052500Y00373057D02*
X00059376Y00379934D01*
Y00426122D02*
X00102255Y00469000D01*
X00062655Y00424400D02*
X00104255Y00466000D01*
X00059376Y00379934D02*
Y00426122D01*
X00083000Y00427500D02*
X00109500Y00454000D01*
X00083000Y00415000D02*
Y00427500D01*
X00040000Y00331550D02*
X00047050Y00324500D01*
X00043500Y00333000D02*
X00048500Y00328000D01*
X00047050Y00324500D02*
X00060500D01*
X00073500Y00311500D01*
X00084000D01*
X00087000Y00308500D01*
X00048500Y00328000D02*
X00062000D01*
X00073000Y00317000D01*
X00079000D01*
X00072500Y00326432D02*
Y00329500D01*
Y00326432D02*
X00074432Y00324500D01*
X00079000D01*
X00061500Y00340500D02*
X00072500Y00329500D01*
X00076068Y00334933D02*
X00079000Y00332000D01*
X00063500Y00344000D02*
X00072568Y00334933D01*
X00076068D01*
X00071701Y00347000D02*
X00079000D01*
X00067701Y00351000D02*
X00071701Y00347000D01*
X00073774Y00339500D02*
X00079000D01*
X00065912Y00347362D02*
X00073774Y00339500D01*
X00102255Y00469000D02*
X00105000D01*
X00104255Y00466000D02*
X00107430D01*
X00092500Y00415000D02*
X00096416Y00418915D01*
X00106241D02*
X00114500Y00410657D01*
X00096416Y00418915D02*
X00106241D01*
X00114500Y00400843D02*
Y00410657D01*
X00109500Y00395843D02*
X00114500Y00400843D01*
X00109500Y00363474D02*
Y00395843D01*
X00104000Y00357974D02*
X00109500Y00363474D01*
X00104000Y00351000D02*
Y00357974D01*
X00096000Y00356000D02*
X00105500Y00365500D01*
Y00397500D02*
X00110500Y00402500D01*
X00105500Y00365500D02*
Y00397500D01*
X00092500Y00407000D02*
X00099000Y00413500D01*
X00110500Y00402500D02*
Y00409000D01*
X00099000Y00413500D02*
X00106000D01*
X00110500Y00409000D01*
X00032000Y00278500D02*
X00045000Y00265500D01*
Y00249500D02*
Y00265500D01*
Y00249500D02*
X00049968Y00244532D01*
X00115882D01*
X00120914Y00239500D01*
X00032000Y00278500D02*
Y00312000D01*
X00039500Y00319500D01*
X00164500Y00520994D02*
X00186393Y00499101D01*
X00164500Y00520994D02*
Y00542500D01*
X00186393Y00425690D02*
Y00499101D01*
X00189591Y00427014D02*
Y00501409D01*
X00172500Y00518500D02*
Y00542500D01*
Y00518500D02*
X00189591Y00501409D01*
X00186393Y00425690D02*
X00203187Y00408896D01*
X00203517Y00413089D02*
X00322692D01*
X00189591Y00427014D02*
X00203517Y00413089D01*
X00203187Y00408896D02*
X00325018D01*
X00330092Y00413970D02*
X00338805D01*
X00325018Y00408896D02*
X00330092Y00413970D01*
X00322692Y00413089D02*
X00330301Y00420698D01*
X00211500Y00567500D02*
X00244550D01*
X00261550Y00584500D01*
X00193284Y00549284D02*
X00211500Y00567500D01*
X00190784Y00552784D02*
X00209354Y00571354D01*
X00177784Y00552784D02*
X00190784D01*
X00209354Y00571354D02*
X00243455D01*
X00260100Y00588000D01*
X00217500Y00347723D02*
Y00364728D01*
X00221702Y00349463D02*
Y00366469D01*
X00330301Y00420698D02*
X00336155D01*
X00217500Y00347723D02*
X00279202Y00286021D01*
X00202500Y00379728D02*
X00217500Y00364728D01*
X00221702Y00349463D02*
X00283404Y00287761D01*
X00210632Y00377539D02*
X00221702Y00366469D01*
X00279202Y00262746D02*
Y00286021D01*
X00283404Y00263924D02*
Y00287761D01*
X00257500Y00207245D02*
Y00281119D01*
X00265426Y00210528D02*
Y00284403D01*
X00261570Y00208931D02*
Y00282805D01*
X00124663Y00477500D02*
X00136000D01*
X00119163Y00483000D02*
X00124663Y00477500D01*
X00112854Y00483000D02*
X00119163D01*
X00107969Y00471969D02*
Y00478115D01*
X00112854Y00483000D01*
X00111679Y00470249D02*
Y00473179D01*
X00107430Y00466000D02*
X00111679Y00470249D01*
Y00473179D02*
X00116000Y00477500D01*
X00105000Y00469000D02*
X00107969Y00471969D01*
X00174000Y00549000D02*
X00177784Y00552784D01*
X00329437Y00037937D02*
X00357063D01*
X00362500Y00032500D01*
X00327557Y00041500D02*
X00385000D01*
X00175250Y00340250D02*
Y00360750D01*
Y00340250D02*
X00183000Y00332500D01*
Y00314500D02*
Y00332500D01*
X00156050Y00353500D02*
X00178500Y00331050D01*
Y00303707D02*
Y00331050D01*
X00375000Y00870500D02*
X00386000D01*
X00375000D02*
Y00883500D01*
X00386000D01*
Y00870500D02*
Y00883500D01*
X00192000Y00224500D02*
Y00305500D01*
X00183000Y00314500D02*
X00192000Y00305500D01*
X00048600Y00155600D02*
X00074668D01*
X00172000Y00327500D02*
X00172000Y00327500D01*
X00071000Y00134000D02*
Y00144402D01*
X00129560Y00384891D02*
Y00405940D01*
X00116500Y00371831D02*
X00129560Y00384891D01*
X00106000Y00429500D02*
X00129560Y00405940D01*
X00116500Y00352000D02*
Y00371831D01*
X00358241Y00549420D02*
Y00570343D01*
X00344000Y00534019D02*
Y00540122D01*
X00354741Y00550863D02*
Y00568893D01*
X00347546Y00532546D02*
Y00538725D01*
X00358241Y00549420D01*
X00344000Y00540122D02*
X00354741Y00550863D01*
X00261550Y00584500D02*
X00339134D01*
X00260100Y00588000D02*
X00340583D01*
X00358241Y00570343D01*
X00339134Y00584500D02*
X00354741Y00568893D01*
X00279202Y00262746D02*
X00291196Y00250752D01*
X00283404Y00263924D02*
X00295000Y00252328D01*
X00285219Y00197991D02*
X00296135Y00187075D01*
X00265426Y00210528D02*
X00277964Y00197991D01*
X00285219D01*
X00275931Y00194570D02*
X00283186D01*
X00274245Y00190500D02*
X00281500D01*
X00261570Y00208931D02*
X00275931Y00194570D01*
X00257500Y00207245D02*
X00274245Y00190500D01*
X00283186Y00194570D02*
X00292279Y00185477D01*
X00281500Y00190500D02*
X00288209Y00183791D01*
X00263500Y00124000D02*
X00271500D01*
X00285606Y00138106D02*
Y00156667D01*
X00271500Y00124000D02*
X00285606Y00138106D01*
X00296135Y00158635D02*
Y00187075D01*
X00292500Y00155000D02*
X00296135Y00158635D01*
X00285606Y00156667D02*
X00292279Y00163339D01*
Y00185477D01*
X00257627Y00133625D02*
X00288209Y00164206D01*
Y00183791D01*
X00257627Y00112790D02*
Y00133625D01*
X00126427Y00321979D02*
X00129000Y00319407D01*
X00126427Y00371106D02*
X00137000Y00381678D01*
X00126427Y00321979D02*
Y00371106D01*
X00122357Y00371985D02*
X00133500Y00383128D01*
X00122357Y00315643D02*
Y00371985D01*
X00129000Y00311000D02*
Y00319407D01*
X00156794Y00347843D02*
X00167000Y00337637D01*
Y00331234D02*
Y00337637D01*
X00355640Y00172472D02*
X00368393Y00159720D01*
X00355640Y00172472D02*
Y00228051D01*
X00346691Y00237000D02*
X00355640Y00228051D01*
X00361000Y00132181D02*
X00368393Y00139574D01*
Y00159720D01*
X00315500Y00105000D02*
Y00114000D01*
Y00097500D02*
Y00105000D01*
X00394000Y00112500D02*
Y00169500D01*
X00378000Y00180517D02*
X00389017Y00169500D01*
X00394000D01*
X00388500Y00107000D02*
X00394000Y00112500D01*
X00378000Y00180517D02*
Y00224000D01*
X00278258Y00105742D02*
X00294500Y00089500D01*
X00273758Y00105742D02*
X00278258D01*
X00263500Y00116000D02*
X00273758Y00105742D01*
X00257627Y00112790D02*
X00260917Y00109500D01*
X00263500D01*
X00273500Y00099500D01*
X00360000Y00098563D02*
X00366224Y00104786D01*
X00371286D02*
X00386618Y00120118D01*
X00366224Y00104786D02*
X00371286D01*
X00356395Y00100226D02*
X00364640Y00108471D01*
X00369471D01*
X00382834Y00121834D01*
X00386618Y00120118D02*
Y00161783D01*
X00345022Y00126978D02*
X00351500Y00120500D01*
X00345022Y00126978D02*
Y00162340D01*
X00348704Y00138196D02*
X00351500Y00135400D01*
Y00129000D02*
Y00135400D01*
X00348704Y00138196D02*
Y00163584D01*
X00355500Y00141500D02*
Y00153000D01*
X00291196Y00211033D02*
Y00250752D01*
X00295000Y00212609D02*
Y00252328D01*
X00291196Y00211033D02*
X00324000Y00178228D01*
Y00174000D02*
X00328000Y00170000D01*
X00324000Y00174000D02*
Y00178228D01*
X00322018Y00185591D02*
X00331866D01*
X00295000Y00212609D02*
X00322018Y00185591D01*
X00328000Y00170000D02*
X00342288D01*
X00391250Y00098750D02*
X00399500Y00090500D01*
X00382000Y00109345D02*
X00390293Y00117637D01*
X00382000Y00105338D02*
Y00109345D01*
X00390293Y00117637D02*
Y00163061D01*
X00374380Y00178973D02*
X00390293Y00163061D01*
X00370739Y00177661D02*
X00386618Y00161783D01*
X00367418Y00175894D02*
X00382834Y00160477D01*
Y00121834D02*
Y00160477D01*
X00363547Y00174902D02*
X00379232Y00159218D01*
X00352386Y00156114D02*
Y00165071D01*
Y00156114D02*
X00355500Y00153000D01*
X00370739Y00177661D02*
Y00268938D01*
X00363547Y00174902D02*
Y00271746D01*
X00367418Y00175894D02*
Y00270539D01*
X00374380Y00178973D02*
Y00266847D01*
X00360000Y00074000D02*
Y00098563D01*
X00361000Y00124000D02*
Y00132181D01*
X00331866Y00185591D02*
X00352386Y00165071D01*
X00342288Y00170000D02*
X00348704Y00163584D01*
X00326000Y00166000D02*
X00341362D01*
X00345022Y00162340D01*
X00316000Y00176000D02*
X00326000Y00166000D01*
X00382000Y00105338D02*
X00388588Y00098750D01*
X00391250D01*
X00329000Y00237000D02*
X00346691D01*
X00210632Y00377539D02*
Y00386146D01*
X00378000Y00224000D02*
X00382000Y00228000D01*
X00388500D01*
X00441000Y00438000D02*
Y00438000D01*
X00416500Y00462500D02*
X00441000Y00438000D01*
X00392506Y00462500D02*
X00416500D01*
X00341595Y00493548D02*
X00345546D01*
X00332990Y00502153D02*
Y00530509D01*
Y00502153D02*
X00341595Y00493548D01*
X00345546D02*
X00351586Y00499588D01*
X00355418D02*
X00392506Y00462500D01*
X00351586Y00499588D02*
X00355418D01*
X00164500Y00542500D02*
X00171000Y00549000D01*
X00174000D01*
X00172500Y00542500D02*
X00179284Y00549284D01*
X00193284D01*
X00339486Y00301000D02*
X00365000D01*
X00330000Y00291514D02*
X00339486Y00301000D01*
X00330000Y00252000D02*
Y00291514D01*
X00071000Y00238000D02*
X00076785D01*
X00079641Y00240856D01*
X00099144D01*
X00110000Y00230000D01*
X00119500D01*
X00141925Y00218500D02*
X00150453Y00227027D01*
X00164500D01*
X00181341Y00243868D01*
X00140331Y00222500D02*
X00148358Y00230527D01*
X00161861D02*
X00177000Y00245666D01*
X00148358Y00230527D02*
X00161861D01*
X00160016Y00223516D02*
X00167182D01*
X00185720Y00242054D01*
X00153500Y00217000D02*
X00160016Y00223516D01*
X00146001Y00217000D02*
X00153500D01*
X00144001Y00215000D02*
X00146001Y00217000D01*
X00137000Y00215000D02*
X00144001D01*
X00134720Y00218500D02*
X00141925D01*
X00129500Y00222500D02*
X00140331D01*
X00134500Y00212500D02*
X00137000Y00215000D01*
X00132047Y00215826D02*
X00134720Y00218500D01*
X00121893Y00222500D02*
X00129500D01*
X00118686Y00219293D02*
X00121893Y00222500D01*
X00196000Y00222177D02*
Y00308000D01*
X00199500Y00220727D02*
Y00320000D01*
X00166000Y00187227D02*
X00199500Y00220727D01*
X00162500Y00188677D02*
X00196000Y00222177D01*
X00137000Y00381678D02*
Y00434000D01*
X00133500Y00383128D02*
Y00422865D01*
X00120914Y00239500D02*
X00158500D01*
X00165588Y00304288D02*
X00177000Y00292876D01*
X00165588Y00304288D02*
Y00329822D01*
X00181341Y00243868D02*
Y00294674D01*
X00177000Y00245666D02*
Y00292876D01*
X00172000Y00304015D02*
Y00327500D01*
X00185720Y00242054D02*
Y00296487D01*
X00172000Y00304015D02*
X00181341Y00294674D01*
X00178500Y00303707D02*
X00185720Y00296487D01*
X00150157Y00347843D02*
X00156794D01*
X00144500Y00353500D02*
X00156050D01*
X00165588Y00329822D02*
X00167000Y00331234D01*
X00189500Y00314500D02*
X00196000Y00308000D01*
X00189500Y00314500D02*
Y00320000D01*
X00075500Y00113000D02*
Y00141402D01*
X00382033Y00274500D02*
X00392000D01*
X00130101Y00426265D02*
X00133500Y00422865D01*
X00117000Y00428708D02*
X00119443Y00426265D01*
X00130101D01*
X00117000Y00428708D02*
Y00434000D01*
X00123000Y00305000D02*
X00129000Y00311000D01*
X00355500Y00522500D02*
X00365500D01*
X00360493Y00528007D02*
Y00537993D01*
X00346000Y00531000D02*
X00347546Y00532546D01*
X00346000Y00528000D02*
Y00531000D01*
X00340500Y00522500D02*
X00346000Y00528000D01*
X00340491Y00530509D02*
X00344000Y00534019D01*
X00202500Y00379728D02*
Y00386500D01*
X00190500Y00380700D02*
Y00386500D01*
X00196500Y00380191D02*
Y00392000D01*
X00370739Y00268938D02*
X00383500Y00281699D01*
X00380019Y00283141D02*
Y00410703D01*
X00383500Y00281699D02*
Y00412144D01*
X00374380Y00266847D02*
X00382033Y00274500D01*
X00367418Y00270539D02*
X00380019Y00283141D01*
X00376500Y00284699D02*
Y00409587D01*
X00363547Y00271746D02*
X00376500Y00284699D01*
X00336155Y00420698D02*
X00340411D01*
X00338805Y00413970D02*
X00347988Y00423153D01*
X00340411Y00420698D02*
X00346404Y00426692D01*
X00368953D01*
X00370087Y00416000D02*
X00376500Y00409587D01*
X00363000Y00416000D02*
X00370087D01*
X00368953Y00426692D02*
X00383500Y00412144D01*
X00347988Y00423153D02*
X00367569D01*
X00380019Y00410703D01*
X00048600Y00104800D02*
X00067300D01*
X00075500Y00113000D01*
X00049000Y00130200D02*
X00067200D01*
X00071000Y00134000D01*
X00381499Y00874000D02*
Y00879998D01*
X00378500Y00876999D01*
X00382499D01*
D15*
X00318606Y00039606D02*
X00333000Y00054000D01*
X00166500Y00056348D02*
X00183241Y00039606D01*
X00318606D01*
X00288000Y00109189D02*
X00321189Y00076000D01*
X00333000D01*
X00288000Y00109189D02*
Y00116000D01*
X00353500Y00063088D02*
X00365179D01*
X00380091Y00078000D02*
X00389500D01*
X00365179Y00063088D02*
X00380091Y00078000D01*
X00210000Y00348021D02*
Y00361000D01*
Y00348021D02*
X00274205Y00283816D01*
Y00213870D02*
Y00283816D01*
X00376340Y00512840D02*
Y00573858D01*
X00356607Y00593591D02*
X00376340Y00573858D01*
X00363000Y00499500D02*
X00376340Y00512840D01*
X00356607Y00593591D02*
Y00632000D01*
X00166500Y00056348D02*
Y00078000D01*
X00333000Y00063088D02*
X00353500D01*
X00333000D02*
Y00076000D01*
Y00054000D02*
Y00063088D01*
Y00076000D02*
X00341000D01*
X00389500Y00078000D02*
X00396177D01*
X00368500Y00637374D02*
Y00668965D01*
X00363126Y00632000D02*
X00368500Y00637374D01*
X00356607Y00632000D02*
X00363126D01*
X00346500D02*
X00356607D01*
X00368500Y00668965D02*
X00381535Y00682000D01*
X00389000D01*
X00396000Y00689000D01*
X00274205Y00213870D02*
X00282075Y00206000D01*
X00290000D01*
X00304954Y00191046D01*
Y00162819D02*
Y00191046D01*
X00307773Y00160000D02*
X00312500D01*
X00304954Y00162819D02*
X00307773Y00160000D01*
X00288000Y00116000D02*
Y00124153D01*
X00312500Y00148653D02*
Y00160000D01*
X00288000Y00124153D02*
X00312500Y00148653D01*
X00406268Y00088091D02*
Y00094960D01*
X00396177Y00078000D02*
X00406268Y00088091D01*
X00401693Y00099535D02*
Y00152928D01*
Y00099535D02*
X00406268Y00094960D01*
X00401693Y00152928D02*
X00404365Y00155600D01*
X00419400D01*
X00353500Y00050500D02*
Y00063088D01*
X00216000Y00170000D02*
X00224000Y00178000D01*
X00276000D01*
X00019400Y00104800D02*
X00048600D01*
X00019000Y00130200D02*
X00049000D01*
X00019400Y00155600D02*
X00048600D01*
X00312500Y00160000D02*
X00339000D01*
D16*
X00438000Y00000000D02*
G03*
X00468000Y00030000I00000000J00030000D01*
G01*
Y00873000D02*
G03*
X00438000Y00903000I-00030000J00000000D01*
G01*
X00000000Y00030000D02*
G03*
X00030000Y00000000I00030000J00000000D01*
G01*
Y00903000D02*
G03*
X00000000Y00873000I00000000J-00030000D01*
G01*
Y00717500D02*
G03*
X00010000Y00707500I00010000J00000000D01*
G01*
Y00467500D02*
G03*
X00000000Y00457500I00000000J-00010000D01*
G01*
X00035000Y00467500D02*
G03*
X00045000Y00477500I00000000J00010000D01*
G01*
Y00697500D02*
G03*
X00035000Y00707500I-00010000J00000000D01*
G01*
X00468000Y00030000D02*
Y00873000D01*
X00030000Y00000000D02*
X00438000D01*
X00030000Y00903000D02*
X00438000D01*
X00000000Y00717500D02*
Y00873000D01*
Y00030000D02*
Y00457500D01*
X00010034Y00467534D02*
X00035034D01*
X00010000Y00707500D02*
X00035000D01*
X00045000Y00477500D02*
Y00697500D01*
D150*
X00381000Y00021000D02*
D03*
X00333000Y00882000D02*
D03*
X00085000Y00883500D02*
D03*
D165*
X00092250Y00285000D02*
D03*
D166*
X00360493Y00537993D02*
D03*
X00344000Y00510500D02*
D03*
X00365500Y00522500D02*
D03*
X00079000Y00324500D02*
D03*
Y00332000D02*
D03*
Y00339500D02*
D03*
X00079000Y00347000D02*
D03*
X00079000Y00317000D02*
D03*
X00104000Y00351000D02*
D03*
X00096000Y00356000D02*
D03*
X00388500Y00107000D02*
D03*
X00363000Y00499500D02*
D03*
X00344000D02*
D03*
X00052500Y00364000D02*
D03*
X00120000Y00398500D02*
D03*
X00344500Y00614500D02*
D03*
X00360493Y00528007D02*
D03*
X00340500Y00522500D02*
D03*
X00348000D02*
D03*
X00332990Y00530509D02*
D03*
X00340491Y00530509D02*
D03*
X00353500Y00494000D02*
D03*
X00355500Y00522500D02*
D03*
X00340500Y00574750D02*
D03*
X00322500Y00573750D02*
D03*
X00317000Y00559500D02*
D03*
X00315500Y00379000D02*
D03*
X00365542D02*
D03*
X00344000Y00362500D02*
D03*
Y00395500D02*
D03*
X00337500Y00362500D02*
D03*
X00331000D02*
D03*
Y00395500D02*
D03*
X00337500D02*
D03*
X00358305Y00378970D02*
D03*
X00336155Y00420698D02*
D03*
X00338805Y00413970D02*
D03*
X00309000Y00379000D02*
D03*
X00302500D02*
D03*
X00091500Y00375000D02*
D03*
X00099000Y00375500D02*
D03*
X00399500Y00090500D02*
D03*
X00360000Y00074000D02*
D03*
X00353500Y00050500D02*
D03*
X00374500Y00093000D02*
D03*
X00369000Y00098500D02*
D03*
X00380000D02*
D03*
Y00087500D02*
D03*
X00369000D02*
D03*
X00239000Y00110075D02*
D03*
X00165000Y00792500D02*
D03*
D172*
X00178460Y00466460D02*
Y00476000D01*
X00171809Y00459809D02*
X00178460Y00466460D01*
X00106809Y00459809D02*
X00171809D01*
X00069500Y00422500D02*
X00106809Y00459809D01*
X00178460Y00476000D02*
Y00495895D01*
X00155016Y00519339D02*
X00178460Y00495895D01*
X00155016Y00519339D02*
Y00570500D01*
X00135618Y00358180D02*
X00139771Y00362332D01*
X00135618Y00348882D02*
Y00358180D01*
Y00348882D02*
X00144500Y00340000D01*
X00139771Y00362332D02*
X00164500D01*
X00119500Y00262500D02*
Y00283500D01*
X00144500Y00324000D02*
X00146000Y00322500D01*
Y00310000D02*
Y00322500D01*
X00144500Y00324000D02*
Y00340000D01*
X00119500Y00283500D02*
X00146000Y00310000D01*
X00068000Y00371500D02*
Y00375617D01*
X00069500Y00377117D02*
Y00392500D01*
X00068000Y00375617D02*
X00069500Y00377117D01*
Y00392500D02*
Y00422500D01*
Y00392500D02*
X00079799D01*
X00051500Y00266500D02*
X00076556D01*
X00051500D02*
X00051500D01*
X00038206Y00279794D02*
Y00297706D01*
Y00279794D02*
X00051500Y00266500D01*
X00051500Y00251500D02*
Y00266500D01*
X00038206Y00297706D02*
X00052000Y00311500D01*
X00337500Y00362500D02*
X00344000D01*
X00331000D02*
X00337500D01*
Y00395500D02*
X00344000D01*
X00331000D02*
X00337500D01*
X00091500Y00363759D02*
Y00375000D01*
X00087500Y00359759D02*
X00091500Y00363759D01*
X00087500Y00353000D02*
Y00359759D01*
Y00353000D02*
X00091750Y00348750D01*
X00419000Y00079400D02*
Y00088841D01*
X00422159Y00092000D02*
X00426500D01*
X00419000Y00088841D02*
X00422159Y00092000D01*
X00095231Y00303231D02*
Y00315587D01*
X00082000Y00290000D02*
X00095231Y00303231D01*
X00419400Y00155600D02*
X00448600D01*
X00419000Y00130200D02*
X00448200D01*
X00419400Y00104800D02*
X00448600D01*
X00419000Y00079400D02*
X00449000D01*
X00349373Y00369903D02*
Y00386538D01*
X00354805Y00391970D01*
X00349373Y00369903D02*
X00361976Y00357300D01*
X00354805Y00391970D02*
Y00406470D01*
X00361976Y00328291D02*
Y00357300D01*
X00019000Y00079400D02*
Y00090000D01*
Y00079400D02*
X00049000D01*
X00091217Y00388822D02*
X00099000Y00381039D01*
X00083477Y00388822D02*
X00091217D01*
X00079799Y00392500D02*
X00083477Y00388822D01*
X00099000Y00375500D02*
Y00381039D01*
X00076556Y00266500D02*
X00080556Y00262500D01*
X00097825D01*
X00119500Y00255000D02*
Y00262500D01*
X00097825D02*
X00119500D01*
X00098000Y00262675D02*
Y00275500D01*
X00108000D02*
Y00279500D01*
X00102500Y00285000D02*
X00108000Y00279500D01*
X00097825Y00262500D02*
X00098000Y00262675D01*
X00082000Y00275500D02*
Y00285000D01*
X00102500D01*
X00082000D02*
Y00290000D01*
D174*
X00240472Y00119528D02*
X00244000Y00116000D01*
X00240472Y00119528D02*
Y00127719D01*
X00229691Y00138500D02*
X00240472Y00127719D01*
X00224500Y00138500D02*
X00229691D01*
X00197745Y00165255D02*
Y00170245D01*
Y00165255D02*
X00224500Y00138500D01*
X00237528Y00119528D02*
Y00126500D01*
X00234000Y00116000D02*
X00237528Y00119528D01*
X00228472Y00135556D02*
X00237528Y00126500D01*
X00223281Y00135556D02*
X00228472D01*
X00195663Y00163174D02*
X00223281Y00135556D01*
X00190674Y00163174D02*
X00195663D01*
D175*
X00184500Y00524500D02*
X00202000Y00507000D01*
Y00433000D02*
Y00507000D01*
Y00433000D02*
X00210741Y00424259D01*
X00281703D02*
X00307444Y00450000D01*
X00210741Y00424259D02*
X00281703D01*
X00307444Y00450000D02*
X00327500D01*
D176*
X00091750Y00348750D02*
X00095231Y00345269D01*
Y00315587D02*
Y00345269D01*
D178*
X00297951Y00775001D02*
D03*
D179*
X00260750Y00879498D02*
D03*
X00359250Y00879497D02*
D03*
D180*
X00349939Y00807487D02*
D03*
D181*
X00297956Y00807504D02*
D03*
D182*
X00213199Y00842500D02*
D03*
X00126799D02*
D03*
X00277201Y00060500D02*
D03*
X00190801D02*
D03*
D183*
X00213199Y00884000D02*
D03*
X00126799D02*
D03*
X00277201Y00019000D02*
D03*
X00190801D02*
D03*
D184*
X00424273Y00197893D02*
D03*
X00044273D02*
D03*
D185*
X00065500Y00166500D02*
D03*
X00107500Y00203000D02*
D03*
X00040000Y00729000D02*
D03*
X00023000D02*
D03*
X00079000Y00815500D02*
D03*
X00106500Y00796000D02*
D03*
X00168500Y00489000D02*
D03*
X00175500Y00069500D02*
D03*
X00168500Y00110500D02*
D03*
X00290500Y00054000D02*
D03*
X00332000Y00085000D02*
D03*
X00373000Y00133000D02*
D03*
X00143500Y00171500D02*
D03*
X00101000Y00196000D02*
D03*
X00064500Y00828000D02*
D03*
X00016500Y00887000D02*
D03*
X00009500Y00811500D02*
D03*
X00110000Y00754000D02*
D03*
X00171000Y00677000D02*
D03*
X00140000Y00631500D02*
D03*
Y00645500D02*
D03*
X00102500Y00595500D02*
D03*
X00096975Y00623472D02*
D03*
X00102632Y00618037D02*
D03*
X00096843Y00589843D02*
D03*
X00096865Y00634918D02*
D03*
X00102485Y00629224D02*
D03*
X00096843Y00612471D02*
D03*
X00102500Y00606814D02*
D03*
X00096843Y00601157D02*
D03*
X00160500Y00469000D02*
D03*
X00168500D02*
D03*
Y00477000D02*
D03*
X00134500Y00517000D02*
D03*
X00033500Y00392000D02*
D03*
X00083000Y00415000D02*
D03*
X00032500Y00335500D02*
D03*
X00068000Y00371500D02*
D03*
X00092500Y00415000D02*
D03*
Y00407000D02*
D03*
X00087000Y00308500D02*
D03*
X00079500Y00304500D02*
D03*
X00051500Y00281500D02*
D03*
X00064500Y00231000D02*
D03*
X00011500Y00231500D02*
D03*
X00166000Y00559500D02*
D03*
X00140500Y00564500D02*
D03*
X00119500Y00722500D02*
D03*
Y00714500D02*
D03*
X00126500Y00718500D02*
D03*
X00205000Y00601000D02*
D03*
X00181722Y00521621D02*
D03*
X00187379Y00527278D02*
D03*
X00189500Y00519500D02*
D03*
X00216000Y00551000D02*
D03*
Y00559000D02*
D03*
X00190000Y00586500D02*
D03*
X00194000Y00593500D02*
D03*
X00186000D02*
D03*
X00291500Y00694500D02*
D03*
Y00702500D02*
D03*
X00298500Y00698500D02*
D03*
X00124500Y00776000D02*
D03*
X00091500Y00821500D02*
D03*
Y00829500D02*
D03*
X00084500Y00825500D02*
D03*
X00087000Y00812500D02*
D03*
X00118500Y00858500D02*
D03*
X00099000Y00865500D02*
D03*
X00091000Y00852000D02*
D03*
Y00861000D02*
D03*
X00053500Y00723000D02*
D03*
X00010000Y00728500D02*
D03*
X00031500Y00729000D02*
D03*
X00063000Y00723000D02*
D03*
X00058000Y00742500D02*
D03*
X00051000Y00738500D02*
D03*
Y00746500D02*
D03*
X00008000Y00743500D02*
D03*
X00065750Y00753000D02*
D03*
X00065750Y00546000D02*
D03*
X00065000Y00697000D02*
D03*
Y00682000D02*
D03*
Y00667000D02*
D03*
Y00652000D02*
D03*
Y00637000D02*
D03*
X00065000Y00622000D02*
D03*
X00065000Y00582000D02*
D03*
Y00567000D02*
D03*
X00178460Y00476000D02*
D03*
X00062500Y00502500D02*
D03*
X00095998Y00491000D02*
D03*
X00088501Y00528998D02*
D03*
X00167500Y00607500D02*
D03*
X00205000Y00643500D02*
D03*
X00228500Y00651500D02*
D03*
X00345858Y00032270D02*
D03*
X00256995Y00660500D02*
D03*
X00175250Y00360750D02*
D03*
X00164500Y00362332D02*
D03*
X00173500Y00136000D02*
D03*
X00156000Y00118000D02*
D03*
Y00126500D02*
D03*
Y00109500D02*
D03*
Y00101000D02*
D03*
X00166500Y00078000D02*
D03*
X00109500Y00137000D02*
D03*
Y00149500D02*
D03*
X00037500Y00142500D02*
D03*
X00011000D02*
D03*
X00105500Y00015000D02*
D03*
X00127500D02*
D03*
X00341000Y00085000D02*
D03*
X00382500Y00690000D02*
D03*
X00396000Y00689000D02*
D03*
X00403000Y00726500D02*
D03*
X00425000Y00752500D02*
D03*
X00341250Y00707250D02*
D03*
X00210000Y00361000D02*
D03*
X00263500Y00124000D02*
D03*
X00122357Y00315643D02*
D03*
X00308500Y00050000D02*
D03*
X00145500Y00545000D02*
D03*
X00053000Y00689000D02*
D03*
X00054000Y00660000D02*
D03*
X00235000Y00049000D02*
D03*
X00165000Y00413500D02*
D03*
X00185500Y00359500D02*
D03*
X00009000Y00431000D02*
D03*
X00030500Y00459000D02*
D03*
X00054000Y00490500D02*
D03*
Y00523000D02*
D03*
Y00572500D02*
D03*
Y00614000D02*
D03*
X00051000Y00713000D02*
D03*
X00010000Y00718000D02*
D03*
X00008000Y00771500D02*
D03*
X00083500Y00845500D02*
D03*
X00012000Y00837000D02*
D03*
X00063000Y00892000D02*
D03*
X00182000Y00894000D02*
D03*
X00139500Y00893500D02*
D03*
X00229500D02*
D03*
X00277000Y00894000D02*
D03*
X00314000D02*
D03*
X00374000Y00893500D02*
D03*
X00405000Y00894000D02*
D03*
X00398000Y00830500D02*
D03*
X00451000Y00822000D02*
D03*
Y00767000D02*
D03*
X00458000Y00727000D02*
D03*
X00458500Y00679000D02*
D03*
X00456500Y00625000D02*
D03*
X00459000Y00584500D02*
D03*
X00458500Y00435000D02*
D03*
Y00324000D02*
D03*
X00459500Y00272000D02*
D03*
X00459000Y00229000D02*
D03*
Y00168500D02*
D03*
X00458500Y00143500D02*
D03*
X00458000Y00117000D02*
D03*
Y00064000D02*
D03*
X00402000Y00010000D02*
D03*
X00330500Y00009000D02*
D03*
X00289500Y00009500D02*
D03*
X00262500Y00009000D02*
D03*
X00235500Y00009500D02*
D03*
X00204000Y00010000D02*
D03*
X00160500D02*
D03*
X00068000Y00010500D02*
D03*
X00064500Y00059500D02*
D03*
X00010000Y00066500D02*
D03*
X00273500Y00099500D02*
D03*
X00276000Y00167500D02*
D03*
X00343500Y00097500D02*
D03*
X00351500Y00129000D02*
D03*
X00355500Y00141500D02*
D03*
X00106000Y00429500D02*
D03*
X00419000Y00141000D02*
D03*
X00394000Y00169500D02*
D03*
X00388500Y00228000D02*
D03*
X00441000Y00438000D02*
D03*
X00058364Y00370157D02*
D03*
X00136000Y00477500D02*
D03*
X00116000D02*
D03*
X00172500Y00542500D02*
D03*
X00164500D02*
D03*
X00385000Y00041500D02*
D03*
X00365000Y00301000D02*
D03*
X00362500Y00032500D02*
D03*
X00119500Y00230000D02*
D03*
X00330000Y00252000D02*
D03*
X00071000Y00238000D02*
D03*
X00051500Y00251500D02*
D03*
X00426500Y00092000D02*
D03*
X00053500Y00472000D02*
D03*
X00116500Y00352000D02*
D03*
X00129500Y00222500D02*
D03*
X00153500Y00217000D02*
D03*
X00144500Y00353500D02*
D03*
X00150157Y00347843D02*
D03*
X00199500Y00320000D02*
D03*
X00172000Y00327500D02*
D03*
X00189500Y00320000D02*
D03*
X00419400Y00114500D02*
D03*
X00244000Y00116000D02*
D03*
X00234000D02*
D03*
X00216000Y00170000D02*
D03*
X00276000Y00178000D02*
D03*
X00392000Y00274500D02*
D03*
X00164500Y00217500D02*
D03*
X00189000Y00193500D02*
D03*
X00127000Y00434000D02*
D03*
X00137000D02*
D03*
X00117000Y00434000D02*
D03*
X00123000Y00305000D02*
D03*
X00151000Y00379000D02*
D03*
X00127000Y00446500D02*
D03*
X00158500Y00239500D02*
D03*
X00039500Y00319500D02*
D03*
Y00311234D02*
D03*
X00042500Y00446500D02*
D03*
X00011500Y00336000D02*
D03*
Y00258000D02*
D03*
Y00414500D02*
D03*
X00052000Y00311500D02*
D03*
X00334500Y00462000D02*
D03*
Y00454000D02*
D03*
X00327500Y00458000D02*
D03*
Y00450000D02*
D03*
X00190500Y00386500D02*
D03*
X00196500Y00392000D02*
D03*
X00202500Y00386500D02*
D03*
X00210632Y00386146D02*
D03*
X00216000Y00543000D02*
D03*
X00333500Y00640000D02*
D03*
X00295000Y00684500D02*
D03*
X00325500Y00638500D02*
D03*
X00346500Y00632000D02*
D03*
X00359500Y00647500D02*
D03*
X00363000Y00471000D02*
D03*
X00451000Y00509000D02*
D03*
X00387000Y00606000D02*
D03*
X00325500Y00622500D02*
D03*
Y00630500D02*
D03*
X00455000Y00502000D02*
D03*
X00226000Y00605500D02*
D03*
X00447000Y00502000D02*
D03*
X00226000Y00581500D02*
D03*
X00380000Y00586000D02*
D03*
Y00594000D02*
D03*
Y00602000D02*
D03*
X00226000Y00589500D02*
D03*
X00443000Y00509000D02*
D03*
X00435000D02*
D03*
X00439000Y00502000D02*
D03*
X00387000Y00590000D02*
D03*
X00226000Y00597500D02*
D03*
X00387000Y00598000D02*
D03*
X00352500Y00652500D02*
D03*
X00226000Y00621500D02*
D03*
Y00613500D02*
D03*
Y00629500D02*
D03*
Y00637500D02*
D03*
X00344500Y00652500D02*
D03*
X00336500Y00652500D02*
D03*
X00370500Y00454500D02*
D03*
X00353500Y00471000D02*
D03*
X00359000Y00506500D02*
D03*
Y00514500D02*
D03*
X00287000Y00536000D02*
D03*
Y00520000D02*
D03*
X00216000Y00511000D02*
D03*
Y00535000D02*
D03*
Y00519000D02*
D03*
Y00527000D02*
D03*
X00287000Y00512000D02*
D03*
Y00528000D02*
D03*
Y00504000D02*
D03*
Y00480000D02*
D03*
Y00472000D02*
D03*
Y00488000D02*
D03*
Y00496000D02*
D03*
X00286500Y00461500D02*
D03*
X00294500D02*
D03*
X00296000Y00563500D02*
D03*
X00310000D02*
D03*
X00345491Y00566259D02*
D03*
X00303000Y00567500D02*
D03*
X00310000Y00571500D02*
D03*
X00296000D02*
D03*
X00216000Y00503000D02*
D03*
Y00455000D02*
D03*
Y00495000D02*
D03*
Y00447000D02*
D03*
Y00487000D02*
D03*
Y00463000D02*
D03*
Y00471000D02*
D03*
Y00479000D02*
D03*
Y00439000D02*
D03*
X00350805Y00336470D02*
D03*
X00353000Y00293500D02*
D03*
X00354805Y00406470D02*
D03*
X00356805Y00322119D02*
D03*
X00327305Y00322971D02*
D03*
X00356805Y00308772D02*
D03*
X00357000Y00315456D02*
D03*
X00361976Y00328291D02*
D03*
X00350805Y00344470D02*
D03*
X00333055Y00432471D02*
D03*
X00340555D02*
D03*
X00363000Y00416000D02*
D03*
X00293500Y00293500D02*
D03*
X00294500Y00379000D02*
D03*
X00278500D02*
D03*
X00286500D02*
D03*
X00270500D02*
D03*
X00217500Y00268500D02*
D03*
Y00284500D02*
D03*
X00238500Y00379000D02*
D03*
X00230500D02*
D03*
X00217500Y00276500D02*
D03*
X00281000Y00229000D02*
D03*
X00306000Y00237000D02*
D03*
X00281000D02*
D03*
Y00221000D02*
D03*
X00313157Y00233157D02*
D03*
X00306000Y00229000D02*
D03*
X00399500Y00258000D02*
D03*
X00403500Y00239000D02*
D03*
Y00247000D02*
D03*
Y00231000D02*
D03*
X00329000Y00227000D02*
D03*
X00329000Y00237000D02*
D03*
X00246500Y00379000D02*
D03*
X00254500D02*
D03*
X00262500D02*
D03*
X00019000Y00090000D02*
D03*
X00180347Y00163500D02*
D03*
X00197745Y00180245D02*
D03*
X00190674Y00163174D02*
D03*
X00197745Y00170245D02*
D03*
X00074500Y00039000D02*
D03*
X00389500Y00078000D02*
D03*
Y00069000D02*
D03*
X00351500Y00120500D02*
D03*
X00088000Y00342000D02*
D03*
X00082000Y00275500D02*
D03*
X00088000Y00330000D02*
D03*
Y00318000D02*
D03*
X00059500Y00295000D02*
D03*
X00143000Y00293000D02*
D03*
X00144500Y00340000D02*
D03*
X00146000Y00310000D02*
D03*
X00160500Y00332500D02*
D03*
X00167500Y00273500D02*
D03*
X00098000Y00275500D02*
D03*
X00129500Y00230500D02*
D03*
X00108000Y00251500D02*
D03*
X00112000Y00238000D02*
D03*
X00119500Y00255000D02*
D03*
X00108000Y00275500D02*
D03*
X00098000Y00251500D02*
D03*
X00112000Y00342000D02*
D03*
Y00330000D02*
D03*
Y00318000D02*
D03*
X00102500D02*
D03*
Y00330000D02*
D03*
Y00342000D02*
D03*
X00060500Y00251500D02*
D03*
X00082000Y00251500D02*
D03*
X00072000Y00251500D02*
D03*
X00052000Y00333500D02*
D03*
X00053000Y00356500D02*
D03*
X00069500Y00392500D02*
D03*
X00098000Y00400000D02*
D03*
X00088000D02*
D03*
X00103500Y00406500D02*
D03*
X00263500Y00116000D02*
D03*
X00294500Y00089500D02*
D03*
X00346500Y00017000D02*
D03*
X00361000Y00124000D02*
D03*
X00360500Y00112500D02*
D03*
X00292500Y00155000D02*
D03*
X00341000Y00076000D02*
D03*
X00315500Y00114000D02*
D03*
X00288000Y00116000D02*
D03*
X00316000Y00176000D02*
D03*
X00339000Y00160000D02*
D03*
X00312500Y00160000D02*
D03*
X00276000Y00143000D02*
D03*
X00331500Y00119500D02*
D03*
X00331500Y00176000D02*
D03*
X00312500Y00169000D02*
D03*
X00305000Y00119500D02*
D03*
X00340000Y00110500D02*
D03*
X00315500Y00097500D02*
D03*
X00281000Y00084500D02*
D03*
X00273000D02*
D03*
X00277000Y00077500D02*
D03*
X00269000Y00077500D02*
D03*
X00259000Y00077500D02*
D03*
X00255000Y00084500D02*
D03*
X00263000D02*
D03*
X00259000Y00091500D02*
D03*
X00209001D02*
D03*
X00205001Y00084500D02*
D03*
X00213001D02*
D03*
X00209001Y00077500D02*
D03*
X00199001Y00077500D02*
D03*
X00191001Y00077500D02*
D03*
X00195001Y00084500D02*
D03*
X00187001D02*
D03*
X00231500Y00734500D02*
D03*
X00191500Y00755500D02*
D03*
X00199500D02*
D03*
X00195500Y00748500D02*
D03*
X00203500D02*
D03*
X00175000Y00643500D02*
D03*
X00367000Y00807000D02*
D03*
X00372657Y00812657D02*
D03*
X00364879Y00814778D02*
D03*
X00370536Y00820435D02*
D03*
X00325000Y00800500D02*
D03*
X00333000D02*
D03*
X00329000Y00807500D02*
D03*
X00337000D02*
D03*
X00449000Y00783000D02*
D03*
X00441000D02*
D03*
X00449000Y00804500D02*
D03*
X00441000D02*
D03*
X00425000Y00709000D02*
D03*
X00448000Y00707000D02*
D03*
X00193000Y00701000D02*
D03*
X00216999Y00818500D02*
D03*
X00208999D02*
D03*
X00212999Y00825500D02*
D03*
X00204999D02*
D03*
X00194999Y00825500D02*
D03*
X00190999Y00818500D02*
D03*
X00198999D02*
D03*
X00194999Y00811500D02*
D03*
X00145000Y00811500D02*
D03*
X00141000Y00818500D02*
D03*
X00149000D02*
D03*
X00145000Y00825500D02*
D03*
X00135000D02*
D03*
X00127000D02*
D03*
X00131000Y00818500D02*
D03*
X00123000D02*
D03*
D186*
X00155000Y00770500D02*
D03*
X00155000Y00742500D02*
D03*
X00178000Y00770500D02*
D03*
X00178000Y00742500D02*
D03*
D187*
X00448600Y00155600D02*
D03*
X00019000Y00079400D02*
D03*
X00048600Y00104800D02*
D03*
X00019000Y00130200D02*
D03*
X00048600Y00155600D02*
D03*
X00419000Y00130200D02*
D03*
X00448600Y00104800D02*
D03*
X00419000Y00079400D02*
D03*
D188*
X00449000D02*
D03*
X00419400Y00104800D02*
D03*
X00449000Y00130200D02*
D03*
X00419400Y00155600D02*
D03*
X00049000Y00079400D02*
D03*
X00019400Y00104800D02*
D03*
X00049000Y00130200D02*
D03*
X00019400Y00155600D02*
D03*
D189*
X00412250Y00649500D02*
D03*
M02*
