G04*
G04 #@! TF.GenerationSoftware,Altium Limited,Altium Designer,23.10.1 (27)*
G04*
G04 Layer_Physical_Order=3*
G04 Layer_Color=5220458*
%FSAX44Y44*%
%MOMM*%
G71*
G04*
G04 #@! TF.SameCoordinates,5C1EF094-659E-4F14-B8F6-58BB7AD2CD52*
G04*
G04*
G04 #@! TF.FilePolarity,Positive*
G04*
G01*
G75*
%ADD13C,0.1500*%
%ADD16C,0.0500*%
%ADD166C,0.5000*%
%ADD172C,0.5000*%
%ADD177C,6.2000*%
%ADD179O,1.2000X3.8000*%
%ADD180O,1.1000X2.5000*%
G04:AMPARAMS|DCode=182|XSize=2.1mm|YSize=1mm|CornerRadius=0.5mm|HoleSize=0mm|Usage=FLASHONLY|Rotation=270.000|XOffset=0mm|YOffset=0mm|HoleType=Round|Shape=RoundedRectangle|*
%AMROUNDEDRECTD182*
21,1,2.1000,0.0000,0,0,270.0*
21,1,1.1000,1.0000,0,0,270.0*
1,1,1.0000,0.0000,-0.5500*
1,1,1.0000,0.0000,0.5500*
1,1,1.0000,0.0000,0.5500*
1,1,1.0000,0.0000,-0.5500*
%
%ADD182ROUNDEDRECTD182*%
G04:AMPARAMS|DCode=183|XSize=1.8mm|YSize=1mm|CornerRadius=0.5mm|HoleSize=0mm|Usage=FLASHONLY|Rotation=270.000|XOffset=0mm|YOffset=0mm|HoleType=Round|Shape=RoundedRectangle|*
%AMROUNDEDRECTD183*
21,1,1.8000,0.0000,0,0,270.0*
21,1,0.8000,1.0000,0,0,270.0*
1,1,1.0000,0.0000,-0.4000*
1,1,1.0000,0.0000,0.4000*
1,1,1.0000,0.0000,0.4000*
1,1,1.0000,0.0000,-0.4000*
%
%ADD183ROUNDEDRECTD183*%
%ADD185C,0.5500*%
G36*
X00252447Y00897902D02*
X00252833Y00896902D01*
X00251982Y00894848D01*
X00251673Y00892498D01*
Y00881998D01*
X00269828D01*
Y00892498D01*
X00269519Y00894848D01*
X00268668Y00896902D01*
X00269053Y00897902D01*
X00350949D01*
X00351334Y00896902D01*
X00350482Y00894846D01*
X00350173Y00892497D01*
Y00881997D01*
X00368328D01*
Y00892497D01*
X00368019Y00894846D01*
X00367167Y00896902D01*
X00367552Y00897902D01*
X00438000D01*
X00439632D01*
X00442869Y00897476D01*
X00446022Y00896631D01*
X00449038Y00895382D01*
X00451865Y00893750D01*
X00454454Y00891762D01*
X00456763Y00889454D01*
X00458750Y00886864D01*
X00460382Y00884038D01*
X00461631Y00881022D01*
X00462476Y00877868D01*
X00462902Y00874632D01*
X00462902Y00873000D01*
X00462902Y00213137D01*
X00461921Y00212942D01*
X00461818Y00213192D01*
X00459975Y00215595D01*
X00457572Y00217438D01*
X00454775Y00218597D01*
X00451773Y00218992D01*
X00396773D01*
X00393770Y00218597D01*
X00390973Y00217438D01*
X00388571Y00215595D01*
X00386727Y00213192D01*
X00385569Y00210395D01*
X00385173Y00207393D01*
Y00188393D01*
X00385569Y00185391D01*
X00386727Y00182593D01*
X00388571Y00180191D01*
X00390973Y00178347D01*
X00393770Y00177189D01*
X00396773Y00176793D01*
X00451773D01*
X00454775Y00177189D01*
X00457572Y00178347D01*
X00459975Y00180191D01*
X00461818Y00182593D01*
X00461921Y00182843D01*
X00462902Y00182648D01*
Y00050477D01*
X00461902Y00050195D01*
X00460171Y00053019D01*
X00456875Y00056879D01*
X00453015Y00060176D01*
X00448686Y00062828D01*
X00443997Y00064771D01*
X00439061Y00065956D01*
X00434000Y00066354D01*
X00428939Y00065956D01*
X00424003Y00064771D01*
X00419314Y00062828D01*
X00414985Y00060176D01*
X00411125Y00056879D01*
X00407828Y00053019D01*
X00405176Y00048691D01*
X00403234Y00044001D01*
X00402049Y00039065D01*
X00401650Y00034004D01*
X00402049Y00028944D01*
X00403234Y00024008D01*
X00405176Y00019318D01*
X00407828Y00014990D01*
X00411125Y00011130D01*
X00414985Y00007833D01*
X00417817Y00006098D01*
X00417534Y00005098D01*
X00050465Y00005098D01*
X00050184Y00006098D01*
X00053015Y00007833D01*
X00056875Y00011130D01*
X00060171Y00014990D01*
X00062824Y00019318D01*
X00064766Y00024008D01*
X00065951Y00028944D01*
X00066350Y00034004D01*
X00065951Y00039065D01*
X00064766Y00044001D01*
X00062824Y00048691D01*
X00060171Y00053019D01*
X00056875Y00056879D01*
X00053015Y00060176D01*
X00048686Y00062828D01*
X00043997Y00064771D01*
X00039061Y00065956D01*
X00034000Y00066354D01*
X00028939Y00065956D01*
X00024003Y00064771D01*
X00019313Y00062828D01*
X00014985Y00060176D01*
X00011125Y00056879D01*
X00007829Y00053019D01*
X00006098Y00050195D01*
X00005098Y00050477D01*
Y00183914D01*
X00006098Y00184113D01*
X00006727Y00182593D01*
X00008571Y00180191D01*
X00010973Y00178347D01*
X00013771Y00177189D01*
X00016773Y00176793D01*
X00071773D01*
X00074775Y00177189D01*
X00077572Y00178347D01*
X00079974Y00180191D01*
X00081818Y00182593D01*
X00082977Y00185391D01*
X00083372Y00188393D01*
Y00207393D01*
X00082977Y00210395D01*
X00081818Y00213192D01*
X00079974Y00215595D01*
X00077572Y00217438D01*
X00074775Y00218597D01*
X00071773Y00218992D01*
X00016773D01*
X00013771Y00218597D01*
X00010973Y00217438D01*
X00008571Y00215595D01*
X00006727Y00213192D01*
X00006098Y00211673D01*
X00005098Y00211872D01*
X00005098Y00457500D01*
Y00457983D01*
X00005286Y00458930D01*
X00005656Y00459822D01*
X00006192Y00460625D01*
X00006875Y00461308D01*
X00007678Y00461844D01*
X00008570Y00462214D01*
X00009601Y00462419D01*
X00010115Y00462436D01*
X00034993Y00462402D01*
X00035121Y00462427D01*
X00035250Y00462408D01*
X00036230Y00462457D01*
X00036597Y00462548D01*
X00036975D01*
X00038897Y00462931D01*
X00039361Y00463123D01*
X00039854Y00463221D01*
X00041665Y00463971D01*
X00042082Y00464250D01*
X00042546Y00464442D01*
X00044176Y00465531D01*
X00044531Y00465886D01*
X00044949Y00466165D01*
X00046335Y00467551D01*
X00046614Y00467969D01*
X00046969Y00468324D01*
X00048058Y00469954D01*
X00048250Y00470418D01*
X00048529Y00470835D01*
X00049279Y00472646D01*
X00049377Y00473139D01*
X00049569Y00473603D01*
X00049952Y00475525D01*
Y00475903D01*
X00050044Y00476270D01*
X00050092Y00477250D01*
X00050073Y00477375D01*
X00050098Y00477500D01*
X00050098Y00697500D01*
X00050073Y00697625D01*
X00050092Y00697750D01*
X00050044Y00698730D01*
X00049952Y00699097D01*
Y00699475D01*
X00049569Y00701397D01*
X00049377Y00701861D01*
X00049279Y00702354D01*
X00048529Y00704165D01*
X00048250Y00704582D01*
X00048058Y00705046D01*
X00046969Y00706676D01*
X00046614Y00707031D01*
X00046335Y00707449D01*
X00044949Y00708835D01*
X00044531Y00709114D01*
X00044176Y00709469D01*
X00042546Y00710558D01*
X00042082Y00710750D01*
X00041665Y00711029D01*
X00039854Y00711779D01*
X00039361Y00711877D01*
X00038897Y00712069D01*
X00036975Y00712452D01*
X00036597D01*
X00036230Y00712543D01*
X00035250Y00712592D01*
X00035125Y00712573D01*
X00035000Y00712598D01*
X00009517Y00712598D01*
X00008570Y00712786D01*
X00007678Y00713156D01*
X00006875Y00713692D01*
X00006192Y00714375D01*
X00005656Y00715178D01*
X00005286Y00716070D01*
X00005098Y00717017D01*
Y00717500D01*
X00005098Y00873000D01*
Y00874632D01*
X00005524Y00877869D01*
X00006369Y00881022D01*
X00007618Y00884038D01*
X00009250Y00886865D01*
X00011237Y00889454D01*
X00013546Y00891763D01*
X00016135Y00893750D01*
X00018962Y00895382D01*
X00021978Y00896631D01*
X00025131Y00897476D01*
X00028368Y00897902D01*
X00030000Y00897902D01*
X00252447Y00897902D01*
D02*
G37*
%LPC*%
G36*
X00215699Y00895624D02*
Y00886501D01*
X00221268D01*
Y00888000D01*
X00220993Y00890089D01*
X00220187Y00892035D01*
X00218905Y00893706D01*
X00217234Y00894988D01*
X00215699Y00895624D01*
D02*
G37*
G36*
X00210699D02*
X00209165Y00894988D01*
X00207494Y00893706D01*
X00206211Y00892035D01*
X00205405Y00890089D01*
X00205130Y00888000D01*
Y00886501D01*
X00210699D01*
Y00895624D01*
D02*
G37*
G36*
X00129299Y00895624D02*
Y00886500D01*
X00134868D01*
Y00888000D01*
X00134593Y00890089D01*
X00133787Y00892035D01*
X00132505Y00893706D01*
X00130834Y00894988D01*
X00129299Y00895624D01*
D02*
G37*
G36*
X00124299Y00895624D02*
X00122765Y00894988D01*
X00121094Y00893706D01*
X00119811Y00892035D01*
X00119005Y00890089D01*
X00118730Y00888000D01*
Y00886500D01*
X00124299D01*
Y00895624D01*
D02*
G37*
G36*
Y00881500D02*
X00118730D01*
Y00880000D01*
X00119005Y00877912D01*
X00119811Y00875966D01*
X00121094Y00874295D01*
X00122765Y00873012D01*
X00124299Y00872377D01*
Y00881500D01*
D02*
G37*
G36*
X00221268Y00881501D02*
X00215699D01*
Y00872377D01*
X00217234Y00873012D01*
X00218905Y00874295D01*
X00220187Y00875966D01*
X00220993Y00877912D01*
X00221268Y00880000D01*
Y00881501D01*
D02*
G37*
G36*
X00210699D02*
X00205130D01*
Y00880000D01*
X00205405Y00877912D01*
X00206211Y00875966D01*
X00207494Y00874295D01*
X00209165Y00873012D01*
X00210699Y00872377D01*
Y00881501D01*
D02*
G37*
G36*
X00134868Y00881500D02*
X00129299D01*
Y00872377D01*
X00130834Y00873012D01*
X00132505Y00874295D01*
X00133787Y00875966D01*
X00134593Y00877912D01*
X00134868Y00880000D01*
Y00881500D01*
D02*
G37*
G36*
X00387500Y00887039D02*
X00373500D01*
X00372720Y00886884D01*
X00372058Y00886442D01*
X00371616Y00885780D01*
X00371461Y00885000D01*
Y00869000D01*
X00371616Y00868220D01*
X00372058Y00867558D01*
X00372720Y00867116D01*
X00373500Y00866961D01*
X00387500D01*
X00388280Y00867116D01*
X00388942Y00867558D01*
X00389384Y00868220D01*
X00389539Y00869000D01*
Y00885000D01*
X00389384Y00885780D01*
X00388942Y00886442D01*
X00388280Y00886884D01*
X00387500Y00887039D01*
D02*
G37*
G36*
X00269828Y00876998D02*
X00263250D01*
Y00857792D01*
X00265289Y00858637D01*
X00267169Y00860079D01*
X00268612Y00861959D01*
X00269519Y00864149D01*
X00269828Y00866498D01*
Y00876998D01*
D02*
G37*
G36*
X00258250D02*
X00251673D01*
Y00866498D01*
X00251982Y00864149D01*
X00252889Y00861959D01*
X00254331Y00860079D01*
X00256212Y00858637D01*
X00258250Y00857792D01*
Y00876998D01*
D02*
G37*
G36*
X00368328Y00876997D02*
X00361750D01*
Y00857791D01*
X00363789Y00858635D01*
X00365669Y00860078D01*
X00367112Y00861958D01*
X00368019Y00864147D01*
X00368328Y00866497D01*
Y00876997D01*
D02*
G37*
G36*
X00356750D02*
X00350173D01*
Y00866497D01*
X00350482Y00864147D01*
X00351389Y00861958D01*
X00352831Y00860078D01*
X00354712Y00858635D01*
X00356750Y00857791D01*
Y00876997D01*
D02*
G37*
G36*
X00210699Y00855624D02*
X00209165Y00854988D01*
X00207494Y00853706D01*
X00206330Y00852190D01*
X00205683Y00852060D01*
X00205150Y00852085D01*
X00204427Y00853028D01*
X00202808Y00854270D01*
X00200922Y00855051D01*
X00198899Y00855317D01*
X00196876Y00855051D01*
X00194991Y00854270D01*
X00193372Y00853028D01*
X00192130Y00851409D01*
X00191349Y00849523D01*
X00191082Y00847500D01*
X00191349Y00845477D01*
X00192130Y00843592D01*
X00193372Y00841973D01*
X00194991Y00840731D01*
X00196876Y00839950D01*
X00198899Y00839684D01*
X00200922Y00839950D01*
X00202808Y00840731D01*
X00204130Y00841746D01*
X00205130Y00841344D01*
Y00837000D01*
X00205405Y00834912D01*
X00206211Y00832966D01*
X00207494Y00831295D01*
X00209165Y00830012D01*
X00210699Y00829377D01*
Y00842501D01*
Y00855624D01*
D02*
G37*
G36*
X00297950Y00888337D02*
X00294373Y00887984D01*
X00290933Y00886941D01*
X00287762Y00885246D01*
X00284983Y00882966D01*
X00282703Y00880187D01*
X00281008Y00877016D01*
X00279965Y00873576D01*
X00279612Y00869999D01*
X00279965Y00866421D01*
X00281008Y00862981D01*
X00282703Y00859810D01*
X00284983Y00857031D01*
X00287762Y00854751D01*
X00290933Y00853056D01*
X00294373Y00852013D01*
X00297950Y00851660D01*
X00301528Y00852013D01*
X00304968Y00853056D01*
X00308139Y00854751D01*
X00310918Y00857031D01*
X00313198Y00859810D01*
X00314893Y00862981D01*
X00315936Y00866421D01*
X00316289Y00869999D01*
X00315936Y00873576D01*
X00314893Y00877016D01*
X00313198Y00880187D01*
X00310918Y00882966D01*
X00308139Y00885246D01*
X00304968Y00886941D01*
X00301528Y00887984D01*
X00297950Y00888337D01*
D02*
G37*
G36*
X00215699Y00855624D02*
Y00845001D01*
X00221268D01*
Y00848000D01*
X00220993Y00850089D01*
X00220187Y00852035D01*
X00218905Y00853706D01*
X00217234Y00854988D01*
X00215699Y00855624D01*
D02*
G37*
G36*
X00124299Y00855624D02*
X00122765Y00854988D01*
X00121094Y00853706D01*
X00119811Y00852035D01*
X00119005Y00850089D01*
X00118730Y00848000D01*
Y00845001D01*
X00124299D01*
Y00855624D01*
D02*
G37*
G36*
X00129299Y00855624D02*
Y00842501D01*
Y00829377D01*
X00130834Y00830012D01*
X00132505Y00831295D01*
X00133787Y00832966D01*
X00134593Y00834912D01*
X00134868Y00837000D01*
Y00841344D01*
X00135868Y00841746D01*
X00137191Y00840731D01*
X00139076Y00839950D01*
X00141099Y00839684D01*
X00143122Y00839950D01*
X00145008Y00840731D01*
X00146627Y00841973D01*
X00147869Y00843592D01*
X00148650Y00845477D01*
X00148916Y00847500D01*
X00148650Y00849523D01*
X00147869Y00851409D01*
X00146627Y00853028D01*
X00145008Y00854270D01*
X00143122Y00855051D01*
X00141099Y00855317D01*
X00139076Y00855051D01*
X00137191Y00854270D01*
X00135572Y00853028D01*
X00134849Y00852085D01*
X00134316Y00852060D01*
X00133668Y00852190D01*
X00132505Y00853706D01*
X00130834Y00854988D01*
X00129299Y00855624D01*
D02*
G37*
G36*
X00124299Y00840001D02*
X00118730D01*
Y00837000D01*
X00119005Y00834912D01*
X00119811Y00832966D01*
X00121094Y00831295D01*
X00122765Y00830012D01*
X00124299Y00829377D01*
Y00840001D01*
D02*
G37*
G36*
X00221268Y00840001D02*
X00215699D01*
Y00829377D01*
X00217234Y00830012D01*
X00218905Y00831295D01*
X00220187Y00832966D01*
X00220993Y00834912D01*
X00221268Y00837000D01*
Y00840001D01*
D02*
G37*
G36*
X00424000Y00891354D02*
X00418939Y00890956D01*
X00414003Y00889771D01*
X00409314Y00887828D01*
X00404985Y00885176D01*
X00401125Y00881879D01*
X00397828Y00878019D01*
X00395176Y00873691D01*
X00393234Y00869001D01*
X00392049Y00864065D01*
X00391650Y00859004D01*
X00392049Y00853944D01*
X00393234Y00849008D01*
X00395176Y00844318D01*
X00397828Y00839990D01*
X00401125Y00836130D01*
X00404985Y00832833D01*
X00409314Y00830181D01*
X00414003Y00828238D01*
X00418939Y00827053D01*
X00424000Y00826655D01*
X00429061Y00827053D01*
X00433997Y00828238D01*
X00438686Y00830181D01*
X00443015Y00832833D01*
X00446875Y00836130D01*
X00450171Y00839990D01*
X00452824Y00844318D01*
X00454766Y00849008D01*
X00455951Y00853944D01*
X00456350Y00859004D01*
X00455951Y00864065D01*
X00454766Y00869001D01*
X00452824Y00873691D01*
X00450171Y00878019D01*
X00446875Y00881879D01*
X00443015Y00885176D01*
X00438686Y00887828D01*
X00433997Y00889771D01*
X00429061Y00890956D01*
X00424000Y00891354D01*
D02*
G37*
G36*
X00044000D02*
X00038939Y00890956D01*
X00034003Y00889771D01*
X00029313Y00887828D01*
X00024985Y00885176D01*
X00021125Y00881879D01*
X00017829Y00878019D01*
X00015176Y00873691D01*
X00013234Y00869001D01*
X00012049Y00864065D01*
X00011650Y00859004D01*
X00012049Y00853944D01*
X00013234Y00849008D01*
X00015176Y00844318D01*
X00017829Y00839990D01*
X00021125Y00836130D01*
X00024985Y00832833D01*
X00029313Y00830181D01*
X00034003Y00828238D01*
X00038939Y00827053D01*
X00044000Y00826655D01*
X00049061Y00827053D01*
X00053997Y00828238D01*
X00058686Y00830181D01*
X00063015Y00832833D01*
X00066875Y00836130D01*
X00070171Y00839990D01*
X00072824Y00844318D01*
X00074766Y00849008D01*
X00075951Y00853944D01*
X00076350Y00859004D01*
X00075951Y00864065D01*
X00074766Y00869001D01*
X00072824Y00873691D01*
X00070171Y00878019D01*
X00066875Y00881879D01*
X00063015Y00885176D01*
X00058686Y00887828D01*
X00053997Y00889771D01*
X00049061Y00890956D01*
X00044000Y00891354D01*
D02*
G37*
G36*
X00092147Y00832750D02*
X00090854D01*
X00089659Y00832255D01*
X00088745Y00831341D01*
X00088250Y00830146D01*
Y00828854D01*
X00088745Y00827659D01*
X00089659Y00826745D01*
X00090854Y00826250D01*
X00092147D01*
X00093341Y00826745D01*
X00094255Y00827659D01*
X00094750Y00828854D01*
Y00830146D01*
X00094255Y00831341D01*
X00093341Y00832255D01*
X00092147Y00832750D01*
D02*
G37*
G36*
X00145646Y00828750D02*
X00144354D01*
X00143159Y00828255D01*
X00142245Y00827341D01*
X00141750Y00826146D01*
Y00824854D01*
X00142245Y00823659D01*
X00143159Y00822745D01*
X00144354Y00822250D01*
X00145646D01*
X00146841Y00822745D01*
X00147755Y00823659D01*
X00148250Y00824854D01*
Y00826146D01*
X00147755Y00827341D01*
X00146841Y00828255D01*
X00145646Y00828750D01*
D02*
G37*
G36*
X00085147D02*
X00083854D01*
X00082659Y00828255D01*
X00081745Y00827341D01*
X00081250Y00826146D01*
Y00824854D01*
X00081745Y00823659D01*
X00082659Y00822745D01*
X00083854Y00822250D01*
X00085147D01*
X00086341Y00822745D01*
X00087255Y00823659D01*
X00087750Y00824854D01*
Y00826146D01*
X00087255Y00827341D01*
X00086341Y00828255D01*
X00085147Y00828750D01*
D02*
G37*
G36*
X00195645Y00828750D02*
X00194352D01*
X00193158Y00828255D01*
X00192243Y00827341D01*
X00191749Y00826146D01*
Y00824854D01*
X00192243Y00823659D01*
X00193158Y00822745D01*
X00194352Y00822250D01*
X00195645D01*
X00196840Y00822745D01*
X00197754Y00823659D01*
X00198249Y00824854D01*
Y00826146D01*
X00197754Y00827341D01*
X00196840Y00828255D01*
X00195645Y00828750D01*
D02*
G37*
G36*
X00092147Y00824750D02*
X00090854D01*
X00089659Y00824255D01*
X00088745Y00823341D01*
X00088250Y00822147D01*
Y00820854D01*
X00088745Y00819659D01*
X00089659Y00818745D01*
X00090854Y00818250D01*
X00092147D01*
X00093341Y00818745D01*
X00094255Y00819659D01*
X00094750Y00820854D01*
Y00822147D01*
X00094255Y00823341D01*
X00093341Y00824255D01*
X00092147Y00824750D01*
D02*
G37*
G36*
X00149646Y00821750D02*
X00148354D01*
X00147159Y00821255D01*
X00146245Y00820341D01*
X00145750Y00819146D01*
Y00817853D01*
X00146245Y00816659D01*
X00147159Y00815745D01*
X00148354Y00815250D01*
X00149646D01*
X00150841Y00815745D01*
X00151755Y00816659D01*
X00152250Y00817853D01*
Y00819146D01*
X00151755Y00820341D01*
X00150841Y00821255D01*
X00149646Y00821750D01*
D02*
G37*
G36*
X00141646D02*
X00140353D01*
X00139159Y00821255D01*
X00138245Y00820341D01*
X00137750Y00819146D01*
Y00817853D01*
X00138245Y00816659D01*
X00139159Y00815745D01*
X00140353Y00815250D01*
X00141646D01*
X00142841Y00815745D01*
X00143755Y00816659D01*
X00144250Y00817853D01*
Y00819146D01*
X00143755Y00820341D01*
X00142841Y00821255D01*
X00141646Y00821750D01*
D02*
G37*
G36*
X00199645Y00821750D02*
X00198352D01*
X00197158Y00821255D01*
X00196243Y00820341D01*
X00195749Y00819146D01*
Y00817853D01*
X00196243Y00816659D01*
X00197158Y00815745D01*
X00198352Y00815250D01*
X00199645D01*
X00200840Y00815745D01*
X00201754Y00816659D01*
X00202248Y00817853D01*
Y00819146D01*
X00201754Y00820341D01*
X00200840Y00821255D01*
X00199645Y00821750D01*
D02*
G37*
G36*
X00191645D02*
X00190352D01*
X00189158Y00821255D01*
X00188243Y00820341D01*
X00187749Y00819146D01*
Y00817853D01*
X00188243Y00816659D01*
X00189158Y00815745D01*
X00190352Y00815250D01*
X00191645D01*
X00192840Y00815745D01*
X00193754Y00816659D01*
X00194249Y00817853D01*
Y00819146D01*
X00193754Y00820341D01*
X00192840Y00821255D01*
X00191645Y00821750D01*
D02*
G37*
G36*
X00354939Y00821365D02*
Y00812487D01*
X00358512D01*
Y00814487D01*
X00358220Y00816706D01*
X00357364Y00818774D01*
X00356001Y00820549D01*
X00354939Y00821365D01*
D02*
G37*
G36*
X00344939D02*
X00343877Y00820549D01*
X00342514Y00818774D01*
X00341658Y00816706D01*
X00341366Y00814487D01*
Y00812487D01*
X00344939D01*
Y00821365D01*
D02*
G37*
G36*
X00145646Y00814750D02*
X00144354D01*
X00143159Y00814255D01*
X00142245Y00813341D01*
X00141750Y00812146D01*
Y00810854D01*
X00142245Y00809659D01*
X00143159Y00808745D01*
X00144354Y00808250D01*
X00145646D01*
X00146841Y00808745D01*
X00147755Y00809659D01*
X00148250Y00810854D01*
Y00812146D01*
X00147755Y00813341D01*
X00146841Y00814255D01*
X00145646Y00814750D01*
D02*
G37*
G36*
X00195645Y00814750D02*
X00194352D01*
X00193158Y00814255D01*
X00192243Y00813341D01*
X00191749Y00812146D01*
Y00810854D01*
X00192243Y00809659D01*
X00193158Y00808745D01*
X00194352Y00808250D01*
X00195645D01*
X00196840Y00808745D01*
X00197754Y00809659D01*
X00198249Y00810854D01*
Y00812146D01*
X00197754Y00813341D01*
X00196840Y00814255D01*
X00195645Y00814750D01*
D02*
G37*
G36*
X00358512Y00802487D02*
X00354939D01*
Y00793610D01*
X00356001Y00794425D01*
X00357364Y00796200D01*
X00358220Y00798268D01*
X00358512Y00800487D01*
Y00802487D01*
D02*
G37*
G36*
X00344939D02*
X00341366D01*
Y00800487D01*
X00341658Y00798268D01*
X00342514Y00796200D01*
X00343877Y00794425D01*
X00344939Y00793610D01*
Y00802487D01*
D02*
G37*
G36*
X00297956Y00822073D02*
X00295867Y00821798D01*
X00293921Y00820992D01*
X00292250Y00819710D01*
X00290968Y00818038D01*
X00290162Y00816092D01*
X00289887Y00814004D01*
Y00801004D01*
X00290162Y00798915D01*
X00290968Y00796969D01*
X00292250Y00795298D01*
X00293921Y00794016D01*
X00295867Y00793210D01*
X00297956Y00792935D01*
X00300044Y00793210D01*
X00301990Y00794016D01*
X00303661Y00795298D01*
X00304944Y00796969D01*
X00305750Y00798915D01*
X00306025Y00801004D01*
Y00814004D01*
X00305750Y00816092D01*
X00304944Y00818038D01*
X00303661Y00819710D01*
X00301990Y00820992D01*
X00300044Y00821798D01*
X00297956Y00822073D01*
D02*
G37*
G36*
X00299133Y00787001D02*
X00296769D01*
X00294450Y00786540D01*
X00292267Y00785635D01*
X00290301Y00784322D01*
X00288630Y00782650D01*
X00287316Y00780685D01*
X00286412Y00778501D01*
X00285951Y00776183D01*
Y00773819D01*
X00286412Y00771501D01*
X00287316Y00769317D01*
X00288630Y00767351D01*
X00290301Y00765680D01*
X00292267Y00764367D01*
X00294450Y00763462D01*
X00296769Y00763001D01*
X00299133D01*
X00301451Y00763462D01*
X00303635Y00764367D01*
X00305600Y00765680D01*
X00307272Y00767351D01*
X00308585Y00769317D01*
X00309490Y00771501D01*
X00309951Y00773819D01*
Y00776183D01*
X00309490Y00778501D01*
X00308585Y00780685D01*
X00307272Y00782650D01*
X00305600Y00784322D01*
X00303635Y00785635D01*
X00301451Y00786540D01*
X00299133Y00787001D01*
D02*
G37*
G36*
X00051646Y00749750D02*
X00050353D01*
X00049159Y00749255D01*
X00048245Y00748341D01*
X00047750Y00747146D01*
Y00745853D01*
X00048245Y00744659D01*
X00049159Y00743745D01*
X00050353Y00743250D01*
X00051646D01*
X00052841Y00743745D01*
X00053755Y00744659D01*
X00054250Y00745853D01*
Y00747146D01*
X00053755Y00748341D01*
X00052841Y00749255D01*
X00051646Y00749750D01*
D02*
G37*
G36*
X00058646Y00745750D02*
X00057353D01*
X00056159Y00745255D01*
X00055245Y00744341D01*
X00054750Y00743146D01*
Y00741853D01*
X00055245Y00740659D01*
X00056159Y00739745D01*
X00057353Y00739250D01*
X00058646D01*
X00059841Y00739745D01*
X00060755Y00740659D01*
X00061250Y00741853D01*
Y00743146D01*
X00060755Y00744341D01*
X00059841Y00745255D01*
X00058646Y00745750D01*
D02*
G37*
G36*
X00234000Y00780320D02*
X00230665Y00780058D01*
X00227413Y00779277D01*
X00224323Y00777997D01*
X00221471Y00776249D01*
X00218927Y00774077D01*
X00216755Y00771533D01*
X00215008Y00768681D01*
X00213728Y00765591D01*
X00212947Y00762339D01*
X00212684Y00759004D01*
X00212947Y00755670D01*
X00213728Y00752417D01*
X00215008Y00749327D01*
X00216755Y00746475D01*
X00218927Y00743932D01*
X00221471Y00741759D01*
X00224323Y00740012D01*
X00227413Y00738732D01*
X00230665Y00737951D01*
X00234000Y00737689D01*
X00237334Y00737951D01*
X00240587Y00738732D01*
X00243677Y00740012D01*
X00246529Y00741759D01*
X00249072Y00743932D01*
X00251245Y00746475D01*
X00252992Y00749327D01*
X00254272Y00752417D01*
X00255053Y00755670D01*
X00255316Y00759004D01*
X00255053Y00762339D01*
X00254272Y00765591D01*
X00252992Y00768681D01*
X00251245Y00771533D01*
X00249072Y00774077D01*
X00246529Y00776249D01*
X00243677Y00777997D01*
X00240587Y00779277D01*
X00237334Y00780058D01*
X00234000Y00780320D01*
D02*
G37*
G36*
X00051646Y00741750D02*
X00050353D01*
X00049159Y00741255D01*
X00048245Y00740341D01*
X00047750Y00739146D01*
Y00737853D01*
X00048245Y00736659D01*
X00049159Y00735745D01*
X00050353Y00735250D01*
X00051646D01*
X00052841Y00735745D01*
X00053755Y00736659D01*
X00054250Y00737853D01*
Y00739146D01*
X00053755Y00740341D01*
X00052841Y00741255D01*
X00051646Y00741750D01*
D02*
G37*
G36*
X00130500Y00763819D02*
X00127706Y00763544D01*
X00125020Y00762729D01*
X00122545Y00761406D01*
X00120375Y00759625D01*
X00118594Y00757455D01*
X00117271Y00754980D01*
X00116456Y00752293D01*
X00116181Y00749500D01*
X00116456Y00746706D01*
X00117271Y00744020D01*
X00118594Y00741545D01*
X00120375Y00739375D01*
X00122545Y00737594D01*
X00125020Y00736271D01*
X00127706Y00735456D01*
X00130500Y00735181D01*
X00133294Y00735456D01*
X00135980Y00736271D01*
X00138455Y00737594D01*
X00140625Y00739375D01*
X00142406Y00741545D01*
X00143729Y00744020D01*
X00144544Y00746706D01*
X00144819Y00749500D01*
X00144544Y00752293D01*
X00143729Y00754980D01*
X00142406Y00757455D01*
X00140625Y00759625D01*
X00138455Y00761406D01*
X00135980Y00762729D01*
X00133294Y00763544D01*
X00130500Y00763819D01*
D02*
G37*
G36*
X00120146Y00725750D02*
X00118854D01*
X00117659Y00725255D01*
X00116745Y00724341D01*
X00116250Y00723147D01*
Y00721853D01*
X00116745Y00720659D01*
X00117659Y00719745D01*
X00118854Y00719250D01*
X00120146D01*
X00121341Y00719745D01*
X00122255Y00720659D01*
X00122750Y00721853D01*
Y00723147D01*
X00122255Y00724341D01*
X00121341Y00725255D01*
X00120146Y00725750D01*
D02*
G37*
G36*
X00127147Y00721750D02*
X00125854D01*
X00124659Y00721255D01*
X00123745Y00720341D01*
X00123250Y00719146D01*
Y00717853D01*
X00123745Y00716659D01*
X00124659Y00715745D01*
X00125854Y00715250D01*
X00127147D01*
X00128341Y00715745D01*
X00129255Y00716659D01*
X00129750Y00717853D01*
Y00719146D01*
X00129255Y00720341D01*
X00128341Y00721255D01*
X00127147Y00721750D01*
D02*
G37*
G36*
X00120146Y00717750D02*
X00118854D01*
X00117659Y00717255D01*
X00116745Y00716341D01*
X00116250Y00715146D01*
Y00713854D01*
X00116745Y00712659D01*
X00117659Y00711745D01*
X00118854Y00711250D01*
X00120146D01*
X00121341Y00711745D01*
X00122255Y00712659D01*
X00122750Y00713854D01*
Y00715146D01*
X00122255Y00716341D01*
X00121341Y00717255D01*
X00120146Y00717750D01*
D02*
G37*
G36*
X00425646Y00712250D02*
X00424353D01*
X00423159Y00711755D01*
X00422245Y00710841D01*
X00421750Y00709647D01*
Y00708354D01*
X00422245Y00707159D01*
X00423159Y00706245D01*
X00424353Y00705750D01*
X00425646D01*
X00426841Y00706245D01*
X00427755Y00707159D01*
X00428250Y00708354D01*
Y00709647D01*
X00427755Y00710841D01*
X00426841Y00711755D01*
X00425646Y00712250D01*
D02*
G37*
G36*
X00341896Y00710500D02*
X00340603D01*
X00339409Y00710005D01*
X00338495Y00709091D01*
X00338000Y00707896D01*
Y00706603D01*
X00338495Y00705409D01*
X00339409Y00704495D01*
X00340603Y00704000D01*
X00341896D01*
X00343091Y00704495D01*
X00344005Y00705409D01*
X00344500Y00706603D01*
Y00707896D01*
X00344005Y00709091D01*
X00343091Y00710005D01*
X00341896Y00710500D01*
D02*
G37*
G36*
X00292146Y00705750D02*
X00290854D01*
X00289659Y00705255D01*
X00288745Y00704341D01*
X00288250Y00703146D01*
Y00701853D01*
X00288745Y00700659D01*
X00289659Y00699745D01*
X00290854Y00699250D01*
X00292146D01*
X00293341Y00699745D01*
X00294255Y00700659D01*
X00294750Y00701853D01*
Y00703146D01*
X00294255Y00704341D01*
X00293341Y00705255D01*
X00292146Y00705750D01*
D02*
G37*
G36*
X00299146Y00701750D02*
X00297854D01*
X00296659Y00701255D01*
X00295745Y00700341D01*
X00295250Y00699146D01*
Y00697853D01*
X00295745Y00696659D01*
X00296659Y00695745D01*
X00297854Y00695250D01*
X00299146D01*
X00300341Y00695745D01*
X00301255Y00696659D01*
X00301750Y00697853D01*
Y00699146D01*
X00301255Y00700341D01*
X00300341Y00701255D01*
X00299146Y00701750D01*
D02*
G37*
G36*
X00292146Y00697750D02*
X00290854D01*
X00289659Y00697255D01*
X00288745Y00696341D01*
X00288250Y00695146D01*
Y00693854D01*
X00288745Y00692659D01*
X00289659Y00691745D01*
X00290854Y00691250D01*
X00292146D01*
X00293341Y00691745D01*
X00294255Y00692659D01*
X00294750Y00693854D01*
Y00695146D01*
X00294255Y00696341D01*
X00293341Y00697255D01*
X00292146Y00697750D01*
D02*
G37*
G36*
X00383147Y00693250D02*
X00381853D01*
X00380659Y00692755D01*
X00379745Y00691841D01*
X00379250Y00690646D01*
Y00689353D01*
X00379745Y00688159D01*
X00380659Y00687245D01*
X00381853Y00686750D01*
X00383147D01*
X00384341Y00687245D01*
X00385255Y00688159D01*
X00385750Y00689353D01*
Y00690646D01*
X00385255Y00691841D01*
X00384341Y00692755D01*
X00383147Y00693250D01*
D02*
G37*
G36*
X00396646Y00692250D02*
X00395354D01*
X00394159Y00691755D01*
X00393245Y00690841D01*
X00392750Y00689646D01*
Y00688354D01*
X00393245Y00687159D01*
X00394159Y00686245D01*
X00395354Y00685750D01*
X00396646D01*
X00397841Y00686245D01*
X00398755Y00687159D01*
X00399250Y00688354D01*
Y00689646D01*
X00398755Y00690841D01*
X00397841Y00691755D01*
X00396646Y00692250D01*
D02*
G37*
G36*
X00295646Y00687750D02*
X00294354D01*
X00293159Y00687255D01*
X00292245Y00686341D01*
X00291750Y00685146D01*
Y00683854D01*
X00292245Y00682659D01*
X00293159Y00681745D01*
X00294354Y00681250D01*
X00295646D01*
X00296841Y00681745D01*
X00297755Y00682659D01*
X00298250Y00683854D01*
Y00685146D01*
X00297755Y00686341D01*
X00296841Y00687255D01*
X00295646Y00687750D01*
D02*
G37*
G36*
X00257642Y00663750D02*
X00256349D01*
X00255154Y00663255D01*
X00254240Y00662341D01*
X00253745Y00661146D01*
Y00659854D01*
X00254240Y00658659D01*
X00255154Y00657745D01*
X00256349Y00657250D01*
X00257642D01*
X00258836Y00657745D01*
X00259750Y00658659D01*
X00260245Y00659854D01*
Y00661146D01*
X00259750Y00662341D01*
X00258836Y00663255D01*
X00257642Y00663750D01*
D02*
G37*
G36*
X00334146Y00643250D02*
X00332854D01*
X00331659Y00642755D01*
X00330745Y00641841D01*
X00330250Y00640646D01*
Y00639353D01*
X00330745Y00638159D01*
X00331659Y00637245D01*
X00332854Y00636750D01*
X00334146D01*
X00335341Y00637245D01*
X00336255Y00638159D01*
X00336750Y00639353D01*
Y00640646D01*
X00336255Y00641841D01*
X00335341Y00642755D01*
X00334146Y00643250D01*
D02*
G37*
G36*
X00097512Y00638168D02*
X00096219D01*
X00095024Y00637673D01*
X00094110Y00636759D01*
X00093615Y00635564D01*
Y00634271D01*
X00094110Y00633077D01*
X00095024Y00632163D01*
X00096219Y00631668D01*
X00097512D01*
X00098706Y00632163D01*
X00099620Y00633077D01*
X00100115Y00634271D01*
Y00635564D01*
X00099620Y00636759D01*
X00098706Y00637673D01*
X00097512Y00638168D01*
D02*
G37*
G36*
X00347146Y00635250D02*
X00345854D01*
X00344659Y00634755D01*
X00343745Y00633841D01*
X00343250Y00632646D01*
Y00631354D01*
X00343745Y00630159D01*
X00344659Y00629245D01*
X00345854Y00628750D01*
X00347146D01*
X00348341Y00629245D01*
X00349255Y00630159D01*
X00349750Y00631354D01*
Y00632646D01*
X00349255Y00633841D01*
X00348341Y00634755D01*
X00347146Y00635250D01*
D02*
G37*
G36*
X00103131Y00632474D02*
X00101838D01*
X00100644Y00631979D01*
X00099729Y00631065D01*
X00099235Y00629870D01*
Y00628577D01*
X00099729Y00627383D01*
X00100644Y00626468D01*
X00101838Y00625974D01*
X00103131D01*
X00104326Y00626468D01*
X00105240Y00627383D01*
X00105735Y00628577D01*
Y00629870D01*
X00105240Y00631065D01*
X00104326Y00631979D01*
X00103131Y00632474D01*
D02*
G37*
G36*
X00097621Y00626722D02*
X00096328D01*
X00095134Y00626228D01*
X00094220Y00625313D01*
X00093725Y00624119D01*
Y00622826D01*
X00094220Y00621631D01*
X00095134Y00620717D01*
X00096328Y00620222D01*
X00097621D01*
X00098816Y00620717D01*
X00099730Y00621631D01*
X00100225Y00622826D01*
Y00624119D01*
X00099730Y00625313D01*
X00098816Y00626228D01*
X00097621Y00626722D01*
D02*
G37*
G36*
X00103278Y00621287D02*
X00101985D01*
X00100791Y00620793D01*
X00099876Y00619878D01*
X00099382Y00618684D01*
Y00617391D01*
X00099876Y00616196D01*
X00100791Y00615282D01*
X00101985Y00614787D01*
X00103278D01*
X00104473Y00615282D01*
X00105387Y00616196D01*
X00105882Y00617391D01*
Y00618684D01*
X00105387Y00619878D01*
X00104473Y00620793D01*
X00103278Y00621287D01*
D02*
G37*
G36*
X00097490Y00615720D02*
X00096197D01*
X00095002Y00615226D01*
X00094088Y00614311D01*
X00093593Y00613117D01*
Y00611824D01*
X00094088Y00610630D01*
X00095002Y00609715D01*
X00096197Y00609221D01*
X00097490D01*
X00098684Y00609715D01*
X00099598Y00610630D01*
X00100093Y00611824D01*
Y00613117D01*
X00099598Y00614311D01*
X00098684Y00615226D01*
X00097490Y00615720D01*
D02*
G37*
G36*
X00103146Y00610064D02*
X00101854D01*
X00100659Y00609569D01*
X00099745Y00608655D01*
X00099250Y00607460D01*
Y00606167D01*
X00099745Y00604973D01*
X00100659Y00604058D01*
X00101854Y00603564D01*
X00103146D01*
X00104341Y00604058D01*
X00105255Y00604973D01*
X00105750Y00606167D01*
Y00607460D01*
X00105255Y00608655D01*
X00104341Y00609569D01*
X00103146Y00610064D01*
D02*
G37*
G36*
X00387646Y00609250D02*
X00386354D01*
X00385159Y00608755D01*
X00384245Y00607841D01*
X00383750Y00606646D01*
Y00605354D01*
X00384245Y00604159D01*
X00385159Y00603245D01*
X00386354Y00602750D01*
X00387646D01*
X00388841Y00603245D01*
X00389755Y00604159D01*
X00390250Y00605354D01*
Y00606646D01*
X00389755Y00607841D01*
X00388841Y00608755D01*
X00387646Y00609250D01*
D02*
G37*
G36*
X00380647Y00605250D02*
X00379354D01*
X00378159Y00604755D01*
X00377245Y00603841D01*
X00376750Y00602646D01*
Y00601354D01*
X00377245Y00600159D01*
X00378159Y00599245D01*
X00379354Y00598750D01*
X00380647D01*
X00381841Y00599245D01*
X00382755Y00600159D01*
X00383250Y00601354D01*
Y00602646D01*
X00382755Y00603841D01*
X00381841Y00604755D01*
X00380647Y00605250D01*
D02*
G37*
G36*
X00097490Y00604407D02*
X00096197D01*
X00095002Y00603912D01*
X00094088Y00602998D01*
X00093593Y00601803D01*
Y00600510D01*
X00094088Y00599316D01*
X00095002Y00598402D01*
X00096197Y00597907D01*
X00097490D01*
X00098684Y00598402D01*
X00099598Y00599316D01*
X00100093Y00600510D01*
Y00601803D01*
X00099598Y00602998D01*
X00098684Y00603912D01*
X00097490Y00604407D01*
D02*
G37*
G36*
X00387646Y00601250D02*
X00386354D01*
X00385159Y00600755D01*
X00384245Y00599841D01*
X00383750Y00598647D01*
Y00597354D01*
X00384245Y00596159D01*
X00385159Y00595245D01*
X00386354Y00594750D01*
X00387646D01*
X00388841Y00595245D01*
X00389755Y00596159D01*
X00390250Y00597354D01*
Y00598647D01*
X00389755Y00599841D01*
X00388841Y00600755D01*
X00387646Y00601250D01*
D02*
G37*
G36*
X00103146Y00598750D02*
X00101854D01*
X00100659Y00598255D01*
X00099745Y00597341D01*
X00099250Y00596147D01*
Y00594854D01*
X00099745Y00593659D01*
X00100659Y00592745D01*
X00101854Y00592250D01*
X00103146D01*
X00104341Y00592745D01*
X00105255Y00593659D01*
X00105750Y00594854D01*
Y00596147D01*
X00105255Y00597341D01*
X00104341Y00598255D01*
X00103146Y00598750D01*
D02*
G37*
G36*
X00380647Y00597250D02*
X00379354D01*
X00378159Y00596755D01*
X00377245Y00595841D01*
X00376750Y00594646D01*
Y00593354D01*
X00377245Y00592159D01*
X00378159Y00591245D01*
X00379354Y00590750D01*
X00380647D01*
X00381841Y00591245D01*
X00382755Y00592159D01*
X00383250Y00593354D01*
Y00594646D01*
X00382755Y00595841D01*
X00381841Y00596755D01*
X00380647Y00597250D01*
D02*
G37*
G36*
X00194646Y00596750D02*
X00193354D01*
X00192159Y00596255D01*
X00191245Y00595341D01*
X00190750Y00594146D01*
Y00592854D01*
X00191245Y00591659D01*
X00192159Y00590745D01*
X00193354Y00590250D01*
X00194646D01*
X00195841Y00590745D01*
X00196755Y00591659D01*
X00197250Y00592854D01*
Y00594146D01*
X00196755Y00595341D01*
X00195841Y00596255D01*
X00194646Y00596750D01*
D02*
G37*
G36*
X00186646D02*
X00185354D01*
X00184159Y00596255D01*
X00183245Y00595341D01*
X00182750Y00594146D01*
Y00592854D01*
X00183245Y00591659D01*
X00184159Y00590745D01*
X00185354Y00590250D01*
X00186646D01*
X00187841Y00590745D01*
X00188755Y00591659D01*
X00189250Y00592854D01*
Y00594146D01*
X00188755Y00595341D01*
X00187841Y00596255D01*
X00186646Y00596750D01*
D02*
G37*
G36*
X00387646Y00593250D02*
X00386354D01*
X00385159Y00592755D01*
X00384245Y00591841D01*
X00383750Y00590647D01*
Y00589354D01*
X00384245Y00588159D01*
X00385159Y00587245D01*
X00386354Y00586750D01*
X00387646D01*
X00388841Y00587245D01*
X00389755Y00588159D01*
X00390250Y00589354D01*
Y00590647D01*
X00389755Y00591841D01*
X00388841Y00592755D01*
X00387646Y00593250D01*
D02*
G37*
G36*
X00097490Y00593093D02*
X00096197D01*
X00095002Y00592598D01*
X00094088Y00591684D01*
X00093593Y00590490D01*
Y00589197D01*
X00094088Y00588002D01*
X00095002Y00587088D01*
X00096197Y00586593D01*
X00097490D01*
X00098684Y00587088D01*
X00099598Y00588002D01*
X00100093Y00589197D01*
Y00590490D01*
X00099598Y00591684D01*
X00098684Y00592598D01*
X00097490Y00593093D01*
D02*
G37*
G36*
X00190646Y00589750D02*
X00189354D01*
X00188159Y00589255D01*
X00187245Y00588341D01*
X00186750Y00587146D01*
Y00585854D01*
X00187245Y00584659D01*
X00188159Y00583745D01*
X00189354Y00583250D01*
X00190646D01*
X00191841Y00583745D01*
X00192755Y00584659D01*
X00193250Y00585854D01*
Y00587146D01*
X00192755Y00588341D01*
X00191841Y00589255D01*
X00190646Y00589750D01*
D02*
G37*
G36*
X00380647Y00589250D02*
X00379354D01*
X00378159Y00588755D01*
X00377245Y00587841D01*
X00376750Y00586646D01*
Y00585354D01*
X00377245Y00584159D01*
X00378159Y00583245D01*
X00379354Y00582750D01*
X00380647D01*
X00381841Y00583245D01*
X00382755Y00584159D01*
X00383250Y00585354D01*
Y00586646D01*
X00382755Y00587841D01*
X00381841Y00588755D01*
X00380647Y00589250D01*
D02*
G37*
G36*
X00341097Y00577750D02*
X00339903D01*
X00338801Y00577293D01*
X00337957Y00576449D01*
X00337500Y00575347D01*
Y00574153D01*
X00337957Y00573051D01*
X00338801Y00572207D01*
X00339903Y00571750D01*
X00341097D01*
X00342199Y00572207D01*
X00343043Y00573051D01*
X00343500Y00574153D01*
Y00575347D01*
X00343043Y00576449D01*
X00342199Y00577293D01*
X00341097Y00577750D01*
D02*
G37*
G36*
X00323097Y00576750D02*
X00321903D01*
X00320801Y00576293D01*
X00319957Y00575449D01*
X00319500Y00574347D01*
Y00573153D01*
X00319957Y00572051D01*
X00320801Y00571207D01*
X00321903Y00570750D01*
X00323097D01*
X00324199Y00571207D01*
X00325043Y00572051D01*
X00325500Y00573153D01*
Y00574347D01*
X00325043Y00575449D01*
X00324199Y00576293D01*
X00323097Y00576750D01*
D02*
G37*
G36*
X00141146Y00567750D02*
X00139854D01*
X00138659Y00567255D01*
X00137745Y00566341D01*
X00137250Y00565146D01*
Y00563854D01*
X00137745Y00562659D01*
X00138659Y00561745D01*
X00139854Y00561250D01*
X00141146D01*
X00142341Y00561745D01*
X00143255Y00562659D01*
X00143750Y00563854D01*
Y00565146D01*
X00143255Y00566341D01*
X00142341Y00567255D01*
X00141146Y00567750D01*
D02*
G37*
G36*
X00317597Y00562500D02*
X00316403D01*
X00315301Y00562043D01*
X00314457Y00561199D01*
X00314000Y00560097D01*
Y00558903D01*
X00314457Y00557801D01*
X00315301Y00556957D01*
X00316403Y00556500D01*
X00317597D01*
X00318699Y00556957D01*
X00319543Y00557801D01*
X00320000Y00558903D01*
Y00560097D01*
X00319543Y00561199D01*
X00318699Y00562043D01*
X00317597Y00562500D01*
D02*
G37*
G36*
X00166646Y00562750D02*
X00165354D01*
X00164159Y00562255D01*
X00163245Y00561341D01*
X00162750Y00560146D01*
Y00558854D01*
X00163245Y00557659D01*
X00164159Y00556745D01*
X00165354Y00556250D01*
X00166646D01*
X00167841Y00556745D01*
X00168755Y00557659D01*
X00169250Y00558854D01*
Y00560146D01*
X00168755Y00561341D01*
X00167841Y00562255D01*
X00166646Y00562750D01*
D02*
G37*
G36*
X00173146Y00545750D02*
X00171854D01*
X00170659Y00545255D01*
X00169745Y00544341D01*
X00169250Y00543147D01*
Y00541854D01*
X00169745Y00540659D01*
X00170659Y00539745D01*
X00171854Y00539250D01*
X00173146D01*
X00174341Y00539745D01*
X00175255Y00540659D01*
X00175750Y00541854D01*
Y00543147D01*
X00175255Y00544341D01*
X00174341Y00545255D01*
X00173146Y00545750D01*
D02*
G37*
G36*
X00165147D02*
X00163853D01*
X00162659Y00545255D01*
X00161745Y00544341D01*
X00161250Y00543147D01*
Y00541854D01*
X00161745Y00540659D01*
X00162659Y00539745D01*
X00163853Y00539250D01*
X00165147D01*
X00166341Y00539745D01*
X00167255Y00540659D01*
X00167750Y00541854D01*
Y00543147D01*
X00167255Y00544341D01*
X00166341Y00545255D01*
X00165147Y00545750D01*
D02*
G37*
G36*
X00130500Y00560847D02*
X00127563Y00560460D01*
X00124826Y00559327D01*
X00122476Y00557524D01*
X00120673Y00555173D01*
X00119540Y00552437D01*
X00119153Y00549500D01*
X00119540Y00546563D01*
X00120673Y00543826D01*
X00122476Y00541476D01*
X00124826Y00539673D01*
X00127563Y00538540D01*
X00130500Y00538153D01*
X00133437Y00538540D01*
X00136173Y00539673D01*
X00138524Y00541476D01*
X00140327Y00543826D01*
X00141460Y00546563D01*
X00141847Y00549500D01*
X00141460Y00552437D01*
X00140327Y00555173D01*
X00138524Y00557524D01*
X00136173Y00559327D01*
X00133437Y00560460D01*
X00130500Y00560847D01*
D02*
G37*
G36*
X00341087Y00533509D02*
X00339894D01*
X00338791Y00533053D01*
X00337947Y00532209D01*
X00337491Y00531106D01*
Y00529913D01*
X00337947Y00528810D01*
X00338791Y00527966D01*
X00339894Y00527509D01*
X00341087D01*
X00342190Y00527966D01*
X00343034Y00528810D01*
X00343491Y00529913D01*
Y00531106D01*
X00343034Y00532209D01*
X00342190Y00533053D01*
X00341087Y00533509D01*
D02*
G37*
G36*
X00333587Y00533509D02*
X00332393D01*
X00331291Y00533053D01*
X00330447Y00532209D01*
X00329990Y00531106D01*
Y00529913D01*
X00330447Y00528810D01*
X00331291Y00527966D01*
X00332393Y00527509D01*
X00333587D01*
X00334690Y00527966D01*
X00335533Y00528810D01*
X00335990Y00529913D01*
Y00531106D01*
X00335533Y00532209D01*
X00334690Y00533053D01*
X00333587Y00533509D01*
D02*
G37*
G36*
X00361089Y00531007D02*
X00359896D01*
X00358793Y00530551D01*
X00357949Y00529707D01*
X00357493Y00528604D01*
Y00527411D01*
X00357949Y00526308D01*
X00358793Y00525464D01*
X00359896Y00525007D01*
X00361089D01*
X00362192Y00525464D01*
X00363036Y00526308D01*
X00363493Y00527411D01*
Y00528604D01*
X00363036Y00529707D01*
X00362192Y00530551D01*
X00361089Y00531007D01*
D02*
G37*
G36*
X00188025Y00530528D02*
X00186732D01*
X00185538Y00530033D01*
X00184624Y00529119D01*
X00184129Y00527925D01*
Y00526632D01*
X00184624Y00525437D01*
X00185538Y00524523D01*
X00186732Y00524028D01*
X00188025D01*
X00189220Y00524523D01*
X00190134Y00525437D01*
X00190629Y00526632D01*
Y00527925D01*
X00190134Y00529119D01*
X00189220Y00530033D01*
X00188025Y00530528D01*
D02*
G37*
G36*
X00356097Y00525500D02*
X00354903D01*
X00353801Y00525043D01*
X00352957Y00524199D01*
X00352500Y00523097D01*
Y00521903D01*
X00352957Y00520801D01*
X00353801Y00519957D01*
X00354903Y00519500D01*
X00356097D01*
X00357199Y00519957D01*
X00358043Y00520801D01*
X00358500Y00521903D01*
Y00523097D01*
X00358043Y00524199D01*
X00357199Y00525043D01*
X00356097Y00525500D01*
D02*
G37*
G36*
X00348597D02*
X00347403D01*
X00346301Y00525043D01*
X00345457Y00524199D01*
X00345000Y00523097D01*
Y00521903D01*
X00345457Y00520801D01*
X00346301Y00519957D01*
X00347403Y00519500D01*
X00348597D01*
X00349699Y00519957D01*
X00350543Y00520801D01*
X00351000Y00521903D01*
Y00523097D01*
X00350543Y00524199D01*
X00349699Y00525043D01*
X00348597Y00525500D01*
D02*
G37*
G36*
X00341097D02*
X00339903D01*
X00338801Y00525043D01*
X00337957Y00524199D01*
X00337500Y00523097D01*
Y00521903D01*
X00337957Y00520801D01*
X00338801Y00519957D01*
X00339903Y00519500D01*
X00341097D01*
X00342199Y00519957D01*
X00343043Y00520801D01*
X00343500Y00521903D01*
Y00523097D01*
X00343043Y00524199D01*
X00342199Y00525043D01*
X00341097Y00525500D01*
D02*
G37*
G36*
X00182368Y00524871D02*
X00181075D01*
X00179881Y00524376D01*
X00178967Y00523462D01*
X00178472Y00522268D01*
Y00520975D01*
X00178967Y00519780D01*
X00179881Y00518866D01*
X00181075Y00518371D01*
X00182368D01*
X00183563Y00518866D01*
X00184477Y00519780D01*
X00184972Y00520975D01*
Y00522268D01*
X00184477Y00523462D01*
X00183563Y00524376D01*
X00182368Y00524871D01*
D02*
G37*
G36*
X00190147Y00522750D02*
X00188853D01*
X00187659Y00522255D01*
X00186745Y00521341D01*
X00186250Y00520146D01*
Y00518853D01*
X00186745Y00517659D01*
X00187659Y00516745D01*
X00188853Y00516250D01*
X00190147D01*
X00191341Y00516745D01*
X00192255Y00517659D01*
X00192750Y00518853D01*
Y00520146D01*
X00192255Y00521341D01*
X00191341Y00522255D01*
X00190147Y00522750D01*
D02*
G37*
G36*
X00451646Y00512250D02*
X00450354D01*
X00449159Y00511755D01*
X00448245Y00510841D01*
X00447750Y00509646D01*
Y00508354D01*
X00448245Y00507159D01*
X00449159Y00506245D01*
X00450354Y00505750D01*
X00451646D01*
X00452841Y00506245D01*
X00453755Y00507159D01*
X00454250Y00508354D01*
Y00509646D01*
X00453755Y00510841D01*
X00452841Y00511755D01*
X00451646Y00512250D01*
D02*
G37*
G36*
X00443647D02*
X00442354D01*
X00441159Y00511755D01*
X00440245Y00510841D01*
X00439750Y00509646D01*
Y00508354D01*
X00440245Y00507159D01*
X00441159Y00506245D01*
X00442354Y00505750D01*
X00443647D01*
X00444841Y00506245D01*
X00445755Y00507159D01*
X00446250Y00508354D01*
Y00509646D01*
X00445755Y00510841D01*
X00444841Y00511755D01*
X00443647Y00512250D01*
D02*
G37*
G36*
X00435647D02*
X00434354D01*
X00433159Y00511755D01*
X00432245Y00510841D01*
X00431750Y00509646D01*
Y00508354D01*
X00432245Y00507159D01*
X00433159Y00506245D01*
X00434354Y00505750D01*
X00435647D01*
X00436841Y00506245D01*
X00437755Y00507159D01*
X00438250Y00508354D01*
Y00509646D01*
X00437755Y00510841D01*
X00436841Y00511755D01*
X00435647Y00512250D01*
D02*
G37*
G36*
X00455647Y00505250D02*
X00454354D01*
X00453159Y00504755D01*
X00452245Y00503841D01*
X00451750Y00502646D01*
Y00501354D01*
X00452245Y00500159D01*
X00453159Y00499245D01*
X00454354Y00498750D01*
X00455647D01*
X00456841Y00499245D01*
X00457755Y00500159D01*
X00458250Y00501354D01*
Y00502646D01*
X00457755Y00503841D01*
X00456841Y00504755D01*
X00455647Y00505250D01*
D02*
G37*
G36*
X00447646D02*
X00446354D01*
X00445159Y00504755D01*
X00444245Y00503841D01*
X00443750Y00502646D01*
Y00501354D01*
X00444245Y00500159D01*
X00445159Y00499245D01*
X00446354Y00498750D01*
X00447646D01*
X00448841Y00499245D01*
X00449755Y00500159D01*
X00450250Y00501354D01*
Y00502646D01*
X00449755Y00503841D01*
X00448841Y00504755D01*
X00447646Y00505250D01*
D02*
G37*
G36*
X00439646D02*
X00438354D01*
X00437159Y00504755D01*
X00436245Y00503841D01*
X00435750Y00502646D01*
Y00501354D01*
X00436245Y00500159D01*
X00437159Y00499245D01*
X00438354Y00498750D01*
X00439646D01*
X00440841Y00499245D01*
X00441755Y00500159D01*
X00442250Y00501354D01*
Y00502646D01*
X00441755Y00503841D01*
X00440841Y00504755D01*
X00439646Y00505250D01*
D02*
G37*
G36*
X00363597Y00502500D02*
X00362403D01*
X00361301Y00502043D01*
X00360457Y00501199D01*
X00360000Y00500097D01*
Y00498903D01*
X00360457Y00497801D01*
X00361301Y00496957D01*
X00362403Y00496500D01*
X00363597D01*
X00364699Y00496957D01*
X00365543Y00497801D01*
X00366000Y00498903D01*
Y00500097D01*
X00365543Y00501199D01*
X00364699Y00502043D01*
X00363597Y00502500D01*
D02*
G37*
G36*
X00344597D02*
X00343403D01*
X00342301Y00502043D01*
X00341457Y00501199D01*
X00341000Y00500097D01*
Y00498903D01*
X00341457Y00497801D01*
X00342301Y00496957D01*
X00343403Y00496500D01*
X00344597D01*
X00345699Y00496957D01*
X00346543Y00497801D01*
X00347000Y00498903D01*
Y00500097D01*
X00346543Y00501199D01*
X00345699Y00502043D01*
X00344597Y00502500D01*
D02*
G37*
G36*
X00354097Y00497000D02*
X00352903D01*
X00351801Y00496543D01*
X00350957Y00495699D01*
X00350500Y00494597D01*
Y00493403D01*
X00350957Y00492301D01*
X00351801Y00491457D01*
X00352903Y00491000D01*
X00354097D01*
X00355199Y00491457D01*
X00356043Y00492301D01*
X00356500Y00493403D01*
Y00494597D01*
X00356043Y00495699D01*
X00355199Y00496543D01*
X00354097Y00497000D01*
D02*
G37*
G36*
X00136646Y00480750D02*
X00135354D01*
X00134159Y00480255D01*
X00133245Y00479341D01*
X00132750Y00478147D01*
Y00476854D01*
X00133245Y00475659D01*
X00134159Y00474745D01*
X00135354Y00474250D01*
X00136646D01*
X00137841Y00474745D01*
X00138755Y00475659D01*
X00139250Y00476854D01*
Y00478147D01*
X00138755Y00479341D01*
X00137841Y00480255D01*
X00136646Y00480750D01*
D02*
G37*
G36*
X00116646D02*
X00115353D01*
X00114159Y00480255D01*
X00113245Y00479341D01*
X00112750Y00478147D01*
Y00476854D01*
X00113245Y00475659D01*
X00114159Y00474745D01*
X00115353Y00474250D01*
X00116646D01*
X00117841Y00474745D01*
X00118755Y00475659D01*
X00119250Y00476854D01*
Y00478147D01*
X00118755Y00479341D01*
X00117841Y00480255D01*
X00116646Y00480750D01*
D02*
G37*
G36*
X00169146Y00480250D02*
X00167854D01*
X00166659Y00479755D01*
X00165745Y00478841D01*
X00165250Y00477646D01*
Y00476354D01*
X00165745Y00475159D01*
X00166659Y00474245D01*
X00167854Y00473750D01*
X00169146D01*
X00170341Y00474245D01*
X00171255Y00475159D01*
X00171750Y00476354D01*
Y00477646D01*
X00171255Y00478841D01*
X00170341Y00479755D01*
X00169146Y00480250D01*
D02*
G37*
G36*
X00179106Y00479250D02*
X00177813D01*
X00176619Y00478755D01*
X00175705Y00477841D01*
X00175210Y00476646D01*
Y00475354D01*
X00175705Y00474159D01*
X00176619Y00473245D01*
X00177813Y00472750D01*
X00179106D01*
X00180301Y00473245D01*
X00181215Y00474159D01*
X00181710Y00475354D01*
Y00476646D01*
X00181215Y00477841D01*
X00180301Y00478755D01*
X00179106Y00479250D01*
D02*
G37*
G36*
X00363647Y00474250D02*
X00362354D01*
X00361159Y00473755D01*
X00360245Y00472841D01*
X00359750Y00471646D01*
Y00470354D01*
X00360245Y00469159D01*
X00361159Y00468245D01*
X00362354Y00467750D01*
X00363647D01*
X00364841Y00468245D01*
X00365755Y00469159D01*
X00366250Y00470354D01*
Y00471646D01*
X00365755Y00472841D01*
X00364841Y00473755D01*
X00363647Y00474250D01*
D02*
G37*
G36*
X00354146Y00474250D02*
X00352854D01*
X00351659Y00473755D01*
X00350745Y00472841D01*
X00350250Y00471646D01*
Y00470354D01*
X00350745Y00469159D01*
X00351659Y00468245D01*
X00352854Y00467750D01*
X00354146D01*
X00355341Y00468245D01*
X00356255Y00469159D01*
X00356750Y00470354D01*
Y00471646D01*
X00356255Y00472841D01*
X00355341Y00473755D01*
X00354146Y00474250D01*
D02*
G37*
G36*
X00169146Y00472250D02*
X00167854D01*
X00166659Y00471755D01*
X00165745Y00470841D01*
X00165250Y00469646D01*
Y00468354D01*
X00165745Y00467159D01*
X00166659Y00466245D01*
X00167854Y00465750D01*
X00169146D01*
X00170341Y00466245D01*
X00171255Y00467159D01*
X00171750Y00468354D01*
Y00469646D01*
X00171255Y00470841D01*
X00170341Y00471755D01*
X00169146Y00472250D01*
D02*
G37*
G36*
X00161147D02*
X00159854D01*
X00158659Y00471755D01*
X00157745Y00470841D01*
X00157250Y00469646D01*
Y00468354D01*
X00157745Y00467159D01*
X00158659Y00466245D01*
X00159854Y00465750D01*
X00161147D01*
X00162341Y00466245D01*
X00163255Y00467159D01*
X00163750Y00468354D01*
Y00469646D01*
X00163255Y00470841D01*
X00162341Y00471755D01*
X00161147Y00472250D01*
D02*
G37*
G36*
X00335146Y00465250D02*
X00333854D01*
X00332659Y00464755D01*
X00331745Y00463841D01*
X00331250Y00462646D01*
Y00461353D01*
X00331745Y00460159D01*
X00332659Y00459245D01*
X00333854Y00458750D01*
X00335146D01*
X00336341Y00459245D01*
X00337255Y00460159D01*
X00337750Y00461353D01*
Y00462646D01*
X00337255Y00463841D01*
X00336341Y00464755D01*
X00335146Y00465250D01*
D02*
G37*
G36*
X00328147Y00461250D02*
X00326854D01*
X00325659Y00460755D01*
X00324745Y00459841D01*
X00324250Y00458646D01*
Y00457354D01*
X00324745Y00456159D01*
X00325659Y00455245D01*
X00326854Y00454750D01*
X00328147D01*
X00329341Y00455245D01*
X00330255Y00456159D01*
X00330750Y00457354D01*
Y00458646D01*
X00330255Y00459841D01*
X00329341Y00460755D01*
X00328147Y00461250D01*
D02*
G37*
G36*
X00335146Y00457250D02*
X00333854D01*
X00332659Y00456755D01*
X00331745Y00455841D01*
X00331250Y00454646D01*
Y00453354D01*
X00331745Y00452159D01*
X00332659Y00451245D01*
X00333854Y00450750D01*
X00335146D01*
X00336341Y00451245D01*
X00337255Y00452159D01*
X00337750Y00453354D01*
Y00454646D01*
X00337255Y00455841D01*
X00336341Y00456755D01*
X00335146Y00457250D01*
D02*
G37*
G36*
X00328147Y00453250D02*
X00326854D01*
X00325659Y00452755D01*
X00324745Y00451841D01*
X00324250Y00450646D01*
Y00449353D01*
X00324745Y00448159D01*
X00325659Y00447245D01*
X00326854Y00446750D01*
X00328147D01*
X00329341Y00447245D01*
X00330255Y00448159D01*
X00330750Y00449353D01*
Y00450646D01*
X00330255Y00451841D01*
X00329341Y00452755D01*
X00328147Y00453250D01*
D02*
G37*
G36*
X00441646Y00441250D02*
X00440354D01*
X00439159Y00440755D01*
X00438245Y00439841D01*
X00437750Y00438646D01*
Y00437354D01*
X00438245Y00436159D01*
X00439159Y00435245D01*
X00440354Y00434750D01*
X00441646D01*
X00442841Y00435245D01*
X00443755Y00436159D01*
X00444250Y00437354D01*
Y00438646D01*
X00443755Y00439841D01*
X00442841Y00440755D01*
X00441646Y00441250D01*
D02*
G37*
G36*
X00137647Y00437250D02*
X00136354D01*
X00135159Y00436755D01*
X00134245Y00435841D01*
X00133750Y00434646D01*
Y00433354D01*
X00134245Y00432159D01*
X00135159Y00431245D01*
X00136354Y00430750D01*
X00137647D01*
X00138841Y00431245D01*
X00139755Y00432159D01*
X00140250Y00433354D01*
Y00434646D01*
X00139755Y00435841D01*
X00138841Y00436755D01*
X00137647Y00437250D01*
D02*
G37*
G36*
X00117646Y00437250D02*
X00116354D01*
X00115159Y00436755D01*
X00114245Y00435841D01*
X00113750Y00434646D01*
Y00433354D01*
X00114245Y00432159D01*
X00115159Y00431245D01*
X00116354Y00430750D01*
X00117646D01*
X00118841Y00431245D01*
X00119755Y00432159D01*
X00120250Y00433354D01*
Y00434646D01*
X00119755Y00435841D01*
X00118841Y00436755D01*
X00117646Y00437250D01*
D02*
G37*
G36*
X00106646Y00432750D02*
X00105353D01*
X00104159Y00432255D01*
X00103245Y00431341D01*
X00102750Y00430146D01*
Y00428853D01*
X00103245Y00427659D01*
X00104159Y00426745D01*
X00105353Y00426250D01*
X00106646D01*
X00107841Y00426745D01*
X00108755Y00427659D01*
X00109250Y00428853D01*
Y00430146D01*
X00108755Y00431341D01*
X00107841Y00432255D01*
X00106646Y00432750D01*
D02*
G37*
G36*
X00336751Y00423698D02*
X00335558D01*
X00334455Y00423242D01*
X00333611Y00422398D01*
X00333155Y00421295D01*
Y00420102D01*
X00333611Y00418999D01*
X00334455Y00418155D01*
X00335558Y00417698D01*
X00336751D01*
X00337854Y00418155D01*
X00338698Y00418999D01*
X00339155Y00420102D01*
Y00421295D01*
X00338698Y00422398D01*
X00337854Y00423242D01*
X00336751Y00423698D01*
D02*
G37*
G36*
X00363647Y00419250D02*
X00362354D01*
X00361159Y00418755D01*
X00360245Y00417841D01*
X00359750Y00416646D01*
Y00415354D01*
X00360245Y00414159D01*
X00361159Y00413245D01*
X00362354Y00412750D01*
X00363647D01*
X00364841Y00413245D01*
X00365755Y00414159D01*
X00366250Y00415354D01*
Y00416646D01*
X00365755Y00417841D01*
X00364841Y00418755D01*
X00363647Y00419250D01*
D02*
G37*
G36*
X00093146Y00418250D02*
X00091854D01*
X00090659Y00417755D01*
X00089745Y00416841D01*
X00089250Y00415647D01*
Y00414354D01*
X00089745Y00413159D01*
X00090659Y00412245D01*
X00091854Y00411750D01*
X00093146D01*
X00094341Y00412245D01*
X00095255Y00413159D01*
X00095750Y00414354D01*
Y00415647D01*
X00095255Y00416841D01*
X00094341Y00417755D01*
X00093146Y00418250D01*
D02*
G37*
G36*
X00083646D02*
X00082354D01*
X00081159Y00417755D01*
X00080245Y00416841D01*
X00079750Y00415647D01*
Y00414354D01*
X00080245Y00413159D01*
X00081159Y00412245D01*
X00082354Y00411750D01*
X00083646D01*
X00084841Y00412245D01*
X00085755Y00413159D01*
X00086250Y00414354D01*
Y00415647D01*
X00085755Y00416841D01*
X00084841Y00417755D01*
X00083646Y00418250D01*
D02*
G37*
G36*
X00339402Y00416970D02*
X00338208D01*
X00337106Y00416514D01*
X00336262Y00415670D01*
X00335805Y00414567D01*
Y00413374D01*
X00336262Y00412271D01*
X00337106Y00411427D01*
X00338208Y00410970D01*
X00339402D01*
X00340505Y00411427D01*
X00341348Y00412271D01*
X00341805Y00413374D01*
Y00414567D01*
X00341348Y00415670D01*
X00340505Y00416514D01*
X00339402Y00416970D01*
D02*
G37*
G36*
X00093146Y00410250D02*
X00091854D01*
X00090659Y00409755D01*
X00089745Y00408841D01*
X00089250Y00407646D01*
Y00406353D01*
X00089745Y00405159D01*
X00090659Y00404245D01*
X00091854Y00403750D01*
X00093146D01*
X00094341Y00404245D01*
X00095255Y00405159D01*
X00095750Y00406353D01*
Y00407646D01*
X00095255Y00408841D01*
X00094341Y00409755D01*
X00093146Y00410250D01*
D02*
G37*
G36*
X00355452Y00409720D02*
X00354159D01*
X00352964Y00409226D01*
X00352050Y00408312D01*
X00351555Y00407117D01*
Y00405824D01*
X00352050Y00404630D01*
X00352964Y00403715D01*
X00354159Y00403220D01*
X00355452D01*
X00356646Y00403715D01*
X00357560Y00404630D01*
X00358055Y00405824D01*
Y00407117D01*
X00357560Y00408312D01*
X00356646Y00409226D01*
X00355452Y00409720D01*
D02*
G37*
G36*
X00344597Y00398500D02*
X00343403D01*
X00342301Y00398043D01*
X00341457Y00397199D01*
X00341291Y00396800D01*
X00340209D01*
X00340043Y00397199D01*
X00339199Y00398043D01*
X00338097Y00398500D01*
X00336903D01*
X00335801Y00398043D01*
X00334957Y00397199D01*
X00334791Y00396800D01*
X00333709D01*
X00333543Y00397199D01*
X00332700Y00398043D01*
X00331597Y00398500D01*
X00330403D01*
X00329301Y00398043D01*
X00328457Y00397199D01*
X00328000Y00396097D01*
Y00394903D01*
X00328457Y00393801D01*
X00329301Y00392957D01*
X00330403Y00392500D01*
X00331597D01*
X00332700Y00392957D01*
X00333543Y00393801D01*
X00333709Y00394200D01*
X00334791D01*
X00334957Y00393801D01*
X00335801Y00392957D01*
X00336903Y00392500D01*
X00338097D01*
X00339199Y00392957D01*
X00340043Y00393801D01*
X00340209Y00394200D01*
X00341291D01*
X00341457Y00393801D01*
X00342301Y00392957D01*
X00343403Y00392500D01*
X00344597D01*
X00345700Y00392957D01*
X00346544Y00393801D01*
X00347000Y00394903D01*
Y00396097D01*
X00346544Y00397199D01*
X00345700Y00398043D01*
X00344597Y00398500D01*
D02*
G37*
G36*
X00070146Y00395750D02*
X00068854D01*
X00067659Y00395255D01*
X00066745Y00394341D01*
X00066250Y00393147D01*
Y00391853D01*
X00066745Y00390659D01*
X00067659Y00389745D01*
X00068854Y00389250D01*
X00070146D01*
X00071341Y00389745D01*
X00072255Y00390659D01*
X00072750Y00391853D01*
Y00393147D01*
X00072255Y00394341D01*
X00071341Y00395255D01*
X00070146Y00395750D01*
D02*
G37*
G36*
X00197146Y00395250D02*
X00195854D01*
X00194659Y00394755D01*
X00193745Y00393841D01*
X00193250Y00392646D01*
Y00391353D01*
X00193745Y00390159D01*
X00194659Y00389245D01*
X00195854Y00388750D01*
X00197146D01*
X00198341Y00389245D01*
X00199255Y00390159D01*
X00199750Y00391353D01*
Y00392646D01*
X00199255Y00393841D01*
X00198341Y00394755D01*
X00197146Y00395250D01*
D02*
G37*
G36*
X00203146Y00389750D02*
X00201854D01*
X00200659Y00389255D01*
X00199745Y00388341D01*
X00199250Y00387146D01*
Y00385854D01*
X00199745Y00384659D01*
X00200659Y00383745D01*
X00201854Y00383250D01*
X00203146D01*
X00204341Y00383745D01*
X00205255Y00384659D01*
X00205750Y00385854D01*
Y00387146D01*
X00205255Y00388341D01*
X00204341Y00389255D01*
X00203146Y00389750D01*
D02*
G37*
G36*
X00191147D02*
X00189854D01*
X00188659Y00389255D01*
X00187745Y00388341D01*
X00187250Y00387146D01*
Y00385854D01*
X00187745Y00384659D01*
X00188659Y00383745D01*
X00189854Y00383250D01*
X00191147D01*
X00192341Y00383745D01*
X00193255Y00384659D01*
X00193750Y00385854D01*
Y00387146D01*
X00193255Y00388341D01*
X00192341Y00389255D01*
X00191147Y00389750D01*
D02*
G37*
G36*
X00211278Y00389396D02*
X00209985D01*
X00208791Y00388902D01*
X00207876Y00387987D01*
X00207382Y00386793D01*
Y00385500D01*
X00207876Y00384305D01*
X00208791Y00383391D01*
X00209985Y00382896D01*
X00211278D01*
X00212473Y00383391D01*
X00213387Y00384305D01*
X00213882Y00385500D01*
Y00386793D01*
X00213387Y00387987D01*
X00212473Y00388902D01*
X00211278Y00389396D01*
D02*
G37*
G36*
X00022000Y00397080D02*
X00019585Y00396762D01*
X00017335Y00395830D01*
X00015403Y00394347D01*
X00013920Y00392415D01*
X00012988Y00390165D01*
X00012670Y00387750D01*
X00012988Y00385335D01*
X00013920Y00383085D01*
X00015403Y00381153D01*
X00017335Y00379670D01*
X00019585Y00378738D01*
X00022000Y00378420D01*
X00024415Y00378738D01*
X00026665Y00379670D01*
X00028597Y00381153D01*
X00030080Y00383085D01*
X00031012Y00385335D01*
X00031330Y00387750D01*
X00031012Y00390165D01*
X00030080Y00392415D01*
X00028597Y00394347D01*
X00026665Y00395830D01*
X00024415Y00396762D01*
X00022000Y00397080D01*
D02*
G37*
G36*
X00099597Y00378500D02*
X00098403D01*
X00097301Y00378043D01*
X00096457Y00377199D01*
X00096000Y00376097D01*
Y00374903D01*
X00096457Y00373801D01*
X00097301Y00372957D01*
X00098403Y00372500D01*
X00099597D01*
X00100699Y00372957D01*
X00101543Y00373801D01*
X00102000Y00374903D01*
Y00376097D01*
X00101543Y00377199D01*
X00100699Y00378043D01*
X00099597Y00378500D01*
D02*
G37*
G36*
X00092097Y00378000D02*
X00090903D01*
X00089801Y00377543D01*
X00088957Y00376699D01*
X00088500Y00375597D01*
Y00374403D01*
X00088957Y00373301D01*
X00089801Y00372457D01*
X00090903Y00372000D01*
X00092097D01*
X00093199Y00372457D01*
X00094043Y00373301D01*
X00094500Y00374403D01*
Y00375597D01*
X00094043Y00376699D01*
X00093199Y00377543D01*
X00092097Y00378000D01*
D02*
G37*
G36*
X00059010Y00373407D02*
X00057717D01*
X00056523Y00372912D01*
X00055609Y00371998D01*
X00055114Y00370803D01*
Y00369510D01*
X00055609Y00368316D01*
X00056523Y00367402D01*
X00057717Y00366907D01*
X00059010D01*
X00060205Y00367402D01*
X00061119Y00368316D01*
X00061614Y00369510D01*
Y00370803D01*
X00061119Y00371998D01*
X00060205Y00372912D01*
X00059010Y00373407D01*
D02*
G37*
G36*
X00344597Y00365500D02*
X00343403D01*
X00342301Y00365043D01*
X00341457Y00364199D01*
X00341291Y00363800D01*
X00340209D01*
X00340043Y00364199D01*
X00339199Y00365043D01*
X00338097Y00365500D01*
X00336903D01*
X00335801Y00365043D01*
X00334957Y00364199D01*
X00334791Y00363800D01*
X00333709D01*
X00333543Y00364199D01*
X00332700Y00365043D01*
X00331597Y00365500D01*
X00330403D01*
X00329301Y00365043D01*
X00328457Y00364199D01*
X00328000Y00363097D01*
Y00361903D01*
X00328457Y00360801D01*
X00329301Y00359957D01*
X00330403Y00359500D01*
X00331597D01*
X00332700Y00359957D01*
X00333543Y00360801D01*
X00333709Y00361200D01*
X00334791D01*
X00334957Y00360801D01*
X00335801Y00359957D01*
X00336903Y00359500D01*
X00338097D01*
X00339199Y00359957D01*
X00340043Y00360801D01*
X00340209Y00361200D01*
X00341291D01*
X00341457Y00360801D01*
X00342301Y00359957D01*
X00343403Y00359500D01*
X00344597D01*
X00345700Y00359957D01*
X00346544Y00360801D01*
X00347000Y00361903D01*
Y00363097D01*
X00346544Y00364199D01*
X00345700Y00365043D01*
X00344597Y00365500D01*
D02*
G37*
G36*
X00053097Y00367000D02*
X00051903D01*
X00050801Y00366543D01*
X00049957Y00365699D01*
X00049500Y00364597D01*
Y00363403D01*
X00049957Y00362301D01*
X00050801Y00361457D01*
X00051903Y00361000D01*
X00053097D01*
X00054199Y00361457D01*
X00055043Y00362301D01*
X00055500Y00363403D01*
Y00364597D01*
X00055043Y00365699D01*
X00054199Y00366543D01*
X00053097Y00367000D01*
D02*
G37*
G36*
X00165146Y00365582D02*
X00163853D01*
X00162659Y00365087D01*
X00161745Y00364173D01*
X00161250Y00362979D01*
Y00361686D01*
X00161745Y00360491D01*
X00162659Y00359577D01*
X00163853Y00359082D01*
X00165146D01*
X00166341Y00359577D01*
X00167255Y00360491D01*
X00167750Y00361686D01*
Y00362979D01*
X00167255Y00364173D01*
X00166341Y00365087D01*
X00165146Y00365582D01*
D02*
G37*
G36*
X00210646Y00364250D02*
X00209354D01*
X00208159Y00363755D01*
X00207245Y00362841D01*
X00206750Y00361646D01*
Y00360354D01*
X00207245Y00359159D01*
X00208159Y00358245D01*
X00209354Y00357750D01*
X00210646D01*
X00211841Y00358245D01*
X00212755Y00359159D01*
X00213250Y00360354D01*
Y00361646D01*
X00212755Y00362841D01*
X00211841Y00363755D01*
X00210646Y00364250D01*
D02*
G37*
G36*
X00175896Y00364000D02*
X00174604D01*
X00173409Y00363505D01*
X00172495Y00362591D01*
X00172000Y00361396D01*
Y00360103D01*
X00172495Y00358909D01*
X00173409Y00357995D01*
X00174604Y00357500D01*
X00175896D01*
X00177091Y00357995D01*
X00178005Y00358909D01*
X00178500Y00360103D01*
Y00361396D01*
X00178005Y00362591D01*
X00177091Y00363505D01*
X00175896Y00364000D01*
D02*
G37*
G36*
X00096597Y00359000D02*
X00095403D01*
X00094301Y00358543D01*
X00093457Y00357699D01*
X00093000Y00356597D01*
Y00355403D01*
X00093457Y00354301D01*
X00094301Y00353457D01*
X00095403Y00353000D01*
X00096597D01*
X00097699Y00353457D01*
X00098543Y00354301D01*
X00099000Y00355403D01*
Y00356597D01*
X00098543Y00357699D01*
X00097699Y00358543D01*
X00096597Y00359000D01*
D02*
G37*
G36*
X00145146Y00356750D02*
X00143854D01*
X00142659Y00356255D01*
X00141745Y00355341D01*
X00141250Y00354146D01*
Y00352854D01*
X00141745Y00351659D01*
X00142659Y00350745D01*
X00143854Y00350250D01*
X00145146D01*
X00146341Y00350745D01*
X00147255Y00351659D01*
X00147750Y00352854D01*
Y00354146D01*
X00147255Y00355341D01*
X00146341Y00356255D01*
X00145146Y00356750D01*
D02*
G37*
G36*
X00117147Y00355250D02*
X00115854D01*
X00114659Y00354755D01*
X00113745Y00353841D01*
X00113250Y00352646D01*
Y00351354D01*
X00113745Y00350159D01*
X00114659Y00349245D01*
X00115854Y00348750D01*
X00117147D01*
X00118341Y00349245D01*
X00119255Y00350159D01*
X00119750Y00351354D01*
Y00352646D01*
X00119255Y00353841D01*
X00118341Y00354755D01*
X00117147Y00355250D01*
D02*
G37*
G36*
X00104597Y00354000D02*
X00103403D01*
X00102301Y00353543D01*
X00101457Y00352699D01*
X00101000Y00351597D01*
Y00350403D01*
X00101457Y00349301D01*
X00102301Y00348457D01*
X00103403Y00348000D01*
X00104597D01*
X00105699Y00348457D01*
X00106543Y00349301D01*
X00107000Y00350403D01*
Y00351597D01*
X00106543Y00352699D01*
X00105699Y00353543D01*
X00104597Y00354000D01*
D02*
G37*
G36*
X00150803Y00351093D02*
X00149510D01*
X00148316Y00350598D01*
X00147402Y00349684D01*
X00146907Y00348490D01*
Y00347197D01*
X00147402Y00346002D01*
X00148316Y00345088D01*
X00149510Y00344593D01*
X00150803D01*
X00151998Y00345088D01*
X00152912Y00346002D01*
X00153407Y00347197D01*
Y00348490D01*
X00152912Y00349684D01*
X00151998Y00350598D01*
X00150803Y00351093D01*
D02*
G37*
G36*
X00079597Y00350000D02*
X00078403D01*
X00077301Y00349543D01*
X00076457Y00348699D01*
X00076000Y00347597D01*
Y00346403D01*
X00076457Y00345301D01*
X00077301Y00344457D01*
X00078403Y00344000D01*
X00079597D01*
X00080699Y00344457D01*
X00081543Y00345301D01*
X00082000Y00346403D01*
Y00347597D01*
X00081543Y00348699D01*
X00080699Y00349543D01*
X00079597Y00350000D01*
D02*
G37*
G36*
X00145146Y00343250D02*
X00143854D01*
X00142659Y00342755D01*
X00141745Y00341841D01*
X00141250Y00340647D01*
Y00339354D01*
X00141745Y00338159D01*
X00142659Y00337245D01*
X00143854Y00336750D01*
X00145146D01*
X00146341Y00337245D01*
X00147255Y00338159D01*
X00147750Y00339354D01*
Y00340647D01*
X00147255Y00341841D01*
X00146341Y00342755D01*
X00145146Y00343250D01*
D02*
G37*
G36*
X00079597Y00342500D02*
X00078403D01*
X00077301Y00342043D01*
X00076457Y00341199D01*
X00076000Y00340097D01*
Y00338903D01*
X00076457Y00337801D01*
X00077301Y00336957D01*
X00078403Y00336500D01*
X00079597D01*
X00080699Y00336957D01*
X00081543Y00337801D01*
X00082000Y00338903D01*
Y00340097D01*
X00081543Y00341199D01*
X00080699Y00342043D01*
X00079597Y00342500D01*
D02*
G37*
G36*
X00022000Y00354580D02*
X00019585Y00354262D01*
X00017335Y00353330D01*
X00015403Y00351847D01*
X00013920Y00349915D01*
X00012988Y00347665D01*
X00012670Y00345250D01*
X00012988Y00342835D01*
X00013920Y00340585D01*
X00015403Y00338653D01*
X00017335Y00337170D01*
X00019585Y00336238D01*
X00022000Y00335920D01*
X00024415Y00336238D01*
X00026665Y00337170D01*
X00028597Y00338653D01*
X00030080Y00340585D01*
X00031012Y00342835D01*
X00031330Y00345250D01*
X00031012Y00347665D01*
X00030080Y00349915D01*
X00028597Y00351847D01*
X00026665Y00353330D01*
X00024415Y00354262D01*
X00022000Y00354580D01*
D02*
G37*
G36*
X00079597Y00335000D02*
X00078403D01*
X00077301Y00334543D01*
X00076457Y00333699D01*
X00076000Y00332597D01*
Y00331403D01*
X00076457Y00330301D01*
X00077301Y00329457D01*
X00078403Y00329000D01*
X00079597D01*
X00080699Y00329457D01*
X00081543Y00330301D01*
X00082000Y00331403D01*
Y00332597D01*
X00081543Y00333699D01*
X00080699Y00334543D01*
X00079597Y00335000D01*
D02*
G37*
G36*
X00068945Y00376250D02*
X00067055D01*
X00065309Y00375527D01*
X00063973Y00374191D01*
X00063250Y00372445D01*
Y00370555D01*
X00063412Y00370164D01*
Y00358900D01*
X00048756Y00344244D01*
X00047761Y00342756D01*
X00047412Y00341000D01*
Y00334836D01*
X00047250Y00334445D01*
Y00332555D01*
X00047973Y00330809D01*
X00049309Y00329473D01*
X00051055Y00328750D01*
X00052945D01*
X00054691Y00329473D01*
X00056027Y00330809D01*
X00056750Y00332555D01*
Y00334445D01*
X00056588Y00334836D01*
Y00339100D01*
X00071244Y00353756D01*
X00072239Y00355244D01*
X00072588Y00357000D01*
Y00370164D01*
X00072750Y00370555D01*
Y00372445D01*
X00072027Y00374191D01*
X00070691Y00375527D01*
X00068945Y00376250D01*
D02*
G37*
G36*
X00362622Y00331541D02*
X00361329D01*
X00360135Y00331047D01*
X00359220Y00330132D01*
X00358726Y00328938D01*
Y00327645D01*
X00359220Y00326451D01*
X00360135Y00325536D01*
X00361329Y00325042D01*
X00362622D01*
X00363817Y00325536D01*
X00364731Y00326451D01*
X00365226Y00327645D01*
Y00328938D01*
X00364731Y00330132D01*
X00363817Y00331047D01*
X00362622Y00331541D01*
D02*
G37*
G36*
X00172646Y00330750D02*
X00171353D01*
X00170159Y00330255D01*
X00169245Y00329341D01*
X00168750Y00328146D01*
Y00326853D01*
X00169245Y00325659D01*
X00170159Y00324745D01*
X00171353Y00324250D01*
X00172646D01*
X00173841Y00324745D01*
X00174755Y00325659D01*
X00175250Y00326853D01*
Y00328146D01*
X00174755Y00329341D01*
X00173841Y00330255D01*
X00172646Y00330750D01*
D02*
G37*
G36*
X00079597Y00327500D02*
X00078403D01*
X00077301Y00327043D01*
X00076457Y00326199D01*
X00076000Y00325097D01*
Y00323903D01*
X00076457Y00322801D01*
X00077301Y00321957D01*
X00078403Y00321500D01*
X00079597D01*
X00080699Y00321957D01*
X00081543Y00322801D01*
X00082000Y00323903D01*
Y00325097D01*
X00081543Y00326199D01*
X00080699Y00327043D01*
X00079597Y00327500D01*
D02*
G37*
G36*
X00327952Y00326221D02*
X00326659D01*
X00325464Y00325726D01*
X00324550Y00324811D01*
X00324055Y00323617D01*
Y00322324D01*
X00324550Y00321129D01*
X00325464Y00320215D01*
X00326659Y00319720D01*
X00327952D01*
X00329146Y00320215D01*
X00330060Y00321129D01*
X00330555Y00322324D01*
Y00323617D01*
X00330060Y00324811D01*
X00329146Y00325726D01*
X00327952Y00326221D01*
D02*
G37*
G36*
X00200147Y00323250D02*
X00198854D01*
X00197659Y00322755D01*
X00196745Y00321841D01*
X00196250Y00320647D01*
Y00319354D01*
X00196745Y00318159D01*
X00197659Y00317245D01*
X00198854Y00316750D01*
X00200147D01*
X00201341Y00317245D01*
X00202255Y00318159D01*
X00202750Y00319354D01*
Y00320647D01*
X00202255Y00321841D01*
X00201341Y00322755D01*
X00200147Y00323250D01*
D02*
G37*
G36*
X00190147D02*
X00188853D01*
X00187659Y00322755D01*
X00186745Y00321841D01*
X00186250Y00320647D01*
Y00319354D01*
X00186745Y00318159D01*
X00187659Y00317245D01*
X00188853Y00316750D01*
X00190147D01*
X00191341Y00317245D01*
X00192255Y00318159D01*
X00192750Y00319354D01*
Y00320647D01*
X00192255Y00321841D01*
X00191341Y00322755D01*
X00190147Y00323250D01*
D02*
G37*
G36*
X00040146Y00322750D02*
X00038853D01*
X00037659Y00322255D01*
X00036745Y00321341D01*
X00036250Y00320146D01*
Y00318853D01*
X00036745Y00317659D01*
X00037659Y00316745D01*
X00038853Y00316250D01*
X00040146D01*
X00041341Y00316745D01*
X00042255Y00317659D01*
X00042750Y00318853D01*
Y00320146D01*
X00042255Y00321341D01*
X00041341Y00322255D01*
X00040146Y00322750D01*
D02*
G37*
G36*
X00079597Y00320000D02*
X00078403D01*
X00077301Y00319543D01*
X00076457Y00318699D01*
X00076000Y00317597D01*
Y00316403D01*
X00076457Y00315301D01*
X00077301Y00314457D01*
X00078403Y00314000D01*
X00079597D01*
X00080699Y00314457D01*
X00081543Y00315301D01*
X00082000Y00316403D01*
Y00317597D01*
X00081543Y00318699D01*
X00080699Y00319543D01*
X00079597Y00320000D01*
D02*
G37*
G36*
X00123003Y00318893D02*
X00121710D01*
X00120516Y00318398D01*
X00119602Y00317484D01*
X00119107Y00316290D01*
Y00314997D01*
X00119602Y00313802D01*
X00120516Y00312888D01*
X00121710Y00312393D01*
X00123003D01*
X00124198Y00312888D01*
X00125112Y00313802D01*
X00125607Y00314997D01*
Y00316290D01*
X00125112Y00317484D01*
X00124198Y00318398D01*
X00123003Y00318893D01*
D02*
G37*
G36*
X00052646Y00314750D02*
X00051354D01*
X00050159Y00314255D01*
X00049245Y00313341D01*
X00048750Y00312146D01*
Y00310854D01*
X00049245Y00309659D01*
X00050159Y00308745D01*
X00051354Y00308250D01*
X00052646D01*
X00053841Y00308745D01*
X00054755Y00309659D01*
X00055250Y00310854D01*
Y00312146D01*
X00054755Y00313341D01*
X00053841Y00314255D01*
X00052646Y00314750D01*
D02*
G37*
G36*
X00146646Y00313250D02*
X00145353D01*
X00144159Y00312755D01*
X00143245Y00311841D01*
X00142750Y00310646D01*
Y00309354D01*
X00143245Y00308159D01*
X00144159Y00307245D01*
X00145353Y00306750D01*
X00146646D01*
X00147841Y00307245D01*
X00148755Y00308159D01*
X00149250Y00309354D01*
Y00310646D01*
X00148755Y00311841D01*
X00147841Y00312755D01*
X00146646Y00313250D01*
D02*
G37*
G36*
X00087647Y00311750D02*
X00086354D01*
X00085159Y00311255D01*
X00084245Y00310341D01*
X00083750Y00309146D01*
Y00307854D01*
X00084245Y00306659D01*
X00085159Y00305745D01*
X00086354Y00305250D01*
X00087647D01*
X00088841Y00305745D01*
X00089755Y00306659D01*
X00090250Y00307854D01*
Y00309146D01*
X00089755Y00310341D01*
X00088841Y00311255D01*
X00087647Y00311750D01*
D02*
G37*
G36*
X00123646Y00308250D02*
X00122354D01*
X00121159Y00307755D01*
X00120245Y00306841D01*
X00119750Y00305646D01*
Y00304354D01*
X00120245Y00303159D01*
X00121159Y00302245D01*
X00122354Y00301750D01*
X00123646D01*
X00124841Y00302245D01*
X00125755Y00303159D01*
X00126250Y00304354D01*
Y00305646D01*
X00125755Y00306841D01*
X00124841Y00307755D01*
X00123646Y00308250D01*
D02*
G37*
G36*
X00080146Y00307750D02*
X00078854D01*
X00077659Y00307255D01*
X00076745Y00306341D01*
X00076250Y00305147D01*
Y00303853D01*
X00076745Y00302659D01*
X00077659Y00301745D01*
X00078854Y00301250D01*
X00080146D01*
X00081341Y00301745D01*
X00082255Y00302659D01*
X00082750Y00303853D01*
Y00305147D01*
X00082255Y00306341D01*
X00081341Y00307255D01*
X00080146Y00307750D01*
D02*
G37*
G36*
X00022000Y00319080D02*
X00019585Y00318762D01*
X00017335Y00317830D01*
X00015403Y00316347D01*
X00013920Y00314415D01*
X00012988Y00312165D01*
X00012670Y00309750D01*
X00012988Y00307335D01*
X00013920Y00305085D01*
X00015403Y00303153D01*
X00017335Y00301670D01*
X00019585Y00300738D01*
X00022000Y00300420D01*
X00024415Y00300738D01*
X00026665Y00301670D01*
X00028597Y00303153D01*
X00030080Y00305085D01*
X00031012Y00307335D01*
X00031330Y00309750D01*
X00031012Y00312165D01*
X00030080Y00314415D01*
X00028597Y00316347D01*
X00026665Y00317830D01*
X00024415Y00318762D01*
X00022000Y00319080D01*
D02*
G37*
G36*
X00365647Y00304250D02*
X00364354D01*
X00363159Y00303755D01*
X00362245Y00302841D01*
X00361750Y00301646D01*
Y00300354D01*
X00362245Y00299159D01*
X00363159Y00298245D01*
X00364354Y00297750D01*
X00365647D01*
X00366841Y00298245D01*
X00367755Y00299159D01*
X00368250Y00300354D01*
Y00301646D01*
X00367755Y00302841D01*
X00366841Y00303755D01*
X00365647Y00304250D01*
D02*
G37*
G36*
X00294146Y00296750D02*
X00292854D01*
X00291659Y00296255D01*
X00290745Y00295341D01*
X00290250Y00294146D01*
Y00292854D01*
X00290745Y00291659D01*
X00291659Y00290745D01*
X00292854Y00290250D01*
X00294146D01*
X00295341Y00290745D01*
X00296255Y00291659D01*
X00296750Y00292854D01*
Y00294146D01*
X00296255Y00295341D01*
X00295341Y00296255D01*
X00294146Y00296750D01*
D02*
G37*
G36*
X00052147Y00284750D02*
X00050854D01*
X00049659Y00284255D01*
X00048745Y00283341D01*
X00048250Y00282146D01*
Y00280854D01*
X00048745Y00279659D01*
X00049659Y00278745D01*
X00050854Y00278250D01*
X00052147D01*
X00053341Y00278745D01*
X00054255Y00279659D01*
X00054750Y00280854D01*
Y00282146D01*
X00054255Y00283341D01*
X00053341Y00284255D01*
X00052147Y00284750D01*
D02*
G37*
G36*
X00082647Y00278750D02*
X00081354D01*
X00080159Y00278255D01*
X00079245Y00277341D01*
X00078750Y00276147D01*
Y00274854D01*
X00079245Y00273659D01*
X00080159Y00272745D01*
X00081354Y00272250D01*
X00082647D01*
X00083841Y00272745D01*
X00084755Y00273659D01*
X00085250Y00274854D01*
Y00276147D01*
X00084755Y00277341D01*
X00083841Y00278255D01*
X00082647Y00278750D01*
D02*
G37*
G36*
X00108646Y00278750D02*
X00107354D01*
X00106159Y00278255D01*
X00105245Y00277341D01*
X00104750Y00276147D01*
Y00274854D01*
X00105245Y00273659D01*
X00106159Y00272745D01*
X00107354Y00272250D01*
X00108646D01*
X00109841Y00272745D01*
X00110755Y00273659D01*
X00111250Y00274854D01*
Y00276147D01*
X00110755Y00277341D01*
X00109841Y00278255D01*
X00108646Y00278750D01*
D02*
G37*
G36*
X00098646D02*
X00097354D01*
X00096159Y00278255D01*
X00095245Y00277341D01*
X00094750Y00276147D01*
Y00274854D01*
X00095245Y00273659D01*
X00096159Y00272745D01*
X00097354Y00272250D01*
X00098646D01*
X00099841Y00272745D01*
X00100755Y00273659D01*
X00101250Y00274854D01*
Y00276147D01*
X00100755Y00277341D01*
X00099841Y00278255D01*
X00098646Y00278750D01*
D02*
G37*
G36*
X00392646Y00277750D02*
X00391354D01*
X00390159Y00277255D01*
X00389245Y00276341D01*
X00388750Y00275146D01*
Y00273853D01*
X00389245Y00272659D01*
X00390159Y00271745D01*
X00391354Y00271250D01*
X00392646D01*
X00393841Y00271745D01*
X00394755Y00272659D01*
X00395250Y00273853D01*
Y00275146D01*
X00394755Y00276341D01*
X00393841Y00277255D01*
X00392646Y00277750D01*
D02*
G37*
G36*
X00022000Y00276580D02*
X00019585Y00276262D01*
X00017335Y00275330D01*
X00015403Y00273847D01*
X00013920Y00271915D01*
X00012988Y00269665D01*
X00012670Y00267250D01*
X00012988Y00264835D01*
X00013920Y00262585D01*
X00015403Y00260653D01*
X00017335Y00259170D01*
X00019585Y00258238D01*
X00022000Y00257920D01*
X00024415Y00258238D01*
X00026665Y00259170D01*
X00028597Y00260653D01*
X00030080Y00262585D01*
X00031012Y00264835D01*
X00031330Y00267250D01*
X00031012Y00269665D01*
X00030080Y00271915D01*
X00028597Y00273847D01*
X00026665Y00275330D01*
X00024415Y00276262D01*
X00022000Y00276580D01*
D02*
G37*
G36*
X00120147Y00258250D02*
X00118854D01*
X00117659Y00257755D01*
X00116745Y00256841D01*
X00116250Y00255646D01*
Y00254354D01*
X00116745Y00253159D01*
X00117659Y00252245D01*
X00118854Y00251750D01*
X00120147D01*
X00121341Y00252245D01*
X00122255Y00253159D01*
X00122750Y00254354D01*
Y00255646D01*
X00122255Y00256841D01*
X00121341Y00257755D01*
X00120147Y00258250D01*
D02*
G37*
G36*
X00330647Y00255250D02*
X00329353D01*
X00328159Y00254755D01*
X00327245Y00253841D01*
X00326750Y00252647D01*
Y00251353D01*
X00327245Y00250159D01*
X00328159Y00249245D01*
X00329353Y00248750D01*
X00330647D01*
X00331841Y00249245D01*
X00332755Y00250159D01*
X00333250Y00251353D01*
Y00252647D01*
X00332755Y00253841D01*
X00331841Y00254755D01*
X00330647Y00255250D01*
D02*
G37*
G36*
X00052147Y00254750D02*
X00050854D01*
X00049659Y00254255D01*
X00048745Y00253341D01*
X00048250Y00252146D01*
Y00250854D01*
X00048745Y00249659D01*
X00049659Y00248745D01*
X00050854Y00248250D01*
X00052147D01*
X00053341Y00248745D01*
X00054255Y00249659D01*
X00054750Y00250854D01*
Y00252146D01*
X00054255Y00253341D01*
X00053341Y00254255D01*
X00052147Y00254750D01*
D02*
G37*
G36*
X00159146Y00242750D02*
X00157853D01*
X00156659Y00242255D01*
X00155745Y00241341D01*
X00155250Y00240147D01*
Y00238853D01*
X00155745Y00237659D01*
X00156659Y00236745D01*
X00157853Y00236250D01*
X00159146D01*
X00160341Y00236745D01*
X00161255Y00237659D01*
X00161750Y00238853D01*
Y00240147D01*
X00161255Y00241341D01*
X00160341Y00242255D01*
X00159146Y00242750D01*
D02*
G37*
G36*
X00071646Y00241250D02*
X00070354D01*
X00069159Y00240755D01*
X00068245Y00239841D01*
X00067750Y00238647D01*
Y00237354D01*
X00068245Y00236159D01*
X00069159Y00235245D01*
X00070354Y00234750D01*
X00071646D01*
X00072841Y00235245D01*
X00073755Y00236159D01*
X00074250Y00237354D01*
Y00238647D01*
X00073755Y00239841D01*
X00072841Y00240755D01*
X00071646Y00241250D01*
D02*
G37*
G36*
X00329646Y00240250D02*
X00328354D01*
X00327159Y00239755D01*
X00326245Y00238841D01*
X00325750Y00237647D01*
Y00236354D01*
X00326245Y00235159D01*
X00327159Y00234245D01*
X00328354Y00233750D01*
X00329646D01*
X00330841Y00234245D01*
X00331755Y00235159D01*
X00332250Y00236354D01*
Y00237647D01*
X00331755Y00238841D01*
X00330841Y00239755D01*
X00329646Y00240250D01*
D02*
G37*
G36*
X00120146Y00233250D02*
X00118854D01*
X00117659Y00232755D01*
X00116745Y00231841D01*
X00116250Y00230646D01*
Y00229354D01*
X00116745Y00228159D01*
X00117659Y00227245D01*
X00118854Y00226750D01*
X00120146D01*
X00121341Y00227245D01*
X00122255Y00228159D01*
X00122750Y00229354D01*
Y00230646D01*
X00122255Y00231841D01*
X00121341Y00232755D01*
X00120146Y00233250D01*
D02*
G37*
G36*
X00389146Y00231250D02*
X00387854D01*
X00386659Y00230755D01*
X00385745Y00229841D01*
X00385250Y00228647D01*
Y00227353D01*
X00385745Y00226159D01*
X00386659Y00225245D01*
X00387854Y00224750D01*
X00389146D01*
X00390341Y00225245D01*
X00391255Y00226159D01*
X00391750Y00227353D01*
Y00228647D01*
X00391255Y00229841D01*
X00390341Y00230755D01*
X00389146Y00231250D01*
D02*
G37*
G36*
X00234000Y00267320D02*
X00230665Y00267057D01*
X00227413Y00266277D01*
X00224323Y00264997D01*
X00221471Y00263249D01*
X00218927Y00261077D01*
X00216755Y00258533D01*
X00215008Y00255681D01*
X00213728Y00252591D01*
X00212947Y00249339D01*
X00212684Y00246004D01*
X00212947Y00242670D01*
X00213728Y00239417D01*
X00215008Y00236327D01*
X00216755Y00233475D01*
X00218927Y00230932D01*
X00221471Y00228759D01*
X00224323Y00227012D01*
X00227413Y00225732D01*
X00230665Y00224951D01*
X00234000Y00224689D01*
X00237334Y00224951D01*
X00240587Y00225732D01*
X00243677Y00227012D01*
X00246529Y00228759D01*
X00249072Y00230932D01*
X00251245Y00233475D01*
X00252992Y00236327D01*
X00254272Y00239417D01*
X00255053Y00242670D01*
X00255316Y00246004D01*
X00255053Y00249339D01*
X00254272Y00252591D01*
X00252992Y00255681D01*
X00251245Y00258533D01*
X00249072Y00261077D01*
X00246529Y00263249D01*
X00243677Y00264997D01*
X00240587Y00266277D01*
X00237334Y00267057D01*
X00234000Y00267320D01*
D02*
G37*
G36*
X00130147Y00225750D02*
X00128854D01*
X00127659Y00225255D01*
X00126745Y00224341D01*
X00126250Y00223146D01*
Y00221854D01*
X00126745Y00220659D01*
X00127659Y00219745D01*
X00128854Y00219250D01*
X00130147D01*
X00131341Y00219745D01*
X00132255Y00220659D01*
X00132750Y00221854D01*
Y00223146D01*
X00132255Y00224341D01*
X00131341Y00225255D01*
X00130147Y00225750D01*
D02*
G37*
G36*
X00154146Y00220250D02*
X00152853D01*
X00151659Y00219755D01*
X00150745Y00218841D01*
X00150250Y00217647D01*
Y00216353D01*
X00150745Y00215159D01*
X00151659Y00214245D01*
X00152853Y00213750D01*
X00154146D01*
X00155341Y00214245D01*
X00156255Y00215159D01*
X00156750Y00216353D01*
Y00217647D01*
X00156255Y00218841D01*
X00155341Y00219755D01*
X00154146Y00220250D01*
D02*
G37*
G36*
X00101646Y00199250D02*
X00100353D01*
X00099159Y00198755D01*
X00098245Y00197841D01*
X00097750Y00196646D01*
Y00195354D01*
X00098245Y00194159D01*
X00099159Y00193245D01*
X00100353Y00192750D01*
X00101646D01*
X00102841Y00193245D01*
X00103755Y00194159D01*
X00104250Y00195354D01*
Y00196646D01*
X00103755Y00197841D01*
X00102841Y00198755D01*
X00101646Y00199250D01*
D02*
G37*
G36*
X00276646Y00181250D02*
X00275354D01*
X00274159Y00180755D01*
X00273245Y00179841D01*
X00272750Y00178647D01*
Y00177353D01*
X00273245Y00176159D01*
X00274159Y00175245D01*
X00275354Y00174750D01*
X00276646D01*
X00277841Y00175245D01*
X00278755Y00176159D01*
X00279250Y00177353D01*
Y00178647D01*
X00278755Y00179841D01*
X00277841Y00180755D01*
X00276646Y00181250D01*
D02*
G37*
G36*
X00316646Y00179250D02*
X00315354D01*
X00314159Y00178755D01*
X00313245Y00177841D01*
X00312750Y00176646D01*
Y00175354D01*
X00313245Y00174159D01*
X00314159Y00173245D01*
X00315354Y00172750D01*
X00316646D01*
X00317841Y00173245D01*
X00318755Y00174159D01*
X00319250Y00175354D01*
Y00176646D01*
X00318755Y00177841D01*
X00317841Y00178755D01*
X00316646Y00179250D01*
D02*
G37*
G36*
X00144146Y00174750D02*
X00142853D01*
X00141659Y00174255D01*
X00140745Y00173341D01*
X00140250Y00172146D01*
Y00170854D01*
X00140745Y00169659D01*
X00141659Y00168745D01*
X00142853Y00168250D01*
X00144146D01*
X00145341Y00168745D01*
X00146255Y00169659D01*
X00146750Y00170854D01*
Y00172146D01*
X00146255Y00173341D01*
X00145341Y00174255D01*
X00144146Y00174750D01*
D02*
G37*
G36*
X00198391Y00173495D02*
X00197098D01*
X00195904Y00173000D01*
X00194989Y00172086D01*
X00194495Y00170891D01*
Y00169598D01*
X00194989Y00168404D01*
X00195904Y00167489D01*
X00197098Y00166995D01*
X00198391D01*
X00199586Y00167489D01*
X00200500Y00168404D01*
X00200995Y00169598D01*
Y00170891D01*
X00200500Y00172086D01*
X00199586Y00173000D01*
X00198391Y00173495D01*
D02*
G37*
G36*
X00216646Y00173250D02*
X00215354D01*
X00214159Y00172755D01*
X00213245Y00171841D01*
X00212750Y00170646D01*
Y00169354D01*
X00213245Y00168159D01*
X00214159Y00167245D01*
X00215354Y00166750D01*
X00216646D01*
X00217841Y00167245D01*
X00218755Y00168159D01*
X00219250Y00169354D01*
Y00170646D01*
X00218755Y00171841D01*
X00217841Y00172755D01*
X00216646Y00173250D01*
D02*
G37*
G36*
X00394646Y00172750D02*
X00393354D01*
X00392159Y00172255D01*
X00391245Y00171341D01*
X00390750Y00170146D01*
Y00168853D01*
X00391245Y00167659D01*
X00392159Y00166745D01*
X00393354Y00166250D01*
X00394646D01*
X00395841Y00166745D01*
X00396755Y00167659D01*
X00397250Y00168853D01*
Y00170146D01*
X00396755Y00171341D01*
X00395841Y00172255D01*
X00394646Y00172750D01*
D02*
G37*
G36*
X00191320Y00166424D02*
X00190027D01*
X00188833Y00165929D01*
X00187918Y00165015D01*
X00187424Y00163820D01*
Y00162527D01*
X00187918Y00161333D01*
X00188833Y00160418D01*
X00190027Y00159924D01*
X00191320D01*
X00192515Y00160418D01*
X00193429Y00161333D01*
X00193924Y00162527D01*
Y00163820D01*
X00193429Y00165015D01*
X00192515Y00165929D01*
X00191320Y00166424D01*
D02*
G37*
G36*
X00313146Y00163250D02*
X00311854D01*
X00310659Y00162755D01*
X00309745Y00161841D01*
X00309250Y00160646D01*
Y00159354D01*
X00309745Y00158159D01*
X00310659Y00157245D01*
X00311854Y00156750D01*
X00313146D01*
X00314341Y00157245D01*
X00315255Y00158159D01*
X00315750Y00159354D01*
Y00160646D01*
X00315255Y00161841D01*
X00314341Y00162755D01*
X00313146Y00163250D01*
D02*
G37*
G36*
X00339646Y00163250D02*
X00338354D01*
X00337159Y00162755D01*
X00336245Y00161841D01*
X00335750Y00160646D01*
Y00159354D01*
X00336245Y00158159D01*
X00337159Y00157245D01*
X00338354Y00156750D01*
X00339646D01*
X00340841Y00157245D01*
X00341755Y00158159D01*
X00342250Y00159354D01*
Y00160646D01*
X00341755Y00161841D01*
X00340841Y00162755D01*
X00339646Y00163250D01*
D02*
G37*
G36*
X00293146Y00158250D02*
X00291854D01*
X00290659Y00157755D01*
X00289745Y00156841D01*
X00289250Y00155646D01*
Y00154354D01*
X00289745Y00153159D01*
X00290659Y00152245D01*
X00291854Y00151750D01*
X00293146D01*
X00294341Y00152245D01*
X00295255Y00153159D01*
X00295750Y00154354D01*
Y00155646D01*
X00295255Y00156841D01*
X00294341Y00157755D01*
X00293146Y00158250D01*
D02*
G37*
G36*
X00110147Y00152750D02*
X00108854D01*
X00107659Y00152255D01*
X00106745Y00151341D01*
X00106250Y00150147D01*
Y00148854D01*
X00106745Y00147659D01*
X00107659Y00146745D01*
X00108854Y00146250D01*
X00110147D01*
X00111341Y00146745D01*
X00112255Y00147659D01*
X00112750Y00148854D01*
Y00150147D01*
X00112255Y00151341D01*
X00111341Y00152255D01*
X00110147Y00152750D01*
D02*
G37*
G36*
X00038147Y00145750D02*
X00036853D01*
X00035659Y00145255D01*
X00034745Y00144341D01*
X00034250Y00143146D01*
Y00141854D01*
X00034745Y00140659D01*
X00035659Y00139745D01*
X00036853Y00139250D01*
X00038147D01*
X00039341Y00139745D01*
X00040255Y00140659D01*
X00040750Y00141854D01*
Y00143146D01*
X00040255Y00144341D01*
X00039341Y00145255D01*
X00038147Y00145750D01*
D02*
G37*
G36*
X00011646D02*
X00010353D01*
X00009159Y00145255D01*
X00008245Y00144341D01*
X00007750Y00143146D01*
Y00141854D01*
X00008245Y00140659D01*
X00009159Y00139745D01*
X00010353Y00139250D01*
X00011646D01*
X00012841Y00139745D01*
X00013755Y00140659D01*
X00014250Y00141854D01*
Y00143146D01*
X00013755Y00144341D01*
X00012841Y00145255D01*
X00011646Y00145750D01*
D02*
G37*
G36*
X00356147Y00144750D02*
X00354854D01*
X00353659Y00144255D01*
X00352745Y00143341D01*
X00352250Y00142147D01*
Y00140854D01*
X00352745Y00139659D01*
X00353659Y00138745D01*
X00354854Y00138250D01*
X00356147D01*
X00357341Y00138745D01*
X00358255Y00139659D01*
X00358750Y00140854D01*
Y00142147D01*
X00358255Y00143341D01*
X00357341Y00144255D01*
X00356147Y00144750D01*
D02*
G37*
G36*
X00419646Y00144250D02*
X00418354D01*
X00417159Y00143755D01*
X00416245Y00142841D01*
X00415750Y00141646D01*
Y00140353D01*
X00416245Y00139159D01*
X00417159Y00138245D01*
X00418354Y00137750D01*
X00419646D01*
X00420841Y00138245D01*
X00421755Y00139159D01*
X00422250Y00140353D01*
Y00141646D01*
X00421755Y00142841D01*
X00420841Y00143755D01*
X00419646Y00144250D01*
D02*
G37*
G36*
X00110147Y00140250D02*
X00108854D01*
X00107659Y00139755D01*
X00106745Y00138841D01*
X00106250Y00137647D01*
Y00136354D01*
X00106745Y00135159D01*
X00107659Y00134245D01*
X00108854Y00133750D01*
X00110147D01*
X00111341Y00134245D01*
X00112255Y00135159D01*
X00112750Y00136354D01*
Y00137647D01*
X00112255Y00138841D01*
X00111341Y00139755D01*
X00110147Y00140250D01*
D02*
G37*
G36*
X00174146Y00139250D02*
X00172854D01*
X00171659Y00138755D01*
X00170745Y00137841D01*
X00170250Y00136646D01*
Y00135354D01*
X00170745Y00134159D01*
X00171659Y00133245D01*
X00172854Y00132750D01*
X00174146D01*
X00175341Y00133245D01*
X00176255Y00134159D01*
X00176750Y00135354D01*
Y00136646D01*
X00176255Y00137841D01*
X00175341Y00138755D01*
X00174146Y00139250D01*
D02*
G37*
G36*
X00373646Y00136250D02*
X00372354D01*
X00371159Y00135755D01*
X00370245Y00134841D01*
X00369750Y00133646D01*
Y00132353D01*
X00370245Y00131159D01*
X00371159Y00130245D01*
X00372354Y00129750D01*
X00373646D01*
X00374841Y00130245D01*
X00375755Y00131159D01*
X00376250Y00132353D01*
Y00133646D01*
X00375755Y00134841D01*
X00374841Y00135755D01*
X00373646Y00136250D01*
D02*
G37*
G36*
X00352146Y00132250D02*
X00350854D01*
X00349659Y00131755D01*
X00348745Y00130841D01*
X00348250Y00129647D01*
Y00128354D01*
X00348745Y00127159D01*
X00349659Y00126245D01*
X00350854Y00125750D01*
X00352146D01*
X00353341Y00126245D01*
X00354255Y00127159D01*
X00354750Y00128354D01*
Y00129647D01*
X00354255Y00130841D01*
X00353341Y00131755D01*
X00352146Y00132250D01*
D02*
G37*
G36*
X00361646Y00127250D02*
X00360354D01*
X00359159Y00126755D01*
X00358245Y00125841D01*
X00357750Y00124647D01*
Y00123354D01*
X00358245Y00122159D01*
X00359159Y00121245D01*
X00360354Y00120750D01*
X00361646D01*
X00362841Y00121245D01*
X00363755Y00122159D01*
X00364250Y00123354D01*
Y00124647D01*
X00363755Y00125841D01*
X00362841Y00126755D01*
X00361646Y00127250D01*
D02*
G37*
G36*
X00264146D02*
X00262854D01*
X00261659Y00126755D01*
X00260745Y00125841D01*
X00260250Y00124647D01*
Y00123354D01*
X00260745Y00122159D01*
X00261659Y00121245D01*
X00262854Y00120750D01*
X00264146D01*
X00265341Y00121245D01*
X00266255Y00122159D01*
X00266750Y00123354D01*
Y00124647D01*
X00266255Y00125841D01*
X00265341Y00126755D01*
X00264146Y00127250D01*
D02*
G37*
G36*
X00352146Y00123750D02*
X00350854D01*
X00349659Y00123255D01*
X00348745Y00122341D01*
X00348250Y00121146D01*
Y00119853D01*
X00348745Y00118659D01*
X00349659Y00117745D01*
X00350854Y00117250D01*
X00352146D01*
X00353341Y00117745D01*
X00354255Y00118659D01*
X00354750Y00119853D01*
Y00121146D01*
X00354255Y00122341D01*
X00353341Y00123255D01*
X00352146Y00123750D01*
D02*
G37*
G36*
X00288647Y00119250D02*
X00287354D01*
X00286159Y00118755D01*
X00285245Y00117841D01*
X00284750Y00116646D01*
Y00115354D01*
X00285245Y00114159D01*
X00286159Y00113245D01*
X00287354Y00112750D01*
X00288647D01*
X00289841Y00113245D01*
X00290755Y00114159D01*
X00291250Y00115354D01*
Y00116646D01*
X00290755Y00117841D01*
X00289841Y00118755D01*
X00288647Y00119250D01*
D02*
G37*
G36*
X00264146Y00119250D02*
X00262854D01*
X00261659Y00118755D01*
X00260745Y00117841D01*
X00260250Y00116646D01*
Y00115353D01*
X00260745Y00114159D01*
X00261659Y00113245D01*
X00262854Y00112750D01*
X00264146D01*
X00265341Y00113245D01*
X00266255Y00114159D01*
X00266750Y00115353D01*
Y00116646D01*
X00266255Y00117841D01*
X00265341Y00118755D01*
X00264146Y00119250D01*
D02*
G37*
G36*
X00244646D02*
X00243354D01*
X00242159Y00118755D01*
X00241245Y00117841D01*
X00240750Y00116646D01*
Y00115353D01*
X00241245Y00114159D01*
X00242159Y00113245D01*
X00243354Y00112750D01*
X00244646D01*
X00245841Y00113245D01*
X00246755Y00114159D01*
X00247250Y00115353D01*
Y00116646D01*
X00246755Y00117841D01*
X00245841Y00118755D01*
X00244646Y00119250D01*
D02*
G37*
G36*
X00234646D02*
X00233354D01*
X00232159Y00118755D01*
X00231245Y00117841D01*
X00230750Y00116646D01*
Y00115353D01*
X00231245Y00114159D01*
X00232159Y00113245D01*
X00233354Y00112750D01*
X00234646D01*
X00235841Y00113245D01*
X00236755Y00114159D01*
X00237250Y00115353D01*
Y00116646D01*
X00236755Y00117841D01*
X00235841Y00118755D01*
X00234646Y00119250D01*
D02*
G37*
G36*
X00420047Y00117750D02*
X00418754D01*
X00417559Y00117255D01*
X00416645Y00116341D01*
X00416150Y00115147D01*
Y00113854D01*
X00416645Y00112659D01*
X00417559Y00111745D01*
X00418754Y00111250D01*
X00420047D01*
X00421241Y00111745D01*
X00422155Y00112659D01*
X00422650Y00113854D01*
Y00115147D01*
X00422155Y00116341D01*
X00421241Y00117255D01*
X00420047Y00117750D01*
D02*
G37*
G36*
X00316147Y00117250D02*
X00314853D01*
X00313659Y00116755D01*
X00312745Y00115841D01*
X00312250Y00114647D01*
Y00113354D01*
X00312745Y00112159D01*
X00313659Y00111245D01*
X00314853Y00110750D01*
X00316147D01*
X00317341Y00111245D01*
X00318255Y00112159D01*
X00318750Y00113354D01*
Y00114647D01*
X00318255Y00115841D01*
X00317341Y00116755D01*
X00316147Y00117250D01*
D02*
G37*
G36*
X00361146Y00115750D02*
X00359854D01*
X00358659Y00115255D01*
X00357745Y00114341D01*
X00357250Y00113146D01*
Y00111854D01*
X00357745Y00110659D01*
X00358659Y00109745D01*
X00359854Y00109250D01*
X00361146D01*
X00362341Y00109745D01*
X00363255Y00110659D01*
X00363750Y00111854D01*
Y00113146D01*
X00363255Y00114341D01*
X00362341Y00115255D01*
X00361146Y00115750D01*
D02*
G37*
G36*
X00169146Y00113750D02*
X00167854D01*
X00166659Y00113255D01*
X00165745Y00112341D01*
X00165250Y00111146D01*
Y00109854D01*
X00165745Y00108659D01*
X00166659Y00107745D01*
X00167854Y00107250D01*
X00169146D01*
X00170341Y00107745D01*
X00171255Y00108659D01*
X00171750Y00109854D01*
Y00111146D01*
X00171255Y00112341D01*
X00170341Y00113255D01*
X00169146Y00113750D01*
D02*
G37*
G36*
X00389097Y00110000D02*
X00387903D01*
X00386801Y00109543D01*
X00385957Y00108699D01*
X00385500Y00107597D01*
Y00106403D01*
X00385957Y00105301D01*
X00386801Y00104457D01*
X00387903Y00104000D01*
X00389097D01*
X00390199Y00104457D01*
X00391043Y00105301D01*
X00391500Y00106403D01*
Y00107597D01*
X00391043Y00108699D01*
X00390199Y00109543D01*
X00389097Y00110000D01*
D02*
G37*
G36*
X00274146Y00102750D02*
X00272854D01*
X00271659Y00102255D01*
X00270745Y00101341D01*
X00270250Y00100147D01*
Y00098854D01*
X00270745Y00097659D01*
X00271659Y00096745D01*
X00272854Y00096250D01*
X00274146D01*
X00275341Y00096745D01*
X00276255Y00097659D01*
X00276750Y00098854D01*
Y00100147D01*
X00276255Y00101341D01*
X00275341Y00102255D01*
X00274146Y00102750D01*
D02*
G37*
G36*
X00316147Y00100750D02*
X00314853D01*
X00313659Y00100255D01*
X00312745Y00099341D01*
X00312250Y00098146D01*
Y00096854D01*
X00312745Y00095659D01*
X00313659Y00094745D01*
X00314853Y00094250D01*
X00316147D01*
X00317341Y00094745D01*
X00318255Y00095659D01*
X00318750Y00096854D01*
Y00098146D01*
X00318255Y00099341D01*
X00317341Y00100255D01*
X00316147Y00100750D01*
D02*
G37*
G36*
X00259646Y00094750D02*
X00258354D01*
X00257159Y00094255D01*
X00256245Y00093341D01*
X00255750Y00092147D01*
Y00090854D01*
X00256245Y00089659D01*
X00257159Y00088745D01*
X00258354Y00088250D01*
X00259646D01*
X00260841Y00088745D01*
X00261755Y00089659D01*
X00262250Y00090854D01*
Y00092147D01*
X00261755Y00093341D01*
X00260841Y00094255D01*
X00259646Y00094750D01*
D02*
G37*
G36*
X00209648D02*
X00208355D01*
X00207160Y00094255D01*
X00206246Y00093341D01*
X00205751Y00092147D01*
Y00090854D01*
X00206246Y00089659D01*
X00207160Y00088745D01*
X00208355Y00088250D01*
X00209648D01*
X00210842Y00088745D01*
X00211757Y00089659D01*
X00212251Y00090854D01*
Y00092147D01*
X00211757Y00093341D01*
X00210842Y00094255D01*
X00209648Y00094750D01*
D02*
G37*
G36*
X00400097Y00093500D02*
X00398903D01*
X00397801Y00093043D01*
X00396957Y00092199D01*
X00396500Y00091097D01*
Y00089903D01*
X00396957Y00088801D01*
X00397801Y00087957D01*
X00398903Y00087500D01*
X00400097D01*
X00401199Y00087957D01*
X00402043Y00088801D01*
X00402500Y00089903D01*
Y00091097D01*
X00402043Y00092199D01*
X00401199Y00093043D01*
X00400097Y00093500D01*
D02*
G37*
G36*
X00295147Y00092750D02*
X00293853D01*
X00292659Y00092255D01*
X00291745Y00091341D01*
X00291250Y00090147D01*
Y00088854D01*
X00291745Y00087659D01*
X00292659Y00086745D01*
X00293853Y00086250D01*
X00295147D01*
X00296341Y00086745D01*
X00297255Y00087659D01*
X00297750Y00088854D01*
Y00090147D01*
X00297255Y00091341D01*
X00296341Y00092255D01*
X00295147Y00092750D01*
D02*
G37*
G36*
X00341646Y00088250D02*
X00340354D01*
X00339159Y00087755D01*
X00338245Y00086841D01*
X00337750Y00085646D01*
Y00084354D01*
X00338245Y00083159D01*
X00339159Y00082245D01*
X00340354Y00081750D01*
X00341646D01*
X00342841Y00082245D01*
X00343755Y00083159D01*
X00344250Y00084354D01*
Y00085646D01*
X00343755Y00086841D01*
X00342841Y00087755D01*
X00341646Y00088250D01*
D02*
G37*
G36*
X00332646Y00088250D02*
X00331353D01*
X00330159Y00087755D01*
X00329245Y00086841D01*
X00328750Y00085646D01*
Y00084354D01*
X00329245Y00083159D01*
X00330159Y00082245D01*
X00331353Y00081750D01*
X00332646D01*
X00333841Y00082245D01*
X00334755Y00083159D01*
X00335250Y00084354D01*
Y00085646D01*
X00334755Y00086841D01*
X00333841Y00087755D01*
X00332646Y00088250D01*
D02*
G37*
G36*
X00213648Y00087750D02*
X00212355D01*
X00211160Y00087255D01*
X00210246Y00086341D01*
X00209751Y00085147D01*
Y00083854D01*
X00210246Y00082659D01*
X00211160Y00081745D01*
X00212355Y00081250D01*
X00213648D01*
X00214842Y00081745D01*
X00215757Y00082659D01*
X00216251Y00083854D01*
Y00085147D01*
X00215757Y00086341D01*
X00214842Y00087255D01*
X00213648Y00087750D01*
D02*
G37*
G36*
X00205648D02*
X00204355D01*
X00203160Y00087255D01*
X00202246Y00086341D01*
X00201751Y00085147D01*
Y00083854D01*
X00202246Y00082659D01*
X00203160Y00081745D01*
X00204355Y00081250D01*
X00205648D01*
X00206842Y00081745D01*
X00207757Y00082659D01*
X00208251Y00083854D01*
Y00085147D01*
X00207757Y00086341D01*
X00206842Y00087255D01*
X00205648Y00087750D01*
D02*
G37*
G36*
X00263646Y00087750D02*
X00262353D01*
X00261159Y00087255D01*
X00260245Y00086341D01*
X00259750Y00085147D01*
Y00083854D01*
X00260245Y00082659D01*
X00261159Y00081745D01*
X00262353Y00081250D01*
X00263646D01*
X00264841Y00081745D01*
X00265755Y00082659D01*
X00266250Y00083854D01*
Y00085147D01*
X00265755Y00086341D01*
X00264841Y00087255D01*
X00263646Y00087750D01*
D02*
G37*
G36*
X00255646D02*
X00254354D01*
X00253159Y00087255D01*
X00252245Y00086341D01*
X00251750Y00085147D01*
Y00083854D01*
X00252245Y00082659D01*
X00253159Y00081745D01*
X00254354Y00081250D01*
X00255646D01*
X00256841Y00081745D01*
X00257755Y00082659D01*
X00258250Y00083854D01*
Y00085147D01*
X00257755Y00086341D01*
X00256841Y00087255D01*
X00255646Y00087750D01*
D02*
G37*
G36*
X00390146Y00081250D02*
X00388853D01*
X00387659Y00080755D01*
X00386745Y00079841D01*
X00386250Y00078646D01*
Y00077354D01*
X00386745Y00076159D01*
X00387659Y00075245D01*
X00388853Y00074750D01*
X00390146D01*
X00391341Y00075245D01*
X00392255Y00076159D01*
X00392750Y00077354D01*
Y00078646D01*
X00392255Y00079841D01*
X00391341Y00080755D01*
X00390146Y00081250D01*
D02*
G37*
G36*
X00167146D02*
X00165854D01*
X00164659Y00080755D01*
X00163745Y00079841D01*
X00163250Y00078646D01*
Y00077354D01*
X00163745Y00076159D01*
X00164659Y00075245D01*
X00165854Y00074750D01*
X00167146D01*
X00168341Y00075245D01*
X00169255Y00076159D01*
X00169750Y00077354D01*
Y00078646D01*
X00169255Y00079841D01*
X00168341Y00080755D01*
X00167146Y00081250D01*
D02*
G37*
G36*
X00209648Y00080750D02*
X00208355D01*
X00207160Y00080255D01*
X00206246Y00079341D01*
X00205751Y00078147D01*
Y00076854D01*
X00206246Y00075659D01*
X00207160Y00074745D01*
X00208355Y00074250D01*
X00209648D01*
X00210842Y00074745D01*
X00211757Y00075659D01*
X00212251Y00076854D01*
Y00078147D01*
X00211757Y00079341D01*
X00210842Y00080255D01*
X00209648Y00080750D01*
D02*
G37*
G36*
X00259646Y00080750D02*
X00258354D01*
X00257159Y00080255D01*
X00256245Y00079341D01*
X00255750Y00078147D01*
Y00076853D01*
X00256245Y00075659D01*
X00257159Y00074745D01*
X00258354Y00074250D01*
X00259646D01*
X00260841Y00074745D01*
X00261755Y00075659D01*
X00262250Y00076853D01*
Y00078147D01*
X00261755Y00079341D01*
X00260841Y00080255D01*
X00259646Y00080750D01*
D02*
G37*
G36*
X00341646Y00079250D02*
X00340354D01*
X00339159Y00078755D01*
X00338245Y00077841D01*
X00337750Y00076646D01*
Y00075353D01*
X00338245Y00074159D01*
X00339159Y00073245D01*
X00340354Y00072750D01*
X00341646D01*
X00342841Y00073245D01*
X00343755Y00074159D01*
X00344250Y00075353D01*
Y00076646D01*
X00343755Y00077841D01*
X00342841Y00078755D01*
X00341646Y00079250D01*
D02*
G37*
G36*
X00360597Y00077000D02*
X00359403D01*
X00358301Y00076543D01*
X00357457Y00075699D01*
X00357000Y00074597D01*
Y00073403D01*
X00357457Y00072301D01*
X00358301Y00071457D01*
X00359403Y00071000D01*
X00360597D01*
X00361699Y00071457D01*
X00362543Y00072301D01*
X00363000Y00073403D01*
Y00074597D01*
X00362543Y00075699D01*
X00361699Y00076543D01*
X00360597Y00077000D01*
D02*
G37*
G36*
X00176147Y00072750D02*
X00174853D01*
X00173659Y00072255D01*
X00172745Y00071341D01*
X00172250Y00070146D01*
Y00068854D01*
X00172745Y00067659D01*
X00173659Y00066745D01*
X00174853Y00066250D01*
X00176147D01*
X00177341Y00066745D01*
X00178255Y00067659D01*
X00178750Y00068854D01*
Y00070146D01*
X00178255Y00071341D01*
X00177341Y00072255D01*
X00176147Y00072750D01*
D02*
G37*
G36*
X00188301Y00073623D02*
X00186766Y00072988D01*
X00185095Y00071705D01*
X00183813Y00070034D01*
X00183007Y00068088D01*
X00182732Y00066000D01*
Y00063000D01*
X00188301D01*
Y00073623D01*
D02*
G37*
G36*
X00279701D02*
Y00062999D01*
X00285270D01*
Y00066000D01*
X00284995Y00068088D01*
X00284189Y00070034D01*
X00282906Y00071705D01*
X00281235Y00072988D01*
X00279701Y00073623D01*
D02*
G37*
G36*
X00274701Y00073623D02*
X00273166Y00072988D01*
X00271495Y00071705D01*
X00270213Y00070034D01*
X00269407Y00068088D01*
X00269132Y00066000D01*
Y00061656D01*
X00268132Y00061254D01*
X00266809Y00062269D01*
X00264924Y00063050D01*
X00262901Y00063316D01*
X00260877Y00063050D01*
X00258992Y00062269D01*
X00257373Y00061027D01*
X00256131Y00059408D01*
X00255350Y00057523D01*
X00255084Y00055500D01*
X00255350Y00053477D01*
X00256131Y00051591D01*
X00257373Y00049972D01*
X00258992Y00048730D01*
X00260877Y00047949D01*
X00262901Y00047683D01*
X00264924Y00047949D01*
X00266809Y00048730D01*
X00268428Y00049972D01*
X00269151Y00050915D01*
X00269684Y00050940D01*
X00270331Y00050810D01*
X00271495Y00049294D01*
X00273166Y00048012D01*
X00274701Y00047376D01*
Y00060499D01*
Y00073623D01*
D02*
G37*
G36*
X00291147Y00057250D02*
X00289853D01*
X00288659Y00056755D01*
X00287745Y00055841D01*
X00287250Y00054646D01*
Y00053354D01*
X00287745Y00052159D01*
X00288659Y00051245D01*
X00289853Y00050750D01*
X00291147D01*
X00292341Y00051245D01*
X00293255Y00052159D01*
X00293750Y00053354D01*
Y00054646D01*
X00293255Y00055841D01*
X00292341Y00056755D01*
X00291147Y00057250D01*
D02*
G37*
G36*
X00193301Y00073623D02*
Y00060500D01*
Y00047376D01*
X00194835Y00048012D01*
X00196506Y00049294D01*
X00197670Y00050810D01*
X00198317Y00050940D01*
X00198850Y00050915D01*
X00199573Y00049972D01*
X00201192Y00048730D01*
X00203078Y00047949D01*
X00205101Y00047683D01*
X00207124Y00047949D01*
X00209009Y00048730D01*
X00210628Y00049972D01*
X00211870Y00051591D01*
X00212651Y00053477D01*
X00212918Y00055500D01*
X00212651Y00057523D01*
X00211870Y00059408D01*
X00210628Y00061027D01*
X00209009Y00062269D01*
X00207124Y00063050D01*
X00205101Y00063316D01*
X00203078Y00063050D01*
X00201192Y00062269D01*
X00199870Y00061254D01*
X00198870Y00061656D01*
Y00066000D01*
X00198595Y00068088D01*
X00197789Y00070034D01*
X00196506Y00071705D01*
X00194835Y00072988D01*
X00193301Y00073623D01*
D02*
G37*
G36*
X00354097Y00053500D02*
X00352903D01*
X00351801Y00053043D01*
X00350957Y00052199D01*
X00350500Y00051097D01*
Y00049903D01*
X00350957Y00048801D01*
X00351801Y00047957D01*
X00352903Y00047500D01*
X00354097D01*
X00355199Y00047957D01*
X00356043Y00048801D01*
X00356500Y00049903D01*
Y00051097D01*
X00356043Y00052199D01*
X00355199Y00053043D01*
X00354097Y00053500D01*
D02*
G37*
G36*
X00188301Y00058000D02*
X00182732D01*
Y00055000D01*
X00183007Y00052911D01*
X00183813Y00050965D01*
X00185095Y00049294D01*
X00186766Y00048012D01*
X00188301Y00047376D01*
Y00058000D01*
D02*
G37*
G36*
X00285270Y00057999D02*
X00279701D01*
Y00047376D01*
X00281235Y00048012D01*
X00282906Y00049294D01*
X00284189Y00050965D01*
X00284995Y00052911D01*
X00285270Y00055000D01*
Y00057999D01*
D02*
G37*
G36*
X00385646Y00044750D02*
X00384353D01*
X00383159Y00044255D01*
X00382245Y00043341D01*
X00381750Y00042146D01*
Y00040854D01*
X00382245Y00039659D01*
X00383159Y00038745D01*
X00384353Y00038250D01*
X00385646D01*
X00386841Y00038745D01*
X00387755Y00039659D01*
X00388250Y00040854D01*
Y00042146D01*
X00387755Y00043341D01*
X00386841Y00044255D01*
X00385646Y00044750D01*
D02*
G37*
G36*
X00363146Y00035750D02*
X00361853D01*
X00360659Y00035255D01*
X00359745Y00034341D01*
X00359250Y00033147D01*
Y00031854D01*
X00359745Y00030659D01*
X00360659Y00029745D01*
X00361853Y00029250D01*
X00363146D01*
X00364341Y00029745D01*
X00365255Y00030659D01*
X00365750Y00031854D01*
Y00033147D01*
X00365255Y00034341D01*
X00364341Y00035255D01*
X00363146Y00035750D01*
D02*
G37*
G36*
X00193301Y00030623D02*
Y00021500D01*
X00198870D01*
Y00023000D01*
X00198595Y00025088D01*
X00197789Y00027034D01*
X00196506Y00028705D01*
X00194835Y00029988D01*
X00193301Y00030623D01*
D02*
G37*
G36*
X00188301Y00030623D02*
X00186766Y00029988D01*
X00185095Y00028705D01*
X00183813Y00027034D01*
X00183007Y00025088D01*
X00182732Y00023000D01*
Y00021500D01*
X00188301D01*
Y00030623D01*
D02*
G37*
G36*
X00279701D02*
Y00021499D01*
X00285270D01*
Y00023000D01*
X00284995Y00025088D01*
X00284189Y00027034D01*
X00282906Y00028705D01*
X00281235Y00029988D01*
X00279701Y00030623D01*
D02*
G37*
G36*
X00274701Y00030623D02*
X00273166Y00029988D01*
X00271495Y00028705D01*
X00270213Y00027034D01*
X00269407Y00025088D01*
X00269132Y00023000D01*
Y00021499D01*
X00274701D01*
Y00030623D01*
D02*
G37*
G36*
X00285270Y00016499D02*
X00279701D01*
Y00007376D01*
X00281235Y00008012D01*
X00282906Y00009294D01*
X00284189Y00010965D01*
X00284995Y00012911D01*
X00285270Y00015000D01*
Y00016499D01*
D02*
G37*
G36*
X00188301Y00016500D02*
X00182732D01*
Y00015000D01*
X00183007Y00012911D01*
X00183813Y00010965D01*
X00185095Y00009294D01*
X00186766Y00008012D01*
X00188301Y00007376D01*
Y00016500D01*
D02*
G37*
G36*
X00198870D02*
X00193301D01*
Y00007376D01*
X00194835Y00008012D01*
X00196506Y00009294D01*
X00197789Y00010965D01*
X00198595Y00012911D01*
X00198870Y00015000D01*
Y00016500D01*
D02*
G37*
G36*
X00274701Y00016499D02*
X00269132D01*
Y00015000D01*
X00269407Y00012911D01*
X00270213Y00010965D01*
X00271495Y00009294D01*
X00273166Y00008012D01*
X00274701Y00007376D01*
Y00016499D01*
D02*
G37*
%LPD*%
D13*
X00375000Y00870500D02*
Y00883500D01*
Y00870500D02*
X00386000D01*
Y00883500D01*
X00375000D02*
X00386000D01*
X00378500Y00878998D02*
X00379500Y00879998D01*
X00381499D01*
X00382499Y00878998D01*
Y00877999D01*
X00381499Y00876999D01*
X00380499D01*
X00381499D01*
X00382499Y00875999D01*
Y00875000D01*
X00381499Y00874000D01*
X00379500D01*
X00378500Y00875000D01*
D16*
X00438000Y00000000D02*
G03*
X00468000Y00030000I00000000J00030000D01*
G01*
Y00873000D02*
G03*
X00438000Y00903000I-00030000J00000000D01*
G01*
X00000000Y00030000D02*
G03*
X00030000Y00000000I00030000J00000000D01*
G01*
Y00903000D02*
G03*
X00000000Y00873000I00000000J-00030000D01*
G01*
Y00717500D02*
G03*
X00010000Y00707500I00010000J00000000D01*
G01*
Y00467500D02*
G03*
X00000000Y00457500I00000000J-00010000D01*
G01*
X00035000Y00467500D02*
G03*
X00045000Y00477500I00000000J00010000D01*
G01*
Y00697500D02*
G03*
X00035000Y00707500I-00010000J00000000D01*
G01*
X00468000Y00030000D02*
Y00873000D01*
X00030000Y00000000D02*
X00438000D01*
X00030000Y00903000D02*
X00438000D01*
X00000000Y00717500D02*
Y00873000D01*
Y00030000D02*
Y00457500D01*
X00010034Y00467534D02*
X00035034D01*
X00010000Y00707500D02*
X00035000D01*
X00045000Y00477500D02*
Y00697500D01*
D166*
X00120000Y00398500D02*
D03*
X00344500Y00614500D02*
D03*
X00315500Y00379000D02*
D03*
X00365542D02*
D03*
X00358305Y00378970D02*
D03*
X00309000Y00379000D02*
D03*
X00302500D02*
D03*
X00374500Y00093000D02*
D03*
X00369000Y00098500D02*
D03*
X00380000D02*
D03*
Y00087500D02*
D03*
X00369000D02*
D03*
X00239000Y00110075D02*
D03*
X00165000Y00792500D02*
D03*
D172*
X00052000Y00333500D02*
Y00341000D01*
X00068000Y00357000D01*
Y00371500D01*
D177*
X00412250Y00649500D02*
D03*
D179*
X00260750Y00879498D02*
D03*
X00359250Y00879497D02*
D03*
D180*
X00349939Y00807487D02*
D03*
D182*
X00213199Y00842500D02*
D03*
X00126799D02*
D03*
X00277201Y00060500D02*
D03*
X00190801D02*
D03*
D183*
X00213199Y00884000D02*
D03*
X00126799D02*
D03*
X00277201Y00019000D02*
D03*
X00190801D02*
D03*
D185*
X00065500Y00166500D02*
D03*
X00107500Y00203000D02*
D03*
X00040000Y00729000D02*
D03*
X00023000D02*
D03*
X00079000Y00815500D02*
D03*
X00106500Y00796000D02*
D03*
X00168500Y00489000D02*
D03*
X00064500Y00828000D02*
D03*
X00016500Y00887000D02*
D03*
X00009500Y00811500D02*
D03*
X00110000Y00754000D02*
D03*
X00171000Y00677000D02*
D03*
X00140000Y00631500D02*
D03*
Y00645500D02*
D03*
X00134500Y00517000D02*
D03*
X00033500Y00392000D02*
D03*
X00032500Y00335500D02*
D03*
X00068000Y00371500D02*
D03*
X00064500Y00231000D02*
D03*
X00011500Y00231500D02*
D03*
X00205000Y00601000D02*
D03*
X00216000Y00551000D02*
D03*
Y00559000D02*
D03*
X00124500Y00776000D02*
D03*
X00087000Y00812500D02*
D03*
X00118500Y00858500D02*
D03*
X00099000Y00865500D02*
D03*
X00091000Y00852000D02*
D03*
Y00861000D02*
D03*
X00053500Y00723000D02*
D03*
X00010000Y00728500D02*
D03*
X00031500Y00729000D02*
D03*
X00063000Y00723000D02*
D03*
X00008000Y00743500D02*
D03*
X00065750Y00753000D02*
D03*
X00065750Y00546000D02*
D03*
X00065000Y00697000D02*
D03*
Y00682000D02*
D03*
Y00667000D02*
D03*
Y00652000D02*
D03*
Y00637000D02*
D03*
X00065000Y00622000D02*
D03*
X00065000Y00582000D02*
D03*
Y00567000D02*
D03*
X00062500Y00502500D02*
D03*
X00095998Y00491000D02*
D03*
X00088501Y00528998D02*
D03*
X00167500Y00607500D02*
D03*
X00205000Y00643500D02*
D03*
X00228500Y00651500D02*
D03*
X00345858Y00032270D02*
D03*
X00156000Y00118000D02*
D03*
Y00126500D02*
D03*
Y00109500D02*
D03*
Y00101000D02*
D03*
X00105500Y00015000D02*
D03*
X00127500D02*
D03*
X00403000Y00726500D02*
D03*
X00425000Y00752500D02*
D03*
X00308500Y00050000D02*
D03*
X00145500Y00545000D02*
D03*
X00053000Y00689000D02*
D03*
X00054000Y00660000D02*
D03*
X00235000Y00049000D02*
D03*
X00165000Y00413500D02*
D03*
X00185500Y00359500D02*
D03*
X00009000Y00431000D02*
D03*
X00030500Y00459000D02*
D03*
X00054000Y00490500D02*
D03*
Y00523000D02*
D03*
Y00572500D02*
D03*
Y00614000D02*
D03*
X00051000Y00713000D02*
D03*
X00010000Y00718000D02*
D03*
X00008000Y00771500D02*
D03*
X00083500Y00845500D02*
D03*
X00012000Y00837000D02*
D03*
X00063000Y00892000D02*
D03*
X00182000Y00894000D02*
D03*
X00139500Y00893500D02*
D03*
X00229500D02*
D03*
X00277000Y00894000D02*
D03*
X00314000D02*
D03*
X00374000Y00893500D02*
D03*
X00405000Y00894000D02*
D03*
X00398000Y00830500D02*
D03*
X00451000Y00822000D02*
D03*
Y00767000D02*
D03*
X00458000Y00727000D02*
D03*
X00458500Y00679000D02*
D03*
X00456500Y00625000D02*
D03*
X00459000Y00584500D02*
D03*
X00458500Y00435000D02*
D03*
Y00324000D02*
D03*
X00459500Y00272000D02*
D03*
X00459000Y00229000D02*
D03*
Y00168500D02*
D03*
X00458500Y00143500D02*
D03*
X00458000Y00117000D02*
D03*
Y00064000D02*
D03*
X00402000Y00010000D02*
D03*
X00330500Y00009000D02*
D03*
X00289500Y00009500D02*
D03*
X00262500Y00009000D02*
D03*
X00235500Y00009500D02*
D03*
X00204000Y00010000D02*
D03*
X00160500D02*
D03*
X00068000Y00010500D02*
D03*
X00064500Y00059500D02*
D03*
X00010000Y00066500D02*
D03*
X00276000Y00167500D02*
D03*
X00343500Y00097500D02*
D03*
X00426500Y00092000D02*
D03*
X00053500Y00472000D02*
D03*
X00164500Y00217500D02*
D03*
X00189000Y00193500D02*
D03*
X00127000Y00434000D02*
D03*
X00151000Y00379000D02*
D03*
X00127000Y00446500D02*
D03*
X00039500Y00311234D02*
D03*
X00042500Y00446500D02*
D03*
X00011500Y00336000D02*
D03*
Y00258000D02*
D03*
Y00414500D02*
D03*
X00216000Y00543000D02*
D03*
X00325500Y00638500D02*
D03*
X00359500Y00647500D02*
D03*
X00325500Y00622500D02*
D03*
Y00630500D02*
D03*
X00226000Y00605500D02*
D03*
Y00581500D02*
D03*
Y00589500D02*
D03*
Y00597500D02*
D03*
X00352500Y00652500D02*
D03*
X00226000Y00621500D02*
D03*
Y00613500D02*
D03*
Y00629500D02*
D03*
Y00637500D02*
D03*
X00344500Y00652500D02*
D03*
X00336500Y00652500D02*
D03*
X00370500Y00454500D02*
D03*
X00359000Y00506500D02*
D03*
Y00514500D02*
D03*
X00287000Y00536000D02*
D03*
Y00520000D02*
D03*
X00216000Y00511000D02*
D03*
Y00535000D02*
D03*
Y00519000D02*
D03*
Y00527000D02*
D03*
X00287000Y00512000D02*
D03*
Y00528000D02*
D03*
Y00504000D02*
D03*
Y00480000D02*
D03*
Y00472000D02*
D03*
Y00488000D02*
D03*
Y00496000D02*
D03*
X00286500Y00461500D02*
D03*
X00294500D02*
D03*
X00296000Y00563500D02*
D03*
X00310000D02*
D03*
X00345491Y00566259D02*
D03*
X00303000Y00567500D02*
D03*
X00310000Y00571500D02*
D03*
X00296000D02*
D03*
X00216000Y00503000D02*
D03*
Y00455000D02*
D03*
Y00495000D02*
D03*
Y00447000D02*
D03*
Y00487000D02*
D03*
Y00463000D02*
D03*
Y00471000D02*
D03*
Y00479000D02*
D03*
Y00439000D02*
D03*
X00350805Y00336470D02*
D03*
X00353000Y00293500D02*
D03*
X00356805Y00322119D02*
D03*
Y00308772D02*
D03*
X00357000Y00315456D02*
D03*
X00350805Y00344470D02*
D03*
X00333055Y00432471D02*
D03*
X00340555D02*
D03*
X00294500Y00379000D02*
D03*
X00278500D02*
D03*
X00286500D02*
D03*
X00270500D02*
D03*
X00217500Y00268500D02*
D03*
Y00284500D02*
D03*
X00238500Y00379000D02*
D03*
X00230500D02*
D03*
X00217500Y00276500D02*
D03*
X00281000Y00229000D02*
D03*
X00306000Y00237000D02*
D03*
X00281000D02*
D03*
Y00221000D02*
D03*
X00313157Y00233157D02*
D03*
X00306000Y00229000D02*
D03*
X00399500Y00258000D02*
D03*
X00403500Y00239000D02*
D03*
Y00247000D02*
D03*
Y00231000D02*
D03*
X00329000Y00227000D02*
D03*
X00246500Y00379000D02*
D03*
X00254500D02*
D03*
X00262500D02*
D03*
X00019000Y00090000D02*
D03*
X00180347Y00163500D02*
D03*
X00197745Y00180245D02*
D03*
X00074500Y00039000D02*
D03*
X00389500Y00069000D02*
D03*
X00088000Y00342000D02*
D03*
Y00330000D02*
D03*
Y00318000D02*
D03*
X00059500Y00295000D02*
D03*
X00143000Y00293000D02*
D03*
X00160500Y00332500D02*
D03*
X00167500Y00273500D02*
D03*
X00129500Y00230500D02*
D03*
X00108000Y00251500D02*
D03*
X00112000Y00238000D02*
D03*
X00098000Y00251500D02*
D03*
X00112000Y00342000D02*
D03*
Y00330000D02*
D03*
Y00318000D02*
D03*
X00102500D02*
D03*
Y00330000D02*
D03*
Y00342000D02*
D03*
X00060500Y00251500D02*
D03*
X00082000Y00251500D02*
D03*
X00072000Y00251500D02*
D03*
X00052000Y00333500D02*
D03*
X00053000Y00356500D02*
D03*
X00098000Y00400000D02*
D03*
X00088000D02*
D03*
X00103500Y00406500D02*
D03*
X00346500Y00017000D02*
D03*
X00276000Y00143000D02*
D03*
X00331500Y00119500D02*
D03*
X00331500Y00176000D02*
D03*
X00312500Y00169000D02*
D03*
X00305000Y00119500D02*
D03*
X00340000Y00110500D02*
D03*
X00281000Y00084500D02*
D03*
X00273000D02*
D03*
X00277000Y00077500D02*
D03*
X00269000Y00077500D02*
D03*
X00199001Y00077500D02*
D03*
X00191001Y00077500D02*
D03*
X00195001Y00084500D02*
D03*
X00187001D02*
D03*
X00231500Y00734500D02*
D03*
X00191500Y00755500D02*
D03*
X00199500D02*
D03*
X00195500Y00748500D02*
D03*
X00203500D02*
D03*
X00175000Y00643500D02*
D03*
X00367000Y00807000D02*
D03*
X00372657Y00812657D02*
D03*
X00364879Y00814778D02*
D03*
X00370536Y00820435D02*
D03*
X00325000Y00800500D02*
D03*
X00333000D02*
D03*
X00329000Y00807500D02*
D03*
X00337000D02*
D03*
X00449000Y00783000D02*
D03*
X00441000D02*
D03*
X00449000Y00804500D02*
D03*
X00441000D02*
D03*
X00448000Y00707000D02*
D03*
X00193000Y00701000D02*
D03*
X00216999Y00818500D02*
D03*
X00208999D02*
D03*
X00212999Y00825500D02*
D03*
X00204999D02*
D03*
X00135000Y00825500D02*
D03*
X00127000D02*
D03*
X00131000Y00818500D02*
D03*
X00123000D02*
D03*
M02*
