G04*
G04 #@! TF.GenerationSoftware,Altium Limited,Altium Designer,23.10.1 (27)*
G04*
G04 Layer_Color=8388736*
%FSAX44Y44*%
%MOMM*%
G71*
G04*
G04 #@! TF.SameCoordinates,5C1EF094-659E-4F14-B8F6-58BB7AD2CD52*
G04*
G04*
G04 #@! TF.FilePolarity,Negative*
G04*
G01*
G75*
%ADD16C,0.0500*%
%ADD76R,1.4005X1.6000*%
G04:AMPARAMS|DCode=77|XSize=0.55mm|YSize=0.6mm|CornerRadius=0.1625mm|HoleSize=0mm|Usage=FLASHONLY|Rotation=90.000|XOffset=0mm|YOffset=0mm|HoleType=Round|Shape=RoundedRectangle|*
%AMROUNDEDRECTD77*
21,1,0.5500,0.2750,0,0,90.0*
21,1,0.2250,0.6000,0,0,90.0*
1,1,0.3250,0.1375,0.1125*
1,1,0.3250,0.1375,-0.1125*
1,1,0.3250,-0.1375,-0.1125*
1,1,0.3250,-0.1375,0.1125*
%
%ADD77ROUNDEDRECTD77*%
G04:AMPARAMS|DCode=78|XSize=0.6mm|YSize=0.6mm|CornerRadius=0.175mm|HoleSize=0mm|Usage=FLASHONLY|Rotation=180.000|XOffset=0mm|YOffset=0mm|HoleType=Round|Shape=RoundedRectangle|*
%AMROUNDEDRECTD78*
21,1,0.6000,0.2500,0,0,180.0*
21,1,0.2500,0.6000,0,0,180.0*
1,1,0.3500,-0.1250,0.1250*
1,1,0.3500,0.1250,0.1250*
1,1,0.3500,0.1250,-0.1250*
1,1,0.3500,-0.1250,-0.1250*
%
%ADD78ROUNDEDRECTD78*%
G04:AMPARAMS|DCode=79|XSize=0.9mm|YSize=0.3mm|CornerRadius=0.125mm|HoleSize=0mm|Usage=FLASHONLY|Rotation=180.000|XOffset=0mm|YOffset=0mm|HoleType=Round|Shape=RoundedRectangle|*
%AMROUNDEDRECTD79*
21,1,0.9000,0.0500,0,0,180.0*
21,1,0.6500,0.3000,0,0,180.0*
1,1,0.2500,-0.3250,0.0250*
1,1,0.2500,0.3250,0.0250*
1,1,0.2500,0.3250,-0.0250*
1,1,0.2500,-0.3250,-0.0250*
%
%ADD79ROUNDEDRECTD79*%
G04:AMPARAMS|DCode=80|XSize=0.55mm|YSize=0.6mm|CornerRadius=0.1625mm|HoleSize=0mm|Usage=FLASHONLY|Rotation=0.000|XOffset=0mm|YOffset=0mm|HoleType=Round|Shape=RoundedRectangle|*
%AMROUNDEDRECTD80*
21,1,0.5500,0.2750,0,0,0.0*
21,1,0.2250,0.6000,0,0,0.0*
1,1,0.3250,0.1125,-0.1375*
1,1,0.3250,-0.1125,-0.1375*
1,1,0.3250,-0.1125,0.1375*
1,1,0.3250,0.1125,0.1375*
%
%ADD80ROUNDEDRECTD80*%
G04:AMPARAMS|DCode=81|XSize=0.3mm|YSize=0.9mm|CornerRadius=0.125mm|HoleSize=0mm|Usage=FLASHONLY|Rotation=180.000|XOffset=0mm|YOffset=0mm|HoleType=Round|Shape=RoundedRectangle|*
%AMROUNDEDRECTD81*
21,1,0.3000,0.6500,0,0,180.0*
21,1,0.0500,0.9000,0,0,180.0*
1,1,0.2500,-0.0250,0.3250*
1,1,0.2500,0.0250,0.3250*
1,1,0.2500,0.0250,-0.3250*
1,1,0.2500,-0.0250,-0.3250*
%
%ADD81ROUNDEDRECTD81*%
G04:AMPARAMS|DCode=82|XSize=0.55mm|YSize=0.6mm|CornerRadius=0.1625mm|HoleSize=0mm|Usage=FLASHONLY|Rotation=135.000|XOffset=0mm|YOffset=0mm|HoleType=Round|Shape=RoundedRectangle|*
%AMROUNDEDRECTD82*
21,1,0.5500,0.2750,0,0,135.0*
21,1,0.2250,0.6000,0,0,135.0*
1,1,0.3250,0.0177,0.1768*
1,1,0.3250,0.1768,0.0177*
1,1,0.3250,-0.0177,-0.1768*
1,1,0.3250,-0.1768,-0.0177*
%
%ADD82ROUNDEDRECTD82*%
G04:AMPARAMS|DCode=83|XSize=1.55mm|YSize=1.7mm|CornerRadius=0.2313mm|HoleSize=0mm|Usage=FLASHONLY|Rotation=180.000|XOffset=0mm|YOffset=0mm|HoleType=Round|Shape=RoundedRectangle|*
%AMROUNDEDRECTD83*
21,1,1.5500,1.2375,0,0,180.0*
21,1,1.0875,1.7000,0,0,180.0*
1,1,0.4625,-0.5438,0.6188*
1,1,0.4625,0.5438,0.6188*
1,1,0.4625,0.5438,-0.6188*
1,1,0.4625,-0.5438,-0.6188*
%
%ADD83ROUNDEDRECTD83*%
G04:AMPARAMS|DCode=84|XSize=0.8mm|YSize=0.35mm|CornerRadius=0.1125mm|HoleSize=0mm|Usage=FLASHONLY|Rotation=90.000|XOffset=0mm|YOffset=0mm|HoleType=Round|Shape=RoundedRectangle|*
%AMROUNDEDRECTD84*
21,1,0.8000,0.1250,0,0,90.0*
21,1,0.5750,0.3500,0,0,90.0*
1,1,0.2250,0.0625,0.2875*
1,1,0.2250,0.0625,-0.2875*
1,1,0.2250,-0.0625,-0.2875*
1,1,0.2250,-0.0625,0.2875*
%
%ADD84ROUNDEDRECTD84*%
G04:AMPARAMS|DCode=85|XSize=1.1mm|YSize=2.1mm|CornerRadius=0.15mm|HoleSize=0mm|Usage=FLASHONLY|Rotation=0.000|XOffset=0mm|YOffset=0mm|HoleType=Round|Shape=RoundedRectangle|*
%AMROUNDEDRECTD85*
21,1,1.1000,1.8000,0,0,0.0*
21,1,0.8000,2.1000,0,0,0.0*
1,1,0.3000,0.4000,-0.9000*
1,1,0.3000,-0.4000,-0.9000*
1,1,0.3000,-0.4000,0.9000*
1,1,0.3000,0.4000,0.9000*
%
%ADD85ROUNDEDRECTD85*%
G04:AMPARAMS|DCode=86|XSize=0.6mm|YSize=1.3mm|CornerRadius=0.175mm|HoleSize=0mm|Usage=FLASHONLY|Rotation=180.000|XOffset=0mm|YOffset=0mm|HoleType=Round|Shape=RoundedRectangle|*
%AMROUNDEDRECTD86*
21,1,0.6000,0.9500,0,0,180.0*
21,1,0.2500,1.3000,0,0,180.0*
1,1,0.3500,-0.1250,0.4750*
1,1,0.3500,0.1250,0.4750*
1,1,0.3500,0.1250,-0.4750*
1,1,0.3500,-0.1250,-0.4750*
%
%ADD86ROUNDEDRECTD86*%
G04:AMPARAMS|DCode=87|XSize=0.6mm|YSize=0.6mm|CornerRadius=0.175mm|HoleSize=0mm|Usage=FLASHONLY|Rotation=90.000|XOffset=0mm|YOffset=0mm|HoleType=Round|Shape=RoundedRectangle|*
%AMROUNDEDRECTD87*
21,1,0.6000,0.2500,0,0,90.0*
21,1,0.2500,0.6000,0,0,90.0*
1,1,0.3500,0.1250,0.1250*
1,1,0.3500,0.1250,-0.1250*
1,1,0.3500,-0.1250,-0.1250*
1,1,0.3500,-0.1250,0.1250*
%
%ADD87ROUNDEDRECTD87*%
G04:AMPARAMS|DCode=88|XSize=0.7mm|YSize=1.1mm|CornerRadius=0.2mm|HoleSize=0mm|Usage=FLASHONLY|Rotation=270.000|XOffset=0mm|YOffset=0mm|HoleType=Round|Shape=RoundedRectangle|*
%AMROUNDEDRECTD88*
21,1,0.7000,0.7000,0,0,270.0*
21,1,0.3000,1.1000,0,0,270.0*
1,1,0.4000,-0.3500,-0.1500*
1,1,0.4000,-0.3500,0.1500*
1,1,0.4000,0.3500,0.1500*
1,1,0.4000,0.3500,-0.1500*
%
%ADD88ROUNDEDRECTD88*%
G04:AMPARAMS|DCode=89|XSize=1.3mm|YSize=1.7mm|CornerRadius=0.29mm|HoleSize=0mm|Usage=FLASHONLY|Rotation=90.000|XOffset=0mm|YOffset=0mm|HoleType=Round|Shape=RoundedRectangle|*
%AMROUNDEDRECTD89*
21,1,1.3000,1.1200,0,0,90.0*
21,1,0.7200,1.7000,0,0,90.0*
1,1,0.5800,0.5600,0.3600*
1,1,0.5800,0.5600,-0.3600*
1,1,0.5800,-0.5600,-0.3600*
1,1,0.5800,-0.5600,0.3600*
%
%ADD89ROUNDEDRECTD89*%
G04:AMPARAMS|DCode=90|XSize=2.1mm|YSize=1.9mm|CornerRadius=0.275mm|HoleSize=0mm|Usage=FLASHONLY|Rotation=180.000|XOffset=0mm|YOffset=0mm|HoleType=Round|Shape=RoundedRectangle|*
%AMROUNDEDRECTD90*
21,1,2.1000,1.3500,0,0,180.0*
21,1,1.5500,1.9000,0,0,180.0*
1,1,0.5500,-0.7750,0.6750*
1,1,0.5500,0.7750,0.6750*
1,1,0.5500,0.7750,-0.6750*
1,1,0.5500,-0.7750,-0.6750*
%
%ADD90ROUNDEDRECTD90*%
G04:AMPARAMS|DCode=91|XSize=0.95mm|YSize=1.35mm|CornerRadius=0.22mm|HoleSize=0mm|Usage=FLASHONLY|Rotation=270.000|XOffset=0mm|YOffset=0mm|HoleType=Round|Shape=RoundedRectangle|*
%AMROUNDEDRECTD91*
21,1,0.9500,0.9100,0,0,270.0*
21,1,0.5100,1.3500,0,0,270.0*
1,1,0.4400,-0.4550,-0.2550*
1,1,0.4400,-0.4550,0.2550*
1,1,0.4400,0.4550,0.2550*
1,1,0.4400,0.4550,-0.2550*
%
%ADD91ROUNDEDRECTD91*%
G04:AMPARAMS|DCode=92|XSize=0.9mm|YSize=1mm|CornerRadius=0.25mm|HoleSize=0mm|Usage=FLASHONLY|Rotation=180.000|XOffset=0mm|YOffset=0mm|HoleType=Round|Shape=RoundedRectangle|*
%AMROUNDEDRECTD92*
21,1,0.9000,0.5000,0,0,180.0*
21,1,0.4000,1.0000,0,0,180.0*
1,1,0.5000,-0.2000,0.2500*
1,1,0.5000,0.2000,0.2500*
1,1,0.5000,0.2000,-0.2500*
1,1,0.5000,-0.2000,-0.2500*
%
%ADD92ROUNDEDRECTD92*%
G04:AMPARAMS|DCode=93|XSize=0.8mm|YSize=0.45mm|CornerRadius=0.1813mm|HoleSize=0mm|Usage=FLASHONLY|Rotation=180.000|XOffset=0mm|YOffset=0mm|HoleType=Round|Shape=RoundedRectangle|*
%AMROUNDEDRECTD93*
21,1,0.8000,0.0875,0,0,180.0*
21,1,0.4375,0.4500,0,0,180.0*
1,1,0.3625,-0.2188,0.0438*
1,1,0.3625,0.2188,0.0438*
1,1,0.3625,0.2188,-0.0438*
1,1,0.3625,-0.2188,-0.0438*
%
%ADD93ROUNDEDRECTD93*%
G04:AMPARAMS|DCode=94|XSize=0.7mm|YSize=1mm|CornerRadius=0.2mm|HoleSize=0mm|Usage=FLASHONLY|Rotation=90.000|XOffset=0mm|YOffset=0mm|HoleType=Round|Shape=RoundedRectangle|*
%AMROUNDEDRECTD94*
21,1,0.7000,0.6000,0,0,90.0*
21,1,0.3000,1.0000,0,0,90.0*
1,1,0.4000,0.3000,0.1500*
1,1,0.4000,0.3000,-0.1500*
1,1,0.4000,-0.3000,-0.1500*
1,1,0.4000,-0.3000,0.1500*
%
%ADD94ROUNDEDRECTD94*%
G04:AMPARAMS|DCode=95|XSize=2.1mm|YSize=1.1mm|CornerRadius=0.175mm|HoleSize=0mm|Usage=FLASHONLY|Rotation=90.000|XOffset=0mm|YOffset=0mm|HoleType=Round|Shape=RoundedRectangle|*
%AMROUNDEDRECTD95*
21,1,2.1000,0.7500,0,0,90.0*
21,1,1.7500,1.1000,0,0,90.0*
1,1,0.3500,0.3750,0.8750*
1,1,0.3500,0.3750,-0.8750*
1,1,0.3500,-0.3750,-0.8750*
1,1,0.3500,-0.3750,0.8750*
%
%ADD95ROUNDEDRECTD95*%
G04:AMPARAMS|DCode=96|XSize=2.1mm|YSize=2.1mm|CornerRadius=0.3mm|HoleSize=0mm|Usage=FLASHONLY|Rotation=0.000|XOffset=0mm|YOffset=0mm|HoleType=Round|Shape=RoundedRectangle|*
%AMROUNDEDRECTD96*
21,1,2.1000,1.5000,0,0,0.0*
21,1,1.5000,2.1000,0,0,0.0*
1,1,0.6000,0.7500,-0.7500*
1,1,0.6000,-0.7500,-0.7500*
1,1,0.6000,-0.7500,0.7500*
1,1,0.6000,0.7500,0.7500*
%
%ADD96ROUNDEDRECTD96*%
G04:AMPARAMS|DCode=97|XSize=0.85mm|YSize=0.9mm|CornerRadius=0.2375mm|HoleSize=0mm|Usage=FLASHONLY|Rotation=90.000|XOffset=0mm|YOffset=0mm|HoleType=Round|Shape=RoundedRectangle|*
%AMROUNDEDRECTD97*
21,1,0.8500,0.4250,0,0,90.0*
21,1,0.3750,0.9000,0,0,90.0*
1,1,0.4750,0.2125,0.1875*
1,1,0.4750,0.2125,-0.1875*
1,1,0.4750,-0.2125,-0.1875*
1,1,0.4750,-0.2125,0.1875*
%
%ADD97ROUNDEDRECTD97*%
G04:AMPARAMS|DCode=98|XSize=0.4mm|YSize=1.65mm|CornerRadius=0.1625mm|HoleSize=0mm|Usage=FLASHONLY|Rotation=90.000|XOffset=0mm|YOffset=0mm|HoleType=Round|Shape=RoundedRectangle|*
%AMROUNDEDRECTD98*
21,1,0.4000,1.3250,0,0,90.0*
21,1,0.0750,1.6500,0,0,90.0*
1,1,0.3250,0.6625,0.0375*
1,1,0.3250,0.6625,-0.0375*
1,1,0.3250,-0.6625,-0.0375*
1,1,0.3250,-0.6625,0.0375*
%
%ADD98ROUNDEDRECTD98*%
G04:AMPARAMS|DCode=99|XSize=1.3mm|YSize=2.85mm|CornerRadius=0.35mm|HoleSize=0mm|Usage=FLASHONLY|Rotation=90.000|XOffset=0mm|YOffset=0mm|HoleType=Round|Shape=RoundedRectangle|*
%AMROUNDEDRECTD99*
21,1,1.3000,2.1500,0,0,90.0*
21,1,0.6000,2.8500,0,0,90.0*
1,1,0.7000,1.0750,0.3000*
1,1,0.7000,1.0750,-0.3000*
1,1,0.7000,-1.0750,-0.3000*
1,1,0.7000,-1.0750,0.3000*
%
%ADD99ROUNDEDRECTD99*%
%ADD100C,0.9000*%
%ADD101C,0.6000*%
%ADD102C,1.1000*%
G04:AMPARAMS|DCode=103|XSize=1.1mm|YSize=2.1mm|CornerRadius=0.15mm|HoleSize=0mm|Usage=FLASHONLY|Rotation=90.000|XOffset=0mm|YOffset=0mm|HoleType=Round|Shape=RoundedRectangle|*
%AMROUNDEDRECTD103*
21,1,1.1000,1.8000,0,0,90.0*
21,1,0.8000,2.1000,0,0,90.0*
1,1,0.3000,0.9000,0.4000*
1,1,0.3000,0.9000,-0.4000*
1,1,0.3000,-0.9000,-0.4000*
1,1,0.3000,-0.9000,0.4000*
%
%ADD103ROUNDEDRECTD103*%
G04:AMPARAMS|DCode=104|XSize=0.6mm|YSize=1.3mm|CornerRadius=0.175mm|HoleSize=0mm|Usage=FLASHONLY|Rotation=270.000|XOffset=0mm|YOffset=0mm|HoleType=Round|Shape=RoundedRectangle|*
%AMROUNDEDRECTD104*
21,1,0.6000,0.9500,0,0,270.0*
21,1,0.2500,1.3000,0,0,270.0*
1,1,0.3500,-0.4750,-0.1250*
1,1,0.3500,-0.4750,0.1250*
1,1,0.3500,0.4750,0.1250*
1,1,0.3500,0.4750,-0.1250*
%
%ADD104ROUNDEDRECTD104*%
G04:AMPARAMS|DCode=105|XSize=0.8mm|YSize=0.7mm|CornerRadius=0.2mm|HoleSize=0mm|Usage=FLASHONLY|Rotation=0.000|XOffset=0mm|YOffset=0mm|HoleType=Round|Shape=RoundedRectangle|*
%AMROUNDEDRECTD105*
21,1,0.8000,0.3000,0,0,0.0*
21,1,0.4000,0.7000,0,0,0.0*
1,1,0.4000,0.2000,-0.1500*
1,1,0.4000,-0.2000,-0.1500*
1,1,0.4000,-0.2000,0.1500*
1,1,0.4000,0.2000,0.1500*
%
%ADD105ROUNDEDRECTD105*%
G04:AMPARAMS|DCode=106|XSize=1.1mm|YSize=1.4mm|CornerRadius=0.3mm|HoleSize=0mm|Usage=FLASHONLY|Rotation=0.000|XOffset=0mm|YOffset=0mm|HoleType=Round|Shape=RoundedRectangle|*
%AMROUNDEDRECTD106*
21,1,1.1000,0.8000,0,0,0.0*
21,1,0.5000,1.4000,0,0,0.0*
1,1,0.6000,0.2500,-0.4000*
1,1,0.6000,-0.2500,-0.4000*
1,1,0.6000,-0.2500,0.4000*
1,1,0.6000,0.2500,0.4000*
%
%ADD106ROUNDEDRECTD106*%
G04:AMPARAMS|DCode=107|XSize=1.4mm|YSize=1mm|CornerRadius=0.275mm|HoleSize=0mm|Usage=FLASHONLY|Rotation=270.000|XOffset=0mm|YOffset=0mm|HoleType=Round|Shape=RoundedRectangle|*
%AMROUNDEDRECTD107*
21,1,1.4000,0.4500,0,0,270.0*
21,1,0.8500,1.0000,0,0,270.0*
1,1,0.5500,-0.2250,-0.4250*
1,1,0.5500,-0.2250,0.4250*
1,1,0.5500,0.2250,0.4250*
1,1,0.5500,0.2250,-0.4250*
%
%ADD107ROUNDEDRECTD107*%
G04:AMPARAMS|DCode=108|XSize=0.7mm|YSize=1.9mm|CornerRadius=0.2mm|HoleSize=0mm|Usage=FLASHONLY|Rotation=270.000|XOffset=0mm|YOffset=0mm|HoleType=Round|Shape=RoundedRectangle|*
%AMROUNDEDRECTD108*
21,1,0.7000,1.5000,0,0,270.0*
21,1,0.3000,1.9000,0,0,270.0*
1,1,0.4000,-0.7500,-0.1500*
1,1,0.4000,-0.7500,0.1500*
1,1,0.4000,0.7500,0.1500*
1,1,0.4000,0.7500,-0.1500*
%
%ADD108ROUNDEDRECTD108*%
G04:AMPARAMS|DCode=109|XSize=0.85mm|YSize=1.6mm|CornerRadius=0.2375mm|HoleSize=0mm|Usage=FLASHONLY|Rotation=270.000|XOffset=0mm|YOffset=0mm|HoleType=Round|Shape=RoundedRectangle|*
%AMROUNDEDRECTD109*
21,1,0.8500,1.1250,0,0,270.0*
21,1,0.3750,1.6000,0,0,270.0*
1,1,0.4750,-0.5625,-0.1875*
1,1,0.4750,-0.5625,0.1875*
1,1,0.4750,0.5625,0.1875*
1,1,0.4750,0.5625,-0.1875*
%
%ADD109ROUNDEDRECTD109*%
G04:AMPARAMS|DCode=110|XSize=2.1mm|YSize=2.7mm|CornerRadius=0.25mm|HoleSize=0mm|Usage=FLASHONLY|Rotation=0.000|XOffset=0mm|YOffset=0mm|HoleType=Round|Shape=RoundedRectangle|*
%AMROUNDEDRECTD110*
21,1,2.1000,2.2000,0,0,0.0*
21,1,1.6000,2.7000,0,0,0.0*
1,1,0.5000,0.8000,-1.1000*
1,1,0.5000,-0.8000,-1.1000*
1,1,0.5000,-0.8000,1.1000*
1,1,0.5000,0.8000,1.1000*
%
%ADD110ROUNDEDRECTD110*%
G04:AMPARAMS|DCode=111|XSize=1.3mm|YSize=1.7mm|CornerRadius=0.29mm|HoleSize=0mm|Usage=FLASHONLY|Rotation=180.000|XOffset=0mm|YOffset=0mm|HoleType=Round|Shape=RoundedRectangle|*
%AMROUNDEDRECTD111*
21,1,1.3000,1.1200,0,0,180.0*
21,1,0.7200,1.7000,0,0,180.0*
1,1,0.5800,-0.3600,0.5600*
1,1,0.5800,0.3600,0.5600*
1,1,0.5800,0.3600,-0.5600*
1,1,0.5800,-0.3600,-0.5600*
%
%ADD111ROUNDEDRECTD111*%
G04:AMPARAMS|DCode=112|XSize=1.4mm|YSize=0.35mm|CornerRadius=0.1438mm|HoleSize=0mm|Usage=FLASHONLY|Rotation=0.000|XOffset=0mm|YOffset=0mm|HoleType=Round|Shape=RoundedRectangle|*
%AMROUNDEDRECTD112*
21,1,1.4000,0.0625,0,0,0.0*
21,1,1.1125,0.3500,0,0,0.0*
1,1,0.2875,0.5563,-0.0313*
1,1,0.2875,-0.5563,-0.0313*
1,1,0.2875,-0.5563,0.0313*
1,1,0.2875,0.5563,0.0313*
%
%ADD112ROUNDEDRECTD112*%
G04:AMPARAMS|DCode=113|XSize=0.9mm|YSize=0.3mm|CornerRadius=0.125mm|HoleSize=0mm|Usage=FLASHONLY|Rotation=90.000|XOffset=0mm|YOffset=0mm|HoleType=Round|Shape=RoundedRectangle|*
%AMROUNDEDRECTD113*
21,1,0.9000,0.0500,0,0,90.0*
21,1,0.6500,0.3000,0,0,90.0*
1,1,0.2500,0.0250,0.3250*
1,1,0.2500,0.0250,-0.3250*
1,1,0.2500,-0.0250,-0.3250*
1,1,0.2500,-0.0250,0.3250*
%
%ADD113ROUNDEDRECTD113*%
G04:AMPARAMS|DCode=114|XSize=2.4mm|YSize=0.35mm|CornerRadius=0.1438mm|HoleSize=0mm|Usage=FLASHONLY|Rotation=180.000|XOffset=0mm|YOffset=0mm|HoleType=Round|Shape=RoundedRectangle|*
%AMROUNDEDRECTD114*
21,1,2.4000,0.0625,0,0,180.0*
21,1,2.1125,0.3500,0,0,180.0*
1,1,0.2875,-1.0562,0.0313*
1,1,0.2875,1.0562,0.0313*
1,1,0.2875,1.0562,-0.0313*
1,1,0.2875,-1.0562,-0.0313*
%
%ADD114ROUNDEDRECTD114*%
G04:AMPARAMS|DCode=115|XSize=1.2mm|YSize=1.8mm|CornerRadius=0.325mm|HoleSize=0mm|Usage=FLASHONLY|Rotation=0.000|XOffset=0mm|YOffset=0mm|HoleType=Round|Shape=RoundedRectangle|*
%AMROUNDEDRECTD115*
21,1,1.2000,1.1500,0,0,0.0*
21,1,0.5500,1.8000,0,0,0.0*
1,1,0.6500,0.2750,-0.5750*
1,1,0.6500,-0.2750,-0.5750*
1,1,0.6500,-0.2750,0.5750*
1,1,0.6500,0.2750,0.5750*
%
%ADD115ROUNDEDRECTD115*%
G04:AMPARAMS|DCode=116|XSize=0.95mm|YSize=1.35mm|CornerRadius=0.22mm|HoleSize=0mm|Usage=FLASHONLY|Rotation=0.000|XOffset=0mm|YOffset=0mm|HoleType=Round|Shape=RoundedRectangle|*
%AMROUNDEDRECTD116*
21,1,0.9500,0.9100,0,0,0.0*
21,1,0.5100,1.3500,0,0,0.0*
1,1,0.4400,0.2550,-0.4550*
1,1,0.4400,-0.2550,-0.4550*
1,1,0.4400,-0.2550,0.4550*
1,1,0.4400,0.2550,0.4550*
%
%ADD116ROUNDEDRECTD116*%
G04:AMPARAMS|DCode=117|XSize=0.85mm|YSize=0.9mm|CornerRadius=0.2375mm|HoleSize=0mm|Usage=FLASHONLY|Rotation=0.000|XOffset=0mm|YOffset=0mm|HoleType=Round|Shape=RoundedRectangle|*
%AMROUNDEDRECTD117*
21,1,0.8500,0.4250,0,0,0.0*
21,1,0.3750,0.9000,0,0,0.0*
1,1,0.4750,0.1875,-0.2125*
1,1,0.4750,-0.1875,-0.2125*
1,1,0.4750,-0.1875,0.2125*
1,1,0.4750,0.1875,0.2125*
%
%ADD117ROUNDEDRECTD117*%
G04:AMPARAMS|DCode=118|XSize=3.15mm|YSize=2.5mm|CornerRadius=0.35mm|HoleSize=0mm|Usage=FLASHONLY|Rotation=270.000|XOffset=0mm|YOffset=0mm|HoleType=Round|Shape=RoundedRectangle|*
%AMROUNDEDRECTD118*
21,1,3.1500,1.8000,0,0,270.0*
21,1,2.4500,2.5000,0,0,270.0*
1,1,0.7000,-0.9000,-1.2250*
1,1,0.7000,-0.9000,1.2250*
1,1,0.7000,0.9000,1.2250*
1,1,0.7000,0.9000,-1.2250*
%
%ADD118ROUNDEDRECTD118*%
G04:AMPARAMS|DCode=119|XSize=3.15mm|YSize=2.5mm|CornerRadius=0.35mm|HoleSize=0mm|Usage=FLASHONLY|Rotation=0.000|XOffset=0mm|YOffset=0mm|HoleType=Round|Shape=RoundedRectangle|*
%AMROUNDEDRECTD119*
21,1,3.1500,1.8000,0,0,0.0*
21,1,2.4500,2.5000,0,0,0.0*
1,1,0.7000,1.2250,-0.9000*
1,1,0.7000,-1.2250,-0.9000*
1,1,0.7000,-1.2250,0.9000*
1,1,0.7000,1.2250,0.9000*
%
%ADD119ROUNDEDRECTD119*%
%ADD120R,2.1000X0.3500*%
G04:AMPARAMS|DCode=121|XSize=0.35mm|YSize=3.5mm|CornerRadius=0.1438mm|HoleSize=0mm|Usage=FLASHONLY|Rotation=270.000|XOffset=0mm|YOffset=0mm|HoleType=Round|Shape=RoundedRectangle|*
%AMROUNDEDRECTD121*
21,1,0.3500,3.2125,0,0,270.0*
21,1,0.0625,3.5000,0,0,270.0*
1,1,0.2875,-1.6063,-0.0313*
1,1,0.2875,-1.6063,0.0313*
1,1,0.2875,1.6063,0.0313*
1,1,0.2875,1.6063,-0.0313*
%
%ADD121ROUNDEDRECTD121*%
G04:AMPARAMS|DCode=122|XSize=0.7mm|YSize=0.35mm|CornerRadius=0.1438mm|HoleSize=0mm|Usage=FLASHONLY|Rotation=270.000|XOffset=0mm|YOffset=0mm|HoleType=Round|Shape=RoundedRectangle|*
%AMROUNDEDRECTD122*
21,1,0.7000,0.0625,0,0,270.0*
21,1,0.4125,0.3500,0,0,270.0*
1,1,0.2875,-0.0313,-0.2063*
1,1,0.2875,-0.0313,0.2063*
1,1,0.2875,0.0313,0.2063*
1,1,0.2875,0.0313,-0.2063*
%
%ADD122ROUNDEDRECTD122*%
G04:AMPARAMS|DCode=123|XSize=0.35mm|YSize=0.7mm|CornerRadius=0.1438mm|HoleSize=0mm|Usage=FLASHONLY|Rotation=270.000|XOffset=0mm|YOffset=0mm|HoleType=Round|Shape=RoundedRectangle|*
%AMROUNDEDRECTD123*
21,1,0.3500,0.4125,0,0,270.0*
21,1,0.0625,0.7000,0,0,270.0*
1,1,0.2875,-0.2063,-0.0313*
1,1,0.2875,-0.2063,0.0313*
1,1,0.2875,0.2063,0.0313*
1,1,0.2875,0.2063,-0.0313*
%
%ADD123ROUNDEDRECTD123*%
G04:AMPARAMS|DCode=124|XSize=0.35mm|YSize=0.75mm|CornerRadius=0.1438mm|HoleSize=0mm|Usage=FLASHONLY|Rotation=270.000|XOffset=0mm|YOffset=0mm|HoleType=Round|Shape=RoundedRectangle|*
%AMROUNDEDRECTD124*
21,1,0.3500,0.4625,0,0,270.0*
21,1,0.0625,0.7500,0,0,270.0*
1,1,0.2875,-0.2313,-0.0313*
1,1,0.2875,-0.2313,0.0313*
1,1,0.2875,0.2313,0.0313*
1,1,0.2875,0.2313,-0.0313*
%
%ADD124ROUNDEDRECTD124*%
G04:AMPARAMS|DCode=125|XSize=0.7mm|YSize=0.6mm|CornerRadius=0.175mm|HoleSize=0mm|Usage=FLASHONLY|Rotation=0.000|XOffset=0mm|YOffset=0mm|HoleType=Round|Shape=RoundedRectangle|*
%AMROUNDEDRECTD125*
21,1,0.7000,0.2500,0,0,0.0*
21,1,0.3500,0.6000,0,0,0.0*
1,1,0.3500,0.1750,-0.1250*
1,1,0.3500,-0.1750,-0.1250*
1,1,0.3500,-0.1750,0.1250*
1,1,0.3500,0.1750,0.1250*
%
%ADD125ROUNDEDRECTD125*%
G04:AMPARAMS|DCode=126|XSize=3.3mm|YSize=1.1mm|CornerRadius=0.3mm|HoleSize=0mm|Usage=FLASHONLY|Rotation=90.000|XOffset=0mm|YOffset=0mm|HoleType=Round|Shape=RoundedRectangle|*
%AMROUNDEDRECTD126*
21,1,3.3000,0.5000,0,0,90.0*
21,1,2.7000,1.1000,0,0,90.0*
1,1,0.6000,0.2500,1.3500*
1,1,0.6000,0.2500,-1.3500*
1,1,0.6000,-0.2500,-1.3500*
1,1,0.6000,-0.2500,1.3500*
%
%ADD126ROUNDEDRECTD126*%
G04:AMPARAMS|DCode=127|XSize=1.2mm|YSize=1.8mm|CornerRadius=0.325mm|HoleSize=0mm|Usage=FLASHONLY|Rotation=270.000|XOffset=0mm|YOffset=0mm|HoleType=Round|Shape=RoundedRectangle|*
%AMROUNDEDRECTD127*
21,1,1.2000,1.1500,0,0,270.0*
21,1,0.5500,1.8000,0,0,270.0*
1,1,0.6500,-0.5750,-0.2750*
1,1,0.6500,-0.5750,0.2750*
1,1,0.6500,0.5750,0.2750*
1,1,0.6500,0.5750,-0.2750*
%
%ADD127ROUNDEDRECTD127*%
G04:AMPARAMS|DCode=128|XSize=6.6mm|YSize=2.02mm|CornerRadius=0.53mm|HoleSize=0mm|Usage=FLASHONLY|Rotation=0.000|XOffset=0mm|YOffset=0mm|HoleType=Round|Shape=RoundedRectangle|*
%AMROUNDEDRECTD128*
21,1,6.6000,0.9600,0,0,0.0*
21,1,5.5400,2.0200,0,0,0.0*
1,1,1.0600,2.7700,-0.4800*
1,1,1.0600,-2.7700,-0.4800*
1,1,1.0600,-2.7700,0.4800*
1,1,1.0600,2.7700,0.4800*
%
%ADD128ROUNDEDRECTD128*%
G04:AMPARAMS|DCode=129|XSize=1.7mm|YSize=0.5mm|CornerRadius=0.15mm|HoleSize=0mm|Usage=FLASHONLY|Rotation=270.000|XOffset=0mm|YOffset=0mm|HoleType=Round|Shape=RoundedRectangle|*
%AMROUNDEDRECTD129*
21,1,1.7000,0.2000,0,0,270.0*
21,1,1.4000,0.5000,0,0,270.0*
1,1,0.3000,-0.1000,-0.7000*
1,1,0.3000,-0.1000,0.7000*
1,1,0.3000,0.1000,0.7000*
1,1,0.3000,0.1000,-0.7000*
%
%ADD129ROUNDEDRECTD129*%
G04:AMPARAMS|DCode=130|XSize=0.8mm|YSize=0.35mm|CornerRadius=0.1125mm|HoleSize=0mm|Usage=FLASHONLY|Rotation=180.000|XOffset=0mm|YOffset=0mm|HoleType=Round|Shape=RoundedRectangle|*
%AMROUNDEDRECTD130*
21,1,0.8000,0.1250,0,0,180.0*
21,1,0.5750,0.3500,0,0,180.0*
1,1,0.2250,-0.2875,0.0625*
1,1,0.2250,0.2875,0.0625*
1,1,0.2250,0.2875,-0.0625*
1,1,0.2250,-0.2875,-0.0625*
%
%ADD130ROUNDEDRECTD130*%
G04:AMPARAMS|DCode=131|XSize=1.3mm|YSize=1.1mm|CornerRadius=0.15mm|HoleSize=0mm|Usage=FLASHONLY|Rotation=180.000|XOffset=0mm|YOffset=0mm|HoleType=Round|Shape=RoundedRectangle|*
%AMROUNDEDRECTD131*
21,1,1.3000,0.8000,0,0,180.0*
21,1,1.0000,1.1000,0,0,180.0*
1,1,0.3000,-0.5000,0.4000*
1,1,0.3000,0.5000,0.4000*
1,1,0.3000,0.5000,-0.4000*
1,1,0.3000,-0.5000,-0.4000*
%
%ADD131ROUNDEDRECTD131*%
G04:AMPARAMS|DCode=132|XSize=1.3mm|YSize=1.1mm|CornerRadius=0.3mm|HoleSize=0mm|Usage=FLASHONLY|Rotation=180.000|XOffset=0mm|YOffset=0mm|HoleType=Round|Shape=RoundedRectangle|*
%AMROUNDEDRECTD132*
21,1,1.3000,0.5000,0,0,180.0*
21,1,0.7000,1.1000,0,0,180.0*
1,1,0.6000,-0.3500,0.2500*
1,1,0.6000,0.3500,0.2500*
1,1,0.6000,0.3500,-0.2500*
1,1,0.6000,-0.3500,-0.2500*
%
%ADD132ROUNDEDRECTD132*%
G04:AMPARAMS|DCode=133|XSize=3.3mm|YSize=3.3mm|CornerRadius=0.21mm|HoleSize=0mm|Usage=FLASHONLY|Rotation=180.000|XOffset=0mm|YOffset=0mm|HoleType=Round|Shape=RoundedRectangle|*
%AMROUNDEDRECTD133*
21,1,3.3000,2.8800,0,0,180.0*
21,1,2.8800,3.3000,0,0,180.0*
1,1,0.4200,-1.4400,1.4400*
1,1,0.4200,1.4400,1.4400*
1,1,0.4200,1.4400,-1.4400*
1,1,0.4200,-1.4400,-1.4400*
%
%ADD133ROUNDEDRECTD133*%
G04:AMPARAMS|DCode=134|XSize=0.5mm|YSize=0.9mm|CornerRadius=0.15mm|HoleSize=0mm|Usage=FLASHONLY|Rotation=180.000|XOffset=0mm|YOffset=0mm|HoleType=Round|Shape=RoundedRectangle|*
%AMROUNDEDRECTD134*
21,1,0.5000,0.6000,0,0,180.0*
21,1,0.2000,0.9000,0,0,180.0*
1,1,0.3000,-0.1000,0.3000*
1,1,0.3000,0.1000,0.3000*
1,1,0.3000,0.1000,-0.3000*
1,1,0.3000,-0.1000,-0.3000*
%
%ADD134ROUNDEDRECTD134*%
G04:AMPARAMS|DCode=135|XSize=0.8mm|YSize=0.45mm|CornerRadius=0.1813mm|HoleSize=0mm|Usage=FLASHONLY|Rotation=270.000|XOffset=0mm|YOffset=0mm|HoleType=Round|Shape=RoundedRectangle|*
%AMROUNDEDRECTD135*
21,1,0.8000,0.0875,0,0,270.0*
21,1,0.4375,0.4500,0,0,270.0*
1,1,0.3625,-0.0438,-0.2188*
1,1,0.3625,-0.0438,0.2188*
1,1,0.3625,0.0438,0.2188*
1,1,0.3625,0.0438,-0.2188*
%
%ADD135ROUNDEDRECTD135*%
G04:AMPARAMS|DCode=136|XSize=2.1mm|YSize=1.1mm|CornerRadius=0.175mm|HoleSize=0mm|Usage=FLASHONLY|Rotation=0.000|XOffset=0mm|YOffset=0mm|HoleType=Round|Shape=RoundedRectangle|*
%AMROUNDEDRECTD136*
21,1,2.1000,0.7500,0,0,0.0*
21,1,1.7500,1.1000,0,0,0.0*
1,1,0.3500,0.8750,-0.3750*
1,1,0.3500,-0.8750,-0.3750*
1,1,0.3500,-0.8750,0.3750*
1,1,0.3500,0.8750,0.3750*
%
%ADD136ROUNDEDRECTD136*%
G04:AMPARAMS|DCode=137|XSize=3.3mm|YSize=1.1mm|CornerRadius=0.3mm|HoleSize=0mm|Usage=FLASHONLY|Rotation=180.000|XOffset=0mm|YOffset=0mm|HoleType=Round|Shape=RoundedRectangle|*
%AMROUNDEDRECTD137*
21,1,3.3000,0.5000,0,0,180.0*
21,1,2.7000,1.1000,0,0,180.0*
1,1,0.6000,-1.3500,0.2500*
1,1,0.6000,1.3500,0.2500*
1,1,0.6000,1.3500,-0.2500*
1,1,0.6000,-1.3500,-0.2500*
%
%ADD137ROUNDEDRECTD137*%
G04:AMPARAMS|DCode=138|XSize=2.3mm|YSize=3.3mm|CornerRadius=0.6mm|HoleSize=0mm|Usage=FLASHONLY|Rotation=0.000|XOffset=0mm|YOffset=0mm|HoleType=Round|Shape=RoundedRectangle|*
%AMROUNDEDRECTD138*
21,1,2.3000,2.1000,0,0,0.0*
21,1,1.1000,3.3000,0,0,0.0*
1,1,1.2000,0.5500,-1.0500*
1,1,1.2000,-0.5500,-1.0500*
1,1,1.2000,-0.5500,1.0500*
1,1,1.2000,0.5500,1.0500*
%
%ADD138ROUNDEDRECTD138*%
G04:AMPARAMS|DCode=139|XSize=0.775mm|YSize=0.3mm|CornerRadius=0.1mm|HoleSize=0mm|Usage=FLASHONLY|Rotation=90.000|XOffset=0mm|YOffset=0mm|HoleType=Round|Shape=RoundedRectangle|*
%AMROUNDEDRECTD139*
21,1,0.7750,0.1000,0,0,90.0*
21,1,0.5750,0.3000,0,0,90.0*
1,1,0.2000,0.0500,0.2875*
1,1,0.2000,0.0500,-0.2875*
1,1,0.2000,-0.0500,-0.2875*
1,1,0.2000,-0.0500,0.2875*
%
%ADD139ROUNDEDRECTD139*%
G04:AMPARAMS|DCode=140|XSize=0.875mm|YSize=0.5mm|CornerRadius=0.15mm|HoleSize=0mm|Usage=FLASHONLY|Rotation=90.000|XOffset=0mm|YOffset=0mm|HoleType=Round|Shape=RoundedRectangle|*
%AMROUNDEDRECTD140*
21,1,0.8750,0.2000,0,0,90.0*
21,1,0.5750,0.5000,0,0,90.0*
1,1,0.3000,0.1000,0.2875*
1,1,0.3000,0.1000,-0.2875*
1,1,0.3000,-0.1000,-0.2875*
1,1,0.3000,-0.1000,0.2875*
%
%ADD140ROUNDEDRECTD140*%
G04:AMPARAMS|DCode=141|XSize=0.8mm|YSize=0.3mm|CornerRadius=0.125mm|HoleSize=0mm|Usage=FLASHONLY|Rotation=270.000|XOffset=0mm|YOffset=0mm|HoleType=Round|Shape=RoundedRectangle|*
%AMROUNDEDRECTD141*
21,1,0.8000,0.0500,0,0,270.0*
21,1,0.5500,0.3000,0,0,270.0*
1,1,0.2500,-0.0250,-0.2750*
1,1,0.2500,-0.0250,0.2750*
1,1,0.2500,0.0250,0.2750*
1,1,0.2500,0.0250,-0.2750*
%
%ADD141ROUNDEDRECTD141*%
G04:AMPARAMS|DCode=142|XSize=0.8mm|YSize=0.3mm|CornerRadius=0.125mm|HoleSize=0mm|Usage=FLASHONLY|Rotation=0.000|XOffset=0mm|YOffset=0mm|HoleType=Round|Shape=RoundedRectangle|*
%AMROUNDEDRECTD142*
21,1,0.8000,0.0500,0,0,0.0*
21,1,0.5500,0.3000,0,0,0.0*
1,1,0.2500,0.2750,-0.0250*
1,1,0.2500,-0.2750,-0.0250*
1,1,0.2500,-0.2750,0.0250*
1,1,0.2500,0.2750,0.0250*
%
%ADD142ROUNDEDRECTD142*%
G04:AMPARAMS|DCode=143|XSize=1.8mm|YSize=1.8mm|CornerRadius=0.135mm|HoleSize=0mm|Usage=FLASHONLY|Rotation=270.000|XOffset=0mm|YOffset=0mm|HoleType=Round|Shape=RoundedRectangle|*
%AMROUNDEDRECTD143*
21,1,1.8000,1.5300,0,0,270.0*
21,1,1.5300,1.8000,0,0,270.0*
1,1,0.2700,-0.7650,-0.7650*
1,1,0.2700,-0.7650,0.7650*
1,1,0.2700,0.7650,0.7650*
1,1,0.2700,0.7650,-0.7650*
%
%ADD143ROUNDEDRECTD143*%
G04:AMPARAMS|DCode=144|XSize=0.7mm|YSize=1mm|CornerRadius=0.2mm|HoleSize=0mm|Usage=FLASHONLY|Rotation=0.000|XOffset=0mm|YOffset=0mm|HoleType=Round|Shape=RoundedRectangle|*
%AMROUNDEDRECTD144*
21,1,0.7000,0.6000,0,0,0.0*
21,1,0.3000,1.0000,0,0,0.0*
1,1,0.4000,0.1500,-0.3000*
1,1,0.4000,-0.1500,-0.3000*
1,1,0.4000,-0.1500,0.3000*
1,1,0.4000,0.1500,0.3000*
%
%ADD144ROUNDEDRECTD144*%
G04:AMPARAMS|DCode=145|XSize=0.35mm|YSize=1.1mm|CornerRadius=0.1438mm|HoleSize=0mm|Usage=FLASHONLY|Rotation=180.000|XOffset=0mm|YOffset=0mm|HoleType=Round|Shape=RoundedRectangle|*
%AMROUNDEDRECTD145*
21,1,0.3500,0.8125,0,0,180.0*
21,1,0.0625,1.1000,0,0,180.0*
1,1,0.2875,-0.0313,0.4063*
1,1,0.2875,0.0313,0.4063*
1,1,0.2875,0.0313,-0.4063*
1,1,0.2875,-0.0313,-0.4063*
%
%ADD145ROUNDEDRECTD145*%
%ADD146C,3.0000*%
%ADD147C,1.3000*%
%ADD148C,1.8000*%
%ADD149C,6.3000*%
%ADD150C,1.0000*%
%ADD151C,3.7000*%
%ADD152C,5.8000*%
%ADD153C,2.1016*%
%ADD154O,1.3016X3.9016*%
%ADD155O,1.2016X2.6016*%
%ADD156C,2.7000*%
%ADD157O,1.3016X2.6016*%
%ADD158C,0.8500*%
G04:AMPARAMS|DCode=159|XSize=2.2mm|YSize=1.1mm|CornerRadius=0.55mm|HoleSize=0mm|Usage=FLASHONLY|Rotation=270.000|XOffset=0mm|YOffset=0mm|HoleType=Round|Shape=RoundedRectangle|*
%AMROUNDEDRECTD159*
21,1,2.2000,0.0000,0,0,270.0*
21,1,1.1000,1.1000,0,0,270.0*
1,1,1.1000,0.0000,-0.5500*
1,1,1.1000,0.0000,0.5500*
1,1,1.1000,0.0000,0.5500*
1,1,1.1000,0.0000,-0.5500*
%
%ADD159ROUNDEDRECTD159*%
G04:AMPARAMS|DCode=160|XSize=1.9mm|YSize=1.1mm|CornerRadius=0.55mm|HoleSize=0mm|Usage=FLASHONLY|Rotation=270.000|XOffset=0mm|YOffset=0mm|HoleType=Round|Shape=RoundedRectangle|*
%AMROUNDEDRECTD160*
21,1,1.9000,0.0000,0,0,270.0*
21,1,0.8000,1.1000,0,0,270.0*
1,1,1.1000,0.0000,-0.4000*
1,1,1.1000,0.0000,0.4000*
1,1,1.1000,0.0000,0.4000*
1,1,1.1000,0.0000,-0.4000*
%
%ADD160ROUNDEDRECTD160*%
%ADD161C,0.7500*%
G04:AMPARAMS|DCode=162|XSize=7.5mm|YSize=3.9mm|CornerRadius=1mm|HoleSize=0mm|Usage=FLASHONLY|Rotation=180.000|XOffset=0mm|YOffset=0mm|HoleType=Round|Shape=RoundedRectangle|*
%AMROUNDEDRECTD162*
21,1,7.5000,1.9000,0,0,180.0*
21,1,5.5000,3.9000,0,0,180.0*
1,1,2.0000,-2.7500,0.9500*
1,1,2.0000,2.7500,0.9500*
1,1,2.0000,2.7500,-0.9500*
1,1,2.0000,-2.7500,-0.9500*
%
%ADD162ROUNDEDRECTD162*%
G36*
X00134248Y00135043D02*
X00134342Y00135014D01*
X00134429Y00134968D01*
X00134505Y00134905D01*
X00134568Y00134829D01*
X00134614Y00134742D01*
X00134643Y00134648D01*
X00134652Y00134550D01*
Y00131252D01*
X00138300D01*
X00138398Y00131243D01*
X00138492Y00131214D01*
X00138579Y00131168D01*
X00138655Y00131105D01*
X00138718Y00131029D01*
X00138764Y00130942D01*
X00138793Y00130848D01*
X00138802Y00130750D01*
Y00106250D01*
X00138793Y00106152D01*
X00138764Y00106058D01*
X00138718Y00105971D01*
X00138655Y00105895D01*
X00138579Y00105832D01*
X00138492Y00105786D01*
X00138398Y00105757D01*
X00138300Y00105748D01*
X00134652D01*
Y00102450D01*
X00134643Y00102352D01*
X00134614Y00102258D01*
X00134568Y00102171D01*
X00134505Y00102095D01*
X00134429Y00102032D01*
X00134342Y00101986D01*
X00134248Y00101957D01*
X00134150Y00101948D01*
X00129850D01*
X00129752Y00101957D01*
X00129658Y00101986D01*
X00129571Y00102032D01*
X00129495Y00102095D01*
X00129432Y00102171D01*
X00129386Y00102258D01*
X00129357Y00102352D01*
X00129347Y00102450D01*
Y00105748D01*
X00118500D01*
X00118402Y00105757D01*
X00118308Y00105786D01*
X00118221Y00105832D01*
X00118145Y00105895D01*
X00118082Y00105971D01*
X00118036Y00106058D01*
X00118007Y00106152D01*
X00117998Y00106250D01*
Y00130750D01*
X00118007Y00130848D01*
X00118036Y00130942D01*
X00118082Y00131029D01*
X00118145Y00131105D01*
X00118221Y00131168D01*
X00118308Y00131214D01*
X00118402Y00131243D01*
X00118500Y00131252D01*
X00129347D01*
Y00134550D01*
X00129357Y00134648D01*
X00129386Y00134742D01*
X00129432Y00134829D01*
X00129495Y00134905D01*
X00129571Y00134968D01*
X00129658Y00135014D01*
X00129752Y00135043D01*
X00129850Y00135052D01*
X00134150D01*
X00134248Y00135043D01*
D02*
G37*
G36*
X00088248D02*
X00088342Y00135014D01*
X00088429Y00134968D01*
X00088505Y00134905D01*
X00088568Y00134829D01*
X00088614Y00134742D01*
X00088643Y00134648D01*
X00088652Y00134550D01*
Y00131252D01*
X00092300D01*
X00092398Y00131243D01*
X00092492Y00131214D01*
X00092579Y00131168D01*
X00092655Y00131105D01*
X00092718Y00131029D01*
X00092764Y00130942D01*
X00092793Y00130848D01*
X00092802Y00130750D01*
Y00106250D01*
X00092793Y00106152D01*
X00092764Y00106058D01*
X00092718Y00105971D01*
X00092655Y00105895D01*
X00092579Y00105832D01*
X00092492Y00105786D01*
X00092398Y00105757D01*
X00092300Y00105748D01*
X00088652D01*
Y00102450D01*
X00088643Y00102352D01*
X00088614Y00102258D01*
X00088568Y00102171D01*
X00088505Y00102095D01*
X00088429Y00102032D01*
X00088342Y00101986D01*
X00088248Y00101957D01*
X00088150Y00101948D01*
X00083850D01*
X00083752Y00101957D01*
X00083658Y00101986D01*
X00083571Y00102032D01*
X00083495Y00102095D01*
X00083432Y00102171D01*
X00083386Y00102258D01*
X00083357Y00102352D01*
X00083348Y00102450D01*
Y00105748D01*
X00072500D01*
X00072402Y00105757D01*
X00072308Y00105786D01*
X00072221Y00105832D01*
X00072145Y00105895D01*
X00072082Y00105971D01*
X00072036Y00106058D01*
X00072007Y00106152D01*
X00071998Y00106250D01*
Y00130750D01*
X00072007Y00130848D01*
X00072036Y00130942D01*
X00072082Y00131029D01*
X00072145Y00131105D01*
X00072221Y00131168D01*
X00072308Y00131214D01*
X00072402Y00131243D01*
X00072500Y00131252D01*
X00083348D01*
Y00134550D01*
X00083357Y00134648D01*
X00083386Y00134742D01*
X00083432Y00134829D01*
X00083495Y00134905D01*
X00083571Y00134968D01*
X00083658Y00135014D01*
X00083752Y00135043D01*
X00083850Y00135052D01*
X00088150D01*
X00088248Y00135043D01*
D02*
G37*
G36*
X00043248Y00135043D02*
X00043342Y00135014D01*
X00043429Y00134968D01*
X00043505Y00134905D01*
X00043568Y00134829D01*
X00043614Y00134742D01*
X00043643Y00134648D01*
X00043652Y00134550D01*
Y00131252D01*
X00054500D01*
X00054598Y00131243D01*
X00054692Y00131214D01*
X00054779Y00131168D01*
X00054855Y00131105D01*
X00054918Y00131029D01*
X00054964Y00130942D01*
X00054993Y00130848D01*
X00055002Y00130750D01*
Y00106250D01*
X00054993Y00106152D01*
X00054964Y00106058D01*
X00054918Y00105971D01*
X00054855Y00105895D01*
X00054779Y00105832D01*
X00054692Y00105786D01*
X00054598Y00105757D01*
X00054500Y00105748D01*
X00043652D01*
Y00102450D01*
X00043643Y00102352D01*
X00043614Y00102258D01*
X00043568Y00102171D01*
X00043505Y00102095D01*
X00043429Y00102032D01*
X00043342Y00101986D01*
X00043248Y00101957D01*
X00043150Y00101947D01*
X00038850D01*
X00038752Y00101957D01*
X00038658Y00101986D01*
X00038571Y00102032D01*
X00038495Y00102095D01*
X00038432Y00102171D01*
X00038386Y00102258D01*
X00038357Y00102352D01*
X00038348Y00102450D01*
Y00105747D01*
X00034700D01*
X00034602Y00105757D01*
X00034508Y00105786D01*
X00034421Y00105832D01*
X00034345Y00105895D01*
X00034282Y00105971D01*
X00034236Y00106058D01*
X00034207Y00106152D01*
X00034198Y00106250D01*
Y00130750D01*
X00034207Y00130848D01*
X00034236Y00130942D01*
X00034282Y00131029D01*
X00034345Y00131105D01*
X00034421Y00131168D01*
X00034508Y00131214D01*
X00034602Y00131243D01*
X00034700Y00131252D01*
X00038348D01*
Y00134550D01*
X00038357Y00134648D01*
X00038386Y00134742D01*
X00038432Y00134829D01*
X00038495Y00134905D01*
X00038571Y00134968D01*
X00038658Y00135014D01*
X00038752Y00135043D01*
X00038850Y00135052D01*
X00043150D01*
X00043248Y00135043D01*
D02*
G37*
G36*
X00157227Y00027465D02*
X00157296Y00027459D01*
X00157296Y00027459D01*
X00157779Y00027363D01*
X00157779D01*
X00157837Y00027345D01*
X00157874Y00027334D01*
X00157874Y00027334D01*
D01*
X00158329Y00027146D01*
D01*
X00158329Y00027145D01*
X00158381Y00027117D01*
X00158415Y00027099D01*
X00158416Y00027099D01*
X00158416Y00027099D01*
X00158825Y00026825D01*
X00158825Y00026825D01*
X00158849Y00026805D01*
X00158901Y00026763D01*
X00158901Y00026763D01*
X00159074Y00026590D01*
X00159075Y00026589D01*
X00159249Y00026415D01*
Y00026415D01*
X00159249D01*
X00159312Y00026339D01*
X00159585Y00025929D01*
X00159585Y00025929D01*
X00159626Y00025854D01*
X00159632Y00025842D01*
D01*
X00159632Y00025842D01*
X00159820Y00025387D01*
X00159849Y00025293D01*
Y00025293D01*
X00159945Y00024810D01*
X00159945Y00024810D01*
X00159953Y00024731D01*
X00159955Y00024712D01*
Y00024712D01*
Y00024712D01*
X00159954Y00024466D01*
X00159955Y00024466D01*
Y00024465D01*
D01*
D01*
X00159954Y00018953D01*
X00159954Y00018952D01*
X00159950Y00018913D01*
X00159944Y00018854D01*
X00159924Y00018789D01*
X00159916Y00018760D01*
X00159869Y00018673D01*
X00159807Y00018597D01*
X00159807Y00018597D01*
D01*
D01*
X00147821Y00006611D01*
X00147745Y00006549D01*
X00147658Y00006502D01*
X00147629Y00006494D01*
X00147563Y00006474D01*
X00147505Y00006468D01*
X00147465Y00006464D01*
X00147465Y00006464D01*
X00141952Y00006463D01*
X00141952D01*
X00141952D01*
X00141706D01*
X00141608Y00006473D01*
X00141125Y00006569D01*
X00141031Y00006598D01*
X00141030Y00006598D01*
X00140576Y00006786D01*
X00140576Y00006786D01*
X00140545Y00006802D01*
X00140489Y00006833D01*
X00140489Y00006833D01*
X00140079Y00007106D01*
X00140052Y00007128D01*
X00140003Y00007169D01*
X00139829Y00007343D01*
X00139829Y00007343D01*
X00139655Y00007517D01*
X00139592Y00007593D01*
X00139319Y00008002D01*
X00139272Y00008089D01*
X00139084Y00008544D01*
D01*
X00139084Y00008544D01*
X00139068Y00008597D01*
X00139055Y00008639D01*
Y00008639D01*
X00138959Y00009122D01*
X00138950Y00009220D01*
D01*
Y00009220D01*
X00138950Y00009466D01*
X00138950Y00009466D01*
X00138950Y00024466D01*
X00138950Y00024712D01*
Y00024712D01*
D01*
X00138959Y00024810D01*
X00139055Y00025293D01*
X00139055Y00025293D01*
Y00025293D01*
X00139060Y00025308D01*
X00139084Y00025387D01*
X00139084Y00025387D01*
X00139272Y00025842D01*
X00139272Y00025842D01*
X00139305Y00025903D01*
X00139319Y00025929D01*
X00139319Y00025929D01*
X00139593Y00026339D01*
X00139593Y00026339D01*
X00139633Y00026388D01*
X00139655Y00026415D01*
X00139655Y00026415D01*
X00139655Y00026415D01*
X00139827Y00026587D01*
X00139829Y00026589D01*
X00140003Y00026763D01*
X00140003Y00026763D01*
X00140003Y00026763D01*
X00140018Y00026775D01*
X00140079Y00026825D01*
X00140079Y00026825D01*
X00140489Y00027099D01*
X00140489Y00027099D01*
X00140529Y00027121D01*
X00140576Y00027146D01*
X00140576Y00027146D01*
X00141031Y00027334D01*
X00141125Y00027362D01*
X00141125D01*
X00141608Y00027459D01*
X00141608D01*
X00141608Y00027459D01*
X00141658Y00027463D01*
X00141706Y00027468D01*
X00141706D01*
X00141706D01*
X00141949Y00027468D01*
X00141952Y00027468D01*
X00156952Y00027468D01*
X00157198Y00027468D01*
X00157198D01*
X00157198D01*
X00157227Y00027465D01*
D02*
G37*
G36*
X00363348Y00691293D02*
X00363442Y00691264D01*
X00363529Y00691218D01*
X00363605Y00691155D01*
X00363668Y00691079D01*
X00363714Y00690992D01*
X00363743Y00690898D01*
X00363752Y00690800D01*
Y00687152D01*
X00367050D01*
X00367148Y00687143D01*
X00367242Y00687114D01*
X00367329Y00687068D01*
X00367405Y00687005D01*
X00367468Y00686929D01*
X00367514Y00686842D01*
X00367543Y00686748D01*
X00367552Y00686650D01*
Y00682350D01*
X00367543Y00682252D01*
X00367514Y00682158D01*
X00367468Y00682071D01*
X00367405Y00681995D01*
X00367329Y00681932D01*
X00367242Y00681886D01*
X00367148Y00681857D01*
X00367050Y00681848D01*
X00363752D01*
Y00671000D01*
X00363743Y00670902D01*
X00363714Y00670808D01*
X00363668Y00670721D01*
X00363605Y00670645D01*
X00363529Y00670582D01*
X00363442Y00670536D01*
X00363348Y00670507D01*
X00363250Y00670498D01*
X00338750D01*
X00338652Y00670507D01*
X00338558Y00670536D01*
X00338471Y00670582D01*
X00338395Y00670645D01*
X00338332Y00670721D01*
X00338286Y00670808D01*
X00338257Y00670902D01*
X00338248Y00671000D01*
Y00681848D01*
X00334950D01*
X00334852Y00681857D01*
X00334758Y00681886D01*
X00334671Y00681932D01*
X00334595Y00681995D01*
X00334532Y00682071D01*
X00334486Y00682158D01*
X00334457Y00682252D01*
X00334448Y00682350D01*
Y00686650D01*
X00334457Y00686748D01*
X00334486Y00686842D01*
X00334532Y00686929D01*
X00334595Y00687005D01*
X00334671Y00687068D01*
X00334758Y00687114D01*
X00334852Y00687143D01*
X00334950Y00687152D01*
X00338248D01*
Y00690800D01*
X00338257Y00690898D01*
X00338286Y00690992D01*
X00338332Y00691079D01*
X00338395Y00691155D01*
X00338471Y00691218D01*
X00338558Y00691264D01*
X00338652Y00691293D01*
X00338750Y00691302D01*
X00363250D01*
X00363348Y00691293D01*
D02*
G37*
G36*
X00269248Y00701043D02*
X00269342Y00701014D01*
X00269429Y00700968D01*
X00269505Y00700905D01*
X00269568Y00700829D01*
X00269614Y00700742D01*
X00269643Y00700648D01*
X00269652Y00700550D01*
Y00697252D01*
X00280500D01*
X00280598Y00697243D01*
X00280692Y00697214D01*
X00280779Y00697168D01*
X00280855Y00697105D01*
X00280918Y00697029D01*
X00280964Y00696942D01*
X00280993Y00696848D01*
X00281002Y00696750D01*
Y00672250D01*
X00280993Y00672152D01*
X00280964Y00672058D01*
X00280918Y00671971D01*
X00280855Y00671895D01*
X00280779Y00671832D01*
X00280692Y00671786D01*
X00280598Y00671757D01*
X00280500Y00671748D01*
X00269652D01*
Y00668450D01*
X00269643Y00668352D01*
X00269614Y00668258D01*
X00269568Y00668171D01*
X00269505Y00668095D01*
X00269429Y00668032D01*
X00269342Y00667986D01*
X00269248Y00667957D01*
X00269150Y00667948D01*
X00264850D01*
X00264752Y00667957D01*
X00264658Y00667986D01*
X00264571Y00668032D01*
X00264495Y00668095D01*
X00264432Y00668171D01*
X00264386Y00668258D01*
X00264357Y00668352D01*
X00264348Y00668450D01*
Y00671748D01*
X00260700D01*
X00260602Y00671757D01*
X00260508Y00671786D01*
X00260421Y00671832D01*
X00260345Y00671895D01*
X00260282Y00671971D01*
X00260236Y00672058D01*
X00260207Y00672152D01*
X00260198Y00672250D01*
Y00696750D01*
X00260207Y00696848D01*
X00260236Y00696942D01*
X00260282Y00697029D01*
X00260345Y00697105D01*
X00260421Y00697168D01*
X00260508Y00697214D01*
X00260602Y00697243D01*
X00260700Y00697252D01*
X00264348D01*
Y00700550D01*
X00264357Y00700648D01*
X00264386Y00700742D01*
X00264432Y00700829D01*
X00264495Y00700905D01*
X00264571Y00700968D01*
X00264658Y00701014D01*
X00264752Y00701043D01*
X00264850Y00701052D01*
X00269150D01*
X00269248Y00701043D01*
D02*
G37*
G36*
X00324848Y00676793D02*
X00324942Y00676764D01*
X00325029Y00676718D01*
X00325105Y00676655D01*
X00325168Y00676579D01*
X00325214Y00676492D01*
X00325243Y00676398D01*
X00325252Y00676300D01*
Y00672652D01*
X00328550D01*
X00328648Y00672643D01*
X00328742Y00672614D01*
X00328829Y00672568D01*
X00328905Y00672505D01*
X00328968Y00672429D01*
X00329014Y00672342D01*
X00329043Y00672248D01*
X00329052Y00672150D01*
Y00667850D01*
X00329043Y00667752D01*
X00329014Y00667658D01*
X00328968Y00667571D01*
X00328905Y00667495D01*
X00328829Y00667432D01*
X00328742Y00667386D01*
X00328648Y00667357D01*
X00328550Y00667348D01*
X00325252D01*
Y00656500D01*
X00325243Y00656402D01*
X00325214Y00656308D01*
X00325168Y00656221D01*
X00325105Y00656145D01*
X00325029Y00656082D01*
X00324942Y00656036D01*
X00324848Y00656007D01*
X00324750Y00655998D01*
X00300250D01*
X00300152Y00656007D01*
X00300058Y00656036D01*
X00299971Y00656082D01*
X00299895Y00656145D01*
X00299832Y00656221D01*
X00299786Y00656308D01*
X00299757Y00656402D01*
X00299748Y00656500D01*
Y00667348D01*
X00296450D01*
X00296352Y00667357D01*
X00296258Y00667386D01*
X00296171Y00667432D01*
X00296095Y00667495D01*
X00296032Y00667571D01*
X00295986Y00667658D01*
X00295957Y00667752D01*
X00295948Y00667850D01*
Y00672150D01*
X00295957Y00672248D01*
X00295986Y00672342D01*
X00296032Y00672429D01*
X00296095Y00672505D01*
X00296171Y00672568D01*
X00296258Y00672614D01*
X00296352Y00672643D01*
X00296450Y00672652D01*
X00299748D01*
Y00676300D01*
X00299757Y00676398D01*
X00299786Y00676492D01*
X00299832Y00676579D01*
X00299895Y00676655D01*
X00299971Y00676718D01*
X00300058Y00676764D01*
X00300152Y00676793D01*
X00300250Y00676802D01*
X00324750D01*
X00324848Y00676793D01*
D02*
G37*
G36*
X00349348Y00381143D02*
X00349442Y00381114D01*
X00349529Y00381068D01*
X00349605Y00381005D01*
X00349668Y00380929D01*
X00349714Y00380842D01*
X00349742Y00380752D01*
X00354050D01*
X00354082Y00380749D01*
X00354114Y00380748D01*
X00354131Y00380745D01*
X00354148Y00380743D01*
X00354162Y00380739D01*
X00354163Y00380738D01*
X00354180Y00380735D01*
X00354198Y00380733D01*
X00354212Y00380729D01*
X00354213Y00380728D01*
X00354230Y00380725D01*
X00354248Y00380723D01*
X00354278Y00380714D01*
X00354309Y00380707D01*
X00354339Y00380697D01*
X00354369Y00380683D01*
X00354388Y00380677D01*
X00354405Y00380670D01*
X00354422Y00380664D01*
X00354450Y00380650D01*
X00354478Y00380637D01*
X00354493Y00380626D01*
X00354509Y00380618D01*
X00354534Y00380598D01*
X00354543Y00380591D01*
X00354549Y00380588D01*
X00354558Y00380581D01*
X00354559Y00380580D01*
X00354559Y00380579D01*
X00354563Y00380576D01*
X00354579Y00380567D01*
X00354586Y00380559D01*
X00354589Y00380558D01*
X00354604Y00380546D01*
X00354619Y00380536D01*
X00354641Y00380515D01*
X00354665Y00380495D01*
X00354685Y00380475D01*
X00354686Y00380475D01*
X00354705Y00380456D01*
X00354705Y00380455D01*
X00354705Y00380455D01*
X00354725Y00380435D01*
X00354745Y00380415D01*
X00354766Y00380391D01*
X00354787Y00380368D01*
X00354796Y00380353D01*
X00354808Y00380339D01*
X00354810Y00380336D01*
X00354818Y00380327D01*
X00354827Y00380313D01*
X00354830Y00380309D01*
X00354830Y00380309D01*
X00354830Y00380309D01*
X00354838Y00380299D01*
X00354841Y00380293D01*
X00354848Y00380284D01*
X00354868Y00380260D01*
X00354876Y00380244D01*
X00354887Y00380229D01*
X00354900Y00380200D01*
X00354914Y00380173D01*
X00354919Y00380155D01*
X00354927Y00380139D01*
X00354934Y00380118D01*
X00354947Y00380089D01*
X00354957Y00380059D01*
X00354964Y00380028D01*
X00354973Y00379998D01*
X00354975Y00379980D01*
X00354979Y00379963D01*
X00354979Y00379962D01*
X00354983Y00379947D01*
X00354985Y00379930D01*
X00354989Y00379913D01*
X00354989Y00379912D01*
X00354993Y00379898D01*
X00354995Y00379880D01*
X00354999Y00379863D01*
X00355000Y00379832D01*
X00355003Y00379800D01*
Y00378200D01*
X00355000Y00378169D01*
X00354999Y00378137D01*
X00354995Y00378120D01*
X00354993Y00378102D01*
X00354989Y00378088D01*
X00354989Y00378087D01*
X00354985Y00378069D01*
X00354983Y00378052D01*
X00354979Y00378038D01*
X00354979Y00378037D01*
X00354975Y00378020D01*
X00354973Y00378002D01*
X00354964Y00377972D01*
X00354957Y00377941D01*
X00354947Y00377911D01*
X00354934Y00377882D01*
X00354927Y00377862D01*
X00354919Y00377845D01*
X00354914Y00377827D01*
X00354899Y00377800D01*
X00354887Y00377771D01*
X00354876Y00377757D01*
X00354868Y00377740D01*
X00354848Y00377716D01*
X00354841Y00377707D01*
X00354838Y00377701D01*
X00354830Y00377691D01*
X00354830Y00377691D01*
X00354830Y00377691D01*
X00354827Y00377687D01*
X00354818Y00377673D01*
X00354810Y00377664D01*
X00354808Y00377661D01*
X00354796Y00377647D01*
X00354787Y00377632D01*
X00354765Y00377609D01*
X00354746Y00377585D01*
X00354726Y00377565D01*
X00354726Y00377565D01*
X00354725Y00377565D01*
X00354705Y00377545D01*
X00354705Y00377545D01*
X00354705Y00377545D01*
X00354686Y00377525D01*
X00354685Y00377525D01*
X00354665Y00377505D01*
X00354641Y00377485D01*
X00354619Y00377464D01*
X00354604Y00377454D01*
X00354589Y00377442D01*
X00354586Y00377441D01*
X00354578Y00377433D01*
X00354563Y00377423D01*
X00354560Y00377421D01*
X00354559Y00377421D01*
X00354559Y00377420D01*
X00354549Y00377412D01*
X00354543Y00377409D01*
X00354534Y00377402D01*
X00354509Y00377382D01*
X00354493Y00377374D01*
X00354479Y00377364D01*
X00354450Y00377351D01*
X00354422Y00377336D01*
X00354405Y00377331D01*
X00354389Y00377323D01*
X00354369Y00377317D01*
X00354340Y00377304D01*
X00354310Y00377294D01*
X00354278Y00377286D01*
X00354247Y00377277D01*
X00354230Y00377275D01*
X00354214Y00377272D01*
X00354212Y00377272D01*
X00354198Y00377267D01*
X00354180Y00377265D01*
X00354164Y00377262D01*
X00354162Y00377262D01*
X00354148Y00377257D01*
X00354131Y00377256D01*
X00354114Y00377252D01*
X00354082Y00377251D01*
X00354050Y00377248D01*
X00349742D01*
X00349714Y00377158D01*
X00349668Y00377071D01*
X00349605Y00376995D01*
X00349529Y00376932D01*
X00349442Y00376886D01*
X00349348Y00376857D01*
X00349250Y00376848D01*
X00325750D01*
X00325750D01*
D01*
X00325652Y00376857D01*
X00325558Y00376886D01*
X00325511Y00376911D01*
X00325471Y00376932D01*
X00325395Y00376995D01*
Y00376995D01*
X00325395D01*
X00325332Y00377071D01*
X00325311Y00377111D01*
X00325286Y00377158D01*
X00325259Y00377248D01*
X00320950D01*
X00320919Y00377251D01*
X00320887Y00377252D01*
X00320869Y00377256D01*
X00320852Y00377257D01*
X00320838Y00377262D01*
X00320837Y00377262D01*
X00320820Y00377265D01*
X00320803Y00377267D01*
X00320788Y00377272D01*
X00320786Y00377272D01*
X00320770Y00377275D01*
X00320753Y00377277D01*
X00320722Y00377286D01*
X00320690Y00377294D01*
X00320660Y00377304D01*
X00320631Y00377317D01*
X00320611Y00377323D01*
X00320595Y00377331D01*
X00320578Y00377336D01*
X00320550Y00377351D01*
X00320521Y00377364D01*
X00320507Y00377374D01*
X00320491Y00377382D01*
X00320466Y00377402D01*
X00320458Y00377409D01*
X00320452Y00377412D01*
X00320442Y00377420D01*
X00320441Y00377421D01*
X00320440Y00377421D01*
X00320437Y00377424D01*
X00320421Y00377434D01*
X00320414Y00377441D01*
X00320411Y00377442D01*
X00320397Y00377454D01*
X00320381Y00377464D01*
X00320359Y00377485D01*
X00320335Y00377505D01*
X00320315Y00377525D01*
X00320315Y00377525D01*
X00320295Y00377545D01*
X00320295Y00377545D01*
X00320295Y00377545D01*
X00320275Y00377565D01*
X00320275Y00377565D01*
X00320275Y00377565D01*
X00320255Y00377585D01*
X00320235Y00377609D01*
X00320213Y00377632D01*
X00320204Y00377647D01*
X00320192Y00377661D01*
X00320191Y00377664D01*
X00320184Y00377672D01*
X00320174Y00377687D01*
X00320171Y00377690D01*
X00320170Y00377691D01*
X00320169Y00377693D01*
X00320162Y00377701D01*
X00320159Y00377707D01*
X00320152Y00377716D01*
X00320133Y00377740D01*
X00320124Y00377756D01*
X00320113Y00377771D01*
X00320101Y00377800D01*
X00320086Y00377827D01*
X00320081Y00377845D01*
X00320073Y00377862D01*
X00320067Y00377882D01*
X00320053Y00377911D01*
X00320043Y00377941D01*
X00320037Y00377972D01*
X00320027Y00378002D01*
X00320026Y00378020D01*
X00320022Y00378037D01*
X00320022Y00378038D01*
X00320017Y00378052D01*
X00320016Y00378069D01*
X00320012Y00378087D01*
X00320012Y00378088D01*
X00320007Y00378102D01*
X00320006Y00378120D01*
X00320002Y00378137D01*
X00320001Y00378169D01*
X00319998Y00378200D01*
Y00379800D01*
X00320001Y00379831D01*
X00320002Y00379863D01*
X00320006Y00379880D01*
X00320007Y00379898D01*
X00320012Y00379912D01*
X00320012Y00379913D01*
X00320016Y00379930D01*
X00320017Y00379948D01*
X00320022Y00379962D01*
X00320022Y00379963D01*
X00320026Y00379981D01*
X00320027Y00379998D01*
X00320037Y00380028D01*
X00320044Y00380059D01*
X00320054Y00380089D01*
X00320066Y00380118D01*
X00320073Y00380139D01*
X00320081Y00380155D01*
X00320086Y00380173D01*
X00320101Y00380200D01*
X00320113Y00380229D01*
X00320124Y00380243D01*
X00320133Y00380260D01*
X00320153Y00380284D01*
X00320159Y00380293D01*
X00320162Y00380299D01*
X00320170Y00380308D01*
X00320170Y00380309D01*
X00320171Y00380309D01*
X00320173Y00380313D01*
X00320183Y00380327D01*
X00320191Y00380336D01*
X00320192Y00380339D01*
X00320204Y00380353D01*
X00320214Y00380368D01*
X00320235Y00380391D01*
X00320255Y00380415D01*
X00320275Y00380435D01*
X00320295Y00380455D01*
X00320295Y00380455D01*
X00320295Y00380456D01*
X00320315Y00380475D01*
X00320315Y00380475D01*
X00320335Y00380495D01*
X00320359Y00380515D01*
X00320381Y00380536D01*
X00320397Y00380546D01*
X00320411Y00380558D01*
X00320414Y00380559D01*
X00320422Y00380567D01*
X00320437Y00380577D01*
X00320441Y00380580D01*
X00320442Y00380580D01*
X00320442Y00380580D01*
X00320451Y00380588D01*
X00320457Y00380591D01*
X00320467Y00380598D01*
X00320491Y00380618D01*
X00320507Y00380626D01*
X00320522Y00380637D01*
X00320550Y00380650D01*
X00320578Y00380664D01*
X00320595Y00380670D01*
X00320612Y00380677D01*
X00320632Y00380684D01*
X00320660Y00380696D01*
X00320690Y00380706D01*
X00320722Y00380714D01*
X00320752Y00380723D01*
X00320770Y00380724D01*
X00320787Y00380728D01*
X00320788Y00380728D01*
X00320803Y00380733D01*
X00320820Y00380735D01*
X00320838Y00380738D01*
X00320838Y00380739D01*
X00320852Y00380743D01*
X00320869Y00380745D01*
X00320887Y00380748D01*
X00320919Y00380749D01*
X00320950Y00380752D01*
X00325259D01*
X00325286Y00380842D01*
X00325332Y00380929D01*
X00325395Y00381005D01*
X00325471Y00381068D01*
X00325558Y00381114D01*
X00325652Y00381143D01*
X00325750Y00381152D01*
X00349250D01*
X00349348Y00381143D01*
D02*
G37*
G36*
X00367748Y00284293D02*
X00367842Y00284264D01*
X00367929Y00284218D01*
X00368005Y00284155D01*
X00368068Y00284079D01*
X00368114Y00283992D01*
X00368143Y00283898D01*
X00368152Y00283800D01*
Y00280502D01*
X00379000D01*
X00379098Y00280493D01*
X00379192Y00280464D01*
X00379279Y00280418D01*
X00379355Y00280355D01*
X00379418Y00280279D01*
X00379464Y00280192D01*
X00379493Y00280098D01*
X00379502Y00280000D01*
Y00255500D01*
X00379493Y00255402D01*
X00379464Y00255308D01*
X00379418Y00255221D01*
X00379355Y00255145D01*
X00379279Y00255082D01*
X00379192Y00255036D01*
X00379098Y00255007D01*
X00379000Y00254998D01*
X00368152D01*
Y00251700D01*
X00368143Y00251602D01*
X00368114Y00251508D01*
X00368068Y00251421D01*
X00368005Y00251345D01*
X00367929Y00251282D01*
X00367842Y00251236D01*
X00367748Y00251207D01*
X00367650Y00251198D01*
X00363350D01*
X00363252Y00251207D01*
X00363158Y00251236D01*
X00363071Y00251282D01*
X00362995Y00251345D01*
X00362932Y00251421D01*
X00362886Y00251508D01*
X00362857Y00251602D01*
X00362848Y00251700D01*
Y00254998D01*
X00359200D01*
X00359102Y00255007D01*
X00359008Y00255036D01*
X00358921Y00255082D01*
X00358845Y00255145D01*
X00358782Y00255221D01*
X00358736Y00255308D01*
X00358707Y00255402D01*
X00358698Y00255500D01*
Y00280000D01*
X00358707Y00280098D01*
X00358736Y00280192D01*
X00358782Y00280279D01*
X00358845Y00280355D01*
X00358921Y00280418D01*
X00359008Y00280464D01*
X00359102Y00280493D01*
X00359200Y00280502D01*
X00362848D01*
Y00283800D01*
X00362857Y00283898D01*
X00362886Y00283992D01*
X00362932Y00284079D01*
X00362995Y00284155D01*
X00363071Y00284218D01*
X00363158Y00284264D01*
X00363252Y00284293D01*
X00363350Y00284302D01*
X00367650D01*
X00367748Y00284293D01*
D02*
G37*
D16*
X00438000Y00000000D02*
G03*
X00468000Y00030000I00000000J00030000D01*
G01*
Y00873000D02*
G03*
X00438000Y00903000I-00030000J00000000D01*
G01*
X00000000Y00030000D02*
G03*
X00030000Y00000000I00030000J00000000D01*
G01*
Y00903000D02*
G03*
X00000000Y00873000I00000000J-00030000D01*
G01*
Y00717500D02*
G03*
X00010000Y00707500I00010000J00000000D01*
G01*
Y00467500D02*
G03*
X00000000Y00457500I00000000J-00010000D01*
G01*
X00035000Y00467500D02*
G03*
X00045000Y00477500I00000000J00010000D01*
G01*
Y00697500D02*
G03*
X00035000Y00707500I-00010000J00000000D01*
G01*
X00468000Y00030000D02*
Y00873000D01*
X00030000Y00000000D02*
X00438000D01*
X00030000Y00903000D02*
X00438000D01*
X00000000Y00717500D02*
Y00873000D01*
Y00030000D02*
Y00457500D01*
X00010034Y00467534D02*
X00035034D01*
X00010000Y00707500D02*
X00035000D01*
X00045000Y00477500D02*
Y00697500D01*
D76*
X00380497Y00877000D02*
D03*
D77*
X00175500Y00086000D02*
D03*
Y00077000D02*
D03*
X00093000Y00205000D02*
D03*
Y00196000D02*
D03*
X00131500Y00776000D02*
D03*
Y00785000D02*
D03*
Y00795500D02*
D03*
Y00804500D02*
D03*
X00395500Y00131000D02*
D03*
Y00122000D02*
D03*
X00385500Y00131000D02*
D03*
Y00122000D02*
D03*
X00346500Y00160000D02*
D03*
Y00169000D02*
D03*
X00051500Y00259000D02*
D03*
Y00268000D02*
D03*
X00356500Y00611500D02*
D03*
Y00602500D02*
D03*
X00363000Y00463500D02*
D03*
Y00454500D02*
D03*
X00353500D02*
D03*
Y00463500D02*
D03*
X00344000Y00463500D02*
D03*
X00344000Y00454500D02*
D03*
X00363000Y00478500D02*
D03*
Y00487500D02*
D03*
X00353500Y00487500D02*
D03*
Y00478500D02*
D03*
X00344000Y00487500D02*
D03*
Y00478500D02*
D03*
X00333500Y00633000D02*
D03*
Y00624000D02*
D03*
X00330000Y00330500D02*
D03*
Y00339500D02*
D03*
X00318805Y00415970D02*
D03*
Y00424971D02*
D03*
X00345805Y00424971D02*
D03*
Y00415970D02*
D03*
X00355305Y00424971D02*
D03*
Y00415970D02*
D03*
X00339500Y00335000D02*
D03*
Y00326000D02*
D03*
X00349000Y00315000D02*
D03*
Y00306000D02*
D03*
X00320500Y00315000D02*
D03*
Y00306000D02*
D03*
X00337000Y00256500D02*
D03*
Y00247500D02*
D03*
X00399500Y00265500D02*
D03*
Y00274500D02*
D03*
Y00293500D02*
D03*
Y00284500D02*
D03*
X00179500Y00308000D02*
D03*
Y00317000D02*
D03*
X00199500Y00304000D02*
D03*
Y00313000D02*
D03*
Y00336500D02*
D03*
Y00327500D02*
D03*
X00179500Y00336500D02*
D03*
Y00327500D02*
D03*
X00189500Y00304000D02*
D03*
Y00313000D02*
D03*
Y00336500D02*
D03*
Y00327500D02*
D03*
X00150000Y00236500D02*
D03*
Y00227500D02*
D03*
X00140000Y00236500D02*
D03*
Y00227500D02*
D03*
X00108000Y00383500D02*
D03*
Y00392500D02*
D03*
X00358500Y00057000D02*
D03*
Y00066000D02*
D03*
X00348500Y00076000D02*
D03*
Y00085000D02*
D03*
X00224000Y00734500D02*
D03*
Y00725500D02*
D03*
X00448000Y00714500D02*
D03*
Y00723500D02*
D03*
X00391500Y00026000D02*
D03*
Y00017000D02*
D03*
X00205000Y00616500D02*
D03*
Y00607500D02*
D03*
X00195000Y00636000D02*
D03*
Y00627000D02*
D03*
X00185000Y00636000D02*
D03*
Y00627000D02*
D03*
X00175000Y00616500D02*
D03*
Y00607500D02*
D03*
X00348500Y00057000D02*
D03*
Y00066000D02*
D03*
X00320000Y00160000D02*
D03*
Y00169000D02*
D03*
D78*
X00172500Y00154500D02*
D03*
X00163500D02*
D03*
X00039500Y00752000D02*
D03*
X00030500D02*
D03*
X00084500Y00773500D02*
D03*
X00093500D02*
D03*
X00122000Y00188500D02*
D03*
X00113000D02*
D03*
X00151500Y00340000D02*
D03*
X00160500D02*
D03*
X00120000Y00406500D02*
D03*
X00111000D02*
D03*
X00332500Y00097500D02*
D03*
X00323500D02*
D03*
X00332500Y00107500D02*
D03*
X00323500D02*
D03*
X00224000Y00716000D02*
D03*
X00215000D02*
D03*
D79*
X00065650Y00344000D02*
D03*
Y00348000D02*
D03*
X00134350Y00328000D02*
D03*
X00331492Y00576260D02*
D03*
Y00571259D02*
D03*
Y00561258D02*
D03*
Y00556258D02*
D03*
X00065650Y00304000D02*
D03*
Y00340000D02*
D03*
X00134350D02*
D03*
Y00304000D02*
D03*
X00065650Y00308000D02*
D03*
Y00312000D02*
D03*
Y00316000D02*
D03*
Y00320000D02*
D03*
Y00324000D02*
D03*
Y00328000D02*
D03*
Y00332000D02*
D03*
Y00336000D02*
D03*
Y00352000D02*
D03*
Y00356000D02*
D03*
X00134350D02*
D03*
Y00352000D02*
D03*
Y00348000D02*
D03*
Y00344000D02*
D03*
Y00336000D02*
D03*
Y00332000D02*
D03*
Y00324000D02*
D03*
Y00320000D02*
D03*
Y00316000D02*
D03*
Y00312000D02*
D03*
Y00308000D02*
D03*
D80*
X00057000Y00407000D02*
D03*
X00085000D02*
D03*
X00144500Y00163500D02*
D03*
X00153500Y00163500D02*
D03*
X00172500Y00163500D02*
D03*
X00163500D02*
D03*
X00096500Y00470000D02*
D03*
X00105500D02*
D03*
X00058000Y00761000D02*
D03*
X00049000D02*
D03*
X00039500D02*
D03*
X00030500D02*
D03*
X00165000Y00136000D02*
D03*
X00156000D02*
D03*
X00135500Y00143500D02*
D03*
X00144500D02*
D03*
Y00153500D02*
D03*
X00135500D02*
D03*
X00123500Y00143500D02*
D03*
X00114500D02*
D03*
X00104500D02*
D03*
X00095500D02*
D03*
X00145000Y00470000D02*
D03*
X00136000D02*
D03*
X00125000D02*
D03*
X00116000D02*
D03*
X00076000Y00407000D02*
D03*
X00066000D02*
D03*
X00228500Y00660000D02*
D03*
X00219500D02*
D03*
X00320500Y00613500D02*
D03*
X00311500D02*
D03*
X00320500Y00604500D02*
D03*
X00311500D02*
D03*
X00251805Y00302470D02*
D03*
X00260805D02*
D03*
X00251805Y00312470D02*
D03*
X00260805D02*
D03*
X00379500Y00293500D02*
D03*
X00388500D02*
D03*
X00326500D02*
D03*
X00317500D02*
D03*
X00345500D02*
D03*
X00336500D02*
D03*
X00360500D02*
D03*
X00369500D02*
D03*
X00169000Y00247000D02*
D03*
X00160000D02*
D03*
X00149000D02*
D03*
X00140000D02*
D03*
X00071000Y00384000D02*
D03*
X00062000D02*
D03*
X00298500Y00097500D02*
D03*
X00307500D02*
D03*
X00298500Y00107500D02*
D03*
X00307500D02*
D03*
X00219500Y00670000D02*
D03*
X00228500D02*
D03*
X00266000Y00660500D02*
D03*
X00275000D02*
D03*
X00280500Y00116000D02*
D03*
X00271500D02*
D03*
D81*
X00078000Y00364350D02*
D03*
X00074000D02*
D03*
X00090000Y00295650D02*
D03*
X00086000D02*
D03*
X00126000D02*
D03*
X00106000D02*
D03*
X00118000D02*
D03*
X00122000D02*
D03*
X00114000D02*
D03*
X00110000D02*
D03*
X00098000D02*
D03*
X00094000D02*
D03*
X00078000D02*
D03*
X00098000Y00364350D02*
D03*
X00074000Y00295650D02*
D03*
X00102000D02*
D03*
X00082000D02*
D03*
X00094000Y00364350D02*
D03*
X00102000D02*
D03*
X00106000D02*
D03*
X00086000D02*
D03*
X00090000D02*
D03*
X00082000D02*
D03*
X00114000D02*
D03*
X00118000D02*
D03*
X00122000D02*
D03*
X00126000D02*
D03*
X00110000D02*
D03*
D82*
X00101136Y00233864D02*
D03*
X00107500Y00227500D02*
D03*
X00094065Y00226793D02*
D03*
X00100429Y00220429D02*
D03*
D83*
X00081000Y00505000D02*
D03*
D84*
X00073501Y00518999D02*
D03*
X00078501D02*
D03*
X00083501D02*
D03*
X00088501D02*
D03*
Y00490999D02*
D03*
X00083501Y00490999D02*
D03*
X00078501D02*
D03*
X00073501Y00490999D02*
D03*
D85*
X00106000Y00517000D02*
D03*
X00148000D02*
D03*
X00163000Y00193500D02*
D03*
X00215000D02*
D03*
X00148000Y00446500D02*
D03*
X00106000D02*
D03*
X00068500Y00446500D02*
D03*
X00016500D02*
D03*
D86*
X00117000Y00493000D02*
D03*
X00127000D02*
D03*
X00137000D02*
D03*
X00174000Y00217500D02*
D03*
X00184000Y00217500D02*
D03*
X00194000D02*
D03*
X00204000Y00217500D02*
D03*
X00137000Y00422500D02*
D03*
X00127000D02*
D03*
X00117000Y00422500D02*
D03*
X00057500Y00422500D02*
D03*
X00047500Y00422500D02*
D03*
X00037500D02*
D03*
X00027500D02*
D03*
D87*
X00062500Y00519000D02*
D03*
X00062500Y00510000D02*
D03*
X00135500Y00176500D02*
D03*
Y00167500D02*
D03*
X00052000Y00340000D02*
D03*
Y00349000D02*
D03*
X00330500Y00613500D02*
D03*
Y00604500D02*
D03*
X00359500Y00631500D02*
D03*
Y00640500D02*
D03*
X00362805Y00358470D02*
D03*
Y00367471D02*
D03*
X00359305Y00336470D02*
D03*
Y00345471D02*
D03*
X00312305Y00365471D02*
D03*
Y00374470D02*
D03*
X00362805Y00399470D02*
D03*
Y00390470D02*
D03*
X00312305Y00383470D02*
D03*
Y00392471D02*
D03*
X00327805Y00415970D02*
D03*
Y00424971D02*
D03*
X00330000Y00315000D02*
D03*
Y00306000D02*
D03*
X00339500Y00315000D02*
D03*
Y00306000D02*
D03*
X00151500Y00302000D02*
D03*
Y00293000D02*
D03*
X00088000Y00383500D02*
D03*
Y00392500D02*
D03*
X00098000Y00383500D02*
D03*
Y00392500D02*
D03*
X00120000Y00383500D02*
D03*
Y00392500D02*
D03*
X00119500Y00247000D02*
D03*
Y00238000D02*
D03*
X00129500Y00247000D02*
D03*
Y00238000D02*
D03*
X00108000Y00268000D02*
D03*
Y00259000D02*
D03*
X00082000Y00268000D02*
D03*
Y00259000D02*
D03*
X00098000Y00268000D02*
D03*
Y00259000D02*
D03*
X00060500Y00268000D02*
D03*
Y00259000D02*
D03*
X00072000Y00268000D02*
D03*
Y00259000D02*
D03*
X00052000Y00304000D02*
D03*
Y00295000D02*
D03*
X00397000Y00078000D02*
D03*
Y00069000D02*
D03*
X00448000Y00734000D02*
D03*
Y00743000D02*
D03*
X00403000D02*
D03*
Y00734000D02*
D03*
X00175000Y00636000D02*
D03*
Y00627000D02*
D03*
X00205000Y00636000D02*
D03*
Y00627000D02*
D03*
X00193000Y00684500D02*
D03*
X00193000Y00693500D02*
D03*
X00305000Y00160000D02*
D03*
Y00169000D02*
D03*
X00331500Y00160000D02*
D03*
Y00169000D02*
D03*
D88*
X00093500Y00785500D02*
D03*
Y00795000D02*
D03*
X00117500Y00804500D02*
D03*
X00093500D02*
D03*
X00117500Y00785500D02*
D03*
Y00795000D02*
D03*
D89*
X00105000Y00823000D02*
D03*
Y00853000D02*
D03*
X00278305Y00367971D02*
D03*
Y00337971D02*
D03*
Y00389470D02*
D03*
Y00419470D02*
D03*
X00257305Y00367971D02*
D03*
Y00337971D02*
D03*
X00236305Y00367971D02*
D03*
Y00337971D02*
D03*
X00257305Y00389470D02*
D03*
Y00419470D02*
D03*
X00236305Y00389470D02*
D03*
Y00419470D02*
D03*
X00195500Y00798000D02*
D03*
Y00768000D02*
D03*
D90*
X00026000Y00795000D02*
D03*
X00071000D02*
D03*
D91*
X00040000Y00740500D02*
D03*
Y00721500D02*
D03*
X00023000Y00740500D02*
D03*
Y00721500D02*
D03*
X00346500Y00623500D02*
D03*
Y00642500D02*
D03*
X00297805Y00369971D02*
D03*
Y00350970D02*
D03*
Y00387971D02*
D03*
Y00406970D02*
D03*
D92*
X00177500Y00100500D02*
D03*
X00168000Y00121500D02*
D03*
X00187000D02*
D03*
D93*
X00146500Y00108750D02*
D03*
Y00115250D02*
D03*
Y00121750D02*
D03*
X00026500Y00115250D02*
D03*
Y00128250D02*
D03*
Y00108750D02*
D03*
Y00121750D02*
D03*
X00055500Y00128250D02*
D03*
Y00121750D02*
D03*
Y00108750D02*
D03*
Y00115250D02*
D03*
X00100500Y00121750D02*
D03*
Y00108750D02*
D03*
Y00128250D02*
D03*
Y00115250D02*
D03*
X00071500Y00108750D02*
D03*
Y00115250D02*
D03*
Y00128250D02*
D03*
Y00121750D02*
D03*
X00146500Y00128250D02*
D03*
X00117500Y00108750D02*
D03*
Y00115250D02*
D03*
Y00128250D02*
D03*
Y00121750D02*
D03*
X00351000Y00264500D02*
D03*
Y00277500D02*
D03*
Y00258000D02*
D03*
Y00271000D02*
D03*
X00380000Y00277500D02*
D03*
Y00271000D02*
D03*
Y00258000D02*
D03*
Y00264500D02*
D03*
X00252500Y00681250D02*
D03*
Y00694250D02*
D03*
Y00674750D02*
D03*
Y00687750D02*
D03*
X00281500Y00694250D02*
D03*
Y00687750D02*
D03*
Y00674750D02*
D03*
Y00681250D02*
D03*
D94*
X00098000Y00166000D02*
D03*
Y00175500D02*
D03*
X00122000Y00156500D02*
D03*
X00098000D02*
D03*
X00122000Y00166000D02*
D03*
Y00175500D02*
D03*
X00231000Y00703500D02*
D03*
X00231000Y00694000D02*
D03*
X00207000Y00684500D02*
D03*
X00231000D02*
D03*
X00207000Y00703500D02*
D03*
Y00694000D02*
D03*
D95*
X00041000Y00118500D02*
D03*
X00086000Y00118500D02*
D03*
X00132000D02*
D03*
X00365500Y00267750D02*
D03*
X00267000Y00684500D02*
D03*
D96*
X00149500Y00078000D02*
D03*
X00088500D02*
D03*
X00088500Y00017000D02*
D03*
D97*
X00370000Y00648000D02*
D03*
Y00633000D02*
D03*
Y00618000D02*
D03*
Y00603000D02*
D03*
X00370000Y00512500D02*
D03*
Y00527500D02*
D03*
X00370805Y00316471D02*
D03*
Y00331470D02*
D03*
X00272305Y00299970D02*
D03*
Y00314970D02*
D03*
X00065500Y00087000D02*
D03*
Y00072000D02*
D03*
D98*
X00077750Y00557000D02*
D03*
X00153250Y00559500D02*
D03*
X00077750Y00562000D02*
D03*
X00153250Y00564500D02*
D03*
X00077750Y00567000D02*
D03*
X00153250Y00569500D02*
D03*
X00077750Y00572000D02*
D03*
X00153250Y00574500D02*
D03*
X00077750Y00577000D02*
D03*
X00153250Y00579500D02*
D03*
X00077750Y00582000D02*
D03*
X00153250Y00604500D02*
D03*
X00077750Y00607000D02*
D03*
X00153250Y00609500D02*
D03*
X00077750Y00612000D02*
D03*
X00153250Y00614500D02*
D03*
X00077750Y00617000D02*
D03*
X00153250Y00619500D02*
D03*
X00077750Y00622000D02*
D03*
X00153250Y00624500D02*
D03*
X00077750Y00627000D02*
D03*
X00153250Y00629500D02*
D03*
X00077750Y00632000D02*
D03*
X00153250Y00634500D02*
D03*
X00077750Y00637000D02*
D03*
X00153250Y00639500D02*
D03*
X00077750Y00642000D02*
D03*
X00153250Y00644500D02*
D03*
X00077750Y00647000D02*
D03*
X00153250Y00649500D02*
D03*
X00077750Y00652000D02*
D03*
X00153250Y00654500D02*
D03*
X00077750Y00657000D02*
D03*
X00153250Y00659500D02*
D03*
X00077750Y00662000D02*
D03*
X00153250Y00664500D02*
D03*
X00077750Y00667000D02*
D03*
X00153250Y00669500D02*
D03*
X00077750Y00672000D02*
D03*
X00153250Y00674500D02*
D03*
X00077750Y00677000D02*
D03*
X00153250Y00679500D02*
D03*
X00077750Y00682000D02*
D03*
X00153250Y00684500D02*
D03*
X00077750Y00687000D02*
D03*
X00153250Y00689500D02*
D03*
X00077750Y00692000D02*
D03*
X00153250Y00694500D02*
D03*
X00077750Y00697000D02*
D03*
X00153250Y00699500D02*
D03*
X00077750Y00702000D02*
D03*
X00153250Y00704500D02*
D03*
X00077750Y00707000D02*
D03*
X00153250Y00709500D02*
D03*
X00077750Y00712000D02*
D03*
X00153250Y00714500D02*
D03*
X00077750Y00717000D02*
D03*
X00153250Y00719500D02*
D03*
X00077750Y00722000D02*
D03*
X00153250Y00724500D02*
D03*
X00077750Y00727000D02*
D03*
X00153250Y00729500D02*
D03*
X00077750Y00732000D02*
D03*
X00153250Y00734500D02*
D03*
X00077750Y00737000D02*
D03*
X00153250Y00739500D02*
D03*
X00077750Y00742000D02*
D03*
D99*
X00085500Y00546000D02*
D03*
X00085500Y00753000D02*
D03*
D100*
X00209000Y00106000D02*
D03*
X00257500Y00290000D02*
D03*
X00329500Y00487500D02*
D03*
X00258500Y00548000D02*
D03*
X00283500Y00647000D02*
D03*
X00311000Y00699000D02*
D03*
X00390500Y00760500D02*
D03*
X00221000Y00798000D02*
D03*
X00019000Y00756500D02*
D03*
D101*
X00141500Y00795500D02*
D03*
X00145000Y00483500D02*
D03*
X00153000Y00477000D02*
D03*
X00363000Y00423500D02*
D03*
X00050113Y00374021D02*
D03*
X00369000Y00117500D02*
D03*
X00297000Y00166000D02*
D03*
D102*
X00448000Y00156000D02*
D03*
X00378500Y00838000D02*
D03*
D103*
X00308500Y00016500D02*
D03*
Y00068500D02*
D03*
D104*
X00332500Y00027500D02*
D03*
X00332500Y00037500D02*
D03*
Y00047500D02*
D03*
X00332500Y00057500D02*
D03*
D105*
X00048500Y00164750D02*
D03*
Y00148250D02*
D03*
X00080500Y00164750D02*
D03*
X00080500Y00148250D02*
D03*
D106*
X00083000Y00472000D02*
D03*
X00067000D02*
D03*
X00411500Y00701000D02*
D03*
X00395500D02*
D03*
X00376500Y00017000D02*
D03*
X00360500D02*
D03*
D107*
X00011500Y00348000D02*
D03*
Y00385000D02*
D03*
Y00270000D02*
D03*
Y00307000D02*
D03*
D108*
X00031000Y00366500D02*
D03*
Y00288500D02*
D03*
D109*
X00032500Y00354250D02*
D03*
Y00378750D02*
D03*
Y00276250D02*
D03*
Y00300750D02*
D03*
D110*
X00312500Y00452000D02*
D03*
X00268500D02*
D03*
X00371000Y00768000D02*
D03*
X00327000D02*
D03*
D111*
X00267500Y00630000D02*
D03*
X00237500D02*
D03*
X00267500Y00588000D02*
D03*
X00237500D02*
D03*
X00267500Y00609000D02*
D03*
X00237500D02*
D03*
X00283500Y00630000D02*
D03*
X00313500D02*
D03*
D112*
X00333992Y00581260D02*
D03*
Y00566259D02*
D03*
Y00551257D02*
D03*
D113*
X00336490Y00542259D02*
D03*
X00340490D02*
D03*
X00344491Y00542259D02*
D03*
X00348491Y00542259D02*
D03*
X00352492D02*
D03*
X00356492Y00542259D02*
D03*
X00360493Y00542259D02*
D03*
X00364493D02*
D03*
Y00590259D02*
D03*
X00360493D02*
D03*
X00356492Y00590259D02*
D03*
X00352492Y00590259D02*
D03*
X00348491D02*
D03*
X00344491Y00590259D02*
D03*
X00340490Y00590259D02*
D03*
X00336490D02*
D03*
D114*
X00361991Y00551257D02*
D03*
Y00556258D02*
D03*
Y00561258D02*
D03*
Y00566259D02*
D03*
Y00571259D02*
D03*
Y00576260D02*
D03*
Y00581260D02*
D03*
D115*
X00311500Y00588000D02*
D03*
X00284500D02*
D03*
D116*
X00267500Y00567500D02*
D03*
X00286500D02*
D03*
X00315500Y00497000D02*
D03*
X00296500D02*
D03*
X00315500Y00478000D02*
D03*
X00296500D02*
D03*
X00315500Y00516000D02*
D03*
X00296500D02*
D03*
X00330500Y00511000D02*
D03*
X00349500D02*
D03*
X00244500Y00514000D02*
D03*
X00225500D02*
D03*
X00244500Y00496000D02*
D03*
X00225500D02*
D03*
X00258500Y00532000D02*
D03*
X00277500D02*
D03*
X00244500Y00478000D02*
D03*
X00225500D02*
D03*
X00258500Y00496000D02*
D03*
X00277500D02*
D03*
X00258500Y00478000D02*
D03*
X00277500D02*
D03*
X00258500Y00514000D02*
D03*
X00277500D02*
D03*
X00244500Y00532000D02*
D03*
X00225500D02*
D03*
X00244500Y00550000D02*
D03*
X00225500D02*
D03*
X00244500Y00568000D02*
D03*
X00225500D02*
D03*
X00244500Y00442000D02*
D03*
X00225500D02*
D03*
X00244500Y00460000D02*
D03*
X00225500D02*
D03*
X00393500Y00239000D02*
D03*
X00374500D02*
D03*
X00227500Y00276500D02*
D03*
X00246500D02*
D03*
D117*
X00311500Y00532500D02*
D03*
X00296500D02*
D03*
D118*
X00387250Y00480500D02*
D03*
X00444750D02*
D03*
D119*
X00413991Y00537509D02*
D03*
Y00595009D02*
D03*
D120*
X00337500Y00379000D02*
D03*
D121*
Y00373600D02*
D03*
Y00368600D02*
D03*
Y00384400D02*
D03*
X00337500Y00389400D02*
D03*
D122*
X00345000Y00355000D02*
D03*
X00340000Y00355000D02*
D03*
X00335000D02*
D03*
X00330000Y00355000D02*
D03*
Y00403000D02*
D03*
X00335000Y00403000D02*
D03*
X00340000D02*
D03*
X00345000Y00403000D02*
D03*
D123*
X00351500Y00394400D02*
D03*
Y00363600D02*
D03*
X00323500D02*
D03*
Y00394400D02*
D03*
D124*
X00351250Y00399400D02*
D03*
Y00358600D02*
D03*
X00323750D02*
D03*
Y00399400D02*
D03*
D125*
X00337000Y00237000D02*
D03*
Y00227000D02*
D03*
X00350000Y00232000D02*
D03*
X00254500Y00653500D02*
D03*
X00241500Y00648500D02*
D03*
Y00658500D02*
D03*
X00271500Y00153500D02*
D03*
X00284500Y00158500D02*
D03*
Y00148500D02*
D03*
X00271500Y00132000D02*
D03*
X00284500Y00137000D02*
D03*
Y00127000D02*
D03*
D126*
X00293500Y00271500D02*
D03*
Y00227500D02*
D03*
D127*
X00235805Y00320970D02*
D03*
Y00293971D02*
D03*
D128*
X00409805Y00354870D02*
D03*
Y00403070D02*
D03*
D129*
X00144500Y00266000D02*
D03*
D130*
X00157750Y00258500D02*
D03*
X00131250Y00263500D02*
D03*
X00157750Y00268500D02*
D03*
Y00263500D02*
D03*
X00131250Y00273500D02*
D03*
Y00268500D02*
D03*
Y00258500D02*
D03*
X00157750Y00273500D02*
D03*
D131*
X00151000Y00402000D02*
D03*
D132*
X00134000Y00389000D02*
D03*
X00151000D02*
D03*
X00134000Y00402000D02*
D03*
D133*
X00100000Y00330000D02*
D03*
D134*
X00305000Y00128500D02*
D03*
X00298500D02*
D03*
X00311500Y00147500D02*
D03*
Y00128500D02*
D03*
X00305000Y00147500D02*
D03*
X00298500D02*
D03*
X00331500Y00128500D02*
D03*
X00325000D02*
D03*
X00338000Y00147500D02*
D03*
Y00128500D02*
D03*
X00331500Y00147500D02*
D03*
X00325000D02*
D03*
D135*
X00347750Y00699000D02*
D03*
X00360750D02*
D03*
X00341250D02*
D03*
X00354250D02*
D03*
X00360750Y00670000D02*
D03*
X00354250D02*
D03*
X00341250D02*
D03*
X00347750D02*
D03*
X00309250Y00655500D02*
D03*
X00302750D02*
D03*
X00315750D02*
D03*
X00322250D02*
D03*
X00315750Y00684500D02*
D03*
X00302750D02*
D03*
X00322250D02*
D03*
X00309250D02*
D03*
D136*
X00351000Y00684500D02*
D03*
X00312500Y00670000D02*
D03*
D137*
X00401000Y00794000D02*
D03*
X00445000Y00794000D02*
D03*
D138*
X00322500Y00730000D02*
D03*
X00372500D02*
D03*
D139*
X00229000Y00102600D02*
D03*
X00234000D02*
D03*
X00244000D02*
D03*
X00249000D02*
D03*
Y00093850D02*
D03*
X00244000D02*
D03*
X00234000D02*
D03*
X00229000D02*
D03*
X00175000Y00800250D02*
D03*
X00170000D02*
D03*
X00160000Y00800250D02*
D03*
X00155000D02*
D03*
Y00809000D02*
D03*
X00160000D02*
D03*
X00170000Y00809000D02*
D03*
X00175000D02*
D03*
D140*
X00239000Y00094350D02*
D03*
Y00102100D02*
D03*
X00165000Y00808500D02*
D03*
Y00800750D02*
D03*
D141*
X00382500Y00079000D02*
D03*
X00378500Y00079000D02*
D03*
X00374500D02*
D03*
X00370500D02*
D03*
X00366500D02*
D03*
X00370500Y00107000D02*
D03*
X00366500D02*
D03*
X00382500Y00107000D02*
D03*
X00378500Y00107000D02*
D03*
X00374500D02*
D03*
D142*
X00360500Y00093000D02*
D03*
Y00085000D02*
D03*
Y00097000D02*
D03*
Y00089000D02*
D03*
Y00101000D02*
D03*
X00388500Y00089000D02*
D03*
Y00093000D02*
D03*
Y00097000D02*
D03*
X00388500Y00101000D02*
D03*
X00388500Y00085000D02*
D03*
D143*
X00374500Y00093000D02*
D03*
D144*
X00434500Y00719000D02*
D03*
X00425000D02*
D03*
X00415500Y00743000D02*
D03*
Y00719000D02*
D03*
X00434500Y00743000D02*
D03*
X00425000D02*
D03*
D145*
X00162499Y00837250D02*
D03*
X00172499Y00837250D02*
D03*
X00177499D02*
D03*
X00167499D02*
D03*
X00152499D02*
D03*
X00182499D02*
D03*
X00192499Y00837250D02*
D03*
X00147499Y00837250D02*
D03*
X00144499Y00837250D02*
D03*
X00195499Y00837250D02*
D03*
X00226501Y00065750D02*
D03*
X00241501D02*
D03*
X00251501Y00065750D02*
D03*
X00236501D02*
D03*
X00231501D02*
D03*
X00221501Y00065750D02*
D03*
X00203499Y00837250D02*
D03*
X00157499Y00837250D02*
D03*
X00136499D02*
D03*
X00187499Y00837250D02*
D03*
X00200499D02*
D03*
X00139499Y00837250D02*
D03*
X00264501Y00065750D02*
D03*
X00203501D02*
D03*
X00211501D02*
D03*
X00216501D02*
D03*
X00256501Y00065750D02*
D03*
X00267501Y00065750D02*
D03*
X00259501D02*
D03*
X00246501D02*
D03*
X00208501D02*
D03*
X00200501Y00065750D02*
D03*
D146*
X00447000Y00085500D02*
D03*
X00333000Y00882000D02*
D03*
X00085000Y00883500D02*
D03*
D147*
X00130500Y00549500D02*
D03*
D148*
Y00749500D02*
D03*
D149*
X00412250Y00649500D02*
D03*
D150*
X00022000Y00345250D02*
D03*
Y00387750D02*
D03*
Y00267250D02*
D03*
Y00309750D02*
D03*
D151*
X00234000Y00246004D02*
D03*
Y00759004D02*
D03*
D152*
X00434000Y00034004D02*
D03*
X00424000Y00859004D02*
D03*
X00044000D02*
D03*
X00034000Y00034004D02*
D03*
D153*
X00297951Y00775001D02*
D03*
D154*
X00260750Y00879498D02*
D03*
X00359250Y00879497D02*
D03*
D155*
X00349939Y00807487D02*
D03*
D156*
X00297950Y00869999D02*
D03*
D157*
X00297956Y00807504D02*
D03*
D158*
X00141099Y00847500D02*
D03*
X00198899D02*
D03*
D159*
X00213199Y00842500D02*
D03*
X00126799D02*
D03*
X00277201Y00060500D02*
D03*
X00190801D02*
D03*
D160*
X00213199Y00884000D02*
D03*
X00126799D02*
D03*
X00277201Y00019000D02*
D03*
X00190801D02*
D03*
D161*
X00205101Y00055500D02*
D03*
X00262901D02*
D03*
D162*
X00424273Y00197893D02*
D03*
X00044273D02*
D03*
M02*
