M48
;Layer_Color=9474304
;FILE_FORMAT=4:4
METRIC
;TYPE=PLATED
T03F00S00C0.6000
T05F00S00C1.8000
%
G90
G05
T03
G00X00190801Y00015000
M15
G01Y00023000
M16
G00X00190801Y00055000
M15
G01Y00066000
M16
G00X00277201Y00055000
M15
G01Y00066000
M16
G00X00277201Y00015000
M15
G01Y00023000
M16
G00X00297950Y00800504
M15
G01Y00814504
M16
G00X00349950Y00800487
M15
G01Y00814487
M16
G00X00359252Y00867499
M15
G01Y00891499
M16
G00X00260751Y00867500
M15
G01Y00891500
M16
G00X00213199Y00888000
M15
G01Y00880000
M16
G00X00213199Y00848000
M15
G01Y00837000
M16
G00X00126799Y00848000
M15
G01Y00837000
M16
G00X00126799Y00888000
M15
G01Y00880000
M16
T05
G00X00442272Y00197893
M15
G01X00406273
M16
G00X00062273Y00197893
M15
G01X00026273
M16
M17
M30
