G04*
G04 #@! TF.GenerationSoftware,Altium Limited,Altium Designer,23.10.1 (27)*
G04*
G04 Layer_Color=65535*
%FSAX44Y44*%
%MOMM*%
G71*
G04*
G04 #@! TF.SameCoordinates,5C1EF094-659E-4F14-B8F6-58BB7AD2CD52*
G04*
G04*
G04 #@! TF.FilePolarity,Positive*
G04*
G01*
G75*
%ADD10C,0.2000*%
%ADD11C,0.2500*%
%ADD12C,0.1750*%
%ADD13C,0.1500*%
%ADD14C,0.1270*%
%ADD15C,0.3000*%
%ADD16C,0.0500*%
G36*
X00172500Y00458000D02*
Y00424000D01*
X00159500D01*
Y00458000D01*
X00172500D01*
D02*
G37*
G36*
X00329000Y00079000D02*
X00299000D01*
Y00092000D01*
X00329000D01*
Y00079000D01*
D02*
G37*
G36*
X00240000Y00179000D02*
X00227000D01*
Y00219000D01*
X00240000D01*
Y00179000D01*
D02*
G37*
G36*
X00250000Y00845500D02*
X00237000D01*
Y00895500D01*
X00250000D01*
Y00845500D01*
D02*
G37*
G36*
X00178500Y00009000D02*
X00165500D01*
Y00039000D01*
X00178500D01*
Y00009000D01*
D02*
G37*
G36*
X00172500Y00526000D02*
Y00496000D01*
X00159500D01*
Y00526000D01*
X00172500D01*
D02*
G37*
G36*
X00035000Y00319500D02*
X00005000D01*
Y00332500D01*
X00035000D01*
Y00319500D01*
D02*
G37*
G36*
X00115500Y00867000D02*
X00102500D01*
Y00897000D01*
X00115500D01*
Y00867000D01*
D02*
G37*
G36*
X00259500Y00145913D02*
Y00132000D01*
X00189500D01*
Y00145913D01*
Y00158000D01*
X00259500D01*
Y00145913D01*
D02*
G37*
G36*
X00093000Y00458000D02*
Y00424000D01*
X00080000D01*
Y00458000D01*
X00093000D01*
D02*
G37*
G36*
X00035000Y00397500D02*
X00005000D01*
Y00410500D01*
X00035000D01*
Y00397500D01*
D02*
G37*
%LPC*%
G36*
X00168718Y00452991D02*
X00162069D01*
Y00445230D01*
D01*
Y00449092D01*
X00162082Y00448867D01*
X00162107Y00448655D01*
X00162132Y00448455D01*
X00162157Y00448267D01*
X00162182Y00448092D01*
X00162219Y00447942D01*
X00162257Y00447792D01*
X00162294Y00447667D01*
X00162319Y00447555D01*
X00162357Y00447467D01*
X00162382Y00447380D01*
X00162407Y00447317D01*
X00162432Y00447280D01*
X00162444Y00447255D01*
Y00447243D01*
X00162644Y00446893D01*
X00162857Y00446593D01*
X00163094Y00446330D01*
X00163319Y00446118D01*
X00163531Y00445955D01*
X00163619Y00445893D01*
X00163694Y00445843D01*
X00163757Y00445793D01*
X00163806Y00445768D01*
X00163832Y00445755D01*
X00163844Y00445743D01*
X00164194Y00445568D01*
X00164569Y00445443D01*
X00164931Y00445355D01*
X00165269Y00445293D01*
X00165419Y00445268D01*
X00165556Y00445256D01*
X00165693Y00445243D01*
X00165793D01*
X00165881Y00445230D01*
X00162069D01*
X00169930D01*
X00166006D01*
X00166431Y00445256D01*
X00166831Y00445305D01*
X00167193Y00445380D01*
X00167356Y00445418D01*
X00167505Y00445468D01*
X00167631Y00445505D01*
X00167756Y00445543D01*
X00167855Y00445580D01*
X00167943Y00445618D01*
X00168018Y00445655D01*
X00168068Y00445668D01*
X00168093Y00445693D01*
X00168105D01*
X00168430Y00445880D01*
X00168705Y00446105D01*
X00168943Y00446318D01*
X00169130Y00446530D01*
X00169280Y00446730D01*
X00169343Y00446805D01*
X00169393Y00446880D01*
X00169430Y00446942D01*
X00169455Y00446980D01*
X00169480Y00447005D01*
Y00447018D01*
X00169630Y00447355D01*
X00169743Y00447730D01*
X00169817Y00448092D01*
X00169867Y00448442D01*
X00169892Y00448605D01*
X00169905Y00448755D01*
X00169917Y00448892D01*
Y00449005D01*
X00169930Y00449104D01*
Y00449230D01*
X00169917Y00449629D01*
X00169892Y00449992D01*
X00169855Y00450317D01*
X00169830Y00450454D01*
X00169805Y00450592D01*
X00169780Y00450717D01*
X00169755Y00450816D01*
X00169743Y00450916D01*
X00169718Y00450992D01*
X00169705Y00451054D01*
X00169692Y00451091D01*
X00169680Y00451116D01*
Y00451129D01*
X00169568Y00451441D01*
X00169417Y00451766D01*
X00169255Y00452079D01*
X00169105Y00452366D01*
X00169030Y00452491D01*
X00168955Y00452616D01*
X00168893Y00452729D01*
X00168830Y00452816D01*
X00168780Y00452891D01*
X00168743Y00452941D01*
X00168730Y00452979D01*
X00168718Y00452991D01*
D02*
G37*
G36*
X00167743Y00444293D02*
X00167643D01*
X00167381Y00444281D01*
X00167143Y00444231D01*
X00166943Y00444168D01*
X00166768Y00444106D01*
X00166631Y00444031D01*
X00166531Y00443968D01*
X00166468Y00443918D01*
X00166443Y00443906D01*
X00166268Y00443743D01*
X00166131Y00443556D01*
X00166018Y00443356D01*
X00165918Y00443156D01*
X00165856Y00442981D01*
X00165806Y00442831D01*
X00165793Y00442769D01*
X00165781Y00442731D01*
X00165769Y00442706D01*
Y00442694D01*
X00165693Y00442881D01*
X00165606Y00443044D01*
X00165518Y00443194D01*
X00165444Y00443306D01*
X00165369Y00443393D01*
X00165306Y00443468D01*
X00165269Y00443506D01*
X00165256Y00443518D01*
X00165069Y00443656D01*
X00164869Y00443768D01*
X00164669Y00443843D01*
X00164494Y00443893D01*
X00164331Y00443918D01*
X00164206Y00443943D01*
X00164156D01*
X00164119D01*
X00164106D01*
X00164094D01*
X00163944Y00443931D01*
X00163806Y00443918D01*
X00163544Y00443856D01*
X00163319Y00443756D01*
X00163119Y00443643D01*
X00162957Y00443531D01*
X00162844Y00443443D01*
X00162769Y00443368D01*
X00162744Y00443356D01*
Y00443344D01*
X00162644Y00443231D01*
X00162557Y00443106D01*
X00162432Y00442831D01*
X00162332Y00442556D01*
X00162257Y00442281D01*
X00162219Y00442031D01*
X00162207Y00441931D01*
Y00441844D01*
X00162194Y00441756D01*
Y00444293D01*
D01*
Y00437257D01*
X00169805D01*
Y00441432D01*
X00169792Y00441581D01*
X00169767Y00441756D01*
X00169755Y00441931D01*
X00169730Y00442106D01*
X00169718Y00442244D01*
Y00442294D01*
X00169705Y00442331D01*
Y00442369D01*
X00169667Y00442581D01*
X00169630Y00442756D01*
X00169592Y00442919D01*
X00169555Y00443044D01*
X00169517Y00443131D01*
X00169480Y00443206D01*
X00169468Y00443243D01*
X00169455Y00443256D01*
X00169343Y00443431D01*
X00169218Y00443568D01*
X00169105Y00443706D01*
X00168980Y00443806D01*
X00168880Y00443893D01*
X00168793Y00443956D01*
X00168743Y00443993D01*
X00168718Y00444006D01*
X00168530Y00444106D01*
X00168343Y00444168D01*
X00168168Y00444218D01*
X00168005Y00444256D01*
X00167855Y00444281D01*
X00167743Y00444293D01*
D02*
G37*
G36*
X00166181Y00436008D02*
X00165981D01*
X00165693Y00435995D01*
X00165419Y00435983D01*
X00165169Y00435945D01*
X00164956Y00435920D01*
X00164769Y00435883D01*
X00164694Y00435870D01*
X00164631Y00435845D01*
X00164581Y00435833D01*
X00164531D01*
X00164519Y00435820D01*
X00164506D01*
X00164256Y00435745D01*
X00164019Y00435645D01*
X00163806Y00435546D01*
X00163631Y00435446D01*
X00163482Y00435358D01*
X00163369Y00435283D01*
X00163307Y00435233D01*
X00163282Y00435208D01*
X00163094Y00435046D01*
X00162932Y00434871D01*
X00162794Y00434696D01*
X00162682Y00434533D01*
X00162594Y00434383D01*
X00162532Y00434271D01*
X00162494Y00434183D01*
X00162482Y00434171D01*
Y00434158D01*
X00162382Y00433908D01*
X00162319Y00433633D01*
X00162269Y00433358D01*
X00162232Y00433084D01*
X00162207Y00432859D01*
Y00432759D01*
X00162194Y00432671D01*
Y00436008D01*
D01*
Y00429010D01*
X00169805D01*
Y00432496D01*
X00169792Y00432734D01*
X00169767Y00432984D01*
X00169743Y00433209D01*
X00169705Y00433433D01*
X00169667Y00433621D01*
X00169655Y00433696D01*
X00169630Y00433771D01*
X00169618Y00433821D01*
Y00433858D01*
X00169605Y00433883D01*
Y00433896D01*
X00169530Y00434108D01*
X00169443Y00434296D01*
X00169355Y00434471D01*
X00169243Y00434633D01*
X00169155Y00434758D01*
X00169080Y00434858D01*
X00169030Y00434921D01*
X00169005Y00434946D01*
X00168818Y00435121D01*
X00168630Y00435283D01*
X00168443Y00435408D01*
X00168268Y00435521D01*
X00168118Y00435608D01*
X00167993Y00435670D01*
X00167943Y00435695D01*
X00167905Y00435708D01*
X00167893Y00435720D01*
X00167880D01*
X00167743Y00435770D01*
X00167605Y00435820D01*
X00167293Y00435883D01*
X00166981Y00435933D01*
X00166681Y00435970D01*
X00166531Y00435983D01*
X00166406Y00435995D01*
X00166281D01*
X00166181Y00436008D01*
D02*
G37*
%LPD*%
G36*
X00165469Y00449354D02*
X00167056D01*
Y00450929D01*
X00167768D01*
X00167868Y00450754D01*
X00167943Y00450604D01*
X00168005Y00450454D01*
X00168068Y00450329D01*
X00168105Y00450229D01*
X00168130Y00450154D01*
X00168155Y00450104D01*
Y00450092D01*
X00168218Y00449829D01*
X00168243Y00449704D01*
X00168255Y00449592D01*
Y00449492D01*
X00168268Y00449404D01*
Y00449342D01*
X00168243Y00449054D01*
X00168180Y00448792D01*
X00168105Y00448567D01*
X00168005Y00448392D01*
X00167905Y00448242D01*
X00167830Y00448142D01*
X00167768Y00448080D01*
X00167743Y00448055D01*
X00167631Y00447980D01*
X00167518Y00447905D01*
X00167243Y00447792D01*
X00166956Y00447705D01*
X00166668Y00447655D01*
X00166406Y00447617D01*
X00166281Y00447605D01*
X00166181D01*
X00166093Y00447592D01*
X00166031D01*
X00165993D01*
X00165981D01*
X00165769D01*
X00165569Y00447617D01*
X00165394Y00447630D01*
X00165219Y00447667D01*
X00165069Y00447692D01*
X00164931Y00447730D01*
X00164806Y00447780D01*
X00164694Y00447817D01*
X00164594Y00447855D01*
X00164506Y00447905D01*
X00164444Y00447942D01*
X00164381Y00447967D01*
X00164344Y00448005D01*
X00164306Y00448017D01*
X00164281Y00448042D01*
X00164181Y00448130D01*
X00164106Y00448230D01*
X00163969Y00448430D01*
X00163869Y00448642D01*
X00163806Y00448830D01*
X00163769Y00449005D01*
X00163757Y00449155D01*
X00163744Y00449204D01*
Y00449279D01*
X00163757Y00449467D01*
X00163782Y00449629D01*
X00163819Y00449779D01*
X00163857Y00449904D01*
X00163906Y00450004D01*
X00163944Y00450067D01*
X00163969Y00450117D01*
X00163981Y00450129D01*
X00164069Y00450242D01*
X00164181Y00450354D01*
X00164281Y00450429D01*
X00164394Y00450504D01*
X00164481Y00450554D01*
X00164556Y00450592D01*
X00164606Y00450604D01*
X00164631Y00450617D01*
X00164231Y00452891D01*
X00163969Y00452803D01*
X00163731Y00452704D01*
X00163519Y00452604D01*
X00163344Y00452504D01*
X00163207Y00452404D01*
X00163107Y00452329D01*
X00163044Y00452279D01*
X00163019Y00452266D01*
X00162844Y00452104D01*
X00162707Y00451929D01*
X00162582Y00451754D01*
X00162482Y00451591D01*
X00162407Y00451441D01*
X00162344Y00451329D01*
X00162319Y00451241D01*
X00162307Y00451229D01*
Y00451216D01*
X00162269Y00451091D01*
X00162232Y00450954D01*
X00162169Y00450654D01*
X00162132Y00450342D01*
X00162094Y00450042D01*
Y00449892D01*
X00162082Y00449767D01*
Y00449642D01*
X00162069Y00449542D01*
Y00452991D01*
X00165469D01*
Y00449354D01*
D02*
G37*
G36*
X00167505Y00441919D02*
X00167618Y00441894D01*
X00167718Y00441856D01*
X00167806Y00441806D01*
X00167868Y00441756D01*
X00167918Y00441719D01*
X00167943Y00441694D01*
X00167955Y00441681D01*
X00168030Y00441569D01*
X00168080Y00441444D01*
X00168118Y00441294D01*
X00168143Y00441157D01*
X00168155Y00441032D01*
X00168168Y00440919D01*
Y00439632D01*
X00166631D01*
Y00440819D01*
X00166643Y00441032D01*
X00166668Y00441207D01*
X00166693Y00441357D01*
X00166731Y00441481D01*
X00166781Y00441569D01*
X00166806Y00441631D01*
X00166831Y00441669D01*
X00166843Y00441681D01*
X00166918Y00441769D01*
X00167006Y00441831D01*
X00167106Y00441869D01*
X00167181Y00441906D01*
X00167268Y00441919D01*
X00167318Y00441931D01*
X00167368D01*
X00167381D01*
X00167505Y00441919D01*
D02*
G37*
G36*
X00164569Y00441619D02*
X00164681Y00441594D01*
X00164781Y00441556D01*
X00164856Y00441519D01*
X00164919Y00441481D01*
X00164956Y00441444D01*
X00164981Y00441419D01*
X00164994Y00441407D01*
X00165056Y00441319D01*
X00165106Y00441194D01*
X00165131Y00441069D01*
X00165156Y00440944D01*
X00165169Y00440832D01*
X00165181Y00440732D01*
Y00439632D01*
X00163731D01*
Y00440657D01*
X00163744Y00440844D01*
X00163757Y00441007D01*
X00163794Y00441132D01*
X00163832Y00441231D01*
X00163869Y00441306D01*
X00163894Y00441369D01*
X00163919Y00441394D01*
X00163931Y00441407D01*
X00164006Y00441481D01*
X00164094Y00441531D01*
X00164181Y00441581D01*
X00164256Y00441606D01*
X00164331Y00441619D01*
X00164394Y00441631D01*
X00164431D01*
X00164444D01*
X00164569Y00441619D01*
D02*
G37*
G36*
X00166343Y00433633D02*
X00166618Y00433621D01*
X00166856Y00433583D01*
X00167031Y00433559D01*
X00167181Y00433521D01*
X00167281Y00433484D01*
X00167331Y00433471D01*
X00167356Y00433459D01*
X00167493Y00433383D01*
X00167605Y00433308D01*
X00167705Y00433234D01*
X00167780Y00433146D01*
X00167843Y00433084D01*
X00167880Y00433021D01*
X00167905Y00432984D01*
X00167918Y00432971D01*
X00167968Y00432834D01*
X00168005Y00432684D01*
X00168043Y00432509D01*
X00168055Y00432334D01*
X00168068Y00432184D01*
X00168080Y00432046D01*
Y00431359D01*
X00163919D01*
Y00431934D01*
X00163944Y00432259D01*
X00163994Y00432521D01*
X00164056Y00432746D01*
X00164144Y00432934D01*
X00164231Y00433071D01*
X00164294Y00433171D01*
X00164344Y00433234D01*
X00164369Y00433246D01*
X00164456Y00433321D01*
X00164569Y00433383D01*
X00164819Y00433484D01*
X00165094Y00433546D01*
X00165369Y00433596D01*
X00165618Y00433621D01*
X00165731Y00433633D01*
X00165831Y00433646D01*
X00165918D01*
X00165981D01*
X00166018D01*
X00166031D01*
X00166343Y00433633D01*
D02*
G37*
%LPC*%
G36*
X00312194Y00089430D02*
X00308533D01*
X00312057D01*
X00311632Y00089418D01*
X00311444Y00089405D01*
X00311269Y00089380D01*
X00311094Y00089355D01*
X00310944Y00089330D01*
X00310807Y00089305D01*
X00310670Y00089280D01*
X00310557Y00089255D01*
X00310457Y00089230D01*
X00310382Y00089205D01*
X00310307Y00089180D01*
X00310257Y00089155D01*
X00310220Y00089143D01*
X00310195Y00089130D01*
X00310182D01*
X00309945Y00089005D01*
X00309732Y00088880D01*
X00309557Y00088743D01*
X00309407Y00088605D01*
X00309295Y00088493D01*
X00309220Y00088393D01*
X00309170Y00088330D01*
X00309158Y00088306D01*
X00309045Y00088106D01*
X00308958Y00087918D01*
X00308908Y00087731D01*
X00308858Y00087568D01*
X00308833Y00087418D01*
X00308820Y00087306D01*
Y00087231D01*
Y00087218D01*
Y00087206D01*
X00308833Y00087043D01*
X00308845Y00086881D01*
X00308920Y00086594D01*
X00309032Y00086343D01*
X00309158Y00086131D01*
X00309270Y00085956D01*
X00309382Y00085831D01*
X00309420Y00085794D01*
X00309457Y00085756D01*
X00309470Y00085744D01*
X00309482Y00085731D01*
X00309620Y00085631D01*
X00309770Y00085531D01*
X00309932Y00085431D01*
X00310107Y00085344D01*
X00310470Y00085194D01*
X00310832Y00085056D01*
X00311007Y00085006D01*
X00311169Y00084956D01*
X00311319Y00084919D01*
X00311444Y00084881D01*
X00311544Y00084856D01*
X00311632Y00084831D01*
X00311682Y00084819D01*
X00311694D01*
X00311869Y00084781D01*
X00312019Y00084744D01*
X00312157Y00084694D01*
X00312282Y00084656D01*
X00312394Y00084619D01*
X00312494Y00084581D01*
X00312657Y00084519D01*
X00312769Y00084457D01*
X00312857Y00084406D01*
X00312894Y00084382D01*
X00312906Y00084369D01*
X00312994Y00084282D01*
X00313057Y00084194D01*
X00313106Y00084107D01*
X00313132Y00084019D01*
X00313157Y00083957D01*
X00313169Y00083894D01*
Y00083857D01*
Y00083844D01*
X00313157Y00083732D01*
X00313132Y00083632D01*
X00313081Y00083532D01*
X00313032Y00083457D01*
X00312981Y00083382D01*
X00312931Y00083332D01*
X00312906Y00083307D01*
X00312894Y00083294D01*
X00312782Y00083219D01*
X00312657Y00083169D01*
X00312519Y00083119D01*
X00312394Y00083094D01*
X00312282Y00083082D01*
X00312194Y00083069D01*
X00312107D01*
X00311869Y00083094D01*
X00311657Y00083144D01*
X00311482Y00083207D01*
X00311332Y00083294D01*
X00311207Y00083382D01*
X00311132Y00083444D01*
X00311070Y00083494D01*
X00311057Y00083519D01*
X00310982Y00083644D01*
X00310919Y00083769D01*
X00310870Y00083907D01*
X00310832Y00084044D01*
X00310807Y00084169D01*
X00310782Y00084269D01*
X00310770Y00084332D01*
Y00084356D01*
X00308533Y00084207D01*
X00308558Y00083994D01*
X00308595Y00083794D01*
X00308695Y00083419D01*
X00308833Y00083107D01*
X00308908Y00082957D01*
X00308983Y00082832D01*
X00309058Y00082707D01*
X00309132Y00082607D01*
X00309195Y00082520D01*
X00309258Y00082444D01*
X00309295Y00082382D01*
X00309333Y00082345D01*
X00309357Y00082320D01*
X00309370Y00082307D01*
X00309520Y00082182D01*
X00309707Y00082070D01*
X00309895Y00081970D01*
X00310107Y00081882D01*
X00310332Y00081807D01*
X00310557Y00081745D01*
X00311007Y00081657D01*
X00311220Y00081632D01*
X00311419Y00081607D01*
X00311594Y00081595D01*
X00311757Y00081582D01*
X00311882Y00081570D01*
X00308533D01*
X00315456D01*
Y00084519D01*
Y00084169D01*
X00315443Y00084394D01*
X00315406Y00084607D01*
X00315356Y00084794D01*
X00315306Y00084969D01*
X00315243Y00085106D01*
X00315194Y00085206D01*
X00315156Y00085269D01*
X00315144Y00085294D01*
X00315019Y00085469D01*
X00314869Y00085631D01*
X00314706Y00085781D01*
X00314544Y00085906D01*
X00314394Y00085994D01*
X00314281Y00086069D01*
X00314231Y00086094D01*
X00314194Y00086119D01*
X00314181Y00086131D01*
X00314169D01*
X00314031Y00086194D01*
X00313881Y00086256D01*
X00313719Y00086319D01*
X00313544Y00086381D01*
X00313181Y00086494D01*
X00312819Y00086606D01*
X00312644Y00086643D01*
X00312482Y00086681D01*
X00312332Y00086718D01*
X00312207Y00086756D01*
X00312107Y00086768D01*
X00312019Y00086793D01*
X00311969Y00086806D01*
X00311957D01*
X00311744Y00086856D01*
X00311569Y00086906D01*
X00311432Y00086956D01*
X00311332Y00087006D01*
X00311257Y00087043D01*
X00311207Y00087068D01*
X00311182Y00087081D01*
X00311169Y00087093D01*
X00311107Y00087143D01*
X00311070Y00087206D01*
X00311019Y00087306D01*
X00310994Y00087393D01*
Y00087406D01*
Y00087418D01*
X00311007Y00087506D01*
X00311032Y00087593D01*
X00311094Y00087731D01*
X00311132Y00087781D01*
X00311169Y00087818D01*
X00311182Y00087831D01*
X00311194Y00087843D01*
X00311282Y00087906D01*
X00311382Y00087943D01*
X00311582Y00087993D01*
X00311682Y00088006D01*
X00311757Y00088018D01*
X00311819D01*
X00312007Y00088006D01*
X00312157Y00087981D01*
X00312294Y00087943D01*
X00312407Y00087906D01*
X00312494Y00087856D01*
X00312557Y00087818D01*
X00312594Y00087793D01*
X00312607Y00087781D01*
X00312707Y00087681D01*
X00312794Y00087568D01*
X00312857Y00087443D01*
X00312906Y00087318D01*
X00312944Y00087206D01*
X00312969Y00087118D01*
X00312994Y00087056D01*
Y00087031D01*
X00315206Y00087156D01*
X00315168Y00087368D01*
X00315119Y00087568D01*
X00315068Y00087756D01*
X00314993Y00087931D01*
X00314931Y00088081D01*
X00314844Y00088218D01*
X00314769Y00088356D01*
X00314694Y00088468D01*
X00314606Y00088568D01*
X00314531Y00088643D01*
X00314469Y00088718D01*
X00314406Y00088780D01*
X00314356Y00088818D01*
X00314319Y00088855D01*
X00314294Y00088880D01*
X00314281D01*
X00314131Y00088980D01*
X00313969Y00089068D01*
X00313606Y00089193D01*
X00313244Y00089293D01*
X00312882Y00089368D01*
X00312719Y00089380D01*
X00312557Y00089405D01*
X00312419Y00089418D01*
X00312294D01*
X00312194Y00089430D01*
D02*
G37*
G36*
X00323091Y00089305D02*
D01*
Y00086968D01*
X00323079Y00087168D01*
X00323066Y00087368D01*
X00322991Y00087706D01*
X00322942Y00087856D01*
X00322892Y00088006D01*
X00322829Y00088131D01*
X00322779Y00088243D01*
X00322716Y00088356D01*
X00322654Y00088443D01*
X00322604Y00088518D01*
X00322554Y00088581D01*
X00322517Y00088631D01*
X00322479Y00088668D01*
X00322467Y00088680D01*
X00322454Y00088693D01*
X00322329Y00088805D01*
X00322192Y00088893D01*
X00322042Y00088980D01*
X00321879Y00089043D01*
X00321567Y00089155D01*
X00321254Y00089230D01*
X00321104Y00089255D01*
X00320967Y00089268D01*
X00320842Y00089293D01*
X00320742D01*
X00320655Y00089305D01*
X00323091D01*
X00316631D01*
Y00081695D01*
X00318993D01*
Y00084519D01*
X00320280D01*
X00320542Y00084531D01*
X00320779Y00084544D01*
X00321004Y00084581D01*
X00321217Y00084619D01*
X00321404Y00084669D01*
X00321579Y00084719D01*
X00321729Y00084781D01*
X00321867Y00084844D01*
X00321992Y00084894D01*
X00322104Y00084956D01*
X00322192Y00085006D01*
X00322267Y00085056D01*
X00322317Y00085094D01*
X00322354Y00085131D01*
X00322379Y00085144D01*
X00322392Y00085156D01*
X00322517Y00085281D01*
X00322629Y00085419D01*
X00322716Y00085569D01*
X00322791Y00085719D01*
X00322916Y00086019D01*
X00323004Y00086306D01*
X00323029Y00086444D01*
X00323054Y00086568D01*
X00323066Y00086681D01*
X00323079Y00086781D01*
X00323091Y00086856D01*
Y00081695D01*
D01*
Y00089305D01*
D02*
G37*
G36*
X00307271D02*
X00304909D01*
Y00081695D01*
X00307271D01*
Y00089305D01*
D02*
G37*
%LPD*%
G36*
X00315456Y00081570D02*
X00312069D01*
X00312469Y00081582D01*
X00312832Y00081620D01*
X00313144Y00081670D01*
X00313281Y00081695D01*
X00313406Y00081732D01*
X00313519Y00081757D01*
X00313619Y00081782D01*
X00313706Y00081807D01*
X00313781Y00081832D01*
X00313831Y00081857D01*
X00313869Y00081870D01*
X00313894Y00081882D01*
X00313906D01*
X00314169Y00082020D01*
X00314394Y00082170D01*
X00314594Y00082320D01*
X00314756Y00082470D01*
X00314881Y00082607D01*
X00314968Y00082719D01*
X00315031Y00082794D01*
X00315044Y00082807D01*
Y00082819D01*
X00315181Y00083057D01*
X00315281Y00083294D01*
X00315356Y00083519D01*
X00315406Y00083719D01*
X00315431Y00083907D01*
X00315456Y00084044D01*
Y00081570D01*
D02*
G37*
G36*
X00319880Y00087743D02*
X00320080Y00087718D01*
X00320230Y00087681D01*
X00320355Y00087631D01*
X00320442Y00087581D01*
X00320505Y00087543D01*
X00320542Y00087518D01*
X00320555Y00087506D01*
X00320642Y00087406D01*
X00320704Y00087306D01*
X00320742Y00087206D01*
X00320779Y00087106D01*
X00320792Y00087018D01*
X00320804Y00086956D01*
Y00086906D01*
Y00086893D01*
X00320792Y00086756D01*
X00320755Y00086643D01*
X00320717Y00086531D01*
X00320667Y00086444D01*
X00320605Y00086381D01*
X00320567Y00086319D01*
X00320530Y00086294D01*
X00320517Y00086281D01*
X00320392Y00086206D01*
X00320255Y00086156D01*
X00320092Y00086106D01*
X00319942Y00086081D01*
X00319792Y00086069D01*
X00319680Y00086056D01*
X00318993D01*
Y00087756D01*
X00319655D01*
X00319880Y00087743D01*
D02*
G37*
%LPC*%
G36*
X00237430Y00213284D02*
X00229569D01*
D01*
X00233444D01*
X00233106Y00213272D01*
X00232794Y00213234D01*
X00232506Y00213184D01*
X00232231Y00213122D01*
X00231969Y00213047D01*
X00231744Y00212959D01*
X00231532Y00212859D01*
X00231332Y00212772D01*
X00231169Y00212672D01*
X00231019Y00212572D01*
X00230882Y00212484D01*
X00230782Y00212409D01*
X00230694Y00212347D01*
X00230644Y00212297D01*
X00230607Y00212259D01*
X00230594Y00212247D01*
X00230419Y00212047D01*
X00230257Y00211822D01*
X00230119Y00211597D01*
X00230007Y00211360D01*
X00229907Y00211110D01*
X00229820Y00210872D01*
X00229757Y00210635D01*
X00229694Y00210397D01*
X00229657Y00210185D01*
X00229620Y00209972D01*
X00229594Y00209797D01*
X00229582Y00209635D01*
Y00209510D01*
X00229569Y00209410D01*
Y00209323D01*
X00229582Y00208985D01*
X00229620Y00208673D01*
X00229669Y00208373D01*
X00229732Y00208098D01*
X00229807Y00207836D01*
X00229894Y00207598D01*
X00229994Y00207386D01*
X00230082Y00207186D01*
X00230182Y00207011D01*
X00230282Y00206861D01*
X00230369Y00206736D01*
X00230444Y00206623D01*
X00230507Y00206548D01*
X00230557Y00206486D01*
X00230594Y00206448D01*
X00230607Y00206436D01*
X00230807Y00206248D01*
X00231032Y00206098D01*
X00231257Y00205961D01*
X00231494Y00205836D01*
X00231744Y00205736D01*
X00231981Y00205649D01*
X00232219Y00205586D01*
X00232444Y00205524D01*
X00232656Y00205486D01*
X00232856Y00205449D01*
X00233044Y00205436D01*
X00233194Y00205411D01*
X00233331D01*
X00233419Y00205399D01*
X00233506D01*
X00233981Y00205424D01*
X00234206Y00205449D01*
X00234418Y00205474D01*
X00234618Y00205524D01*
X00234793Y00205561D01*
X00234968Y00205611D01*
X00235118Y00205661D01*
X00235256Y00205699D01*
X00235380Y00205749D01*
X00235480Y00205798D01*
X00235568Y00205836D01*
X00235643Y00205861D01*
X00235693Y00205886D01*
X00235718Y00205911D01*
X00235730D01*
X00236043Y00206124D01*
X00236305Y00206348D01*
X00236530Y00206573D01*
X00236718Y00206786D01*
X00236855Y00206986D01*
X00236905Y00207061D01*
X00236955Y00207136D01*
X00236980Y00207198D01*
X00237005Y00207236D01*
X00237030Y00207261D01*
Y00207273D01*
X00237168Y00207611D01*
X00237255Y00207960D01*
X00237330Y00208323D01*
X00237380Y00208660D01*
X00237393Y00208810D01*
X00237405Y00208960D01*
X00237418Y00209085D01*
Y00209198D01*
X00237430Y00209285D01*
Y00205798D01*
Y00213284D01*
D02*
G37*
G36*
X00237305Y00204011D02*
X00229694D01*
Y00201650D01*
X00237305D01*
Y00204011D01*
D02*
G37*
G36*
Y00200325D02*
D01*
Y00196226D01*
X00234481D01*
Y00197513D01*
X00234468Y00197776D01*
X00234456Y00198013D01*
X00234418Y00198238D01*
X00234381Y00198450D01*
X00234331Y00198638D01*
X00234281Y00198813D01*
X00234218Y00198963D01*
X00234156Y00199100D01*
X00234106Y00199225D01*
X00234043Y00199338D01*
X00233993Y00199425D01*
X00233943Y00199500D01*
X00233906Y00199550D01*
X00233868Y00199588D01*
X00233856Y00199613D01*
X00233843Y00199625D01*
X00233718Y00199750D01*
X00233581Y00199863D01*
X00233431Y00199950D01*
X00233281Y00200025D01*
X00232981Y00200150D01*
X00232694Y00200238D01*
X00232556Y00200263D01*
X00232431Y00200287D01*
X00232319Y00200300D01*
X00232219Y00200312D01*
X00232144Y00200325D01*
X00237305D01*
X00229694D01*
D01*
X00232031D01*
X00231831Y00200312D01*
X00231632Y00200300D01*
X00231294Y00200225D01*
X00231144Y00200175D01*
X00230994Y00200125D01*
X00230869Y00200063D01*
X00230757Y00200012D01*
X00230644Y00199950D01*
X00230557Y00199888D01*
X00230482Y00199838D01*
X00230419Y00199788D01*
X00230369Y00199750D01*
X00230332Y00199713D01*
X00230319Y00199700D01*
X00230307Y00199688D01*
X00230194Y00199563D01*
X00230107Y00199425D01*
X00230019Y00199275D01*
X00229957Y00199113D01*
X00229844Y00198800D01*
X00229769Y00198488D01*
X00229744Y00198338D01*
X00229732Y00198200D01*
X00229707Y00198076D01*
Y00197976D01*
X00229694Y00197888D01*
Y00193864D01*
X00237305D01*
Y00200325D01*
D02*
G37*
G36*
X00237430Y00192477D02*
X00229569D01*
D01*
X00232969D01*
Y00188840D01*
X00234556D01*
Y00190415D01*
X00235268D01*
X00235368Y00190240D01*
X00235443Y00190090D01*
X00235506Y00189940D01*
X00235568Y00189815D01*
X00235606Y00189715D01*
X00235630Y00189640D01*
X00235655Y00189590D01*
Y00189578D01*
X00235718Y00189315D01*
X00235743Y00189190D01*
X00235755Y00189078D01*
Y00188978D01*
X00235768Y00188890D01*
Y00188828D01*
X00235743Y00188540D01*
X00235681Y00188278D01*
X00235606Y00188053D01*
X00235506Y00187878D01*
X00235406Y00187728D01*
X00235331Y00187628D01*
X00235268Y00187566D01*
X00235243Y00187541D01*
X00235131Y00187466D01*
X00235018Y00187391D01*
X00234743Y00187278D01*
X00234456Y00187191D01*
X00234168Y00187141D01*
X00233906Y00187103D01*
X00233781Y00187091D01*
X00233681D01*
X00233594Y00187078D01*
X00233531D01*
X00233493D01*
X00233481D01*
X00233269D01*
X00233069Y00187103D01*
X00232894Y00187116D01*
X00232719Y00187153D01*
X00232569Y00187178D01*
X00232431Y00187216D01*
X00232306Y00187266D01*
X00232194Y00187303D01*
X00232094Y00187341D01*
X00232006Y00187391D01*
X00231944Y00187428D01*
X00231881Y00187453D01*
X00231844Y00187491D01*
X00231806Y00187503D01*
X00231782Y00187528D01*
X00231681Y00187616D01*
X00231607Y00187716D01*
X00231469Y00187916D01*
X00231369Y00188128D01*
X00231307Y00188316D01*
X00231269Y00188491D01*
X00231257Y00188640D01*
X00231244Y00188690D01*
Y00188765D01*
X00231257Y00188953D01*
X00231282Y00189115D01*
X00231319Y00189265D01*
X00231357Y00189390D01*
X00231406Y00189490D01*
X00231444Y00189553D01*
X00231469Y00189603D01*
X00231481Y00189615D01*
X00231569Y00189728D01*
X00231681Y00189840D01*
X00231782Y00189915D01*
X00231894Y00189990D01*
X00231981Y00190040D01*
X00232056Y00190078D01*
X00232106Y00190090D01*
X00232131Y00190103D01*
X00231731Y00192377D01*
X00231469Y00192290D01*
X00231232Y00192190D01*
X00231019Y00192090D01*
X00230844Y00191990D01*
X00230707Y00191890D01*
X00230607Y00191815D01*
X00230544Y00191765D01*
X00230519Y00191752D01*
X00230344Y00191590D01*
X00230207Y00191415D01*
X00230082Y00191240D01*
X00229982Y00191077D01*
X00229907Y00190927D01*
X00229844Y00190815D01*
X00229820Y00190727D01*
X00229807Y00190715D01*
Y00190702D01*
X00229769Y00190577D01*
X00229732Y00190440D01*
X00229669Y00190140D01*
X00229632Y00189828D01*
X00229594Y00189528D01*
Y00189378D01*
X00229582Y00189253D01*
Y00189128D01*
X00229569Y00189028D01*
Y00188578D01*
X00229582Y00188353D01*
X00229607Y00188141D01*
X00229632Y00187941D01*
X00229657Y00187753D01*
X00229682Y00187578D01*
X00229720Y00187428D01*
X00229757Y00187278D01*
X00229795Y00187153D01*
X00229820Y00187041D01*
X00229857Y00186953D01*
X00229882Y00186866D01*
X00229907Y00186803D01*
X00229932Y00186766D01*
X00229944Y00186741D01*
Y00186728D01*
X00230144Y00186378D01*
X00230357Y00186079D01*
X00230594Y00185816D01*
X00230819Y00185604D01*
X00231032Y00185441D01*
X00231119Y00185379D01*
X00231194Y00185329D01*
X00231257Y00185279D01*
X00231307Y00185254D01*
X00231332Y00185241D01*
X00231344Y00185229D01*
X00231694Y00185054D01*
X00232069Y00184929D01*
X00232431Y00184841D01*
X00232769Y00184779D01*
X00232919Y00184754D01*
X00233056Y00184741D01*
X00233194Y00184729D01*
X00233294D01*
X00233381Y00184716D01*
X00233506D01*
X00233931Y00184741D01*
X00234331Y00184791D01*
X00234693Y00184866D01*
X00234856Y00184904D01*
X00235006Y00184954D01*
X00235131Y00184991D01*
X00235256Y00185029D01*
X00235355Y00185066D01*
X00235443Y00185104D01*
X00235518Y00185141D01*
X00235568Y00185154D01*
X00235593Y00185179D01*
X00235606D01*
X00235930Y00185366D01*
X00236205Y00185591D01*
X00236443Y00185804D01*
X00236630Y00186016D01*
X00236780Y00186216D01*
X00236843Y00186291D01*
X00236893Y00186366D01*
X00236930Y00186429D01*
X00236955Y00186466D01*
X00236980Y00186491D01*
Y00186504D01*
X00237130Y00186841D01*
X00237243Y00187216D01*
X00237318Y00187578D01*
X00237367Y00187928D01*
X00237393Y00188091D01*
X00237405Y00188241D01*
X00237418Y00188378D01*
Y00188491D01*
X00237430Y00188591D01*
Y00185241D01*
Y00192477D01*
D02*
G37*
%LPD*%
G36*
Y00209410D02*
X00237405Y00209872D01*
X00237355Y00210285D01*
X00237318Y00210472D01*
X00237280Y00210647D01*
X00237243Y00210810D01*
X00237193Y00210947D01*
X00237155Y00211085D01*
X00237118Y00211197D01*
X00237080Y00211297D01*
X00237043Y00211385D01*
X00237005Y00211447D01*
X00236993Y00211497D01*
X00236968Y00211522D01*
Y00211535D01*
X00236780Y00211835D01*
X00236555Y00212097D01*
X00236343Y00212322D01*
X00236130Y00212509D01*
X00235930Y00212647D01*
X00235855Y00212709D01*
X00235780Y00212747D01*
X00235718Y00212784D01*
X00235681Y00212809D01*
X00235655Y00212834D01*
X00235643D01*
X00235306Y00212984D01*
X00234931Y00213097D01*
X00234568Y00213172D01*
X00234218Y00213234D01*
X00234056Y00213247D01*
X00233906Y00213259D01*
X00233781Y00213272D01*
X00233668D01*
X00233568Y00213284D01*
X00237430D01*
Y00209410D01*
D02*
G37*
G36*
X00233856Y00210922D02*
X00234056Y00210897D01*
X00234231Y00210872D01*
X00234393Y00210835D01*
X00234531Y00210797D01*
X00234668Y00210760D01*
X00234781Y00210722D01*
X00234881Y00210685D01*
X00234956Y00210647D01*
X00235031Y00210610D01*
X00235081Y00210572D01*
X00235131Y00210547D01*
X00235156Y00210522D01*
X00235181Y00210510D01*
X00235343Y00210347D01*
X00235468Y00210147D01*
X00235543Y00209960D01*
X00235606Y00209772D01*
X00235643Y00209598D01*
X00235655Y00209460D01*
X00235668Y00209410D01*
Y00209335D01*
X00235643Y00209073D01*
X00235593Y00208848D01*
X00235506Y00208648D01*
X00235418Y00208473D01*
X00235331Y00208348D01*
X00235243Y00208248D01*
X00235193Y00208198D01*
X00235168Y00208173D01*
X00235068Y00208098D01*
X00234956Y00208036D01*
X00234693Y00207923D01*
X00234431Y00207848D01*
X00234156Y00207798D01*
X00233906Y00207773D01*
X00233806Y00207761D01*
X00233706D01*
X00233631Y00207748D01*
X00233568D01*
X00233531D01*
X00233519D01*
X00233306D01*
X00233119Y00207761D01*
X00232944Y00207785D01*
X00232781Y00207810D01*
X00232631Y00207848D01*
X00232494Y00207885D01*
X00232369Y00207923D01*
X00232256Y00207960D01*
X00232169Y00207998D01*
X00232081Y00208036D01*
X00232019Y00208073D01*
X00231969Y00208111D01*
X00231919Y00208135D01*
X00231894Y00208160D01*
X00231869Y00208173D01*
X00231694Y00208348D01*
X00231569Y00208535D01*
X00231481Y00208735D01*
X00231419Y00208910D01*
X00231382Y00209073D01*
X00231369Y00209210D01*
X00231357Y00209260D01*
Y00209323D01*
X00231382Y00209585D01*
X00231432Y00209823D01*
X00231519Y00210023D01*
X00231607Y00210185D01*
X00231694Y00210322D01*
X00231782Y00210422D01*
X00231831Y00210472D01*
X00231856Y00210497D01*
X00231956Y00210572D01*
X00232069Y00210647D01*
X00232306Y00210747D01*
X00232569Y00210822D01*
X00232819Y00210885D01*
X00233056Y00210910D01*
X00233156Y00210922D01*
X00233244D01*
X00233319Y00210935D01*
X00233368D01*
X00233406D01*
X00233419D01*
X00233643D01*
X00233856Y00210922D01*
D02*
G37*
G36*
X00232244Y00198025D02*
X00232356Y00197988D01*
X00232469Y00197951D01*
X00232556Y00197901D01*
X00232619Y00197838D01*
X00232681Y00197801D01*
X00232706Y00197763D01*
X00232719Y00197751D01*
X00232794Y00197626D01*
X00232844Y00197488D01*
X00232894Y00197326D01*
X00232919Y00197176D01*
X00232931Y00197026D01*
X00232944Y00196913D01*
Y00196226D01*
X00231244D01*
Y00196888D01*
X00231257Y00197113D01*
X00231282Y00197313D01*
X00231319Y00197463D01*
X00231369Y00197588D01*
X00231419Y00197676D01*
X00231457Y00197738D01*
X00231481Y00197776D01*
X00231494Y00197788D01*
X00231594Y00197876D01*
X00231694Y00197938D01*
X00231794Y00197976D01*
X00231894Y00198013D01*
X00231981Y00198025D01*
X00232044Y00198038D01*
X00232094D01*
X00232106D01*
X00232244Y00198025D01*
D02*
G37*
G36*
X00237430Y00188715D02*
X00237418Y00189115D01*
X00237393Y00189478D01*
X00237355Y00189803D01*
X00237330Y00189940D01*
X00237305Y00190078D01*
X00237280Y00190203D01*
X00237255Y00190303D01*
X00237243Y00190403D01*
X00237218Y00190478D01*
X00237205Y00190540D01*
X00237193Y00190577D01*
X00237180Y00190602D01*
Y00190615D01*
X00237068Y00190927D01*
X00236918Y00191252D01*
X00236755Y00191565D01*
X00236605Y00191852D01*
X00236530Y00191977D01*
X00236455Y00192102D01*
X00236393Y00192215D01*
X00236330Y00192302D01*
X00236280Y00192377D01*
X00236243Y00192427D01*
X00236230Y00192465D01*
X00236218Y00192477D01*
X00237430D01*
Y00188715D01*
D02*
G37*
%LPC*%
G36*
X00242144Y00890257D02*
X00242032D01*
X00241832Y00890245D01*
X00241632Y00890232D01*
X00241294Y00890157D01*
X00241144Y00890107D01*
X00240994Y00890058D01*
X00240869Y00889995D01*
X00240757Y00889945D01*
X00240644Y00889883D01*
X00240557Y00889820D01*
X00240482Y00889770D01*
X00240420Y00889720D01*
X00240369Y00889683D01*
X00240332Y00889645D01*
X00240320Y00889633D01*
X00240307Y00889620D01*
X00240195Y00889495D01*
X00240107Y00889358D01*
X00240020Y00889208D01*
X00239957Y00889045D01*
X00239845Y00888733D01*
X00239770Y00888420D01*
X00239745Y00888270D01*
X00239732Y00888133D01*
X00239707Y00888008D01*
Y00887908D01*
X00239695Y00887821D01*
Y00883797D01*
X00247305D01*
Y00887608D01*
Y00886159D01*
X00244481D01*
Y00887446D01*
X00244468Y00887708D01*
X00244456Y00887945D01*
X00244419Y00888170D01*
X00244381Y00888383D01*
X00244331Y00888570D01*
X00244281Y00888745D01*
X00244219Y00888895D01*
X00244156Y00889033D01*
X00244106Y00889158D01*
X00244044Y00889270D01*
X00243994Y00889358D01*
X00243944Y00889433D01*
X00243906Y00889483D01*
X00243869Y00889520D01*
X00243856Y00889545D01*
X00243844Y00889558D01*
X00243719Y00889683D01*
X00243581Y00889795D01*
X00243431Y00889883D01*
X00243281Y00889958D01*
X00242981Y00890082D01*
X00242694Y00890170D01*
X00242556Y00890195D01*
X00242432Y00890220D01*
X00242319Y00890232D01*
X00242219Y00890245D01*
X00242144Y00890257D01*
D02*
G37*
G36*
X00247305Y00882234D02*
X00239695D01*
Y00874961D01*
X00247305D01*
Y00877173D01*
X00243131D01*
X00247305Y00880023D01*
Y00882234D01*
D02*
G37*
G36*
Y00873262D02*
X00239695D01*
Y00870900D01*
X00247305D01*
Y00873262D01*
D02*
G37*
G36*
X00244831Y00866114D02*
X00239570D01*
Y00858703D01*
Y00862552D01*
X00239582Y00862215D01*
X00239607Y00861902D01*
X00239670Y00861602D01*
X00239732Y00861327D01*
X00239807Y00861077D01*
X00239895Y00860840D01*
X00239982Y00860628D01*
X00240082Y00860440D01*
X00240182Y00860265D01*
X00240270Y00860115D01*
X00240357Y00859990D01*
X00240432Y00859890D01*
X00240494Y00859803D01*
X00240544Y00859753D01*
X00240582Y00859715D01*
X00240595Y00859703D01*
X00240794Y00859528D01*
X00241007Y00859378D01*
X00241232Y00859240D01*
X00241469Y00859128D01*
X00241719Y00859028D01*
X00241957Y00858953D01*
X00242194Y00858878D01*
X00242419Y00858828D01*
X00242644Y00858791D01*
X00242844Y00858753D01*
X00243019Y00858728D01*
X00243181Y00858716D01*
X00243306D01*
X00243406Y00858703D01*
X00239570D01*
X00243494D01*
X00243756Y00858716D01*
X00243994Y00858728D01*
X00244231Y00858753D01*
X00244456Y00858791D01*
X00244656Y00858828D01*
X00244843Y00858878D01*
X00245031Y00858928D01*
X00245181Y00858990D01*
X00245331Y00859040D01*
X00245456Y00859090D01*
X00245568Y00859140D01*
X00245656Y00859178D01*
X00245718Y00859215D01*
X00245781Y00859240D01*
X00245806Y00859265D01*
X00245818D01*
X00245981Y00859378D01*
X00246131Y00859490D01*
X00246393Y00859715D01*
X00246618Y00859953D01*
X00246780Y00860165D01*
X00246918Y00860353D01*
X00246968Y00860428D01*
X00247005Y00860490D01*
X00247043Y00860553D01*
X00247068Y00860590D01*
X00247080Y00860615D01*
Y00860628D01*
X00247193Y00860940D01*
X00247280Y00861277D01*
X00247343Y00861615D01*
X00247380Y00861940D01*
X00247405Y00862077D01*
Y00862215D01*
X00247418Y00862340D01*
X00247430Y00862452D01*
Y00862652D01*
X00247418Y00863014D01*
X00247380Y00863352D01*
X00247343Y00863639D01*
X00247280Y00863877D01*
X00247255Y00863989D01*
X00247230Y00864077D01*
X00247205Y00864152D01*
X00247193Y00864214D01*
X00247168Y00864277D01*
X00247155Y00864314D01*
X00247143Y00864327D01*
Y00864339D01*
X00247018Y00864576D01*
X00246880Y00864789D01*
X00246730Y00864976D01*
X00246593Y00865139D01*
X00246468Y00865276D01*
X00246368Y00865376D01*
X00246293Y00865426D01*
X00246268Y00865451D01*
X00246031Y00865614D01*
X00245793Y00865751D01*
X00245556Y00865864D01*
X00245318Y00865951D01*
X00245118Y00866026D01*
X00245031Y00866051D01*
X00244956Y00866076D01*
X00244906Y00866089D01*
X00244856Y00866101D01*
X00244831Y00866114D01*
D02*
G37*
G36*
X00247305Y00857741D02*
Y00854229D01*
X00247293Y00854467D01*
X00247268Y00854717D01*
X00247243Y00854941D01*
X00247205Y00855166D01*
X00247168Y00855354D01*
X00247155Y00855429D01*
X00247130Y00855504D01*
X00247118Y00855554D01*
Y00855591D01*
X00247105Y00855616D01*
Y00855629D01*
X00247030Y00855841D01*
X00246943Y00856029D01*
X00246855Y00856204D01*
X00246743Y00856366D01*
X00246655Y00856491D01*
X00246581Y00856591D01*
X00246530Y00856654D01*
X00246506Y00856679D01*
X00246318Y00856853D01*
X00246131Y00857016D01*
X00245943Y00857141D01*
X00245768Y00857253D01*
X00245618Y00857341D01*
X00245493Y00857403D01*
X00245443Y00857428D01*
X00245406Y00857441D01*
X00245393Y00857453D01*
X00245381D01*
X00245243Y00857503D01*
X00245106Y00857553D01*
X00244793Y00857616D01*
X00244481Y00857666D01*
X00244181Y00857703D01*
X00244031Y00857716D01*
X00243906Y00857728D01*
X00243781D01*
X00243681Y00857741D01*
X00243481D01*
X00243194Y00857728D01*
X00242919Y00857716D01*
X00242669Y00857678D01*
X00242456Y00857653D01*
X00242269Y00857616D01*
X00242194Y00857603D01*
X00242132Y00857578D01*
X00242082Y00857566D01*
X00242032D01*
X00242019Y00857553D01*
X00242007D01*
X00241757Y00857478D01*
X00241519Y00857378D01*
X00241307Y00857278D01*
X00241132Y00857178D01*
X00240982Y00857091D01*
X00240869Y00857016D01*
X00240807Y00856966D01*
X00240782Y00856941D01*
X00240595Y00856778D01*
X00240432Y00856604D01*
X00240295Y00856429D01*
X00240182Y00856266D01*
X00240095Y00856116D01*
X00240032Y00856004D01*
X00239995Y00855916D01*
X00239982Y00855904D01*
Y00855891D01*
X00239882Y00855641D01*
X00239820Y00855366D01*
X00239770Y00855091D01*
X00239732Y00854817D01*
X00239707Y00854592D01*
Y00854492D01*
X00239695Y00854404D01*
Y00854479D01*
Y00850743D01*
X00247305D01*
Y00857741D01*
D02*
G37*
%LPD*%
G36*
X00242244Y00887958D02*
X00242356Y00887921D01*
X00242469Y00887883D01*
X00242556Y00887833D01*
X00242619Y00887771D01*
X00242682Y00887733D01*
X00242706Y00887696D01*
X00242719Y00887683D01*
X00242794Y00887558D01*
X00242844Y00887421D01*
X00242894Y00887258D01*
X00242919Y00887108D01*
X00242931Y00886958D01*
X00242944Y00886846D01*
Y00886159D01*
X00241244D01*
Y00886821D01*
X00241257Y00887046D01*
X00241282Y00887246D01*
X00241319Y00887396D01*
X00241369Y00887521D01*
X00241419Y00887608D01*
X00241457Y00887671D01*
X00241482Y00887708D01*
X00241494Y00887721D01*
X00241594Y00887808D01*
X00241694Y00887871D01*
X00241794Y00887908D01*
X00241894Y00887945D01*
X00241982Y00887958D01*
X00242044Y00887971D01*
X00242094D01*
X00242107D01*
X00242244Y00887958D01*
D02*
G37*
G36*
X00239695Y00877148D02*
Y00880023D01*
X00243906D01*
X00239695Y00877148D01*
D02*
G37*
G36*
X00244181Y00864052D02*
X00244443Y00863989D01*
X00244668Y00863902D01*
X00244856Y00863814D01*
X00245018Y00863739D01*
X00245131Y00863664D01*
X00245218Y00863602D01*
X00245281Y00863552D01*
X00245293Y00863539D01*
X00245418Y00863402D01*
X00245506Y00863239D01*
X00245581Y00863077D01*
X00245618Y00862902D01*
X00245643Y00862765D01*
X00245656Y00862639D01*
X00245668Y00862589D01*
Y00862527D01*
X00245643Y00862277D01*
X00245593Y00862065D01*
X00245518Y00861877D01*
X00245431Y00861727D01*
X00245356Y00861602D01*
X00245281Y00861515D01*
X00245231Y00861452D01*
X00245206Y00861440D01*
X00245106Y00861377D01*
X00244993Y00861315D01*
X00244868Y00861265D01*
X00244743Y00861227D01*
X00244456Y00861152D01*
X00244169Y00861115D01*
X00243906Y00861090D01*
X00243794Y00861077D01*
X00243681D01*
X00243606Y00861065D01*
X00243531D01*
X00243494D01*
X00243481D01*
X00243294D01*
X00243119Y00861077D01*
X00242956Y00861090D01*
X00242819Y00861115D01*
X00242556Y00861165D01*
X00242344Y00861227D01*
X00242182Y00861277D01*
X00242069Y00861327D01*
X00242007Y00861365D01*
X00241982Y00861377D01*
X00241869Y00861465D01*
X00241769Y00861552D01*
X00241682Y00861652D01*
X00241607Y00861752D01*
X00241494Y00861952D01*
X00241407Y00862152D01*
X00241369Y00862327D01*
X00241344Y00862477D01*
X00241332Y00862527D01*
Y00862739D01*
X00241357Y00862852D01*
X00241382Y00862964D01*
X00241407Y00863052D01*
X00241432Y00863139D01*
X00241457Y00863189D01*
X00241469Y00863227D01*
X00241482Y00863239D01*
X00241607Y00863439D01*
X00241682Y00863514D01*
X00241744Y00863589D01*
X00241807Y00863652D01*
X00241844Y00863689D01*
X00241882Y00863714D01*
X00241894Y00863727D01*
X00241957Y00863777D01*
X00242044Y00863814D01*
X00242207Y00863889D01*
X00242282Y00863927D01*
X00242344Y00863939D01*
X00242381Y00863964D01*
X00242394D01*
X00241944Y00866039D01*
X00241719Y00865951D01*
X00241519Y00865864D01*
X00241332Y00865776D01*
X00241157Y00865676D01*
X00240994Y00865564D01*
X00240844Y00865464D01*
X00240720Y00865364D01*
X00240595Y00865264D01*
X00240494Y00865176D01*
X00240407Y00865089D01*
X00240332Y00865001D01*
X00240270Y00864939D01*
X00240220Y00864876D01*
X00240182Y00864839D01*
X00240170Y00864814D01*
X00240157Y00864801D01*
X00240057Y00864639D01*
X00239957Y00864477D01*
X00239820Y00864102D01*
X00239707Y00863739D01*
X00239645Y00863377D01*
X00239620Y00863202D01*
X00239595Y00863052D01*
X00239582Y00862915D01*
Y00862790D01*
X00239570Y00862690D01*
Y00866114D01*
X00244818D01*
X00244181Y00864052D01*
D02*
G37*
G36*
X00243844Y00855366D02*
X00244119Y00855354D01*
X00244356Y00855316D01*
X00244531Y00855291D01*
X00244681Y00855254D01*
X00244781Y00855216D01*
X00244831Y00855204D01*
X00244856Y00855191D01*
X00244993Y00855117D01*
X00245106Y00855042D01*
X00245206Y00854967D01*
X00245281Y00854879D01*
X00245343Y00854817D01*
X00245381Y00854754D01*
X00245406Y00854717D01*
X00245418Y00854704D01*
X00245468Y00854567D01*
X00245506Y00854417D01*
X00245543Y00854242D01*
X00245556Y00854067D01*
X00245568Y00853917D01*
X00245581Y00853779D01*
Y00853092D01*
X00241419D01*
Y00853667D01*
X00241444Y00853992D01*
X00241494Y00854254D01*
X00241557Y00854479D01*
X00241644Y00854667D01*
X00241732Y00854804D01*
X00241794Y00854904D01*
X00241844Y00854967D01*
X00241869Y00854979D01*
X00241957Y00855054D01*
X00242069Y00855117D01*
X00242319Y00855216D01*
X00242594Y00855279D01*
X00242869Y00855329D01*
X00243119Y00855354D01*
X00243231Y00855366D01*
X00243331Y00855379D01*
X00243419D01*
X00243481D01*
X00243519D01*
X00243531D01*
X00243844Y00855366D01*
D02*
G37*
%LPC*%
G36*
X00175805Y00036316D02*
D01*
Y00033916D01*
X00170069D01*
Y00036316D01*
X00168195D01*
Y00029167D01*
X00175805D01*
Y00036316D01*
D02*
G37*
G36*
X00175930Y00028143D02*
D01*
Y00024681D01*
X00175918Y00025031D01*
X00175893Y00025343D01*
X00175855Y00025618D01*
X00175805Y00025856D01*
X00175755Y00026056D01*
X00175743Y00026131D01*
X00175718Y00026193D01*
X00175705Y00026256D01*
X00175693Y00026293D01*
X00175680Y00026305D01*
Y00026318D01*
X00175605Y00026505D01*
X00175505Y00026680D01*
X00175405Y00026843D01*
X00175305Y00026980D01*
X00175205Y00027105D01*
X00175130Y00027193D01*
X00175080Y00027243D01*
X00175055Y00027268D01*
X00174880Y00027430D01*
X00174705Y00027568D01*
X00174531Y00027680D01*
X00174356Y00027768D01*
X00174218Y00027843D01*
X00174106Y00027893D01*
X00174031Y00027918D01*
X00174018Y00027930D01*
X00174006D01*
X00173781Y00028005D01*
X00173556Y00028055D01*
X00173343Y00028093D01*
X00173143Y00028118D01*
X00172981Y00028130D01*
X00172843Y00028143D01*
X00175930D01*
X00168195D01*
Y00025793D01*
X00172843D01*
X00173068Y00025781D01*
X00173256Y00025743D01*
X00173431Y00025681D01*
X00173568Y00025618D01*
X00173668Y00025556D01*
X00173756Y00025493D01*
X00173806Y00025456D01*
X00173818Y00025443D01*
X00173931Y00025306D01*
X00174018Y00025143D01*
X00174068Y00024993D01*
X00174118Y00024843D01*
X00174143Y00024706D01*
X00174156Y00024594D01*
Y00024494D01*
X00174143Y00024281D01*
X00174106Y00024081D01*
X00174043Y00023919D01*
X00173981Y00023781D01*
X00173918Y00023669D01*
X00173856Y00023594D01*
X00173818Y00023544D01*
X00173806Y00023531D01*
X00173668Y00023419D01*
X00173506Y00023331D01*
X00173343Y00023281D01*
X00173193Y00023231D01*
X00173056Y00023206D01*
X00172943Y00023194D01*
X00172868D01*
X00172856D01*
X00172843D01*
X00168195D01*
Y00020844D01*
X00175930D01*
Y00028143D01*
D02*
G37*
G36*
Y00019570D02*
D01*
Y00015696D01*
X00175905Y00016158D01*
X00175855Y00016571D01*
X00175818Y00016758D01*
X00175780Y00016933D01*
X00175743Y00017095D01*
X00175693Y00017233D01*
X00175655Y00017370D01*
X00175618Y00017483D01*
X00175580Y00017583D01*
X00175543Y00017670D01*
X00175505Y00017733D01*
X00175493Y00017783D01*
X00175468Y00017808D01*
Y00017820D01*
X00175280Y00018120D01*
X00175055Y00018383D01*
X00174843Y00018607D01*
X00174631Y00018795D01*
X00174431Y00018932D01*
X00174356Y00018995D01*
X00174281Y00019032D01*
X00174218Y00019070D01*
X00174181Y00019095D01*
X00174156Y00019120D01*
X00174143D01*
X00173806Y00019270D01*
X00173431Y00019382D01*
X00173068Y00019457D01*
X00172719Y00019520D01*
X00172556Y00019532D01*
X00172406Y00019545D01*
X00172281Y00019557D01*
X00172169D01*
X00172069Y00019570D01*
X00171944D01*
X00171606Y00019557D01*
X00171294Y00019520D01*
X00171006Y00019470D01*
X00170732Y00019407D01*
X00170469Y00019332D01*
X00170244Y00019245D01*
X00170032Y00019145D01*
X00169832Y00019057D01*
X00169669Y00018957D01*
X00169519Y00018857D01*
X00169382Y00018770D01*
X00169282Y00018695D01*
X00169194Y00018633D01*
X00169144Y00018583D01*
X00169107Y00018545D01*
X00169094Y00018533D01*
X00168919Y00018333D01*
X00168757Y00018108D01*
X00168619Y00017883D01*
X00168507Y00017645D01*
X00168407Y00017395D01*
X00168320Y00017158D01*
X00168257Y00016920D01*
X00168195Y00016683D01*
X00168157Y00016471D01*
X00168120Y00016258D01*
X00168095Y00016083D01*
X00168082Y00015921D01*
Y00015796D01*
X00168070Y00015696D01*
Y00015608D01*
X00168082Y00015271D01*
X00168120Y00014958D01*
X00168170Y00014658D01*
X00168232Y00014384D01*
X00168307Y00014121D01*
X00168395Y00013884D01*
X00168494Y00013671D01*
X00168582Y00013471D01*
X00168682Y00013296D01*
X00168782Y00013146D01*
X00168869Y00013021D01*
X00168944Y00012909D01*
X00169007Y00012834D01*
X00169057Y00012772D01*
X00169094Y00012734D01*
X00169107Y00012722D01*
X00169307Y00012534D01*
X00169532Y00012384D01*
X00169757Y00012247D01*
X00169994Y00012122D01*
X00170244Y00012022D01*
X00170481Y00011934D01*
X00170719Y00011872D01*
X00170944Y00011809D01*
X00171156Y00011772D01*
X00171356Y00011734D01*
X00171544Y00011722D01*
X00171694Y00011697D01*
X00171831D01*
X00171919Y00011684D01*
X00168070D01*
X00175930D01*
Y00019570D01*
D02*
G37*
%LPD*%
G36*
X00175805Y00029167D02*
X00170069D01*
Y00031567D01*
X00175805D01*
Y00029167D01*
D02*
G37*
G36*
X00175930Y00020844D02*
X00172731D01*
X00172943Y00020857D01*
X00173168Y00020882D01*
X00173381Y00020907D01*
X00173581Y00020957D01*
X00173756Y00020994D01*
X00173893Y00021019D01*
X00173943Y00021032D01*
X00173981Y00021044D01*
X00174006Y00021057D01*
X00174018D01*
X00174181Y00021119D01*
X00174343Y00021194D01*
X00174493Y00021282D01*
X00174618Y00021357D01*
X00174730Y00021432D01*
X00174818Y00021494D01*
X00174868Y00021544D01*
X00174893Y00021557D01*
X00175043Y00021694D01*
X00175180Y00021832D01*
X00175293Y00021969D01*
X00175380Y00022094D01*
X00175455Y00022194D01*
X00175505Y00022282D01*
X00175543Y00022332D01*
X00175555Y00022357D01*
X00175630Y00022531D01*
X00175693Y00022719D01*
X00175743Y00022906D01*
X00175793Y00023081D01*
X00175818Y00023231D01*
X00175843Y00023344D01*
Y00023394D01*
X00175855Y00023431D01*
Y00023456D01*
X00175880Y00023694D01*
X00175893Y00023931D01*
X00175918Y00024131D01*
Y00024318D01*
X00175930Y00024469D01*
Y00020844D01*
D02*
G37*
G36*
X00172356Y00017208D02*
X00172556Y00017183D01*
X00172731Y00017158D01*
X00172893Y00017120D01*
X00173031Y00017083D01*
X00173168Y00017045D01*
X00173281Y00017008D01*
X00173381Y00016970D01*
X00173456Y00016933D01*
X00173531Y00016895D01*
X00173581Y00016858D01*
X00173631Y00016833D01*
X00173656Y00016808D01*
X00173681Y00016796D01*
X00173843Y00016633D01*
X00173968Y00016433D01*
X00174043Y00016246D01*
X00174106Y00016058D01*
X00174143Y00015883D01*
X00174156Y00015746D01*
X00174168Y00015696D01*
Y00015621D01*
X00174143Y00015358D01*
X00174093Y00015133D01*
X00174006Y00014933D01*
X00173918Y00014758D01*
X00173831Y00014634D01*
X00173743Y00014533D01*
X00173693Y00014484D01*
X00173668Y00014459D01*
X00173568Y00014384D01*
X00173456Y00014321D01*
X00173193Y00014209D01*
X00172931Y00014134D01*
X00172656Y00014084D01*
X00172406Y00014059D01*
X00172306Y00014046D01*
X00172206D01*
X00172131Y00014034D01*
X00172069D01*
X00172031D01*
X00172019D01*
X00171806D01*
X00171619Y00014046D01*
X00171444Y00014071D01*
X00171281Y00014096D01*
X00171131Y00014134D01*
X00170994Y00014171D01*
X00170869Y00014209D01*
X00170756Y00014246D01*
X00170669Y00014284D01*
X00170581Y00014321D01*
X00170519Y00014359D01*
X00170469Y00014396D01*
X00170419Y00014421D01*
X00170394Y00014446D01*
X00170369Y00014459D01*
X00170194Y00014634D01*
X00170069Y00014821D01*
X00169982Y00015021D01*
X00169919Y00015196D01*
X00169882Y00015358D01*
X00169869Y00015496D01*
X00169857Y00015546D01*
Y00015608D01*
X00169882Y00015871D01*
X00169932Y00016108D01*
X00170019Y00016308D01*
X00170107Y00016471D01*
X00170194Y00016608D01*
X00170282Y00016708D01*
X00170332Y00016758D01*
X00170357Y00016783D01*
X00170457Y00016858D01*
X00170569Y00016933D01*
X00170806Y00017033D01*
X00171069Y00017108D01*
X00171319Y00017170D01*
X00171556Y00017195D01*
X00171656Y00017208D01*
X00171744D01*
X00171819Y00017220D01*
X00171869D01*
X00171906D01*
X00171919D01*
X00172144D01*
X00172356Y00017208D01*
D02*
G37*
G36*
X00175930Y00011684D02*
X00172006D01*
X00172481Y00011709D01*
X00172706Y00011734D01*
X00172918Y00011759D01*
X00173118Y00011809D01*
X00173293Y00011847D01*
X00173468Y00011897D01*
X00173618Y00011947D01*
X00173756Y00011984D01*
X00173881Y00012034D01*
X00173981Y00012084D01*
X00174068Y00012122D01*
X00174143Y00012147D01*
X00174193Y00012172D01*
X00174218Y00012197D01*
X00174231D01*
X00174543Y00012409D01*
X00174805Y00012634D01*
X00175030Y00012859D01*
X00175218Y00013071D01*
X00175355Y00013271D01*
X00175405Y00013346D01*
X00175455Y00013421D01*
X00175480Y00013484D01*
X00175505Y00013521D01*
X00175530Y00013546D01*
Y00013559D01*
X00175668Y00013896D01*
X00175755Y00014246D01*
X00175830Y00014609D01*
X00175880Y00014946D01*
X00175893Y00015096D01*
X00175905Y00015246D01*
X00175918Y00015371D01*
Y00015483D01*
X00175930Y00015571D01*
Y00011684D01*
D02*
G37*
%LPC*%
G36*
X00167331Y00520135D02*
X00162070D01*
Y00512725D01*
D01*
Y00516574D01*
X00162082Y00516236D01*
X00162107Y00515924D01*
X00162170Y00515624D01*
X00162232Y00515349D01*
X00162307Y00515099D01*
X00162395Y00514861D01*
X00162482Y00514649D01*
X00162582Y00514462D01*
X00162682Y00514287D01*
X00162770Y00514137D01*
X00162857Y00514012D01*
X00162932Y00513912D01*
X00162994Y00513824D01*
X00163044Y00513774D01*
X00163082Y00513737D01*
X00163095Y00513724D01*
X00163294Y00513549D01*
X00163507Y00513399D01*
X00163732Y00513262D01*
X00163969Y00513149D01*
X00164219Y00513050D01*
X00164457Y00512975D01*
X00164694Y00512900D01*
X00164919Y00512850D01*
X00165144Y00512812D01*
X00165344Y00512775D01*
X00165519Y00512749D01*
X00165681Y00512737D01*
X00165806D01*
X00165906Y00512725D01*
X00162070D01*
X00165994D01*
X00166256Y00512737D01*
X00166494Y00512749D01*
X00166731Y00512775D01*
X00166956Y00512812D01*
X00167156Y00512850D01*
X00167343Y00512900D01*
X00167531Y00512949D01*
X00167681Y00513012D01*
X00167831Y00513062D01*
X00167956Y00513112D01*
X00168068Y00513162D01*
X00168156Y00513199D01*
X00168218Y00513237D01*
X00168281Y00513262D01*
X00168306Y00513287D01*
X00168318D01*
X00168481Y00513399D01*
X00168631Y00513512D01*
X00168893Y00513737D01*
X00169118Y00513974D01*
X00169280Y00514187D01*
X00169418Y00514374D01*
X00169468Y00514449D01*
X00169505Y00514512D01*
X00169543Y00514574D01*
X00169568Y00514612D01*
X00169580Y00514637D01*
Y00514649D01*
X00169693Y00514962D01*
X00169780Y00515299D01*
X00169843Y00515636D01*
X00169880Y00515961D01*
X00169905Y00516099D01*
Y00516236D01*
X00169918Y00516361D01*
X00169930Y00516474D01*
Y00516674D01*
X00169918Y00517036D01*
X00169880Y00517373D01*
X00169843Y00517661D01*
X00169780Y00517898D01*
X00169755Y00518011D01*
X00169730Y00518098D01*
X00169705Y00518173D01*
X00169693Y00518236D01*
X00169668Y00518298D01*
X00169655Y00518336D01*
X00169643Y00518348D01*
Y00518361D01*
X00169518Y00518598D01*
X00169380Y00518811D01*
X00169230Y00518998D01*
X00169093Y00519160D01*
X00168968Y00519298D01*
X00168868Y00519398D01*
X00168793Y00519448D01*
X00168768Y00519473D01*
X00168531Y00519635D01*
X00168293Y00519773D01*
X00168056Y00519885D01*
X00167818Y00519973D01*
X00167618Y00520048D01*
X00167531Y00520073D01*
X00167456Y00520098D01*
X00167406Y00520110D01*
X00167356Y00520123D01*
X00167331Y00520135D01*
D02*
G37*
G36*
X00169805Y00511750D02*
X00168081D01*
Y00508438D01*
X00167893Y00508638D01*
X00167818Y00508726D01*
X00167756Y00508801D01*
X00167706Y00508851D01*
X00167656Y00508900D01*
X00167643Y00508926D01*
X00167631Y00508938D01*
X00167556Y00509038D01*
X00167456Y00509163D01*
X00167356Y00509313D01*
X00167243Y00509450D01*
X00167156Y00509588D01*
X00167081Y00509700D01*
X00167031Y00509775D01*
X00167006Y00509788D01*
Y00509800D01*
X00166868Y00510000D01*
X00166731Y00510175D01*
X00166594Y00510338D01*
X00166469Y00510488D01*
X00166356Y00510625D01*
X00166231Y00510738D01*
X00166131Y00510850D01*
X00166031Y00510950D01*
X00165944Y00511025D01*
X00165856Y00511100D01*
X00165731Y00511212D01*
X00165681Y00511237D01*
X00165644Y00511262D01*
X00165631Y00511287D01*
X00165619D01*
X00165381Y00511425D01*
X00165144Y00511525D01*
X00164919Y00511600D01*
X00164719Y00511650D01*
X00164544Y00511675D01*
X00164407Y00511700D01*
X00164357D01*
X00164319D01*
X00164307D01*
X00164294D01*
X00164057Y00511687D01*
X00163832Y00511650D01*
X00163632Y00511587D01*
X00163457Y00511525D01*
X00163307Y00511450D01*
X00163195Y00511400D01*
X00163132Y00511350D01*
X00163107Y00511337D01*
X00162920Y00511187D01*
X00162770Y00511025D01*
X00162632Y00510863D01*
X00162520Y00510713D01*
X00162445Y00510563D01*
X00162382Y00510450D01*
X00162345Y00510375D01*
X00162332Y00510363D01*
Y00510350D01*
X00162245Y00510100D01*
X00162182Y00509825D01*
X00162132Y00509538D01*
X00162107Y00509263D01*
X00162082Y00509013D01*
Y00508900D01*
X00162070Y00508813D01*
Y00511750D01*
D01*
Y00505401D01*
D01*
Y00508626D01*
X00162082Y00508251D01*
X00162107Y00507913D01*
X00162157Y00507626D01*
X00162182Y00507488D01*
X00162207Y00507376D01*
X00162232Y00507276D01*
X00162257Y00507188D01*
X00162282Y00507113D01*
X00162307Y00507051D01*
X00162320Y00507001D01*
X00162332Y00506964D01*
X00162345Y00506951D01*
Y00506939D01*
X00162457Y00506726D01*
X00162570Y00506539D01*
X00162695Y00506376D01*
X00162820Y00506251D01*
X00162932Y00506139D01*
X00163020Y00506064D01*
X00163082Y00506014D01*
X00163107Y00506001D01*
X00163307Y00505889D01*
X00163532Y00505789D01*
X00163769Y00505714D01*
X00163994Y00505651D01*
X00164194Y00505601D01*
X00164282Y00505589D01*
X00164357Y00505576D01*
X00164419Y00505564D01*
X00164469Y00505551D01*
X00164494D01*
X00164507D01*
X00164669Y00507676D01*
X00164444Y00507713D01*
X00164257Y00507763D01*
X00164107Y00507826D01*
X00163982Y00507876D01*
X00163894Y00507926D01*
X00163832Y00507976D01*
X00163794Y00508001D01*
X00163782Y00508013D01*
X00163694Y00508113D01*
X00163632Y00508226D01*
X00163582Y00508338D01*
X00163557Y00508438D01*
X00163532Y00508538D01*
X00163519Y00508613D01*
Y00508676D01*
X00163532Y00508813D01*
X00163557Y00508938D01*
X00163594Y00509050D01*
X00163644Y00509151D01*
X00163694Y00509225D01*
X00163732Y00509275D01*
X00163757Y00509313D01*
X00163769Y00509325D01*
X00163869Y00509413D01*
X00163969Y00509475D01*
X00164069Y00509525D01*
X00164157Y00509550D01*
X00164244Y00509575D01*
X00164307Y00509588D01*
X00164357D01*
X00164369D01*
X00164482Y00509575D01*
X00164607Y00509550D01*
X00164719Y00509500D01*
X00164819Y00509463D01*
X00164907Y00509413D01*
X00164981Y00509363D01*
X00165032Y00509338D01*
X00165044Y00509325D01*
X00165119Y00509275D01*
X00165194Y00509201D01*
X00165356Y00509025D01*
X00165531Y00508838D01*
X00165706Y00508638D01*
X00165856Y00508451D01*
X00165981Y00508288D01*
X00166031Y00508226D01*
X00166069Y00508176D01*
X00166081Y00508151D01*
X00166094Y00508138D01*
X00166306Y00507863D01*
X00166506Y00507613D01*
X00166694Y00507376D01*
X00166868Y00507164D01*
X00167043Y00506976D01*
X00167206Y00506814D01*
X00167356Y00506651D01*
X00167493Y00506526D01*
X00167618Y00506414D01*
X00167718Y00506314D01*
X00167818Y00506226D01*
X00167893Y00506164D01*
X00167956Y00506114D01*
X00168006Y00506076D01*
X00168031Y00506064D01*
X00168043Y00506051D01*
X00168356Y00505864D01*
X00168668Y00505714D01*
X00168968Y00505601D01*
X00169230Y00505526D01*
X00169355Y00505489D01*
X00169468Y00505464D01*
X00169568Y00505439D01*
X00169643Y00505426D01*
X00169718Y00505414D01*
X00169768Y00505401D01*
X00162070D01*
X00169805D01*
Y00511750D01*
D02*
G37*
G36*
Y00504227D02*
X00162195D01*
Y00501865D01*
X00169805D01*
Y00504227D01*
D02*
G37*
%LPD*%
G36*
X00166681Y00518073D02*
X00166943Y00518011D01*
X00167168Y00517923D01*
X00167356Y00517836D01*
X00167518Y00517761D01*
X00167631Y00517686D01*
X00167718Y00517623D01*
X00167781Y00517573D01*
X00167793Y00517561D01*
X00167918Y00517423D01*
X00168006Y00517261D01*
X00168081Y00517098D01*
X00168118Y00516923D01*
X00168143Y00516786D01*
X00168156Y00516661D01*
X00168168Y00516611D01*
Y00516549D01*
X00168143Y00516299D01*
X00168093Y00516086D01*
X00168018Y00515899D01*
X00167931Y00515749D01*
X00167856Y00515624D01*
X00167781Y00515536D01*
X00167731Y00515474D01*
X00167706Y00515461D01*
X00167606Y00515399D01*
X00167493Y00515336D01*
X00167368Y00515286D01*
X00167243Y00515249D01*
X00166956Y00515174D01*
X00166669Y00515136D01*
X00166406Y00515111D01*
X00166294Y00515099D01*
X00166181D01*
X00166106Y00515086D01*
X00166031D01*
X00165994D01*
X00165981D01*
X00165794D01*
X00165619Y00515099D01*
X00165456Y00515111D01*
X00165319Y00515136D01*
X00165056Y00515186D01*
X00164844Y00515249D01*
X00164682Y00515299D01*
X00164569Y00515349D01*
X00164507Y00515386D01*
X00164482Y00515399D01*
X00164369Y00515486D01*
X00164269Y00515574D01*
X00164182Y00515674D01*
X00164107Y00515774D01*
X00163994Y00515974D01*
X00163907Y00516174D01*
X00163869Y00516349D01*
X00163844Y00516499D01*
X00163832Y00516549D01*
Y00516761D01*
X00163857Y00516874D01*
X00163882Y00516986D01*
X00163907Y00517073D01*
X00163932Y00517161D01*
X00163957Y00517211D01*
X00163969Y00517248D01*
X00163982Y00517261D01*
X00164107Y00517461D01*
X00164182Y00517536D01*
X00164244Y00517611D01*
X00164307Y00517673D01*
X00164344Y00517711D01*
X00164382Y00517736D01*
X00164394Y00517748D01*
X00164457Y00517798D01*
X00164544Y00517836D01*
X00164707Y00517911D01*
X00164782Y00517948D01*
X00164844Y00517961D01*
X00164881Y00517986D01*
X00164894D01*
X00164444Y00520060D01*
X00164219Y00519973D01*
X00164019Y00519885D01*
X00163832Y00519798D01*
X00163657Y00519698D01*
X00163494Y00519585D01*
X00163344Y00519485D01*
X00163220Y00519385D01*
X00163095Y00519285D01*
X00162994Y00519198D01*
X00162907Y00519110D01*
X00162832Y00519023D01*
X00162770Y00518960D01*
X00162720Y00518898D01*
X00162682Y00518861D01*
X00162670Y00518835D01*
X00162657Y00518823D01*
X00162557Y00518661D01*
X00162457Y00518498D01*
X00162320Y00518123D01*
X00162207Y00517761D01*
X00162145Y00517398D01*
X00162120Y00517223D01*
X00162095Y00517073D01*
X00162082Y00516936D01*
Y00516811D01*
X00162070Y00516711D01*
Y00520135D01*
X00167318D01*
X00166681Y00518073D01*
D02*
G37*
%LPC*%
G36*
X00020213Y00329930D02*
X00020075D01*
X00019650Y00329918D01*
X00019463Y00329905D01*
X00019288Y00329880D01*
X00019113Y00329855D01*
X00018963Y00329830D01*
X00018825Y00329805D01*
X00018688Y00329780D01*
X00018575Y00329755D01*
X00018475Y00329730D01*
X00018400Y00329705D01*
X00018325Y00329680D01*
X00018276Y00329655D01*
X00018238Y00329643D01*
X00018213Y00329630D01*
X00018201D01*
X00017963Y00329505D01*
X00017751Y00329380D01*
X00017576Y00329243D01*
X00017426Y00329105D01*
X00017313Y00328993D01*
X00017238Y00328893D01*
X00017188Y00328830D01*
X00017176Y00328806D01*
X00017063Y00328606D01*
X00016976Y00328418D01*
X00016926Y00328231D01*
X00016876Y00328068D01*
X00016851Y00327918D01*
X00016838Y00327806D01*
Y00327731D01*
Y00327718D01*
Y00327706D01*
X00016851Y00327543D01*
X00016863Y00327381D01*
X00016938Y00327094D01*
X00017051Y00326843D01*
X00017176Y00326631D01*
X00017288Y00326456D01*
X00017401Y00326331D01*
X00017438Y00326294D01*
X00017476Y00326256D01*
X00017488Y00326244D01*
X00017501Y00326231D01*
X00017638Y00326131D01*
X00017788Y00326031D01*
X00017951Y00325931D01*
X00018125Y00325844D01*
X00018488Y00325694D01*
X00018850Y00325556D01*
X00019025Y00325506D01*
X00019188Y00325456D01*
X00019338Y00325419D01*
X00019463Y00325381D01*
X00019563Y00325356D01*
X00019650Y00325331D01*
X00019700Y00325319D01*
X00019713D01*
X00019887Y00325281D01*
X00020038Y00325244D01*
X00020175Y00325194D01*
X00020300Y00325157D01*
X00020412Y00325119D01*
X00020512Y00325081D01*
X00020675Y00325019D01*
X00020787Y00324957D01*
X00020875Y00324907D01*
X00020912Y00324882D01*
X00020925Y00324869D01*
X00021012Y00324782D01*
X00021075Y00324694D01*
X00021125Y00324607D01*
X00021150Y00324519D01*
X00021175Y00324457D01*
X00021187Y00324394D01*
Y00324357D01*
Y00324344D01*
X00021175Y00324232D01*
X00021150Y00324132D01*
X00021100Y00324032D01*
X00021050Y00323957D01*
X00021000Y00323882D01*
X00020950Y00323832D01*
X00020925Y00323807D01*
X00020912Y00323794D01*
X00020800Y00323719D01*
X00020675Y00323669D01*
X00020537Y00323619D01*
X00020412Y00323594D01*
X00020300Y00323582D01*
X00020213Y00323569D01*
X00020125D01*
X00019887Y00323594D01*
X00019675Y00323644D01*
X00019500Y00323707D01*
X00019350Y00323794D01*
X00019225Y00323882D01*
X00019150Y00323944D01*
X00019088Y00323994D01*
X00019075Y00324019D01*
X00019000Y00324144D01*
X00018938Y00324269D01*
X00018888Y00324407D01*
X00018850Y00324544D01*
X00018825Y00324669D01*
X00018800Y00324769D01*
X00018788Y00324832D01*
Y00324857D01*
X00016551Y00324707D01*
X00016576Y00324494D01*
X00016613Y00324294D01*
X00016713Y00323919D01*
X00016851Y00323607D01*
X00016926Y00323457D01*
X00017001Y00323332D01*
X00017076Y00323207D01*
X00017151Y00323107D01*
X00017213Y00323019D01*
X00017276Y00322944D01*
X00017313Y00322882D01*
X00017351Y00322845D01*
X00017376Y00322820D01*
X00017388Y00322807D01*
X00017538Y00322682D01*
X00017726Y00322570D01*
X00017913Y00322470D01*
X00018125Y00322382D01*
X00018350Y00322307D01*
X00018575Y00322245D01*
X00019025Y00322157D01*
X00019238Y00322132D01*
X00019438Y00322107D01*
X00019613Y00322095D01*
X00019775Y00322082D01*
X00019900Y00322070D01*
X00016551D01*
X00023474D01*
D01*
X00020087D01*
X00020487Y00322082D01*
X00020850Y00322120D01*
X00021162Y00322170D01*
X00021300Y00322195D01*
X00021425Y00322232D01*
X00021537Y00322257D01*
X00021637Y00322282D01*
X00021725Y00322307D01*
X00021800Y00322332D01*
X00021850Y00322357D01*
X00021887Y00322370D01*
X00021912Y00322382D01*
X00021925D01*
X00022187Y00322520D01*
X00022412Y00322670D01*
X00022612Y00322820D01*
X00022774Y00322970D01*
X00022899Y00323107D01*
X00022987Y00323219D01*
X00023049Y00323294D01*
X00023062Y00323307D01*
Y00323319D01*
X00023199Y00323557D01*
X00023299Y00323794D01*
X00023374Y00324019D01*
X00023424Y00324219D01*
X00023449Y00324407D01*
X00023474Y00324544D01*
Y00324669D01*
X00023462Y00324894D01*
X00023424Y00325107D01*
X00023374Y00325294D01*
X00023324Y00325469D01*
X00023262Y00325606D01*
X00023212Y00325706D01*
X00023174Y00325769D01*
X00023162Y00325794D01*
X00023037Y00325969D01*
X00022887Y00326131D01*
X00022724Y00326281D01*
X00022562Y00326406D01*
X00022412Y00326494D01*
X00022299Y00326569D01*
X00022249Y00326594D01*
X00022212Y00326619D01*
X00022199Y00326631D01*
X00022187D01*
X00022050Y00326694D01*
X00021899Y00326756D01*
X00021737Y00326819D01*
X00021562Y00326881D01*
X00021200Y00326993D01*
X00020837Y00327106D01*
X00020662Y00327144D01*
X00020500Y00327181D01*
X00020350Y00327218D01*
X00020225Y00327256D01*
X00020125Y00327268D01*
X00020038Y00327293D01*
X00019987Y00327306D01*
X00019975D01*
X00019763Y00327356D01*
X00019588Y00327406D01*
X00019450Y00327456D01*
X00019350Y00327506D01*
X00019275Y00327543D01*
X00019225Y00327568D01*
X00019200Y00327581D01*
X00019188Y00327593D01*
X00019125Y00327643D01*
X00019088Y00327706D01*
X00019038Y00327806D01*
X00019013Y00327893D01*
Y00327906D01*
Y00327918D01*
X00019025Y00328006D01*
X00019050Y00328093D01*
X00019113Y00328231D01*
X00019150Y00328281D01*
X00019188Y00328318D01*
X00019200Y00328331D01*
X00019213Y00328343D01*
X00019300Y00328406D01*
X00019400Y00328443D01*
X00019600Y00328493D01*
X00019700Y00328506D01*
X00019775Y00328518D01*
X00019838D01*
X00020025Y00328506D01*
X00020175Y00328481D01*
X00020312Y00328443D01*
X00020425Y00328406D01*
X00020512Y00328356D01*
X00020575Y00328318D01*
X00020612Y00328293D01*
X00020625Y00328281D01*
X00020725Y00328181D01*
X00020812Y00328068D01*
X00020875Y00327943D01*
X00020925Y00327818D01*
X00020962Y00327706D01*
X00020987Y00327618D01*
X00021012Y00327556D01*
Y00327531D01*
X00023224Y00327656D01*
X00023187Y00327868D01*
X00023137Y00328068D01*
X00023087Y00328256D01*
X00023012Y00328431D01*
X00022949Y00328581D01*
X00022862Y00328718D01*
X00022787Y00328856D01*
X00022712Y00328968D01*
X00022624Y00329068D01*
X00022549Y00329143D01*
X00022487Y00329218D01*
X00022424Y00329280D01*
X00022374Y00329318D01*
X00022337Y00329355D01*
X00022312Y00329380D01*
X00022299D01*
X00022150Y00329480D01*
X00021987Y00329568D01*
X00021625Y00329693D01*
X00021262Y00329793D01*
X00020900Y00329868D01*
X00020737Y00329880D01*
X00020575Y00329905D01*
X00020437Y00329918D01*
X00020312D01*
X00020213Y00329930D01*
D02*
G37*
G36*
X00031272Y00329805D02*
X00024124D01*
Y00322195D01*
D01*
Y00327931D01*
X00026523D01*
Y00322195D01*
X00031272D01*
X00028873D01*
Y00327931D01*
X00031272D01*
Y00329805D01*
D02*
G37*
G36*
X00012914D02*
X00008728D01*
Y00322195D01*
X00016214D01*
D01*
X00015064Y00324394D01*
X00015026Y00324457D01*
X00014976Y00324532D01*
X00014864Y00324682D01*
X00014814Y00324757D01*
X00014764Y00324807D01*
X00014739Y00324844D01*
X00014726Y00324857D01*
X00014639Y00324969D01*
X00014564Y00325056D01*
X00014501Y00325119D01*
X00014451Y00325182D01*
X00014414Y00325219D01*
X00014376Y00325244D01*
X00014364Y00325269D01*
X00014352D01*
X00014276Y00325319D01*
X00014176Y00325369D01*
X00013977Y00325456D01*
X00013889Y00325494D01*
X00013814Y00325519D01*
X00013764Y00325544D01*
X00013752D01*
X00013939Y00325594D01*
X00014102Y00325644D01*
X00014239Y00325694D01*
X00014364Y00325744D01*
X00014451Y00325781D01*
X00014526Y00325819D01*
X00014564Y00325831D01*
X00014576Y00325844D01*
X00014751Y00325956D01*
X00014889Y00326081D01*
X00015026Y00326206D01*
X00015126Y00326331D01*
X00015214Y00326431D01*
X00015276Y00326519D01*
X00015314Y00326569D01*
X00015326Y00326594D01*
X00015414Y00326769D01*
X00015489Y00326956D01*
X00015539Y00327144D01*
X00015564Y00327306D01*
X00015589Y00327456D01*
X00015601Y00327581D01*
Y00327656D01*
Y00327668D01*
Y00327681D01*
X00015589Y00327943D01*
X00015551Y00328181D01*
X00015489Y00328393D01*
X00015426Y00328581D01*
X00015351Y00328718D01*
X00015301Y00328830D01*
X00015251Y00328893D01*
X00015239Y00328918D01*
X00015101Y00329093D01*
X00014951Y00329243D01*
X00014789Y00329368D01*
X00014651Y00329455D01*
X00014514Y00329530D01*
X00014414Y00329580D01*
X00014339Y00329605D01*
X00014326Y00329618D01*
X00014314D01*
X00014076Y00329680D01*
X00013814Y00329730D01*
X00013527Y00329755D01*
X00013264Y00329780D01*
X00013014Y00329793D01*
X00012914Y00329805D01*
D02*
G37*
G36*
X00016551Y00329930D02*
D01*
Y00322070D01*
D01*
Y00329930D01*
D01*
D02*
G37*
%LPD*%
G36*
X00012340Y00328256D02*
X00012527Y00328243D01*
X00012677Y00328206D01*
X00012802Y00328168D01*
X00012889Y00328131D01*
X00012952Y00328106D01*
X00012989Y00328081D01*
X00013002Y00328068D01*
X00013077Y00327981D01*
X00013139Y00327893D01*
X00013177Y00327793D01*
X00013214Y00327706D01*
X00013227Y00327618D01*
X00013239Y00327556D01*
Y00327506D01*
Y00327493D01*
Y00327406D01*
X00013214Y00327318D01*
X00013164Y00327181D01*
X00013139Y00327131D01*
X00013114Y00327094D01*
X00013102Y00327068D01*
X00013089Y00327056D01*
X00013027Y00326993D01*
X00012964Y00326944D01*
X00012839Y00326869D01*
X00012789Y00326843D01*
X00012739Y00326831D01*
X00012714Y00326819D01*
X00012702D01*
X00012539Y00326781D01*
X00012414Y00326756D01*
X00012302Y00326744D01*
X00012214Y00326731D01*
X00012152Y00326719D01*
X00011090D01*
Y00328268D01*
X00012114D01*
X00012340Y00328256D01*
D02*
G37*
G36*
X00011402Y00325269D02*
X00011515Y00325256D01*
X00011615Y00325219D01*
X00011702Y00325194D01*
X00011765Y00325157D01*
X00011827Y00325119D01*
X00011852Y00325107D01*
X00011865Y00325094D01*
X00011940Y00325032D01*
X00012015Y00324944D01*
X00012077Y00324857D01*
X00012152Y00324757D01*
X00012202Y00324657D01*
X00012252Y00324582D01*
X00012277Y00324532D01*
X00012290Y00324507D01*
X00013552Y00322195D01*
X00011090D01*
Y00325281D01*
X00011290D01*
X00011402Y00325269D01*
D02*
G37*
%LPC*%
G36*
X00112805Y00891679D02*
X00105195D01*
Y00885218D01*
X00112805D01*
Y00887580D01*
X00109981D01*
Y00888867D01*
X00109969Y00889129D01*
X00109956Y00889367D01*
X00109918Y00889592D01*
X00109881Y00889804D01*
X00109831Y00889992D01*
X00109781Y00890167D01*
X00109719Y00890317D01*
X00109656Y00890454D01*
X00109606Y00890579D01*
X00109544Y00890692D01*
X00109494Y00890779D01*
X00109444Y00890854D01*
X00109406Y00890904D01*
X00109369Y00890941D01*
X00109356Y00890966D01*
X00109344Y00890979D01*
X00109219Y00891104D01*
X00109081Y00891216D01*
X00108931Y00891304D01*
X00108781Y00891379D01*
X00108481Y00891504D01*
X00108194Y00891591D01*
X00108056Y00891616D01*
X00107931Y00891641D01*
X00107819Y00891654D01*
X00107719Y00891666D01*
X00107644Y00891679D01*
X00112805D01*
D02*
G37*
G36*
Y00883656D02*
X00105195D01*
Y00876383D01*
X00112805D01*
Y00878595D01*
X00108631D01*
X00112805Y00881444D01*
Y00883656D01*
D02*
G37*
G36*
Y00874683D02*
X00105195D01*
Y00872321D01*
X00112805D01*
Y00874683D01*
D02*
G37*
%LPD*%
G36*
X00107332Y00891666D02*
X00107132Y00891654D01*
X00106794Y00891579D01*
X00106644Y00891529D01*
X00106494Y00891479D01*
X00106369Y00891416D01*
X00106257Y00891366D01*
X00106145Y00891304D01*
X00106057Y00891241D01*
X00105982Y00891191D01*
X00105920Y00891141D01*
X00105870Y00891104D01*
X00105832Y00891066D01*
X00105820Y00891054D01*
X00105807Y00891041D01*
X00105695Y00890917D01*
X00105607Y00890779D01*
X00105520Y00890629D01*
X00105457Y00890467D01*
X00105345Y00890154D01*
X00105270Y00889842D01*
X00105245Y00889692D01*
X00105232Y00889554D01*
X00105207Y00889429D01*
Y00889329D01*
X00105195Y00889242D01*
Y00891679D01*
X00107532D01*
X00107332Y00891666D01*
D02*
G37*
G36*
X00107744Y00889379D02*
X00107857Y00889342D01*
X00107969Y00889304D01*
X00108056Y00889254D01*
X00108119Y00889192D01*
X00108181Y00889154D01*
X00108206Y00889117D01*
X00108219Y00889104D01*
X00108294Y00888979D01*
X00108344Y00888842D01*
X00108394Y00888680D01*
X00108419Y00888530D01*
X00108431Y00888380D01*
X00108444Y00888267D01*
Y00887580D01*
X00106744D01*
Y00888242D01*
X00106757Y00888467D01*
X00106782Y00888667D01*
X00106819Y00888817D01*
X00106869Y00888942D01*
X00106919Y00889029D01*
X00106957Y00889092D01*
X00106982Y00889129D01*
X00106994Y00889142D01*
X00107094Y00889229D01*
X00107194Y00889292D01*
X00107294Y00889329D01*
X00107394Y00889367D01*
X00107482Y00889379D01*
X00107544Y00889392D01*
X00107594D01*
X00107607D01*
X00107744Y00889379D01*
D02*
G37*
G36*
X00105195Y00878570D02*
Y00881444D01*
X00109406D01*
X00105195Y00878570D01*
D02*
G37*
%LPC*%
G36*
X00243810Y00155189D02*
X00240932D01*
D01*
X00240313D01*
X00240932D01*
X00238909Y00148610D01*
X00236841Y00155189D01*
X00233904D01*
X00237351Y00146062D01*
X00233904D01*
X00243810D01*
X00240408D01*
X00243810Y00155189D01*
D02*
G37*
G36*
X00225227Y00155339D02*
X00220836D01*
X00225062D01*
X00224552Y00155324D01*
X00224328Y00155309D01*
X00224118Y00155279D01*
X00223908Y00155249D01*
X00223728Y00155219D01*
X00223563Y00155189D01*
X00223398Y00155159D01*
X00223264Y00155129D01*
X00223144Y00155099D01*
X00223054Y00155069D01*
X00222964Y00155039D01*
X00222904Y00155009D01*
X00222859Y00154994D01*
X00222829Y00154979D01*
X00222814D01*
X00222529Y00154829D01*
X00222275Y00154679D01*
X00222065Y00154515D01*
X00221885Y00154350D01*
X00221750Y00154215D01*
X00221660Y00154095D01*
X00221600Y00154020D01*
X00221585Y00153990D01*
X00221450Y00153750D01*
X00221346Y00153525D01*
X00221285Y00153301D01*
X00221226Y00153106D01*
X00221196Y00152926D01*
X00221181Y00152791D01*
Y00152701D01*
Y00152686D01*
Y00152671D01*
X00221196Y00152477D01*
X00221211Y00152282D01*
X00221301Y00151937D01*
X00221435Y00151637D01*
X00221585Y00151383D01*
X00221720Y00151173D01*
X00221855Y00151023D01*
X00221900Y00150978D01*
X00221945Y00150933D01*
X00221960Y00150918D01*
X00221975Y00150903D01*
X00222140Y00150783D01*
X00222320Y00150663D01*
X00222514Y00150543D01*
X00222724Y00150438D01*
X00223159Y00150259D01*
X00223593Y00150094D01*
X00223803Y00150034D01*
X00223998Y00149974D01*
X00224178Y00149929D01*
X00224328Y00149884D01*
X00224448Y00149854D01*
X00224552Y00149824D01*
X00224612Y00149809D01*
X00224627D01*
X00224837Y00149764D01*
X00225017Y00149719D01*
X00225182Y00149659D01*
X00225332Y00149614D01*
X00225467Y00149569D01*
X00225586Y00149524D01*
X00225781Y00149449D01*
X00225916Y00149374D01*
X00226021Y00149314D01*
X00226066Y00149284D01*
X00226081Y00149270D01*
X00226186Y00149165D01*
X00226261Y00149060D01*
X00226321Y00148955D01*
X00226351Y00148850D01*
X00226381Y00148775D01*
X00226396Y00148700D01*
Y00148655D01*
Y00148640D01*
X00226381Y00148505D01*
X00226351Y00148385D01*
X00226291Y00148265D01*
X00226231Y00148175D01*
X00226171Y00148086D01*
X00226111Y00148026D01*
X00226081Y00147996D01*
X00226066Y00147981D01*
X00225931Y00147891D01*
X00225781Y00147831D01*
X00225616Y00147771D01*
X00225467Y00147741D01*
X00225332Y00147726D01*
X00225227Y00147711D01*
X00225122D01*
X00224837Y00147741D01*
X00224582Y00147801D01*
X00224373Y00147876D01*
X00224193Y00147981D01*
X00224043Y00148086D01*
X00223953Y00148160D01*
X00223878Y00148221D01*
X00223863Y00148251D01*
X00223773Y00148400D01*
X00223698Y00148550D01*
X00223638Y00148715D01*
X00223593Y00148880D01*
X00223563Y00149030D01*
X00223533Y00149150D01*
X00223518Y00149225D01*
Y00149255D01*
X00220836Y00149075D01*
X00220866Y00148820D01*
X00220911Y00148580D01*
X00221031Y00148131D01*
X00221196Y00147756D01*
X00221285Y00147576D01*
X00221375Y00147426D01*
X00221465Y00147276D01*
X00221555Y00147156D01*
X00221630Y00147052D01*
X00221705Y00146962D01*
X00221750Y00146887D01*
X00221795Y00146842D01*
X00221825Y00146812D01*
X00221840Y00146797D01*
X00222020Y00146647D01*
X00222245Y00146512D01*
X00222469Y00146392D01*
X00222724Y00146287D01*
X00222994Y00146197D01*
X00223264Y00146122D01*
X00223803Y00146018D01*
X00224058Y00145988D01*
X00224298Y00145958D01*
X00224508Y00145943D01*
X00224702Y00145928D01*
X00224852Y00145913D01*
X00229138D01*
X00225077D01*
X00225557Y00145928D01*
X00225991Y00145973D01*
X00226366Y00146032D01*
X00226531Y00146062D01*
X00226681Y00146108D01*
X00226815Y00146137D01*
X00226935Y00146167D01*
X00227040Y00146197D01*
X00227130Y00146227D01*
X00227190Y00146257D01*
X00227235Y00146272D01*
X00227265Y00146287D01*
X00227280D01*
X00227595Y00146452D01*
X00227864Y00146632D01*
X00228104Y00146812D01*
X00228299Y00146992D01*
X00228449Y00147156D01*
X00228554Y00147291D01*
X00228629Y00147381D01*
X00228644Y00147396D01*
Y00147411D01*
X00228808Y00147696D01*
X00228928Y00147981D01*
X00229018Y00148251D01*
X00229078Y00148490D01*
X00229108Y00148715D01*
X00229138Y00148880D01*
Y00149030D01*
X00229123Y00149299D01*
X00229078Y00149554D01*
X00229018Y00149779D01*
X00228958Y00149989D01*
X00228883Y00150154D01*
X00228824Y00150274D01*
X00228778Y00150349D01*
X00228764Y00150379D01*
X00228614Y00150588D01*
X00228434Y00150783D01*
X00228239Y00150963D01*
X00228044Y00151113D01*
X00227864Y00151218D01*
X00227729Y00151308D01*
X00227670Y00151338D01*
X00227625Y00151368D01*
X00227610Y00151383D01*
X00227595D01*
X00227430Y00151458D01*
X00227250Y00151532D01*
X00227055Y00151607D01*
X00226845Y00151682D01*
X00226411Y00151817D01*
X00225976Y00151952D01*
X00225766Y00151997D01*
X00225571Y00152042D01*
X00225392Y00152087D01*
X00225242Y00152132D01*
X00225122Y00152147D01*
X00225017Y00152177D01*
X00224957Y00152192D01*
X00224942D01*
X00224687Y00152252D01*
X00224478Y00152312D01*
X00224313Y00152372D01*
X00224193Y00152431D01*
X00224103Y00152477D01*
X00224043Y00152507D01*
X00224013Y00152521D01*
X00223998Y00152536D01*
X00223923Y00152596D01*
X00223878Y00152671D01*
X00223818Y00152791D01*
X00223788Y00152896D01*
Y00152911D01*
Y00152926D01*
X00223803Y00153031D01*
X00223833Y00153136D01*
X00223908Y00153301D01*
X00223953Y00153361D01*
X00223998Y00153406D01*
X00224013Y00153421D01*
X00224028Y00153436D01*
X00224133Y00153511D01*
X00224253Y00153555D01*
X00224492Y00153615D01*
X00224612Y00153630D01*
X00224702Y00153645D01*
X00224777D01*
X00225002Y00153630D01*
X00225182Y00153601D01*
X00225347Y00153555D01*
X00225482Y00153511D01*
X00225586Y00153451D01*
X00225661Y00153406D01*
X00225706Y00153376D01*
X00225721Y00153361D01*
X00225841Y00153241D01*
X00225946Y00153106D01*
X00226021Y00152956D01*
X00226081Y00152806D01*
X00226126Y00152671D01*
X00226156Y00152566D01*
X00226186Y00152492D01*
Y00152462D01*
X00228839Y00152611D01*
X00228794Y00152866D01*
X00228734Y00153106D01*
X00228674Y00153331D01*
X00228584Y00153540D01*
X00228509Y00153720D01*
X00228404Y00153885D01*
X00228314Y00154050D01*
X00228224Y00154185D01*
X00228119Y00154305D01*
X00228029Y00154395D01*
X00227954Y00154485D01*
X00227879Y00154560D01*
X00227819Y00154605D01*
X00227774Y00154649D01*
X00227745Y00154679D01*
X00227729D01*
X00227550Y00154799D01*
X00227355Y00154904D01*
X00226920Y00155054D01*
X00226486Y00155174D01*
X00226051Y00155264D01*
X00225856Y00155279D01*
X00225661Y00155309D01*
X00225497Y00155324D01*
X00225347D01*
X00225227Y00155339D01*
D02*
G37*
G36*
X00206015Y00155189D02*
X00203197D01*
Y00149614D01*
X00203182Y00149344D01*
X00203137Y00149120D01*
X00203062Y00148910D01*
X00202988Y00148745D01*
X00202913Y00148625D01*
X00202838Y00148520D01*
X00202793Y00148460D01*
X00202778Y00148445D01*
X00202613Y00148310D01*
X00202418Y00148205D01*
X00202238Y00148146D01*
X00202059Y00148086D01*
X00201894Y00148056D01*
X00201759Y00148041D01*
X00201639D01*
X00201384Y00148056D01*
X00201144Y00148101D01*
X00200949Y00148175D01*
X00200785Y00148251D01*
X00200650Y00148325D01*
X00200560Y00148400D01*
X00200500Y00148445D01*
X00200485Y00148460D01*
X00200350Y00148625D01*
X00200245Y00148820D01*
X00200185Y00149015D01*
X00200125Y00149195D01*
X00200095Y00149359D01*
X00200080Y00149494D01*
Y00149584D01*
Y00149599D01*
Y00149614D01*
Y00155189D01*
X00201639D01*
X00197263D01*
Y00145913D01*
Y00149749D01*
X00197278Y00149494D01*
X00197308Y00149225D01*
X00197338Y00148970D01*
X00197398Y00148730D01*
X00197443Y00148520D01*
X00197473Y00148355D01*
X00197488Y00148295D01*
X00197503Y00148251D01*
X00197518Y00148221D01*
Y00148205D01*
X00197593Y00148011D01*
X00197683Y00147816D01*
X00197787Y00147636D01*
X00197877Y00147486D01*
X00197967Y00147351D01*
X00198042Y00147246D01*
X00198102Y00147186D01*
X00198117Y00147156D01*
X00198282Y00146977D01*
X00198447Y00146812D01*
X00198612Y00146677D01*
X00198762Y00146572D01*
X00198881Y00146482D01*
X00198986Y00146422D01*
X00199046Y00146377D01*
X00199076Y00146362D01*
X00199286Y00146272D01*
X00199511Y00146197D01*
X00199736Y00146137D01*
X00199945Y00146077D01*
X00200125Y00146047D01*
X00200260Y00146018D01*
X00200320D01*
X00200365Y00146003D01*
X00200395D01*
X00200680Y00145973D01*
X00200965Y00145958D01*
X00201204Y00145928D01*
X00201429D01*
X00201609Y00145913D01*
X00201864D01*
X00202283Y00145928D01*
X00202658Y00145958D01*
X00202988Y00146003D01*
X00203272Y00146062D01*
X00203512Y00146122D01*
X00203602Y00146137D01*
X00203677Y00146167D01*
X00203752Y00146182D01*
X00203797Y00146197D01*
X00203812Y00146212D01*
X00203827D01*
X00204052Y00146302D01*
X00204261Y00146422D01*
X00204456Y00146542D01*
X00204621Y00146662D01*
X00204771Y00146782D01*
X00204876Y00146872D01*
X00204936Y00146932D01*
X00204966Y00146962D01*
X00205161Y00147171D01*
X00205325Y00147381D01*
X00205460Y00147591D01*
X00205565Y00147801D01*
X00205655Y00147966D01*
X00205715Y00148101D01*
X00205745Y00148190D01*
X00205760Y00148205D01*
Y00148221D01*
X00205850Y00148490D01*
X00205910Y00148760D01*
X00205955Y00149015D01*
X00205985Y00149255D01*
X00206000Y00149449D01*
X00206015Y00149614D01*
Y00155189D01*
D02*
G37*
G36*
X00251737Y00155339D02*
X00247991D01*
X00247541Y00155324D01*
X00247136Y00155294D01*
X00246792Y00155234D01*
X00246627Y00155204D01*
X00246492Y00155174D01*
X00246372Y00155144D01*
X00246267Y00155114D01*
X00246177Y00155084D01*
X00246102Y00155054D01*
X00246042Y00155039D01*
X00245997Y00155024D01*
X00245982Y00155009D01*
X00245968D01*
X00245713Y00154874D01*
X00245488Y00154739D01*
X00245293Y00154590D01*
X00245143Y00154440D01*
X00245008Y00154305D01*
X00244918Y00154200D01*
X00244858Y00154125D01*
X00244844Y00154095D01*
X00244709Y00153855D01*
X00244589Y00153586D01*
X00244499Y00153301D01*
X00244424Y00153031D01*
X00244364Y00152791D01*
X00244349Y00152686D01*
X00244334Y00152596D01*
X00244319Y00152521D01*
X00244304Y00152462D01*
Y00152431D01*
Y00152417D01*
X00246852Y00152222D01*
X00246897Y00152492D01*
X00246957Y00152716D01*
X00247031Y00152896D01*
X00247091Y00153046D01*
X00247151Y00153151D01*
X00247211Y00153226D01*
X00247241Y00153271D01*
X00247256Y00153286D01*
X00247376Y00153391D01*
X00247511Y00153466D01*
X00247646Y00153525D01*
X00247766Y00153555D01*
X00247886Y00153586D01*
X00247976Y00153601D01*
X00248050D01*
X00248215Y00153586D01*
X00248365Y00153555D01*
X00248500Y00153511D01*
X00248620Y00153451D01*
X00248710Y00153391D01*
X00248770Y00153346D01*
X00248815Y00153316D01*
X00248830Y00153301D01*
X00248935Y00153181D01*
X00249010Y00153061D01*
X00249070Y00152941D01*
X00249100Y00152836D01*
X00249130Y00152731D01*
X00249144Y00152656D01*
Y00152596D01*
Y00152581D01*
X00249130Y00152446D01*
X00249100Y00152297D01*
X00249040Y00152162D01*
X00248995Y00152042D01*
X00248935Y00151937D01*
X00248875Y00151847D01*
X00248845Y00151787D01*
X00248830Y00151772D01*
X00248770Y00151682D01*
X00248680Y00151592D01*
X00248470Y00151397D01*
X00248245Y00151188D01*
X00248006Y00150978D01*
X00247781Y00150798D01*
X00247586Y00150648D01*
X00247511Y00150588D01*
X00247451Y00150543D01*
X00247421Y00150528D01*
X00247406Y00150513D01*
X00247076Y00150259D01*
X00246777Y00150019D01*
X00246492Y00149794D01*
X00246237Y00149584D01*
X00246012Y00149374D01*
X00245818Y00149180D01*
X00245623Y00149000D01*
X00245473Y00148835D01*
X00245338Y00148685D01*
X00245218Y00148565D01*
X00245113Y00148445D01*
X00245038Y00148355D01*
X00244978Y00148280D01*
X00244933Y00148221D01*
X00244918Y00148190D01*
X00244903Y00148175D01*
X00244679Y00147801D01*
X00244499Y00147426D01*
X00244364Y00147067D01*
X00244274Y00146752D01*
X00244229Y00146602D01*
X00244199Y00146467D01*
X00244169Y00146347D01*
X00244154Y00146257D01*
X00244139Y00146167D01*
X00244124Y00146108D01*
Y00146062D01*
X00251737D01*
Y00148131D01*
X00247766D01*
X00248006Y00148355D01*
X00248111Y00148445D01*
X00248200Y00148520D01*
X00248260Y00148580D01*
X00248320Y00148640D01*
X00248350Y00148655D01*
X00248365Y00148670D01*
X00248485Y00148760D01*
X00248635Y00148880D01*
X00248815Y00149000D01*
X00248980Y00149135D01*
X00249144Y00149240D01*
X00249279Y00149329D01*
X00249369Y00149389D01*
X00249384Y00149419D01*
X00249399D01*
X00249639Y00149584D01*
X00249849Y00149749D01*
X00250044Y00149914D01*
X00250224Y00150064D01*
X00250388Y00150199D01*
X00250523Y00150349D01*
X00250658Y00150468D01*
X00250778Y00150588D01*
X00250868Y00150693D01*
X00250958Y00150798D01*
X00251093Y00150948D01*
X00251123Y00151008D01*
X00251153Y00151053D01*
X00251183Y00151068D01*
Y00151083D01*
X00251347Y00151368D01*
X00251467Y00151652D01*
X00251557Y00151922D01*
X00251617Y00152162D01*
X00251647Y00152372D01*
X00251677Y00152536D01*
Y00152596D01*
Y00152641D01*
Y00152656D01*
Y00152671D01*
X00251662Y00152956D01*
X00251617Y00153226D01*
X00251542Y00153466D01*
X00251467Y00153675D01*
X00251377Y00153855D01*
X00251318Y00153990D01*
X00251257Y00154065D01*
X00251243Y00154095D01*
X00251063Y00154320D01*
X00250868Y00154500D01*
X00250673Y00154664D01*
X00250493Y00154799D01*
X00250313Y00154889D01*
X00250179Y00154964D01*
X00250089Y00155009D01*
X00250074Y00155024D01*
X00250059D01*
X00249759Y00155129D01*
X00249429Y00155204D01*
X00249084Y00155264D01*
X00248755Y00155294D01*
X00248455Y00155324D01*
X00248320D01*
X00248215Y00155339D01*
X00251737D01*
D02*
G37*
G36*
X00219547Y00155189D02*
X00217015D01*
Y00146062D01*
X00219547D01*
Y00153076D01*
Y00152671D01*
X00217015D01*
Y00153466D01*
X00219547D01*
Y00155189D01*
D02*
G37*
G36*
X00212698D02*
X00207873D01*
Y00146062D01*
X00210705D01*
Y00149449D01*
X00212249D01*
X00212564Y00149464D01*
X00212848Y00149479D01*
X00213118Y00149524D01*
X00213373Y00149569D01*
X00213598Y00149629D01*
X00213808Y00149689D01*
X00213987Y00149764D01*
X00214152Y00149839D01*
X00214302Y00149899D01*
X00214437Y00149974D01*
X00214542Y00150034D01*
X00214632Y00150094D01*
X00214692Y00150139D01*
X00214737Y00150184D01*
X00214767Y00150199D01*
X00214782Y00150214D01*
X00214931Y00150364D01*
X00215066Y00150528D01*
X00215171Y00150708D01*
X00215261Y00150888D01*
X00215411Y00151248D01*
X00215516Y00151592D01*
X00215546Y00151757D01*
X00215576Y00151907D01*
X00215591Y00152042D01*
X00215606Y00152162D01*
X00215621Y00152252D01*
Y00152387D01*
X00215606Y00152626D01*
X00215591Y00152866D01*
X00215501Y00153271D01*
X00215441Y00153451D01*
X00215381Y00153630D01*
X00215306Y00153780D01*
X00215246Y00153915D01*
X00215171Y00154050D01*
X00215096Y00154155D01*
X00215036Y00154245D01*
X00214976Y00154320D01*
X00214931Y00154380D01*
X00214886Y00154425D01*
X00214872Y00154440D01*
X00214856Y00154455D01*
X00214707Y00154590D01*
X00214542Y00154694D01*
X00214362Y00154799D01*
X00214167Y00154874D01*
X00213792Y00155009D01*
X00213418Y00155099D01*
X00213238Y00155129D01*
X00213073Y00155144D01*
X00212923Y00155174D01*
X00212803D01*
X00212698Y00155189D01*
D02*
G37*
G36*
X00230914Y00144087D02*
D01*
Y00137808D01*
X00230899Y00138048D01*
X00230884Y00138288D01*
X00230839Y00138512D01*
X00230779Y00138722D01*
X00230644Y00139097D01*
X00230569Y00139262D01*
X00230494Y00139412D01*
X00230404Y00139547D01*
X00230330Y00139667D01*
X00230255Y00139771D01*
X00230195Y00139861D01*
X00230135Y00139921D01*
X00230090Y00139966D01*
X00230075Y00139996D01*
X00230060Y00140011D01*
X00229895Y00140161D01*
X00229730Y00140311D01*
X00229565Y00140416D01*
X00229385Y00140521D01*
X00229206Y00140611D01*
X00229041Y00140686D01*
X00228726Y00140790D01*
X00228441Y00140850D01*
X00228321Y00140865D01*
X00228216Y00140880D01*
X00228127Y00140895D01*
X00228007D01*
X00227782Y00140880D01*
X00227572Y00140865D01*
X00227377Y00140820D01*
X00227213Y00140790D01*
X00227078Y00140745D01*
X00226988Y00140701D01*
X00226913Y00140686D01*
X00226898Y00140670D01*
X00226718Y00140581D01*
X00226553Y00140476D01*
X00226388Y00140356D01*
X00226253Y00140236D01*
X00226133Y00140146D01*
X00226044Y00140056D01*
X00225984Y00139996D01*
X00225969Y00139981D01*
X00225984Y00140251D01*
X00226014Y00140491D01*
X00226044Y00140701D01*
X00226073Y00140895D01*
X00226103Y00141075D01*
X00226133Y00141240D01*
X00226164Y00141375D01*
X00226193Y00141495D01*
X00226223Y00141600D01*
X00226238Y00141675D01*
X00226268Y00141749D01*
X00226283Y00141810D01*
X00226313Y00141884D01*
X00226328Y00141899D01*
X00226463Y00142109D01*
X00226628Y00142259D01*
X00226778Y00142379D01*
X00226943Y00142454D01*
X00227078Y00142499D01*
X00227183Y00142514D01*
X00227257Y00142529D01*
X00227287D01*
X00227407Y00142514D01*
X00227527Y00142499D01*
X00227617Y00142454D01*
X00227707Y00142424D01*
X00227767Y00142379D01*
X00227812Y00142334D01*
X00227842Y00142319D01*
X00227857Y00142304D01*
X00227947Y00142214D01*
X00228007Y00142094D01*
X00228127Y00141854D01*
X00228157Y00141749D01*
X00228187Y00141660D01*
X00228202Y00141600D01*
Y00141570D01*
X00230719Y00141869D01*
X00230629Y00142139D01*
X00230524Y00142364D01*
X00230420Y00142574D01*
X00230315Y00142754D01*
X00230225Y00142888D01*
X00230150Y00142993D01*
X00230090Y00143068D01*
X00230075Y00143083D01*
X00229910Y00143263D01*
X00229730Y00143413D01*
X00229565Y00143533D01*
X00229400Y00143638D01*
X00229251Y00143728D01*
X00229131Y00143788D01*
X00229056Y00143818D01*
X00229026Y00143833D01*
X00228771Y00143923D01*
X00228486Y00143982D01*
X00228202Y00144027D01*
X00227932Y00144057D01*
X00227677Y00144072D01*
X00227572Y00144087D01*
X00227302D01*
X00226973Y00144072D01*
X00226643Y00144042D01*
X00226358Y00143982D01*
X00226073Y00143907D01*
X00225819Y00143818D01*
X00225579Y00143728D01*
X00225369Y00143623D01*
X00225174Y00143518D01*
X00224995Y00143398D01*
X00224845Y00143293D01*
X00224725Y00143203D01*
X00224620Y00143113D01*
X00224530Y00143038D01*
X00224470Y00142978D01*
X00224440Y00142948D01*
X00224425Y00142933D01*
X00224245Y00142709D01*
X00224080Y00142454D01*
X00223946Y00142169D01*
X00223826Y00141884D01*
X00223721Y00141585D01*
X00223646Y00141285D01*
X00223571Y00140985D01*
X00223526Y00140701D01*
X00223481Y00140416D01*
X00223451Y00140161D01*
X00223421Y00139921D01*
X00223406Y00139726D01*
X00223391Y00139562D01*
Y00139007D01*
X00223406Y00138722D01*
X00223436Y00138438D01*
X00223466Y00138183D01*
X00223511Y00137943D01*
X00223541Y00137718D01*
X00223586Y00137508D01*
X00223646Y00137329D01*
X00223691Y00137164D01*
X00223736Y00137029D01*
X00223766Y00136894D01*
X00223811Y00136789D01*
X00223841Y00136714D01*
X00223871Y00136654D01*
X00223886Y00136624D01*
Y00136609D01*
X00224080Y00136250D01*
X00224305Y00135950D01*
X00224515Y00135695D01*
X00224725Y00135485D01*
X00224920Y00135321D01*
X00225070Y00135216D01*
X00225129Y00135171D01*
X00225174Y00135141D01*
X00225189Y00135126D01*
X00225204D01*
X00225534Y00134976D01*
X00225894Y00134856D01*
X00226268Y00134781D01*
X00226613Y00134721D01*
X00226778Y00134706D01*
X00226928Y00134691D01*
X00227063Y00134676D01*
X00227183D01*
X00227272Y00134661D01*
X00223391D01*
X00230914D01*
Y00144087D01*
D02*
G37*
G36*
X00242888D02*
D01*
Y00139442D01*
X00242873Y00139846D01*
X00242843Y00140236D01*
X00242798Y00140596D01*
X00242753Y00140910D01*
X00242723Y00141045D01*
X00242708Y00141180D01*
X00242678Y00141285D01*
X00242663Y00141375D01*
X00242648Y00141450D01*
X00242633Y00141510D01*
X00242618Y00141540D01*
Y00141555D01*
X00242573Y00141749D01*
X00242513Y00141929D01*
X00242453Y00142094D01*
X00242408Y00142229D01*
X00242348Y00142349D01*
X00242318Y00142424D01*
X00242288Y00142484D01*
X00242273Y00142499D01*
X00242183Y00142649D01*
X00242094Y00142784D01*
X00242004Y00142918D01*
X00241899Y00143038D01*
X00241824Y00143128D01*
X00241749Y00143203D01*
X00241704Y00143248D01*
X00241689Y00143263D01*
X00241539Y00143398D01*
X00241374Y00143503D01*
X00241209Y00143608D01*
X00241059Y00143698D01*
X00240925Y00143758D01*
X00240820Y00143803D01*
X00240745Y00143833D01*
X00240715Y00143848D01*
X00240490Y00143923D01*
X00240235Y00143982D01*
X00239981Y00144027D01*
X00239741Y00144057D01*
X00239531Y00144072D01*
X00239366Y00144087D01*
X00242888D01*
X00239216D01*
X00238872Y00144072D01*
X00238542Y00144042D01*
X00238242Y00143997D01*
X00237957Y00143923D01*
X00237703Y00143848D01*
X00237463Y00143758D01*
X00237253Y00143668D01*
X00237073Y00143563D01*
X00236893Y00143473D01*
X00236759Y00143368D01*
X00236639Y00143278D01*
X00236534Y00143203D01*
X00236459Y00143128D01*
X00236399Y00143083D01*
X00236369Y00143053D01*
X00236354Y00143038D01*
X00236189Y00142829D01*
X00236054Y00142589D01*
X00235919Y00142319D01*
X00235814Y00142034D01*
X00235725Y00141735D01*
X00235650Y00141435D01*
X00235545Y00140835D01*
X00235500Y00140551D01*
X00235470Y00140281D01*
X00235455Y00140026D01*
X00235440Y00139816D01*
X00235425Y00139651D01*
Y00139397D01*
X00235440Y00139007D01*
X00235455Y00138647D01*
X00235485Y00138318D01*
X00235515Y00138033D01*
X00235545Y00137793D01*
X00235560Y00137703D01*
X00235575Y00137613D01*
X00235590Y00137553D01*
X00235605Y00137508D01*
Y00137479D01*
Y00137464D01*
X00235680Y00137149D01*
X00235755Y00136879D01*
X00235844Y00136654D01*
X00235934Y00136460D01*
X00235994Y00136310D01*
X00236054Y00136190D01*
X00236099Y00136130D01*
X00236114Y00136100D01*
X00236294Y00135845D01*
X00236489Y00135635D01*
X00236684Y00135440D01*
X00236863Y00135291D01*
X00237028Y00135171D01*
X00237148Y00135096D01*
X00237238Y00135036D01*
X00237253Y00135021D01*
X00237268D01*
X00237553Y00134901D01*
X00237868Y00134811D01*
X00238182Y00134751D01*
X00238482Y00134706D01*
X00238737Y00134676D01*
X00238857D01*
X00238946Y00134661D01*
X00235425D01*
X00242888D01*
Y00144087D01*
D02*
G37*
G36*
X00213815D02*
D01*
Y00139442D01*
X00213800Y00139846D01*
X00213770Y00140236D01*
X00213725Y00140596D01*
X00213680Y00140910D01*
X00213650Y00141045D01*
X00213635Y00141180D01*
X00213605Y00141285D01*
X00213590Y00141375D01*
X00213575Y00141450D01*
X00213560Y00141510D01*
X00213545Y00141540D01*
Y00141555D01*
X00213500Y00141749D01*
X00213440Y00141929D01*
X00213380Y00142094D01*
X00213335Y00142229D01*
X00213276Y00142349D01*
X00213246Y00142424D01*
X00213216Y00142484D01*
X00213201Y00142499D01*
X00213111Y00142649D01*
X00213021Y00142784D01*
X00212931Y00142918D01*
X00212826Y00143038D01*
X00212751Y00143128D01*
X00212676Y00143203D01*
X00212631Y00143248D01*
X00212616Y00143263D01*
X00212466Y00143398D01*
X00212301Y00143503D01*
X00212137Y00143608D01*
X00211987Y00143698D01*
X00211852Y00143758D01*
X00211747Y00143803D01*
X00211672Y00143833D01*
X00211642Y00143848D01*
X00211417Y00143923D01*
X00211162Y00143982D01*
X00210908Y00144027D01*
X00210668Y00144057D01*
X00210458Y00144072D01*
X00210293Y00144087D01*
X00213815D01*
X00210143D01*
X00209799Y00144072D01*
X00209469Y00144042D01*
X00209169Y00143997D01*
X00208885Y00143923D01*
X00208630Y00143848D01*
X00208390Y00143758D01*
X00208180Y00143668D01*
X00208000Y00143563D01*
X00207821Y00143473D01*
X00207686Y00143368D01*
X00207566Y00143278D01*
X00207461Y00143203D01*
X00207386Y00143128D01*
X00207326Y00143083D01*
X00207296Y00143053D01*
X00207281Y00143038D01*
X00207116Y00142829D01*
X00206981Y00142589D01*
X00206847Y00142319D01*
X00206742Y00142034D01*
X00206652Y00141735D01*
X00206577Y00141435D01*
X00206472Y00140835D01*
X00206427Y00140551D01*
X00206397Y00140281D01*
X00206382Y00140026D01*
X00206367Y00139816D01*
X00206352Y00139651D01*
Y00139397D01*
X00206367Y00139007D01*
X00206382Y00138647D01*
X00206412Y00138318D01*
X00206442Y00138033D01*
X00206472Y00137793D01*
X00206487Y00137703D01*
X00206502Y00137613D01*
X00206517Y00137553D01*
X00206532Y00137508D01*
Y00137479D01*
Y00137464D01*
X00206607Y00137149D01*
X00206682Y00136879D01*
X00206772Y00136654D01*
X00206861Y00136460D01*
X00206921Y00136310D01*
X00206981Y00136190D01*
X00207026Y00136130D01*
X00207041Y00136100D01*
X00207221Y00135845D01*
X00207416Y00135635D01*
X00207611Y00135440D01*
X00207791Y00135291D01*
X00207955Y00135171D01*
X00208075Y00135096D01*
X00208165Y00135036D01*
X00208180Y00135021D01*
X00208195D01*
X00208480Y00134901D01*
X00208795Y00134811D01*
X00209109Y00134751D01*
X00209409Y00134706D01*
X00209664Y00134676D01*
X00209784D01*
X00209874Y00134661D01*
X00206352D01*
X00213815D01*
Y00144087D01*
D02*
G37*
G36*
X00251355D02*
D01*
Y00136879D01*
X00247384D01*
X00247623Y00137104D01*
X00247728Y00137194D01*
X00247818Y00137269D01*
X00247878Y00137329D01*
X00247938Y00137389D01*
X00247968Y00137404D01*
X00247983Y00137419D01*
X00248103Y00137508D01*
X00248253Y00137628D01*
X00248433Y00137748D01*
X00248598Y00137883D01*
X00248762Y00137988D01*
X00248897Y00138078D01*
X00248987Y00138138D01*
X00249002Y00138168D01*
X00249017D01*
X00249257Y00138333D01*
X00249467Y00138498D01*
X00249662Y00138662D01*
X00249841Y00138812D01*
X00250006Y00138947D01*
X00250141Y00139097D01*
X00250276Y00139217D01*
X00250396Y00139337D01*
X00250486Y00139442D01*
X00250576Y00139547D01*
X00250711Y00139696D01*
X00250741Y00139756D01*
X00250770Y00139801D01*
X00250800Y00139816D01*
Y00139831D01*
X00250965Y00140116D01*
X00251085Y00140401D01*
X00251175Y00140670D01*
X00251235Y00140910D01*
X00251265Y00141120D01*
X00251295Y00141285D01*
Y00141345D01*
Y00141390D01*
Y00141405D01*
Y00141420D01*
X00251280Y00141705D01*
X00251235Y00141974D01*
X00251160Y00142214D01*
X00251085Y00142424D01*
X00250995Y00142604D01*
X00250935Y00142739D01*
X00250875Y00142814D01*
X00250860Y00142844D01*
X00250681Y00143068D01*
X00250486Y00143248D01*
X00250291Y00143413D01*
X00250111Y00143548D01*
X00249931Y00143638D01*
X00249796Y00143713D01*
X00249706Y00143758D01*
X00249692Y00143773D01*
X00249676D01*
X00249377Y00143877D01*
X00249047Y00143953D01*
X00248702Y00144012D01*
X00248373Y00144042D01*
X00248073Y00144072D01*
X00247938D01*
X00247833Y00144087D01*
X00251355D01*
X00243742D01*
X00247608D01*
X00247159Y00144072D01*
X00246754Y00144042D01*
X00246409Y00143982D01*
X00246245Y00143953D01*
X00246110Y00143923D01*
X00245990Y00143892D01*
X00245885Y00143863D01*
X00245795Y00143833D01*
X00245720Y00143803D01*
X00245660Y00143788D01*
X00245615Y00143773D01*
X00245600Y00143758D01*
X00245585D01*
X00245331Y00143623D01*
X00245106Y00143488D01*
X00244911Y00143338D01*
X00244761Y00143188D01*
X00244626Y00143053D01*
X00244536Y00142948D01*
X00244476Y00142873D01*
X00244461Y00142844D01*
X00244326Y00142604D01*
X00244207Y00142334D01*
X00244117Y00142049D01*
X00244042Y00141779D01*
X00243982Y00141540D01*
X00243967Y00141435D01*
X00243952Y00141345D01*
X00243937Y00141270D01*
X00243922Y00141210D01*
Y00141180D01*
Y00141165D01*
X00246469Y00140970D01*
X00246514Y00141240D01*
X00246574Y00141465D01*
X00246649Y00141645D01*
X00246709Y00141795D01*
X00246769Y00141899D01*
X00246829Y00141974D01*
X00246859Y00142019D01*
X00246874Y00142034D01*
X00246994Y00142139D01*
X00247129Y00142214D01*
X00247264Y00142274D01*
X00247384Y00142304D01*
X00247504Y00142334D01*
X00247593Y00142349D01*
X00247668D01*
X00247833Y00142334D01*
X00247983Y00142304D01*
X00248118Y00142259D01*
X00248238Y00142199D01*
X00248328Y00142139D01*
X00248388Y00142094D01*
X00248433Y00142064D01*
X00248448Y00142049D01*
X00248552Y00141929D01*
X00248627Y00141810D01*
X00248687Y00141690D01*
X00248717Y00141585D01*
X00248747Y00141480D01*
X00248762Y00141405D01*
Y00141345D01*
Y00141330D01*
X00248747Y00141195D01*
X00248717Y00141045D01*
X00248657Y00140910D01*
X00248612Y00140790D01*
X00248552Y00140686D01*
X00248493Y00140596D01*
X00248463Y00140536D01*
X00248448Y00140521D01*
X00248388Y00140431D01*
X00248298Y00140341D01*
X00248088Y00140146D01*
X00247863Y00139936D01*
X00247623Y00139726D01*
X00247399Y00139547D01*
X00247204Y00139397D01*
X00247129Y00139337D01*
X00247069Y00139292D01*
X00247039Y00139277D01*
X00247024Y00139262D01*
X00246694Y00139007D01*
X00246395Y00138767D01*
X00246110Y00138542D01*
X00245855Y00138333D01*
X00245630Y00138123D01*
X00245436Y00137928D01*
X00245241Y00137748D01*
X00245091Y00137583D01*
X00244956Y00137434D01*
X00244836Y00137314D01*
X00244731Y00137194D01*
X00244656Y00137104D01*
X00244596Y00137029D01*
X00244551Y00136969D01*
X00244536Y00136939D01*
X00244521Y00136924D01*
X00244296Y00136549D01*
X00244117Y00136175D01*
X00243982Y00135815D01*
X00243892Y00135500D01*
X00243847Y00135351D01*
X00243817Y00135216D01*
X00243787Y00135096D01*
X00243772Y00135006D01*
X00243757Y00134916D01*
X00243742Y00134856D01*
Y00134811D01*
X00251355D01*
Y00144087D01*
D02*
G37*
G36*
X00222282D02*
D01*
Y00136879D01*
X00218311D01*
X00218551Y00137104D01*
X00218655Y00137194D01*
X00218745Y00137269D01*
X00218805Y00137329D01*
X00218865Y00137389D01*
X00218895Y00137404D01*
X00218910Y00137419D01*
X00219030Y00137508D01*
X00219180Y00137628D01*
X00219360Y00137748D01*
X00219525Y00137883D01*
X00219690Y00137988D01*
X00219824Y00138078D01*
X00219914Y00138138D01*
X00219929Y00138168D01*
X00219944D01*
X00220184Y00138333D01*
X00220394Y00138498D01*
X00220589Y00138662D01*
X00220769Y00138812D01*
X00220933Y00138947D01*
X00221068Y00139097D01*
X00221203Y00139217D01*
X00221323Y00139337D01*
X00221413Y00139442D01*
X00221503Y00139547D01*
X00221638Y00139696D01*
X00221668Y00139756D01*
X00221698Y00139801D01*
X00221728Y00139816D01*
Y00139831D01*
X00221892Y00140116D01*
X00222012Y00140401D01*
X00222102Y00140670D01*
X00222162Y00140910D01*
X00222192Y00141120D01*
X00222222Y00141285D01*
Y00141345D01*
Y00141390D01*
Y00141405D01*
Y00141420D01*
X00222207Y00141705D01*
X00222162Y00141974D01*
X00222087Y00142214D01*
X00222012Y00142424D01*
X00221922Y00142604D01*
X00221863Y00142739D01*
X00221803Y00142814D01*
X00221787Y00142844D01*
X00221608Y00143068D01*
X00221413Y00143248D01*
X00221218Y00143413D01*
X00221038Y00143548D01*
X00220858Y00143638D01*
X00220723Y00143713D01*
X00220634Y00143758D01*
X00220619Y00143773D01*
X00220604D01*
X00220304Y00143877D01*
X00219974Y00143953D01*
X00219630Y00144012D01*
X00219300Y00144042D01*
X00219000Y00144072D01*
X00218865D01*
X00218760Y00144087D01*
X00222282D01*
X00218536D01*
X00218086Y00144072D01*
X00217681Y00144042D01*
X00217337Y00143982D01*
X00217172Y00143953D01*
X00217037Y00143923D01*
X00216917Y00143892D01*
X00216812Y00143863D01*
X00216722Y00143833D01*
X00216647Y00143803D01*
X00216587Y00143788D01*
X00216542Y00143773D01*
X00216528Y00143758D01*
X00216513D01*
X00216258Y00143623D01*
X00216033Y00143488D01*
X00215838Y00143338D01*
X00215688Y00143188D01*
X00215553Y00143053D01*
X00215464Y00142948D01*
X00215403Y00142873D01*
X00215389Y00142844D01*
X00215254Y00142604D01*
X00215134Y00142334D01*
X00215044Y00142049D01*
X00214969Y00141779D01*
X00214909Y00141540D01*
X00214894Y00141435D01*
X00214879Y00141345D01*
X00214864Y00141270D01*
X00214849Y00141210D01*
Y00141180D01*
Y00141165D01*
X00217397Y00140970D01*
X00217442Y00141240D01*
X00217502Y00141465D01*
X00217577Y00141645D01*
X00217636Y00141795D01*
X00217696Y00141899D01*
X00217756Y00141974D01*
X00217786Y00142019D01*
X00217801Y00142034D01*
X00217921Y00142139D01*
X00218056Y00142214D01*
X00218191Y00142274D01*
X00218311Y00142304D01*
X00218431Y00142334D01*
X00218521Y00142349D01*
X00218596D01*
X00218760Y00142334D01*
X00218910Y00142304D01*
X00219045Y00142259D01*
X00219165Y00142199D01*
X00219255Y00142139D01*
X00219315Y00142094D01*
X00219360Y00142064D01*
X00219375Y00142049D01*
X00219480Y00141929D01*
X00219555Y00141810D01*
X00219615Y00141690D01*
X00219645Y00141585D01*
X00219674Y00141480D01*
X00219690Y00141405D01*
Y00141345D01*
Y00141330D01*
X00219674Y00141195D01*
X00219645Y00141045D01*
X00219585Y00140910D01*
X00219540Y00140790D01*
X00219480Y00140686D01*
X00219420Y00140596D01*
X00219390Y00140536D01*
X00219375Y00140521D01*
X00219315Y00140431D01*
X00219225Y00140341D01*
X00219015Y00140146D01*
X00218790Y00139936D01*
X00218551Y00139726D01*
X00218326Y00139547D01*
X00218131Y00139397D01*
X00218056Y00139337D01*
X00217996Y00139292D01*
X00217966Y00139277D01*
X00217951Y00139262D01*
X00217621Y00139007D01*
X00217322Y00138767D01*
X00217037Y00138542D01*
X00216782Y00138333D01*
X00216557Y00138123D01*
X00216363Y00137928D01*
X00216168Y00137748D01*
X00216018Y00137583D01*
X00215883Y00137434D01*
X00215763Y00137314D01*
X00215658Y00137194D01*
X00215583Y00137104D01*
X00215523Y00137029D01*
X00215478Y00136969D01*
X00215464Y00136939D01*
X00215448Y00136924D01*
X00215224Y00136549D01*
X00215044Y00136175D01*
X00214909Y00135815D01*
X00214819Y00135500D01*
X00214774Y00135351D01*
X00214744Y00135216D01*
X00214714Y00135096D01*
X00214699Y00135006D01*
X00214684Y00134916D01*
X00214669Y00134856D01*
Y00134811D01*
X00222282D01*
Y00144087D01*
D02*
G37*
G36*
X00205258D02*
D01*
Y00136879D01*
X00201287D01*
X00201527Y00137104D01*
X00201631Y00137194D01*
X00201721Y00137269D01*
X00201781Y00137329D01*
X00201841Y00137389D01*
X00201871Y00137404D01*
X00201886Y00137419D01*
X00202006Y00137508D01*
X00202156Y00137628D01*
X00202336Y00137748D01*
X00202501Y00137883D01*
X00202665Y00137988D01*
X00202800Y00138078D01*
X00202890Y00138138D01*
X00202905Y00138168D01*
X00202920D01*
X00203160Y00138333D01*
X00203370Y00138498D01*
X00203565Y00138662D01*
X00203744Y00138812D01*
X00203909Y00138947D01*
X00204044Y00139097D01*
X00204179Y00139217D01*
X00204299Y00139337D01*
X00204389Y00139442D01*
X00204479Y00139547D01*
X00204614Y00139696D01*
X00204644Y00139756D01*
X00204674Y00139801D01*
X00204704Y00139816D01*
Y00139831D01*
X00204868Y00140116D01*
X00204988Y00140401D01*
X00205078Y00140670D01*
X00205138Y00140910D01*
X00205168Y00141120D01*
X00205198Y00141285D01*
Y00141345D01*
Y00141390D01*
Y00141405D01*
Y00141420D01*
X00205183Y00141705D01*
X00205138Y00141974D01*
X00205063Y00142214D01*
X00204988Y00142424D01*
X00204898Y00142604D01*
X00204838Y00142739D01*
X00204778Y00142814D01*
X00204763Y00142844D01*
X00204584Y00143068D01*
X00204389Y00143248D01*
X00204194Y00143413D01*
X00204014Y00143548D01*
X00203834Y00143638D01*
X00203699Y00143713D01*
X00203610Y00143758D01*
X00203594Y00143773D01*
X00203580D01*
X00203280Y00143877D01*
X00202950Y00143953D01*
X00202605Y00144012D01*
X00202276Y00144042D01*
X00201976Y00144072D01*
X00201841D01*
X00201736Y00144087D01*
X00205258D01*
X00197645D01*
X00201511D01*
X00201062Y00144072D01*
X00200657Y00144042D01*
X00200313Y00143982D01*
X00200148Y00143953D01*
X00200013Y00143923D01*
X00199893Y00143892D01*
X00199788Y00143863D01*
X00199698Y00143833D01*
X00199623Y00143803D01*
X00199563Y00143788D01*
X00199518Y00143773D01*
X00199503Y00143758D01*
X00199488D01*
X00199234Y00143623D01*
X00199009Y00143488D01*
X00198814Y00143338D01*
X00198664Y00143188D01*
X00198529Y00143053D01*
X00198439Y00142948D01*
X00198379Y00142873D01*
X00198364Y00142844D01*
X00198230Y00142604D01*
X00198110Y00142334D01*
X00198020Y00142049D01*
X00197945Y00141779D01*
X00197885Y00141540D01*
X00197870Y00141435D01*
X00197855Y00141345D01*
X00197840Y00141270D01*
X00197825Y00141210D01*
Y00141180D01*
Y00141165D01*
X00200373Y00140970D01*
X00200417Y00141240D01*
X00200478Y00141465D01*
X00200552Y00141645D01*
X00200612Y00141795D01*
X00200672Y00141899D01*
X00200732Y00141974D01*
X00200762Y00142019D01*
X00200777Y00142034D01*
X00200897Y00142139D01*
X00201032Y00142214D01*
X00201167Y00142274D01*
X00201287Y00142304D01*
X00201407Y00142334D01*
X00201497Y00142349D01*
X00201571D01*
X00201736Y00142334D01*
X00201886Y00142304D01*
X00202021Y00142259D01*
X00202141Y00142199D01*
X00202231Y00142139D01*
X00202291Y00142094D01*
X00202336Y00142064D01*
X00202351Y00142049D01*
X00202456Y00141929D01*
X00202530Y00141810D01*
X00202591Y00141690D01*
X00202620Y00141585D01*
X00202650Y00141480D01*
X00202665Y00141405D01*
Y00141345D01*
Y00141330D01*
X00202650Y00141195D01*
X00202620Y00141045D01*
X00202561Y00140910D01*
X00202516Y00140790D01*
X00202456Y00140686D01*
X00202396Y00140596D01*
X00202366Y00140536D01*
X00202351Y00140521D01*
X00202291Y00140431D01*
X00202201Y00140341D01*
X00201991Y00140146D01*
X00201766Y00139936D01*
X00201527Y00139726D01*
X00201302Y00139547D01*
X00201107Y00139397D01*
X00201032Y00139337D01*
X00200972Y00139292D01*
X00200942Y00139277D01*
X00200927Y00139262D01*
X00200597Y00139007D01*
X00200298Y00138767D01*
X00200013Y00138542D01*
X00199758Y00138333D01*
X00199533Y00138123D01*
X00199338Y00137928D01*
X00199144Y00137748D01*
X00198994Y00137583D01*
X00198859Y00137434D01*
X00198739Y00137314D01*
X00198634Y00137194D01*
X00198559Y00137104D01*
X00198499Y00137029D01*
X00198454Y00136969D01*
X00198439Y00136939D01*
X00198424Y00136924D01*
X00198200Y00136549D01*
X00198020Y00136175D01*
X00197885Y00135815D01*
X00197795Y00135500D01*
X00197750Y00135351D01*
X00197720Y00135216D01*
X00197690Y00135096D01*
X00197675Y00135006D01*
X00197660Y00134916D01*
X00197645Y00134856D01*
Y00134811D01*
X00205258D01*
Y00144087D01*
D02*
G37*
G36*
X00234945D02*
D01*
Y00135560D01*
Y00144087D01*
D02*
G37*
G36*
D02*
X00231364D01*
D01*
X00233657D01*
X00231364Y00134661D01*
X00232637D01*
X00234945Y00144087D01*
D02*
G37*
%LPD*%
G36*
X00211769Y00153316D02*
X00212009Y00153286D01*
X00212189Y00153241D01*
X00212339Y00153181D01*
X00212444Y00153121D01*
X00212519Y00153076D01*
X00212564Y00153046D01*
X00212579Y00153031D01*
X00212684Y00152911D01*
X00212759Y00152791D01*
X00212803Y00152671D01*
X00212848Y00152551D01*
X00212863Y00152446D01*
X00212878Y00152372D01*
Y00152312D01*
Y00152297D01*
X00212863Y00152132D01*
X00212818Y00151997D01*
X00212773Y00151862D01*
X00212714Y00151757D01*
X00212639Y00151682D01*
X00212594Y00151607D01*
X00212549Y00151577D01*
X00212534Y00151562D01*
X00212384Y00151472D01*
X00212219Y00151412D01*
X00212024Y00151353D01*
X00211844Y00151323D01*
X00211665Y00151308D01*
X00211530Y00151293D01*
X00210705D01*
Y00153331D01*
X00211500D01*
X00211769Y00153316D01*
D02*
G37*
G36*
X00227482Y00139307D02*
X00227647Y00139262D01*
X00227797Y00139187D01*
X00227917Y00139127D01*
X00228022Y00139052D01*
X00228097Y00138977D01*
X00228142Y00138932D01*
X00228157Y00138917D01*
X00228277Y00138752D01*
X00228366Y00138558D01*
X00228426Y00138363D01*
X00228471Y00138183D01*
X00228501Y00138018D01*
X00228516Y00137868D01*
Y00137778D01*
Y00137763D01*
Y00137748D01*
X00228501Y00137479D01*
X00228456Y00137254D01*
X00228411Y00137059D01*
X00228351Y00136909D01*
X00228277Y00136789D01*
X00228232Y00136699D01*
X00228187Y00136639D01*
X00228172Y00136624D01*
X00228037Y00136504D01*
X00227902Y00136414D01*
X00227767Y00136340D01*
X00227632Y00136295D01*
X00227512Y00136265D01*
X00227422Y00136250D01*
X00227332D01*
X00227138Y00136265D01*
X00226958Y00136310D01*
X00226808Y00136384D01*
X00226673Y00136460D01*
X00226568Y00136519D01*
X00226493Y00136594D01*
X00226433Y00136639D01*
X00226418Y00136654D01*
X00226298Y00136819D01*
X00226208Y00137014D01*
X00226133Y00137209D01*
X00226089Y00137389D01*
X00226059Y00137553D01*
X00226044Y00137688D01*
Y00137778D01*
Y00137793D01*
Y00137808D01*
X00226059Y00138063D01*
X00226103Y00138288D01*
X00226164Y00138483D01*
X00226223Y00138647D01*
X00226283Y00138767D01*
X00226343Y00138857D01*
X00226388Y00138917D01*
X00226403Y00138932D01*
X00226538Y00139067D01*
X00226688Y00139157D01*
X00226838Y00139232D01*
X00226988Y00139277D01*
X00227108Y00139307D01*
X00227197Y00139322D01*
X00227287D01*
X00227482Y00139307D01*
D02*
G37*
G36*
X00230914Y00134661D02*
X00227407D01*
X00227812Y00134676D01*
X00228187Y00134721D01*
X00228501Y00134781D01*
X00228786Y00134856D01*
X00228996Y00134916D01*
X00229086Y00134946D01*
X00229161Y00134976D01*
X00229221Y00135006D01*
X00229266Y00135021D01*
X00229280Y00135036D01*
X00229296D01*
X00229565Y00135201D01*
X00229805Y00135380D01*
X00230000Y00135560D01*
X00230180Y00135740D01*
X00230300Y00135905D01*
X00230404Y00136040D01*
X00230464Y00136130D01*
X00230479Y00136145D01*
Y00136160D01*
X00230629Y00136445D01*
X00230734Y00136729D01*
X00230809Y00137014D01*
X00230854Y00137269D01*
X00230899Y00137479D01*
X00230914Y00137658D01*
Y00134661D01*
D02*
G37*
G36*
X00239336Y00142364D02*
X00239531Y00142289D01*
X00239696Y00142199D01*
X00239816Y00142079D01*
X00239921Y00141959D01*
X00239995Y00141869D01*
X00240040Y00141795D01*
X00240056Y00141764D01*
X00240115Y00141630D01*
X00240160Y00141480D01*
X00240205Y00141300D01*
X00240235Y00141120D01*
X00240295Y00140716D01*
X00240325Y00140311D01*
X00240340Y00140116D01*
X00240355Y00139936D01*
Y00139771D01*
X00240370Y00139621D01*
Y00139502D01*
Y00139412D01*
Y00139352D01*
Y00139337D01*
Y00139112D01*
Y00138902D01*
X00240355Y00138707D01*
Y00138527D01*
X00240340Y00138363D01*
X00240325Y00138213D01*
X00240310Y00137958D01*
X00240280Y00137763D01*
X00240250Y00137613D01*
X00240235Y00137538D01*
Y00137508D01*
X00240175Y00137299D01*
X00240115Y00137134D01*
X00240040Y00136984D01*
X00239981Y00136864D01*
X00239921Y00136774D01*
X00239861Y00136699D01*
X00239831Y00136669D01*
X00239816Y00136654D01*
X00239711Y00136564D01*
X00239591Y00136504D01*
X00239471Y00136460D01*
X00239366Y00136430D01*
X00239276Y00136414D01*
X00239201Y00136399D01*
X00239141D01*
X00238932Y00136430D01*
X00238752Y00136504D01*
X00238602Y00136594D01*
X00238467Y00136714D01*
X00238377Y00136834D01*
X00238302Y00136924D01*
X00238257Y00136999D01*
X00238242Y00137029D01*
X00238197Y00137164D01*
X00238137Y00137314D01*
X00238107Y00137479D01*
X00238062Y00137658D01*
X00238017Y00138048D01*
X00237987Y00138453D01*
X00237972Y00138632D01*
X00237957Y00138812D01*
Y00138977D01*
X00237943Y00139112D01*
Y00139232D01*
Y00139322D01*
Y00139382D01*
Y00139397D01*
Y00139711D01*
X00237957Y00139996D01*
X00237972Y00140251D01*
X00237987Y00140491D01*
X00238002Y00140701D01*
X00238032Y00140895D01*
X00238047Y00141075D01*
X00238077Y00141225D01*
X00238107Y00141345D01*
X00238122Y00141465D01*
X00238152Y00141555D01*
X00238167Y00141630D01*
X00238182Y00141675D01*
X00238197Y00141720D01*
X00238212Y00141749D01*
X00238272Y00141869D01*
X00238332Y00141959D01*
X00238482Y00142124D01*
X00238632Y00142244D01*
X00238782Y00142319D01*
X00238916Y00142364D01*
X00239021Y00142379D01*
X00239096Y00142394D01*
X00239126D01*
X00239336Y00142364D01*
D02*
G37*
G36*
X00242888Y00134661D02*
X00239141D01*
X00239516Y00134676D01*
X00239861Y00134706D01*
X00240175Y00134766D01*
X00240460Y00134841D01*
X00240730Y00134931D01*
X00240955Y00135021D01*
X00241164Y00135126D01*
X00241359Y00135231D01*
X00241524Y00135336D01*
X00241659Y00135440D01*
X00241779Y00135530D01*
X00241869Y00135620D01*
X00241944Y00135695D01*
X00241989Y00135755D01*
X00242019Y00135785D01*
X00242034Y00135800D01*
X00242183Y00136025D01*
X00242318Y00136295D01*
X00242423Y00136564D01*
X00242528Y00136849D01*
X00242618Y00137164D01*
X00242678Y00137464D01*
X00242783Y00138048D01*
X00242813Y00138333D01*
X00242843Y00138588D01*
X00242858Y00138827D01*
X00242873Y00139037D01*
X00242888Y00139202D01*
Y00134661D01*
D02*
G37*
G36*
X00210263Y00142364D02*
X00210458Y00142289D01*
X00210623Y00142199D01*
X00210743Y00142079D01*
X00210848Y00141959D01*
X00210923Y00141869D01*
X00210968Y00141795D01*
X00210983Y00141764D01*
X00211043Y00141630D01*
X00211087Y00141480D01*
X00211133Y00141300D01*
X00211162Y00141120D01*
X00211222Y00140716D01*
X00211252Y00140311D01*
X00211267Y00140116D01*
X00211282Y00139936D01*
Y00139771D01*
X00211297Y00139621D01*
Y00139502D01*
Y00139412D01*
Y00139352D01*
Y00139337D01*
Y00139112D01*
Y00138902D01*
X00211282Y00138707D01*
Y00138527D01*
X00211267Y00138363D01*
X00211252Y00138213D01*
X00211237Y00137958D01*
X00211207Y00137763D01*
X00211178Y00137613D01*
X00211162Y00137538D01*
Y00137508D01*
X00211103Y00137299D01*
X00211043Y00137134D01*
X00210968Y00136984D01*
X00210908Y00136864D01*
X00210848Y00136774D01*
X00210788Y00136699D01*
X00210758Y00136669D01*
X00210743Y00136654D01*
X00210638Y00136564D01*
X00210518Y00136504D01*
X00210398Y00136460D01*
X00210293Y00136430D01*
X00210203Y00136414D01*
X00210128Y00136399D01*
X00210068D01*
X00209859Y00136430D01*
X00209679Y00136504D01*
X00209529Y00136594D01*
X00209394Y00136714D01*
X00209304Y00136834D01*
X00209229Y00136924D01*
X00209184Y00136999D01*
X00209169Y00137029D01*
X00209124Y00137164D01*
X00209064Y00137314D01*
X00209035Y00137479D01*
X00208990Y00137658D01*
X00208944Y00138048D01*
X00208915Y00138453D01*
X00208900Y00138632D01*
X00208885Y00138812D01*
Y00138977D01*
X00208870Y00139112D01*
Y00139232D01*
Y00139322D01*
Y00139382D01*
Y00139397D01*
Y00139711D01*
X00208885Y00139996D01*
X00208900Y00140251D01*
X00208915Y00140491D01*
X00208930Y00140701D01*
X00208960Y00140895D01*
X00208974Y00141075D01*
X00209004Y00141225D01*
X00209035Y00141345D01*
X00209049Y00141465D01*
X00209079Y00141555D01*
X00209094Y00141630D01*
X00209109Y00141675D01*
X00209124Y00141720D01*
X00209139Y00141749D01*
X00209199Y00141869D01*
X00209259Y00141959D01*
X00209409Y00142124D01*
X00209559Y00142244D01*
X00209709Y00142319D01*
X00209844Y00142364D01*
X00209949Y00142379D01*
X00210023Y00142394D01*
X00210054D01*
X00210263Y00142364D01*
D02*
G37*
G36*
X00213815Y00134661D02*
X00210068D01*
X00210443Y00134676D01*
X00210788Y00134706D01*
X00211103Y00134766D01*
X00211387Y00134841D01*
X00211657Y00134931D01*
X00211882Y00135021D01*
X00212092Y00135126D01*
X00212286Y00135231D01*
X00212451Y00135336D01*
X00212586Y00135440D01*
X00212706Y00135530D01*
X00212796Y00135620D01*
X00212871Y00135695D01*
X00212916Y00135755D01*
X00212946Y00135785D01*
X00212961Y00135800D01*
X00213111Y00136025D01*
X00213246Y00136295D01*
X00213350Y00136564D01*
X00213455Y00136849D01*
X00213545Y00137164D01*
X00213605Y00137464D01*
X00213710Y00138048D01*
X00213740Y00138333D01*
X00213770Y00138588D01*
X00213785Y00138827D01*
X00213800Y00139037D01*
X00213815Y00139202D01*
Y00134661D01*
D02*
G37*
%LPC*%
G36*
X00086681Y00453885D02*
X00086481D01*
X00086194Y00453872D01*
X00085919Y00453859D01*
X00085669Y00453822D01*
X00085456Y00453797D01*
X00085269Y00453760D01*
X00085194Y00453747D01*
X00085131Y00453722D01*
X00085081Y00453710D01*
X00085031D01*
X00085019Y00453697D01*
X00085006D01*
X00084756Y00453622D01*
X00084519Y00453522D01*
X00084306Y00453422D01*
X00084132Y00453322D01*
X00083982Y00453235D01*
X00083869Y00453160D01*
X00083807Y00453110D01*
X00083782Y00453085D01*
X00083594Y00452922D01*
X00083432Y00452747D01*
X00083294Y00452572D01*
X00083182Y00452410D01*
X00083094Y00452260D01*
X00083032Y00452147D01*
X00082994Y00452060D01*
X00082982Y00452048D01*
Y00452035D01*
X00082882Y00451785D01*
X00082819Y00451510D01*
X00082769Y00451235D01*
X00082732Y00450960D01*
X00082707Y00450735D01*
Y00450635D01*
X00082694Y00450548D01*
Y00453885D01*
D01*
Y00446886D01*
X00090305D01*
Y00450373D01*
X00090293Y00450610D01*
X00090267Y00450860D01*
X00090243Y00451085D01*
X00090205Y00451310D01*
X00090168Y00451498D01*
X00090155Y00451573D01*
X00090130Y00451648D01*
X00090118Y00451698D01*
Y00451735D01*
X00090105Y00451760D01*
Y00451773D01*
X00090030Y00451985D01*
X00089943Y00452173D01*
X00089855Y00452347D01*
X00089743Y00452510D01*
X00089655Y00452635D01*
X00089580Y00452735D01*
X00089530Y00452797D01*
X00089505Y00452822D01*
X00089318Y00452997D01*
X00089130Y00453160D01*
X00088943Y00453285D01*
X00088768Y00453397D01*
X00088618Y00453485D01*
X00088493Y00453547D01*
X00088443Y00453572D01*
X00088406Y00453585D01*
X00088393Y00453597D01*
X00088380D01*
X00088243Y00453647D01*
X00088106Y00453697D01*
X00087793Y00453760D01*
X00087481Y00453810D01*
X00087181Y00453847D01*
X00087031Y00453859D01*
X00086906Y00453872D01*
X00086781D01*
X00086681Y00453885D01*
D02*
G37*
G36*
X00090305Y00435427D02*
X00082694D01*
X00090305D01*
D01*
D02*
G37*
G36*
X00082694Y00446074D02*
D01*
Y00435427D01*
D01*
X00090305Y00437114D01*
Y00439426D01*
X00085519Y00440750D01*
X00090305Y00442088D01*
Y00444387D01*
X00082694Y00446074D01*
D02*
G37*
G36*
X00087956Y00435039D02*
X00087831D01*
X00087606Y00435027D01*
X00087393Y00434989D01*
X00087206Y00434939D01*
X00087031Y00434889D01*
X00086893Y00434827D01*
X00086793Y00434777D01*
X00086731Y00434739D01*
X00086706Y00434727D01*
X00086531Y00434602D01*
X00086369Y00434452D01*
X00086219Y00434290D01*
X00086094Y00434127D01*
X00086006Y00433977D01*
X00085931Y00433865D01*
X00085906Y00433815D01*
X00085881Y00433777D01*
X00085869Y00433765D01*
Y00433752D01*
X00085806Y00433615D01*
X00085744Y00433465D01*
X00085681Y00433302D01*
X00085619Y00433127D01*
X00085506Y00432765D01*
X00085394Y00432402D01*
X00085356Y00432228D01*
X00085319Y00432065D01*
X00085281Y00431915D01*
X00085244Y00431790D01*
X00085231Y00431690D01*
X00085206Y00431603D01*
X00085194Y00431553D01*
Y00431540D01*
X00085144Y00431328D01*
X00085094Y00431153D01*
X00085044Y00431015D01*
X00084994Y00430915D01*
X00084956Y00430840D01*
X00084931Y00430790D01*
X00084919Y00430765D01*
X00084906Y00430753D01*
X00084856Y00430690D01*
X00084794Y00430653D01*
X00084694Y00430603D01*
X00084607Y00430578D01*
X00084594D01*
X00084581D01*
X00084494Y00430591D01*
X00084406Y00430616D01*
X00084269Y00430678D01*
X00084219Y00430715D01*
X00084182Y00430753D01*
X00084169Y00430765D01*
X00084157Y00430778D01*
X00084094Y00430865D01*
X00084057Y00430965D01*
X00084007Y00431165D01*
X00083994Y00431265D01*
X00083982Y00431340D01*
Y00431403D01*
X00083994Y00431590D01*
X00084019Y00431740D01*
X00084057Y00431878D01*
X00084094Y00431990D01*
X00084144Y00432078D01*
X00084182Y00432140D01*
X00084207Y00432178D01*
X00084219Y00432190D01*
X00084319Y00432290D01*
X00084431Y00432378D01*
X00084557Y00432440D01*
X00084681Y00432490D01*
X00084794Y00432528D01*
X00084881Y00432552D01*
X00084944Y00432578D01*
X00084969D01*
X00084844Y00434789D01*
X00084632Y00434752D01*
X00084431Y00434702D01*
X00084244Y00434652D01*
X00084069Y00434577D01*
X00083919Y00434515D01*
X00083782Y00434427D01*
X00083644Y00434352D01*
X00083532Y00434277D01*
X00083432Y00434190D01*
X00083357Y00434115D01*
X00083282Y00434052D01*
X00083219Y00433990D01*
X00083182Y00433940D01*
X00083144Y00433902D01*
X00083119Y00433877D01*
Y00433865D01*
X00083019Y00433715D01*
X00082932Y00433552D01*
X00082807Y00433190D01*
X00082707Y00432827D01*
X00082632Y00432465D01*
X00082619Y00432303D01*
X00082594Y00432140D01*
X00082582Y00432003D01*
Y00431878D01*
X00082570Y00431778D01*
Y00435039D01*
D01*
Y00428116D01*
D01*
Y00431640D01*
X00082582Y00431215D01*
X00082594Y00431028D01*
X00082619Y00430853D01*
X00082645Y00430678D01*
X00082669Y00430528D01*
X00082694Y00430391D01*
X00082719Y00430253D01*
X00082744Y00430141D01*
X00082769Y00430041D01*
X00082794Y00429966D01*
X00082819Y00429891D01*
X00082844Y00429841D01*
X00082857Y00429803D01*
X00082869Y00429778D01*
Y00429766D01*
X00082994Y00429528D01*
X00083119Y00429316D01*
X00083257Y00429141D01*
X00083394Y00428991D01*
X00083507Y00428878D01*
X00083607Y00428803D01*
X00083669Y00428754D01*
X00083694Y00428741D01*
X00083894Y00428629D01*
X00084082Y00428541D01*
X00084269Y00428491D01*
X00084431Y00428441D01*
X00084581Y00428416D01*
X00084694Y00428404D01*
X00084769D01*
X00084781D01*
X00084794D01*
X00084956Y00428416D01*
X00085119Y00428429D01*
X00085406Y00428503D01*
X00085656Y00428616D01*
X00085869Y00428741D01*
X00086044Y00428853D01*
X00086169Y00428966D01*
X00086206Y00429003D01*
X00086243Y00429041D01*
X00086256Y00429053D01*
X00086269Y00429066D01*
X00086369Y00429203D01*
X00086468Y00429353D01*
X00086568Y00429516D01*
X00086656Y00429691D01*
X00086806Y00430053D01*
X00086943Y00430415D01*
X00086993Y00430591D01*
X00087043Y00430753D01*
X00087081Y00430903D01*
X00087118Y00431028D01*
X00087143Y00431128D01*
X00087168Y00431215D01*
X00087181Y00431265D01*
Y00431278D01*
X00087218Y00431453D01*
X00087256Y00431603D01*
X00087306Y00431740D01*
X00087343Y00431865D01*
X00087381Y00431978D01*
X00087418Y00432078D01*
X00087481Y00432240D01*
X00087543Y00432353D01*
X00087593Y00432440D01*
X00087618Y00432477D01*
X00087631Y00432490D01*
X00087718Y00432578D01*
X00087806Y00432640D01*
X00087893Y00432690D01*
X00087981Y00432715D01*
X00088043Y00432740D01*
X00088106Y00432752D01*
X00088143D01*
X00088156D01*
X00088268Y00432740D01*
X00088368Y00432715D01*
X00088468Y00432665D01*
X00088543Y00432615D01*
X00088618Y00432565D01*
X00088668Y00432515D01*
X00088693Y00432490D01*
X00088705Y00432477D01*
X00088780Y00432365D01*
X00088830Y00432240D01*
X00088880Y00432103D01*
X00088905Y00431978D01*
X00088918Y00431865D01*
X00088930Y00431778D01*
Y00431690D01*
X00088905Y00431453D01*
X00088855Y00431240D01*
X00088793Y00431065D01*
X00088705Y00430915D01*
X00088618Y00430790D01*
X00088555Y00430715D01*
X00088505Y00430653D01*
X00088481Y00430640D01*
X00088356Y00430565D01*
X00088230Y00430503D01*
X00088093Y00430453D01*
X00087956Y00430415D01*
X00087831Y00430391D01*
X00087731Y00430366D01*
X00087668Y00430353D01*
X00087643D01*
X00087793Y00428116D01*
X00088006Y00428141D01*
X00088205Y00428179D01*
X00088580Y00428279D01*
X00088893Y00428416D01*
X00089043Y00428491D01*
X00089168Y00428566D01*
X00089293Y00428641D01*
X00089393Y00428716D01*
X00089480Y00428778D01*
X00089555Y00428841D01*
X00089618Y00428878D01*
X00089655Y00428916D01*
X00089680Y00428941D01*
X00089693Y00428953D01*
X00089818Y00429103D01*
X00089930Y00429291D01*
X00090030Y00429478D01*
X00090118Y00429691D01*
X00090192Y00429916D01*
X00090255Y00430141D01*
X00090343Y00430591D01*
X00090367Y00430803D01*
X00090393Y00431003D01*
X00090405Y00431178D01*
X00090417Y00431340D01*
X00090430Y00431465D01*
Y00431653D01*
X00090417Y00432053D01*
X00090380Y00432415D01*
X00090330Y00432728D01*
X00090305Y00432865D01*
X00090267Y00432990D01*
X00090243Y00433102D01*
X00090218Y00433202D01*
X00090192Y00433290D01*
X00090168Y00433365D01*
X00090142Y00433415D01*
X00090130Y00433452D01*
X00090118Y00433477D01*
Y00433490D01*
X00089980Y00433752D01*
X00089830Y00433977D01*
X00089680Y00434177D01*
X00089530Y00434339D01*
X00089393Y00434464D01*
X00089280Y00434552D01*
X00089205Y00434614D01*
X00089193Y00434627D01*
X00089180D01*
X00088943Y00434764D01*
X00088705Y00434864D01*
X00088481Y00434939D01*
X00088280Y00434989D01*
X00088093Y00435014D01*
X00087956Y00435039D01*
D02*
G37*
%LPD*%
G36*
X00086843Y00451510D02*
X00087118Y00451498D01*
X00087356Y00451460D01*
X00087531Y00451435D01*
X00087681Y00451398D01*
X00087781Y00451360D01*
X00087831Y00451348D01*
X00087856Y00451335D01*
X00087993Y00451260D01*
X00088106Y00451185D01*
X00088205Y00451110D01*
X00088280Y00451023D01*
X00088343Y00450960D01*
X00088380Y00450898D01*
X00088406Y00450860D01*
X00088418Y00450848D01*
X00088468Y00450710D01*
X00088505Y00450560D01*
X00088543Y00450385D01*
X00088555Y00450210D01*
X00088568Y00450061D01*
X00088580Y00449923D01*
Y00449236D01*
X00084419D01*
Y00449811D01*
X00084444Y00450135D01*
X00084494Y00450398D01*
X00084557Y00450623D01*
X00084644Y00450810D01*
X00084731Y00450948D01*
X00084794Y00451048D01*
X00084844Y00451110D01*
X00084869Y00451123D01*
X00084956Y00451198D01*
X00085069Y00451260D01*
X00085319Y00451360D01*
X00085594Y00451423D01*
X00085869Y00451473D01*
X00086119Y00451498D01*
X00086231Y00451510D01*
X00086331Y00451523D01*
X00086419D01*
X00086481D01*
X00086518D01*
X00086531D01*
X00086843Y00451510D01*
D02*
G37*
G36*
X00086943Y00443037D02*
X00082694Y00441863D01*
Y00443850D01*
X00086943Y00443037D01*
D02*
G37*
G36*
X00086956Y00438464D02*
X00082694Y00437651D01*
Y00439638D01*
X00086956Y00438464D01*
D02*
G37*
%LPC*%
G36*
X00027304Y00407805D02*
X00024955D01*
Y00400195D01*
X00030991D01*
Y00402069D01*
X00027304D01*
Y00407805D01*
D02*
G37*
G36*
X00023893D02*
X00016745D01*
Y00400195D01*
X00023893D01*
X00021493D01*
Y00405931D01*
X00023893D01*
Y00407805D01*
D02*
G37*
G36*
X00016045D02*
X00009009D01*
Y00400195D01*
X00013183D01*
X00013333Y00400207D01*
X00013508Y00400232D01*
X00013683Y00400245D01*
X00013858Y00400270D01*
X00013995Y00400282D01*
X00014045D01*
X00014083Y00400295D01*
X00014120D01*
X00014333Y00400332D01*
X00014508Y00400370D01*
X00014670Y00400407D01*
X00014795Y00400445D01*
X00014883Y00400482D01*
X00014958Y00400520D01*
X00014995Y00400532D01*
X00015007Y00400545D01*
X00015182Y00400657D01*
X00015320Y00400782D01*
X00015457Y00400895D01*
X00015557Y00401020D01*
X00015645Y00401119D01*
X00015707Y00401207D01*
X00015745Y00401257D01*
X00015757Y00401282D01*
X00015857Y00401469D01*
X00015920Y00401657D01*
X00015970Y00401832D01*
X00016007Y00401994D01*
X00016032Y00402144D01*
X00016045Y00402257D01*
Y00402357D01*
X00016032Y00402619D01*
X00015982Y00402856D01*
X00015920Y00403056D01*
X00015857Y00403232D01*
X00015782Y00403369D01*
X00015720Y00403469D01*
X00015670Y00403531D01*
X00015657Y00403556D01*
X00015495Y00403731D01*
X00015308Y00403869D01*
X00015108Y00403981D01*
X00014908Y00404081D01*
X00014733Y00404144D01*
X00014583Y00404194D01*
X00014520Y00404206D01*
X00014483Y00404219D01*
X00014458Y00404231D01*
X00014445D01*
X00014633Y00404306D01*
X00014795Y00404394D01*
X00014945Y00404481D01*
X00015057Y00404556D01*
X00015145Y00404631D01*
X00015220Y00404694D01*
X00015258Y00404731D01*
X00015270Y00404744D01*
X00015407Y00404931D01*
X00015520Y00405131D01*
X00015595Y00405331D01*
X00015645Y00405506D01*
X00015670Y00405668D01*
X00015695Y00405793D01*
Y00405843D01*
Y00405881D01*
Y00405893D01*
Y00405906D01*
X00015682Y00406056D01*
X00015670Y00406193D01*
X00015607Y00406456D01*
X00015507Y00406681D01*
X00015395Y00406880D01*
X00015282Y00407043D01*
X00015195Y00407155D01*
X00015120Y00407230D01*
X00015108Y00407255D01*
X00015095D01*
X00014983Y00407355D01*
X00014858Y00407443D01*
X00014583Y00407568D01*
X00014308Y00407668D01*
X00014033Y00407743D01*
X00013783Y00407780D01*
X00013683Y00407793D01*
X00013595D01*
X00013508Y00407805D01*
X00016045D01*
D02*
G37*
%LPD*%
G36*
X00019144Y00400195D02*
X00016745D01*
Y00405931D01*
X00019144D01*
Y00400195D01*
D02*
G37*
G36*
X00012596Y00406256D02*
X00012758Y00406243D01*
X00012883Y00406206D01*
X00012983Y00406168D01*
X00013058Y00406131D01*
X00013120Y00406106D01*
X00013146Y00406081D01*
X00013158Y00406068D01*
X00013233Y00405993D01*
X00013283Y00405906D01*
X00013333Y00405818D01*
X00013358Y00405743D01*
X00013370Y00405668D01*
X00013383Y00405606D01*
Y00405568D01*
Y00405556D01*
X00013370Y00405431D01*
X00013346Y00405318D01*
X00013308Y00405218D01*
X00013270Y00405144D01*
X00013233Y00405081D01*
X00013196Y00405043D01*
X00013170Y00405019D01*
X00013158Y00405006D01*
X00013070Y00404944D01*
X00012946Y00404893D01*
X00012821Y00404869D01*
X00012696Y00404843D01*
X00012583Y00404831D01*
X00012483Y00404818D01*
X00011384D01*
Y00406268D01*
X00012408D01*
X00012596Y00406256D01*
D02*
G37*
G36*
X00012783Y00403356D02*
X00012958Y00403331D01*
X00013108Y00403306D01*
X00013233Y00403269D01*
X00013320Y00403219D01*
X00013383Y00403194D01*
X00013420Y00403169D01*
X00013433Y00403157D01*
X00013520Y00403082D01*
X00013583Y00402994D01*
X00013620Y00402894D01*
X00013658Y00402819D01*
X00013670Y00402732D01*
X00013683Y00402682D01*
Y00402632D01*
Y00402619D01*
X00013670Y00402494D01*
X00013645Y00402382D01*
X00013608Y00402282D01*
X00013558Y00402194D01*
X00013508Y00402132D01*
X00013470Y00402082D01*
X00013445Y00402057D01*
X00013433Y00402044D01*
X00013320Y00401969D01*
X00013196Y00401919D01*
X00013046Y00401882D01*
X00012908Y00401857D01*
X00012783Y00401844D01*
X00012671Y00401832D01*
X00011384D01*
Y00403369D01*
X00012571D01*
X00012783Y00403356D01*
D02*
G37*
D10*
X00074501Y00483499D02*
G03*
X00074501Y00483499I-00001000J00000000D01*
G01*
X00118000Y00777500D02*
G03*
X00118000Y00777500I-00001000J00000000D01*
G01*
X00090000Y00175500D02*
G03*
X00090000Y00175500I-00001000J00000000D01*
G01*
X00019000Y00128250D02*
G03*
X00019000Y00128250I-00001000J00000000D01*
G01*
X00110000Y00108750D02*
G03*
X00110000Y00108750I-00001000J00000000D01*
G01*
X00150500Y00098000D02*
G03*
X00150500Y00098000I-00001000J00000000D01*
G01*
X00138500Y00060000D02*
G03*
X00138500Y00060000I-00007500J00000000D01*
G01*
X00346000Y00410000D02*
G03*
X00346000Y00410000I-00001000J00000000D01*
G01*
X00343500Y00277500D02*
G03*
X00343500Y00277500I-00001000J00000000D01*
G01*
X00166500Y00258500D02*
G03*
X00166500Y00258500I-00001000J00000000D01*
G01*
X00152500Y00411500D02*
G03*
X00152500Y00411500I-00001000J00000000D01*
G01*
X00299500Y00119500D02*
G03*
X00299500Y00119500I-00001000J00000000D01*
G01*
X00326000Y00119500D02*
G03*
X00326000Y00119500I-00001000J00000000D01*
G01*
X00245000Y00694250D02*
G03*
X00245000Y00694250I-00001000J00000000D01*
G01*
X00361750Y00707500D02*
G03*
X00361750Y00707500I-00001000J00000000D01*
G01*
X00230000Y00085725D02*
G03*
X00230000Y00085725I-00001000J00000000D01*
G01*
X00398500Y00086000D02*
G03*
X00398500Y00086000I-00001000J00000000D01*
G01*
X00435500Y00752000D02*
G03*
X00435500Y00752000I-00001000J00000000D01*
G01*
X00176000Y00817125D02*
G03*
X00176000Y00817125I-00001000J00000000D01*
G01*
X00199000Y00703500D02*
G03*
X00199000Y00703500I-00001000J00000000D01*
G01*
X00323250Y00693000D02*
G03*
X00323250Y00693000I-00001000J00000000D01*
G01*
X00102000Y00496000D02*
X00110500Y00496000D01*
X00102000Y00503000D02*
X00102000Y00496000D01*
X00152000D02*
X00152000Y00503000D01*
X00115000Y00525000D02*
X00139000D01*
X00143500Y00496000D02*
X00152000Y00496000D01*
X00101500Y00809500D02*
X00109500D01*
X00101500Y00780500D02*
X00109500D01*
X00074500Y00808000D02*
Y00821000D01*
X00022500D02*
X00074500D01*
X00022500Y00808000D02*
Y00821000D01*
X00074500Y00769000D02*
Y00782000D01*
X00022500Y00769000D02*
X00074500D01*
X00022500D02*
Y00782000D01*
X00184500Y00104500D02*
X00192000D01*
X00192000D02*
Y00115000D01*
X00163000Y00104500D02*
Y00115000D01*
X00163000Y00104500D02*
X00170500D01*
X00175000Y00117500D02*
X00177500D01*
X00180000D01*
X00105000Y00180500D02*
X00115000D01*
X00105000Y00151500D02*
X00115000D01*
X00130000Y00010000D02*
X00135500Y00015500D01*
X00151000Y00031000D02*
X00156500Y00036500D01*
X00156500Y00064000D01*
X00102500Y00010000D02*
X00130000Y00010000D01*
X00081500Y00064000D02*
X00081500Y00031000D01*
X00102500Y00085000D02*
X00135500Y00085000D01*
X00131000Y00055500D02*
Y00064500D01*
X00126500Y00060000D02*
X00135500D01*
X00080250Y00587000D02*
Y00602000D01*
X00102500Y00540000D02*
X00152250Y00540000D01*
Y00554000D01*
Y00584500D02*
Y00599500D01*
Y00744500D02*
Y00759000D01*
X00137000D02*
X00152250D01*
X00102500D02*
X00124000D01*
X00329500Y00012500D02*
Y00021000D01*
X00322500Y00012500D02*
X00329500D01*
X00322500Y00072500D02*
X00329500D01*
X00300500Y00025500D02*
Y00059500D01*
X00329500Y00064000D02*
Y00072500D01*
X00159000Y00214500D02*
X00167500D01*
X00172000Y00185500D02*
X00206000D01*
X00159000Y00207500D02*
Y00214500D01*
X00219000Y00207500D02*
Y00214500D01*
X00210500D02*
X00219000D01*
X00053500Y00170350D02*
X00075500D01*
X00053500Y00142650D02*
X00075500D01*
X00049500Y00154750D02*
X00049500Y00158250D01*
X00079500D02*
X00079500Y00154750D01*
X00143500Y00425500D02*
X00152000D01*
X00115000Y00454500D02*
X00139000Y00454500D01*
X00152000Y00425500D02*
X00152000Y00432500D01*
X00102000D02*
X00102000Y00425500D01*
X00110500D01*
X00001500Y00356500D02*
Y00376500D01*
X00029500Y00388750D02*
X00035500D01*
X00001500Y00376500D02*
X00006500D01*
X00035500Y00386000D02*
Y00388750D01*
X00029500Y00344250D02*
X00035500D01*
Y00347000D01*
X00001500Y00356500D02*
X00006500D01*
X00001500Y00278500D02*
Y00298500D01*
X00029500Y00310750D02*
X00035500D01*
X00001500Y00298500D02*
X00006500D01*
X00035500Y00308000D02*
Y00310750D01*
X00029500Y00266250D02*
X00035500D01*
Y00269000D01*
X00001500Y00278500D02*
X00006500D01*
X00286500Y00452000D02*
X00295500Y00447000D01*
Y00457000D01*
X00286500Y00452000D02*
X00295500Y00457000D01*
X00286500Y00447000D02*
Y00457000D01*
X00330491Y00585009D02*
Y00591259D01*
X00332991D01*
X00330491Y00541259D02*
Y00547509D01*
Y00541259D02*
X00332991D01*
X00370491D02*
Y00547509D01*
X00367991Y00541259D02*
X00370491D01*
Y00585009D02*
Y00591259D01*
X00367991D02*
X00370491D01*
X00381000Y00499750D02*
Y00513500D01*
X00451000Y00499750D02*
Y00513500D01*
X00381000Y00447500D02*
Y00461250D01*
X00451000Y00447500D02*
Y00461250D01*
X00381000Y00513500D02*
X00451000D01*
X00381000Y00447500D02*
X00451000D01*
X00380991Y00531259D02*
X00394741D01*
X00380991Y00601259D02*
X00394741D01*
X00433241Y00531259D02*
X00446991D01*
X00433241Y00601259D02*
X00446991D01*
X00380991Y00531259D02*
Y00601259D01*
X00446991Y00531259D02*
Y00601259D01*
X00260500Y00268500D02*
X00274500Y00282500D01*
X00260500Y00216500D02*
X00285500D01*
X00274500Y00282500D02*
X00285500D01*
X00260500Y00216500D02*
Y00268500D01*
X00326500Y00216500D02*
Y00268500D01*
X00301500Y00282500D02*
X00312500D01*
X00301500Y00216500D02*
X00326500D01*
X00312500Y00282500D02*
X00326500Y00268500D01*
X00260000Y00281000D02*
X00266000Y00281000D01*
X00263000Y00278000D02*
Y00284000D01*
X00442305Y00342971D02*
X00447305D01*
X00442305Y00414971D02*
X00447305D01*
X00372305D02*
X00377305D01*
X00372305Y00342971D02*
X00377305D01*
X00447305D02*
Y00414971D01*
X00372305Y00342971D02*
Y00414971D01*
X00064000Y00425500D02*
X00072500D01*
X00025500Y00454500D02*
X00059500Y00454500D01*
X00072500Y00425500D02*
Y00432500D01*
X00012500Y00425500D02*
Y00432500D01*
Y00425500D02*
X00021000D01*
X00133000Y00295000D02*
X00135000D01*
Y00297000D01*
X00133000Y00365000D02*
X00135000D01*
Y00363000D02*
Y00365000D01*
X00065000Y00363000D02*
Y00365000D01*
X00067000D01*
X00065000Y00295000D02*
X00067000D01*
X00065000D02*
Y00297000D01*
X00295000Y00135000D02*
Y00141000D01*
X00315000Y00135000D02*
Y00141000D01*
X00321500Y00135000D02*
Y00141000D01*
X00341500Y00135000D02*
Y00141000D01*
X00390000Y00775000D02*
X00404000Y00761000D01*
X00456000D02*
Y00786000D01*
X00390000Y00775000D02*
X00390000Y00786000D01*
X00404000Y00761000D02*
X00456000D01*
X00404000Y00827000D02*
X00456000Y00827000D01*
X00390000Y00802000D02*
Y00813000D01*
X00456000Y00802000D02*
Y00827000D01*
X00390000Y00813000D02*
X00404000Y00827000D01*
X00391500Y00828500D02*
X00391500Y00822500D01*
X00388500Y00825500D02*
X00394500Y00825500D01*
X00337000Y00740500D02*
X00358000D01*
X00337115Y00719498D02*
X00358115Y00719498D01*
X00410500Y00726000D02*
Y00736000D01*
X00439500Y00726000D02*
Y00736000D01*
X00214000Y00679500D02*
X00224000D01*
X00214000Y00708500D02*
X00224000D01*
X00260690Y00794750D02*
Y00856250D01*
Y00794750D02*
X00290500D01*
X00304500D02*
X00342000Y00794750D01*
X00358480Y00794750D02*
X00358480Y00856250D01*
Y00902750D02*
Y00909750D01*
X00260690Y00902750D02*
Y00909750D01*
X00358480D01*
X00356500Y00794750D02*
X00358480D01*
X00125499Y00897250D02*
Y00909751D01*
Y00856500D02*
Y00871500D01*
X00214499Y00856500D02*
X00214499Y00871500D01*
X00125499Y00909751D02*
X00214499Y00909751D01*
X00214499Y00897250D02*
X00214499Y00909751D01*
X00189501Y-00006751D02*
X00189501Y00005750D01*
X00189501Y-00006751D02*
X00278501D01*
X00189501Y00031500D02*
X00189501Y00046500D01*
X00278501Y00031500D02*
Y00046500D01*
Y-00006751D02*
Y00005750D01*
D11*
X00109750Y00488500D02*
G03*
X00109750Y00488500I-00001250J00000000D01*
G01*
X00065750Y00557000D02*
G03*
X00065750Y00557000I-00001250J00000000D01*
G01*
X00344750Y00027500D02*
G03*
X00344750Y00027500I-00001250J00000000D01*
G01*
X00205250Y00228500D02*
G03*
X00205250Y00228500I-00001250J00000000D01*
G01*
X00108750Y00419000D02*
G03*
X00108750Y00419000I-00001250J00000000D01*
G01*
X00323741Y00581259D02*
G03*
X00323741Y00581259I-00001250J00000000D01*
G01*
X00047273Y00237893D02*
G03*
X00047273Y00237893I-00013000J00000000D01*
G01*
X00447273D02*
G03*
X00447273Y00237893I-00013000J00000000D01*
G01*
X00019750Y00419000D02*
G03*
X00019750Y00419000I-00001250J00000000D01*
G01*
X00139250Y00288000D02*
G03*
X00139250Y00288000I-00001250J00000000D01*
G01*
X00058000Y00467500D02*
Y00477500D01*
X00253000Y00447000D02*
Y00457000D01*
X00282000Y00438000D02*
X00299000D01*
X00282000Y00466000D02*
X00299000D01*
X00385500Y00697000D02*
Y00705000D01*
X00063000Y00065000D02*
X00068000Y00065000D01*
X00340500Y00754000D02*
X00357500D01*
X00340500Y00782000D02*
X00357500D01*
X00350500Y00013000D02*
Y00021000D01*
D12*
X00050500Y00079000D02*
Y00084000D01*
Y00074000D02*
Y00079000D01*
X00045500Y00084000D02*
X00050500D01*
X00036000Y00074000D02*
Y00079000D01*
Y00074000D02*
X00041000D01*
X00036000Y00084000D02*
X00041000D01*
X00019500Y00074000D02*
X00024500D01*
X00010000Y00084000D02*
X00015000D01*
Y00079000D02*
Y00084000D01*
X00019500Y00079000D02*
Y00084000D01*
X00024500D01*
X00036000Y00079000D02*
Y00084000D01*
X00010000Y00074000D02*
Y00079000D01*
X00015000D01*
X00010000Y00074000D02*
X00015000D01*
X00019500Y00079000D02*
X00024500D01*
Y00074000D02*
Y00079000D01*
X00029000Y00073500D02*
X00031387Y00084238D01*
X00019500Y00074000D02*
Y00079000D01*
X00041000D02*
Y00084000D01*
Y00074000D02*
Y00079000D01*
D13*
X00091001Y00497499D02*
Y00512499D01*
X00071001Y00497499D02*
Y00512499D01*
X00097000Y00831000D02*
Y00845000D01*
X00113000Y00831000D02*
Y00845000D01*
X00033750Y00728500D02*
Y00733500D01*
X00046250Y00728500D02*
Y00733500D01*
X00016750Y00728500D02*
Y00733500D01*
X00029250Y00728500D02*
Y00733500D01*
X00047000Y00103500D02*
X00056000D01*
X00026000D02*
X00035000D01*
X00047000Y00133500D02*
X00056000D01*
X00026000D02*
X00035000D01*
X00071000Y00133500D02*
X00080000D01*
X00092000D02*
X00101000D01*
X00071000Y00103500D02*
X00080000D01*
X00092000D02*
X00101000D01*
X00117000Y00133500D02*
X00126000D01*
X00138000D02*
X00147000D01*
X00117000Y00103500D02*
X00126000D01*
X00138000D02*
X00147000D01*
X00366000Y00639000D02*
Y00642000D01*
X00374000Y00639000D02*
Y00642000D01*
X00074000Y00478000D02*
X00076000D01*
X00074000Y00466000D02*
X00076000D01*
X00245500Y00622000D02*
X00259500D01*
X00245500Y00638000D02*
X00259500D01*
X00293000Y00596000D02*
X00303000D01*
X00293000Y00580000D02*
X00303000D01*
X00366000Y00609000D02*
Y00612000D01*
X00374000Y00609000D02*
Y00612000D01*
X00274500Y00561250D02*
X00279500D01*
X00274500Y00573750D02*
X00279500D01*
X00374000Y00518500D02*
Y00521500D01*
X00366000Y00518500D02*
Y00521500D01*
X00303500Y00503250D02*
X00308500D01*
X00303500Y00490750D02*
X00308500D01*
X00302500Y00536500D02*
X00305500D01*
X00302500Y00528500D02*
X00305500D01*
X00303500Y00484250D02*
X00308500D01*
X00303500Y00471750D02*
X00308500D01*
X00303500Y00522250D02*
X00308500D01*
X00303500Y00509750D02*
X00308500D01*
X00337500Y00504750D02*
X00342500D01*
X00337500Y00517250D02*
X00342500D01*
X00232500Y00520250D02*
X00237500D01*
X00232500Y00507750D02*
X00237500D01*
X00232500Y00502250D02*
X00237500D01*
X00232500Y00489750D02*
X00237500D01*
X00265500Y00525750D02*
X00270500D01*
X00265500Y00538250D02*
X00270500D01*
X00232500Y00484250D02*
X00237500D01*
X00232500Y00471750D02*
X00237500D01*
X00265500Y00489750D02*
X00270500D01*
X00265500Y00502250D02*
X00270500D01*
X00265500Y00471750D02*
X00270500D01*
X00265500Y00484250D02*
X00270500D01*
X00265500Y00507750D02*
X00270500D01*
X00265500Y00520250D02*
X00270500D01*
X00232500Y00538250D02*
X00237500D01*
X00232500Y00525750D02*
X00237500D01*
X00232500Y00556250D02*
X00237500D01*
X00232500Y00543750D02*
X00237500D01*
X00232500Y00574250D02*
X00237500D01*
X00232500Y00561750D02*
X00237500D01*
X00232500Y00448250D02*
X00237500D01*
X00232500Y00435750D02*
X00237500D01*
X00232500Y00466250D02*
X00237500D01*
X00232500Y00453750D02*
X00237500D01*
X00245500Y00580000D02*
X00259500D01*
X00245500Y00596000D02*
X00259500D01*
X00245500Y00601000D02*
X00259500D01*
X00245500Y00617000D02*
X00259500D01*
X00402500Y00707000D02*
X00404500D01*
X00402500Y00695000D02*
X00404500D01*
X00291500Y00638000D02*
X00305500D01*
X00291500Y00622000D02*
X00305500D01*
X00352750Y00630500D02*
Y00635500D01*
X00340250Y00630500D02*
Y00635500D01*
X00291555Y00357971D02*
Y00362971D01*
X00304055Y00357971D02*
Y00362971D01*
X00286305Y00345970D02*
Y00359971D01*
X00270305Y00345970D02*
Y00359971D01*
X00304055Y00394971D02*
Y00399971D01*
X00291555Y00394971D02*
Y00399971D01*
X00270305Y00397471D02*
Y00411470D01*
X00286305Y00397471D02*
Y00411470D01*
X00381500Y00245250D02*
X00386500D01*
X00381500Y00232750D02*
X00386500D01*
X00342500Y00240000D02*
X00348500Y00240000D01*
Y00237000D02*
Y00240000D01*
Y00224000D02*
Y00227000D01*
X00342500Y00224000D02*
X00348500Y00224000D01*
X00374805Y00322471D02*
Y00325471D01*
X00366805Y00322471D02*
Y00325471D01*
X00265305Y00345970D02*
Y00359971D01*
X00249305Y00345970D02*
Y00359971D01*
X00276305Y00305970D02*
Y00308971D01*
X00268305Y00305970D02*
Y00308971D01*
X00244305Y00345970D02*
Y00359971D01*
X00228305Y00345970D02*
Y00359971D01*
X00227805Y00302470D02*
Y00312470D01*
X00243805Y00302470D02*
Y00312470D01*
X00249305Y00397471D02*
Y00411470D01*
X00265305Y00397471D02*
Y00411470D01*
X00228305Y00397471D02*
Y00411470D01*
X00244305Y00397471D02*
Y00411470D01*
X00371500Y00252750D02*
X00380500D01*
X00350500D02*
X00359500D01*
X00371500Y00282750D02*
X00380500D01*
X00350500D02*
X00359500D01*
X00234500Y00270250D02*
X00239500D01*
X00234500Y00282750D02*
X00239500D01*
X00061500Y00078000D02*
Y00081000D01*
X00069500Y00078000D02*
Y00081000D01*
X00137000Y00256000D02*
X00141500D01*
X00147500D02*
X00152000D01*
X00147500Y00276000D02*
X00152000D01*
X00137000D02*
X00141500D01*
X00142000Y00406000D02*
X00143000D01*
X00142000Y00385000D02*
X00143000D01*
X00273000Y00669500D02*
X00282000D01*
X00252000D02*
X00261000D01*
X00273000Y00699500D02*
X00282000D01*
X00252000D02*
X00261000D01*
X00336000Y00669500D02*
Y00678500D01*
Y00690500D02*
Y00699500D01*
X00366000Y00669500D02*
Y00678500D01*
Y00690500D02*
Y00699500D01*
X00247000Y00645500D02*
X00253000Y00645500D01*
Y00648500D01*
Y00658500D02*
Y00661500D01*
X00247000Y00661500D02*
X00253000Y00661500D01*
X00389500Y00078000D02*
Y00081000D01*
X00386500Y00078000D02*
X00389500Y00078000D01*
X00386500Y00108000D02*
X00389500D01*
X00389500Y00105000D01*
X00359500D02*
X00359500Y00108000D01*
X00362500D01*
X00359500Y00078000D02*
X00362500Y00078000D01*
X00359500Y00078000D02*
Y00081000D01*
X00367500Y00023000D02*
X00369500D01*
X00367500Y00011000D02*
X00369500D01*
X00203500Y00776000D02*
Y00790000D01*
X00187500Y00776000D02*
Y00790000D01*
X00327500Y00676000D02*
Y00685000D01*
Y00655000D02*
Y00664000D01*
X00297500Y00676000D02*
Y00685000D01*
Y00655000D02*
Y00664000D01*
X00273000Y00161500D02*
X00279000Y00161500D01*
X00273000Y00158500D02*
Y00161500D01*
Y00145500D02*
Y00148500D01*
Y00145500D02*
X00279000Y00145500D01*
X00273000Y00140000D02*
X00279000Y00140000D01*
X00273000Y00137000D02*
Y00140000D01*
Y00124000D02*
Y00127000D01*
Y00124000D02*
X00279000Y00124000D01*
D14*
X00322500Y00354000D02*
X00325550Y00354000D01*
X00349450D02*
X00352500Y00354000D01*
X00349450Y00404000D02*
X00352500Y00404000D01*
X00322500D02*
X00325550Y00404000D01*
D15*
X00434273Y00230393D02*
Y00237893D01*
X00426773D02*
X00434273D01*
X00441773D01*
X00434273D02*
Y00245393D01*
X00026772Y00237893D02*
X00034273D01*
X00041773D01*
D16*
X00438000Y00000000D02*
G03*
X00468000Y00030000I00000000J00030000D01*
G01*
Y00873000D02*
G03*
X00438000Y00903000I-00030000J00000000D01*
G01*
X00000000Y00030000D02*
G03*
X00030000Y00000000I00030000J00000000D01*
G01*
Y00903000D02*
G03*
X00000000Y00873000I00000000J-00030000D01*
G01*
Y00717500D02*
G03*
X00010000Y00707500I00010000J00000000D01*
G01*
Y00467500D02*
G03*
X00000000Y00457500I00000000J-00010000D01*
G01*
X00035000Y00467500D02*
G03*
X00045000Y00477500I00000000J00010000D01*
G01*
Y00697500D02*
G03*
X00035000Y00707500I-00010000J00000000D01*
G01*
X00468000Y00030000D02*
Y00873000D01*
X00030000Y00000000D02*
X00438000D01*
X00030000Y00903000D02*
X00438000D01*
X00000000Y00717500D02*
Y00873000D01*
Y00030000D02*
Y00457500D01*
X00010034Y00467534D02*
X00035034D01*
X00010000Y00707500D02*
X00035000D01*
X00045000Y00477500D02*
Y00697500D01*
M02*
