%TF.GenerationSoftware,KiCad,Pcbnew,9.0.7*%
%TF.CreationDate,2026-01-29T22:03:01+01:00*%
%TF.ProjectId,Web3Pi_UPS_1,57656233-5069-45f5-9550-535f312e6b69,rev?*%
%TF.SameCoordinates,Original*%
%TF.FileFunction,Copper,L1,Top*%
%TF.FilePolarity,Positive*%
%FSLAX46Y46*%
G04 Gerber Fmt 4.6, Leading zero omitted, Abs format (unit mm)*
G04 Created by KiCad (PCBNEW 9.0.7) date 2026-01-29 22:03:01*
%MOMM*%
%LPD*%
G01*
G04 APERTURE LIST*
G04 Aperture macros list*
%AMRoundRect*
0 Rectangle with rounded corners*
0 $1 Rounding radius*
0 $2 $3 $4 $5 $6 $7 $8 $9 X,Y pos of 4 corners*
0 Add a 4 corners polygon primitive as box body*
4,1,4,$2,$3,$4,$5,$6,$7,$8,$9,$2,$3,0*
0 Add four circle primitives for the rounded corners*
1,1,$1+$1,$2,$3*
1,1,$1+$1,$4,$5*
1,1,$1+$1,$6,$7*
1,1,$1+$1,$8,$9*
0 Add four rect primitives between the rounded corners*
20,1,$1+$1,$2,$3,$4,$5,0*
20,1,$1+$1,$4,$5,$6,$7,0*
20,1,$1+$1,$6,$7,$8,$9,0*
20,1,$1+$1,$8,$9,$2,$3,0*%
G04 Aperture macros list end*
%TA.AperFunction,SMDPad,CuDef*%
%ADD10R,0.650000X1.050000*%
%TD*%
%TA.AperFunction,SMDPad,CuDef*%
%ADD11RoundRect,0.087500X0.087500X-1.412500X0.087500X1.412500X-0.087500X1.412500X-0.087500X-1.412500X0*%
%TD*%
%TA.AperFunction,ViaPad*%
%ADD12C,0.600000*%
%TD*%
%TA.AperFunction,Conductor*%
%ADD13C,0.300000*%
%TD*%
G04 APERTURE END LIST*
D10*
%TO.P,SW2,1,1*%
%TO.N,GND*%
X144925000Y-119682000D03*
X144925000Y-115532000D03*
%TO.P,SW2,2,2*%
%TO.N,Net-(R5-Pad1)*%
X147075000Y-119682000D03*
X147075000Y-115532000D03*
%TD*%
D11*
%TO.P,DS1,1,C2P*%
%TO.N,Net-(DS1-C2P)*%
X125450000Y-118200000D03*
%TO.P,DS1,2,C2N*%
%TO.N,Net-(DS1-C2N)*%
X126150000Y-118200000D03*
%TO.P,DS1,3,C1P*%
%TO.N,Net-(DS1-C1P)*%
X126850000Y-118200000D03*
%TO.P,DS1,4,C1N*%
%TO.N,Net-(DS1-C1N)*%
X127550000Y-118200000D03*
%TO.P,DS1,5,VBAT*%
%TO.N,+3V3*%
X128250000Y-118200000D03*
%TO.P,DS1,6,VBREF*%
%TO.N,unconnected-(DS1-VBREF-Pad6)*%
X128950000Y-118200000D03*
%TO.P,DS1,7,GND*%
%TO.N,GND*%
X129650000Y-118200000D03*
%TO.P,DS1,8,VDD*%
%TO.N,+3V3*%
X130350000Y-118200000D03*
%TO.P,DS1,9,RES*%
%TO.N,/RES*%
X131050000Y-118200000D03*
%TO.P,DS1,10,SCL*%
%TO.N,/SCL*%
X131750000Y-118200000D03*
%TO.P,DS1,11,SDA*%
%TO.N,/SDA*%
X132450000Y-118200000D03*
%TO.P,DS1,12,IREF*%
%TO.N,Net-(DS1-IREF)*%
X133150000Y-118200000D03*
%TO.P,DS1,13,VCOMH*%
%TO.N,Net-(DS1-VCOMH)*%
X133850000Y-118200000D03*
%TO.P,DS1,14,VCC*%
%TO.N,Net-(DS1-VCC)*%
X134550000Y-118200000D03*
%TD*%
D10*
%TO.P,SW1,1,1*%
%TO.N,GND*%
X112925000Y-119682000D03*
X112925000Y-115532000D03*
%TO.P,SW1,2,2*%
%TO.N,Net-(R3-Pad1)*%
X115075000Y-119682000D03*
X115075000Y-115532000D03*
%TD*%
D12*
%TO.N,Net-(DS1-C2N)*%
X126000000Y-120800000D03*
%TO.N,Net-(DS1-C2P)*%
X125000000Y-120200000D03*
%TO.N,Net-(DS1-C1P)*%
X126950000Y-121150000D03*
%TO.N,Net-(DS1-C1N)*%
X128000000Y-121200000D03*
%TO.N,GND*%
X107600000Y-110800000D03*
X122150000Y-115800000D03*
X143600000Y-111000000D03*
X116600000Y-115200000D03*
X136000000Y-124400000D03*
X125000000Y-115800000D03*
X118200000Y-110600000D03*
X113200000Y-124000000D03*
X112800000Y-117200000D03*
X129650000Y-115800000D03*
X108400000Y-121000000D03*
X124200000Y-120800000D03*
X130200000Y-124400000D03*
X139200000Y-119200000D03*
X143500000Y-115900000D03*
X136150000Y-118800000D03*
X151600000Y-111200000D03*
X129661455Y-120181291D03*
X107400000Y-123600000D03*
X135800000Y-121000000D03*
X122000000Y-112200000D03*
X116600000Y-119800000D03*
X108400000Y-114800000D03*
X136150000Y-115850000D03*
X115600000Y-121000000D03*
X141600000Y-114300000D03*
X138400000Y-114250000D03*
X134000000Y-124400000D03*
X118800000Y-119800000D03*
X113800000Y-112600000D03*
X150600000Y-122400000D03*
X151600000Y-117200000D03*
X116000000Y-112600000D03*
X121300000Y-118250000D03*
X142000000Y-124000000D03*
X127000000Y-115800000D03*
X110400000Y-122400000D03*
X146000000Y-122400000D03*
X135600000Y-111000000D03*
X132200000Y-124400000D03*
X122000000Y-123200000D03*
X113400000Y-121000000D03*
X110800000Y-112300000D03*
X148800000Y-119200000D03*
%TO.N,/RES*%
X129600000Y-121600000D03*
X109600000Y-118600000D03*
%TO.N,+3V3*%
X128250000Y-120150000D03*
%TO.N,Net-(DS1-VCOMH)*%
X133850000Y-121200000D03*
%TO.N,Net-(DS1-VCC)*%
X134900000Y-121150000D03*
X134850000Y-115950000D03*
%TO.N,Net-(DS1-IREF)*%
X132200000Y-121200000D03*
%TO.N,Net-(R5-Pad1)*%
X146200000Y-116300000D03*
%TO.N,Net-(R3-Pad1)*%
X116700000Y-120900000D03*
%TO.N,VCC*%
X140200000Y-117400000D03*
X113000000Y-113550000D03*
%TO.N,/SCL*%
X131850000Y-120300000D03*
%TO.N,/SDA*%
X133000000Y-115900000D03*
%TD*%
D13*
%TO.N,Net-(DS1-C2N)*%
X126150000Y-118200000D02*
X126150000Y-120650000D01*
X126150000Y-120650000D02*
X126000000Y-120800000D01*
%TO.N,Net-(DS1-C2P)*%
X125450000Y-119750000D02*
X125000000Y-120200000D01*
X125450000Y-118200000D02*
X125450000Y-119750000D01*
%TO.N,Net-(DS1-C1P)*%
X126950000Y-121150000D02*
X126850000Y-121050000D01*
X126850000Y-121050000D02*
X126850000Y-118200000D01*
%TO.N,Net-(DS1-C1N)*%
X128000000Y-121200000D02*
X128000000Y-121075000D01*
X127550000Y-120625000D02*
X127550000Y-118200000D01*
X128000000Y-121075000D02*
X127550000Y-120625000D01*
%TO.N,/RES*%
X129600000Y-121600000D02*
X130200000Y-121600000D01*
X131050000Y-120750000D02*
X131050000Y-118200000D01*
X127000000Y-124200000D02*
X115200000Y-124200000D01*
X130200000Y-121600000D02*
X131050000Y-120750000D01*
X115200000Y-124200000D02*
X109600000Y-118600000D01*
X129600000Y-121600000D02*
X127000000Y-124200000D01*
%TO.N,+3V3*%
X130000000Y-120850000D02*
X128950000Y-120850000D01*
X128950000Y-120850000D02*
X128250000Y-120150000D01*
X128250000Y-120150000D02*
X128250000Y-118200000D01*
X130350000Y-120500000D02*
X130000000Y-120850000D01*
X130350000Y-118200000D02*
X130350000Y-120500000D01*
%TO.N,Net-(DS1-VCOMH)*%
X133850000Y-118200000D02*
X133850000Y-121200000D01*
%TO.N,Net-(DS1-VCC)*%
X134550000Y-118200000D02*
X134550000Y-120800000D01*
X134550000Y-120800000D02*
X134900000Y-121150000D01*
X134550000Y-118200000D02*
X134550000Y-116250000D01*
X134550000Y-116250000D02*
X134850000Y-115950000D01*
%TO.N,Net-(DS1-IREF)*%
X132200000Y-121200000D02*
X132700000Y-121200000D01*
X133150000Y-120750000D02*
X133150000Y-118200000D01*
X132700000Y-121200000D02*
X133150000Y-120750000D01*
%TO.N,Net-(R5-Pad1)*%
X146307000Y-116300000D02*
X147075000Y-115532000D01*
X146200000Y-116300000D02*
X146307000Y-116300000D01*
X147075000Y-115532000D02*
X147075000Y-119682000D01*
%TO.N,Net-(R3-Pad1)*%
X115075000Y-115532000D02*
X115075000Y-119682000D01*
X115075000Y-119682000D02*
X115482000Y-119682000D01*
X115482000Y-119682000D02*
X116700000Y-120900000D01*
%TO.N,VCC*%
X119000000Y-111200000D02*
X134000000Y-111200000D01*
X134000000Y-111200000D02*
X140200000Y-117400000D01*
X113500140Y-113550140D02*
X116649860Y-113550140D01*
X116649860Y-113550140D02*
X119000000Y-111200000D01*
X113000000Y-113550000D02*
X113500000Y-113550000D01*
X113500000Y-113550000D02*
X113500140Y-113550140D01*
%TO.N,/SCL*%
X131850000Y-120300000D02*
X131750000Y-120200000D01*
X131750000Y-120200000D02*
X131750000Y-118200000D01*
%TO.N,/SDA*%
X133000000Y-115900000D02*
X132600000Y-115900000D01*
X132450000Y-116050000D02*
X132450000Y-118200000D01*
X132600000Y-115900000D02*
X132450000Y-116050000D01*
%TD*%
%TA.AperFunction,Conductor*%
%TO.N,GND*%
G36*
X153108691Y-110269407D02*
G01*
X153144655Y-110318907D01*
X153149500Y-110349500D01*
X153149500Y-124700500D01*
X153130593Y-124758691D01*
X153081093Y-124794655D01*
X153050500Y-124799500D01*
X152137580Y-124799500D01*
X152079389Y-124780593D01*
X152065990Y-124768881D01*
X152057435Y-124759924D01*
X151809999Y-124551380D01*
X151541583Y-124370660D01*
X151255280Y-124219846D01*
X151255277Y-124219845D01*
X150954420Y-124100693D01*
X150954415Y-124100691D01*
X150642506Y-124014586D01*
X150642495Y-124014584D01*
X150461435Y-123985066D01*
X150323124Y-123962517D01*
X150323122Y-123962516D01*
X150323117Y-123962516D01*
X150323114Y-123962515D01*
X150000007Y-123945093D01*
X149999995Y-123945093D01*
X149676887Y-123962515D01*
X149676884Y-123962516D01*
X149357506Y-124014584D01*
X149357495Y-124014586D01*
X149045586Y-124100691D01*
X149045581Y-124100693D01*
X148744724Y-124219845D01*
X148744721Y-124219846D01*
X148458418Y-124370660D01*
X148190003Y-124551380D01*
X148190002Y-124551380D01*
X147942566Y-124759924D01*
X147934012Y-124768881D01*
X147880146Y-124797901D01*
X147862422Y-124799500D01*
X112137578Y-124799500D01*
X112079387Y-124780593D01*
X112065988Y-124768881D01*
X112057433Y-124759924D01*
X111866365Y-124598889D01*
X111810001Y-124551384D01*
X111809997Y-124551381D01*
X111809992Y-124551377D01*
X111541582Y-124370660D01*
X111255278Y-124219845D01*
X111255275Y-124219844D01*
X110954426Y-124100695D01*
X110954424Y-124100694D01*
X110954423Y-124100694D01*
X110642498Y-124014585D01*
X110642496Y-124014584D01*
X110642490Y-124014583D01*
X110377008Y-123971301D01*
X110323122Y-123962516D01*
X110323120Y-123962515D01*
X110323115Y-123962515D01*
X110323111Y-123962514D01*
X110000008Y-123945093D01*
X109999994Y-123945093D01*
X109676886Y-123962515D01*
X109676883Y-123962516D01*
X109357505Y-124014584D01*
X109357494Y-124014586D01*
X109045586Y-124100691D01*
X108744719Y-124219847D01*
X108458420Y-124370659D01*
X108190003Y-124551380D01*
X108190002Y-124551380D01*
X107942566Y-124759924D01*
X107934012Y-124768881D01*
X107880146Y-124797901D01*
X107862422Y-124799500D01*
X106949500Y-124799500D01*
X106891309Y-124780593D01*
X106855345Y-124731093D01*
X106850500Y-124700500D01*
X106850500Y-118534108D01*
X109099500Y-118534108D01*
X109099500Y-118665892D01*
X109129579Y-118778151D01*
X109133609Y-118793190D01*
X109199496Y-118907309D01*
X109199498Y-118907311D01*
X109199500Y-118907314D01*
X109292686Y-119000500D01*
X109292688Y-119000501D01*
X109292690Y-119000503D01*
X109406810Y-119066390D01*
X109406808Y-119066390D01*
X109406812Y-119066391D01*
X109406814Y-119066392D01*
X109534108Y-119100500D01*
X109563810Y-119100500D01*
X109622001Y-119119407D01*
X109633814Y-119129496D01*
X114984788Y-124480470D01*
X115019687Y-124500618D01*
X115047739Y-124516815D01*
X115047742Y-124516816D01*
X115047745Y-124516818D01*
X115061750Y-124524904D01*
X115064708Y-124526612D01*
X115064712Y-124526614D01*
X115153856Y-124550500D01*
X115153858Y-124550500D01*
X127046142Y-124550500D01*
X127046144Y-124550500D01*
X127135288Y-124526614D01*
X127152252Y-124516819D01*
X127152254Y-124516819D01*
X127169123Y-124507079D01*
X127215212Y-124480470D01*
X129551971Y-122143709D01*
X138649500Y-122143709D01*
X138649500Y-122356290D01*
X138682752Y-122566238D01*
X138748443Y-122768412D01*
X138844948Y-122957815D01*
X138844950Y-122957819D01*
X138969891Y-123129786D01*
X138969893Y-123129788D01*
X138969896Y-123129792D01*
X139120208Y-123280104D01*
X139120211Y-123280106D01*
X139120213Y-123280108D01*
X139292180Y-123405049D01*
X139292184Y-123405051D01*
X139481588Y-123501557D01*
X139683757Y-123567246D01*
X139683758Y-123567246D01*
X139683761Y-123567247D01*
X139893710Y-123600500D01*
X139893713Y-123600500D01*
X140106290Y-123600500D01*
X140316238Y-123567247D01*
X140316239Y-123567246D01*
X140316243Y-123567246D01*
X140518412Y-123501557D01*
X140707816Y-123405051D01*
X140879792Y-123280104D01*
X141030104Y-123129792D01*
X141155051Y-122957816D01*
X141251557Y-122768412D01*
X141317246Y-122566243D01*
X141350500Y-122356287D01*
X141350500Y-122143713D01*
X141350500Y-122143709D01*
X141317247Y-121933761D01*
X141314925Y-121926614D01*
X141251557Y-121731588D01*
X141155051Y-121542184D01*
X141155049Y-121542180D01*
X141030108Y-121370213D01*
X141030106Y-121370211D01*
X141030104Y-121370208D01*
X140879792Y-121219896D01*
X140879788Y-121219893D01*
X140879786Y-121219891D01*
X140707819Y-121094950D01*
X140707815Y-121094948D01*
X140518412Y-120998443D01*
X140316238Y-120932752D01*
X140106290Y-120899500D01*
X140106287Y-120899500D01*
X139893713Y-120899500D01*
X139893710Y-120899500D01*
X139683761Y-120932752D01*
X139481587Y-120998443D01*
X139292184Y-121094948D01*
X139292180Y-121094950D01*
X139120213Y-121219891D01*
X138969891Y-121370213D01*
X138844950Y-121542180D01*
X138844948Y-121542184D01*
X138748443Y-121731587D01*
X138682752Y-121933761D01*
X138649500Y-122143709D01*
X129551971Y-122143709D01*
X129566185Y-122129495D01*
X129620702Y-122101719D01*
X129636189Y-122100500D01*
X129665890Y-122100500D01*
X129665892Y-122100500D01*
X129793186Y-122066392D01*
X129907314Y-122000500D01*
X129935106Y-121972707D01*
X129943078Y-121967347D01*
X129963712Y-121961461D01*
X129982834Y-121951719D01*
X129998321Y-121950500D01*
X130246142Y-121950500D01*
X130246144Y-121950500D01*
X130335288Y-121926614D01*
X130345912Y-121920480D01*
X130415212Y-121880470D01*
X131330470Y-120965212D01*
X131376614Y-120885288D01*
X131380811Y-120869624D01*
X131386801Y-120847272D01*
X131395085Y-120816353D01*
X131400500Y-120796144D01*
X131400500Y-120789882D01*
X131419407Y-120731691D01*
X131468907Y-120695727D01*
X131530093Y-120695727D01*
X131549000Y-120704146D01*
X131656810Y-120766390D01*
X131656808Y-120766390D01*
X131656812Y-120766391D01*
X131656814Y-120766392D01*
X131718908Y-120783030D01*
X131770221Y-120816353D01*
X131792148Y-120873474D01*
X131779021Y-120928156D01*
X131733608Y-121006812D01*
X131724439Y-121041034D01*
X131699500Y-121134108D01*
X131699500Y-121265892D01*
X131720211Y-121343186D01*
X131733609Y-121393190D01*
X131799496Y-121507309D01*
X131799498Y-121507311D01*
X131799500Y-121507314D01*
X131892686Y-121600500D01*
X131892688Y-121600501D01*
X131892690Y-121600503D01*
X132006810Y-121666390D01*
X132006808Y-121666390D01*
X132006812Y-121666391D01*
X132006814Y-121666392D01*
X132134108Y-121700500D01*
X132134110Y-121700500D01*
X132265890Y-121700500D01*
X132265892Y-121700500D01*
X132393186Y-121666392D01*
X132393188Y-121666390D01*
X132393190Y-121666390D01*
X132507309Y-121600503D01*
X132507309Y-121600502D01*
X132507314Y-121600500D01*
X132528319Y-121579494D01*
X132582834Y-121551719D01*
X132598321Y-121550500D01*
X132746142Y-121550500D01*
X132746144Y-121550500D01*
X132835288Y-121526614D01*
X132845912Y-121520480D01*
X132915212Y-121480470D01*
X133181986Y-121213694D01*
X133236503Y-121185917D01*
X133296935Y-121195488D01*
X133340200Y-121238753D01*
X133346768Y-121259906D01*
X133347821Y-121259624D01*
X133349500Y-121265890D01*
X133349500Y-121265892D01*
X133370211Y-121343186D01*
X133383609Y-121393190D01*
X133449496Y-121507309D01*
X133449498Y-121507311D01*
X133449500Y-121507314D01*
X133542686Y-121600500D01*
X133542688Y-121600501D01*
X133542690Y-121600503D01*
X133656810Y-121666390D01*
X133656808Y-121666390D01*
X133656812Y-121666391D01*
X133656814Y-121666392D01*
X133784108Y-121700500D01*
X133784110Y-121700500D01*
X133915890Y-121700500D01*
X133915892Y-121700500D01*
X134043186Y-121666392D01*
X134043188Y-121666390D01*
X134043190Y-121666390D01*
X134157309Y-121600503D01*
X134157309Y-121600502D01*
X134157314Y-121600500D01*
X134250500Y-121507314D01*
X134303697Y-121415173D01*
X134349166Y-121374233D01*
X134410016Y-121367837D01*
X134463004Y-121398430D01*
X134475169Y-121415173D01*
X134487817Y-121437079D01*
X134499500Y-121457314D01*
X134592686Y-121550500D01*
X134592688Y-121550501D01*
X134592690Y-121550503D01*
X134706810Y-121616390D01*
X134706808Y-121616390D01*
X134706812Y-121616391D01*
X134706814Y-121616392D01*
X134834108Y-121650500D01*
X134834110Y-121650500D01*
X134965890Y-121650500D01*
X134965892Y-121650500D01*
X135093186Y-121616392D01*
X135093188Y-121616390D01*
X135093190Y-121616390D01*
X135207309Y-121550503D01*
X135207309Y-121550502D01*
X135207314Y-121550500D01*
X135300500Y-121457314D01*
X135329656Y-121406814D01*
X135366390Y-121343190D01*
X135366390Y-121343188D01*
X135366392Y-121343186D01*
X135400500Y-121215892D01*
X135400500Y-121084108D01*
X135366392Y-120956814D01*
X135366390Y-120956811D01*
X135366390Y-120956809D01*
X135300503Y-120842690D01*
X135300501Y-120842688D01*
X135300500Y-120842686D01*
X135207314Y-120749500D01*
X135207311Y-120749498D01*
X135207309Y-120749496D01*
X135093189Y-120683609D01*
X135093191Y-120683609D01*
X135028927Y-120666390D01*
X134973875Y-120651639D01*
X134922563Y-120618316D01*
X134900636Y-120561194D01*
X134900500Y-120556013D01*
X134900500Y-119807001D01*
X144350000Y-119807001D01*
X144350000Y-120231624D01*
X144364506Y-120304546D01*
X144364507Y-120304548D01*
X144419758Y-120387237D01*
X144419762Y-120387241D01*
X144502451Y-120442492D01*
X144502453Y-120442493D01*
X144575375Y-120456999D01*
X144575377Y-120457000D01*
X144799999Y-120457000D01*
X144800000Y-120456999D01*
X144800000Y-119807001D01*
X145050000Y-119807001D01*
X145050000Y-120456999D01*
X145050001Y-120457000D01*
X145274623Y-120457000D01*
X145274624Y-120456999D01*
X145347546Y-120442493D01*
X145347548Y-120442492D01*
X145430237Y-120387241D01*
X145430241Y-120387237D01*
X145485492Y-120304548D01*
X145485493Y-120304546D01*
X145499999Y-120231624D01*
X145500000Y-120231622D01*
X145500000Y-119807001D01*
X145499999Y-119807000D01*
X145050001Y-119807000D01*
X145050000Y-119807001D01*
X144800000Y-119807001D01*
X144799999Y-119807000D01*
X144350001Y-119807000D01*
X144350000Y-119807001D01*
X134900500Y-119807001D01*
X134900500Y-119750756D01*
X134908935Y-119710769D01*
X134922707Y-119679580D01*
X134925500Y-119655505D01*
X134925500Y-119132375D01*
X144350000Y-119132375D01*
X144350000Y-119556999D01*
X144350001Y-119557000D01*
X144799999Y-119557000D01*
X144800000Y-119556999D01*
X144800000Y-118907001D01*
X145050000Y-118907001D01*
X145050000Y-119556999D01*
X145050001Y-119557000D01*
X145499999Y-119557000D01*
X145500000Y-119556999D01*
X145500000Y-119132377D01*
X145499999Y-119132375D01*
X145485493Y-119059453D01*
X145485492Y-119059451D01*
X145430241Y-118976762D01*
X145430237Y-118976758D01*
X145347548Y-118921507D01*
X145347546Y-118921506D01*
X145274624Y-118907000D01*
X145050001Y-118907000D01*
X145050000Y-118907001D01*
X144800000Y-118907001D01*
X144799999Y-118907000D01*
X144575375Y-118907000D01*
X144502453Y-118921506D01*
X144502451Y-118921507D01*
X144419762Y-118976758D01*
X144419758Y-118976762D01*
X144364507Y-119059451D01*
X144364506Y-119059453D01*
X144350000Y-119132375D01*
X134925500Y-119132375D01*
X134925499Y-118199500D01*
X134925499Y-116744499D01*
X134925499Y-116744496D01*
X134922707Y-116720420D01*
X134913913Y-116700503D01*
X134908935Y-116689228D01*
X134900500Y-116649241D01*
X134900500Y-116530589D01*
X134919407Y-116472398D01*
X134968907Y-116436434D01*
X134973847Y-116434970D01*
X135043186Y-116416392D01*
X135157314Y-116350500D01*
X135250500Y-116257314D01*
X135262089Y-116237241D01*
X135316390Y-116143190D01*
X135316390Y-116143188D01*
X135316392Y-116143186D01*
X135350500Y-116015892D01*
X135350500Y-115884108D01*
X135316392Y-115756814D01*
X135316390Y-115756811D01*
X135316390Y-115756809D01*
X135250503Y-115642690D01*
X135250501Y-115642688D01*
X135250500Y-115642686D01*
X135157314Y-115549500D01*
X135157311Y-115549498D01*
X135157309Y-115549496D01*
X135043189Y-115483609D01*
X135043191Y-115483609D01*
X134993799Y-115470375D01*
X134915892Y-115449500D01*
X134784108Y-115449500D01*
X134706200Y-115470375D01*
X134656809Y-115483609D01*
X134542690Y-115549496D01*
X134449496Y-115642690D01*
X134383609Y-115756809D01*
X134349500Y-115884109D01*
X134349500Y-115913810D01*
X134348887Y-115915694D01*
X134349427Y-115917600D01*
X134344905Y-115927951D01*
X134330593Y-115972001D01*
X134328306Y-115975025D01*
X134324664Y-115979653D01*
X134269530Y-116034788D01*
X134240663Y-116084788D01*
X134237119Y-116090925D01*
X134237116Y-116090930D01*
X134223387Y-116114709D01*
X134223386Y-116114711D01*
X134223386Y-116114712D01*
X134200118Y-116201552D01*
X134199500Y-116203857D01*
X134199500Y-116436425D01*
X134180593Y-116494616D01*
X134131093Y-116530580D01*
X134069907Y-116530580D01*
X134060518Y-116526992D01*
X134004580Y-116502293D01*
X134004579Y-116502292D01*
X134004577Y-116502292D01*
X133980508Y-116499500D01*
X133719499Y-116499500D01*
X133719496Y-116499501D01*
X133695418Y-116502293D01*
X133596922Y-116545784D01*
X133596921Y-116545784D01*
X133596921Y-116545785D01*
X133570001Y-116572704D01*
X133515487Y-116600480D01*
X133455055Y-116590909D01*
X133429999Y-116572705D01*
X133403079Y-116545785D01*
X133304580Y-116502293D01*
X133304578Y-116502292D01*
X133304574Y-116502291D01*
X133298245Y-116500569D01*
X133247061Y-116467046D01*
X133225356Y-116409840D01*
X133241422Y-116350801D01*
X133274741Y-116319306D01*
X133307314Y-116300500D01*
X133400500Y-116207314D01*
X133402496Y-116203857D01*
X133466390Y-116093190D01*
X133466390Y-116093188D01*
X133466392Y-116093186D01*
X133500500Y-115965892D01*
X133500500Y-115834108D01*
X133466392Y-115706814D01*
X133466390Y-115706811D01*
X133466390Y-115706809D01*
X133400503Y-115592690D01*
X133400501Y-115592688D01*
X133400500Y-115592686D01*
X133307314Y-115499500D01*
X133307311Y-115499498D01*
X133307309Y-115499496D01*
X133193189Y-115433609D01*
X133193191Y-115433609D01*
X133143799Y-115420375D01*
X133065892Y-115399500D01*
X132934108Y-115399500D01*
X132856200Y-115420375D01*
X132806809Y-115433609D01*
X132692690Y-115499496D01*
X132692689Y-115499497D01*
X132692686Y-115499499D01*
X132692686Y-115499500D01*
X132671680Y-115520505D01*
X132617166Y-115548281D01*
X132601679Y-115549500D01*
X132553856Y-115549500D01*
X132464712Y-115573386D01*
X132384788Y-115619530D01*
X132169530Y-115834788D01*
X132132172Y-115899496D01*
X132132170Y-115899499D01*
X132132169Y-115899500D01*
X132123907Y-115913810D01*
X132123386Y-115914712D01*
X132108036Y-115972001D01*
X132099500Y-116003857D01*
X132099500Y-116436425D01*
X132080593Y-116494616D01*
X132031093Y-116530580D01*
X131969907Y-116530580D01*
X131960518Y-116526992D01*
X131904580Y-116502293D01*
X131904579Y-116502292D01*
X131904577Y-116502292D01*
X131880508Y-116499500D01*
X131619499Y-116499500D01*
X131619496Y-116499501D01*
X131595418Y-116502293D01*
X131496922Y-116545784D01*
X131496921Y-116545784D01*
X131496921Y-116545785D01*
X131470001Y-116572704D01*
X131415487Y-116600480D01*
X131355055Y-116590909D01*
X131329999Y-116572705D01*
X131303079Y-116545785D01*
X131204580Y-116502293D01*
X131204577Y-116502292D01*
X131204576Y-116502292D01*
X131180508Y-116499500D01*
X130919499Y-116499500D01*
X130919496Y-116499501D01*
X130895418Y-116502293D01*
X130796922Y-116545784D01*
X130796921Y-116545784D01*
X130796921Y-116545785D01*
X130770001Y-116572704D01*
X130715487Y-116600480D01*
X130655055Y-116590909D01*
X130629999Y-116572705D01*
X130603079Y-116545785D01*
X130504580Y-116502293D01*
X130504577Y-116502292D01*
X130504576Y-116502292D01*
X130480508Y-116499500D01*
X130219499Y-116499500D01*
X130219496Y-116499501D01*
X130195418Y-116502293D01*
X130096920Y-116545785D01*
X130091243Y-116549674D01*
X130032550Y-116566958D01*
X129974907Y-116546442D01*
X129965295Y-116538000D01*
X129934065Y-116506770D01*
X129826198Y-116456471D01*
X129826200Y-116456471D01*
X129777045Y-116450000D01*
X129775001Y-116450000D01*
X129775000Y-116450001D01*
X129775000Y-119949998D01*
X129775001Y-119949999D01*
X129777041Y-119949999D01*
X129777051Y-119949998D01*
X129826196Y-119943529D01*
X129826198Y-119943529D01*
X129858659Y-119928392D01*
X129919388Y-119920935D01*
X129972903Y-119950597D01*
X129998762Y-120006049D01*
X129999500Y-120018116D01*
X129999500Y-120313810D01*
X129997031Y-120321407D01*
X129998281Y-120329297D01*
X129987756Y-120349952D01*
X129980593Y-120372001D01*
X129970504Y-120383814D01*
X129883814Y-120470504D01*
X129829297Y-120498281D01*
X129813810Y-120499500D01*
X129136190Y-120499500D01*
X129077999Y-120480593D01*
X129066186Y-120470504D01*
X128779496Y-120183814D01*
X128751719Y-120129297D01*
X128750500Y-120113810D01*
X128750500Y-120084109D01*
X128750500Y-120084108D01*
X128734694Y-120025119D01*
X128737896Y-119964021D01*
X128776401Y-119916471D01*
X128830317Y-119900499D01*
X129080504Y-119900499D01*
X129104580Y-119897707D01*
X129174808Y-119866698D01*
X129203073Y-119854218D01*
X129203074Y-119854217D01*
X129203079Y-119854215D01*
X129203082Y-119854211D01*
X129208746Y-119850332D01*
X129267437Y-119833041D01*
X129325083Y-119853550D01*
X129334704Y-119861999D01*
X129365934Y-119893229D01*
X129473801Y-119943528D01*
X129473799Y-119943528D01*
X129522950Y-119949999D01*
X129522961Y-119950000D01*
X129524999Y-119949999D01*
X129525000Y-119949999D01*
X129525000Y-116450000D01*
X129522947Y-116450001D01*
X129473802Y-116456470D01*
X129473798Y-116456471D01*
X129365933Y-116506770D01*
X129334703Y-116538001D01*
X129280186Y-116565777D01*
X129219754Y-116556205D01*
X129208753Y-116549672D01*
X129203079Y-116545785D01*
X129185448Y-116538000D01*
X129104580Y-116502293D01*
X129104577Y-116502292D01*
X129104576Y-116502292D01*
X129080508Y-116499500D01*
X128819499Y-116499500D01*
X128819496Y-116499501D01*
X128795418Y-116502293D01*
X128696922Y-116545784D01*
X128696921Y-116545784D01*
X128696921Y-116545785D01*
X128670001Y-116572704D01*
X128615487Y-116600480D01*
X128555055Y-116590909D01*
X128529999Y-116572705D01*
X128503079Y-116545785D01*
X128404580Y-116502293D01*
X128404577Y-116502292D01*
X128404576Y-116502292D01*
X128380508Y-116499500D01*
X128119499Y-116499500D01*
X128119496Y-116499501D01*
X128095418Y-116502293D01*
X127996922Y-116545784D01*
X127996921Y-116545784D01*
X127996921Y-116545785D01*
X127970001Y-116572704D01*
X127915487Y-116600480D01*
X127855055Y-116590909D01*
X127829999Y-116572705D01*
X127803079Y-116545785D01*
X127704580Y-116502293D01*
X127704577Y-116502292D01*
X127704576Y-116502292D01*
X127680508Y-116499500D01*
X127419499Y-116499500D01*
X127419496Y-116499501D01*
X127395418Y-116502293D01*
X127296922Y-116545784D01*
X127296921Y-116545784D01*
X127296921Y-116545785D01*
X127270001Y-116572704D01*
X127215487Y-116600480D01*
X127155055Y-116590909D01*
X127129999Y-116572705D01*
X127103079Y-116545785D01*
X127004580Y-116502293D01*
X127004577Y-116502292D01*
X127004576Y-116502292D01*
X126980508Y-116499500D01*
X126719499Y-116499500D01*
X126719496Y-116499501D01*
X126695418Y-116502293D01*
X126596922Y-116545784D01*
X126596921Y-116545784D01*
X126596921Y-116545785D01*
X126570001Y-116572704D01*
X126515487Y-116600480D01*
X126455055Y-116590909D01*
X126429999Y-116572705D01*
X126403079Y-116545785D01*
X126304580Y-116502293D01*
X126304577Y-116502292D01*
X126304576Y-116502292D01*
X126280508Y-116499500D01*
X126019499Y-116499500D01*
X126019496Y-116499501D01*
X125995418Y-116502293D01*
X125896922Y-116545784D01*
X125896921Y-116545784D01*
X125896921Y-116545785D01*
X125870001Y-116572704D01*
X125815487Y-116600480D01*
X125755055Y-116590909D01*
X125729999Y-116572705D01*
X125703079Y-116545785D01*
X125604580Y-116502293D01*
X125604577Y-116502292D01*
X125604576Y-116502292D01*
X125580508Y-116499500D01*
X125319499Y-116499500D01*
X125319496Y-116499501D01*
X125295418Y-116502293D01*
X125196922Y-116545784D01*
X125196921Y-116545785D01*
X125120785Y-116621921D01*
X125086088Y-116700503D01*
X125077292Y-116720423D01*
X125074500Y-116744488D01*
X125074500Y-119588810D01*
X125072032Y-119596404D01*
X125073282Y-119604293D01*
X125062757Y-119624951D01*
X125055593Y-119647001D01*
X125045510Y-119658806D01*
X125033815Y-119670502D01*
X124979302Y-119698280D01*
X124963811Y-119699500D01*
X124934108Y-119699500D01*
X124856200Y-119720375D01*
X124806809Y-119733609D01*
X124692690Y-119799496D01*
X124599496Y-119892690D01*
X124533609Y-120006809D01*
X124528702Y-120025122D01*
X124499500Y-120134108D01*
X124499500Y-120265892D01*
X124523824Y-120356671D01*
X124533609Y-120393190D01*
X124599496Y-120507309D01*
X124599498Y-120507311D01*
X124599500Y-120507314D01*
X124692686Y-120600500D01*
X124692688Y-120600501D01*
X124692690Y-120600503D01*
X124806810Y-120666390D01*
X124806808Y-120666390D01*
X124806812Y-120666391D01*
X124806814Y-120666392D01*
X124934108Y-120700500D01*
X124934110Y-120700500D01*
X125065890Y-120700500D01*
X125065892Y-120700500D01*
X125193186Y-120666392D01*
X125193188Y-120666390D01*
X125193190Y-120666390D01*
X125307309Y-120600503D01*
X125307309Y-120600502D01*
X125307314Y-120600500D01*
X125357493Y-120550320D01*
X125412007Y-120522544D01*
X125472439Y-120532115D01*
X125515704Y-120575379D01*
X125525276Y-120635811D01*
X125523122Y-120645947D01*
X125517644Y-120666392D01*
X125499500Y-120734108D01*
X125499500Y-120865892D01*
X125526294Y-120965890D01*
X125533609Y-120993190D01*
X125599496Y-121107309D01*
X125599498Y-121107311D01*
X125599500Y-121107314D01*
X125692686Y-121200500D01*
X125692688Y-121200501D01*
X125692690Y-121200503D01*
X125806810Y-121266390D01*
X125806808Y-121266390D01*
X125806812Y-121266391D01*
X125806814Y-121266392D01*
X125934108Y-121300500D01*
X125934110Y-121300500D01*
X126065890Y-121300500D01*
X126065892Y-121300500D01*
X126193186Y-121266392D01*
X126193188Y-121266390D01*
X126193190Y-121266390D01*
X126312934Y-121197256D01*
X126314139Y-121199343D01*
X126361913Y-121182401D01*
X126420587Y-121199751D01*
X126457857Y-121248276D01*
X126460178Y-121255743D01*
X126483609Y-121343190D01*
X126549496Y-121457309D01*
X126549498Y-121457311D01*
X126549500Y-121457314D01*
X126642686Y-121550500D01*
X126642688Y-121550501D01*
X126642690Y-121550503D01*
X126756810Y-121616390D01*
X126756808Y-121616390D01*
X126756812Y-121616391D01*
X126756814Y-121616392D01*
X126884108Y-121650500D01*
X126884110Y-121650500D01*
X127015890Y-121650500D01*
X127015892Y-121650500D01*
X127143186Y-121616392D01*
X127143188Y-121616390D01*
X127143190Y-121616390D01*
X127257309Y-121550503D01*
X127257309Y-121550502D01*
X127257314Y-121550500D01*
X127350500Y-121457314D01*
X127374830Y-121415172D01*
X127420299Y-121374233D01*
X127481149Y-121367837D01*
X127534137Y-121398430D01*
X127546302Y-121415174D01*
X127599496Y-121507309D01*
X127599498Y-121507311D01*
X127599500Y-121507314D01*
X127692686Y-121600500D01*
X127692688Y-121600501D01*
X127692690Y-121600503D01*
X127806810Y-121666390D01*
X127806808Y-121666390D01*
X127806812Y-121666391D01*
X127806814Y-121666392D01*
X127934108Y-121700500D01*
X127934110Y-121700500D01*
X128065890Y-121700500D01*
X128065892Y-121700500D01*
X128193186Y-121666392D01*
X128193188Y-121666390D01*
X128193190Y-121666390D01*
X128307309Y-121600503D01*
X128307309Y-121600502D01*
X128307314Y-121600500D01*
X128400500Y-121507314D01*
X128404256Y-121500808D01*
X128466390Y-121393190D01*
X128466390Y-121393188D01*
X128466392Y-121393186D01*
X128500500Y-121265892D01*
X128500500Y-121135189D01*
X128519407Y-121076998D01*
X128568907Y-121041034D01*
X128630093Y-121041034D01*
X128669501Y-121065183D01*
X128734787Y-121130469D01*
X128808811Y-121173207D01*
X128808812Y-121173208D01*
X128814708Y-121176612D01*
X128814709Y-121176612D01*
X128814712Y-121176614D01*
X128903856Y-121200500D01*
X129081250Y-121200500D01*
X129139441Y-121219407D01*
X129175405Y-121268907D01*
X129175405Y-121330093D01*
X129166987Y-121349000D01*
X129133608Y-121406812D01*
X129099500Y-121534109D01*
X129099500Y-121563810D01*
X129080593Y-121622001D01*
X129070504Y-121633814D01*
X126883814Y-123820504D01*
X126829297Y-123848281D01*
X126813810Y-123849500D01*
X115386190Y-123849500D01*
X115327999Y-123830593D01*
X115316186Y-123820504D01*
X113639391Y-122143709D01*
X118649500Y-122143709D01*
X118649500Y-122356290D01*
X118682752Y-122566238D01*
X118748443Y-122768412D01*
X118844948Y-122957815D01*
X118844950Y-122957819D01*
X118969891Y-123129786D01*
X118969893Y-123129788D01*
X118969896Y-123129792D01*
X119120208Y-123280104D01*
X119120211Y-123280106D01*
X119120213Y-123280108D01*
X119292180Y-123405049D01*
X119292184Y-123405051D01*
X119481588Y-123501557D01*
X119683757Y-123567246D01*
X119683758Y-123567246D01*
X119683761Y-123567247D01*
X119893710Y-123600500D01*
X119893713Y-123600500D01*
X120106290Y-123600500D01*
X120316238Y-123567247D01*
X120316239Y-123567246D01*
X120316243Y-123567246D01*
X120518412Y-123501557D01*
X120707816Y-123405051D01*
X120879792Y-123280104D01*
X121030104Y-123129792D01*
X121155051Y-122957816D01*
X121251557Y-122768412D01*
X121317246Y-122566243D01*
X121350500Y-122356287D01*
X121350500Y-122143713D01*
X121350500Y-122143709D01*
X121317247Y-121933761D01*
X121314925Y-121926614D01*
X121251557Y-121731588D01*
X121155051Y-121542184D01*
X121155049Y-121542180D01*
X121030108Y-121370213D01*
X121030106Y-121370211D01*
X121030104Y-121370208D01*
X120879792Y-121219896D01*
X120879788Y-121219893D01*
X120879786Y-121219891D01*
X120707819Y-121094950D01*
X120707815Y-121094948D01*
X120518412Y-120998443D01*
X120316238Y-120932752D01*
X120106290Y-120899500D01*
X120106287Y-120899500D01*
X119893713Y-120899500D01*
X119893710Y-120899500D01*
X119683761Y-120932752D01*
X119481587Y-120998443D01*
X119292184Y-121094948D01*
X119292180Y-121094950D01*
X119120213Y-121219891D01*
X118969891Y-121370213D01*
X118844950Y-121542180D01*
X118844948Y-121542184D01*
X118748443Y-121731587D01*
X118682752Y-121933761D01*
X118649500Y-122143709D01*
X113639391Y-122143709D01*
X111302683Y-119807001D01*
X112350000Y-119807001D01*
X112350000Y-120231624D01*
X112364506Y-120304546D01*
X112364507Y-120304548D01*
X112419758Y-120387237D01*
X112419762Y-120387241D01*
X112502451Y-120442492D01*
X112502453Y-120442493D01*
X112575375Y-120456999D01*
X112575377Y-120457000D01*
X112799999Y-120457000D01*
X112800000Y-120456999D01*
X112800000Y-119807001D01*
X113050000Y-119807001D01*
X113050000Y-120456999D01*
X113050001Y-120457000D01*
X113274623Y-120457000D01*
X113274624Y-120456999D01*
X113347546Y-120442493D01*
X113347548Y-120442492D01*
X113430237Y-120387241D01*
X113430241Y-120387237D01*
X113485492Y-120304548D01*
X113485493Y-120304546D01*
X113499999Y-120231624D01*
X113500000Y-120231622D01*
X113500000Y-119807001D01*
X113499999Y-119807000D01*
X113050001Y-119807000D01*
X113050000Y-119807001D01*
X112800000Y-119807001D01*
X112799999Y-119807000D01*
X112350001Y-119807000D01*
X112350000Y-119807001D01*
X111302683Y-119807001D01*
X110628057Y-119132375D01*
X112350000Y-119132375D01*
X112350000Y-119556999D01*
X112350001Y-119557000D01*
X112799999Y-119557000D01*
X112800000Y-119556999D01*
X112800000Y-118907001D01*
X113050000Y-118907001D01*
X113050000Y-119556999D01*
X113050001Y-119557000D01*
X113499999Y-119557000D01*
X113500000Y-119556999D01*
X113500000Y-119132377D01*
X113499999Y-119132375D01*
X113485493Y-119059453D01*
X113485492Y-119059451D01*
X113430241Y-118976762D01*
X113430237Y-118976758D01*
X113347548Y-118921507D01*
X113347546Y-118921506D01*
X113274624Y-118907000D01*
X113050001Y-118907000D01*
X113050000Y-118907001D01*
X112800000Y-118907001D01*
X112799999Y-118907000D01*
X112575375Y-118907000D01*
X112502453Y-118921506D01*
X112502451Y-118921507D01*
X112419762Y-118976758D01*
X112419758Y-118976762D01*
X112364507Y-119059451D01*
X112364506Y-119059453D01*
X112350000Y-119132375D01*
X110628057Y-119132375D01*
X110129496Y-118633814D01*
X110101719Y-118579297D01*
X110100500Y-118563810D01*
X110100500Y-118534109D01*
X110100500Y-118534108D01*
X110066392Y-118406814D01*
X110066390Y-118406811D01*
X110066390Y-118406809D01*
X110000503Y-118292690D01*
X110000501Y-118292688D01*
X110000500Y-118292686D01*
X109907314Y-118199500D01*
X109907311Y-118199498D01*
X109907309Y-118199496D01*
X109793189Y-118133609D01*
X109793191Y-118133609D01*
X109743799Y-118120375D01*
X109665892Y-118099500D01*
X109534108Y-118099500D01*
X109456200Y-118120375D01*
X109406809Y-118133609D01*
X109292690Y-118199496D01*
X109199496Y-118292690D01*
X109133609Y-118406809D01*
X109133608Y-118406814D01*
X109099500Y-118534108D01*
X106850500Y-118534108D01*
X106850500Y-115657001D01*
X112350000Y-115657001D01*
X112350000Y-116081624D01*
X112364506Y-116154546D01*
X112364507Y-116154548D01*
X112419758Y-116237237D01*
X112419762Y-116237241D01*
X112502451Y-116292492D01*
X112502453Y-116292493D01*
X112575375Y-116306999D01*
X112575377Y-116307000D01*
X112799999Y-116307000D01*
X112800000Y-116306999D01*
X112800000Y-115657001D01*
X113050000Y-115657001D01*
X113050000Y-116306999D01*
X113050001Y-116307000D01*
X113274623Y-116307000D01*
X113274624Y-116306999D01*
X113347546Y-116292493D01*
X113347548Y-116292492D01*
X113430237Y-116237241D01*
X113430241Y-116237237D01*
X113485492Y-116154548D01*
X113485493Y-116154546D01*
X113499999Y-116081624D01*
X113500000Y-116081622D01*
X113500000Y-115657001D01*
X113499999Y-115657000D01*
X113050001Y-115657000D01*
X113050000Y-115657001D01*
X112800000Y-115657001D01*
X112799999Y-115657000D01*
X112350001Y-115657000D01*
X112350000Y-115657001D01*
X106850500Y-115657001D01*
X106850500Y-114982375D01*
X112350000Y-114982375D01*
X112350000Y-115406999D01*
X112350001Y-115407000D01*
X112799999Y-115407000D01*
X112800000Y-115406999D01*
X112800000Y-114757001D01*
X113050000Y-114757001D01*
X113050000Y-115406999D01*
X113050001Y-115407000D01*
X113499999Y-115407000D01*
X113500000Y-115406999D01*
X113500000Y-114987253D01*
X114549500Y-114987253D01*
X114549500Y-116076746D01*
X114549501Y-116076758D01*
X114561132Y-116135227D01*
X114561133Y-116135231D01*
X114605448Y-116201552D01*
X114605451Y-116201554D01*
X114679877Y-116251285D01*
X114677659Y-116254603D01*
X114709849Y-116282029D01*
X114724500Y-116333858D01*
X114724500Y-118880141D01*
X114705593Y-118938332D01*
X114678086Y-118960037D01*
X114679876Y-118962716D01*
X114605451Y-119012445D01*
X114605445Y-119012451D01*
X114561134Y-119078766D01*
X114561132Y-119078772D01*
X114549501Y-119137241D01*
X114549500Y-119137253D01*
X114549500Y-120226746D01*
X114549501Y-120226758D01*
X114557286Y-120265892D01*
X114561133Y-120285231D01*
X114605448Y-120351552D01*
X114605451Y-120351554D01*
X114658853Y-120387237D01*
X114671769Y-120395867D01*
X114716231Y-120404711D01*
X114730241Y-120407498D01*
X114730246Y-120407498D01*
X114730252Y-120407500D01*
X114730253Y-120407500D01*
X115419747Y-120407500D01*
X115419748Y-120407500D01*
X115478231Y-120395867D01*
X115543729Y-120352101D01*
X115602613Y-120335494D01*
X115660017Y-120356671D01*
X115668732Y-120364414D01*
X116170504Y-120866186D01*
X116198281Y-120920703D01*
X116199500Y-120936190D01*
X116199500Y-120965892D01*
X116210465Y-121006814D01*
X116233609Y-121093190D01*
X116299496Y-121207309D01*
X116299498Y-121207311D01*
X116299500Y-121207314D01*
X116392686Y-121300500D01*
X116392688Y-121300501D01*
X116392690Y-121300503D01*
X116506810Y-121366390D01*
X116506808Y-121366390D01*
X116506812Y-121366391D01*
X116506814Y-121366392D01*
X116634108Y-121400500D01*
X116634110Y-121400500D01*
X116765890Y-121400500D01*
X116765892Y-121400500D01*
X116893186Y-121366392D01*
X116893188Y-121366390D01*
X116893190Y-121366390D01*
X117007309Y-121300503D01*
X117007309Y-121300502D01*
X117007314Y-121300500D01*
X117100500Y-121207314D01*
X117136372Y-121145182D01*
X117166390Y-121093190D01*
X117166390Y-121093188D01*
X117166392Y-121093186D01*
X117200500Y-120965892D01*
X117200500Y-120834108D01*
X117166392Y-120706814D01*
X117166390Y-120706811D01*
X117166390Y-120706809D01*
X117100503Y-120592690D01*
X117100501Y-120592688D01*
X117100500Y-120592686D01*
X117007314Y-120499500D01*
X117007311Y-120499498D01*
X117007309Y-120499496D01*
X116893189Y-120433609D01*
X116893191Y-120433609D01*
X116843799Y-120420375D01*
X116765892Y-120399500D01*
X116765890Y-120399500D01*
X116736190Y-120399500D01*
X116677999Y-120380593D01*
X116666186Y-120370504D01*
X116188368Y-119892686D01*
X115697212Y-119401530D01*
X115649998Y-119374271D01*
X115609059Y-119328803D01*
X115600500Y-119288536D01*
X115600500Y-119137253D01*
X115600498Y-119137241D01*
X115596950Y-119119407D01*
X115588867Y-119078769D01*
X115544552Y-119012448D01*
X115526675Y-119000503D01*
X115470124Y-118962716D01*
X115472327Y-118959418D01*
X115440039Y-118931788D01*
X115425500Y-118880141D01*
X115425500Y-116333858D01*
X115444407Y-116275667D01*
X115471933Y-116253994D01*
X115470123Y-116251285D01*
X115495829Y-116234108D01*
X115544552Y-116201552D01*
X115588867Y-116135231D01*
X115600500Y-116076748D01*
X115600500Y-114987252D01*
X115588867Y-114928769D01*
X115544552Y-114862448D01*
X115544548Y-114862445D01*
X115478233Y-114818134D01*
X115478231Y-114818133D01*
X115478228Y-114818132D01*
X115478227Y-114818132D01*
X115419758Y-114806501D01*
X115419748Y-114806500D01*
X114730252Y-114806500D01*
X114730251Y-114806500D01*
X114730241Y-114806501D01*
X114671772Y-114818132D01*
X114671766Y-114818134D01*
X114605451Y-114862445D01*
X114605445Y-114862451D01*
X114561134Y-114928766D01*
X114561132Y-114928772D01*
X114549501Y-114987241D01*
X114549500Y-114987253D01*
X113500000Y-114987253D01*
X113500000Y-114982377D01*
X113499999Y-114982375D01*
X113485493Y-114909453D01*
X113485492Y-114909451D01*
X113430241Y-114826762D01*
X113430237Y-114826758D01*
X113347548Y-114771507D01*
X113347546Y-114771506D01*
X113274624Y-114757000D01*
X113050001Y-114757000D01*
X113050000Y-114757001D01*
X112800000Y-114757001D01*
X112799999Y-114757000D01*
X112575375Y-114757000D01*
X112502453Y-114771506D01*
X112502451Y-114771507D01*
X112419762Y-114826758D01*
X112419758Y-114826762D01*
X112364507Y-114909451D01*
X112364506Y-114909453D01*
X112350000Y-114982375D01*
X106850500Y-114982375D01*
X106850500Y-113484108D01*
X112499500Y-113484108D01*
X112499500Y-113615892D01*
X112529579Y-113728151D01*
X112533609Y-113743190D01*
X112599496Y-113857309D01*
X112599498Y-113857311D01*
X112599500Y-113857314D01*
X112692686Y-113950500D01*
X112692688Y-113950501D01*
X112692690Y-113950503D01*
X112806810Y-114016390D01*
X112806808Y-114016390D01*
X112806812Y-114016391D01*
X112806814Y-114016392D01*
X112934108Y-114050500D01*
X112934110Y-114050500D01*
X113065890Y-114050500D01*
X113065892Y-114050500D01*
X113193186Y-114016392D01*
X113193188Y-114016390D01*
X113193190Y-114016390D01*
X113307309Y-113950503D01*
X113307309Y-113950502D01*
X113307314Y-113950500D01*
X113328319Y-113929494D01*
X113335434Y-113925869D01*
X113340130Y-113919407D01*
X113362178Y-113912243D01*
X113382834Y-113901719D01*
X113398321Y-113900500D01*
X113446439Y-113900500D01*
X113448573Y-113900640D01*
X113453996Y-113900640D01*
X116696002Y-113900640D01*
X116696004Y-113900640D01*
X116785148Y-113876754D01*
X116785151Y-113876752D01*
X116796014Y-113870481D01*
X116818828Y-113857309D01*
X116865072Y-113830610D01*
X117551973Y-113143709D01*
X118649500Y-113143709D01*
X118649500Y-113356290D01*
X118682752Y-113566238D01*
X118748443Y-113768412D01*
X118844948Y-113957815D01*
X118844950Y-113957819D01*
X118969891Y-114129786D01*
X118969893Y-114129788D01*
X118969896Y-114129792D01*
X119120208Y-114280104D01*
X119120211Y-114280106D01*
X119120213Y-114280108D01*
X119292180Y-114405049D01*
X119292184Y-114405051D01*
X119481588Y-114501557D01*
X119683757Y-114567246D01*
X119683758Y-114567246D01*
X119683761Y-114567247D01*
X119893710Y-114600500D01*
X119893713Y-114600500D01*
X120106290Y-114600500D01*
X120316238Y-114567247D01*
X120316239Y-114567246D01*
X120316243Y-114567246D01*
X120518412Y-114501557D01*
X120707816Y-114405051D01*
X120879792Y-114280104D01*
X121030104Y-114129792D01*
X121155051Y-113957816D01*
X121251557Y-113768412D01*
X121317246Y-113566243D01*
X121350417Y-113356814D01*
X121350500Y-113356290D01*
X121350500Y-113143709D01*
X121317247Y-112933761D01*
X121317246Y-112933757D01*
X121251557Y-112731588D01*
X121155051Y-112542184D01*
X121155049Y-112542180D01*
X121030108Y-112370213D01*
X121030106Y-112370211D01*
X121030104Y-112370208D01*
X120879792Y-112219896D01*
X120879788Y-112219893D01*
X120879786Y-112219891D01*
X120707819Y-112094950D01*
X120707815Y-112094948D01*
X120518412Y-111998443D01*
X120316238Y-111932752D01*
X120106290Y-111899500D01*
X120106287Y-111899500D01*
X119893713Y-111899500D01*
X119893710Y-111899500D01*
X119683761Y-111932752D01*
X119481587Y-111998443D01*
X119292184Y-112094948D01*
X119292180Y-112094950D01*
X119120213Y-112219891D01*
X118969891Y-112370213D01*
X118844950Y-112542180D01*
X118844948Y-112542184D01*
X118748443Y-112731587D01*
X118682752Y-112933761D01*
X118649500Y-113143709D01*
X117551973Y-113143709D01*
X119116186Y-111579496D01*
X119170703Y-111551719D01*
X119186190Y-111550500D01*
X133813810Y-111550500D01*
X133872001Y-111569407D01*
X133883814Y-111579496D01*
X139670504Y-117366186D01*
X139698281Y-117420703D01*
X139699500Y-117436190D01*
X139699500Y-117465892D01*
X139729579Y-117578151D01*
X139733609Y-117593190D01*
X139799496Y-117707309D01*
X139799498Y-117707311D01*
X139799500Y-117707314D01*
X139892686Y-117800500D01*
X139892688Y-117800501D01*
X139892690Y-117800503D01*
X140006810Y-117866390D01*
X140006808Y-117866390D01*
X140006812Y-117866391D01*
X140006814Y-117866392D01*
X140134108Y-117900500D01*
X140134110Y-117900500D01*
X140265890Y-117900500D01*
X140265892Y-117900500D01*
X140393186Y-117866392D01*
X140393188Y-117866390D01*
X140393190Y-117866390D01*
X140507309Y-117800503D01*
X140507309Y-117800502D01*
X140507314Y-117800500D01*
X140600500Y-117707314D01*
X140666392Y-117593186D01*
X140700500Y-117465892D01*
X140700500Y-117334108D01*
X140666392Y-117206814D01*
X140666390Y-117206811D01*
X140666390Y-117206809D01*
X140600503Y-117092690D01*
X140600501Y-117092688D01*
X140600500Y-117092686D01*
X140507314Y-116999500D01*
X140507311Y-116999498D01*
X140507309Y-116999496D01*
X140393189Y-116933609D01*
X140393191Y-116933609D01*
X140343799Y-116920375D01*
X140265892Y-116899500D01*
X140265890Y-116899500D01*
X140236190Y-116899500D01*
X140177999Y-116880593D01*
X140166186Y-116870504D01*
X138952683Y-115657001D01*
X144350000Y-115657001D01*
X144350000Y-116081624D01*
X144364506Y-116154546D01*
X144364507Y-116154548D01*
X144419758Y-116237237D01*
X144419762Y-116237241D01*
X144502451Y-116292492D01*
X144502453Y-116292493D01*
X144575375Y-116306999D01*
X144575377Y-116307000D01*
X144799999Y-116307000D01*
X144800000Y-116306999D01*
X144800000Y-115657001D01*
X145050000Y-115657001D01*
X145050000Y-116306999D01*
X145050001Y-116307000D01*
X145274623Y-116307000D01*
X145274624Y-116306999D01*
X145347546Y-116292493D01*
X145347548Y-116292492D01*
X145430237Y-116237241D01*
X145430241Y-116237237D01*
X145432332Y-116234108D01*
X145699500Y-116234108D01*
X145699500Y-116365892D01*
X145723770Y-116456470D01*
X145733609Y-116493190D01*
X145799496Y-116607309D01*
X145799498Y-116607311D01*
X145799500Y-116607314D01*
X145892686Y-116700500D01*
X145892688Y-116700501D01*
X145892690Y-116700503D01*
X146006810Y-116766390D01*
X146006808Y-116766390D01*
X146006812Y-116766391D01*
X146006814Y-116766392D01*
X146134108Y-116800500D01*
X146134110Y-116800500D01*
X146265890Y-116800500D01*
X146265892Y-116800500D01*
X146393186Y-116766392D01*
X146393188Y-116766390D01*
X146393190Y-116766390D01*
X146507309Y-116700503D01*
X146507309Y-116700502D01*
X146507314Y-116700500D01*
X146555498Y-116652315D01*
X146610013Y-116624540D01*
X146670445Y-116634111D01*
X146713710Y-116677376D01*
X146724500Y-116722321D01*
X146724500Y-118880141D01*
X146705593Y-118938332D01*
X146678086Y-118960037D01*
X146679876Y-118962716D01*
X146605451Y-119012445D01*
X146605445Y-119012451D01*
X146561134Y-119078766D01*
X146561132Y-119078772D01*
X146549501Y-119137241D01*
X146549500Y-119137253D01*
X146549500Y-120226746D01*
X146549501Y-120226758D01*
X146557286Y-120265892D01*
X146561133Y-120285231D01*
X146605448Y-120351552D01*
X146605451Y-120351554D01*
X146658853Y-120387237D01*
X146671769Y-120395867D01*
X146716231Y-120404711D01*
X146730241Y-120407498D01*
X146730246Y-120407498D01*
X146730252Y-120407500D01*
X146730253Y-120407500D01*
X147419747Y-120407500D01*
X147419748Y-120407500D01*
X147478231Y-120395867D01*
X147544552Y-120351552D01*
X147588867Y-120285231D01*
X147600500Y-120226748D01*
X147600500Y-119137252D01*
X147588867Y-119078769D01*
X147544552Y-119012448D01*
X147526675Y-119000503D01*
X147470124Y-118962716D01*
X147472327Y-118959418D01*
X147440039Y-118931788D01*
X147425500Y-118880141D01*
X147425500Y-116333858D01*
X147444407Y-116275667D01*
X147471933Y-116253994D01*
X147470123Y-116251285D01*
X147495829Y-116234108D01*
X147544552Y-116201552D01*
X147588867Y-116135231D01*
X147600500Y-116076748D01*
X147600500Y-114987252D01*
X147588867Y-114928769D01*
X147544552Y-114862448D01*
X147544548Y-114862445D01*
X147478233Y-114818134D01*
X147478231Y-114818133D01*
X147478228Y-114818132D01*
X147478227Y-114818132D01*
X147419758Y-114806501D01*
X147419748Y-114806500D01*
X146730252Y-114806500D01*
X146730251Y-114806500D01*
X146730241Y-114806501D01*
X146671772Y-114818132D01*
X146671766Y-114818134D01*
X146605451Y-114862445D01*
X146605445Y-114862451D01*
X146561134Y-114928766D01*
X146561132Y-114928772D01*
X146549501Y-114987241D01*
X146549500Y-114987253D01*
X146549500Y-115520810D01*
X146530593Y-115579001D01*
X146520504Y-115590813D01*
X146340812Y-115770504D01*
X146286297Y-115798281D01*
X146270810Y-115799500D01*
X146265892Y-115799500D01*
X146134108Y-115799500D01*
X146056200Y-115820375D01*
X146006809Y-115833609D01*
X145892690Y-115899496D01*
X145799496Y-115992690D01*
X145733609Y-116106809D01*
X145725995Y-116135227D01*
X145699500Y-116234108D01*
X145432332Y-116234108D01*
X145473420Y-116172617D01*
X145485492Y-116154548D01*
X145485493Y-116154546D01*
X145499999Y-116081624D01*
X145500000Y-116081622D01*
X145500000Y-115657001D01*
X145499999Y-115657000D01*
X145050001Y-115657000D01*
X145050000Y-115657001D01*
X144800000Y-115657001D01*
X144799999Y-115657000D01*
X144350001Y-115657000D01*
X144350000Y-115657001D01*
X138952683Y-115657001D01*
X138343198Y-115047516D01*
X138278057Y-114982375D01*
X144350000Y-114982375D01*
X144350000Y-115406999D01*
X144350001Y-115407000D01*
X144799999Y-115407000D01*
X144800000Y-115406999D01*
X144800000Y-114757001D01*
X145050000Y-114757001D01*
X145050000Y-115406999D01*
X145050001Y-115407000D01*
X145499999Y-115407000D01*
X145500000Y-115406999D01*
X145500000Y-114982377D01*
X145499999Y-114982375D01*
X145485493Y-114909453D01*
X145485492Y-114909451D01*
X145430241Y-114826762D01*
X145430237Y-114826758D01*
X145347548Y-114771507D01*
X145347546Y-114771506D01*
X145274624Y-114757000D01*
X145050001Y-114757000D01*
X145050000Y-114757001D01*
X144800000Y-114757001D01*
X144799999Y-114757000D01*
X144575375Y-114757000D01*
X144502453Y-114771506D01*
X144502451Y-114771507D01*
X144419762Y-114826758D01*
X144419758Y-114826762D01*
X144364507Y-114909451D01*
X144364506Y-114909453D01*
X144350000Y-114982375D01*
X138278057Y-114982375D01*
X137425468Y-114129786D01*
X136439391Y-113143709D01*
X138649500Y-113143709D01*
X138649500Y-113356290D01*
X138682752Y-113566238D01*
X138748443Y-113768412D01*
X138844948Y-113957815D01*
X138844950Y-113957819D01*
X138969891Y-114129786D01*
X138969893Y-114129788D01*
X138969896Y-114129792D01*
X139120208Y-114280104D01*
X139120211Y-114280106D01*
X139120213Y-114280108D01*
X139292180Y-114405049D01*
X139292184Y-114405051D01*
X139481588Y-114501557D01*
X139683757Y-114567246D01*
X139683758Y-114567246D01*
X139683761Y-114567247D01*
X139893710Y-114600500D01*
X139893713Y-114600500D01*
X140106290Y-114600500D01*
X140316238Y-114567247D01*
X140316239Y-114567246D01*
X140316243Y-114567246D01*
X140518412Y-114501557D01*
X140707816Y-114405051D01*
X140879792Y-114280104D01*
X141030104Y-114129792D01*
X141155051Y-113957816D01*
X141251557Y-113768412D01*
X141317246Y-113566243D01*
X141350417Y-113356814D01*
X141350500Y-113356290D01*
X141350500Y-113143709D01*
X141317247Y-112933761D01*
X141317246Y-112933757D01*
X141251557Y-112731588D01*
X141155051Y-112542184D01*
X141155049Y-112542180D01*
X141030108Y-112370213D01*
X141030106Y-112370211D01*
X141030104Y-112370208D01*
X140879792Y-112219896D01*
X140879788Y-112219893D01*
X140879786Y-112219891D01*
X140707819Y-112094950D01*
X140707815Y-112094948D01*
X140518412Y-111998443D01*
X140316238Y-111932752D01*
X140106290Y-111899500D01*
X140106287Y-111899500D01*
X139893713Y-111899500D01*
X139893710Y-111899500D01*
X139683761Y-111932752D01*
X139481587Y-111998443D01*
X139292184Y-112094948D01*
X139292180Y-112094950D01*
X139120213Y-112219891D01*
X138969891Y-112370213D01*
X138844950Y-112542180D01*
X138844948Y-112542184D01*
X138748443Y-112731587D01*
X138682752Y-112933761D01*
X138649500Y-113143709D01*
X136439391Y-113143709D01*
X134215212Y-110919530D01*
X134135288Y-110873386D01*
X134046144Y-110849500D01*
X118953856Y-110849500D01*
X118864712Y-110873386D01*
X118784788Y-110919530D01*
X116533674Y-113170644D01*
X116479157Y-113198421D01*
X116463670Y-113199640D01*
X113553612Y-113199640D01*
X113546642Y-113199633D01*
X113546144Y-113199500D01*
X113398232Y-113199500D01*
X113369487Y-113190131D01*
X113340130Y-113180593D01*
X113340074Y-113180545D01*
X113340058Y-113180540D01*
X113340041Y-113180517D01*
X113328323Y-113170509D01*
X113307314Y-113149500D01*
X113307311Y-113149498D01*
X113307309Y-113149496D01*
X113193189Y-113083609D01*
X113193191Y-113083609D01*
X113141724Y-113069819D01*
X113065892Y-113049500D01*
X112934108Y-113049500D01*
X112858276Y-113069819D01*
X112806809Y-113083609D01*
X112692690Y-113149496D01*
X112599496Y-113242690D01*
X112533609Y-113356809D01*
X112533608Y-113356814D01*
X112499500Y-113484108D01*
X106850500Y-113484108D01*
X106850500Y-110349500D01*
X106869407Y-110291309D01*
X106918907Y-110255345D01*
X106949500Y-110250500D01*
X153050500Y-110250500D01*
X153108691Y-110269407D01*
G37*
%TD.AperFunction*%
%TD*%
M02*
