M48
; DRILL file {KiCad 9.0.7} date 2026-01-29T22:03:01+0100
; FORMAT={-:-/ absolute / inch / decimal}
; #@! TF.CreationDate,2026-01-29T22:03:01+01:00
; #@! TF.GenerationSoftware,Kicad,Pcbnew,9.0.7
; #@! TF.FileFunction,Plated,1,2,PTH
FMAT,2
INCH
; #@! TA.AperFunction,Plated,PTH,ViaDrill
T1C0.0118
%
G90
G05
T1
X4.2283Y-4.8661
X4.2362Y-4.3622
X4.2677Y-4.5197
X4.2677Y-4.7638
X4.315Y-4.6693
X4.3465Y-4.8189
X4.3622Y-4.4213
X4.4409Y-4.6142
X4.4488Y-4.4705
X4.4567Y-4.8819
X4.4646Y-4.7638
X4.4803Y-4.4331
X4.5512Y-4.7638
X4.5669Y-4.4331
X4.5906Y-4.5354
X4.5906Y-4.7165
X4.5945Y-4.7598
X4.6535Y-4.3543
X4.6772Y-4.7165
X4.7756Y-4.6555
X4.8031Y-4.4173
X4.8031Y-4.8504
X4.8091Y-4.5591
X4.8898Y-4.7559
X4.9213Y-4.5591
X4.9213Y-4.7323
X4.9606Y-4.7559
X4.998Y-4.7697
X5.0Y-4.5591
X5.0394Y-4.7717
X5.0492Y-4.7303
X5.1024Y-4.7874
X5.1043Y-4.5591
X5.1048Y-4.7315
X5.126Y-4.8976
X5.1909Y-4.7362
X5.2047Y-4.7717
X5.2047Y-4.8976
X5.2362Y-4.563
X5.2697Y-4.7717
X5.2756Y-4.8976
X5.3091Y-4.565
X5.311Y-4.7697
X5.3386Y-4.3701
X5.3465Y-4.7638
X5.3543Y-4.8976
X5.3602Y-4.561
X5.3602Y-4.6772
X5.4488Y-4.498
X5.4803Y-4.6929
X5.5197Y-4.622
X5.5748Y-4.5
X5.5906Y-4.8819
X5.6496Y-4.563
X5.6535Y-4.3701
X5.748Y-4.8189
X5.7559Y-4.5787
X5.8583Y-4.6929
X5.9291Y-4.8189
X5.9685Y-4.378
X5.9685Y-4.6142
M30
