%TF.GenerationSoftware,KiCad,Pcbnew,9.0.7*%
%TF.CreationDate,2026-01-29T22:03:01+01:00*%
%TF.ProjectId,Web3Pi_UPS_1,57656233-5069-45f5-9550-535f312e6b69,rev?*%
%TF.SameCoordinates,Original*%
%TF.FileFunction,Soldermask,Bot*%
%TF.FilePolarity,Negative*%
%FSLAX46Y46*%
G04 Gerber Fmt 4.6, Leading zero omitted, Abs format (unit mm)*
G04 Created by KiCad (PCBNEW 9.0.7) date 2026-01-29 22:03:01*
%MOMM*%
%LPD*%
G01*
G04 APERTURE LIST*
G04 Aperture macros list*
%AMRoundRect*
0 Rectangle with rounded corners*
0 $1 Rounding radius*
0 $2 $3 $4 $5 $6 $7 $8 $9 X,Y pos of 4 corners*
0 Add a 4 corners polygon primitive as box body*
4,1,4,$2,$3,$4,$5,$6,$7,$8,$9,$2,$3,0*
0 Add four circle primitives for the rounded corners*
1,1,$1+$1,$2,$3*
1,1,$1+$1,$4,$5*
1,1,$1+$1,$6,$7*
1,1,$1+$1,$8,$9*
0 Add four rect primitives between the rounded corners*
20,1,$1+$1,$2,$3,$4,$5,0*
20,1,$1+$1,$4,$5,$6,$7,0*
20,1,$1+$1,$6,$7,$8,$9,0*
20,1,$1+$1,$8,$9,$2,$3,0*%
G04 Aperture macros list end*
%ADD10RoundRect,0.200000X0.275000X-0.200000X0.275000X0.200000X-0.275000X0.200000X-0.275000X-0.200000X0*%
%ADD11RoundRect,0.225000X0.250000X-0.225000X0.250000X0.225000X-0.250000X0.225000X-0.250000X-0.225000X0*%
%ADD12RoundRect,0.200000X-0.275000X0.200000X-0.275000X-0.200000X0.275000X-0.200000X0.275000X0.200000X0*%
%ADD13RoundRect,0.225000X-0.250000X0.225000X-0.250000X-0.225000X0.250000X-0.225000X0.250000X0.225000X0*%
%ADD14R,2.510000X1.000000*%
%ADD15RoundRect,0.150000X-0.512500X-0.150000X0.512500X-0.150000X0.512500X0.150000X-0.512500X0.150000X0*%
G04 APERTURE END LIST*
D10*
%TO.C,R6*%
X141500000Y-118825000D03*
X141500000Y-117175000D03*
%TD*%
D11*
%TO.C,C14*%
X111900000Y-112275000D03*
X111900000Y-110725000D03*
%TD*%
D12*
%TO.C,R1*%
X129000000Y-117175000D03*
X129000000Y-118825000D03*
%TD*%
D13*
%TO.C,C4*%
X125000000Y-117225000D03*
X125000000Y-118775000D03*
%TD*%
D11*
%TO.C,C8*%
X134900000Y-118775000D03*
X134900000Y-117225000D03*
%TD*%
%TO.C,C11*%
X114700000Y-123475000D03*
X114700000Y-121925000D03*
%TD*%
D14*
%TO.C,J2L1*%
X111655000Y-114790000D03*
X108345000Y-117330000D03*
X111655000Y-119870000D03*
X108345000Y-122410000D03*
%TD*%
D11*
%TO.C,C2*%
X127000000Y-123775000D03*
X127000000Y-122225000D03*
%TD*%
%TO.C,C7*%
X134900000Y-123775000D03*
X134900000Y-122225000D03*
%TD*%
D10*
%TO.C,R12*%
X133000000Y-118825000D03*
X133000000Y-117175000D03*
%TD*%
D12*
%TO.C,R11*%
X131000000Y-117175000D03*
X131000000Y-118825000D03*
%TD*%
D11*
%TO.C,C13*%
X108800000Y-112275000D03*
X108800000Y-110725000D03*
%TD*%
%TO.C,C3*%
X129100000Y-123775000D03*
X129100000Y-122225000D03*
%TD*%
%TO.C,C1*%
X125000000Y-123775000D03*
X125000000Y-122225000D03*
%TD*%
%TO.C,C10*%
X118700000Y-118775000D03*
X118700000Y-117225000D03*
%TD*%
D12*
%TO.C,R3*%
X116700000Y-121875000D03*
X116700000Y-123525000D03*
%TD*%
D11*
%TO.C,C6*%
X133000000Y-123775000D03*
X133000000Y-122225000D03*
%TD*%
%TO.C,C9*%
X116700000Y-118775000D03*
X116700000Y-117225000D03*
%TD*%
D12*
%TO.C,R5*%
X145500000Y-117175000D03*
X145500000Y-118825000D03*
%TD*%
D13*
%TO.C,C12*%
X143500000Y-117225000D03*
X143500000Y-118775000D03*
%TD*%
D10*
%TO.C,R2*%
X131100000Y-123825000D03*
X131100000Y-122175000D03*
%TD*%
D12*
%TO.C,R4*%
X114700000Y-117175000D03*
X114700000Y-118825000D03*
%TD*%
D15*
%TO.C,U1*%
X114862500Y-113550000D03*
X114862500Y-112600000D03*
X114862500Y-111650000D03*
X117137500Y-111650000D03*
X117137500Y-113550000D03*
%TD*%
D14*
%TO.C,J3R1*%
X151655000Y-114790000D03*
X148345000Y-117330000D03*
X151655000Y-119870000D03*
X148345000Y-122410000D03*
%TD*%
D13*
%TO.C,C5*%
X127000000Y-117225000D03*
X127000000Y-118775000D03*
%TD*%
M02*
