%TF.GenerationSoftware,KiCad,Pcbnew,9.0.7*%
%TF.CreationDate,2026-01-29T22:03:01+01:00*%
%TF.ProjectId,Web3Pi_UPS_1,57656233-5069-45f5-9550-535f312e6b69,rev?*%
%TF.SameCoordinates,Original*%
%TF.FileFunction,Legend,Bot*%
%TF.FilePolarity,Positive*%
%FSLAX46Y46*%
G04 Gerber Fmt 4.6, Leading zero omitted, Abs format (unit mm)*
G04 Created by KiCad (PCBNEW 9.0.7) date 2026-01-29 22:03:01*
%MOMM*%
%LPD*%
G01*
G04 APERTURE LIST*
G04 Aperture macros list*
%AMRoundRect*
0 Rectangle with rounded corners*
0 $1 Rounding radius*
0 $2 $3 $4 $5 $6 $7 $8 $9 X,Y pos of 4 corners*
0 Add a 4 corners polygon primitive as box body*
4,1,4,$2,$3,$4,$5,$6,$7,$8,$9,$2,$3,0*
0 Add four circle primitives for the rounded corners*
1,1,$1+$1,$2,$3*
1,1,$1+$1,$4,$5*
1,1,$1+$1,$6,$7*
1,1,$1+$1,$8,$9*
0 Add four rect primitives between the rounded corners*
20,1,$1+$1,$2,$3,$4,$5,0*
20,1,$1+$1,$4,$5,$6,$7,0*
20,1,$1+$1,$6,$7,$8,$9,0*
20,1,$1+$1,$8,$9,$2,$3,0*%
G04 Aperture macros list end*
%ADD10C,0.200000*%
%ADD11C,0.300000*%
%ADD12C,0.150000*%
%ADD13C,0.120000*%
%ADD14RoundRect,0.200000X0.275000X-0.200000X0.275000X0.200000X-0.275000X0.200000X-0.275000X-0.200000X0*%
%ADD15RoundRect,0.225000X0.250000X-0.225000X0.250000X0.225000X-0.250000X0.225000X-0.250000X-0.225000X0*%
%ADD16RoundRect,0.200000X-0.275000X0.200000X-0.275000X-0.200000X0.275000X-0.200000X0.275000X0.200000X0*%
%ADD17RoundRect,0.225000X-0.250000X0.225000X-0.250000X-0.225000X0.250000X-0.225000X0.250000X0.225000X0*%
%ADD18R,2.510000X1.000000*%
%ADD19RoundRect,0.150000X-0.512500X-0.150000X0.512500X-0.150000X0.512500X0.150000X-0.512500X0.150000X0*%
G04 APERTURE END LIST*
D10*
X107256407Y-114045863D02*
X107256407Y-114541101D01*
X107256407Y-114541101D02*
X107561169Y-114274435D01*
X107561169Y-114274435D02*
X107561169Y-114388720D01*
X107561169Y-114388720D02*
X107599264Y-114464911D01*
X107599264Y-114464911D02*
X107637359Y-114503006D01*
X107637359Y-114503006D02*
X107713550Y-114541101D01*
X107713550Y-114541101D02*
X107904026Y-114541101D01*
X107904026Y-114541101D02*
X107980216Y-114503006D01*
X107980216Y-114503006D02*
X108018312Y-114464911D01*
X108018312Y-114464911D02*
X108056407Y-114388720D01*
X108056407Y-114388720D02*
X108056407Y-114160149D01*
X108056407Y-114160149D02*
X108018312Y-114083958D01*
X108018312Y-114083958D02*
X107980216Y-114045863D01*
X107256407Y-114769673D02*
X108056407Y-115036340D01*
X108056407Y-115036340D02*
X107256407Y-115303006D01*
X107256407Y-115493482D02*
X107256407Y-115988720D01*
X107256407Y-115988720D02*
X107561169Y-115722054D01*
X107561169Y-115722054D02*
X107561169Y-115836339D01*
X107561169Y-115836339D02*
X107599264Y-115912530D01*
X107599264Y-115912530D02*
X107637359Y-115950625D01*
X107637359Y-115950625D02*
X107713550Y-115988720D01*
X107713550Y-115988720D02*
X107904026Y-115988720D01*
X107904026Y-115988720D02*
X107980216Y-115950625D01*
X107980216Y-115950625D02*
X108018312Y-115912530D01*
X108018312Y-115912530D02*
X108056407Y-115836339D01*
X108056407Y-115836339D02*
X108056407Y-115607768D01*
X108056407Y-115607768D02*
X108018312Y-115531577D01*
X108018312Y-115531577D02*
X107980216Y-115493482D01*
X107637359Y-119589389D02*
X107675454Y-119703675D01*
X107675454Y-119703675D02*
X107713550Y-119741770D01*
X107713550Y-119741770D02*
X107789740Y-119779866D01*
X107789740Y-119779866D02*
X107904026Y-119779866D01*
X107904026Y-119779866D02*
X107980216Y-119741770D01*
X107980216Y-119741770D02*
X108018312Y-119703675D01*
X108018312Y-119703675D02*
X108056407Y-119627485D01*
X108056407Y-119627485D02*
X108056407Y-119322723D01*
X108056407Y-119322723D02*
X107256407Y-119322723D01*
X107256407Y-119322723D02*
X107256407Y-119589389D01*
X107256407Y-119589389D02*
X107294502Y-119665580D01*
X107294502Y-119665580D02*
X107332597Y-119703675D01*
X107332597Y-119703675D02*
X107408788Y-119741770D01*
X107408788Y-119741770D02*
X107484978Y-119741770D01*
X107484978Y-119741770D02*
X107561169Y-119703675D01*
X107561169Y-119703675D02*
X107599264Y-119665580D01*
X107599264Y-119665580D02*
X107637359Y-119589389D01*
X107637359Y-119589389D02*
X107637359Y-119322723D01*
X108056407Y-120541770D02*
X108056407Y-120084627D01*
X108056407Y-120313199D02*
X107256407Y-120313199D01*
X107256407Y-120313199D02*
X107370692Y-120237008D01*
X107370692Y-120237008D02*
X107446883Y-120160818D01*
X107446883Y-120160818D02*
X107484978Y-120084627D01*
X148103600Y-119183958D02*
X148141695Y-119298244D01*
X148141695Y-119298244D02*
X148141695Y-119488720D01*
X148141695Y-119488720D02*
X148103600Y-119564911D01*
X148103600Y-119564911D02*
X148065504Y-119603006D01*
X148065504Y-119603006D02*
X147989314Y-119641101D01*
X147989314Y-119641101D02*
X147913123Y-119641101D01*
X147913123Y-119641101D02*
X147836933Y-119603006D01*
X147836933Y-119603006D02*
X147798838Y-119564911D01*
X147798838Y-119564911D02*
X147760742Y-119488720D01*
X147760742Y-119488720D02*
X147722647Y-119336339D01*
X147722647Y-119336339D02*
X147684552Y-119260149D01*
X147684552Y-119260149D02*
X147646457Y-119222054D01*
X147646457Y-119222054D02*
X147570266Y-119183958D01*
X147570266Y-119183958D02*
X147494076Y-119183958D01*
X147494076Y-119183958D02*
X147417885Y-119222054D01*
X147417885Y-119222054D02*
X147379790Y-119260149D01*
X147379790Y-119260149D02*
X147341695Y-119336339D01*
X147341695Y-119336339D02*
X147341695Y-119526816D01*
X147341695Y-119526816D02*
X147379790Y-119641101D01*
X148065504Y-120441102D02*
X148103600Y-120403006D01*
X148103600Y-120403006D02*
X148141695Y-120288721D01*
X148141695Y-120288721D02*
X148141695Y-120212530D01*
X148141695Y-120212530D02*
X148103600Y-120098244D01*
X148103600Y-120098244D02*
X148027409Y-120022054D01*
X148027409Y-120022054D02*
X147951219Y-119983959D01*
X147951219Y-119983959D02*
X147798838Y-119945863D01*
X147798838Y-119945863D02*
X147684552Y-119945863D01*
X147684552Y-119945863D02*
X147532171Y-119983959D01*
X147532171Y-119983959D02*
X147455980Y-120022054D01*
X147455980Y-120022054D02*
X147379790Y-120098244D01*
X147379790Y-120098244D02*
X147341695Y-120212530D01*
X147341695Y-120212530D02*
X147341695Y-120288721D01*
X147341695Y-120288721D02*
X147379790Y-120403006D01*
X147379790Y-120403006D02*
X147417885Y-120441102D01*
X148141695Y-121164911D02*
X148141695Y-120783959D01*
X148141695Y-120783959D02*
X147341695Y-120783959D01*
D11*
X138116917Y-110525304D02*
X137807393Y-111825304D01*
X137807393Y-111825304D02*
X137559774Y-110896733D01*
X137559774Y-110896733D02*
X137312155Y-111825304D01*
X137312155Y-111825304D02*
X137002632Y-110525304D01*
X136012156Y-111763400D02*
X136135965Y-111825304D01*
X136135965Y-111825304D02*
X136383584Y-111825304D01*
X136383584Y-111825304D02*
X136507394Y-111763400D01*
X136507394Y-111763400D02*
X136569298Y-111639590D01*
X136569298Y-111639590D02*
X136569298Y-111144352D01*
X136569298Y-111144352D02*
X136507394Y-111020542D01*
X136507394Y-111020542D02*
X136383584Y-110958638D01*
X136383584Y-110958638D02*
X136135965Y-110958638D01*
X136135965Y-110958638D02*
X136012156Y-111020542D01*
X136012156Y-111020542D02*
X135950251Y-111144352D01*
X135950251Y-111144352D02*
X135950251Y-111268161D01*
X135950251Y-111268161D02*
X136569298Y-111391971D01*
X135393108Y-111825304D02*
X135393108Y-110525304D01*
X135393108Y-111020542D02*
X135269298Y-110958638D01*
X135269298Y-110958638D02*
X135021679Y-110958638D01*
X135021679Y-110958638D02*
X134897870Y-111020542D01*
X134897870Y-111020542D02*
X134835965Y-111082447D01*
X134835965Y-111082447D02*
X134774060Y-111206257D01*
X134774060Y-111206257D02*
X134774060Y-111577685D01*
X134774060Y-111577685D02*
X134835965Y-111701495D01*
X134835965Y-111701495D02*
X134897870Y-111763400D01*
X134897870Y-111763400D02*
X135021679Y-111825304D01*
X135021679Y-111825304D02*
X135269298Y-111825304D01*
X135269298Y-111825304D02*
X135393108Y-111763400D01*
X134340727Y-110525304D02*
X133535965Y-110525304D01*
X133535965Y-110525304D02*
X133969299Y-111020542D01*
X133969299Y-111020542D02*
X133783584Y-111020542D01*
X133783584Y-111020542D02*
X133659775Y-111082447D01*
X133659775Y-111082447D02*
X133597870Y-111144352D01*
X133597870Y-111144352D02*
X133535965Y-111268161D01*
X133535965Y-111268161D02*
X133535965Y-111577685D01*
X133535965Y-111577685D02*
X133597870Y-111701495D01*
X133597870Y-111701495D02*
X133659775Y-111763400D01*
X133659775Y-111763400D02*
X133783584Y-111825304D01*
X133783584Y-111825304D02*
X134155013Y-111825304D01*
X134155013Y-111825304D02*
X134278822Y-111763400D01*
X134278822Y-111763400D02*
X134340727Y-111701495D01*
X131988347Y-111825304D02*
X131988347Y-110525304D01*
X131988347Y-110525304D02*
X131493109Y-110525304D01*
X131493109Y-110525304D02*
X131369299Y-110587209D01*
X131369299Y-110587209D02*
X131307394Y-110649114D01*
X131307394Y-110649114D02*
X131245490Y-110772923D01*
X131245490Y-110772923D02*
X131245490Y-110958638D01*
X131245490Y-110958638D02*
X131307394Y-111082447D01*
X131307394Y-111082447D02*
X131369299Y-111144352D01*
X131369299Y-111144352D02*
X131493109Y-111206257D01*
X131493109Y-111206257D02*
X131988347Y-111206257D01*
X130688347Y-111825304D02*
X130688347Y-110958638D01*
X130688347Y-110525304D02*
X130750251Y-110587209D01*
X130750251Y-110587209D02*
X130688347Y-110649114D01*
X130688347Y-110649114D02*
X130626442Y-110587209D01*
X130626442Y-110587209D02*
X130688347Y-110525304D01*
X130688347Y-110525304D02*
X130688347Y-110649114D01*
X129078823Y-111825304D02*
X129078823Y-110525304D01*
X129078823Y-110525304D02*
X128769299Y-110525304D01*
X128769299Y-110525304D02*
X128583585Y-110587209D01*
X128583585Y-110587209D02*
X128459775Y-110711019D01*
X128459775Y-110711019D02*
X128397870Y-110834828D01*
X128397870Y-110834828D02*
X128335966Y-111082447D01*
X128335966Y-111082447D02*
X128335966Y-111268161D01*
X128335966Y-111268161D02*
X128397870Y-111515780D01*
X128397870Y-111515780D02*
X128459775Y-111639590D01*
X128459775Y-111639590D02*
X128583585Y-111763400D01*
X128583585Y-111763400D02*
X128769299Y-111825304D01*
X128769299Y-111825304D02*
X129078823Y-111825304D01*
X127035966Y-111701495D02*
X127097870Y-111763400D01*
X127097870Y-111763400D02*
X127283585Y-111825304D01*
X127283585Y-111825304D02*
X127407394Y-111825304D01*
X127407394Y-111825304D02*
X127593108Y-111763400D01*
X127593108Y-111763400D02*
X127716918Y-111639590D01*
X127716918Y-111639590D02*
X127778823Y-111515780D01*
X127778823Y-111515780D02*
X127840727Y-111268161D01*
X127840727Y-111268161D02*
X127840727Y-111082447D01*
X127840727Y-111082447D02*
X127778823Y-110834828D01*
X127778823Y-110834828D02*
X127716918Y-110711019D01*
X127716918Y-110711019D02*
X127593108Y-110587209D01*
X127593108Y-110587209D02*
X127407394Y-110525304D01*
X127407394Y-110525304D02*
X127283585Y-110525304D01*
X127283585Y-110525304D02*
X127097870Y-110587209D01*
X127097870Y-110587209D02*
X127035966Y-110649114D01*
X125488347Y-110525304D02*
X125488347Y-111577685D01*
X125488347Y-111577685D02*
X125426442Y-111701495D01*
X125426442Y-111701495D02*
X125364537Y-111763400D01*
X125364537Y-111763400D02*
X125240728Y-111825304D01*
X125240728Y-111825304D02*
X124993109Y-111825304D01*
X124993109Y-111825304D02*
X124869299Y-111763400D01*
X124869299Y-111763400D02*
X124807394Y-111701495D01*
X124807394Y-111701495D02*
X124745490Y-111577685D01*
X124745490Y-111577685D02*
X124745490Y-110525304D01*
X124126442Y-111825304D02*
X124126442Y-110525304D01*
X124126442Y-110525304D02*
X123631204Y-110525304D01*
X123631204Y-110525304D02*
X123507394Y-110587209D01*
X123507394Y-110587209D02*
X123445489Y-110649114D01*
X123445489Y-110649114D02*
X123383585Y-110772923D01*
X123383585Y-110772923D02*
X123383585Y-110958638D01*
X123383585Y-110958638D02*
X123445489Y-111082447D01*
X123445489Y-111082447D02*
X123507394Y-111144352D01*
X123507394Y-111144352D02*
X123631204Y-111206257D01*
X123631204Y-111206257D02*
X124126442Y-111206257D01*
X122888346Y-111763400D02*
X122702632Y-111825304D01*
X122702632Y-111825304D02*
X122393108Y-111825304D01*
X122393108Y-111825304D02*
X122269299Y-111763400D01*
X122269299Y-111763400D02*
X122207394Y-111701495D01*
X122207394Y-111701495D02*
X122145489Y-111577685D01*
X122145489Y-111577685D02*
X122145489Y-111453876D01*
X122145489Y-111453876D02*
X122207394Y-111330066D01*
X122207394Y-111330066D02*
X122269299Y-111268161D01*
X122269299Y-111268161D02*
X122393108Y-111206257D01*
X122393108Y-111206257D02*
X122640727Y-111144352D01*
X122640727Y-111144352D02*
X122764537Y-111082447D01*
X122764537Y-111082447D02*
X122826442Y-111020542D01*
X122826442Y-111020542D02*
X122888346Y-110896733D01*
X122888346Y-110896733D02*
X122888346Y-110772923D01*
X122888346Y-110772923D02*
X122826442Y-110649114D01*
X122826442Y-110649114D02*
X122764537Y-110587209D01*
X122764537Y-110587209D02*
X122640727Y-110525304D01*
X122640727Y-110525304D02*
X122331204Y-110525304D01*
X122331204Y-110525304D02*
X122145489Y-110587209D01*
X135145489Y-112375304D02*
X134897870Y-112375304D01*
X134897870Y-112375304D02*
X134774060Y-112437209D01*
X134774060Y-112437209D02*
X134650251Y-112561019D01*
X134650251Y-112561019D02*
X134588346Y-112808638D01*
X134588346Y-112808638D02*
X134588346Y-113241971D01*
X134588346Y-113241971D02*
X134650251Y-113489590D01*
X134650251Y-113489590D02*
X134774060Y-113613400D01*
X134774060Y-113613400D02*
X134897870Y-113675304D01*
X134897870Y-113675304D02*
X135145489Y-113675304D01*
X135145489Y-113675304D02*
X135269298Y-113613400D01*
X135269298Y-113613400D02*
X135393108Y-113489590D01*
X135393108Y-113489590D02*
X135455012Y-113241971D01*
X135455012Y-113241971D02*
X135455012Y-112808638D01*
X135455012Y-112808638D02*
X135393108Y-112561019D01*
X135393108Y-112561019D02*
X135269298Y-112437209D01*
X135269298Y-112437209D02*
X135145489Y-112375304D01*
X133412155Y-113675304D02*
X134031203Y-113675304D01*
X134031203Y-113675304D02*
X134031203Y-112375304D01*
X132978822Y-112994352D02*
X132545488Y-112994352D01*
X132359774Y-113675304D02*
X132978822Y-113675304D01*
X132978822Y-113675304D02*
X132978822Y-112375304D01*
X132978822Y-112375304D02*
X132359774Y-112375304D01*
X131802632Y-113675304D02*
X131802632Y-112375304D01*
X131802632Y-112375304D02*
X131493108Y-112375304D01*
X131493108Y-112375304D02*
X131307394Y-112437209D01*
X131307394Y-112437209D02*
X131183584Y-112561019D01*
X131183584Y-112561019D02*
X131121679Y-112684828D01*
X131121679Y-112684828D02*
X131059775Y-112932447D01*
X131059775Y-112932447D02*
X131059775Y-113118161D01*
X131059775Y-113118161D02*
X131121679Y-113365780D01*
X131121679Y-113365780D02*
X131183584Y-113489590D01*
X131183584Y-113489590D02*
X131307394Y-113613400D01*
X131307394Y-113613400D02*
X131493108Y-113675304D01*
X131493108Y-113675304D02*
X131802632Y-113675304D01*
X129512156Y-113675304D02*
X129512156Y-112375304D01*
X129512156Y-112375304D02*
X129016918Y-112375304D01*
X129016918Y-112375304D02*
X128893108Y-112437209D01*
X128893108Y-112437209D02*
X128831203Y-112499114D01*
X128831203Y-112499114D02*
X128769299Y-112622923D01*
X128769299Y-112622923D02*
X128769299Y-112808638D01*
X128769299Y-112808638D02*
X128831203Y-112932447D01*
X128831203Y-112932447D02*
X128893108Y-112994352D01*
X128893108Y-112994352D02*
X129016918Y-113056257D01*
X129016918Y-113056257D02*
X129512156Y-113056257D01*
X127655013Y-113675304D02*
X127655013Y-112994352D01*
X127655013Y-112994352D02*
X127716918Y-112870542D01*
X127716918Y-112870542D02*
X127840727Y-112808638D01*
X127840727Y-112808638D02*
X128088346Y-112808638D01*
X128088346Y-112808638D02*
X128212156Y-112870542D01*
X127655013Y-113613400D02*
X127778822Y-113675304D01*
X127778822Y-113675304D02*
X128088346Y-113675304D01*
X128088346Y-113675304D02*
X128212156Y-113613400D01*
X128212156Y-113613400D02*
X128274060Y-113489590D01*
X128274060Y-113489590D02*
X128274060Y-113365780D01*
X128274060Y-113365780D02*
X128212156Y-113241971D01*
X128212156Y-113241971D02*
X128088346Y-113180066D01*
X128088346Y-113180066D02*
X127778822Y-113180066D01*
X127778822Y-113180066D02*
X127655013Y-113118161D01*
X127035966Y-112808638D02*
X127035966Y-113675304D01*
X127035966Y-112932447D02*
X126974061Y-112870542D01*
X126974061Y-112870542D02*
X126850251Y-112808638D01*
X126850251Y-112808638D02*
X126664537Y-112808638D01*
X126664537Y-112808638D02*
X126540728Y-112870542D01*
X126540728Y-112870542D02*
X126478823Y-112994352D01*
X126478823Y-112994352D02*
X126478823Y-113675304D01*
X125364538Y-113613400D02*
X125488347Y-113675304D01*
X125488347Y-113675304D02*
X125735966Y-113675304D01*
X125735966Y-113675304D02*
X125859776Y-113613400D01*
X125859776Y-113613400D02*
X125921680Y-113489590D01*
X125921680Y-113489590D02*
X125921680Y-112994352D01*
X125921680Y-112994352D02*
X125859776Y-112870542D01*
X125859776Y-112870542D02*
X125735966Y-112808638D01*
X125735966Y-112808638D02*
X125488347Y-112808638D01*
X125488347Y-112808638D02*
X125364538Y-112870542D01*
X125364538Y-112870542D02*
X125302633Y-112994352D01*
X125302633Y-112994352D02*
X125302633Y-113118161D01*
X125302633Y-113118161D02*
X125921680Y-113241971D01*
X124559775Y-113675304D02*
X124683585Y-113613400D01*
X124683585Y-113613400D02*
X124745490Y-113489590D01*
X124745490Y-113489590D02*
X124745490Y-112375304D01*
D10*
X151929790Y-121891101D02*
X151891695Y-121814911D01*
X151891695Y-121814911D02*
X151891695Y-121700625D01*
X151891695Y-121700625D02*
X151929790Y-121586339D01*
X151929790Y-121586339D02*
X152005980Y-121510149D01*
X152005980Y-121510149D02*
X152082171Y-121472054D01*
X152082171Y-121472054D02*
X152234552Y-121433958D01*
X152234552Y-121433958D02*
X152348838Y-121433958D01*
X152348838Y-121433958D02*
X152501219Y-121472054D01*
X152501219Y-121472054D02*
X152577409Y-121510149D01*
X152577409Y-121510149D02*
X152653600Y-121586339D01*
X152653600Y-121586339D02*
X152691695Y-121700625D01*
X152691695Y-121700625D02*
X152691695Y-121776816D01*
X152691695Y-121776816D02*
X152653600Y-121891101D01*
X152653600Y-121891101D02*
X152615504Y-121929197D01*
X152615504Y-121929197D02*
X152348838Y-121929197D01*
X152348838Y-121929197D02*
X152348838Y-121776816D01*
X152691695Y-122272054D02*
X151891695Y-122272054D01*
X151891695Y-122272054D02*
X152691695Y-122729197D01*
X152691695Y-122729197D02*
X151891695Y-122729197D01*
X152691695Y-123110149D02*
X151891695Y-123110149D01*
X151891695Y-123110149D02*
X151891695Y-123300625D01*
X151891695Y-123300625D02*
X151929790Y-123414911D01*
X151929790Y-123414911D02*
X152005980Y-123491101D01*
X152005980Y-123491101D02*
X152082171Y-123529196D01*
X152082171Y-123529196D02*
X152234552Y-123567292D01*
X152234552Y-123567292D02*
X152348838Y-123567292D01*
X152348838Y-123567292D02*
X152501219Y-123529196D01*
X152501219Y-123529196D02*
X152577409Y-123491101D01*
X152577409Y-123491101D02*
X152653600Y-123414911D01*
X152653600Y-123414911D02*
X152691695Y-123300625D01*
X152691695Y-123300625D02*
X152691695Y-123110149D01*
X148103600Y-113693958D02*
X148141695Y-113808244D01*
X148141695Y-113808244D02*
X148141695Y-113998720D01*
X148141695Y-113998720D02*
X148103600Y-114074911D01*
X148103600Y-114074911D02*
X148065504Y-114113006D01*
X148065504Y-114113006D02*
X147989314Y-114151101D01*
X147989314Y-114151101D02*
X147913123Y-114151101D01*
X147913123Y-114151101D02*
X147836933Y-114113006D01*
X147836933Y-114113006D02*
X147798838Y-114074911D01*
X147798838Y-114074911D02*
X147760742Y-113998720D01*
X147760742Y-113998720D02*
X147722647Y-113846339D01*
X147722647Y-113846339D02*
X147684552Y-113770149D01*
X147684552Y-113770149D02*
X147646457Y-113732054D01*
X147646457Y-113732054D02*
X147570266Y-113693958D01*
X147570266Y-113693958D02*
X147494076Y-113693958D01*
X147494076Y-113693958D02*
X147417885Y-113732054D01*
X147417885Y-113732054D02*
X147379790Y-113770149D01*
X147379790Y-113770149D02*
X147341695Y-113846339D01*
X147341695Y-113846339D02*
X147341695Y-114036816D01*
X147341695Y-114036816D02*
X147379790Y-114151101D01*
X148141695Y-114493959D02*
X147341695Y-114493959D01*
X147341695Y-114493959D02*
X147341695Y-114684435D01*
X147341695Y-114684435D02*
X147379790Y-114798721D01*
X147379790Y-114798721D02*
X147455980Y-114874911D01*
X147455980Y-114874911D02*
X147532171Y-114913006D01*
X147532171Y-114913006D02*
X147684552Y-114951102D01*
X147684552Y-114951102D02*
X147798838Y-114951102D01*
X147798838Y-114951102D02*
X147951219Y-114913006D01*
X147951219Y-114913006D02*
X148027409Y-114874911D01*
X148027409Y-114874911D02*
X148103600Y-114798721D01*
X148103600Y-114798721D02*
X148141695Y-114684435D01*
X148141695Y-114684435D02*
X148141695Y-114493959D01*
X147913123Y-115255863D02*
X147913123Y-115636816D01*
X148141695Y-115179673D02*
X147341695Y-115446340D01*
X147341695Y-115446340D02*
X148141695Y-115713006D01*
X111679790Y-121941101D02*
X111641695Y-121864911D01*
X111641695Y-121864911D02*
X111641695Y-121750625D01*
X111641695Y-121750625D02*
X111679790Y-121636339D01*
X111679790Y-121636339D02*
X111755980Y-121560149D01*
X111755980Y-121560149D02*
X111832171Y-121522054D01*
X111832171Y-121522054D02*
X111984552Y-121483958D01*
X111984552Y-121483958D02*
X112098838Y-121483958D01*
X112098838Y-121483958D02*
X112251219Y-121522054D01*
X112251219Y-121522054D02*
X112327409Y-121560149D01*
X112327409Y-121560149D02*
X112403600Y-121636339D01*
X112403600Y-121636339D02*
X112441695Y-121750625D01*
X112441695Y-121750625D02*
X112441695Y-121826816D01*
X112441695Y-121826816D02*
X112403600Y-121941101D01*
X112403600Y-121941101D02*
X112365504Y-121979197D01*
X112365504Y-121979197D02*
X112098838Y-121979197D01*
X112098838Y-121979197D02*
X112098838Y-121826816D01*
X112441695Y-122322054D02*
X111641695Y-122322054D01*
X111641695Y-122322054D02*
X112441695Y-122779197D01*
X112441695Y-122779197D02*
X111641695Y-122779197D01*
X112441695Y-123160149D02*
X111641695Y-123160149D01*
X111641695Y-123160149D02*
X111641695Y-123350625D01*
X111641695Y-123350625D02*
X111679790Y-123464911D01*
X111679790Y-123464911D02*
X111755980Y-123541101D01*
X111755980Y-123541101D02*
X111832171Y-123579196D01*
X111832171Y-123579196D02*
X111984552Y-123617292D01*
X111984552Y-123617292D02*
X112098838Y-123617292D01*
X112098838Y-123617292D02*
X112251219Y-123579196D01*
X112251219Y-123579196D02*
X112327409Y-123541101D01*
X112327409Y-123541101D02*
X112403600Y-123464911D01*
X112403600Y-123464911D02*
X112441695Y-123350625D01*
X112441695Y-123350625D02*
X112441695Y-123160149D01*
X152322647Y-116988720D02*
X152360742Y-117103006D01*
X152360742Y-117103006D02*
X152398838Y-117141101D01*
X152398838Y-117141101D02*
X152475028Y-117179197D01*
X152475028Y-117179197D02*
X152589314Y-117179197D01*
X152589314Y-117179197D02*
X152665504Y-117141101D01*
X152665504Y-117141101D02*
X152703600Y-117103006D01*
X152703600Y-117103006D02*
X152741695Y-117026816D01*
X152741695Y-117026816D02*
X152741695Y-116722054D01*
X152741695Y-116722054D02*
X151941695Y-116722054D01*
X151941695Y-116722054D02*
X151941695Y-116988720D01*
X151941695Y-116988720D02*
X151979790Y-117064911D01*
X151979790Y-117064911D02*
X152017885Y-117103006D01*
X152017885Y-117103006D02*
X152094076Y-117141101D01*
X152094076Y-117141101D02*
X152170266Y-117141101D01*
X152170266Y-117141101D02*
X152246457Y-117103006D01*
X152246457Y-117103006D02*
X152284552Y-117064911D01*
X152284552Y-117064911D02*
X152322647Y-116988720D01*
X152322647Y-116988720D02*
X152322647Y-116722054D01*
X152017885Y-117483958D02*
X151979790Y-117522054D01*
X151979790Y-117522054D02*
X151941695Y-117598244D01*
X151941695Y-117598244D02*
X151941695Y-117788720D01*
X151941695Y-117788720D02*
X151979790Y-117864911D01*
X151979790Y-117864911D02*
X152017885Y-117903006D01*
X152017885Y-117903006D02*
X152094076Y-117941101D01*
X152094076Y-117941101D02*
X152170266Y-117941101D01*
X152170266Y-117941101D02*
X152284552Y-117903006D01*
X152284552Y-117903006D02*
X152741695Y-117445863D01*
X152741695Y-117445863D02*
X152741695Y-117941101D01*
X112491695Y-116979197D02*
X112110742Y-116712530D01*
X112491695Y-116522054D02*
X111691695Y-116522054D01*
X111691695Y-116522054D02*
X111691695Y-116826816D01*
X111691695Y-116826816D02*
X111729790Y-116903006D01*
X111729790Y-116903006D02*
X111767885Y-116941101D01*
X111767885Y-116941101D02*
X111844076Y-116979197D01*
X111844076Y-116979197D02*
X111958361Y-116979197D01*
X111958361Y-116979197D02*
X112034552Y-116941101D01*
X112034552Y-116941101D02*
X112072647Y-116903006D01*
X112072647Y-116903006D02*
X112110742Y-116826816D01*
X112110742Y-116826816D02*
X112110742Y-116522054D01*
X112072647Y-117322054D02*
X112072647Y-117588720D01*
X112491695Y-117703006D02*
X112491695Y-117322054D01*
X112491695Y-117322054D02*
X111691695Y-117322054D01*
X111691695Y-117322054D02*
X111691695Y-117703006D01*
X112453600Y-118007768D02*
X112491695Y-118122054D01*
X112491695Y-118122054D02*
X112491695Y-118312530D01*
X112491695Y-118312530D02*
X112453600Y-118388721D01*
X112453600Y-118388721D02*
X112415504Y-118426816D01*
X112415504Y-118426816D02*
X112339314Y-118464911D01*
X112339314Y-118464911D02*
X112263123Y-118464911D01*
X112263123Y-118464911D02*
X112186933Y-118426816D01*
X112186933Y-118426816D02*
X112148838Y-118388721D01*
X112148838Y-118388721D02*
X112110742Y-118312530D01*
X112110742Y-118312530D02*
X112072647Y-118160149D01*
X112072647Y-118160149D02*
X112034552Y-118083959D01*
X112034552Y-118083959D02*
X111996457Y-118045864D01*
X111996457Y-118045864D02*
X111920266Y-118007768D01*
X111920266Y-118007768D02*
X111844076Y-118007768D01*
X111844076Y-118007768D02*
X111767885Y-118045864D01*
X111767885Y-118045864D02*
X111729790Y-118083959D01*
X111729790Y-118083959D02*
X111691695Y-118160149D01*
X111691695Y-118160149D02*
X111691695Y-118350626D01*
X111691695Y-118350626D02*
X111729790Y-118464911D01*
D12*
X142004819Y-120333333D02*
X141528628Y-120000000D01*
X142004819Y-119761905D02*
X141004819Y-119761905D01*
X141004819Y-119761905D02*
X141004819Y-120142857D01*
X141004819Y-120142857D02*
X141052438Y-120238095D01*
X141052438Y-120238095D02*
X141100057Y-120285714D01*
X141100057Y-120285714D02*
X141195295Y-120333333D01*
X141195295Y-120333333D02*
X141338152Y-120333333D01*
X141338152Y-120333333D02*
X141433390Y-120285714D01*
X141433390Y-120285714D02*
X141481009Y-120238095D01*
X141481009Y-120238095D02*
X141528628Y-120142857D01*
X141528628Y-120142857D02*
X141528628Y-119761905D01*
X141004819Y-121190476D02*
X141004819Y-121000000D01*
X141004819Y-121000000D02*
X141052438Y-120904762D01*
X141052438Y-120904762D02*
X141100057Y-120857143D01*
X141100057Y-120857143D02*
X141242914Y-120761905D01*
X141242914Y-120761905D02*
X141433390Y-120714286D01*
X141433390Y-120714286D02*
X141814342Y-120714286D01*
X141814342Y-120714286D02*
X141909580Y-120761905D01*
X141909580Y-120761905D02*
X141957200Y-120809524D01*
X141957200Y-120809524D02*
X142004819Y-120904762D01*
X142004819Y-120904762D02*
X142004819Y-121095238D01*
X142004819Y-121095238D02*
X141957200Y-121190476D01*
X141957200Y-121190476D02*
X141909580Y-121238095D01*
X141909580Y-121238095D02*
X141814342Y-121285714D01*
X141814342Y-121285714D02*
X141576247Y-121285714D01*
X141576247Y-121285714D02*
X141481009Y-121238095D01*
X141481009Y-121238095D02*
X141433390Y-121190476D01*
X141433390Y-121190476D02*
X141385771Y-121095238D01*
X141385771Y-121095238D02*
X141385771Y-120904762D01*
X141385771Y-120904762D02*
X141433390Y-120809524D01*
X141433390Y-120809524D02*
X141481009Y-120761905D01*
X141481009Y-120761905D02*
X141576247Y-120714286D01*
X113609580Y-110857142D02*
X113657200Y-110809523D01*
X113657200Y-110809523D02*
X113704819Y-110666666D01*
X113704819Y-110666666D02*
X113704819Y-110571428D01*
X113704819Y-110571428D02*
X113657200Y-110428571D01*
X113657200Y-110428571D02*
X113561961Y-110333333D01*
X113561961Y-110333333D02*
X113466723Y-110285714D01*
X113466723Y-110285714D02*
X113276247Y-110238095D01*
X113276247Y-110238095D02*
X113133390Y-110238095D01*
X113133390Y-110238095D02*
X112942914Y-110285714D01*
X112942914Y-110285714D02*
X112847676Y-110333333D01*
X112847676Y-110333333D02*
X112752438Y-110428571D01*
X112752438Y-110428571D02*
X112704819Y-110571428D01*
X112704819Y-110571428D02*
X112704819Y-110666666D01*
X112704819Y-110666666D02*
X112752438Y-110809523D01*
X112752438Y-110809523D02*
X112800057Y-110857142D01*
X113704819Y-111809523D02*
X113704819Y-111238095D01*
X113704819Y-111523809D02*
X112704819Y-111523809D01*
X112704819Y-111523809D02*
X112847676Y-111428571D01*
X112847676Y-111428571D02*
X112942914Y-111333333D01*
X112942914Y-111333333D02*
X112990533Y-111238095D01*
X113038152Y-112666666D02*
X113704819Y-112666666D01*
X112657200Y-112428571D02*
X113371485Y-112190476D01*
X113371485Y-112190476D02*
X113371485Y-112809523D01*
X129404819Y-115433333D02*
X128928628Y-115100000D01*
X129404819Y-114861905D02*
X128404819Y-114861905D01*
X128404819Y-114861905D02*
X128404819Y-115242857D01*
X128404819Y-115242857D02*
X128452438Y-115338095D01*
X128452438Y-115338095D02*
X128500057Y-115385714D01*
X128500057Y-115385714D02*
X128595295Y-115433333D01*
X128595295Y-115433333D02*
X128738152Y-115433333D01*
X128738152Y-115433333D02*
X128833390Y-115385714D01*
X128833390Y-115385714D02*
X128881009Y-115338095D01*
X128881009Y-115338095D02*
X128928628Y-115242857D01*
X128928628Y-115242857D02*
X128928628Y-114861905D01*
X129404819Y-116385714D02*
X129404819Y-115814286D01*
X129404819Y-116100000D02*
X128404819Y-116100000D01*
X128404819Y-116100000D02*
X128547676Y-116004762D01*
X128547676Y-116004762D02*
X128642914Y-115909524D01*
X128642914Y-115909524D02*
X128690533Y-115814286D01*
X125359580Y-115383333D02*
X125407200Y-115335714D01*
X125407200Y-115335714D02*
X125454819Y-115192857D01*
X125454819Y-115192857D02*
X125454819Y-115097619D01*
X125454819Y-115097619D02*
X125407200Y-114954762D01*
X125407200Y-114954762D02*
X125311961Y-114859524D01*
X125311961Y-114859524D02*
X125216723Y-114811905D01*
X125216723Y-114811905D02*
X125026247Y-114764286D01*
X125026247Y-114764286D02*
X124883390Y-114764286D01*
X124883390Y-114764286D02*
X124692914Y-114811905D01*
X124692914Y-114811905D02*
X124597676Y-114859524D01*
X124597676Y-114859524D02*
X124502438Y-114954762D01*
X124502438Y-114954762D02*
X124454819Y-115097619D01*
X124454819Y-115097619D02*
X124454819Y-115192857D01*
X124454819Y-115192857D02*
X124502438Y-115335714D01*
X124502438Y-115335714D02*
X124550057Y-115383333D01*
X124788152Y-116240476D02*
X125454819Y-116240476D01*
X124407200Y-116002381D02*
X125121485Y-115764286D01*
X125121485Y-115764286D02*
X125121485Y-116383333D01*
X135359580Y-115433333D02*
X135407200Y-115385714D01*
X135407200Y-115385714D02*
X135454819Y-115242857D01*
X135454819Y-115242857D02*
X135454819Y-115147619D01*
X135454819Y-115147619D02*
X135407200Y-115004762D01*
X135407200Y-115004762D02*
X135311961Y-114909524D01*
X135311961Y-114909524D02*
X135216723Y-114861905D01*
X135216723Y-114861905D02*
X135026247Y-114814286D01*
X135026247Y-114814286D02*
X134883390Y-114814286D01*
X134883390Y-114814286D02*
X134692914Y-114861905D01*
X134692914Y-114861905D02*
X134597676Y-114909524D01*
X134597676Y-114909524D02*
X134502438Y-115004762D01*
X134502438Y-115004762D02*
X134454819Y-115147619D01*
X134454819Y-115147619D02*
X134454819Y-115242857D01*
X134454819Y-115242857D02*
X134502438Y-115385714D01*
X134502438Y-115385714D02*
X134550057Y-115433333D01*
X134883390Y-116004762D02*
X134835771Y-115909524D01*
X134835771Y-115909524D02*
X134788152Y-115861905D01*
X134788152Y-115861905D02*
X134692914Y-115814286D01*
X134692914Y-115814286D02*
X134645295Y-115814286D01*
X134645295Y-115814286D02*
X134550057Y-115861905D01*
X134550057Y-115861905D02*
X134502438Y-115909524D01*
X134502438Y-115909524D02*
X134454819Y-116004762D01*
X134454819Y-116004762D02*
X134454819Y-116195238D01*
X134454819Y-116195238D02*
X134502438Y-116290476D01*
X134502438Y-116290476D02*
X134550057Y-116338095D01*
X134550057Y-116338095D02*
X134645295Y-116385714D01*
X134645295Y-116385714D02*
X134692914Y-116385714D01*
X134692914Y-116385714D02*
X134788152Y-116338095D01*
X134788152Y-116338095D02*
X134835771Y-116290476D01*
X134835771Y-116290476D02*
X134883390Y-116195238D01*
X134883390Y-116195238D02*
X134883390Y-116004762D01*
X134883390Y-116004762D02*
X134931009Y-115909524D01*
X134931009Y-115909524D02*
X134978628Y-115861905D01*
X134978628Y-115861905D02*
X135073866Y-115814286D01*
X135073866Y-115814286D02*
X135264342Y-115814286D01*
X135264342Y-115814286D02*
X135359580Y-115861905D01*
X135359580Y-115861905D02*
X135407200Y-115909524D01*
X135407200Y-115909524D02*
X135454819Y-116004762D01*
X135454819Y-116004762D02*
X135454819Y-116195238D01*
X135454819Y-116195238D02*
X135407200Y-116290476D01*
X135407200Y-116290476D02*
X135359580Y-116338095D01*
X135359580Y-116338095D02*
X135264342Y-116385714D01*
X135264342Y-116385714D02*
X135073866Y-116385714D01*
X135073866Y-116385714D02*
X134978628Y-116338095D01*
X134978628Y-116338095D02*
X134931009Y-116290476D01*
X134931009Y-116290476D02*
X134883390Y-116195238D01*
X113659580Y-122107142D02*
X113707200Y-122059523D01*
X113707200Y-122059523D02*
X113754819Y-121916666D01*
X113754819Y-121916666D02*
X113754819Y-121821428D01*
X113754819Y-121821428D02*
X113707200Y-121678571D01*
X113707200Y-121678571D02*
X113611961Y-121583333D01*
X113611961Y-121583333D02*
X113516723Y-121535714D01*
X113516723Y-121535714D02*
X113326247Y-121488095D01*
X113326247Y-121488095D02*
X113183390Y-121488095D01*
X113183390Y-121488095D02*
X112992914Y-121535714D01*
X112992914Y-121535714D02*
X112897676Y-121583333D01*
X112897676Y-121583333D02*
X112802438Y-121678571D01*
X112802438Y-121678571D02*
X112754819Y-121821428D01*
X112754819Y-121821428D02*
X112754819Y-121916666D01*
X112754819Y-121916666D02*
X112802438Y-122059523D01*
X112802438Y-122059523D02*
X112850057Y-122107142D01*
X113754819Y-123059523D02*
X113754819Y-122488095D01*
X113754819Y-122773809D02*
X112754819Y-122773809D01*
X112754819Y-122773809D02*
X112897676Y-122678571D01*
X112897676Y-122678571D02*
X112992914Y-122583333D01*
X112992914Y-122583333D02*
X113040533Y-122488095D01*
X113754819Y-124011904D02*
X113754819Y-123440476D01*
X113754819Y-123726190D02*
X112754819Y-123726190D01*
X112754819Y-123726190D02*
X112897676Y-123630952D01*
X112897676Y-123630952D02*
X112992914Y-123535714D01*
X112992914Y-123535714D02*
X113040533Y-123440476D01*
X106904819Y-110535714D02*
X107619104Y-110535714D01*
X107619104Y-110535714D02*
X107761961Y-110488095D01*
X107761961Y-110488095D02*
X107857200Y-110392857D01*
X107857200Y-110392857D02*
X107904819Y-110250000D01*
X107904819Y-110250000D02*
X107904819Y-110154762D01*
X107000057Y-110964286D02*
X106952438Y-111011905D01*
X106952438Y-111011905D02*
X106904819Y-111107143D01*
X106904819Y-111107143D02*
X106904819Y-111345238D01*
X106904819Y-111345238D02*
X106952438Y-111440476D01*
X106952438Y-111440476D02*
X107000057Y-111488095D01*
X107000057Y-111488095D02*
X107095295Y-111535714D01*
X107095295Y-111535714D02*
X107190533Y-111535714D01*
X107190533Y-111535714D02*
X107333390Y-111488095D01*
X107333390Y-111488095D02*
X107904819Y-110916667D01*
X107904819Y-110916667D02*
X107904819Y-111535714D01*
X107904819Y-112440476D02*
X107904819Y-111964286D01*
X107904819Y-111964286D02*
X106904819Y-111964286D01*
X107904819Y-113297619D02*
X107904819Y-112726191D01*
X107904819Y-113011905D02*
X106904819Y-113011905D01*
X106904819Y-113011905D02*
X107047676Y-112916667D01*
X107047676Y-112916667D02*
X107142914Y-112821429D01*
X107142914Y-112821429D02*
X107190533Y-112726191D01*
X127359580Y-120433333D02*
X127407200Y-120385714D01*
X127407200Y-120385714D02*
X127454819Y-120242857D01*
X127454819Y-120242857D02*
X127454819Y-120147619D01*
X127454819Y-120147619D02*
X127407200Y-120004762D01*
X127407200Y-120004762D02*
X127311961Y-119909524D01*
X127311961Y-119909524D02*
X127216723Y-119861905D01*
X127216723Y-119861905D02*
X127026247Y-119814286D01*
X127026247Y-119814286D02*
X126883390Y-119814286D01*
X126883390Y-119814286D02*
X126692914Y-119861905D01*
X126692914Y-119861905D02*
X126597676Y-119909524D01*
X126597676Y-119909524D02*
X126502438Y-120004762D01*
X126502438Y-120004762D02*
X126454819Y-120147619D01*
X126454819Y-120147619D02*
X126454819Y-120242857D01*
X126454819Y-120242857D02*
X126502438Y-120385714D01*
X126502438Y-120385714D02*
X126550057Y-120433333D01*
X126550057Y-120814286D02*
X126502438Y-120861905D01*
X126502438Y-120861905D02*
X126454819Y-120957143D01*
X126454819Y-120957143D02*
X126454819Y-121195238D01*
X126454819Y-121195238D02*
X126502438Y-121290476D01*
X126502438Y-121290476D02*
X126550057Y-121338095D01*
X126550057Y-121338095D02*
X126645295Y-121385714D01*
X126645295Y-121385714D02*
X126740533Y-121385714D01*
X126740533Y-121385714D02*
X126883390Y-121338095D01*
X126883390Y-121338095D02*
X127454819Y-120766667D01*
X127454819Y-120766667D02*
X127454819Y-121385714D01*
X135359580Y-120433333D02*
X135407200Y-120385714D01*
X135407200Y-120385714D02*
X135454819Y-120242857D01*
X135454819Y-120242857D02*
X135454819Y-120147619D01*
X135454819Y-120147619D02*
X135407200Y-120004762D01*
X135407200Y-120004762D02*
X135311961Y-119909524D01*
X135311961Y-119909524D02*
X135216723Y-119861905D01*
X135216723Y-119861905D02*
X135026247Y-119814286D01*
X135026247Y-119814286D02*
X134883390Y-119814286D01*
X134883390Y-119814286D02*
X134692914Y-119861905D01*
X134692914Y-119861905D02*
X134597676Y-119909524D01*
X134597676Y-119909524D02*
X134502438Y-120004762D01*
X134502438Y-120004762D02*
X134454819Y-120147619D01*
X134454819Y-120147619D02*
X134454819Y-120242857D01*
X134454819Y-120242857D02*
X134502438Y-120385714D01*
X134502438Y-120385714D02*
X134550057Y-120433333D01*
X134454819Y-120766667D02*
X134454819Y-121433333D01*
X134454819Y-121433333D02*
X135454819Y-121004762D01*
X133454819Y-114657142D02*
X132978628Y-114323809D01*
X133454819Y-114085714D02*
X132454819Y-114085714D01*
X132454819Y-114085714D02*
X132454819Y-114466666D01*
X132454819Y-114466666D02*
X132502438Y-114561904D01*
X132502438Y-114561904D02*
X132550057Y-114609523D01*
X132550057Y-114609523D02*
X132645295Y-114657142D01*
X132645295Y-114657142D02*
X132788152Y-114657142D01*
X132788152Y-114657142D02*
X132883390Y-114609523D01*
X132883390Y-114609523D02*
X132931009Y-114561904D01*
X132931009Y-114561904D02*
X132978628Y-114466666D01*
X132978628Y-114466666D02*
X132978628Y-114085714D01*
X133454819Y-115609523D02*
X133454819Y-115038095D01*
X133454819Y-115323809D02*
X132454819Y-115323809D01*
X132454819Y-115323809D02*
X132597676Y-115228571D01*
X132597676Y-115228571D02*
X132692914Y-115133333D01*
X132692914Y-115133333D02*
X132740533Y-115038095D01*
X132550057Y-115990476D02*
X132502438Y-116038095D01*
X132502438Y-116038095D02*
X132454819Y-116133333D01*
X132454819Y-116133333D02*
X132454819Y-116371428D01*
X132454819Y-116371428D02*
X132502438Y-116466666D01*
X132502438Y-116466666D02*
X132550057Y-116514285D01*
X132550057Y-116514285D02*
X132645295Y-116561904D01*
X132645295Y-116561904D02*
X132740533Y-116561904D01*
X132740533Y-116561904D02*
X132883390Y-116514285D01*
X132883390Y-116514285D02*
X133454819Y-115942857D01*
X133454819Y-115942857D02*
X133454819Y-116561904D01*
X131454819Y-114657142D02*
X130978628Y-114323809D01*
X131454819Y-114085714D02*
X130454819Y-114085714D01*
X130454819Y-114085714D02*
X130454819Y-114466666D01*
X130454819Y-114466666D02*
X130502438Y-114561904D01*
X130502438Y-114561904D02*
X130550057Y-114609523D01*
X130550057Y-114609523D02*
X130645295Y-114657142D01*
X130645295Y-114657142D02*
X130788152Y-114657142D01*
X130788152Y-114657142D02*
X130883390Y-114609523D01*
X130883390Y-114609523D02*
X130931009Y-114561904D01*
X130931009Y-114561904D02*
X130978628Y-114466666D01*
X130978628Y-114466666D02*
X130978628Y-114085714D01*
X131454819Y-115609523D02*
X131454819Y-115038095D01*
X131454819Y-115323809D02*
X130454819Y-115323809D01*
X130454819Y-115323809D02*
X130597676Y-115228571D01*
X130597676Y-115228571D02*
X130692914Y-115133333D01*
X130692914Y-115133333D02*
X130740533Y-115038095D01*
X131454819Y-116561904D02*
X131454819Y-115990476D01*
X131454819Y-116276190D02*
X130454819Y-116276190D01*
X130454819Y-116276190D02*
X130597676Y-116180952D01*
X130597676Y-116180952D02*
X130692914Y-116085714D01*
X130692914Y-116085714D02*
X130740533Y-115990476D01*
X110589580Y-110857142D02*
X110637200Y-110809523D01*
X110637200Y-110809523D02*
X110684819Y-110666666D01*
X110684819Y-110666666D02*
X110684819Y-110571428D01*
X110684819Y-110571428D02*
X110637200Y-110428571D01*
X110637200Y-110428571D02*
X110541961Y-110333333D01*
X110541961Y-110333333D02*
X110446723Y-110285714D01*
X110446723Y-110285714D02*
X110256247Y-110238095D01*
X110256247Y-110238095D02*
X110113390Y-110238095D01*
X110113390Y-110238095D02*
X109922914Y-110285714D01*
X109922914Y-110285714D02*
X109827676Y-110333333D01*
X109827676Y-110333333D02*
X109732438Y-110428571D01*
X109732438Y-110428571D02*
X109684819Y-110571428D01*
X109684819Y-110571428D02*
X109684819Y-110666666D01*
X109684819Y-110666666D02*
X109732438Y-110809523D01*
X109732438Y-110809523D02*
X109780057Y-110857142D01*
X110684819Y-111809523D02*
X110684819Y-111238095D01*
X110684819Y-111523809D02*
X109684819Y-111523809D01*
X109684819Y-111523809D02*
X109827676Y-111428571D01*
X109827676Y-111428571D02*
X109922914Y-111333333D01*
X109922914Y-111333333D02*
X109970533Y-111238095D01*
X109684819Y-112142857D02*
X109684819Y-112761904D01*
X109684819Y-112761904D02*
X110065771Y-112428571D01*
X110065771Y-112428571D02*
X110065771Y-112571428D01*
X110065771Y-112571428D02*
X110113390Y-112666666D01*
X110113390Y-112666666D02*
X110161009Y-112714285D01*
X110161009Y-112714285D02*
X110256247Y-112761904D01*
X110256247Y-112761904D02*
X110494342Y-112761904D01*
X110494342Y-112761904D02*
X110589580Y-112714285D01*
X110589580Y-112714285D02*
X110637200Y-112666666D01*
X110637200Y-112666666D02*
X110684819Y-112571428D01*
X110684819Y-112571428D02*
X110684819Y-112285714D01*
X110684819Y-112285714D02*
X110637200Y-112190476D01*
X110637200Y-112190476D02*
X110589580Y-112142857D01*
X129509580Y-120433333D02*
X129557200Y-120385714D01*
X129557200Y-120385714D02*
X129604819Y-120242857D01*
X129604819Y-120242857D02*
X129604819Y-120147619D01*
X129604819Y-120147619D02*
X129557200Y-120004762D01*
X129557200Y-120004762D02*
X129461961Y-119909524D01*
X129461961Y-119909524D02*
X129366723Y-119861905D01*
X129366723Y-119861905D02*
X129176247Y-119814286D01*
X129176247Y-119814286D02*
X129033390Y-119814286D01*
X129033390Y-119814286D02*
X128842914Y-119861905D01*
X128842914Y-119861905D02*
X128747676Y-119909524D01*
X128747676Y-119909524D02*
X128652438Y-120004762D01*
X128652438Y-120004762D02*
X128604819Y-120147619D01*
X128604819Y-120147619D02*
X128604819Y-120242857D01*
X128604819Y-120242857D02*
X128652438Y-120385714D01*
X128652438Y-120385714D02*
X128700057Y-120433333D01*
X128604819Y-120766667D02*
X128604819Y-121385714D01*
X128604819Y-121385714D02*
X128985771Y-121052381D01*
X128985771Y-121052381D02*
X128985771Y-121195238D01*
X128985771Y-121195238D02*
X129033390Y-121290476D01*
X129033390Y-121290476D02*
X129081009Y-121338095D01*
X129081009Y-121338095D02*
X129176247Y-121385714D01*
X129176247Y-121385714D02*
X129414342Y-121385714D01*
X129414342Y-121385714D02*
X129509580Y-121338095D01*
X129509580Y-121338095D02*
X129557200Y-121290476D01*
X129557200Y-121290476D02*
X129604819Y-121195238D01*
X129604819Y-121195238D02*
X129604819Y-120909524D01*
X129604819Y-120909524D02*
X129557200Y-120814286D01*
X129557200Y-120814286D02*
X129509580Y-120766667D01*
X125359580Y-120483333D02*
X125407200Y-120435714D01*
X125407200Y-120435714D02*
X125454819Y-120292857D01*
X125454819Y-120292857D02*
X125454819Y-120197619D01*
X125454819Y-120197619D02*
X125407200Y-120054762D01*
X125407200Y-120054762D02*
X125311961Y-119959524D01*
X125311961Y-119959524D02*
X125216723Y-119911905D01*
X125216723Y-119911905D02*
X125026247Y-119864286D01*
X125026247Y-119864286D02*
X124883390Y-119864286D01*
X124883390Y-119864286D02*
X124692914Y-119911905D01*
X124692914Y-119911905D02*
X124597676Y-119959524D01*
X124597676Y-119959524D02*
X124502438Y-120054762D01*
X124502438Y-120054762D02*
X124454819Y-120197619D01*
X124454819Y-120197619D02*
X124454819Y-120292857D01*
X124454819Y-120292857D02*
X124502438Y-120435714D01*
X124502438Y-120435714D02*
X124550057Y-120483333D01*
X125454819Y-121435714D02*
X125454819Y-120864286D01*
X125454819Y-121150000D02*
X124454819Y-121150000D01*
X124454819Y-121150000D02*
X124597676Y-121054762D01*
X124597676Y-121054762D02*
X124692914Y-120959524D01*
X124692914Y-120959524D02*
X124740533Y-120864286D01*
X119109580Y-114657142D02*
X119157200Y-114609523D01*
X119157200Y-114609523D02*
X119204819Y-114466666D01*
X119204819Y-114466666D02*
X119204819Y-114371428D01*
X119204819Y-114371428D02*
X119157200Y-114228571D01*
X119157200Y-114228571D02*
X119061961Y-114133333D01*
X119061961Y-114133333D02*
X118966723Y-114085714D01*
X118966723Y-114085714D02*
X118776247Y-114038095D01*
X118776247Y-114038095D02*
X118633390Y-114038095D01*
X118633390Y-114038095D02*
X118442914Y-114085714D01*
X118442914Y-114085714D02*
X118347676Y-114133333D01*
X118347676Y-114133333D02*
X118252438Y-114228571D01*
X118252438Y-114228571D02*
X118204819Y-114371428D01*
X118204819Y-114371428D02*
X118204819Y-114466666D01*
X118204819Y-114466666D02*
X118252438Y-114609523D01*
X118252438Y-114609523D02*
X118300057Y-114657142D01*
X119204819Y-115609523D02*
X119204819Y-115038095D01*
X119204819Y-115323809D02*
X118204819Y-115323809D01*
X118204819Y-115323809D02*
X118347676Y-115228571D01*
X118347676Y-115228571D02*
X118442914Y-115133333D01*
X118442914Y-115133333D02*
X118490533Y-115038095D01*
X118204819Y-116228571D02*
X118204819Y-116323809D01*
X118204819Y-116323809D02*
X118252438Y-116419047D01*
X118252438Y-116419047D02*
X118300057Y-116466666D01*
X118300057Y-116466666D02*
X118395295Y-116514285D01*
X118395295Y-116514285D02*
X118585771Y-116561904D01*
X118585771Y-116561904D02*
X118823866Y-116561904D01*
X118823866Y-116561904D02*
X119014342Y-116514285D01*
X119014342Y-116514285D02*
X119109580Y-116466666D01*
X119109580Y-116466666D02*
X119157200Y-116419047D01*
X119157200Y-116419047D02*
X119204819Y-116323809D01*
X119204819Y-116323809D02*
X119204819Y-116228571D01*
X119204819Y-116228571D02*
X119157200Y-116133333D01*
X119157200Y-116133333D02*
X119109580Y-116085714D01*
X119109580Y-116085714D02*
X119014342Y-116038095D01*
X119014342Y-116038095D02*
X118823866Y-115990476D01*
X118823866Y-115990476D02*
X118585771Y-115990476D01*
X118585771Y-115990476D02*
X118395295Y-116038095D01*
X118395295Y-116038095D02*
X118300057Y-116085714D01*
X118300057Y-116085714D02*
X118252438Y-116133333D01*
X118252438Y-116133333D02*
X118204819Y-116228571D01*
X118654819Y-122533333D02*
X118178628Y-122200000D01*
X118654819Y-121961905D02*
X117654819Y-121961905D01*
X117654819Y-121961905D02*
X117654819Y-122342857D01*
X117654819Y-122342857D02*
X117702438Y-122438095D01*
X117702438Y-122438095D02*
X117750057Y-122485714D01*
X117750057Y-122485714D02*
X117845295Y-122533333D01*
X117845295Y-122533333D02*
X117988152Y-122533333D01*
X117988152Y-122533333D02*
X118083390Y-122485714D01*
X118083390Y-122485714D02*
X118131009Y-122438095D01*
X118131009Y-122438095D02*
X118178628Y-122342857D01*
X118178628Y-122342857D02*
X118178628Y-121961905D01*
X117654819Y-122866667D02*
X117654819Y-123485714D01*
X117654819Y-123485714D02*
X118035771Y-123152381D01*
X118035771Y-123152381D02*
X118035771Y-123295238D01*
X118035771Y-123295238D02*
X118083390Y-123390476D01*
X118083390Y-123390476D02*
X118131009Y-123438095D01*
X118131009Y-123438095D02*
X118226247Y-123485714D01*
X118226247Y-123485714D02*
X118464342Y-123485714D01*
X118464342Y-123485714D02*
X118559580Y-123438095D01*
X118559580Y-123438095D02*
X118607200Y-123390476D01*
X118607200Y-123390476D02*
X118654819Y-123295238D01*
X118654819Y-123295238D02*
X118654819Y-123009524D01*
X118654819Y-123009524D02*
X118607200Y-122914286D01*
X118607200Y-122914286D02*
X118559580Y-122866667D01*
X133359580Y-120433333D02*
X133407200Y-120385714D01*
X133407200Y-120385714D02*
X133454819Y-120242857D01*
X133454819Y-120242857D02*
X133454819Y-120147619D01*
X133454819Y-120147619D02*
X133407200Y-120004762D01*
X133407200Y-120004762D02*
X133311961Y-119909524D01*
X133311961Y-119909524D02*
X133216723Y-119861905D01*
X133216723Y-119861905D02*
X133026247Y-119814286D01*
X133026247Y-119814286D02*
X132883390Y-119814286D01*
X132883390Y-119814286D02*
X132692914Y-119861905D01*
X132692914Y-119861905D02*
X132597676Y-119909524D01*
X132597676Y-119909524D02*
X132502438Y-120004762D01*
X132502438Y-120004762D02*
X132454819Y-120147619D01*
X132454819Y-120147619D02*
X132454819Y-120242857D01*
X132454819Y-120242857D02*
X132502438Y-120385714D01*
X132502438Y-120385714D02*
X132550057Y-120433333D01*
X132454819Y-121290476D02*
X132454819Y-121100000D01*
X132454819Y-121100000D02*
X132502438Y-121004762D01*
X132502438Y-121004762D02*
X132550057Y-120957143D01*
X132550057Y-120957143D02*
X132692914Y-120861905D01*
X132692914Y-120861905D02*
X132883390Y-120814286D01*
X132883390Y-120814286D02*
X133264342Y-120814286D01*
X133264342Y-120814286D02*
X133359580Y-120861905D01*
X133359580Y-120861905D02*
X133407200Y-120909524D01*
X133407200Y-120909524D02*
X133454819Y-121004762D01*
X133454819Y-121004762D02*
X133454819Y-121195238D01*
X133454819Y-121195238D02*
X133407200Y-121290476D01*
X133407200Y-121290476D02*
X133359580Y-121338095D01*
X133359580Y-121338095D02*
X133264342Y-121385714D01*
X133264342Y-121385714D02*
X133026247Y-121385714D01*
X133026247Y-121385714D02*
X132931009Y-121338095D01*
X132931009Y-121338095D02*
X132883390Y-121290476D01*
X132883390Y-121290476D02*
X132835771Y-121195238D01*
X132835771Y-121195238D02*
X132835771Y-121004762D01*
X132835771Y-121004762D02*
X132883390Y-120909524D01*
X132883390Y-120909524D02*
X132931009Y-120861905D01*
X132931009Y-120861905D02*
X133026247Y-120814286D01*
X117109580Y-115383333D02*
X117157200Y-115335714D01*
X117157200Y-115335714D02*
X117204819Y-115192857D01*
X117204819Y-115192857D02*
X117204819Y-115097619D01*
X117204819Y-115097619D02*
X117157200Y-114954762D01*
X117157200Y-114954762D02*
X117061961Y-114859524D01*
X117061961Y-114859524D02*
X116966723Y-114811905D01*
X116966723Y-114811905D02*
X116776247Y-114764286D01*
X116776247Y-114764286D02*
X116633390Y-114764286D01*
X116633390Y-114764286D02*
X116442914Y-114811905D01*
X116442914Y-114811905D02*
X116347676Y-114859524D01*
X116347676Y-114859524D02*
X116252438Y-114954762D01*
X116252438Y-114954762D02*
X116204819Y-115097619D01*
X116204819Y-115097619D02*
X116204819Y-115192857D01*
X116204819Y-115192857D02*
X116252438Y-115335714D01*
X116252438Y-115335714D02*
X116300057Y-115383333D01*
X117204819Y-115859524D02*
X117204819Y-116050000D01*
X117204819Y-116050000D02*
X117157200Y-116145238D01*
X117157200Y-116145238D02*
X117109580Y-116192857D01*
X117109580Y-116192857D02*
X116966723Y-116288095D01*
X116966723Y-116288095D02*
X116776247Y-116335714D01*
X116776247Y-116335714D02*
X116395295Y-116335714D01*
X116395295Y-116335714D02*
X116300057Y-116288095D01*
X116300057Y-116288095D02*
X116252438Y-116240476D01*
X116252438Y-116240476D02*
X116204819Y-116145238D01*
X116204819Y-116145238D02*
X116204819Y-115954762D01*
X116204819Y-115954762D02*
X116252438Y-115859524D01*
X116252438Y-115859524D02*
X116300057Y-115811905D01*
X116300057Y-115811905D02*
X116395295Y-115764286D01*
X116395295Y-115764286D02*
X116633390Y-115764286D01*
X116633390Y-115764286D02*
X116728628Y-115811905D01*
X116728628Y-115811905D02*
X116776247Y-115859524D01*
X116776247Y-115859524D02*
X116823866Y-115954762D01*
X116823866Y-115954762D02*
X116823866Y-116145238D01*
X116823866Y-116145238D02*
X116776247Y-116240476D01*
X116776247Y-116240476D02*
X116728628Y-116288095D01*
X116728628Y-116288095D02*
X116633390Y-116335714D01*
X146004819Y-120283333D02*
X145528628Y-119950000D01*
X146004819Y-119711905D02*
X145004819Y-119711905D01*
X145004819Y-119711905D02*
X145004819Y-120092857D01*
X145004819Y-120092857D02*
X145052438Y-120188095D01*
X145052438Y-120188095D02*
X145100057Y-120235714D01*
X145100057Y-120235714D02*
X145195295Y-120283333D01*
X145195295Y-120283333D02*
X145338152Y-120283333D01*
X145338152Y-120283333D02*
X145433390Y-120235714D01*
X145433390Y-120235714D02*
X145481009Y-120188095D01*
X145481009Y-120188095D02*
X145528628Y-120092857D01*
X145528628Y-120092857D02*
X145528628Y-119711905D01*
X145004819Y-121188095D02*
X145004819Y-120711905D01*
X145004819Y-120711905D02*
X145481009Y-120664286D01*
X145481009Y-120664286D02*
X145433390Y-120711905D01*
X145433390Y-120711905D02*
X145385771Y-120807143D01*
X145385771Y-120807143D02*
X145385771Y-121045238D01*
X145385771Y-121045238D02*
X145433390Y-121140476D01*
X145433390Y-121140476D02*
X145481009Y-121188095D01*
X145481009Y-121188095D02*
X145576247Y-121235714D01*
X145576247Y-121235714D02*
X145814342Y-121235714D01*
X145814342Y-121235714D02*
X145909580Y-121188095D01*
X145909580Y-121188095D02*
X145957200Y-121140476D01*
X145957200Y-121140476D02*
X146004819Y-121045238D01*
X146004819Y-121045238D02*
X146004819Y-120807143D01*
X146004819Y-120807143D02*
X145957200Y-120711905D01*
X145957200Y-120711905D02*
X145909580Y-120664286D01*
X143909580Y-120307142D02*
X143957200Y-120259523D01*
X143957200Y-120259523D02*
X144004819Y-120116666D01*
X144004819Y-120116666D02*
X144004819Y-120021428D01*
X144004819Y-120021428D02*
X143957200Y-119878571D01*
X143957200Y-119878571D02*
X143861961Y-119783333D01*
X143861961Y-119783333D02*
X143766723Y-119735714D01*
X143766723Y-119735714D02*
X143576247Y-119688095D01*
X143576247Y-119688095D02*
X143433390Y-119688095D01*
X143433390Y-119688095D02*
X143242914Y-119735714D01*
X143242914Y-119735714D02*
X143147676Y-119783333D01*
X143147676Y-119783333D02*
X143052438Y-119878571D01*
X143052438Y-119878571D02*
X143004819Y-120021428D01*
X143004819Y-120021428D02*
X143004819Y-120116666D01*
X143004819Y-120116666D02*
X143052438Y-120259523D01*
X143052438Y-120259523D02*
X143100057Y-120307142D01*
X144004819Y-121259523D02*
X144004819Y-120688095D01*
X144004819Y-120973809D02*
X143004819Y-120973809D01*
X143004819Y-120973809D02*
X143147676Y-120878571D01*
X143147676Y-120878571D02*
X143242914Y-120783333D01*
X143242914Y-120783333D02*
X143290533Y-120688095D01*
X143100057Y-121640476D02*
X143052438Y-121688095D01*
X143052438Y-121688095D02*
X143004819Y-121783333D01*
X143004819Y-121783333D02*
X143004819Y-122021428D01*
X143004819Y-122021428D02*
X143052438Y-122116666D01*
X143052438Y-122116666D02*
X143100057Y-122164285D01*
X143100057Y-122164285D02*
X143195295Y-122211904D01*
X143195295Y-122211904D02*
X143290533Y-122211904D01*
X143290533Y-122211904D02*
X143433390Y-122164285D01*
X143433390Y-122164285D02*
X144004819Y-121592857D01*
X144004819Y-121592857D02*
X144004819Y-122211904D01*
X131554819Y-120433333D02*
X131078628Y-120100000D01*
X131554819Y-119861905D02*
X130554819Y-119861905D01*
X130554819Y-119861905D02*
X130554819Y-120242857D01*
X130554819Y-120242857D02*
X130602438Y-120338095D01*
X130602438Y-120338095D02*
X130650057Y-120385714D01*
X130650057Y-120385714D02*
X130745295Y-120433333D01*
X130745295Y-120433333D02*
X130888152Y-120433333D01*
X130888152Y-120433333D02*
X130983390Y-120385714D01*
X130983390Y-120385714D02*
X131031009Y-120338095D01*
X131031009Y-120338095D02*
X131078628Y-120242857D01*
X131078628Y-120242857D02*
X131078628Y-119861905D01*
X130650057Y-120814286D02*
X130602438Y-120861905D01*
X130602438Y-120861905D02*
X130554819Y-120957143D01*
X130554819Y-120957143D02*
X130554819Y-121195238D01*
X130554819Y-121195238D02*
X130602438Y-121290476D01*
X130602438Y-121290476D02*
X130650057Y-121338095D01*
X130650057Y-121338095D02*
X130745295Y-121385714D01*
X130745295Y-121385714D02*
X130840533Y-121385714D01*
X130840533Y-121385714D02*
X130983390Y-121338095D01*
X130983390Y-121338095D02*
X131554819Y-120766667D01*
X131554819Y-120766667D02*
X131554819Y-121385714D01*
X115204819Y-115433333D02*
X114728628Y-115100000D01*
X115204819Y-114861905D02*
X114204819Y-114861905D01*
X114204819Y-114861905D02*
X114204819Y-115242857D01*
X114204819Y-115242857D02*
X114252438Y-115338095D01*
X114252438Y-115338095D02*
X114300057Y-115385714D01*
X114300057Y-115385714D02*
X114395295Y-115433333D01*
X114395295Y-115433333D02*
X114538152Y-115433333D01*
X114538152Y-115433333D02*
X114633390Y-115385714D01*
X114633390Y-115385714D02*
X114681009Y-115338095D01*
X114681009Y-115338095D02*
X114728628Y-115242857D01*
X114728628Y-115242857D02*
X114728628Y-114861905D01*
X114538152Y-116290476D02*
X115204819Y-116290476D01*
X114157200Y-116052381D02*
X114871485Y-115814286D01*
X114871485Y-115814286D02*
X114871485Y-116433333D01*
X119661904Y-111054819D02*
X119661904Y-111864342D01*
X119661904Y-111864342D02*
X119614285Y-111959580D01*
X119614285Y-111959580D02*
X119566666Y-112007200D01*
X119566666Y-112007200D02*
X119471428Y-112054819D01*
X119471428Y-112054819D02*
X119280952Y-112054819D01*
X119280952Y-112054819D02*
X119185714Y-112007200D01*
X119185714Y-112007200D02*
X119138095Y-111959580D01*
X119138095Y-111959580D02*
X119090476Y-111864342D01*
X119090476Y-111864342D02*
X119090476Y-111054819D01*
X118090476Y-112054819D02*
X118661904Y-112054819D01*
X118376190Y-112054819D02*
X118376190Y-111054819D01*
X118376190Y-111054819D02*
X118471428Y-111197676D01*
X118471428Y-111197676D02*
X118566666Y-111292914D01*
X118566666Y-111292914D02*
X118661904Y-111340533D01*
X151954819Y-110690476D02*
X152669104Y-110690476D01*
X152669104Y-110690476D02*
X152811961Y-110642857D01*
X152811961Y-110642857D02*
X152907200Y-110547619D01*
X152907200Y-110547619D02*
X152954819Y-110404762D01*
X152954819Y-110404762D02*
X152954819Y-110309524D01*
X151954819Y-111071429D02*
X151954819Y-111690476D01*
X151954819Y-111690476D02*
X152335771Y-111357143D01*
X152335771Y-111357143D02*
X152335771Y-111500000D01*
X152335771Y-111500000D02*
X152383390Y-111595238D01*
X152383390Y-111595238D02*
X152431009Y-111642857D01*
X152431009Y-111642857D02*
X152526247Y-111690476D01*
X152526247Y-111690476D02*
X152764342Y-111690476D01*
X152764342Y-111690476D02*
X152859580Y-111642857D01*
X152859580Y-111642857D02*
X152907200Y-111595238D01*
X152907200Y-111595238D02*
X152954819Y-111500000D01*
X152954819Y-111500000D02*
X152954819Y-111214286D01*
X152954819Y-111214286D02*
X152907200Y-111119048D01*
X152907200Y-111119048D02*
X152859580Y-111071429D01*
X152954819Y-112690476D02*
X152478628Y-112357143D01*
X152954819Y-112119048D02*
X151954819Y-112119048D01*
X151954819Y-112119048D02*
X151954819Y-112500000D01*
X151954819Y-112500000D02*
X152002438Y-112595238D01*
X152002438Y-112595238D02*
X152050057Y-112642857D01*
X152050057Y-112642857D02*
X152145295Y-112690476D01*
X152145295Y-112690476D02*
X152288152Y-112690476D01*
X152288152Y-112690476D02*
X152383390Y-112642857D01*
X152383390Y-112642857D02*
X152431009Y-112595238D01*
X152431009Y-112595238D02*
X152478628Y-112500000D01*
X152478628Y-112500000D02*
X152478628Y-112119048D01*
X152954819Y-113642857D02*
X152954819Y-113071429D01*
X152954819Y-113357143D02*
X151954819Y-113357143D01*
X151954819Y-113357143D02*
X152097676Y-113261905D01*
X152097676Y-113261905D02*
X152192914Y-113166667D01*
X152192914Y-113166667D02*
X152240533Y-113071429D01*
X127409580Y-115433333D02*
X127457200Y-115385714D01*
X127457200Y-115385714D02*
X127504819Y-115242857D01*
X127504819Y-115242857D02*
X127504819Y-115147619D01*
X127504819Y-115147619D02*
X127457200Y-115004762D01*
X127457200Y-115004762D02*
X127361961Y-114909524D01*
X127361961Y-114909524D02*
X127266723Y-114861905D01*
X127266723Y-114861905D02*
X127076247Y-114814286D01*
X127076247Y-114814286D02*
X126933390Y-114814286D01*
X126933390Y-114814286D02*
X126742914Y-114861905D01*
X126742914Y-114861905D02*
X126647676Y-114909524D01*
X126647676Y-114909524D02*
X126552438Y-115004762D01*
X126552438Y-115004762D02*
X126504819Y-115147619D01*
X126504819Y-115147619D02*
X126504819Y-115242857D01*
X126504819Y-115242857D02*
X126552438Y-115385714D01*
X126552438Y-115385714D02*
X126600057Y-115433333D01*
X126504819Y-116338095D02*
X126504819Y-115861905D01*
X126504819Y-115861905D02*
X126981009Y-115814286D01*
X126981009Y-115814286D02*
X126933390Y-115861905D01*
X126933390Y-115861905D02*
X126885771Y-115957143D01*
X126885771Y-115957143D02*
X126885771Y-116195238D01*
X126885771Y-116195238D02*
X126933390Y-116290476D01*
X126933390Y-116290476D02*
X126981009Y-116338095D01*
X126981009Y-116338095D02*
X127076247Y-116385714D01*
X127076247Y-116385714D02*
X127314342Y-116385714D01*
X127314342Y-116385714D02*
X127409580Y-116338095D01*
X127409580Y-116338095D02*
X127457200Y-116290476D01*
X127457200Y-116290476D02*
X127504819Y-116195238D01*
X127504819Y-116195238D02*
X127504819Y-115957143D01*
X127504819Y-115957143D02*
X127457200Y-115861905D01*
X127457200Y-115861905D02*
X127409580Y-115814286D01*
D13*
%TO.C,R6*%
X140977500Y-118237258D02*
X140977500Y-117762742D01*
X142022500Y-118237258D02*
X142022500Y-117762742D01*
%TO.C,C14*%
X111390000Y-111640580D02*
X111390000Y-111359420D01*
X112410000Y-111640580D02*
X112410000Y-111359420D01*
%TO.C,R1*%
X128477500Y-117762742D02*
X128477500Y-118237258D01*
X129522500Y-117762742D02*
X129522500Y-118237258D01*
%TO.C,C4*%
X124490000Y-117859420D02*
X124490000Y-118140580D01*
X125510000Y-117859420D02*
X125510000Y-118140580D01*
%TO.C,C8*%
X134390000Y-118140580D02*
X134390000Y-117859420D01*
X135410000Y-118140580D02*
X135410000Y-117859420D01*
%TO.C,C11*%
X114190000Y-122840580D02*
X114190000Y-122559420D01*
X115210000Y-122840580D02*
X115210000Y-122559420D01*
%TO.C,J2L1*%
X108620000Y-113980000D02*
X108620000Y-116520000D01*
X108620000Y-118140000D02*
X108620000Y-121600000D01*
X108620000Y-123220000D02*
X108620000Y-123790000D01*
X111380000Y-113410000D02*
X108620000Y-113410000D01*
X111380000Y-113410000D02*
X111380000Y-113980000D01*
X111380000Y-113980000D02*
X112850000Y-113980000D01*
X111380000Y-115600000D02*
X111380000Y-119060000D01*
X111380000Y-120680000D02*
X111380000Y-123790000D01*
X111380000Y-123790000D02*
X108620000Y-123790000D01*
%TO.C,C2*%
X126490000Y-123140580D02*
X126490000Y-122859420D01*
X127510000Y-123140580D02*
X127510000Y-122859420D01*
%TO.C,C7*%
X134390000Y-123140580D02*
X134390000Y-122859420D01*
X135410000Y-123140580D02*
X135410000Y-122859420D01*
%TO.C,R12*%
X132477500Y-118237258D02*
X132477500Y-117762742D01*
X133522500Y-118237258D02*
X133522500Y-117762742D01*
%TO.C,R11*%
X130477500Y-117762742D02*
X130477500Y-118237258D01*
X131522500Y-117762742D02*
X131522500Y-118237258D01*
%TO.C,C13*%
X108290000Y-111640580D02*
X108290000Y-111359420D01*
X109310000Y-111640580D02*
X109310000Y-111359420D01*
%TO.C,C3*%
X128590000Y-123140580D02*
X128590000Y-122859420D01*
X129610000Y-123140580D02*
X129610000Y-122859420D01*
%TO.C,C1*%
X124490000Y-123140580D02*
X124490000Y-122859420D01*
X125510000Y-123140580D02*
X125510000Y-122859420D01*
%TO.C,C10*%
X118190000Y-118140580D02*
X118190000Y-117859420D01*
X119210000Y-118140580D02*
X119210000Y-117859420D01*
%TO.C,R3*%
X116177500Y-122462742D02*
X116177500Y-122937258D01*
X117222500Y-122462742D02*
X117222500Y-122937258D01*
%TO.C,C6*%
X132490000Y-123140580D02*
X132490000Y-122859420D01*
X133510000Y-123140580D02*
X133510000Y-122859420D01*
%TO.C,C9*%
X116190000Y-118140580D02*
X116190000Y-117859420D01*
X117210000Y-118140580D02*
X117210000Y-117859420D01*
%TO.C,R5*%
X144977500Y-117762742D02*
X144977500Y-118237258D01*
X146022500Y-117762742D02*
X146022500Y-118237258D01*
%TO.C,C12*%
X142990000Y-117859420D02*
X142990000Y-118140580D01*
X144010000Y-117859420D02*
X144010000Y-118140580D01*
%TO.C,R2*%
X130577500Y-123237258D02*
X130577500Y-122762742D01*
X131622500Y-123237258D02*
X131622500Y-122762742D01*
%TO.C,R4*%
X114177500Y-117762742D02*
X114177500Y-118237258D01*
X115222500Y-117762742D02*
X115222500Y-118237258D01*
%TO.C,U1*%
X115090000Y-111040000D02*
X115090000Y-111090000D01*
X115090000Y-114110000D02*
X115090000Y-114160000D01*
X115090000Y-114160000D02*
X116910000Y-114160000D01*
X116910000Y-111040000D02*
X115090000Y-111040000D01*
X116910000Y-111090000D02*
X116910000Y-111040000D01*
X116910000Y-112990000D02*
X116910000Y-112210000D01*
X116910000Y-114160000D02*
X116910000Y-114110000D01*
X114790000Y-114440000D02*
X114310000Y-114440000D01*
X114550000Y-114110000D01*
X114790000Y-114440000D01*
G36*
X114790000Y-114440000D02*
G01*
X114310000Y-114440000D01*
X114550000Y-114110000D01*
X114790000Y-114440000D01*
G37*
%TO.C,J3R1*%
X148620000Y-113980000D02*
X148620000Y-116520000D01*
X148620000Y-118140000D02*
X148620000Y-121600000D01*
X148620000Y-123220000D02*
X148620000Y-123790000D01*
X151380000Y-113410000D02*
X148620000Y-113410000D01*
X151380000Y-113410000D02*
X151380000Y-113980000D01*
X151380000Y-113980000D02*
X152850000Y-113980000D01*
X151380000Y-115600000D02*
X151380000Y-119060000D01*
X151380000Y-120680000D02*
X151380000Y-123790000D01*
X151380000Y-123790000D02*
X148620000Y-123790000D01*
%TO.C,C5*%
X126490000Y-117859420D02*
X126490000Y-118140580D01*
X127510000Y-117859420D02*
X127510000Y-118140580D01*
%TD*%
%LPC*%
D14*
%TO.C,R6*%
X141500000Y-118825000D03*
X141500000Y-117175000D03*
%TD*%
D15*
%TO.C,C14*%
X111900000Y-112275000D03*
X111900000Y-110725000D03*
%TD*%
D16*
%TO.C,R1*%
X129000000Y-117175000D03*
X129000000Y-118825000D03*
%TD*%
D17*
%TO.C,C4*%
X125000000Y-117225000D03*
X125000000Y-118775000D03*
%TD*%
D15*
%TO.C,C8*%
X134900000Y-118775000D03*
X134900000Y-117225000D03*
%TD*%
%TO.C,C11*%
X114700000Y-123475000D03*
X114700000Y-121925000D03*
%TD*%
D18*
%TO.C,J2L1*%
X111655000Y-114790000D03*
X108345000Y-117330000D03*
X111655000Y-119870000D03*
X108345000Y-122410000D03*
%TD*%
D15*
%TO.C,C2*%
X127000000Y-123775000D03*
X127000000Y-122225000D03*
%TD*%
%TO.C,C7*%
X134900000Y-123775000D03*
X134900000Y-122225000D03*
%TD*%
D14*
%TO.C,R12*%
X133000000Y-118825000D03*
X133000000Y-117175000D03*
%TD*%
D16*
%TO.C,R11*%
X131000000Y-117175000D03*
X131000000Y-118825000D03*
%TD*%
D15*
%TO.C,C13*%
X108800000Y-112275000D03*
X108800000Y-110725000D03*
%TD*%
%TO.C,C3*%
X129100000Y-123775000D03*
X129100000Y-122225000D03*
%TD*%
%TO.C,C1*%
X125000000Y-123775000D03*
X125000000Y-122225000D03*
%TD*%
%TO.C,C10*%
X118700000Y-118775000D03*
X118700000Y-117225000D03*
%TD*%
D16*
%TO.C,R3*%
X116700000Y-121875000D03*
X116700000Y-123525000D03*
%TD*%
D15*
%TO.C,C6*%
X133000000Y-123775000D03*
X133000000Y-122225000D03*
%TD*%
%TO.C,C9*%
X116700000Y-118775000D03*
X116700000Y-117225000D03*
%TD*%
D16*
%TO.C,R5*%
X145500000Y-117175000D03*
X145500000Y-118825000D03*
%TD*%
D17*
%TO.C,C12*%
X143500000Y-117225000D03*
X143500000Y-118775000D03*
%TD*%
D14*
%TO.C,R2*%
X131100000Y-123825000D03*
X131100000Y-122175000D03*
%TD*%
D16*
%TO.C,R4*%
X114700000Y-117175000D03*
X114700000Y-118825000D03*
%TD*%
D19*
%TO.C,U1*%
X114862500Y-113550000D03*
X114862500Y-112600000D03*
X114862500Y-111650000D03*
X117137500Y-111650000D03*
X117137500Y-113550000D03*
%TD*%
D18*
%TO.C,J3R1*%
X151655000Y-114790000D03*
X148345000Y-117330000D03*
X151655000Y-119870000D03*
X148345000Y-122410000D03*
%TD*%
D17*
%TO.C,C5*%
X127000000Y-117225000D03*
X127000000Y-118775000D03*
%TD*%
%LPD*%
M02*
