%TF.GenerationSoftware,KiCad,Pcbnew,9.0.7*%
%TF.CreationDate,2026-01-29T22:03:01+01:00*%
%TF.ProjectId,Web3Pi_UPS_1,57656233-5069-45f5-9550-535f312e6b69,rev?*%
%TF.SameCoordinates,Original*%
%TF.FileFunction,Legend,Top*%
%TF.FilePolarity,Positive*%
%FSLAX46Y46*%
G04 Gerber Fmt 4.6, Leading zero omitted, Abs format (unit mm)*
G04 Created by KiCad (PCBNEW 9.0.7) date 2026-01-29 22:03:01*
%MOMM*%
%LPD*%
G01*
G04 APERTURE LIST*
G04 Aperture macros list*
%AMRoundRect*
0 Rectangle with rounded corners*
0 $1 Rounding radius*
0 $2 $3 $4 $5 $6 $7 $8 $9 X,Y pos of 4 corners*
0 Add a 4 corners polygon primitive as box body*
4,1,4,$2,$3,$4,$5,$6,$7,$8,$9,$2,$3,0*
0 Add four circle primitives for the rounded corners*
1,1,$1+$1,$2,$3*
1,1,$1+$1,$4,$5*
1,1,$1+$1,$6,$7*
1,1,$1+$1,$8,$9*
0 Add four rect primitives between the rounded corners*
20,1,$1+$1,$2,$3,$4,$5,0*
20,1,$1+$1,$4,$5,$6,$7,0*
20,1,$1+$1,$6,$7,$8,$9,0*
20,1,$1+$1,$8,$9,$2,$3,0*%
G04 Aperture macros list end*
%ADD10C,0.150000*%
%ADD11C,0.120000*%
%ADD12C,0.100000*%
%ADD13C,0.700000*%
%ADD14R,0.650000X1.050000*%
%ADD15RoundRect,0.087500X0.087500X-1.412500X0.087500X1.412500X-0.087500X1.412500X-0.087500X-1.412500X0*%
G04 APERTURE END LIST*
D10*
X144666667Y-121907200D02*
X144809524Y-121954819D01*
X144809524Y-121954819D02*
X145047619Y-121954819D01*
X145047619Y-121954819D02*
X145142857Y-121907200D01*
X145142857Y-121907200D02*
X145190476Y-121859580D01*
X145190476Y-121859580D02*
X145238095Y-121764342D01*
X145238095Y-121764342D02*
X145238095Y-121669104D01*
X145238095Y-121669104D02*
X145190476Y-121573866D01*
X145190476Y-121573866D02*
X145142857Y-121526247D01*
X145142857Y-121526247D02*
X145047619Y-121478628D01*
X145047619Y-121478628D02*
X144857143Y-121431009D01*
X144857143Y-121431009D02*
X144761905Y-121383390D01*
X144761905Y-121383390D02*
X144714286Y-121335771D01*
X144714286Y-121335771D02*
X144666667Y-121240533D01*
X144666667Y-121240533D02*
X144666667Y-121145295D01*
X144666667Y-121145295D02*
X144714286Y-121050057D01*
X144714286Y-121050057D02*
X144761905Y-121002438D01*
X144761905Y-121002438D02*
X144857143Y-120954819D01*
X144857143Y-120954819D02*
X145095238Y-120954819D01*
X145095238Y-120954819D02*
X145238095Y-121002438D01*
X145571429Y-120954819D02*
X145809524Y-121954819D01*
X145809524Y-121954819D02*
X146000000Y-121240533D01*
X146000000Y-121240533D02*
X146190476Y-121954819D01*
X146190476Y-121954819D02*
X146428572Y-120954819D01*
X146761905Y-121050057D02*
X146809524Y-121002438D01*
X146809524Y-121002438D02*
X146904762Y-120954819D01*
X146904762Y-120954819D02*
X147142857Y-120954819D01*
X147142857Y-120954819D02*
X147238095Y-121002438D01*
X147238095Y-121002438D02*
X147285714Y-121050057D01*
X147285714Y-121050057D02*
X147333333Y-121145295D01*
X147333333Y-121145295D02*
X147333333Y-121240533D01*
X147333333Y-121240533D02*
X147285714Y-121383390D01*
X147285714Y-121383390D02*
X146714286Y-121954819D01*
X146714286Y-121954819D02*
X147333333Y-121954819D01*
X128785714Y-122704819D02*
X128785714Y-121704819D01*
X128785714Y-121704819D02*
X129023809Y-121704819D01*
X129023809Y-121704819D02*
X129166666Y-121752438D01*
X129166666Y-121752438D02*
X129261904Y-121847676D01*
X129261904Y-121847676D02*
X129309523Y-121942914D01*
X129309523Y-121942914D02*
X129357142Y-122133390D01*
X129357142Y-122133390D02*
X129357142Y-122276247D01*
X129357142Y-122276247D02*
X129309523Y-122466723D01*
X129309523Y-122466723D02*
X129261904Y-122561961D01*
X129261904Y-122561961D02*
X129166666Y-122657200D01*
X129166666Y-122657200D02*
X129023809Y-122704819D01*
X129023809Y-122704819D02*
X128785714Y-122704819D01*
X129738095Y-122657200D02*
X129880952Y-122704819D01*
X129880952Y-122704819D02*
X130119047Y-122704819D01*
X130119047Y-122704819D02*
X130214285Y-122657200D01*
X130214285Y-122657200D02*
X130261904Y-122609580D01*
X130261904Y-122609580D02*
X130309523Y-122514342D01*
X130309523Y-122514342D02*
X130309523Y-122419104D01*
X130309523Y-122419104D02*
X130261904Y-122323866D01*
X130261904Y-122323866D02*
X130214285Y-122276247D01*
X130214285Y-122276247D02*
X130119047Y-122228628D01*
X130119047Y-122228628D02*
X129928571Y-122181009D01*
X129928571Y-122181009D02*
X129833333Y-122133390D01*
X129833333Y-122133390D02*
X129785714Y-122085771D01*
X129785714Y-122085771D02*
X129738095Y-121990533D01*
X129738095Y-121990533D02*
X129738095Y-121895295D01*
X129738095Y-121895295D02*
X129785714Y-121800057D01*
X129785714Y-121800057D02*
X129833333Y-121752438D01*
X129833333Y-121752438D02*
X129928571Y-121704819D01*
X129928571Y-121704819D02*
X130166666Y-121704819D01*
X130166666Y-121704819D02*
X130309523Y-121752438D01*
X131261904Y-122704819D02*
X130690476Y-122704819D01*
X130976190Y-122704819D02*
X130976190Y-121704819D01*
X130976190Y-121704819D02*
X130880952Y-121847676D01*
X130880952Y-121847676D02*
X130785714Y-121942914D01*
X130785714Y-121942914D02*
X130690476Y-121990533D01*
X112666667Y-121907200D02*
X112809524Y-121954819D01*
X112809524Y-121954819D02*
X113047619Y-121954819D01*
X113047619Y-121954819D02*
X113142857Y-121907200D01*
X113142857Y-121907200D02*
X113190476Y-121859580D01*
X113190476Y-121859580D02*
X113238095Y-121764342D01*
X113238095Y-121764342D02*
X113238095Y-121669104D01*
X113238095Y-121669104D02*
X113190476Y-121573866D01*
X113190476Y-121573866D02*
X113142857Y-121526247D01*
X113142857Y-121526247D02*
X113047619Y-121478628D01*
X113047619Y-121478628D02*
X112857143Y-121431009D01*
X112857143Y-121431009D02*
X112761905Y-121383390D01*
X112761905Y-121383390D02*
X112714286Y-121335771D01*
X112714286Y-121335771D02*
X112666667Y-121240533D01*
X112666667Y-121240533D02*
X112666667Y-121145295D01*
X112666667Y-121145295D02*
X112714286Y-121050057D01*
X112714286Y-121050057D02*
X112761905Y-121002438D01*
X112761905Y-121002438D02*
X112857143Y-120954819D01*
X112857143Y-120954819D02*
X113095238Y-120954819D01*
X113095238Y-120954819D02*
X113238095Y-121002438D01*
X113571429Y-120954819D02*
X113809524Y-121954819D01*
X113809524Y-121954819D02*
X114000000Y-121240533D01*
X114000000Y-121240533D02*
X114190476Y-121954819D01*
X114190476Y-121954819D02*
X114428572Y-120954819D01*
X115333333Y-121954819D02*
X114761905Y-121954819D01*
X115047619Y-121954819D02*
X115047619Y-120954819D01*
X115047619Y-120954819D02*
X114952381Y-121097676D01*
X114952381Y-121097676D02*
X114857143Y-121192914D01*
X114857143Y-121192914D02*
X114761905Y-121240533D01*
D11*
%TO.C,SW2*%
X144300000Y-115407000D02*
X144300000Y-119807000D01*
X144300000Y-119807000D02*
X144420000Y-119807000D01*
X144420000Y-115407000D02*
X144300000Y-115407000D01*
X145430000Y-119807000D02*
X146570000Y-119807000D01*
X146570000Y-115407000D02*
X145430000Y-115407000D01*
X147580000Y-119807000D02*
X147700000Y-119807000D01*
X147700000Y-115407000D02*
X147580000Y-115407000D01*
X147700000Y-119807000D02*
X147700000Y-115407000D01*
D12*
%TO.C,DS1*%
X122800000Y-112650000D02*
X122800000Y-124200000D01*
X122800000Y-124200000D02*
X137200000Y-124200000D01*
D11*
X124000000Y-117700000D02*
X124000000Y-124200000D01*
X124000000Y-117700000D02*
X125000000Y-117700000D01*
X124000000Y-124200000D02*
X126200000Y-124200000D01*
X133800000Y-124200000D02*
X136000000Y-124200000D01*
X135000000Y-117700000D02*
X136000000Y-117700000D01*
X136000000Y-117700000D02*
X136000000Y-124200000D01*
D12*
X137200000Y-112650000D02*
X122800000Y-112650000D01*
X137200000Y-124200000D02*
X137200000Y-112650000D01*
D13*
X125350000Y-123200000D02*
G75*
G02*
X124650000Y-123200000I-350000J0D01*
G01*
X124650000Y-123200000D02*
G75*
G02*
X125350000Y-123200000I350000J0D01*
G01*
X135350000Y-123200000D02*
G75*
G02*
X134650000Y-123200000I-350000J0D01*
G01*
X134650000Y-123200000D02*
G75*
G02*
X135350000Y-123200000I350000J0D01*
G01*
D11*
X124490000Y-117080000D02*
X124250000Y-116750000D01*
X124730000Y-116750000D01*
X124490000Y-117080000D01*
G36*
X124490000Y-117080000D02*
G01*
X124250000Y-116750000D01*
X124730000Y-116750000D01*
X124490000Y-117080000D01*
G37*
%TO.C,SW1*%
X112300000Y-115407000D02*
X112300000Y-119807000D01*
X112300000Y-119807000D02*
X112420000Y-119807000D01*
X112420000Y-115407000D02*
X112300000Y-115407000D01*
X113430000Y-119807000D02*
X114570000Y-119807000D01*
X114570000Y-115407000D02*
X113430000Y-115407000D01*
X115580000Y-119807000D02*
X115700000Y-119807000D01*
X115700000Y-115407000D02*
X115580000Y-115407000D01*
X115700000Y-119807000D02*
X115700000Y-115407000D01*
%TD*%
%LPC*%
D14*
%TO.C,SW2*%
X144925000Y-119682000D03*
X144925000Y-115532000D03*
X147075000Y-119682000D03*
X147075000Y-115532000D03*
%TD*%
D15*
%TO.C,DS1*%
X125450000Y-118200000D03*
X126150000Y-118200000D03*
X126850000Y-118200000D03*
X127550000Y-118200000D03*
X128250000Y-118200000D03*
X128950000Y-118200000D03*
X129650000Y-118200000D03*
X130350000Y-118200000D03*
X131050000Y-118200000D03*
X131750000Y-118200000D03*
X132450000Y-118200000D03*
X133150000Y-118200000D03*
X133850000Y-118200000D03*
X134550000Y-118200000D03*
%TD*%
D14*
%TO.C,SW1*%
X112925000Y-119682000D03*
X112925000Y-115532000D03*
X115075000Y-119682000D03*
X115075000Y-115532000D03*
%TD*%
%LPD*%
M02*
